M48
; DRILL file {KiCad 8.0.2} date 2024-08-07T22:55:29+1200
; FORMAT={-:-/ absolute / inch / decimal}
; #@! TF.CreationDate,2024-08-07T22:55:29+12:00
; #@! TF.GenerationSoftware,Kicad,Pcbnew,8.0.2
; #@! TF.FileFunction,Plated,1,4,PTH
FMAT,2
INCH
; #@! TA.AperFunction,Plated,PTH,ViaDrill
T1C0.0118
; #@! TA.AperFunction,Plated,PTH,ComponentDrill
T2C0.0256
; #@! TA.AperFunction,Plated,PTH,ComponentDrill
T3C0.0276
; #@! TA.AperFunction,Plated,PTH,ComponentDrill
T4C0.0394
%
G90
G05
T1
X3.9185Y-3.878
X3.9193Y-4.1102
X3.9205Y-3.3996
X3.9213Y-3.1575
X3.9222Y-3.6358
X3.9232Y-4.4596
X3.9469Y-3.878
X3.9476Y-4.1102
X3.9488Y-3.3996
X3.9496Y-3.1575
X3.9506Y-3.6358
X3.9516Y-4.4596
X4.0069Y-3.8317
X4.0337Y-3.1772
X4.0346Y-3.6545
X4.0364Y-4.1594
X4.0364Y-4.3061
X4.0366Y-3.9272
X4.0366Y-4.5374
X4.062Y-3.1772
X4.063Y-3.6545
X4.064Y-4.3061
X4.065Y-3.9272
X4.065Y-4.5374
X4.0689Y-4.1585
X4.0933Y-3.3531
X4.1388Y-4.1319
X4.1398Y-4.3307
X4.1457Y-3.3996
X4.1467Y-3.6526
X4.15Y-4.0035
X4.1512Y-4.5819
X4.1654Y-4.1457
X4.1654Y-4.315
X4.1748Y-3.9018
X4.1969Y-4.3661
X4.1969Y-4.3907
X4.1978Y-4.0728
X4.1978Y-4.0974
X4.1978Y-4.1693
X4.1978Y-4.2953
X4.2057Y-4.2323
X4.2142Y-3.4573
X4.2146Y-3.6526
X4.2205Y-4.3937
X4.2224Y-4.0728
X4.2314Y-4.015
X4.2333Y-4.2047
X4.2333Y-4.2598
X4.2358Y-4.3662
X4.249Y-3.1043
X4.2608Y-4.1772
X4.2608Y-4.2323
X4.2608Y-4.2874
X4.2874Y-4.2067
X4.2904Y-4.2598
X4.2936Y-3.5308
X4.295Y-3.2822
X4.3159Y-4.2323
X4.3189Y-4.2904
X4.3219Y-4.1703
X4.339Y-3.9854
X4.3415Y-4.1073
X4.3445Y-3.3937
X4.3701Y-3.1043
X4.3764Y-4.4992
X4.3799Y-4.3154
X4.3913Y-4.4248
X4.3946Y-4.2542
X4.3957Y-4.207
X4.4Y-4.4992
X4.402Y-4.2848
X4.4026Y-4.1073
X4.4094Y-3.5943
X4.4154Y-4.4248
X4.4236Y-4.4992
X4.4402Y-3.9984
X4.4402Y-4.0268
X4.4583Y-3.9369
X4.4598Y-4.2638
X4.4638Y-3.4783
X4.501Y-3.6476
X4.5067Y-4.3283
X4.5157Y-3.8039
X4.5217Y-3.7689
X4.5268Y-3.2929
X4.5276Y-2.9075
X4.5302Y-3.6268
X4.5359Y-3.8491
X4.5384Y-3.5935
X4.5551Y-3.2372
X4.564Y-3.1762
X4.578Y-4.0854
X4.578Y-4.1138
X4.5787Y-3.8937
X4.5896Y-3.9537
X4.5902Y-3.2929
X4.5906Y-3.4134
X4.5984Y-2.8303
X4.6004Y-3.7608
X4.6026Y-3.7213
X4.6157Y-3.8945
X4.6181Y-4.2451
X4.6181Y-4.2717
X4.6299Y-3.8022
X4.6417Y-4.3327
X4.6417Y-4.3563
X4.6516Y-3.2402
X4.6526Y-3.7579
X4.6528Y-3.2929
X4.6535Y-3.6732
X4.6543Y-3.4133
X4.6575Y-3.7136
X4.6703Y-3.8071
X4.6762Y-3.7382
X4.6772Y-3.6919
X4.6791Y-2.8016
X4.6998Y-3.6732
X4.7008Y-3.7126
X4.7008Y-3.7589
X4.7082Y-3.6232
X4.7146Y-3.0837
X4.7205Y-3.9301
X4.7224Y-3.7372
X4.7234Y-3.6909
X4.7382Y-3.0846
X4.7458Y-4.0445
X4.7461Y-3.7116
X4.747Y-3.7559
X4.748Y-3.6713
X4.75Y-2.9646
X4.751Y-2.9902
X4.752Y-3.0167
X4.752Y-3.0404
X4.752Y-3.064
X4.7547Y-2.815
X4.7628Y-4.3435
X4.7697Y-3.6211
X4.7844Y-4.2443
X4.7844Y-4.2726
X4.7992Y-3.9242
X4.8007Y-3.815
X4.8051Y-3.6351
X4.8091Y-4.0445
X4.8264Y-3.4126
X4.8278Y-2.7195
X4.8287Y-2.7451
X4.8287Y-2.9754
X4.8287Y-3.003
X4.8287Y-3.0305
X4.8287Y-3.0571
X4.8297Y-2.7717
X4.8297Y-2.7953
X4.8297Y-2.8189
X4.876Y-3.0827
X4.8851Y-3.7382
X4.8917Y-3.7697
X4.8953Y-3.413
X4.8967Y-3.5335
X4.9035Y-3.8222
X4.9045Y-3.6367
X4.9081Y-3.5679
X4.9085Y-3.0167
X4.9085Y-3.0404
X4.9085Y-3.065
X4.9094Y-2.9695
X4.9094Y-2.9931
X4.9417Y-4.0955
X4.9419Y-4.2628
X4.9433Y-4.3421
X4.9537Y-3.0837
X4.9587Y-3.3169
X4.9764Y-4.3051
X4.9862Y-2.9843
X4.9862Y-3.0118
X4.9862Y-3.0413
X4.9862Y-3.0758
X4.9866Y-2.9602
X4.9892Y-3.2864
X4.9892Y-3.4075
X4.9937Y-3.9374
X5.0012Y-4.0787
X5.0039Y-4.3425
X5.0098Y-4.2594
X5.0118Y-3.7807
X5.0173Y-3.9374
X5.0248Y-3.635
X5.028Y-3.5665
X5.0295Y-4.0787
X5.0409Y-3.9374
X5.0571Y-4.1555
X5.065Y-4.3425
X5.0661Y-4.4634
X5.0778Y-4.122
X5.0949Y-4.5531
X5.1043Y-4.1801
X5.1053Y-4.2854
X5.1063Y-4.2352
X5.1106Y-4.3992
X5.1125Y-4.3677
X5.122Y-3.3455
X5.1358Y-3.1575
X5.1398Y-3.2854
X5.1437Y-3.4045
X5.1634Y-4.3704
X5.1644Y-3.2854
X5.1683Y-3.4045
X5.1781Y-4.2313
X5.185Y-3.6585
X5.186Y-3.313
X5.187Y-4.2933
X5.189Y-4.1801
X5.1911Y-3.3386
X5.2047Y-4.2638
X5.2051Y-4.3961
X5.2067Y-4.076
X5.2185Y-3.4075
X5.2205Y-3.6575
X5.2224Y-4.2146
X5.2245Y-3.6262
X5.2254Y-4.1732
X5.2291Y-4.3681
X5.2291Y-4.3961
X5.2293Y-4.2982
X5.2307Y-4.076
X5.2307Y-4.102
X5.2472Y-4.585
X5.26Y-4.1504
X5.26Y-4.3197
X5.2748Y-3.8772
X5.2756Y-4.4634
X5.2856Y-4.3354
X5.2866Y-4.1366
X5.2957Y-3.7096
X5.2957Y-3.7992
X5.3059Y-4.4339
X5.3215Y-3.1673
X5.3287Y-3.562
X5.3307Y-3.6457
X5.3317Y-3.5866
X5.3317Y-3.6201
X5.3386Y-3.9272
X5.3524Y-3.5551
X5.3594Y-4.5413
X5.3612Y-3.6319
X5.3642Y-4.3102
X5.365Y-4.1618
X5.3669Y-3.9272
X5.377Y-3.5551
X5.3878Y-4.5413
X5.3882Y-4.3102
X5.3888Y-3.6319
X5.389Y-4.1618
X5.4016Y-3.5541
X5.4193Y-3.6467
X5.4252Y-3.562
X5.4252Y-3.5866
X5.4272Y-3.6831
X5.4281Y-3.8287
X5.4291Y-3.1673
X5.4291Y-3.1957
X5.4291Y-3.2441
X5.4291Y-3.2724
X5.4726Y-3.876
X5.4756Y-3.4291
X5.4764Y-4.1152
X5.4793Y-4.4636
X5.501Y-3.876
X5.5039Y-3.4291
X5.5047Y-4.1152
X5.5077Y-4.4636
T4
X4.6535Y-4.4744
X4.7535Y-4.4744
T2
G00X5.3693Y-3.123
M15
G01X5.3535Y-3.123
M16
G05
G00X5.3693Y-3.3136
M15
G01X5.3535Y-3.3136
M16
G05
T3
G00X5.4894Y-3.1108
M15
G01X5.4697Y-3.1108
M16
G05
G00X5.4894Y-3.3258
M15
G01X5.4697Y-3.3258
M16
G05
M30
