M48
; DRILL file {KiCad 7.0.8} date Tue Jun  4 12:59:19 2024
; FORMAT={-:-/ absolute / metric / decimal}
; #@! TF.CreationDate,2024-06-04T12:59:19+12:00
; #@! TF.GenerationSoftware,Kicad,Pcbnew,7.0.8
; #@! TF.FileFunction,Plated,1,4,PTH
FMAT,2
METRIC
; #@! TA.AperFunction,Plated,PTH,ViaDrill
T1C0.400
; #@! TA.AperFunction,Plated,PTH,ComponentDrill
T2C0.950
; #@! TA.AperFunction,Plated,PTH,ComponentDrill
T3C1.000
; #@! TA.AperFunction,Plated,PTH,ComponentDrill
T4C1.090
; #@! TA.AperFunction,Plated,PTH,ComponentDrill
T5C2.100
%
G90
G05
T1
X124.46Y-94.742
X127.727Y-97.512
X131.25Y-93.5
X132.05Y-74.2
X132.75Y-93.5
X135.636Y-96.774
X136.398Y-73.914
X137.668Y-73.914
X139.446Y-97.536
X145.288Y-93.472
X145.415Y-74.041
X146.0Y-88.5
X147.7Y-89.35
X150.5Y-89.5
X152.5Y-93.7
X155.4Y-93.65
X156.75Y-74.0
X157.0Y-89.0
X158.0Y-73.75
X158.25Y-89.25
X162.306Y-95.758
X165.25Y-74.25
X166.878Y-97.536
X167.5Y-74.0
X169.5Y-74.25
X169.75Y-89.25
X171.0Y-74.0
X171.0Y-89.25
X173.482Y-69.907
X176.462Y-70.866
X183.896Y-83.312
X187.198Y-82.296
X191.516Y-80.638
X191.516Y-81.534
X197.866Y-81.788
X198.12Y-78.486
X198.12Y-79.502
X198.374Y-83.566
X198.628Y-76.708
X199.644Y-76.2
T2
X121.98Y-105.552
X124.286Y-62.79
X124.48Y-105.552
X126.786Y-62.79
X126.98Y-105.552
X129.286Y-62.79
X129.48Y-105.552
X131.786Y-62.79
X135.657Y-105.534
X138.157Y-105.534
X140.657Y-105.534
X143.157Y-105.534
X149.335Y-105.516
X151.835Y-105.516
X154.335Y-105.516
X156.835Y-105.516
X163.012Y-105.57
X165.512Y-105.57
X168.012Y-105.57
X170.512Y-105.57
X176.69Y-107.188
X179.19Y-107.188
X179.892Y-62.79
X181.69Y-107.188
X182.392Y-62.79
X182.478Y-92.0
X182.478Y-94.5
X182.478Y-97.0
X182.478Y-99.5
X184.19Y-107.188
X184.892Y-62.79
X186.69Y-107.188
X187.392Y-62.79
X189.19Y-107.188
T3
X136.445Y-54.61
X136.445Y-67.31
X138.985Y-54.61
X138.985Y-67.31
X141.525Y-54.61
X141.525Y-67.31
X144.065Y-54.61
X144.065Y-67.31
X146.605Y-54.61
X146.605Y-67.31
X149.145Y-54.61
X149.145Y-67.31
X151.685Y-54.61
X151.685Y-67.31
X154.225Y-54.61
X154.225Y-67.31
X157.453Y-54.61
X157.453Y-67.31
X159.993Y-54.61
X159.993Y-67.31
X162.533Y-54.61
X162.533Y-67.31
X165.073Y-54.61
X165.073Y-67.31
X167.613Y-54.61
X167.613Y-67.31
X170.153Y-54.61
X170.153Y-67.31
X172.693Y-54.61
X172.693Y-67.31
X175.233Y-54.61
X175.233Y-67.31
T4
X180.605Y-69.348
X180.605Y-71.888
T5
X127.6Y-76.088
X127.6Y-87.488
X174.6Y-76.088
X174.6Y-87.488
T0
M30
