%TF.GenerationSoftware,KiCad,Pcbnew,7.0.8*%
%TF.CreationDate,2024-06-04T12:59:23+12:00*%
%TF.ProjectId,FYP_P2_1,4659505f-5032-45f3-912e-6b696361645f,rev?*%
%TF.SameCoordinates,Original*%
%TF.FileFunction,Legend,Top*%
%TF.FilePolarity,Positive*%
%FSLAX46Y46*%
G04 Gerber Fmt 4.6, Leading zero omitted, Abs format (unit mm)*
G04 Created by KiCad (PCBNEW 7.0.8) date 2024-06-04 12:59:23*
%MOMM*%
%LPD*%
G01*
G04 APERTURE LIST*
%ADD10C,0.150000*%
%ADD11C,0.254000*%
%ADD12C,0.120000*%
%ADD13C,0.200000*%
%ADD14C,0.152400*%
%ADD15C,0.127000*%
G04 APERTURE END LIST*
D10*
X121864398Y-102546295D02*
X122235826Y-102546295D01*
X122235826Y-102546295D02*
X122035826Y-102851057D01*
X122035826Y-102851057D02*
X122121541Y-102851057D01*
X122121541Y-102851057D02*
X122178684Y-102889152D01*
X122178684Y-102889152D02*
X122207255Y-102927247D01*
X122207255Y-102927247D02*
X122235826Y-103003438D01*
X122235826Y-103003438D02*
X122235826Y-103193914D01*
X122235826Y-103193914D02*
X122207255Y-103270104D01*
X122207255Y-103270104D02*
X122178684Y-103308200D01*
X122178684Y-103308200D02*
X122121541Y-103346295D01*
X122121541Y-103346295D02*
X121950112Y-103346295D01*
X121950112Y-103346295D02*
X121892969Y-103308200D01*
X121892969Y-103308200D02*
X121864398Y-103270104D01*
X122407255Y-102546295D02*
X122607255Y-103346295D01*
X122607255Y-103346295D02*
X122807255Y-102546295D01*
X122950113Y-102546295D02*
X123321541Y-102546295D01*
X123321541Y-102546295D02*
X123121541Y-102851057D01*
X123121541Y-102851057D02*
X123207256Y-102851057D01*
X123207256Y-102851057D02*
X123264399Y-102889152D01*
X123264399Y-102889152D02*
X123292970Y-102927247D01*
X123292970Y-102927247D02*
X123321541Y-103003438D01*
X123321541Y-103003438D02*
X123321541Y-103193914D01*
X123321541Y-103193914D02*
X123292970Y-103270104D01*
X123292970Y-103270104D02*
X123264399Y-103308200D01*
X123264399Y-103308200D02*
X123207256Y-103346295D01*
X123207256Y-103346295D02*
X123035827Y-103346295D01*
X123035827Y-103346295D02*
X122978684Y-103308200D01*
X122978684Y-103308200D02*
X122950113Y-103270104D01*
X124007256Y-103308200D02*
X124092971Y-103346295D01*
X124092971Y-103346295D02*
X124235828Y-103346295D01*
X124235828Y-103346295D02*
X124292971Y-103308200D01*
X124292971Y-103308200D02*
X124321542Y-103270104D01*
X124321542Y-103270104D02*
X124350113Y-103193914D01*
X124350113Y-103193914D02*
X124350113Y-103117723D01*
X124350113Y-103117723D02*
X124321542Y-103041533D01*
X124321542Y-103041533D02*
X124292971Y-103003438D01*
X124292971Y-103003438D02*
X124235828Y-102965342D01*
X124235828Y-102965342D02*
X124121542Y-102927247D01*
X124121542Y-102927247D02*
X124064399Y-102889152D01*
X124064399Y-102889152D02*
X124035828Y-102851057D01*
X124035828Y-102851057D02*
X124007256Y-102774866D01*
X124007256Y-102774866D02*
X124007256Y-102698676D01*
X124007256Y-102698676D02*
X124035828Y-102622485D01*
X124035828Y-102622485D02*
X124064399Y-102584390D01*
X124064399Y-102584390D02*
X124121542Y-102546295D01*
X124121542Y-102546295D02*
X124264399Y-102546295D01*
X124264399Y-102546295D02*
X124350113Y-102584390D01*
X124607257Y-103346295D02*
X124607257Y-102546295D01*
X124607257Y-102546295D02*
X124750114Y-102546295D01*
X124750114Y-102546295D02*
X124835828Y-102584390D01*
X124835828Y-102584390D02*
X124892971Y-102660580D01*
X124892971Y-102660580D02*
X124921542Y-102736771D01*
X124921542Y-102736771D02*
X124950114Y-102889152D01*
X124950114Y-102889152D02*
X124950114Y-103003438D01*
X124950114Y-103003438D02*
X124921542Y-103155819D01*
X124921542Y-103155819D02*
X124892971Y-103232009D01*
X124892971Y-103232009D02*
X124835828Y-103308200D01*
X124835828Y-103308200D02*
X124750114Y-103346295D01*
X124750114Y-103346295D02*
X124607257Y-103346295D01*
X125178685Y-103117723D02*
X125464400Y-103117723D01*
X125121542Y-103346295D02*
X125321542Y-102546295D01*
X125321542Y-102546295D02*
X125521542Y-103346295D01*
X126150114Y-103308200D02*
X126235829Y-103346295D01*
X126235829Y-103346295D02*
X126378686Y-103346295D01*
X126378686Y-103346295D02*
X126435829Y-103308200D01*
X126435829Y-103308200D02*
X126464400Y-103270104D01*
X126464400Y-103270104D02*
X126492971Y-103193914D01*
X126492971Y-103193914D02*
X126492971Y-103117723D01*
X126492971Y-103117723D02*
X126464400Y-103041533D01*
X126464400Y-103041533D02*
X126435829Y-103003438D01*
X126435829Y-103003438D02*
X126378686Y-102965342D01*
X126378686Y-102965342D02*
X126264400Y-102927247D01*
X126264400Y-102927247D02*
X126207257Y-102889152D01*
X126207257Y-102889152D02*
X126178686Y-102851057D01*
X126178686Y-102851057D02*
X126150114Y-102774866D01*
X126150114Y-102774866D02*
X126150114Y-102698676D01*
X126150114Y-102698676D02*
X126178686Y-102622485D01*
X126178686Y-102622485D02*
X126207257Y-102584390D01*
X126207257Y-102584390D02*
X126264400Y-102546295D01*
X126264400Y-102546295D02*
X126407257Y-102546295D01*
X126407257Y-102546295D02*
X126492971Y-102584390D01*
X127092972Y-103270104D02*
X127064400Y-103308200D01*
X127064400Y-103308200D02*
X126978686Y-103346295D01*
X126978686Y-103346295D02*
X126921543Y-103346295D01*
X126921543Y-103346295D02*
X126835829Y-103308200D01*
X126835829Y-103308200D02*
X126778686Y-103232009D01*
X126778686Y-103232009D02*
X126750115Y-103155819D01*
X126750115Y-103155819D02*
X126721543Y-103003438D01*
X126721543Y-103003438D02*
X126721543Y-102889152D01*
X126721543Y-102889152D02*
X126750115Y-102736771D01*
X126750115Y-102736771D02*
X126778686Y-102660580D01*
X126778686Y-102660580D02*
X126835829Y-102584390D01*
X126835829Y-102584390D02*
X126921543Y-102546295D01*
X126921543Y-102546295D02*
X126978686Y-102546295D01*
X126978686Y-102546295D02*
X127064400Y-102584390D01*
X127064400Y-102584390D02*
X127092972Y-102622485D01*
X127635829Y-103346295D02*
X127350115Y-103346295D01*
X127350115Y-103346295D02*
X127350115Y-102546295D01*
X128607257Y-102584390D02*
X128550115Y-102546295D01*
X128550115Y-102546295D02*
X128464400Y-102546295D01*
X128464400Y-102546295D02*
X128378686Y-102584390D01*
X128378686Y-102584390D02*
X128321543Y-102660580D01*
X128321543Y-102660580D02*
X128292972Y-102736771D01*
X128292972Y-102736771D02*
X128264400Y-102889152D01*
X128264400Y-102889152D02*
X128264400Y-103003438D01*
X128264400Y-103003438D02*
X128292972Y-103155819D01*
X128292972Y-103155819D02*
X128321543Y-103232009D01*
X128321543Y-103232009D02*
X128378686Y-103308200D01*
X128378686Y-103308200D02*
X128464400Y-103346295D01*
X128464400Y-103346295D02*
X128521543Y-103346295D01*
X128521543Y-103346295D02*
X128607257Y-103308200D01*
X128607257Y-103308200D02*
X128635829Y-103270104D01*
X128635829Y-103270104D02*
X128635829Y-103003438D01*
X128635829Y-103003438D02*
X128521543Y-103003438D01*
X128892972Y-103346295D02*
X128892972Y-102546295D01*
X128892972Y-102546295D02*
X129235829Y-103346295D01*
X129235829Y-103346295D02*
X129235829Y-102546295D01*
X129521543Y-103346295D02*
X129521543Y-102546295D01*
X129521543Y-102546295D02*
X129664400Y-102546295D01*
X129664400Y-102546295D02*
X129750114Y-102584390D01*
X129750114Y-102584390D02*
X129807257Y-102660580D01*
X129807257Y-102660580D02*
X129835828Y-102736771D01*
X129835828Y-102736771D02*
X129864400Y-102889152D01*
X129864400Y-102889152D02*
X129864400Y-103003438D01*
X129864400Y-103003438D02*
X129835828Y-103155819D01*
X129835828Y-103155819D02*
X129807257Y-103232009D01*
X129807257Y-103232009D02*
X129750114Y-103308200D01*
X129750114Y-103308200D02*
X129664400Y-103346295D01*
X129664400Y-103346295D02*
X129521543Y-103346295D01*
X136141898Y-102528295D02*
X136513326Y-102528295D01*
X136513326Y-102528295D02*
X136313326Y-102833057D01*
X136313326Y-102833057D02*
X136399041Y-102833057D01*
X136399041Y-102833057D02*
X136456184Y-102871152D01*
X136456184Y-102871152D02*
X136484755Y-102909247D01*
X136484755Y-102909247D02*
X136513326Y-102985438D01*
X136513326Y-102985438D02*
X136513326Y-103175914D01*
X136513326Y-103175914D02*
X136484755Y-103252104D01*
X136484755Y-103252104D02*
X136456184Y-103290200D01*
X136456184Y-103290200D02*
X136399041Y-103328295D01*
X136399041Y-103328295D02*
X136227612Y-103328295D01*
X136227612Y-103328295D02*
X136170469Y-103290200D01*
X136170469Y-103290200D02*
X136141898Y-103252104D01*
X136684755Y-102528295D02*
X136884755Y-103328295D01*
X136884755Y-103328295D02*
X137084755Y-102528295D01*
X137227613Y-102528295D02*
X137599041Y-102528295D01*
X137599041Y-102528295D02*
X137399041Y-102833057D01*
X137399041Y-102833057D02*
X137484756Y-102833057D01*
X137484756Y-102833057D02*
X137541899Y-102871152D01*
X137541899Y-102871152D02*
X137570470Y-102909247D01*
X137570470Y-102909247D02*
X137599041Y-102985438D01*
X137599041Y-102985438D02*
X137599041Y-103175914D01*
X137599041Y-103175914D02*
X137570470Y-103252104D01*
X137570470Y-103252104D02*
X137541899Y-103290200D01*
X137541899Y-103290200D02*
X137484756Y-103328295D01*
X137484756Y-103328295D02*
X137313327Y-103328295D01*
X137313327Y-103328295D02*
X137256184Y-103290200D01*
X137256184Y-103290200D02*
X137227613Y-103252104D01*
X138284756Y-103290200D02*
X138370471Y-103328295D01*
X138370471Y-103328295D02*
X138513328Y-103328295D01*
X138513328Y-103328295D02*
X138570471Y-103290200D01*
X138570471Y-103290200D02*
X138599042Y-103252104D01*
X138599042Y-103252104D02*
X138627613Y-103175914D01*
X138627613Y-103175914D02*
X138627613Y-103099723D01*
X138627613Y-103099723D02*
X138599042Y-103023533D01*
X138599042Y-103023533D02*
X138570471Y-102985438D01*
X138570471Y-102985438D02*
X138513328Y-102947342D01*
X138513328Y-102947342D02*
X138399042Y-102909247D01*
X138399042Y-102909247D02*
X138341899Y-102871152D01*
X138341899Y-102871152D02*
X138313328Y-102833057D01*
X138313328Y-102833057D02*
X138284756Y-102756866D01*
X138284756Y-102756866D02*
X138284756Y-102680676D01*
X138284756Y-102680676D02*
X138313328Y-102604485D01*
X138313328Y-102604485D02*
X138341899Y-102566390D01*
X138341899Y-102566390D02*
X138399042Y-102528295D01*
X138399042Y-102528295D02*
X138541899Y-102528295D01*
X138541899Y-102528295D02*
X138627613Y-102566390D01*
X138884757Y-103328295D02*
X138884757Y-102528295D01*
X138884757Y-102528295D02*
X139027614Y-102528295D01*
X139027614Y-102528295D02*
X139113328Y-102566390D01*
X139113328Y-102566390D02*
X139170471Y-102642580D01*
X139170471Y-102642580D02*
X139199042Y-102718771D01*
X139199042Y-102718771D02*
X139227614Y-102871152D01*
X139227614Y-102871152D02*
X139227614Y-102985438D01*
X139227614Y-102985438D02*
X139199042Y-103137819D01*
X139199042Y-103137819D02*
X139170471Y-103214009D01*
X139170471Y-103214009D02*
X139113328Y-103290200D01*
X139113328Y-103290200D02*
X139027614Y-103328295D01*
X139027614Y-103328295D02*
X138884757Y-103328295D01*
X139456185Y-103099723D02*
X139741900Y-103099723D01*
X139399042Y-103328295D02*
X139599042Y-102528295D01*
X139599042Y-102528295D02*
X139799042Y-103328295D01*
X140427614Y-103290200D02*
X140513329Y-103328295D01*
X140513329Y-103328295D02*
X140656186Y-103328295D01*
X140656186Y-103328295D02*
X140713329Y-103290200D01*
X140713329Y-103290200D02*
X140741900Y-103252104D01*
X140741900Y-103252104D02*
X140770471Y-103175914D01*
X140770471Y-103175914D02*
X140770471Y-103099723D01*
X140770471Y-103099723D02*
X140741900Y-103023533D01*
X140741900Y-103023533D02*
X140713329Y-102985438D01*
X140713329Y-102985438D02*
X140656186Y-102947342D01*
X140656186Y-102947342D02*
X140541900Y-102909247D01*
X140541900Y-102909247D02*
X140484757Y-102871152D01*
X140484757Y-102871152D02*
X140456186Y-102833057D01*
X140456186Y-102833057D02*
X140427614Y-102756866D01*
X140427614Y-102756866D02*
X140427614Y-102680676D01*
X140427614Y-102680676D02*
X140456186Y-102604485D01*
X140456186Y-102604485D02*
X140484757Y-102566390D01*
X140484757Y-102566390D02*
X140541900Y-102528295D01*
X140541900Y-102528295D02*
X140684757Y-102528295D01*
X140684757Y-102528295D02*
X140770471Y-102566390D01*
X141370472Y-103252104D02*
X141341900Y-103290200D01*
X141341900Y-103290200D02*
X141256186Y-103328295D01*
X141256186Y-103328295D02*
X141199043Y-103328295D01*
X141199043Y-103328295D02*
X141113329Y-103290200D01*
X141113329Y-103290200D02*
X141056186Y-103214009D01*
X141056186Y-103214009D02*
X141027615Y-103137819D01*
X141027615Y-103137819D02*
X140999043Y-102985438D01*
X140999043Y-102985438D02*
X140999043Y-102871152D01*
X140999043Y-102871152D02*
X141027615Y-102718771D01*
X141027615Y-102718771D02*
X141056186Y-102642580D01*
X141056186Y-102642580D02*
X141113329Y-102566390D01*
X141113329Y-102566390D02*
X141199043Y-102528295D01*
X141199043Y-102528295D02*
X141256186Y-102528295D01*
X141256186Y-102528295D02*
X141341900Y-102566390D01*
X141341900Y-102566390D02*
X141370472Y-102604485D01*
X141913329Y-103328295D02*
X141627615Y-103328295D01*
X141627615Y-103328295D02*
X141627615Y-102528295D01*
X142884757Y-102566390D02*
X142827615Y-102528295D01*
X142827615Y-102528295D02*
X142741900Y-102528295D01*
X142741900Y-102528295D02*
X142656186Y-102566390D01*
X142656186Y-102566390D02*
X142599043Y-102642580D01*
X142599043Y-102642580D02*
X142570472Y-102718771D01*
X142570472Y-102718771D02*
X142541900Y-102871152D01*
X142541900Y-102871152D02*
X142541900Y-102985438D01*
X142541900Y-102985438D02*
X142570472Y-103137819D01*
X142570472Y-103137819D02*
X142599043Y-103214009D01*
X142599043Y-103214009D02*
X142656186Y-103290200D01*
X142656186Y-103290200D02*
X142741900Y-103328295D01*
X142741900Y-103328295D02*
X142799043Y-103328295D01*
X142799043Y-103328295D02*
X142884757Y-103290200D01*
X142884757Y-103290200D02*
X142913329Y-103252104D01*
X142913329Y-103252104D02*
X142913329Y-102985438D01*
X142913329Y-102985438D02*
X142799043Y-102985438D01*
X143170472Y-103328295D02*
X143170472Y-102528295D01*
X143170472Y-102528295D02*
X143513329Y-103328295D01*
X143513329Y-103328295D02*
X143513329Y-102528295D01*
X143799043Y-103328295D02*
X143799043Y-102528295D01*
X143799043Y-102528295D02*
X143941900Y-102528295D01*
X143941900Y-102528295D02*
X144027614Y-102566390D01*
X144027614Y-102566390D02*
X144084757Y-102642580D01*
X144084757Y-102642580D02*
X144113328Y-102718771D01*
X144113328Y-102718771D02*
X144141900Y-102871152D01*
X144141900Y-102871152D02*
X144141900Y-102985438D01*
X144141900Y-102985438D02*
X144113328Y-103137819D01*
X144113328Y-103137819D02*
X144084757Y-103214009D01*
X144084757Y-103214009D02*
X144027614Y-103290200D01*
X144027614Y-103290200D02*
X143941900Y-103328295D01*
X143941900Y-103328295D02*
X143799043Y-103328295D01*
X178939819Y-71580173D02*
X178939819Y-71923030D01*
X178939819Y-71751601D02*
X177939819Y-71751601D01*
X177939819Y-71751601D02*
X178082676Y-71808744D01*
X178082676Y-71808744D02*
X178177914Y-71865887D01*
X178177914Y-71865887D02*
X178225533Y-71923030D01*
X178035057Y-71351601D02*
X177987438Y-71323029D01*
X177987438Y-71323029D02*
X177939819Y-71265887D01*
X177939819Y-71265887D02*
X177939819Y-71123029D01*
X177939819Y-71123029D02*
X177987438Y-71065887D01*
X177987438Y-71065887D02*
X178035057Y-71037315D01*
X178035057Y-71037315D02*
X178130295Y-71008744D01*
X178130295Y-71008744D02*
X178225533Y-71008744D01*
X178225533Y-71008744D02*
X178368390Y-71037315D01*
X178368390Y-71037315D02*
X178939819Y-71380172D01*
X178939819Y-71380172D02*
X178939819Y-71008744D01*
X177939819Y-70837315D02*
X178939819Y-70637315D01*
X178939819Y-70637315D02*
X177939819Y-70437315D01*
X177987438Y-69465886D02*
X177939819Y-69523029D01*
X177939819Y-69523029D02*
X177939819Y-69608743D01*
X177939819Y-69608743D02*
X177987438Y-69694457D01*
X177987438Y-69694457D02*
X178082676Y-69751600D01*
X178082676Y-69751600D02*
X178177914Y-69780171D01*
X178177914Y-69780171D02*
X178368390Y-69808743D01*
X178368390Y-69808743D02*
X178511247Y-69808743D01*
X178511247Y-69808743D02*
X178701723Y-69780171D01*
X178701723Y-69780171D02*
X178796961Y-69751600D01*
X178796961Y-69751600D02*
X178892200Y-69694457D01*
X178892200Y-69694457D02*
X178939819Y-69608743D01*
X178939819Y-69608743D02*
X178939819Y-69551600D01*
X178939819Y-69551600D02*
X178892200Y-69465886D01*
X178892200Y-69465886D02*
X178844580Y-69437314D01*
X178844580Y-69437314D02*
X178511247Y-69437314D01*
X178511247Y-69437314D02*
X178511247Y-69551600D01*
X178939819Y-69180171D02*
X177939819Y-69180171D01*
X177939819Y-69180171D02*
X178939819Y-68837314D01*
X178939819Y-68837314D02*
X177939819Y-68837314D01*
X178939819Y-68551600D02*
X177939819Y-68551600D01*
X177939819Y-68551600D02*
X177939819Y-68408743D01*
X177939819Y-68408743D02*
X177987438Y-68323029D01*
X177987438Y-68323029D02*
X178082676Y-68265886D01*
X178082676Y-68265886D02*
X178177914Y-68237315D01*
X178177914Y-68237315D02*
X178368390Y-68208743D01*
X178368390Y-68208743D02*
X178511247Y-68208743D01*
X178511247Y-68208743D02*
X178701723Y-68237315D01*
X178701723Y-68237315D02*
X178796961Y-68265886D01*
X178796961Y-68265886D02*
X178892200Y-68323029D01*
X178892200Y-68323029D02*
X178939819Y-68408743D01*
X178939819Y-68408743D02*
X178939819Y-68551600D01*
X162399755Y-102029819D02*
X162114041Y-102029819D01*
X162114041Y-102029819D02*
X162085469Y-102506009D01*
X162085469Y-102506009D02*
X162114041Y-102458390D01*
X162114041Y-102458390D02*
X162171184Y-102410771D01*
X162171184Y-102410771D02*
X162314041Y-102410771D01*
X162314041Y-102410771D02*
X162371184Y-102458390D01*
X162371184Y-102458390D02*
X162399755Y-102506009D01*
X162399755Y-102506009D02*
X162428326Y-102601247D01*
X162428326Y-102601247D02*
X162428326Y-102839342D01*
X162428326Y-102839342D02*
X162399755Y-102934580D01*
X162399755Y-102934580D02*
X162371184Y-102982200D01*
X162371184Y-102982200D02*
X162314041Y-103029819D01*
X162314041Y-103029819D02*
X162171184Y-103029819D01*
X162171184Y-103029819D02*
X162114041Y-102982200D01*
X162114041Y-102982200D02*
X162085469Y-102934580D01*
X162599755Y-102029819D02*
X162799755Y-103029819D01*
X162799755Y-103029819D02*
X162999755Y-102029819D01*
X163656899Y-102506009D02*
X163856899Y-102506009D01*
X163942613Y-103029819D02*
X163656899Y-103029819D01*
X163656899Y-103029819D02*
X163656899Y-102029819D01*
X163656899Y-102029819D02*
X163942613Y-102029819D01*
X164199756Y-103029819D02*
X164199756Y-102029819D01*
X164199756Y-102029819D02*
X164542613Y-103029819D01*
X164542613Y-103029819D02*
X164542613Y-102029819D01*
X165142612Y-103029819D02*
X164799755Y-103029819D01*
X164971184Y-103029819D02*
X164971184Y-102029819D01*
X164971184Y-102029819D02*
X164914041Y-102172676D01*
X164914041Y-102172676D02*
X164856898Y-102267914D01*
X164856898Y-102267914D02*
X164799755Y-102315533D01*
X165371184Y-102744104D02*
X165656899Y-102744104D01*
X165314041Y-103029819D02*
X165514041Y-102029819D01*
X165514041Y-102029819D02*
X165714041Y-103029819D01*
X166371185Y-102506009D02*
X166571185Y-102506009D01*
X166656899Y-103029819D02*
X166371185Y-103029819D01*
X166371185Y-103029819D02*
X166371185Y-102029819D01*
X166371185Y-102029819D02*
X166656899Y-102029819D01*
X166914042Y-103029819D02*
X166914042Y-102029819D01*
X166914042Y-102029819D02*
X167256899Y-103029819D01*
X167256899Y-103029819D02*
X167256899Y-102029819D01*
X167856898Y-103029819D02*
X167514041Y-103029819D01*
X167685470Y-103029819D02*
X167685470Y-102029819D01*
X167685470Y-102029819D02*
X167628327Y-102172676D01*
X167628327Y-102172676D02*
X167571184Y-102267914D01*
X167571184Y-102267914D02*
X167514041Y-102315533D01*
X168314042Y-102506009D02*
X168399756Y-102553628D01*
X168399756Y-102553628D02*
X168428327Y-102601247D01*
X168428327Y-102601247D02*
X168456899Y-102696485D01*
X168456899Y-102696485D02*
X168456899Y-102839342D01*
X168456899Y-102839342D02*
X168428327Y-102934580D01*
X168428327Y-102934580D02*
X168399756Y-102982200D01*
X168399756Y-102982200D02*
X168342613Y-103029819D01*
X168342613Y-103029819D02*
X168114042Y-103029819D01*
X168114042Y-103029819D02*
X168114042Y-102029819D01*
X168114042Y-102029819D02*
X168314042Y-102029819D01*
X168314042Y-102029819D02*
X168371185Y-102077438D01*
X168371185Y-102077438D02*
X168399756Y-102125057D01*
X168399756Y-102125057D02*
X168428327Y-102220295D01*
X168428327Y-102220295D02*
X168428327Y-102315533D01*
X168428327Y-102315533D02*
X168399756Y-102410771D01*
X168399756Y-102410771D02*
X168371185Y-102458390D01*
X168371185Y-102458390D02*
X168314042Y-102506009D01*
X168314042Y-102506009D02*
X168114042Y-102506009D01*
X169485470Y-102077438D02*
X169428328Y-102029819D01*
X169428328Y-102029819D02*
X169342613Y-102029819D01*
X169342613Y-102029819D02*
X169256899Y-102077438D01*
X169256899Y-102077438D02*
X169199756Y-102172676D01*
X169199756Y-102172676D02*
X169171185Y-102267914D01*
X169171185Y-102267914D02*
X169142613Y-102458390D01*
X169142613Y-102458390D02*
X169142613Y-102601247D01*
X169142613Y-102601247D02*
X169171185Y-102791723D01*
X169171185Y-102791723D02*
X169199756Y-102886961D01*
X169199756Y-102886961D02*
X169256899Y-102982200D01*
X169256899Y-102982200D02*
X169342613Y-103029819D01*
X169342613Y-103029819D02*
X169399756Y-103029819D01*
X169399756Y-103029819D02*
X169485470Y-102982200D01*
X169485470Y-102982200D02*
X169514042Y-102934580D01*
X169514042Y-102934580D02*
X169514042Y-102601247D01*
X169514042Y-102601247D02*
X169399756Y-102601247D01*
X169771185Y-103029819D02*
X169771185Y-102029819D01*
X169771185Y-102029819D02*
X170114042Y-103029819D01*
X170114042Y-103029819D02*
X170114042Y-102029819D01*
X170399756Y-103029819D02*
X170399756Y-102029819D01*
X170399756Y-102029819D02*
X170542613Y-102029819D01*
X170542613Y-102029819D02*
X170628327Y-102077438D01*
X170628327Y-102077438D02*
X170685470Y-102172676D01*
X170685470Y-102172676D02*
X170714041Y-102267914D01*
X170714041Y-102267914D02*
X170742613Y-102458390D01*
X170742613Y-102458390D02*
X170742613Y-102601247D01*
X170742613Y-102601247D02*
X170714041Y-102791723D01*
X170714041Y-102791723D02*
X170685470Y-102886961D01*
X170685470Y-102886961D02*
X170628327Y-102982200D01*
X170628327Y-102982200D02*
X170542613Y-103029819D01*
X170542613Y-103029819D02*
X170399756Y-103029819D01*
X176295255Y-102755819D02*
X176009541Y-102755819D01*
X176009541Y-102755819D02*
X175980969Y-103232009D01*
X175980969Y-103232009D02*
X176009541Y-103184390D01*
X176009541Y-103184390D02*
X176066684Y-103136771D01*
X176066684Y-103136771D02*
X176209541Y-103136771D01*
X176209541Y-103136771D02*
X176266684Y-103184390D01*
X176266684Y-103184390D02*
X176295255Y-103232009D01*
X176295255Y-103232009D02*
X176323826Y-103327247D01*
X176323826Y-103327247D02*
X176323826Y-103565342D01*
X176323826Y-103565342D02*
X176295255Y-103660580D01*
X176295255Y-103660580D02*
X176266684Y-103708200D01*
X176266684Y-103708200D02*
X176209541Y-103755819D01*
X176209541Y-103755819D02*
X176066684Y-103755819D01*
X176066684Y-103755819D02*
X176009541Y-103708200D01*
X176009541Y-103708200D02*
X175980969Y-103660580D01*
X176495255Y-102755819D02*
X176695255Y-103755819D01*
X176695255Y-103755819D02*
X176895255Y-102755819D01*
X177752399Y-103232009D02*
X177838113Y-103279628D01*
X177838113Y-103279628D02*
X177866684Y-103327247D01*
X177866684Y-103327247D02*
X177895256Y-103422485D01*
X177895256Y-103422485D02*
X177895256Y-103565342D01*
X177895256Y-103565342D02*
X177866684Y-103660580D01*
X177866684Y-103660580D02*
X177838113Y-103708200D01*
X177838113Y-103708200D02*
X177780970Y-103755819D01*
X177780970Y-103755819D02*
X177552399Y-103755819D01*
X177552399Y-103755819D02*
X177552399Y-102755819D01*
X177552399Y-102755819D02*
X177752399Y-102755819D01*
X177752399Y-102755819D02*
X177809542Y-102803438D01*
X177809542Y-102803438D02*
X177838113Y-102851057D01*
X177838113Y-102851057D02*
X177866684Y-102946295D01*
X177866684Y-102946295D02*
X177866684Y-103041533D01*
X177866684Y-103041533D02*
X177838113Y-103136771D01*
X177838113Y-103136771D02*
X177809542Y-103184390D01*
X177809542Y-103184390D02*
X177752399Y-103232009D01*
X177752399Y-103232009D02*
X177552399Y-103232009D01*
X178123827Y-103470104D02*
X178409542Y-103470104D01*
X178066684Y-103755819D02*
X178266684Y-102755819D01*
X178266684Y-102755819D02*
X178466684Y-103755819D01*
X178580970Y-102755819D02*
X178923828Y-102755819D01*
X178752399Y-103755819D02*
X178752399Y-102755819D01*
X178980971Y-103851057D02*
X179438113Y-103851057D01*
X179866685Y-103755819D02*
X179580971Y-103755819D01*
X179580971Y-103755819D02*
X179580971Y-102755819D01*
X180723828Y-103232009D02*
X180809542Y-103279628D01*
X180809542Y-103279628D02*
X180838113Y-103327247D01*
X180838113Y-103327247D02*
X180866685Y-103422485D01*
X180866685Y-103422485D02*
X180866685Y-103565342D01*
X180866685Y-103565342D02*
X180838113Y-103660580D01*
X180838113Y-103660580D02*
X180809542Y-103708200D01*
X180809542Y-103708200D02*
X180752399Y-103755819D01*
X180752399Y-103755819D02*
X180523828Y-103755819D01*
X180523828Y-103755819D02*
X180523828Y-102755819D01*
X180523828Y-102755819D02*
X180723828Y-102755819D01*
X180723828Y-102755819D02*
X180780971Y-102803438D01*
X180780971Y-102803438D02*
X180809542Y-102851057D01*
X180809542Y-102851057D02*
X180838113Y-102946295D01*
X180838113Y-102946295D02*
X180838113Y-103041533D01*
X180838113Y-103041533D02*
X180809542Y-103136771D01*
X180809542Y-103136771D02*
X180780971Y-103184390D01*
X180780971Y-103184390D02*
X180723828Y-103232009D01*
X180723828Y-103232009D02*
X180523828Y-103232009D01*
X181095256Y-103470104D02*
X181380971Y-103470104D01*
X181038113Y-103755819D02*
X181238113Y-102755819D01*
X181238113Y-102755819D02*
X181438113Y-103755819D01*
X181552399Y-102755819D02*
X181895257Y-102755819D01*
X181723828Y-103755819D02*
X181723828Y-102755819D01*
X181952400Y-103851057D02*
X182409542Y-103851057D01*
X182552400Y-103755819D02*
X182552400Y-102755819D01*
X182552400Y-103232009D02*
X182895257Y-103232009D01*
X182895257Y-103755819D02*
X182895257Y-102755819D01*
X183580971Y-102755819D02*
X183952399Y-102755819D01*
X183952399Y-102755819D02*
X183752399Y-103136771D01*
X183752399Y-103136771D02*
X183838114Y-103136771D01*
X183838114Y-103136771D02*
X183895257Y-103184390D01*
X183895257Y-103184390D02*
X183923828Y-103232009D01*
X183923828Y-103232009D02*
X183952399Y-103327247D01*
X183952399Y-103327247D02*
X183952399Y-103565342D01*
X183952399Y-103565342D02*
X183923828Y-103660580D01*
X183923828Y-103660580D02*
X183895257Y-103708200D01*
X183895257Y-103708200D02*
X183838114Y-103755819D01*
X183838114Y-103755819D02*
X183666685Y-103755819D01*
X183666685Y-103755819D02*
X183609542Y-103708200D01*
X183609542Y-103708200D02*
X183580971Y-103660580D01*
X184123828Y-102755819D02*
X184323828Y-103755819D01*
X184323828Y-103755819D02*
X184523828Y-102755819D01*
X184666686Y-102755819D02*
X185038114Y-102755819D01*
X185038114Y-102755819D02*
X184838114Y-103136771D01*
X184838114Y-103136771D02*
X184923829Y-103136771D01*
X184923829Y-103136771D02*
X184980972Y-103184390D01*
X184980972Y-103184390D02*
X185009543Y-103232009D01*
X185009543Y-103232009D02*
X185038114Y-103327247D01*
X185038114Y-103327247D02*
X185038114Y-103565342D01*
X185038114Y-103565342D02*
X185009543Y-103660580D01*
X185009543Y-103660580D02*
X184980972Y-103708200D01*
X184980972Y-103708200D02*
X184923829Y-103755819D01*
X184923829Y-103755819D02*
X184752400Y-103755819D01*
X184752400Y-103755819D02*
X184695257Y-103708200D01*
X184695257Y-103708200D02*
X184666686Y-103660580D01*
X186038115Y-102755819D02*
X185752401Y-102755819D01*
X185752401Y-102755819D02*
X185723829Y-103232009D01*
X185723829Y-103232009D02*
X185752401Y-103184390D01*
X185752401Y-103184390D02*
X185809544Y-103136771D01*
X185809544Y-103136771D02*
X185952401Y-103136771D01*
X185952401Y-103136771D02*
X186009544Y-103184390D01*
X186009544Y-103184390D02*
X186038115Y-103232009D01*
X186038115Y-103232009D02*
X186066686Y-103327247D01*
X186066686Y-103327247D02*
X186066686Y-103565342D01*
X186066686Y-103565342D02*
X186038115Y-103660580D01*
X186038115Y-103660580D02*
X186009544Y-103708200D01*
X186009544Y-103708200D02*
X185952401Y-103755819D01*
X185952401Y-103755819D02*
X185809544Y-103755819D01*
X185809544Y-103755819D02*
X185752401Y-103708200D01*
X185752401Y-103708200D02*
X185723829Y-103660580D01*
X186238115Y-102755819D02*
X186438115Y-103755819D01*
X186438115Y-103755819D02*
X186638115Y-102755819D01*
X186695259Y-103851057D02*
X187152401Y-103851057D01*
X187295259Y-103232009D02*
X187495259Y-103232009D01*
X187580973Y-103755819D02*
X187295259Y-103755819D01*
X187295259Y-103755819D02*
X187295259Y-102755819D01*
X187295259Y-102755819D02*
X187580973Y-102755819D01*
X187838116Y-103755819D02*
X187838116Y-102755819D01*
X187838116Y-102755819D02*
X188180973Y-103755819D01*
X188180973Y-103755819D02*
X188180973Y-102755819D01*
X189238115Y-102803438D02*
X189180973Y-102755819D01*
X189180973Y-102755819D02*
X189095258Y-102755819D01*
X189095258Y-102755819D02*
X189009544Y-102803438D01*
X189009544Y-102803438D02*
X188952401Y-102898676D01*
X188952401Y-102898676D02*
X188923830Y-102993914D01*
X188923830Y-102993914D02*
X188895258Y-103184390D01*
X188895258Y-103184390D02*
X188895258Y-103327247D01*
X188895258Y-103327247D02*
X188923830Y-103517723D01*
X188923830Y-103517723D02*
X188952401Y-103612961D01*
X188952401Y-103612961D02*
X189009544Y-103708200D01*
X189009544Y-103708200D02*
X189095258Y-103755819D01*
X189095258Y-103755819D02*
X189152401Y-103755819D01*
X189152401Y-103755819D02*
X189238115Y-103708200D01*
X189238115Y-103708200D02*
X189266687Y-103660580D01*
X189266687Y-103660580D02*
X189266687Y-103327247D01*
X189266687Y-103327247D02*
X189152401Y-103327247D01*
X189523830Y-103755819D02*
X189523830Y-102755819D01*
X189523830Y-102755819D02*
X189866687Y-103755819D01*
X189866687Y-103755819D02*
X189866687Y-102755819D01*
X190152401Y-103755819D02*
X190152401Y-102755819D01*
X190152401Y-102755819D02*
X190295258Y-102755819D01*
X190295258Y-102755819D02*
X190380972Y-102803438D01*
X190380972Y-102803438D02*
X190438115Y-102898676D01*
X190438115Y-102898676D02*
X190466686Y-102993914D01*
X190466686Y-102993914D02*
X190495258Y-103184390D01*
X190495258Y-103184390D02*
X190495258Y-103327247D01*
X190495258Y-103327247D02*
X190466686Y-103517723D01*
X190466686Y-103517723D02*
X190438115Y-103612961D01*
X190438115Y-103612961D02*
X190380972Y-103708200D01*
X190380972Y-103708200D02*
X190295258Y-103755819D01*
X190295258Y-103755819D02*
X190152401Y-103755819D01*
X179717819Y-98367601D02*
X179717819Y-97996173D01*
X179717819Y-97996173D02*
X180098771Y-98196173D01*
X180098771Y-98196173D02*
X180098771Y-98110458D01*
X180098771Y-98110458D02*
X180146390Y-98053316D01*
X180146390Y-98053316D02*
X180194009Y-98024744D01*
X180194009Y-98024744D02*
X180289247Y-97996173D01*
X180289247Y-97996173D02*
X180527342Y-97996173D01*
X180527342Y-97996173D02*
X180622580Y-98024744D01*
X180622580Y-98024744D02*
X180670200Y-98053316D01*
X180670200Y-98053316D02*
X180717819Y-98110458D01*
X180717819Y-98110458D02*
X180717819Y-98281887D01*
X180717819Y-98281887D02*
X180670200Y-98339030D01*
X180670200Y-98339030D02*
X180622580Y-98367601D01*
X179717819Y-97824744D02*
X180717819Y-97624744D01*
X180717819Y-97624744D02*
X179717819Y-97424744D01*
X179717819Y-97281886D02*
X179717819Y-96910458D01*
X179717819Y-96910458D02*
X180098771Y-97110458D01*
X180098771Y-97110458D02*
X180098771Y-97024743D01*
X180098771Y-97024743D02*
X180146390Y-96967601D01*
X180146390Y-96967601D02*
X180194009Y-96939029D01*
X180194009Y-96939029D02*
X180289247Y-96910458D01*
X180289247Y-96910458D02*
X180527342Y-96910458D01*
X180527342Y-96910458D02*
X180622580Y-96939029D01*
X180622580Y-96939029D02*
X180670200Y-96967601D01*
X180670200Y-96967601D02*
X180717819Y-97024743D01*
X180717819Y-97024743D02*
X180717819Y-97196172D01*
X180717819Y-97196172D02*
X180670200Y-97253315D01*
X180670200Y-97253315D02*
X180622580Y-97281886D01*
X179717819Y-96281886D02*
X179717819Y-95939029D01*
X180717819Y-96110457D02*
X179717819Y-96110457D01*
X179717819Y-95796171D02*
X180717819Y-95396171D01*
X179717819Y-95396171D02*
X180717819Y-95796171D01*
X180717819Y-94367599D02*
X180241628Y-94567599D01*
X180717819Y-94710456D02*
X179717819Y-94710456D01*
X179717819Y-94710456D02*
X179717819Y-94481885D01*
X179717819Y-94481885D02*
X179765438Y-94424742D01*
X179765438Y-94424742D02*
X179813057Y-94396171D01*
X179813057Y-94396171D02*
X179908295Y-94367599D01*
X179908295Y-94367599D02*
X180051152Y-94367599D01*
X180051152Y-94367599D02*
X180146390Y-94396171D01*
X180146390Y-94396171D02*
X180194009Y-94424742D01*
X180194009Y-94424742D02*
X180241628Y-94481885D01*
X180241628Y-94481885D02*
X180241628Y-94710456D01*
X179717819Y-94167599D02*
X180717819Y-93767599D01*
X179717819Y-93767599D02*
X180717819Y-94167599D01*
X179765438Y-92767599D02*
X179717819Y-92824742D01*
X179717819Y-92824742D02*
X179717819Y-92910456D01*
X179717819Y-92910456D02*
X179765438Y-92996170D01*
X179765438Y-92996170D02*
X179860676Y-93053313D01*
X179860676Y-93053313D02*
X179955914Y-93081884D01*
X179955914Y-93081884D02*
X180146390Y-93110456D01*
X180146390Y-93110456D02*
X180289247Y-93110456D01*
X180289247Y-93110456D02*
X180479723Y-93081884D01*
X180479723Y-93081884D02*
X180574961Y-93053313D01*
X180574961Y-93053313D02*
X180670200Y-92996170D01*
X180670200Y-92996170D02*
X180717819Y-92910456D01*
X180717819Y-92910456D02*
X180717819Y-92853313D01*
X180717819Y-92853313D02*
X180670200Y-92767599D01*
X180670200Y-92767599D02*
X180622580Y-92739027D01*
X180622580Y-92739027D02*
X180289247Y-92739027D01*
X180289247Y-92739027D02*
X180289247Y-92853313D01*
X180717819Y-92481884D02*
X179717819Y-92481884D01*
X179717819Y-92481884D02*
X180717819Y-92139027D01*
X180717819Y-92139027D02*
X179717819Y-92139027D01*
X180717819Y-91853313D02*
X179717819Y-91853313D01*
X179717819Y-91853313D02*
X179717819Y-91710456D01*
X179717819Y-91710456D02*
X179765438Y-91624742D01*
X179765438Y-91624742D02*
X179860676Y-91567599D01*
X179860676Y-91567599D02*
X179955914Y-91539028D01*
X179955914Y-91539028D02*
X180146390Y-91510456D01*
X180146390Y-91510456D02*
X180289247Y-91510456D01*
X180289247Y-91510456D02*
X180479723Y-91539028D01*
X180479723Y-91539028D02*
X180574961Y-91567599D01*
X180574961Y-91567599D02*
X180670200Y-91624742D01*
X180670200Y-91624742D02*
X180717819Y-91710456D01*
X180717819Y-91710456D02*
X180717819Y-91853313D01*
X148379398Y-102200295D02*
X148750826Y-102200295D01*
X148750826Y-102200295D02*
X148550826Y-102505057D01*
X148550826Y-102505057D02*
X148636541Y-102505057D01*
X148636541Y-102505057D02*
X148693684Y-102543152D01*
X148693684Y-102543152D02*
X148722255Y-102581247D01*
X148722255Y-102581247D02*
X148750826Y-102657438D01*
X148750826Y-102657438D02*
X148750826Y-102847914D01*
X148750826Y-102847914D02*
X148722255Y-102924104D01*
X148722255Y-102924104D02*
X148693684Y-102962200D01*
X148693684Y-102962200D02*
X148636541Y-103000295D01*
X148636541Y-103000295D02*
X148465112Y-103000295D01*
X148465112Y-103000295D02*
X148407969Y-102962200D01*
X148407969Y-102962200D02*
X148379398Y-102924104D01*
X148922255Y-102200295D02*
X149122255Y-103000295D01*
X149122255Y-103000295D02*
X149322255Y-102200295D01*
X149465113Y-102200295D02*
X149836541Y-102200295D01*
X149836541Y-102200295D02*
X149636541Y-102505057D01*
X149636541Y-102505057D02*
X149722256Y-102505057D01*
X149722256Y-102505057D02*
X149779399Y-102543152D01*
X149779399Y-102543152D02*
X149807970Y-102581247D01*
X149807970Y-102581247D02*
X149836541Y-102657438D01*
X149836541Y-102657438D02*
X149836541Y-102847914D01*
X149836541Y-102847914D02*
X149807970Y-102924104D01*
X149807970Y-102924104D02*
X149779399Y-102962200D01*
X149779399Y-102962200D02*
X149722256Y-103000295D01*
X149722256Y-103000295D02*
X149550827Y-103000295D01*
X149550827Y-103000295D02*
X149493684Y-102962200D01*
X149493684Y-102962200D02*
X149465113Y-102924104D01*
X150550828Y-102581247D02*
X150750828Y-102581247D01*
X150836542Y-103000295D02*
X150550828Y-103000295D01*
X150550828Y-103000295D02*
X150550828Y-102200295D01*
X150550828Y-102200295D02*
X150836542Y-102200295D01*
X151093685Y-103000295D02*
X151093685Y-102200295D01*
X151093685Y-102200295D02*
X151436542Y-103000295D01*
X151436542Y-103000295D02*
X151436542Y-102200295D01*
X151693684Y-102276485D02*
X151722256Y-102238390D01*
X151722256Y-102238390D02*
X151779399Y-102200295D01*
X151779399Y-102200295D02*
X151922256Y-102200295D01*
X151922256Y-102200295D02*
X151979399Y-102238390D01*
X151979399Y-102238390D02*
X152007970Y-102276485D01*
X152007970Y-102276485D02*
X152036541Y-102352676D01*
X152036541Y-102352676D02*
X152036541Y-102428866D01*
X152036541Y-102428866D02*
X152007970Y-102543152D01*
X152007970Y-102543152D02*
X151665113Y-103000295D01*
X151665113Y-103000295D02*
X152036541Y-103000295D01*
X152265113Y-102771723D02*
X152550828Y-102771723D01*
X152207970Y-103000295D02*
X152407970Y-102200295D01*
X152407970Y-102200295D02*
X152607970Y-103000295D01*
X153265114Y-102581247D02*
X153465114Y-102581247D01*
X153550828Y-103000295D02*
X153265114Y-103000295D01*
X153265114Y-103000295D02*
X153265114Y-102200295D01*
X153265114Y-102200295D02*
X153550828Y-102200295D01*
X153807971Y-103000295D02*
X153807971Y-102200295D01*
X153807971Y-102200295D02*
X154150828Y-103000295D01*
X154150828Y-103000295D02*
X154150828Y-102200295D01*
X154407970Y-102276485D02*
X154436542Y-102238390D01*
X154436542Y-102238390D02*
X154493685Y-102200295D01*
X154493685Y-102200295D02*
X154636542Y-102200295D01*
X154636542Y-102200295D02*
X154693685Y-102238390D01*
X154693685Y-102238390D02*
X154722256Y-102276485D01*
X154722256Y-102276485D02*
X154750827Y-102352676D01*
X154750827Y-102352676D02*
X154750827Y-102428866D01*
X154750827Y-102428866D02*
X154722256Y-102543152D01*
X154722256Y-102543152D02*
X154379399Y-103000295D01*
X154379399Y-103000295D02*
X154750827Y-103000295D01*
X155207971Y-102581247D02*
X155293685Y-102619342D01*
X155293685Y-102619342D02*
X155322256Y-102657438D01*
X155322256Y-102657438D02*
X155350828Y-102733628D01*
X155350828Y-102733628D02*
X155350828Y-102847914D01*
X155350828Y-102847914D02*
X155322256Y-102924104D01*
X155322256Y-102924104D02*
X155293685Y-102962200D01*
X155293685Y-102962200D02*
X155236542Y-103000295D01*
X155236542Y-103000295D02*
X155007971Y-103000295D01*
X155007971Y-103000295D02*
X155007971Y-102200295D01*
X155007971Y-102200295D02*
X155207971Y-102200295D01*
X155207971Y-102200295D02*
X155265114Y-102238390D01*
X155265114Y-102238390D02*
X155293685Y-102276485D01*
X155293685Y-102276485D02*
X155322256Y-102352676D01*
X155322256Y-102352676D02*
X155322256Y-102428866D01*
X155322256Y-102428866D02*
X155293685Y-102505057D01*
X155293685Y-102505057D02*
X155265114Y-102543152D01*
X155265114Y-102543152D02*
X155207971Y-102581247D01*
X155207971Y-102581247D02*
X155007971Y-102581247D01*
X156379399Y-102238390D02*
X156322257Y-102200295D01*
X156322257Y-102200295D02*
X156236542Y-102200295D01*
X156236542Y-102200295D02*
X156150828Y-102238390D01*
X156150828Y-102238390D02*
X156093685Y-102314580D01*
X156093685Y-102314580D02*
X156065114Y-102390771D01*
X156065114Y-102390771D02*
X156036542Y-102543152D01*
X156036542Y-102543152D02*
X156036542Y-102657438D01*
X156036542Y-102657438D02*
X156065114Y-102809819D01*
X156065114Y-102809819D02*
X156093685Y-102886009D01*
X156093685Y-102886009D02*
X156150828Y-102962200D01*
X156150828Y-102962200D02*
X156236542Y-103000295D01*
X156236542Y-103000295D02*
X156293685Y-103000295D01*
X156293685Y-103000295D02*
X156379399Y-102962200D01*
X156379399Y-102962200D02*
X156407971Y-102924104D01*
X156407971Y-102924104D02*
X156407971Y-102657438D01*
X156407971Y-102657438D02*
X156293685Y-102657438D01*
X156665114Y-103000295D02*
X156665114Y-102200295D01*
X156665114Y-102200295D02*
X157007971Y-103000295D01*
X157007971Y-103000295D02*
X157007971Y-102200295D01*
X157293685Y-103000295D02*
X157293685Y-102200295D01*
X157293685Y-102200295D02*
X157436542Y-102200295D01*
X157436542Y-102200295D02*
X157522256Y-102238390D01*
X157522256Y-102238390D02*
X157579399Y-102314580D01*
X157579399Y-102314580D02*
X157607970Y-102390771D01*
X157607970Y-102390771D02*
X157636542Y-102543152D01*
X157636542Y-102543152D02*
X157636542Y-102657438D01*
X157636542Y-102657438D02*
X157607970Y-102809819D01*
X157607970Y-102809819D02*
X157579399Y-102886009D01*
X157579399Y-102886009D02*
X157522256Y-102962200D01*
X157522256Y-102962200D02*
X157436542Y-103000295D01*
X157436542Y-103000295D02*
X157293685Y-103000295D01*
X117396666Y-102706819D02*
X117396666Y-103421104D01*
X117396666Y-103421104D02*
X117349047Y-103563961D01*
X117349047Y-103563961D02*
X117253809Y-103659200D01*
X117253809Y-103659200D02*
X117110952Y-103706819D01*
X117110952Y-103706819D02*
X117015714Y-103706819D01*
X118301428Y-102706819D02*
X118110952Y-102706819D01*
X118110952Y-102706819D02*
X118015714Y-102754438D01*
X118015714Y-102754438D02*
X117968095Y-102802057D01*
X117968095Y-102802057D02*
X117872857Y-102944914D01*
X117872857Y-102944914D02*
X117825238Y-103135390D01*
X117825238Y-103135390D02*
X117825238Y-103516342D01*
X117825238Y-103516342D02*
X117872857Y-103611580D01*
X117872857Y-103611580D02*
X117920476Y-103659200D01*
X117920476Y-103659200D02*
X118015714Y-103706819D01*
X118015714Y-103706819D02*
X118206190Y-103706819D01*
X118206190Y-103706819D02*
X118301428Y-103659200D01*
X118301428Y-103659200D02*
X118349047Y-103611580D01*
X118349047Y-103611580D02*
X118396666Y-103516342D01*
X118396666Y-103516342D02*
X118396666Y-103278247D01*
X118396666Y-103278247D02*
X118349047Y-103183009D01*
X118349047Y-103183009D02*
X118301428Y-103135390D01*
X118301428Y-103135390D02*
X118206190Y-103087771D01*
X118206190Y-103087771D02*
X118015714Y-103087771D01*
X118015714Y-103087771D02*
X117920476Y-103135390D01*
X117920476Y-103135390D02*
X117872857Y-103183009D01*
X117872857Y-103183009D02*
X117825238Y-103278247D01*
X133945333Y-96212819D02*
X133612000Y-95736628D01*
X133373905Y-96212819D02*
X133373905Y-95212819D01*
X133373905Y-95212819D02*
X133754857Y-95212819D01*
X133754857Y-95212819D02*
X133850095Y-95260438D01*
X133850095Y-95260438D02*
X133897714Y-95308057D01*
X133897714Y-95308057D02*
X133945333Y-95403295D01*
X133945333Y-95403295D02*
X133945333Y-95546152D01*
X133945333Y-95546152D02*
X133897714Y-95641390D01*
X133897714Y-95641390D02*
X133850095Y-95689009D01*
X133850095Y-95689009D02*
X133754857Y-95736628D01*
X133754857Y-95736628D02*
X133373905Y-95736628D01*
X134278667Y-95212819D02*
X134897714Y-95212819D01*
X134897714Y-95212819D02*
X134564381Y-95593771D01*
X134564381Y-95593771D02*
X134707238Y-95593771D01*
X134707238Y-95593771D02*
X134802476Y-95641390D01*
X134802476Y-95641390D02*
X134850095Y-95689009D01*
X134850095Y-95689009D02*
X134897714Y-95784247D01*
X134897714Y-95784247D02*
X134897714Y-96022342D01*
X134897714Y-96022342D02*
X134850095Y-96117580D01*
X134850095Y-96117580D02*
X134802476Y-96165200D01*
X134802476Y-96165200D02*
X134707238Y-96212819D01*
X134707238Y-96212819D02*
X134421524Y-96212819D01*
X134421524Y-96212819D02*
X134326286Y-96165200D01*
X134326286Y-96165200D02*
X134278667Y-96117580D01*
X170179166Y-103224819D02*
X170179166Y-103939104D01*
X170179166Y-103939104D02*
X170131547Y-104081961D01*
X170131547Y-104081961D02*
X170036309Y-104177200D01*
X170036309Y-104177200D02*
X169893452Y-104224819D01*
X169893452Y-104224819D02*
X169798214Y-104224819D01*
X170607738Y-103320057D02*
X170655357Y-103272438D01*
X170655357Y-103272438D02*
X170750595Y-103224819D01*
X170750595Y-103224819D02*
X170988690Y-103224819D01*
X170988690Y-103224819D02*
X171083928Y-103272438D01*
X171083928Y-103272438D02*
X171131547Y-103320057D01*
X171131547Y-103320057D02*
X171179166Y-103415295D01*
X171179166Y-103415295D02*
X171179166Y-103510533D01*
X171179166Y-103510533D02*
X171131547Y-103653390D01*
X171131547Y-103653390D02*
X170560119Y-104224819D01*
X170560119Y-104224819D02*
X171179166Y-104224819D01*
X158416666Y-101308819D02*
X158416666Y-102023104D01*
X158416666Y-102023104D02*
X158369047Y-102165961D01*
X158369047Y-102165961D02*
X158273809Y-102261200D01*
X158273809Y-102261200D02*
X158130952Y-102308819D01*
X158130952Y-102308819D02*
X158035714Y-102308819D01*
X159416666Y-102308819D02*
X158845238Y-102308819D01*
X159130952Y-102308819D02*
X159130952Y-101308819D01*
X159130952Y-101308819D02*
X159035714Y-101451676D01*
X159035714Y-101451676D02*
X158940476Y-101546914D01*
X158940476Y-101546914D02*
X158845238Y-101594533D01*
X152408095Y-98260819D02*
X152979523Y-98260819D01*
X152693809Y-99260819D02*
X152693809Y-98260819D01*
X153312857Y-99260819D02*
X153312857Y-98260819D01*
X153312857Y-98260819D02*
X153693809Y-98260819D01*
X153693809Y-98260819D02*
X153789047Y-98308438D01*
X153789047Y-98308438D02*
X153836666Y-98356057D01*
X153836666Y-98356057D02*
X153884285Y-98451295D01*
X153884285Y-98451295D02*
X153884285Y-98594152D01*
X153884285Y-98594152D02*
X153836666Y-98689390D01*
X153836666Y-98689390D02*
X153789047Y-98737009D01*
X153789047Y-98737009D02*
X153693809Y-98784628D01*
X153693809Y-98784628D02*
X153312857Y-98784628D01*
X154217619Y-98260819D02*
X154884285Y-98260819D01*
X154884285Y-98260819D02*
X154455714Y-99260819D01*
D11*
X150804318Y-82755619D02*
X151832413Y-82755619D01*
X151832413Y-82755619D02*
X151953365Y-82695142D01*
X151953365Y-82695142D02*
X152013842Y-82634666D01*
X152013842Y-82634666D02*
X152074318Y-82513714D01*
X152074318Y-82513714D02*
X152074318Y-82271809D01*
X152074318Y-82271809D02*
X152013842Y-82150857D01*
X152013842Y-82150857D02*
X151953365Y-82090380D01*
X151953365Y-82090380D02*
X151832413Y-82029904D01*
X151832413Y-82029904D02*
X150804318Y-82029904D01*
X152074318Y-80759904D02*
X152074318Y-81485619D01*
X152074318Y-81122762D02*
X150804318Y-81122762D01*
X150804318Y-81122762D02*
X150985746Y-81243714D01*
X150985746Y-81243714D02*
X151106699Y-81364666D01*
X151106699Y-81364666D02*
X151167175Y-81485619D01*
D10*
X163364903Y-98182819D02*
X163936331Y-98182819D01*
X163650617Y-99182819D02*
X163650617Y-98182819D01*
X164269665Y-99182819D02*
X164269665Y-98182819D01*
X164269665Y-98182819D02*
X164650617Y-98182819D01*
X164650617Y-98182819D02*
X164745855Y-98230438D01*
X164745855Y-98230438D02*
X164793474Y-98278057D01*
X164793474Y-98278057D02*
X164841093Y-98373295D01*
X164841093Y-98373295D02*
X164841093Y-98516152D01*
X164841093Y-98516152D02*
X164793474Y-98611390D01*
X164793474Y-98611390D02*
X164745855Y-98659009D01*
X164745855Y-98659009D02*
X164650617Y-98706628D01*
X164650617Y-98706628D02*
X164269665Y-98706628D01*
X165745855Y-98182819D02*
X165269665Y-98182819D01*
X165269665Y-98182819D02*
X165222046Y-98659009D01*
X165222046Y-98659009D02*
X165269665Y-98611390D01*
X165269665Y-98611390D02*
X165364903Y-98563771D01*
X165364903Y-98563771D02*
X165602998Y-98563771D01*
X165602998Y-98563771D02*
X165698236Y-98611390D01*
X165698236Y-98611390D02*
X165745855Y-98659009D01*
X165745855Y-98659009D02*
X165793474Y-98754247D01*
X165793474Y-98754247D02*
X165793474Y-98992342D01*
X165793474Y-98992342D02*
X165745855Y-99087580D01*
X165745855Y-99087580D02*
X165698236Y-99135200D01*
X165698236Y-99135200D02*
X165602998Y-99182819D01*
X165602998Y-99182819D02*
X165364903Y-99182819D01*
X165364903Y-99182819D02*
X165269665Y-99135200D01*
X165269665Y-99135200D02*
X165222046Y-99087580D01*
X190420666Y-75908819D02*
X190420666Y-76623104D01*
X190420666Y-76623104D02*
X190373047Y-76765961D01*
X190373047Y-76765961D02*
X190277809Y-76861200D01*
X190277809Y-76861200D02*
X190134952Y-76908819D01*
X190134952Y-76908819D02*
X190039714Y-76908819D01*
X190801619Y-75908819D02*
X191468285Y-75908819D01*
X191468285Y-75908819D02*
X191039714Y-76908819D01*
X180048819Y-77149333D02*
X180763104Y-77149333D01*
X180763104Y-77149333D02*
X180905961Y-77196952D01*
X180905961Y-77196952D02*
X181001200Y-77292190D01*
X181001200Y-77292190D02*
X181048819Y-77435047D01*
X181048819Y-77435047D02*
X181048819Y-77530285D01*
X181048819Y-76625523D02*
X181048819Y-76435047D01*
X181048819Y-76435047D02*
X181001200Y-76339809D01*
X181001200Y-76339809D02*
X180953580Y-76292190D01*
X180953580Y-76292190D02*
X180810723Y-76196952D01*
X180810723Y-76196952D02*
X180620247Y-76149333D01*
X180620247Y-76149333D02*
X180239295Y-76149333D01*
X180239295Y-76149333D02*
X180144057Y-76196952D01*
X180144057Y-76196952D02*
X180096438Y-76244571D01*
X180096438Y-76244571D02*
X180048819Y-76339809D01*
X180048819Y-76339809D02*
X180048819Y-76530285D01*
X180048819Y-76530285D02*
X180096438Y-76625523D01*
X180096438Y-76625523D02*
X180144057Y-76673142D01*
X180144057Y-76673142D02*
X180239295Y-76720761D01*
X180239295Y-76720761D02*
X180477390Y-76720761D01*
X180477390Y-76720761D02*
X180572628Y-76673142D01*
X180572628Y-76673142D02*
X180620247Y-76625523D01*
X180620247Y-76625523D02*
X180667866Y-76530285D01*
X180667866Y-76530285D02*
X180667866Y-76339809D01*
X180667866Y-76339809D02*
X180620247Y-76244571D01*
X180620247Y-76244571D02*
X180572628Y-76196952D01*
X180572628Y-76196952D02*
X180477390Y-76149333D01*
X168152333Y-95703819D02*
X167819000Y-95227628D01*
X167580905Y-95703819D02*
X167580905Y-94703819D01*
X167580905Y-94703819D02*
X167961857Y-94703819D01*
X167961857Y-94703819D02*
X168057095Y-94751438D01*
X168057095Y-94751438D02*
X168104714Y-94799057D01*
X168104714Y-94799057D02*
X168152333Y-94894295D01*
X168152333Y-94894295D02*
X168152333Y-95037152D01*
X168152333Y-95037152D02*
X168104714Y-95132390D01*
X168104714Y-95132390D02*
X168057095Y-95180009D01*
X168057095Y-95180009D02*
X167961857Y-95227628D01*
X167961857Y-95227628D02*
X167580905Y-95227628D01*
X168533286Y-94799057D02*
X168580905Y-94751438D01*
X168580905Y-94751438D02*
X168676143Y-94703819D01*
X168676143Y-94703819D02*
X168914238Y-94703819D01*
X168914238Y-94703819D02*
X169009476Y-94751438D01*
X169009476Y-94751438D02*
X169057095Y-94799057D01*
X169057095Y-94799057D02*
X169104714Y-94894295D01*
X169104714Y-94894295D02*
X169104714Y-94989533D01*
X169104714Y-94989533D02*
X169057095Y-95132390D01*
X169057095Y-95132390D02*
X168485667Y-95703819D01*
X168485667Y-95703819D02*
X169104714Y-95703819D01*
X129988095Y-100254819D02*
X130559523Y-100254819D01*
X130273809Y-101254819D02*
X130273809Y-100254819D01*
X130892857Y-101254819D02*
X130892857Y-100254819D01*
X130892857Y-100254819D02*
X131273809Y-100254819D01*
X131273809Y-100254819D02*
X131369047Y-100302438D01*
X131369047Y-100302438D02*
X131416666Y-100350057D01*
X131416666Y-100350057D02*
X131464285Y-100445295D01*
X131464285Y-100445295D02*
X131464285Y-100588152D01*
X131464285Y-100588152D02*
X131416666Y-100683390D01*
X131416666Y-100683390D02*
X131369047Y-100731009D01*
X131369047Y-100731009D02*
X131273809Y-100778628D01*
X131273809Y-100778628D02*
X130892857Y-100778628D01*
X132321428Y-100588152D02*
X132321428Y-101254819D01*
X132083333Y-100207200D02*
X131845238Y-100921485D01*
X131845238Y-100921485D02*
X132464285Y-100921485D01*
X131008667Y-67176819D02*
X131580095Y-67176819D01*
X131294381Y-68176819D02*
X131294381Y-67176819D01*
X131913429Y-68176819D02*
X131913429Y-67176819D01*
X131913429Y-67176819D02*
X132246762Y-67891104D01*
X132246762Y-67891104D02*
X132580095Y-67176819D01*
X132580095Y-67176819D02*
X132580095Y-68176819D01*
X133627714Y-68081580D02*
X133580095Y-68129200D01*
X133580095Y-68129200D02*
X133437238Y-68176819D01*
X133437238Y-68176819D02*
X133342000Y-68176819D01*
X133342000Y-68176819D02*
X133199143Y-68129200D01*
X133199143Y-68129200D02*
X133103905Y-68033961D01*
X133103905Y-68033961D02*
X133056286Y-67938723D01*
X133056286Y-67938723D02*
X133008667Y-67748247D01*
X133008667Y-67748247D02*
X133008667Y-67605390D01*
X133008667Y-67605390D02*
X133056286Y-67414914D01*
X133056286Y-67414914D02*
X133103905Y-67319676D01*
X133103905Y-67319676D02*
X133199143Y-67224438D01*
X133199143Y-67224438D02*
X133342000Y-67176819D01*
X133342000Y-67176819D02*
X133437238Y-67176819D01*
X133437238Y-67176819D02*
X133580095Y-67224438D01*
X133580095Y-67224438D02*
X133627714Y-67272057D01*
X134580095Y-68176819D02*
X134008667Y-68176819D01*
X134294381Y-68176819D02*
X134294381Y-67176819D01*
X134294381Y-67176819D02*
X134199143Y-67319676D01*
X134199143Y-67319676D02*
X134103905Y-67414914D01*
X134103905Y-67414914D02*
X134008667Y-67462533D01*
X131151333Y-96953819D02*
X130818000Y-96477628D01*
X130579905Y-96953819D02*
X130579905Y-95953819D01*
X130579905Y-95953819D02*
X130960857Y-95953819D01*
X130960857Y-95953819D02*
X131056095Y-96001438D01*
X131056095Y-96001438D02*
X131103714Y-96049057D01*
X131103714Y-96049057D02*
X131151333Y-96144295D01*
X131151333Y-96144295D02*
X131151333Y-96287152D01*
X131151333Y-96287152D02*
X131103714Y-96382390D01*
X131103714Y-96382390D02*
X131056095Y-96430009D01*
X131056095Y-96430009D02*
X130960857Y-96477628D01*
X130960857Y-96477628D02*
X130579905Y-96477628D01*
X132008476Y-95953819D02*
X131818000Y-95953819D01*
X131818000Y-95953819D02*
X131722762Y-96001438D01*
X131722762Y-96001438D02*
X131675143Y-96049057D01*
X131675143Y-96049057D02*
X131579905Y-96191914D01*
X131579905Y-96191914D02*
X131532286Y-96382390D01*
X131532286Y-96382390D02*
X131532286Y-96763342D01*
X131532286Y-96763342D02*
X131579905Y-96858580D01*
X131579905Y-96858580D02*
X131627524Y-96906200D01*
X131627524Y-96906200D02*
X131722762Y-96953819D01*
X131722762Y-96953819D02*
X131913238Y-96953819D01*
X131913238Y-96953819D02*
X132008476Y-96906200D01*
X132008476Y-96906200D02*
X132056095Y-96858580D01*
X132056095Y-96858580D02*
X132103714Y-96763342D01*
X132103714Y-96763342D02*
X132103714Y-96525247D01*
X132103714Y-96525247D02*
X132056095Y-96430009D01*
X132056095Y-96430009D02*
X132008476Y-96382390D01*
X132008476Y-96382390D02*
X131913238Y-96334771D01*
X131913238Y-96334771D02*
X131722762Y-96334771D01*
X131722762Y-96334771D02*
X131627524Y-96382390D01*
X131627524Y-96382390D02*
X131579905Y-96430009D01*
X131579905Y-96430009D02*
X131532286Y-96525247D01*
X164592333Y-94962819D02*
X164259000Y-94486628D01*
X164020905Y-94962819D02*
X164020905Y-93962819D01*
X164020905Y-93962819D02*
X164401857Y-93962819D01*
X164401857Y-93962819D02*
X164497095Y-94010438D01*
X164497095Y-94010438D02*
X164544714Y-94058057D01*
X164544714Y-94058057D02*
X164592333Y-94153295D01*
X164592333Y-94153295D02*
X164592333Y-94296152D01*
X164592333Y-94296152D02*
X164544714Y-94391390D01*
X164544714Y-94391390D02*
X164497095Y-94439009D01*
X164497095Y-94439009D02*
X164401857Y-94486628D01*
X164401857Y-94486628D02*
X164020905Y-94486628D01*
X165544714Y-94962819D02*
X164973286Y-94962819D01*
X165259000Y-94962819D02*
X165259000Y-93962819D01*
X165259000Y-93962819D02*
X165163762Y-94105676D01*
X165163762Y-94105676D02*
X165068524Y-94200914D01*
X165068524Y-94200914D02*
X164973286Y-94248533D01*
X181816476Y-87846819D02*
X181816476Y-88561104D01*
X181816476Y-88561104D02*
X181768857Y-88703961D01*
X181768857Y-88703961D02*
X181673619Y-88799200D01*
X181673619Y-88799200D02*
X181530762Y-88846819D01*
X181530762Y-88846819D02*
X181435524Y-88846819D01*
X182816476Y-88846819D02*
X182245048Y-88846819D01*
X182530762Y-88846819D02*
X182530762Y-87846819D01*
X182530762Y-87846819D02*
X182435524Y-87989676D01*
X182435524Y-87989676D02*
X182340286Y-88084914D01*
X182340286Y-88084914D02*
X182245048Y-88132533D01*
X183435524Y-87846819D02*
X183530762Y-87846819D01*
X183530762Y-87846819D02*
X183626000Y-87894438D01*
X183626000Y-87894438D02*
X183673619Y-87942057D01*
X183673619Y-87942057D02*
X183721238Y-88037295D01*
X183721238Y-88037295D02*
X183768857Y-88227771D01*
X183768857Y-88227771D02*
X183768857Y-88465866D01*
X183768857Y-88465866D02*
X183721238Y-88656342D01*
X183721238Y-88656342D02*
X183673619Y-88751580D01*
X183673619Y-88751580D02*
X183626000Y-88799200D01*
X183626000Y-88799200D02*
X183530762Y-88846819D01*
X183530762Y-88846819D02*
X183435524Y-88846819D01*
X183435524Y-88846819D02*
X183340286Y-88799200D01*
X183340286Y-88799200D02*
X183292667Y-88751580D01*
X183292667Y-88751580D02*
X183245048Y-88656342D01*
X183245048Y-88656342D02*
X183197429Y-88465866D01*
X183197429Y-88465866D02*
X183197429Y-88227771D01*
X183197429Y-88227771D02*
X183245048Y-88037295D01*
X183245048Y-88037295D02*
X183292667Y-87942057D01*
X183292667Y-87942057D02*
X183340286Y-87894438D01*
X183340286Y-87894438D02*
X183435524Y-87846819D01*
X122769333Y-96212819D02*
X122436000Y-95736628D01*
X122197905Y-96212819D02*
X122197905Y-95212819D01*
X122197905Y-95212819D02*
X122578857Y-95212819D01*
X122578857Y-95212819D02*
X122674095Y-95260438D01*
X122674095Y-95260438D02*
X122721714Y-95308057D01*
X122721714Y-95308057D02*
X122769333Y-95403295D01*
X122769333Y-95403295D02*
X122769333Y-95546152D01*
X122769333Y-95546152D02*
X122721714Y-95641390D01*
X122721714Y-95641390D02*
X122674095Y-95689009D01*
X122674095Y-95689009D02*
X122578857Y-95736628D01*
X122578857Y-95736628D02*
X122197905Y-95736628D01*
X123626476Y-95546152D02*
X123626476Y-96212819D01*
X123388381Y-95165200D02*
X123150286Y-95879485D01*
X123150286Y-95879485D02*
X123769333Y-95879485D01*
X167388095Y-98354819D02*
X167959523Y-98354819D01*
X167673809Y-99354819D02*
X167673809Y-98354819D01*
X168292857Y-99354819D02*
X168292857Y-98354819D01*
X168292857Y-98354819D02*
X168673809Y-98354819D01*
X168673809Y-98354819D02*
X168769047Y-98402438D01*
X168769047Y-98402438D02*
X168816666Y-98450057D01*
X168816666Y-98450057D02*
X168864285Y-98545295D01*
X168864285Y-98545295D02*
X168864285Y-98688152D01*
X168864285Y-98688152D02*
X168816666Y-98783390D01*
X168816666Y-98783390D02*
X168769047Y-98831009D01*
X168769047Y-98831009D02*
X168673809Y-98878628D01*
X168673809Y-98878628D02*
X168292857Y-98878628D01*
X169721428Y-98354819D02*
X169530952Y-98354819D01*
X169530952Y-98354819D02*
X169435714Y-98402438D01*
X169435714Y-98402438D02*
X169388095Y-98450057D01*
X169388095Y-98450057D02*
X169292857Y-98592914D01*
X169292857Y-98592914D02*
X169245238Y-98783390D01*
X169245238Y-98783390D02*
X169245238Y-99164342D01*
X169245238Y-99164342D02*
X169292857Y-99259580D01*
X169292857Y-99259580D02*
X169340476Y-99307200D01*
X169340476Y-99307200D02*
X169435714Y-99354819D01*
X169435714Y-99354819D02*
X169626190Y-99354819D01*
X169626190Y-99354819D02*
X169721428Y-99307200D01*
X169721428Y-99307200D02*
X169769047Y-99259580D01*
X169769047Y-99259580D02*
X169816666Y-99164342D01*
X169816666Y-99164342D02*
X169816666Y-98926247D01*
X169816666Y-98926247D02*
X169769047Y-98831009D01*
X169769047Y-98831009D02*
X169721428Y-98783390D01*
X169721428Y-98783390D02*
X169626190Y-98735771D01*
X169626190Y-98735771D02*
X169435714Y-98735771D01*
X169435714Y-98735771D02*
X169340476Y-98783390D01*
X169340476Y-98783390D02*
X169292857Y-98831009D01*
X169292857Y-98831009D02*
X169245238Y-98926247D01*
X121688095Y-98604819D02*
X122259523Y-98604819D01*
X121973809Y-99604819D02*
X121973809Y-98604819D01*
X122592857Y-99604819D02*
X122592857Y-98604819D01*
X122592857Y-98604819D02*
X122973809Y-98604819D01*
X122973809Y-98604819D02*
X123069047Y-98652438D01*
X123069047Y-98652438D02*
X123116666Y-98700057D01*
X123116666Y-98700057D02*
X123164285Y-98795295D01*
X123164285Y-98795295D02*
X123164285Y-98938152D01*
X123164285Y-98938152D02*
X123116666Y-99033390D01*
X123116666Y-99033390D02*
X123069047Y-99081009D01*
X123069047Y-99081009D02*
X122973809Y-99128628D01*
X122973809Y-99128628D02*
X122592857Y-99128628D01*
X123497619Y-98604819D02*
X124116666Y-98604819D01*
X124116666Y-98604819D02*
X123783333Y-98985771D01*
X123783333Y-98985771D02*
X123926190Y-98985771D01*
X123926190Y-98985771D02*
X124021428Y-99033390D01*
X124021428Y-99033390D02*
X124069047Y-99081009D01*
X124069047Y-99081009D02*
X124116666Y-99176247D01*
X124116666Y-99176247D02*
X124116666Y-99414342D01*
X124116666Y-99414342D02*
X124069047Y-99509580D01*
X124069047Y-99509580D02*
X124021428Y-99557200D01*
X124021428Y-99557200D02*
X123926190Y-99604819D01*
X123926190Y-99604819D02*
X123640476Y-99604819D01*
X123640476Y-99604819D02*
X123545238Y-99557200D01*
X123545238Y-99557200D02*
X123497619Y-99509580D01*
X143288095Y-100254819D02*
X143859523Y-100254819D01*
X143573809Y-101254819D02*
X143573809Y-100254819D01*
X144192857Y-101254819D02*
X144192857Y-100254819D01*
X144192857Y-100254819D02*
X144573809Y-100254819D01*
X144573809Y-100254819D02*
X144669047Y-100302438D01*
X144669047Y-100302438D02*
X144716666Y-100350057D01*
X144716666Y-100350057D02*
X144764285Y-100445295D01*
X144764285Y-100445295D02*
X144764285Y-100588152D01*
X144764285Y-100588152D02*
X144716666Y-100683390D01*
X144716666Y-100683390D02*
X144669047Y-100731009D01*
X144669047Y-100731009D02*
X144573809Y-100778628D01*
X144573809Y-100778628D02*
X144192857Y-100778628D01*
X145145238Y-100350057D02*
X145192857Y-100302438D01*
X145192857Y-100302438D02*
X145288095Y-100254819D01*
X145288095Y-100254819D02*
X145526190Y-100254819D01*
X145526190Y-100254819D02*
X145621428Y-100302438D01*
X145621428Y-100302438D02*
X145669047Y-100350057D01*
X145669047Y-100350057D02*
X145716666Y-100445295D01*
X145716666Y-100445295D02*
X145716666Y-100540533D01*
X145716666Y-100540533D02*
X145669047Y-100683390D01*
X145669047Y-100683390D02*
X145097619Y-101254819D01*
X145097619Y-101254819D02*
X145716666Y-101254819D01*
X148138095Y-97904819D02*
X148709523Y-97904819D01*
X148423809Y-98904819D02*
X148423809Y-97904819D01*
X149042857Y-98904819D02*
X149042857Y-97904819D01*
X149042857Y-97904819D02*
X149423809Y-97904819D01*
X149423809Y-97904819D02*
X149519047Y-97952438D01*
X149519047Y-97952438D02*
X149566666Y-98000057D01*
X149566666Y-98000057D02*
X149614285Y-98095295D01*
X149614285Y-98095295D02*
X149614285Y-98238152D01*
X149614285Y-98238152D02*
X149566666Y-98333390D01*
X149566666Y-98333390D02*
X149519047Y-98381009D01*
X149519047Y-98381009D02*
X149423809Y-98428628D01*
X149423809Y-98428628D02*
X149042857Y-98428628D01*
X150185714Y-98333390D02*
X150090476Y-98285771D01*
X150090476Y-98285771D02*
X150042857Y-98238152D01*
X150042857Y-98238152D02*
X149995238Y-98142914D01*
X149995238Y-98142914D02*
X149995238Y-98095295D01*
X149995238Y-98095295D02*
X150042857Y-98000057D01*
X150042857Y-98000057D02*
X150090476Y-97952438D01*
X150090476Y-97952438D02*
X150185714Y-97904819D01*
X150185714Y-97904819D02*
X150376190Y-97904819D01*
X150376190Y-97904819D02*
X150471428Y-97952438D01*
X150471428Y-97952438D02*
X150519047Y-98000057D01*
X150519047Y-98000057D02*
X150566666Y-98095295D01*
X150566666Y-98095295D02*
X150566666Y-98142914D01*
X150566666Y-98142914D02*
X150519047Y-98238152D01*
X150519047Y-98238152D02*
X150471428Y-98285771D01*
X150471428Y-98285771D02*
X150376190Y-98333390D01*
X150376190Y-98333390D02*
X150185714Y-98333390D01*
X150185714Y-98333390D02*
X150090476Y-98381009D01*
X150090476Y-98381009D02*
X150042857Y-98428628D01*
X150042857Y-98428628D02*
X149995238Y-98523866D01*
X149995238Y-98523866D02*
X149995238Y-98714342D01*
X149995238Y-98714342D02*
X150042857Y-98809580D01*
X150042857Y-98809580D02*
X150090476Y-98857200D01*
X150090476Y-98857200D02*
X150185714Y-98904819D01*
X150185714Y-98904819D02*
X150376190Y-98904819D01*
X150376190Y-98904819D02*
X150471428Y-98857200D01*
X150471428Y-98857200D02*
X150519047Y-98809580D01*
X150519047Y-98809580D02*
X150566666Y-98714342D01*
X150566666Y-98714342D02*
X150566666Y-98523866D01*
X150566666Y-98523866D02*
X150519047Y-98428628D01*
X150519047Y-98428628D02*
X150471428Y-98381009D01*
X150471428Y-98381009D02*
X150376190Y-98333390D01*
X184658095Y-80528438D02*
X184562857Y-80480819D01*
X184562857Y-80480819D02*
X184420000Y-80480819D01*
X184420000Y-80480819D02*
X184277143Y-80528438D01*
X184277143Y-80528438D02*
X184181905Y-80623676D01*
X184181905Y-80623676D02*
X184134286Y-80718914D01*
X184134286Y-80718914D02*
X184086667Y-80909390D01*
X184086667Y-80909390D02*
X184086667Y-81052247D01*
X184086667Y-81052247D02*
X184134286Y-81242723D01*
X184134286Y-81242723D02*
X184181905Y-81337961D01*
X184181905Y-81337961D02*
X184277143Y-81433200D01*
X184277143Y-81433200D02*
X184420000Y-81480819D01*
X184420000Y-81480819D02*
X184515238Y-81480819D01*
X184515238Y-81480819D02*
X184658095Y-81433200D01*
X184658095Y-81433200D02*
X184705714Y-81385580D01*
X184705714Y-81385580D02*
X184705714Y-81052247D01*
X184705714Y-81052247D02*
X184515238Y-81052247D01*
X185134286Y-81480819D02*
X185134286Y-80480819D01*
X185134286Y-80480819D02*
X185705714Y-81480819D01*
X185705714Y-81480819D02*
X185705714Y-80480819D01*
X186181905Y-81480819D02*
X186181905Y-80480819D01*
X186181905Y-80480819D02*
X186420000Y-80480819D01*
X186420000Y-80480819D02*
X186562857Y-80528438D01*
X186562857Y-80528438D02*
X186658095Y-80623676D01*
X186658095Y-80623676D02*
X186705714Y-80718914D01*
X186705714Y-80718914D02*
X186753333Y-80909390D01*
X186753333Y-80909390D02*
X186753333Y-81052247D01*
X186753333Y-81052247D02*
X186705714Y-81242723D01*
X186705714Y-81242723D02*
X186658095Y-81337961D01*
X186658095Y-81337961D02*
X186562857Y-81433200D01*
X186562857Y-81433200D02*
X186420000Y-81480819D01*
X186420000Y-81480819D02*
X186181905Y-81480819D01*
X127702666Y-66294819D02*
X127702666Y-67009104D01*
X127702666Y-67009104D02*
X127655047Y-67151961D01*
X127655047Y-67151961D02*
X127559809Y-67247200D01*
X127559809Y-67247200D02*
X127416952Y-67294819D01*
X127416952Y-67294819D02*
X127321714Y-67294819D01*
X128607428Y-66628152D02*
X128607428Y-67294819D01*
X128369333Y-66247200D02*
X128131238Y-66961485D01*
X128131238Y-66961485D02*
X128750285Y-66961485D01*
X183308666Y-65744819D02*
X183308666Y-66459104D01*
X183308666Y-66459104D02*
X183261047Y-66601961D01*
X183261047Y-66601961D02*
X183165809Y-66697200D01*
X183165809Y-66697200D02*
X183022952Y-66744819D01*
X183022952Y-66744819D02*
X182927714Y-66744819D01*
X183689619Y-65744819D02*
X184308666Y-65744819D01*
X184308666Y-65744819D02*
X183975333Y-66125771D01*
X183975333Y-66125771D02*
X184118190Y-66125771D01*
X184118190Y-66125771D02*
X184213428Y-66173390D01*
X184213428Y-66173390D02*
X184261047Y-66221009D01*
X184261047Y-66221009D02*
X184308666Y-66316247D01*
X184308666Y-66316247D02*
X184308666Y-66554342D01*
X184308666Y-66554342D02*
X184261047Y-66649580D01*
X184261047Y-66649580D02*
X184213428Y-66697200D01*
X184213428Y-66697200D02*
X184118190Y-66744819D01*
X184118190Y-66744819D02*
X183832476Y-66744819D01*
X183832476Y-66744819D02*
X183737238Y-66697200D01*
X183737238Y-66697200D02*
X183689619Y-66649580D01*
X134038095Y-100004819D02*
X134609523Y-100004819D01*
X134323809Y-101004819D02*
X134323809Y-100004819D01*
X134942857Y-101004819D02*
X134942857Y-100004819D01*
X134942857Y-100004819D02*
X135323809Y-100004819D01*
X135323809Y-100004819D02*
X135419047Y-100052438D01*
X135419047Y-100052438D02*
X135466666Y-100100057D01*
X135466666Y-100100057D02*
X135514285Y-100195295D01*
X135514285Y-100195295D02*
X135514285Y-100338152D01*
X135514285Y-100338152D02*
X135466666Y-100433390D01*
X135466666Y-100433390D02*
X135419047Y-100481009D01*
X135419047Y-100481009D02*
X135323809Y-100528628D01*
X135323809Y-100528628D02*
X134942857Y-100528628D01*
X136466666Y-101004819D02*
X135895238Y-101004819D01*
X136180952Y-101004819D02*
X136180952Y-100004819D01*
X136180952Y-100004819D02*
X136085714Y-100147676D01*
X136085714Y-100147676D02*
X135990476Y-100242914D01*
X135990476Y-100242914D02*
X135895238Y-100290533D01*
X142581333Y-96974819D02*
X142248000Y-96498628D01*
X142009905Y-96974819D02*
X142009905Y-95974819D01*
X142009905Y-95974819D02*
X142390857Y-95974819D01*
X142390857Y-95974819D02*
X142486095Y-96022438D01*
X142486095Y-96022438D02*
X142533714Y-96070057D01*
X142533714Y-96070057D02*
X142581333Y-96165295D01*
X142581333Y-96165295D02*
X142581333Y-96308152D01*
X142581333Y-96308152D02*
X142533714Y-96403390D01*
X142533714Y-96403390D02*
X142486095Y-96451009D01*
X142486095Y-96451009D02*
X142390857Y-96498628D01*
X142390857Y-96498628D02*
X142009905Y-96498628D01*
X143486095Y-95974819D02*
X143009905Y-95974819D01*
X143009905Y-95974819D02*
X142962286Y-96451009D01*
X142962286Y-96451009D02*
X143009905Y-96403390D01*
X143009905Y-96403390D02*
X143105143Y-96355771D01*
X143105143Y-96355771D02*
X143343238Y-96355771D01*
X143343238Y-96355771D02*
X143438476Y-96403390D01*
X143438476Y-96403390D02*
X143486095Y-96451009D01*
X143486095Y-96451009D02*
X143533714Y-96546247D01*
X143533714Y-96546247D02*
X143533714Y-96784342D01*
X143533714Y-96784342D02*
X143486095Y-96879580D01*
X143486095Y-96879580D02*
X143438476Y-96927200D01*
X143438476Y-96927200D02*
X143343238Y-96974819D01*
X143343238Y-96974819D02*
X143105143Y-96974819D01*
X143105143Y-96974819D02*
X143009905Y-96927200D01*
X143009905Y-96927200D02*
X142962286Y-96879580D01*
D12*
%TO.C,J6*%
X119420000Y-103142000D02*
X120840000Y-103142000D01*
X119420000Y-114862000D02*
X119420000Y-103142000D01*
X120840000Y-103142000D02*
X120840000Y-107642000D01*
X120840000Y-107642000D02*
X125730000Y-107642000D01*
X121680000Y-103452000D02*
X122280000Y-103452000D01*
X121730000Y-108752000D02*
X121730000Y-114252000D01*
X121730000Y-114252000D02*
X122230000Y-114252000D01*
X121980000Y-104052000D02*
X121680000Y-103452000D01*
X122230000Y-108752000D02*
X121730000Y-108752000D01*
X122230000Y-114252000D02*
X122230000Y-108752000D01*
X122280000Y-103452000D02*
X121980000Y-104052000D01*
X124230000Y-108752000D02*
X124230000Y-114252000D01*
X124230000Y-114252000D02*
X124730000Y-114252000D01*
X124730000Y-108752000D02*
X124230000Y-108752000D01*
X124730000Y-114252000D02*
X124730000Y-108752000D01*
X125730000Y-114862000D02*
X119420000Y-114862000D01*
X125730000Y-114862000D02*
X132040000Y-114862000D01*
X126730000Y-108752000D02*
X126730000Y-114252000D01*
X126730000Y-114252000D02*
X127230000Y-114252000D01*
X127230000Y-108752000D02*
X126730000Y-108752000D01*
X127230000Y-114252000D02*
X127230000Y-108752000D01*
X129230000Y-108752000D02*
X129230000Y-114252000D01*
X129230000Y-114252000D02*
X129730000Y-114252000D01*
X129730000Y-108752000D02*
X129230000Y-108752000D01*
X129730000Y-114252000D02*
X129730000Y-108752000D01*
X130620000Y-103142000D02*
X130620000Y-107642000D01*
X130620000Y-107642000D02*
X125730000Y-107642000D01*
X132040000Y-103142000D02*
X130620000Y-103142000D01*
X132040000Y-114862000D02*
X132040000Y-103142000D01*
%TO.C,R3*%
X136826258Y-96280500D02*
X136351742Y-96280500D01*
X136826258Y-95235500D02*
X136351742Y-95235500D01*
%TO.C,J2*%
X160452500Y-103160000D02*
X161872500Y-103160000D01*
X160452500Y-114880000D02*
X160452500Y-103160000D01*
X161872500Y-103160000D02*
X161872500Y-107660000D01*
X161872500Y-107660000D02*
X166762500Y-107660000D01*
X162712500Y-103470000D02*
X163312500Y-103470000D01*
X162762500Y-108770000D02*
X162762500Y-114270000D01*
X162762500Y-114270000D02*
X163262500Y-114270000D01*
X163012500Y-104070000D02*
X162712500Y-103470000D01*
X163262500Y-108770000D02*
X162762500Y-108770000D01*
X163262500Y-114270000D02*
X163262500Y-108770000D01*
X163312500Y-103470000D02*
X163012500Y-104070000D01*
X165262500Y-108770000D02*
X165262500Y-114270000D01*
X165262500Y-114270000D02*
X165762500Y-114270000D01*
X165762500Y-108770000D02*
X165262500Y-108770000D01*
X165762500Y-114270000D02*
X165762500Y-108770000D01*
X166762500Y-114880000D02*
X160452500Y-114880000D01*
X166762500Y-114880000D02*
X173072500Y-114880000D01*
X167762500Y-108770000D02*
X167762500Y-114270000D01*
X167762500Y-114270000D02*
X168262500Y-114270000D01*
X168262500Y-108770000D02*
X167762500Y-108770000D01*
X168262500Y-114270000D02*
X168262500Y-108770000D01*
X170262500Y-108770000D02*
X170262500Y-114270000D01*
X170262500Y-114270000D02*
X170762500Y-114270000D01*
X170762500Y-108770000D02*
X170262500Y-108770000D01*
X170762500Y-114270000D02*
X170762500Y-108770000D01*
X171652500Y-103160000D02*
X171652500Y-107660000D01*
X171652500Y-107660000D02*
X166762500Y-107660000D01*
X173072500Y-103160000D02*
X171652500Y-103160000D01*
X173072500Y-114880000D02*
X173072500Y-103160000D01*
%TO.C,J1*%
X146775000Y-103106000D02*
X148195000Y-103106000D01*
X146775000Y-114826000D02*
X146775000Y-103106000D01*
X148195000Y-103106000D02*
X148195000Y-107606000D01*
X148195000Y-107606000D02*
X153085000Y-107606000D01*
X149035000Y-103416000D02*
X149635000Y-103416000D01*
X149085000Y-108716000D02*
X149085000Y-114216000D01*
X149085000Y-114216000D02*
X149585000Y-114216000D01*
X149335000Y-104016000D02*
X149035000Y-103416000D01*
X149585000Y-108716000D02*
X149085000Y-108716000D01*
X149585000Y-114216000D02*
X149585000Y-108716000D01*
X149635000Y-103416000D02*
X149335000Y-104016000D01*
X151585000Y-108716000D02*
X151585000Y-114216000D01*
X151585000Y-114216000D02*
X152085000Y-114216000D01*
X152085000Y-108716000D02*
X151585000Y-108716000D01*
X152085000Y-114216000D02*
X152085000Y-108716000D01*
X153085000Y-114826000D02*
X146775000Y-114826000D01*
X153085000Y-114826000D02*
X159395000Y-114826000D01*
X154085000Y-108716000D02*
X154085000Y-114216000D01*
X154085000Y-114216000D02*
X154585000Y-114216000D01*
X154585000Y-108716000D02*
X154085000Y-108716000D01*
X154585000Y-114216000D02*
X154585000Y-108716000D01*
X156585000Y-108716000D02*
X156585000Y-114216000D01*
X156585000Y-114216000D02*
X157085000Y-114216000D01*
X157085000Y-108716000D02*
X156585000Y-108716000D01*
X157085000Y-114216000D02*
X157085000Y-108716000D01*
X157975000Y-103106000D02*
X157975000Y-107606000D01*
X157975000Y-107606000D02*
X153085000Y-107606000D01*
X159395000Y-103106000D02*
X157975000Y-103106000D01*
X159395000Y-114826000D02*
X159395000Y-103106000D01*
%TO.C,TP7*%
X152720000Y-99888000D02*
X154620000Y-99888000D01*
X152720000Y-101788000D02*
X152720000Y-99888000D01*
X154620000Y-99888000D02*
X154620000Y-101788000D01*
X154620000Y-101788000D02*
X152720000Y-101788000D01*
D13*
%TO.C,U1*%
X126900000Y-93888000D02*
X126900000Y-93888000D01*
X126900000Y-93888000D02*
X126900000Y-93888000D01*
X126900000Y-93788000D02*
X126900000Y-93788000D01*
X126900000Y-93788000D02*
G75*
G03*
X126900000Y-93888000I0J-50000D01*
G01*
X126900000Y-93888000D02*
G75*
G03*
X126900000Y-93788000I0J50000D01*
G01*
X126900000Y-93888000D02*
G75*
G03*
X126900000Y-93788000I0J50000D01*
G01*
D12*
%TO.C,TP5*%
X163676808Y-99426000D02*
X165576808Y-99426000D01*
X163676808Y-101326000D02*
X163676808Y-99426000D01*
X165576808Y-99426000D02*
X165576808Y-101326000D01*
X165576808Y-101326000D02*
X163676808Y-101326000D01*
%TO.C,J7*%
X198935000Y-88310000D02*
X198935000Y-88010000D01*
X198935000Y-88310000D02*
X194815000Y-88310000D01*
X198935000Y-86490000D02*
X198935000Y-86010000D01*
X198935000Y-84490000D02*
X198935000Y-84010000D01*
X198935000Y-82490000D02*
X198935000Y-82010000D01*
X198935000Y-80490000D02*
X198935000Y-80010000D01*
X198935000Y-78490000D02*
X198935000Y-78010000D01*
X198935000Y-76490000D02*
X198935000Y-76190000D01*
X198935000Y-76190000D02*
X194815000Y-76190000D01*
X194815000Y-88310000D02*
X194815000Y-88010000D01*
X194815000Y-88010000D02*
X192435000Y-88010000D01*
X194815000Y-86490000D02*
X194815000Y-86010000D01*
X194815000Y-84490000D02*
X194815000Y-84010000D01*
X194815000Y-82490000D02*
X194815000Y-82010000D01*
X194815000Y-80490000D02*
X194815000Y-80010000D01*
X194815000Y-78490000D02*
X194815000Y-78010000D01*
X194815000Y-76490000D02*
X194815000Y-76190000D01*
D14*
%TO.C,J9*%
X179895000Y-74388342D02*
X193485001Y-74388342D01*
X193485001Y-74388342D02*
X193485001Y-66848358D01*
X179895000Y-72748125D02*
X179895000Y-74388342D01*
X179895000Y-70463390D02*
X179895000Y-71028575D01*
X179895000Y-66848358D02*
X179895000Y-68233310D01*
X193485001Y-66848358D02*
X179895000Y-66848358D01*
X180605001Y-66594358D02*
X181240001Y-65070358D01*
X179970001Y-65070358D02*
X180605001Y-66594358D01*
X181240001Y-65070358D02*
X179970001Y-65070358D01*
D12*
%TO.C,R2*%
X168131258Y-97021500D02*
X167656742Y-97021500D01*
X168131258Y-95976500D02*
X167656742Y-95976500D01*
%TO.C,J8*%
X174130000Y-103178000D02*
X175550000Y-103178000D01*
X174130000Y-114898000D02*
X174130000Y-103178000D01*
X175550000Y-103178000D02*
X175550000Y-107678000D01*
X176390000Y-105088000D02*
X176990000Y-105088000D01*
X176440000Y-108788000D02*
X176440000Y-114288000D01*
X176440000Y-114288000D02*
X176940000Y-114288000D01*
X176690000Y-105688000D02*
X176390000Y-105088000D01*
X176940000Y-108788000D02*
X176440000Y-108788000D01*
X176940000Y-114288000D02*
X176940000Y-108788000D01*
X176990000Y-105088000D02*
X176690000Y-105688000D01*
X178940000Y-108788000D02*
X178940000Y-114288000D01*
X178940000Y-114288000D02*
X179440000Y-114288000D01*
X179440000Y-108788000D02*
X178940000Y-108788000D01*
X179440000Y-114288000D02*
X179440000Y-108788000D01*
X181440000Y-108788000D02*
X181440000Y-114288000D01*
X181440000Y-114288000D02*
X181940000Y-114288000D01*
X181940000Y-108788000D02*
X181440000Y-108788000D01*
X181940000Y-114288000D02*
X181940000Y-108788000D01*
X182940000Y-114898000D02*
X174130000Y-114898000D01*
X182940000Y-114898000D02*
X191750000Y-114898000D01*
X183940000Y-108788000D02*
X183940000Y-114288000D01*
X183940000Y-114288000D02*
X184440000Y-114288000D01*
X184440000Y-108788000D02*
X183940000Y-108788000D01*
X184440000Y-114288000D02*
X184440000Y-108788000D01*
X186440000Y-108788000D02*
X186440000Y-114288000D01*
X186440000Y-114288000D02*
X186940000Y-114288000D01*
X186940000Y-108788000D02*
X186440000Y-108788000D01*
X186940000Y-114288000D02*
X186940000Y-108788000D01*
X188940000Y-108788000D02*
X188940000Y-114288000D01*
X188940000Y-114288000D02*
X189440000Y-114288000D01*
X189440000Y-108788000D02*
X188940000Y-108788000D01*
X189440000Y-114288000D02*
X189440000Y-108788000D01*
X190330000Y-103178000D02*
X190330000Y-107678000D01*
X191750000Y-103178000D02*
X190330000Y-103178000D01*
X191750000Y-114898000D02*
X191750000Y-103178000D01*
%TO.C,TP4*%
X127574000Y-99900000D02*
X129474000Y-99900000D01*
X127574000Y-101800000D02*
X127574000Y-99900000D01*
X129474000Y-99900000D02*
X129474000Y-101800000D01*
X129474000Y-101800000D02*
X127574000Y-101800000D01*
D15*
%TO.C,TMC1*%
X135174666Y-68580000D02*
X135174666Y-53340000D01*
X155494666Y-68580000D02*
X135174666Y-68580000D01*
X135174666Y-53340000D02*
X155494666Y-53340000D01*
X155494666Y-53340000D02*
X155494666Y-68580000D01*
D13*
X136544666Y-69160000D02*
G75*
G03*
X136544666Y-69160000I-100000J0D01*
G01*
D12*
%TO.C,R6*%
X129015258Y-97021500D02*
X128540742Y-97021500D01*
X129015258Y-95976500D02*
X128540742Y-95976500D01*
%TO.C,R1*%
X164321258Y-96280500D02*
X163846742Y-96280500D01*
X164321258Y-95235500D02*
X163846742Y-95235500D01*
%TO.C,J10*%
X180068000Y-102060000D02*
X180068000Y-100640000D01*
X191788000Y-102060000D02*
X180068000Y-102060000D01*
X180068000Y-100640000D02*
X184568000Y-100640000D01*
X184568000Y-100640000D02*
X184568000Y-95750000D01*
X180378000Y-99800000D02*
X180378000Y-99200000D01*
X185678000Y-99750000D02*
X191178000Y-99750000D01*
X191178000Y-99750000D02*
X191178000Y-99250000D01*
X180978000Y-99500000D02*
X180378000Y-99800000D01*
X185678000Y-99250000D02*
X185678000Y-99750000D01*
X191178000Y-99250000D02*
X185678000Y-99250000D01*
X180378000Y-99200000D02*
X180978000Y-99500000D01*
X185678000Y-97250000D02*
X191178000Y-97250000D01*
X191178000Y-97250000D02*
X191178000Y-96750000D01*
X185678000Y-96750000D02*
X185678000Y-97250000D01*
X191178000Y-96750000D02*
X185678000Y-96750000D01*
X191788000Y-95750000D02*
X191788000Y-102060000D01*
X191788000Y-95750000D02*
X191788000Y-89440000D01*
X185678000Y-94750000D02*
X191178000Y-94750000D01*
X191178000Y-94750000D02*
X191178000Y-94250000D01*
X185678000Y-94250000D02*
X185678000Y-94750000D01*
X191178000Y-94250000D02*
X185678000Y-94250000D01*
X185678000Y-92250000D02*
X191178000Y-92250000D01*
X191178000Y-92250000D02*
X191178000Y-91750000D01*
X185678000Y-91750000D02*
X185678000Y-92250000D01*
X191178000Y-91750000D02*
X185678000Y-91750000D01*
X180068000Y-90860000D02*
X184568000Y-90860000D01*
X184568000Y-90860000D02*
X184568000Y-95750000D01*
X180068000Y-89440000D02*
X180068000Y-90860000D01*
X191788000Y-89440000D02*
X180068000Y-89440000D01*
%TO.C,R4*%
X125650258Y-96280500D02*
X125175742Y-96280500D01*
X125650258Y-95235500D02*
X125175742Y-95235500D01*
%TO.C,TP6*%
X167706000Y-99888000D02*
X169606000Y-99888000D01*
X167706000Y-101788000D02*
X167706000Y-99888000D01*
X169606000Y-99888000D02*
X169606000Y-101788000D01*
X169606000Y-101788000D02*
X167706000Y-101788000D01*
%TO.C,TP3*%
X124780000Y-98376000D02*
X126680000Y-98376000D01*
X124780000Y-100276000D02*
X124780000Y-98376000D01*
X126680000Y-98376000D02*
X126680000Y-100276000D01*
X126680000Y-100276000D02*
X124780000Y-100276000D01*
%TO.C,TP2*%
X140782000Y-99900000D02*
X142682000Y-99900000D01*
X140782000Y-101800000D02*
X140782000Y-99900000D01*
X142682000Y-99900000D02*
X142682000Y-101800000D01*
X142682000Y-101800000D02*
X140782000Y-101800000D01*
%TO.C,TP8*%
X148402000Y-99426000D02*
X150302000Y-99426000D01*
X148402000Y-101326000D02*
X148402000Y-99426000D01*
X150302000Y-99426000D02*
X150302000Y-101326000D01*
X150302000Y-101326000D02*
X148402000Y-101326000D01*
%TO.C,GND*%
X184724000Y-82108000D02*
X186624000Y-82108000D01*
X184724000Y-84008000D02*
X184724000Y-82108000D01*
X186624000Y-82108000D02*
X186624000Y-84008000D01*
X186624000Y-84008000D02*
X184724000Y-84008000D01*
%TO.C,J4*%
X134346000Y-65200000D02*
X132926000Y-65200000D01*
X134346000Y-53480000D02*
X134346000Y-65200000D01*
X132926000Y-65200000D02*
X132926000Y-60700000D01*
X132926000Y-60700000D02*
X128036000Y-60700000D01*
X132086000Y-64890000D02*
X131486000Y-64890000D01*
X132036000Y-59590000D02*
X132036000Y-54090000D01*
X132036000Y-54090000D02*
X131536000Y-54090000D01*
X131786000Y-64290000D02*
X132086000Y-64890000D01*
X131536000Y-59590000D02*
X132036000Y-59590000D01*
X131536000Y-54090000D02*
X131536000Y-59590000D01*
X131486000Y-64890000D02*
X131786000Y-64290000D01*
X129536000Y-59590000D02*
X129536000Y-54090000D01*
X129536000Y-54090000D02*
X129036000Y-54090000D01*
X129036000Y-59590000D02*
X129536000Y-59590000D01*
X129036000Y-54090000D02*
X129036000Y-59590000D01*
X128036000Y-53480000D02*
X134346000Y-53480000D01*
X128036000Y-53480000D02*
X121726000Y-53480000D01*
X127036000Y-59590000D02*
X127036000Y-54090000D01*
X127036000Y-54090000D02*
X126536000Y-54090000D01*
X126536000Y-59590000D02*
X127036000Y-59590000D01*
X126536000Y-54090000D02*
X126536000Y-59590000D01*
X124536000Y-59590000D02*
X124536000Y-54090000D01*
X124536000Y-54090000D02*
X124036000Y-54090000D01*
X124036000Y-59590000D02*
X124536000Y-59590000D01*
X124036000Y-54090000D02*
X124036000Y-59590000D01*
X123146000Y-65200000D02*
X123146000Y-60700000D01*
X123146000Y-60700000D02*
X128036000Y-60700000D01*
X121726000Y-65200000D02*
X123146000Y-65200000D01*
X121726000Y-53480000D02*
X121726000Y-65200000D01*
%TO.C,J3*%
X189952000Y-65200000D02*
X188532000Y-65200000D01*
X189952000Y-53480000D02*
X189952000Y-65200000D01*
X188532000Y-65200000D02*
X188532000Y-60700000D01*
X188532000Y-60700000D02*
X183642000Y-60700000D01*
X187692000Y-64890000D02*
X187092000Y-64890000D01*
X187642000Y-59590000D02*
X187642000Y-54090000D01*
X187642000Y-54090000D02*
X187142000Y-54090000D01*
X187392000Y-64290000D02*
X187692000Y-64890000D01*
X187142000Y-59590000D02*
X187642000Y-59590000D01*
X187142000Y-54090000D02*
X187142000Y-59590000D01*
X187092000Y-64890000D02*
X187392000Y-64290000D01*
X185142000Y-59590000D02*
X185142000Y-54090000D01*
X185142000Y-54090000D02*
X184642000Y-54090000D01*
X184642000Y-59590000D02*
X185142000Y-59590000D01*
X184642000Y-54090000D02*
X184642000Y-59590000D01*
X183642000Y-53480000D02*
X189952000Y-53480000D01*
X183642000Y-53480000D02*
X177332000Y-53480000D01*
X182642000Y-59590000D02*
X182642000Y-54090000D01*
X182642000Y-54090000D02*
X182142000Y-54090000D01*
X182142000Y-59590000D02*
X182642000Y-59590000D01*
X182142000Y-54090000D02*
X182142000Y-59590000D01*
X180142000Y-59590000D02*
X180142000Y-54090000D01*
X180142000Y-54090000D02*
X179642000Y-54090000D01*
X179642000Y-59590000D02*
X180142000Y-59590000D01*
X179642000Y-54090000D02*
X179642000Y-59590000D01*
X178752000Y-65200000D02*
X178752000Y-60700000D01*
X178752000Y-60700000D02*
X183642000Y-60700000D01*
X177332000Y-65200000D02*
X178752000Y-65200000D01*
X177332000Y-53480000D02*
X177332000Y-65200000D01*
%TO.C,TP1*%
X137226000Y-99426000D02*
X139126000Y-99426000D01*
X137226000Y-101326000D02*
X137226000Y-99426000D01*
X139126000Y-99426000D02*
X139126000Y-101326000D01*
X139126000Y-101326000D02*
X137226000Y-101326000D01*
%TO.C,J5*%
X133097500Y-103124000D02*
X134517500Y-103124000D01*
X133097500Y-114844000D02*
X133097500Y-103124000D01*
X134517500Y-103124000D02*
X134517500Y-107624000D01*
X134517500Y-107624000D02*
X139407500Y-107624000D01*
X135357500Y-103434000D02*
X135957500Y-103434000D01*
X135407500Y-108734000D02*
X135407500Y-114234000D01*
X135407500Y-114234000D02*
X135907500Y-114234000D01*
X135657500Y-104034000D02*
X135357500Y-103434000D01*
X135907500Y-108734000D02*
X135407500Y-108734000D01*
X135907500Y-114234000D02*
X135907500Y-108734000D01*
X135957500Y-103434000D02*
X135657500Y-104034000D01*
X137907500Y-108734000D02*
X137907500Y-114234000D01*
X137907500Y-114234000D02*
X138407500Y-114234000D01*
X138407500Y-108734000D02*
X137907500Y-108734000D01*
X138407500Y-114234000D02*
X138407500Y-108734000D01*
X139407500Y-114844000D02*
X133097500Y-114844000D01*
X139407500Y-114844000D02*
X145717500Y-114844000D01*
X140407500Y-108734000D02*
X140407500Y-114234000D01*
X140407500Y-114234000D02*
X140907500Y-114234000D01*
X140907500Y-108734000D02*
X140407500Y-108734000D01*
X140907500Y-114234000D02*
X140907500Y-108734000D01*
X142907500Y-108734000D02*
X142907500Y-114234000D01*
X142907500Y-114234000D02*
X143407500Y-114234000D01*
X143407500Y-108734000D02*
X142907500Y-108734000D01*
X143407500Y-114234000D02*
X143407500Y-108734000D01*
X144297500Y-103124000D02*
X144297500Y-107624000D01*
X144297500Y-107624000D02*
X139407500Y-107624000D01*
X145717500Y-103124000D02*
X144297500Y-103124000D01*
X145717500Y-114844000D02*
X145717500Y-103124000D01*
%TO.C,R5*%
X140508258Y-97021500D02*
X140033742Y-97021500D01*
X140508258Y-95976500D02*
X140033742Y-95976500D01*
D13*
%TO.C,TMC2*%
X157553332Y-69160000D02*
G75*
G03*
X157553332Y-69160000I-100000J0D01*
G01*
D15*
X176503332Y-53340000D02*
X176503332Y-68580000D01*
X156183332Y-53340000D02*
X176503332Y-53340000D01*
X176503332Y-68580000D02*
X156183332Y-68580000D01*
X156183332Y-68580000D02*
X156183332Y-53340000D01*
%TD*%
M02*
