%TF.GenerationSoftware,KiCad,Pcbnew,7.0.8*%
%TF.CreationDate,2024-06-04T12:59:23+12:00*%
%TF.ProjectId,FYP_P2_1,4659505f-5032-45f3-912e-6b696361645f,rev?*%
%TF.SameCoordinates,Original*%
%TF.FileFunction,Copper,L2,Inr*%
%TF.FilePolarity,Positive*%
%FSLAX46Y46*%
G04 Gerber Fmt 4.6, Leading zero omitted, Abs format (unit mm)*
G04 Created by KiCad (PCBNEW 7.0.8) date 2024-06-04 12:59:23*
%MOMM*%
%LPD*%
G01*
G04 APERTURE LIST*
G04 Aperture macros list*
%AMRoundRect*
0 Rectangle with rounded corners*
0 $1 Rounding radius*
0 $2 $3 $4 $5 $6 $7 $8 $9 X,Y pos of 4 corners*
0 Add a 4 corners polygon primitive as box body*
4,1,4,$2,$3,$4,$5,$6,$7,$8,$9,$2,$3,0*
0 Add four circle primitives for the rounded corners*
1,1,$1+$1,$2,$3*
1,1,$1+$1,$4,$5*
1,1,$1+$1,$6,$7*
1,1,$1+$1,$8,$9*
0 Add four rect primitives between the rounded corners*
20,1,$1+$1,$2,$3,$4,$5,0*
20,1,$1+$1,$4,$5,$6,$7,0*
20,1,$1+$1,$6,$7,$8,$9,0*
20,1,$1+$1,$8,$9,$2,$3,0*%
G04 Aperture macros list end*
%TA.AperFunction,ComponentPad*%
%ADD10RoundRect,0.250000X-0.600000X-0.725000X0.600000X-0.725000X0.600000X0.725000X-0.600000X0.725000X0*%
%TD*%
%TA.AperFunction,ComponentPad*%
%ADD11O,1.700000X1.950000*%
%TD*%
%TA.AperFunction,ComponentPad*%
%ADD12C,3.150000*%
%TD*%
%TA.AperFunction,ComponentPad*%
%ADD13R,1.590000X1.590000*%
%TD*%
%TA.AperFunction,ComponentPad*%
%ADD14C,1.590000*%
%TD*%
%TA.AperFunction,ComponentPad*%
%ADD15R,1.508000X1.508000*%
%TD*%
%TA.AperFunction,ComponentPad*%
%ADD16C,1.508000*%
%TD*%
%TA.AperFunction,ComponentPad*%
%ADD17RoundRect,0.250000X0.725000X-0.600000X0.725000X0.600000X-0.725000X0.600000X-0.725000X-0.600000X0*%
%TD*%
%TA.AperFunction,ComponentPad*%
%ADD18O,1.950000X1.700000*%
%TD*%
%TA.AperFunction,ComponentPad*%
%ADD19RoundRect,0.250000X0.600000X0.725000X-0.600000X0.725000X-0.600000X-0.725000X0.600000X-0.725000X0*%
%TD*%
%TA.AperFunction,ViaPad*%
%ADD20C,0.800000*%
%TD*%
G04 APERTURE END LIST*
D10*
%TO.N,+3V3*%
%TO.C,J6*%
X121980000Y-105552000D03*
D11*
%TO.N,SDA*%
X124480000Y-105552000D03*
%TO.N,SCL*%
X126980000Y-105552000D03*
%TO.N,GND*%
X129480000Y-105552000D03*
%TD*%
D10*
%TO.N,+5V*%
%TO.C,J2*%
X163012500Y-105570000D03*
D11*
%TO.N,ENCODER_1A*%
X165512500Y-105570000D03*
%TO.N,ENCODER_1B*%
X168012500Y-105570000D03*
%TO.N,GND*%
X170512500Y-105570000D03*
%TD*%
D10*
%TO.N,+3V3*%
%TO.C,J1*%
X149335000Y-105516000D03*
D11*
%TO.N,ENCODER_2A*%
X151835000Y-105516000D03*
%TO.N,ENCODER_2B*%
X154335000Y-105516000D03*
%TO.N,GND*%
X156835000Y-105516000D03*
%TD*%
D12*
%TO.N,N/C*%
%TO.C,U1*%
X127600000Y-87488000D03*
X127600000Y-76088000D03*
X174600000Y-87488000D03*
X174600000Y-76088000D03*
%TD*%
D13*
%TO.N,GND*%
%TO.C,J9*%
X180605001Y-69348350D03*
D14*
%TO.N,+12V*%
X180605001Y-71888350D03*
%TD*%
D10*
%TO.N,+5V*%
%TO.C,J8*%
X176690000Y-107188000D03*
D11*
%TO.N,BATT_SENSE_LV*%
X179190000Y-107188000D03*
%TO.N,BATT_SENSE_HV*%
X181690000Y-107188000D03*
%TO.N,+3V3*%
X184190000Y-107188000D03*
%TO.N,5V_EN*%
X186690000Y-107188000D03*
%TO.N,GND*%
X189190000Y-107188000D03*
%TD*%
D15*
%TO.N,ENA*%
%TO.C,TMC1*%
X136444666Y-67310000D03*
D16*
%TO.N,MS1A*%
X138984666Y-67310000D03*
%TO.N,MS1B*%
X141524666Y-67310000D03*
%TO.N,unconnected-(TMC1-PDN-Pad4)*%
X144064666Y-67310000D03*
%TO.N,UART_PDN*%
X146604666Y-67310000D03*
%TO.N,GND*%
X149144666Y-67310000D03*
%TO.N,STEPA*%
X151684666Y-67310000D03*
%TO.N,DIRA*%
X154224666Y-67310000D03*
%TO.N,+12V*%
X136444666Y-54610000D03*
%TO.N,GND*%
X138984666Y-54610000D03*
%TO.N,/Motor1A2*%
X141524666Y-54610000D03*
%TO.N,/Motor1A1*%
X144064666Y-54610000D03*
%TO.N,/Motor1B2*%
X146604666Y-54610000D03*
%TO.N,/Motor1B1*%
X149144666Y-54610000D03*
%TO.N,+3V3*%
X151684666Y-54610000D03*
%TO.N,GND*%
X154224666Y-54610000D03*
%TD*%
D17*
%TO.N,+3V3*%
%TO.C,J10*%
X182478000Y-99500000D03*
D18*
%TO.N,TX1*%
X182478000Y-97000000D03*
%TO.N,RX1*%
X182478000Y-94500000D03*
%TO.N,GND*%
X182478000Y-92000000D03*
%TD*%
D19*
%TO.N,/Motor1B1*%
%TO.C,J4*%
X131786000Y-62790000D03*
D11*
%TO.N,/Motor1B2*%
X129286000Y-62790000D03*
%TO.N,/Motor1A1*%
X126786000Y-62790000D03*
%TO.N,/Motor1A2*%
X124286000Y-62790000D03*
%TD*%
D19*
%TO.N,/Motor2B1*%
%TO.C,J3*%
X187392000Y-62790000D03*
D11*
%TO.N,/Motor2B2*%
X184892000Y-62790000D03*
%TO.N,/Motor2A1*%
X182392000Y-62790000D03*
%TO.N,/Motor2A2*%
X179892000Y-62790000D03*
%TD*%
D10*
%TO.N,+3V3*%
%TO.C,J5*%
X135657500Y-105534000D03*
D11*
%TO.N,SDA_PI*%
X138157500Y-105534000D03*
%TO.N,SCL_PI*%
X140657500Y-105534000D03*
%TO.N,GND*%
X143157500Y-105534000D03*
%TD*%
D16*
%TO.N,GND*%
%TO.C,TMC2*%
X175233332Y-54610000D03*
%TO.N,+3V3*%
X172693332Y-54610000D03*
%TO.N,/Motor2B1*%
X170153332Y-54610000D03*
%TO.N,/Motor2B2*%
X167613332Y-54610000D03*
%TO.N,/Motor2A1*%
X165073332Y-54610000D03*
%TO.N,/Motor2A2*%
X162533332Y-54610000D03*
%TO.N,GND*%
X159993332Y-54610000D03*
%TO.N,+12V*%
X157453332Y-54610000D03*
%TO.N,DIRB*%
X175233332Y-67310000D03*
%TO.N,STEPB*%
X172693332Y-67310000D03*
%TO.N,GND*%
X170153332Y-67310000D03*
%TO.N,UART_PDN*%
X167613332Y-67310000D03*
%TO.N,unconnected-(TMC2-PDN-Pad4)*%
X165073332Y-67310000D03*
%TO.N,MS2B*%
X162533332Y-67310000D03*
%TO.N,MS2A*%
X159993332Y-67310000D03*
D15*
%TO.N,ENB*%
X157453332Y-67310000D03*
%TD*%
D20*
%TO.N,+3V3*%
X198120000Y-79502000D03*
X162306000Y-95758000D03*
X166878000Y-97536000D03*
X135636000Y-96774000D03*
X137668000Y-73914000D03*
X127726720Y-97512083D03*
X136398000Y-73914000D03*
X198120000Y-78486000D03*
X124460000Y-94742000D03*
X139446000Y-97536000D03*
%TO.N,STEPA*%
X147700000Y-89350000D03*
%TO.N,UART_PDN*%
X173482000Y-69907332D03*
%TO.N,Net-(U1-GPIO16)*%
X176462000Y-70866000D03*
%TO.N,GND*%
X199644000Y-76200000D03*
X156750000Y-74000000D03*
X169750000Y-89250000D03*
X171000000Y-74000000D03*
X198374000Y-83566000D03*
X131250000Y-93500000D03*
X158000000Y-73750000D03*
X145415001Y-74041001D03*
X146000000Y-88500000D03*
X187198000Y-82296000D03*
X198628000Y-76708000D03*
X191516000Y-81534000D03*
X171000000Y-89250000D03*
X158250000Y-89250000D03*
X191516000Y-80638500D03*
X169500000Y-74250000D03*
X183896000Y-83312000D03*
X132050000Y-74200000D03*
X157000000Y-89000000D03*
X132750000Y-93500000D03*
X145288000Y-93472000D03*
%TO.N,DIRA*%
X150500000Y-89500000D03*
%TO.N,STEPB*%
X165250000Y-74250000D03*
%TO.N,DIRB*%
X167500000Y-74000000D03*
%TO.N,+5V*%
X197866000Y-81788000D03*
%TO.N,TX1*%
X152500000Y-93700000D03*
%TO.N,RX1*%
X155400000Y-93650000D03*
%TD*%
%TA.AperFunction,Conductor*%
%TO.N,GND*%
G36*
X193175133Y-52795287D02*
G01*
X193217943Y-52799031D01*
X193344225Y-52811463D01*
X193364140Y-52815086D01*
X193430797Y-52832944D01*
X193524023Y-52861221D01*
X193540406Y-52867488D01*
X193607853Y-52898937D01*
X193610841Y-52900431D01*
X193694786Y-52945298D01*
X193701123Y-52949191D01*
X193767283Y-52995515D01*
X193771055Y-52998377D01*
X193843282Y-53057651D01*
X193847783Y-53061730D01*
X193905267Y-53119214D01*
X193909347Y-53123716D01*
X193968621Y-53195943D01*
X193971483Y-53199715D01*
X194017807Y-53265875D01*
X194021702Y-53272216D01*
X194066556Y-53356135D01*
X194068068Y-53359160D01*
X194073047Y-53369838D01*
X194099504Y-53426578D01*
X194105781Y-53442985D01*
X194134056Y-53536209D01*
X194151910Y-53602852D01*
X194155537Y-53622792D01*
X194167973Y-53749108D01*
X194171709Y-53791844D01*
X194171945Y-53797290D01*
X194160283Y-70580220D01*
X194158223Y-73545716D01*
X194157725Y-74261683D01*
X194157799Y-74262443D01*
X194157799Y-74337531D01*
X194188196Y-74509924D01*
X194248065Y-74674424D01*
X194248066Y-74674426D01*
X194248067Y-74674428D01*
X194335593Y-74826034D01*
X194448113Y-74960139D01*
X194582211Y-75072669D01*
X194733811Y-75160204D01*
X194898308Y-75220086D01*
X195070704Y-75250495D01*
X195158132Y-75250499D01*
X195158133Y-75250500D01*
X200974440Y-75264588D01*
X200974862Y-75264713D01*
X201023428Y-75264713D01*
X201028829Y-75264948D01*
X201070352Y-75268582D01*
X201198256Y-75281222D01*
X201218143Y-75284845D01*
X201282685Y-75302140D01*
X201378072Y-75331076D01*
X201394479Y-75337353D01*
X201460528Y-75368151D01*
X201463530Y-75369652D01*
X201505425Y-75392045D01*
X201548866Y-75415265D01*
X201555205Y-75419159D01*
X201620325Y-75464753D01*
X201624090Y-75467609D01*
X201647938Y-75487179D01*
X201697383Y-75527757D01*
X201701885Y-75531835D01*
X201724106Y-75554055D01*
X201758516Y-75588463D01*
X201762594Y-75592961D01*
X201822749Y-75666254D01*
X201825611Y-75670026D01*
X201871204Y-75735134D01*
X201875099Y-75741474D01*
X201920721Y-75826816D01*
X201922234Y-75829841D01*
X201953021Y-75895855D01*
X201959298Y-75912258D01*
X201988242Y-76007649D01*
X201997469Y-76042077D01*
X202005532Y-76072162D01*
X202009161Y-76092098D01*
X202022181Y-76224189D01*
X202025390Y-76260830D01*
X202025627Y-76266242D01*
X202025627Y-76313462D01*
X202025876Y-76315727D01*
X202083874Y-88317056D01*
X202083576Y-88323441D01*
X202080377Y-88355897D01*
X202067919Y-88466540D01*
X202063358Y-88488664D01*
X202046933Y-88542807D01*
X202019362Y-88621585D01*
X202011678Y-88639083D01*
X201982798Y-88693106D01*
X201980616Y-88696865D01*
X201936978Y-88766309D01*
X201932404Y-88772661D01*
X201889518Y-88824916D01*
X201885430Y-88829427D01*
X201828199Y-88886657D01*
X201823691Y-88890741D01*
X201807249Y-88904234D01*
X201771444Y-88933618D01*
X201765092Y-88938192D01*
X201695636Y-88981833D01*
X201691877Y-88984015D01*
X201637853Y-89012892D01*
X201620354Y-89020575D01*
X201541591Y-89048136D01*
X201487414Y-89064571D01*
X201465303Y-89069131D01*
X201356176Y-89081429D01*
X201321963Y-89084800D01*
X201315539Y-89085098D01*
X193734695Y-89043336D01*
X193733706Y-89043039D01*
X193595698Y-89043023D01*
X193595693Y-89043024D01*
X193423289Y-89073405D01*
X193423284Y-89073406D01*
X193258762Y-89133274D01*
X193258754Y-89133278D01*
X193107142Y-89220804D01*
X193107138Y-89220806D01*
X192973025Y-89333339D01*
X192860493Y-89467457D01*
X192772966Y-89619080D01*
X192713102Y-89783600D01*
X192682721Y-89956021D01*
X192682731Y-90022888D01*
X192682734Y-90043554D01*
X192682734Y-90044054D01*
X192675397Y-106697498D01*
X192671947Y-114526643D01*
X192671711Y-114532024D01*
X192667785Y-114576876D01*
X192655659Y-114700541D01*
X192652025Y-114720537D01*
X192633293Y-114790437D01*
X192606035Y-114880280D01*
X192599755Y-114896689D01*
X192567312Y-114966254D01*
X192565800Y-114969278D01*
X192522118Y-115050994D01*
X192518222Y-115057335D01*
X192470736Y-115125146D01*
X192467874Y-115128918D01*
X192409999Y-115199432D01*
X192405910Y-115203943D01*
X192347071Y-115262775D01*
X192342561Y-115266863D01*
X192272037Y-115324735D01*
X192268265Y-115327597D01*
X192200460Y-115375070D01*
X192194118Y-115378966D01*
X192112387Y-115422645D01*
X192109363Y-115424157D01*
X192039802Y-115456590D01*
X192023392Y-115462868D01*
X191933562Y-115490114D01*
X191863575Y-115508861D01*
X191843639Y-115512487D01*
X191726539Y-115524016D01*
X191674039Y-115528606D01*
X191668660Y-115528842D01*
X119560834Y-115556308D01*
X119555266Y-115556060D01*
X119514734Y-115552422D01*
X119390725Y-115539858D01*
X119370313Y-115536043D01*
X119307618Y-115518784D01*
X119215546Y-115490079D01*
X119198768Y-115483475D01*
X119144929Y-115457617D01*
X119134966Y-115452832D01*
X119131882Y-115451243D01*
X119049657Y-115405923D01*
X119043209Y-115401833D01*
X119033596Y-115394870D01*
X118980490Y-115356403D01*
X118976709Y-115353432D01*
X118937226Y-115319820D01*
X118906624Y-115293768D01*
X118902077Y-115289484D01*
X118848074Y-115233209D01*
X118843985Y-115228494D01*
X118824771Y-115203943D01*
X118787275Y-115156030D01*
X118784432Y-115152090D01*
X118741630Y-115087562D01*
X118737818Y-115080967D01*
X118695901Y-114996898D01*
X118694474Y-114993822D01*
X118666469Y-114928776D01*
X118660566Y-114911753D01*
X118635671Y-114818547D01*
X118628894Y-114789266D01*
X118621020Y-114755246D01*
X118618049Y-114734680D01*
X118610428Y-114606756D01*
X118608655Y-114570084D01*
X118608634Y-114564645D01*
X118609812Y-114535193D01*
X118608307Y-114518286D01*
X118575927Y-107963001D01*
X175339500Y-107963001D01*
X175339501Y-107963018D01*
X175350000Y-108065796D01*
X175350001Y-108065799D01*
X175395894Y-108204294D01*
X175405186Y-108232334D01*
X175497288Y-108381656D01*
X175621344Y-108505712D01*
X175770666Y-108597814D01*
X175937203Y-108652999D01*
X176039991Y-108663500D01*
X177340008Y-108663499D01*
X177442797Y-108652999D01*
X177609334Y-108597814D01*
X177758656Y-108505712D01*
X177882712Y-108381656D01*
X177974814Y-108232334D01*
X177974814Y-108232331D01*
X177978178Y-108226879D01*
X178030126Y-108180154D01*
X178099088Y-108168931D01*
X178163170Y-108196774D01*
X178171398Y-108204294D01*
X178318599Y-108351495D01*
X178361675Y-108381657D01*
X178512165Y-108487032D01*
X178512167Y-108487033D01*
X178512170Y-108487035D01*
X178726337Y-108586903D01*
X178954592Y-108648063D01*
X179131034Y-108663500D01*
X179189999Y-108668659D01*
X179190000Y-108668659D01*
X179190001Y-108668659D01*
X179248966Y-108663500D01*
X179425408Y-108648063D01*
X179653663Y-108586903D01*
X179867829Y-108487035D01*
X180061401Y-108351495D01*
X180228495Y-108184401D01*
X180338426Y-108027401D01*
X180393001Y-107983778D01*
X180462500Y-107976584D01*
X180524855Y-108008106D01*
X180541571Y-108027398D01*
X180612144Y-108128187D01*
X180651506Y-108184403D01*
X180818209Y-108351105D01*
X180818599Y-108351495D01*
X180861675Y-108381657D01*
X181012165Y-108487032D01*
X181012167Y-108487033D01*
X181012170Y-108487035D01*
X181226337Y-108586903D01*
X181454592Y-108648063D01*
X181631034Y-108663500D01*
X181689999Y-108668659D01*
X181690000Y-108668659D01*
X181690001Y-108668659D01*
X181748966Y-108663500D01*
X181925408Y-108648063D01*
X182153663Y-108586903D01*
X182367829Y-108487035D01*
X182561401Y-108351495D01*
X182728495Y-108184401D01*
X182838426Y-108027401D01*
X182893001Y-107983778D01*
X182962500Y-107976584D01*
X183024855Y-108008106D01*
X183041571Y-108027398D01*
X183112144Y-108128187D01*
X183151506Y-108184403D01*
X183318209Y-108351105D01*
X183318599Y-108351495D01*
X183361675Y-108381657D01*
X183512165Y-108487032D01*
X183512167Y-108487033D01*
X183512170Y-108487035D01*
X183726337Y-108586903D01*
X183954592Y-108648063D01*
X184131034Y-108663500D01*
X184189999Y-108668659D01*
X184190000Y-108668659D01*
X184190001Y-108668659D01*
X184248966Y-108663500D01*
X184425408Y-108648063D01*
X184653663Y-108586903D01*
X184867829Y-108487035D01*
X185061401Y-108351495D01*
X185228495Y-108184401D01*
X185338426Y-108027401D01*
X185393001Y-107983778D01*
X185462500Y-107976584D01*
X185524855Y-108008106D01*
X185541571Y-108027398D01*
X185612144Y-108128187D01*
X185651506Y-108184403D01*
X185818209Y-108351105D01*
X185818599Y-108351495D01*
X185861675Y-108381657D01*
X186012165Y-108487032D01*
X186012167Y-108487033D01*
X186012170Y-108487035D01*
X186226337Y-108586903D01*
X186454592Y-108648063D01*
X186631034Y-108663500D01*
X186689999Y-108668659D01*
X186690000Y-108668659D01*
X186690001Y-108668659D01*
X186748966Y-108663500D01*
X186925408Y-108648063D01*
X187153663Y-108586903D01*
X187367829Y-108487035D01*
X187561401Y-108351495D01*
X187728495Y-108184401D01*
X187838732Y-108026965D01*
X187893306Y-107983342D01*
X187962805Y-107976148D01*
X188025159Y-108007670D01*
X188041880Y-108026967D01*
X188151886Y-108184073D01*
X188151891Y-108184079D01*
X188318917Y-108351105D01*
X188512421Y-108486600D01*
X188726507Y-108586429D01*
X188726516Y-108586433D01*
X188940000Y-108643634D01*
X188940000Y-107596018D01*
X189054801Y-107648446D01*
X189156025Y-107663000D01*
X189223975Y-107663000D01*
X189325199Y-107648446D01*
X189440000Y-107596018D01*
X189440000Y-108643633D01*
X189653483Y-108586433D01*
X189653492Y-108586429D01*
X189867577Y-108486600D01*
X189867579Y-108486599D01*
X190061073Y-108351113D01*
X190061079Y-108351108D01*
X190228108Y-108184079D01*
X190228113Y-108184073D01*
X190363599Y-107990579D01*
X190363600Y-107990577D01*
X190463429Y-107776492D01*
X190463433Y-107776483D01*
X190524567Y-107548326D01*
X190524569Y-107548316D01*
X190534221Y-107438000D01*
X189593969Y-107438000D01*
X189626519Y-107387351D01*
X189665000Y-107256295D01*
X189665000Y-107119705D01*
X189626519Y-106988649D01*
X189593969Y-106938000D01*
X190534221Y-106938000D01*
X190524569Y-106827683D01*
X190524567Y-106827673D01*
X190463433Y-106599516D01*
X190463429Y-106599507D01*
X190363600Y-106385422D01*
X190363599Y-106385420D01*
X190228113Y-106191926D01*
X190228108Y-106191920D01*
X190061082Y-106024894D01*
X189867578Y-105889399D01*
X189653492Y-105789570D01*
X189653486Y-105789567D01*
X189440000Y-105732364D01*
X189440000Y-106779981D01*
X189325199Y-106727554D01*
X189223975Y-106713000D01*
X189156025Y-106713000D01*
X189054801Y-106727554D01*
X188940000Y-106779981D01*
X188940000Y-105732364D01*
X188939999Y-105732364D01*
X188726513Y-105789567D01*
X188726507Y-105789570D01*
X188512422Y-105889399D01*
X188512420Y-105889400D01*
X188318926Y-106024886D01*
X188318920Y-106024891D01*
X188151891Y-106191920D01*
X188151890Y-106191922D01*
X188041880Y-106349032D01*
X187987303Y-106392657D01*
X187917804Y-106399849D01*
X187855450Y-106368327D01*
X187838730Y-106349031D01*
X187728494Y-106191597D01*
X187561402Y-106024506D01*
X187561395Y-106024501D01*
X187539257Y-106009000D01*
X187426900Y-105930326D01*
X187367834Y-105888967D01*
X187367830Y-105888965D01*
X187357736Y-105884258D01*
X187153663Y-105789097D01*
X187153659Y-105789096D01*
X187153655Y-105789094D01*
X186925413Y-105727938D01*
X186925403Y-105727936D01*
X186690001Y-105707341D01*
X186689999Y-105707341D01*
X186454596Y-105727936D01*
X186454586Y-105727938D01*
X186226344Y-105789094D01*
X186226335Y-105789098D01*
X186012171Y-105888964D01*
X186012169Y-105888965D01*
X185818597Y-106024505D01*
X185651505Y-106191597D01*
X185541575Y-106348595D01*
X185486998Y-106392220D01*
X185417500Y-106399414D01*
X185355145Y-106367891D01*
X185338425Y-106348595D01*
X185228494Y-106191597D01*
X185061402Y-106024506D01*
X185061395Y-106024501D01*
X185039257Y-106009000D01*
X184926900Y-105930326D01*
X184867834Y-105888967D01*
X184867830Y-105888965D01*
X184857736Y-105884258D01*
X184653663Y-105789097D01*
X184653659Y-105789096D01*
X184653655Y-105789094D01*
X184425413Y-105727938D01*
X184425403Y-105727936D01*
X184190001Y-105707341D01*
X184189999Y-105707341D01*
X183954596Y-105727936D01*
X183954586Y-105727938D01*
X183726344Y-105789094D01*
X183726335Y-105789098D01*
X183512171Y-105888964D01*
X183512169Y-105888965D01*
X183318597Y-106024505D01*
X183151505Y-106191597D01*
X183041575Y-106348595D01*
X182986998Y-106392220D01*
X182917500Y-106399414D01*
X182855145Y-106367891D01*
X182838425Y-106348595D01*
X182728494Y-106191597D01*
X182561402Y-106024506D01*
X182561395Y-106024501D01*
X182539257Y-106009000D01*
X182426900Y-105930326D01*
X182367834Y-105888967D01*
X182367830Y-105888965D01*
X182357736Y-105884258D01*
X182153663Y-105789097D01*
X182153659Y-105789096D01*
X182153655Y-105789094D01*
X181925413Y-105727938D01*
X181925403Y-105727936D01*
X181690001Y-105707341D01*
X181689999Y-105707341D01*
X181454596Y-105727936D01*
X181454586Y-105727938D01*
X181226344Y-105789094D01*
X181226335Y-105789098D01*
X181012171Y-105888964D01*
X181012169Y-105888965D01*
X180818597Y-106024505D01*
X180651505Y-106191597D01*
X180541575Y-106348595D01*
X180486998Y-106392220D01*
X180417500Y-106399414D01*
X180355145Y-106367891D01*
X180338425Y-106348595D01*
X180228494Y-106191597D01*
X180061402Y-106024506D01*
X180061395Y-106024501D01*
X180039257Y-106009000D01*
X179926900Y-105930326D01*
X179867834Y-105888967D01*
X179867830Y-105888965D01*
X179857736Y-105884258D01*
X179653663Y-105789097D01*
X179653659Y-105789096D01*
X179653655Y-105789094D01*
X179425413Y-105727938D01*
X179425403Y-105727936D01*
X179190001Y-105707341D01*
X179189999Y-105707341D01*
X178954596Y-105727936D01*
X178954586Y-105727938D01*
X178726344Y-105789094D01*
X178726335Y-105789098D01*
X178512171Y-105888964D01*
X178512169Y-105888965D01*
X178318597Y-106024505D01*
X178171398Y-106171705D01*
X178110075Y-106205190D01*
X178040383Y-106200206D01*
X177984450Y-106158334D01*
X177978178Y-106149120D01*
X177882712Y-105994344D01*
X177758657Y-105870289D01*
X177758656Y-105870288D01*
X177627786Y-105789567D01*
X177609336Y-105778187D01*
X177609331Y-105778185D01*
X177607862Y-105777698D01*
X177442797Y-105723001D01*
X177442795Y-105723000D01*
X177340010Y-105712500D01*
X176039998Y-105712500D01*
X176039981Y-105712501D01*
X175937203Y-105723000D01*
X175937200Y-105723001D01*
X175770668Y-105778185D01*
X175770663Y-105778187D01*
X175621342Y-105870289D01*
X175497289Y-105994342D01*
X175405187Y-106143663D01*
X175405185Y-106143668D01*
X175389194Y-106191926D01*
X175350001Y-106310203D01*
X175350001Y-106310204D01*
X175350000Y-106310204D01*
X175339500Y-106412983D01*
X175339500Y-107963001D01*
X118575927Y-107963001D01*
X118567846Y-106327001D01*
X120629500Y-106327001D01*
X120629501Y-106327018D01*
X120640000Y-106429796D01*
X120640001Y-106429799D01*
X120695185Y-106596331D01*
X120695187Y-106596336D01*
X120730069Y-106652888D01*
X120787288Y-106745656D01*
X120911344Y-106869712D01*
X121060666Y-106961814D01*
X121227203Y-107016999D01*
X121329991Y-107027500D01*
X122630008Y-107027499D01*
X122732797Y-107016999D01*
X122899334Y-106961814D01*
X123048656Y-106869712D01*
X123172712Y-106745656D01*
X123264814Y-106596334D01*
X123264814Y-106596331D01*
X123268178Y-106590879D01*
X123320126Y-106544154D01*
X123389088Y-106532931D01*
X123453170Y-106560774D01*
X123461398Y-106568294D01*
X123608599Y-106715495D01*
X123705384Y-106783265D01*
X123802165Y-106851032D01*
X123802167Y-106851033D01*
X123802170Y-106851035D01*
X124016337Y-106950903D01*
X124244592Y-107012063D01*
X124421034Y-107027500D01*
X124479999Y-107032659D01*
X124480000Y-107032659D01*
X124480001Y-107032659D01*
X124538966Y-107027500D01*
X124715408Y-107012063D01*
X124943663Y-106950903D01*
X125157829Y-106851035D01*
X125351401Y-106715495D01*
X125518495Y-106548401D01*
X125628426Y-106391401D01*
X125683001Y-106347778D01*
X125752500Y-106340584D01*
X125814855Y-106372106D01*
X125831571Y-106391398D01*
X125871061Y-106447796D01*
X125941506Y-106548403D01*
X126072209Y-106679105D01*
X126108599Y-106715495D01*
X126205384Y-106783265D01*
X126302165Y-106851032D01*
X126302167Y-106851033D01*
X126302170Y-106851035D01*
X126516337Y-106950903D01*
X126744592Y-107012063D01*
X126921034Y-107027500D01*
X126979999Y-107032659D01*
X126980000Y-107032659D01*
X126980001Y-107032659D01*
X127038966Y-107027500D01*
X127215408Y-107012063D01*
X127443663Y-106950903D01*
X127657829Y-106851035D01*
X127851401Y-106715495D01*
X128018495Y-106548401D01*
X128128732Y-106390965D01*
X128183306Y-106347342D01*
X128252805Y-106340148D01*
X128315159Y-106371670D01*
X128331880Y-106390967D01*
X128441886Y-106548073D01*
X128441891Y-106548079D01*
X128608917Y-106715105D01*
X128802421Y-106850600D01*
X129016507Y-106950429D01*
X129016516Y-106950433D01*
X129230000Y-107007634D01*
X129230000Y-105960018D01*
X129344801Y-106012446D01*
X129446025Y-106027000D01*
X129513975Y-106027000D01*
X129615199Y-106012446D01*
X129730000Y-105960018D01*
X129730000Y-107007633D01*
X129943483Y-106950433D01*
X129943492Y-106950429D01*
X130157577Y-106850600D01*
X130157579Y-106850599D01*
X130351073Y-106715113D01*
X130351079Y-106715108D01*
X130518108Y-106548079D01*
X130518113Y-106548073D01*
X130653599Y-106354579D01*
X130653600Y-106354577D01*
X130674852Y-106309001D01*
X134307000Y-106309001D01*
X134307001Y-106309018D01*
X134317500Y-106411796D01*
X134317501Y-106411799D01*
X134372685Y-106578331D01*
X134372687Y-106578336D01*
X134385751Y-106599516D01*
X134464788Y-106727656D01*
X134588844Y-106851712D01*
X134738166Y-106943814D01*
X134904703Y-106998999D01*
X135007491Y-107009500D01*
X136307508Y-107009499D01*
X136410297Y-106998999D01*
X136576834Y-106943814D01*
X136726156Y-106851712D01*
X136850212Y-106727656D01*
X136942314Y-106578334D01*
X136942314Y-106578331D01*
X136945678Y-106572879D01*
X136997626Y-106526154D01*
X137066588Y-106514931D01*
X137130670Y-106542774D01*
X137138898Y-106550294D01*
X137286099Y-106697495D01*
X137380585Y-106763655D01*
X137479665Y-106833032D01*
X137479667Y-106833033D01*
X137479670Y-106833035D01*
X137693837Y-106932903D01*
X137922092Y-106994063D01*
X138098534Y-107009500D01*
X138157499Y-107014659D01*
X138157500Y-107014659D01*
X138157501Y-107014659D01*
X138216466Y-107009500D01*
X138392908Y-106994063D01*
X138621163Y-106932903D01*
X138835329Y-106833035D01*
X139028901Y-106697495D01*
X139195995Y-106530401D01*
X139305926Y-106373401D01*
X139360501Y-106329778D01*
X139430000Y-106322584D01*
X139492355Y-106354106D01*
X139509071Y-106373398D01*
X139536794Y-106412991D01*
X139619006Y-106530403D01*
X139702935Y-106614331D01*
X139786099Y-106697495D01*
X139880585Y-106763655D01*
X139979665Y-106833032D01*
X139979667Y-106833033D01*
X139979670Y-106833035D01*
X140193837Y-106932903D01*
X140422092Y-106994063D01*
X140598534Y-107009500D01*
X140657499Y-107014659D01*
X140657500Y-107014659D01*
X140657501Y-107014659D01*
X140716466Y-107009500D01*
X140892908Y-106994063D01*
X141121163Y-106932903D01*
X141335329Y-106833035D01*
X141528901Y-106697495D01*
X141695995Y-106530401D01*
X141806232Y-106372965D01*
X141860806Y-106329342D01*
X141930305Y-106322148D01*
X141992659Y-106353670D01*
X142009380Y-106372967D01*
X142119386Y-106530073D01*
X142119391Y-106530079D01*
X142286417Y-106697105D01*
X142479921Y-106832600D01*
X142694007Y-106932429D01*
X142694016Y-106932433D01*
X142907500Y-106989634D01*
X142907500Y-105942018D01*
X143022301Y-105994446D01*
X143123525Y-106009000D01*
X143191475Y-106009000D01*
X143292699Y-105994446D01*
X143407500Y-105942018D01*
X143407500Y-106989633D01*
X143620983Y-106932433D01*
X143620992Y-106932429D01*
X143835077Y-106832600D01*
X143835079Y-106832599D01*
X144028573Y-106697113D01*
X144028579Y-106697108D01*
X144195608Y-106530079D01*
X144195613Y-106530073D01*
X144331099Y-106336579D01*
X144331100Y-106336577D01*
X144352352Y-106291001D01*
X147984500Y-106291001D01*
X147984501Y-106291018D01*
X147995000Y-106393796D01*
X147995001Y-106393799D01*
X148050185Y-106560331D01*
X148050187Y-106560336D01*
X148085069Y-106616888D01*
X148142288Y-106709656D01*
X148266344Y-106833712D01*
X148415666Y-106925814D01*
X148582203Y-106980999D01*
X148684991Y-106991500D01*
X149985008Y-106991499D01*
X150087797Y-106980999D01*
X150254334Y-106925814D01*
X150403656Y-106833712D01*
X150527712Y-106709656D01*
X150619814Y-106560334D01*
X150619814Y-106560331D01*
X150623178Y-106554879D01*
X150675126Y-106508154D01*
X150744088Y-106496931D01*
X150808170Y-106524774D01*
X150816398Y-106532294D01*
X150963599Y-106679495D01*
X151040719Y-106733495D01*
X151157165Y-106815032D01*
X151157167Y-106815033D01*
X151157170Y-106815035D01*
X151371337Y-106914903D01*
X151599592Y-106976063D01*
X151776034Y-106991500D01*
X151834999Y-106996659D01*
X151835000Y-106996659D01*
X151835001Y-106996659D01*
X151893966Y-106991500D01*
X152070408Y-106976063D01*
X152298663Y-106914903D01*
X152512829Y-106815035D01*
X152706401Y-106679495D01*
X152873495Y-106512401D01*
X152983426Y-106355401D01*
X153038001Y-106311778D01*
X153107500Y-106304584D01*
X153169855Y-106336106D01*
X153186571Y-106355398D01*
X153226061Y-106411796D01*
X153296506Y-106512403D01*
X153380435Y-106596331D01*
X153463599Y-106679495D01*
X153540719Y-106733495D01*
X153657165Y-106815032D01*
X153657167Y-106815033D01*
X153657170Y-106815035D01*
X153871337Y-106914903D01*
X154099592Y-106976063D01*
X154276034Y-106991500D01*
X154334999Y-106996659D01*
X154335000Y-106996659D01*
X154335001Y-106996659D01*
X154393966Y-106991500D01*
X154570408Y-106976063D01*
X154798663Y-106914903D01*
X155012829Y-106815035D01*
X155206401Y-106679495D01*
X155373495Y-106512401D01*
X155483732Y-106354965D01*
X155538306Y-106311342D01*
X155607805Y-106304148D01*
X155670159Y-106335670D01*
X155686880Y-106354967D01*
X155796886Y-106512073D01*
X155796891Y-106512079D01*
X155963917Y-106679105D01*
X156157421Y-106814600D01*
X156371507Y-106914429D01*
X156371516Y-106914433D01*
X156585000Y-106971634D01*
X156585000Y-105924018D01*
X156699801Y-105976446D01*
X156801025Y-105991000D01*
X156868975Y-105991000D01*
X156970199Y-105976446D01*
X157085000Y-105924018D01*
X157085000Y-106971633D01*
X157298483Y-106914433D01*
X157298492Y-106914429D01*
X157512577Y-106814600D01*
X157512579Y-106814599D01*
X157706073Y-106679113D01*
X157706079Y-106679108D01*
X157873108Y-106512079D01*
X157873113Y-106512073D01*
X157990098Y-106345001D01*
X161662000Y-106345001D01*
X161662001Y-106345018D01*
X161672500Y-106447796D01*
X161672501Y-106447799D01*
X161718394Y-106586294D01*
X161727686Y-106614334D01*
X161819788Y-106763656D01*
X161943844Y-106887712D01*
X162093166Y-106979814D01*
X162259703Y-107034999D01*
X162362491Y-107045500D01*
X163662508Y-107045499D01*
X163765297Y-107034999D01*
X163931834Y-106979814D01*
X164081156Y-106887712D01*
X164205212Y-106763656D01*
X164297314Y-106614334D01*
X164297314Y-106614331D01*
X164300678Y-106608879D01*
X164352626Y-106562154D01*
X164421588Y-106550931D01*
X164485670Y-106578774D01*
X164493898Y-106586294D01*
X164641099Y-106733495D01*
X164684175Y-106763657D01*
X164834665Y-106869032D01*
X164834667Y-106869033D01*
X164834670Y-106869035D01*
X165048837Y-106968903D01*
X165048843Y-106968904D01*
X165048844Y-106968905D01*
X165059029Y-106971634D01*
X165277092Y-107030063D01*
X165453534Y-107045500D01*
X165512499Y-107050659D01*
X165512500Y-107050659D01*
X165512501Y-107050659D01*
X165571466Y-107045500D01*
X165747908Y-107030063D01*
X165976163Y-106968903D01*
X166190329Y-106869035D01*
X166383901Y-106733495D01*
X166550995Y-106566401D01*
X166660926Y-106409401D01*
X166715501Y-106365778D01*
X166785000Y-106358584D01*
X166847355Y-106390106D01*
X166864071Y-106409398D01*
X166925362Y-106496931D01*
X166974006Y-106566403D01*
X167086709Y-106679105D01*
X167141099Y-106733495D01*
X167184175Y-106763657D01*
X167334665Y-106869032D01*
X167334667Y-106869033D01*
X167334670Y-106869035D01*
X167548837Y-106968903D01*
X167548843Y-106968904D01*
X167548844Y-106968905D01*
X167559029Y-106971634D01*
X167777092Y-107030063D01*
X167953534Y-107045500D01*
X168012499Y-107050659D01*
X168012500Y-107050659D01*
X168012501Y-107050659D01*
X168071466Y-107045500D01*
X168247908Y-107030063D01*
X168476163Y-106968903D01*
X168690329Y-106869035D01*
X168883901Y-106733495D01*
X169050995Y-106566401D01*
X169161232Y-106408965D01*
X169215806Y-106365342D01*
X169285305Y-106358148D01*
X169347659Y-106389670D01*
X169364380Y-106408967D01*
X169474386Y-106566073D01*
X169474391Y-106566079D01*
X169641417Y-106733105D01*
X169834921Y-106868600D01*
X170049007Y-106968429D01*
X170049016Y-106968433D01*
X170262500Y-107025634D01*
X170262500Y-105978018D01*
X170377301Y-106030446D01*
X170478525Y-106045000D01*
X170546475Y-106045000D01*
X170647699Y-106030446D01*
X170762500Y-105978018D01*
X170762500Y-107025633D01*
X170975983Y-106968433D01*
X170975992Y-106968429D01*
X171190077Y-106868600D01*
X171190079Y-106868599D01*
X171383573Y-106733113D01*
X171383579Y-106733108D01*
X171550608Y-106566079D01*
X171550613Y-106566073D01*
X171686099Y-106372579D01*
X171686100Y-106372577D01*
X171785929Y-106158492D01*
X171785933Y-106158483D01*
X171847067Y-105930326D01*
X171847069Y-105930316D01*
X171856721Y-105820000D01*
X170916469Y-105820000D01*
X170949019Y-105769351D01*
X170987500Y-105638295D01*
X170987500Y-105501705D01*
X170949019Y-105370649D01*
X170916469Y-105320000D01*
X171856721Y-105320000D01*
X171847069Y-105209683D01*
X171847067Y-105209673D01*
X171785933Y-104981516D01*
X171785929Y-104981507D01*
X171686100Y-104767422D01*
X171686099Y-104767420D01*
X171550613Y-104573926D01*
X171550608Y-104573920D01*
X171383582Y-104406894D01*
X171190078Y-104271399D01*
X170975992Y-104171570D01*
X170975986Y-104171567D01*
X170762500Y-104114364D01*
X170762500Y-105161981D01*
X170647699Y-105109554D01*
X170546475Y-105095000D01*
X170478525Y-105095000D01*
X170377301Y-105109554D01*
X170262500Y-105161981D01*
X170262500Y-104114364D01*
X170262499Y-104114364D01*
X170049013Y-104171567D01*
X170049007Y-104171570D01*
X169834922Y-104271399D01*
X169834920Y-104271400D01*
X169641426Y-104406886D01*
X169641420Y-104406891D01*
X169474391Y-104573920D01*
X169474390Y-104573922D01*
X169364380Y-104731032D01*
X169309803Y-104774657D01*
X169240304Y-104781849D01*
X169177950Y-104750327D01*
X169161230Y-104731031D01*
X169050994Y-104573597D01*
X168883902Y-104406506D01*
X168883895Y-104406501D01*
X168690334Y-104270967D01*
X168690330Y-104270965D01*
X168652662Y-104253400D01*
X168476163Y-104171097D01*
X168476159Y-104171096D01*
X168476155Y-104171094D01*
X168247913Y-104109938D01*
X168247903Y-104109936D01*
X168012501Y-104089341D01*
X168012499Y-104089341D01*
X167777096Y-104109936D01*
X167777086Y-104109938D01*
X167548844Y-104171094D01*
X167548835Y-104171098D01*
X167334671Y-104270964D01*
X167334669Y-104270965D01*
X167141097Y-104406505D01*
X166974005Y-104573597D01*
X166864075Y-104730595D01*
X166809498Y-104774220D01*
X166740000Y-104781414D01*
X166677645Y-104749891D01*
X166660925Y-104730595D01*
X166550994Y-104573597D01*
X166383902Y-104406506D01*
X166383895Y-104406501D01*
X166190334Y-104270967D01*
X166190330Y-104270965D01*
X166152662Y-104253400D01*
X165976163Y-104171097D01*
X165976159Y-104171096D01*
X165976155Y-104171094D01*
X165747913Y-104109938D01*
X165747903Y-104109936D01*
X165512501Y-104089341D01*
X165512499Y-104089341D01*
X165277096Y-104109936D01*
X165277086Y-104109938D01*
X165048844Y-104171094D01*
X165048835Y-104171098D01*
X164834671Y-104270964D01*
X164834669Y-104270965D01*
X164641097Y-104406505D01*
X164493898Y-104553705D01*
X164432575Y-104587190D01*
X164362883Y-104582206D01*
X164306950Y-104540334D01*
X164300678Y-104531120D01*
X164205212Y-104376344D01*
X164081157Y-104252289D01*
X164081156Y-104252288D01*
X163950286Y-104171567D01*
X163931836Y-104160187D01*
X163931831Y-104160185D01*
X163910432Y-104153094D01*
X163765297Y-104105001D01*
X163765295Y-104105000D01*
X163662510Y-104094500D01*
X162362498Y-104094500D01*
X162362481Y-104094501D01*
X162259703Y-104105000D01*
X162259700Y-104105001D01*
X162093168Y-104160185D01*
X162093163Y-104160187D01*
X161943842Y-104252289D01*
X161819789Y-104376342D01*
X161727687Y-104525663D01*
X161727685Y-104525668D01*
X161711694Y-104573926D01*
X161672501Y-104692203D01*
X161672501Y-104692204D01*
X161672500Y-104692204D01*
X161662000Y-104794983D01*
X161662000Y-106345001D01*
X157990098Y-106345001D01*
X158008599Y-106318579D01*
X158008600Y-106318577D01*
X158108429Y-106104492D01*
X158108433Y-106104483D01*
X158169567Y-105876326D01*
X158169569Y-105876316D01*
X158179221Y-105766000D01*
X157238969Y-105766000D01*
X157271519Y-105715351D01*
X157310000Y-105584295D01*
X157310000Y-105447705D01*
X157271519Y-105316649D01*
X157238969Y-105266000D01*
X158179221Y-105266000D01*
X158169569Y-105155683D01*
X158169567Y-105155673D01*
X158108433Y-104927516D01*
X158108429Y-104927507D01*
X158008600Y-104713422D01*
X158008599Y-104713420D01*
X157873113Y-104519926D01*
X157873108Y-104519920D01*
X157706082Y-104352894D01*
X157512578Y-104217399D01*
X157298492Y-104117570D01*
X157298486Y-104117567D01*
X157085000Y-104060364D01*
X157085000Y-105107981D01*
X156970199Y-105055554D01*
X156868975Y-105041000D01*
X156801025Y-105041000D01*
X156699801Y-105055554D01*
X156585000Y-105107981D01*
X156585000Y-104060364D01*
X156584999Y-104060364D01*
X156371513Y-104117567D01*
X156371507Y-104117570D01*
X156157422Y-104217399D01*
X156157420Y-104217400D01*
X155963926Y-104352886D01*
X155963920Y-104352891D01*
X155796891Y-104519920D01*
X155796890Y-104519922D01*
X155686880Y-104677032D01*
X155632303Y-104720657D01*
X155562804Y-104727849D01*
X155500450Y-104696327D01*
X155483730Y-104677031D01*
X155373494Y-104519597D01*
X155206402Y-104352506D01*
X155206395Y-104352501D01*
X155012834Y-104216967D01*
X155012830Y-104216965D01*
X154915480Y-104171570D01*
X154798663Y-104117097D01*
X154798659Y-104117096D01*
X154798655Y-104117094D01*
X154570413Y-104055938D01*
X154570403Y-104055936D01*
X154335001Y-104035341D01*
X154334999Y-104035341D01*
X154099596Y-104055936D01*
X154099586Y-104055938D01*
X153871344Y-104117094D01*
X153871335Y-104117098D01*
X153657171Y-104216964D01*
X153657169Y-104216965D01*
X153463597Y-104352505D01*
X153296505Y-104519597D01*
X153186575Y-104676595D01*
X153131998Y-104720220D01*
X153062500Y-104727414D01*
X153000145Y-104695891D01*
X152983425Y-104676595D01*
X152873494Y-104519597D01*
X152706402Y-104352506D01*
X152706395Y-104352501D01*
X152512834Y-104216967D01*
X152512830Y-104216965D01*
X152415480Y-104171570D01*
X152298663Y-104117097D01*
X152298659Y-104117096D01*
X152298655Y-104117094D01*
X152070413Y-104055938D01*
X152070403Y-104055936D01*
X151835001Y-104035341D01*
X151834999Y-104035341D01*
X151599596Y-104055936D01*
X151599586Y-104055938D01*
X151371344Y-104117094D01*
X151371335Y-104117098D01*
X151157171Y-104216964D01*
X151157169Y-104216965D01*
X150963597Y-104352505D01*
X150816398Y-104499705D01*
X150755075Y-104533190D01*
X150685383Y-104528206D01*
X150629450Y-104486334D01*
X150623178Y-104477120D01*
X150527712Y-104322344D01*
X150403657Y-104198289D01*
X150403656Y-104198288D01*
X150301973Y-104135570D01*
X150254336Y-104106187D01*
X150254331Y-104106185D01*
X150203499Y-104089341D01*
X150087797Y-104051001D01*
X150087795Y-104051000D01*
X149985010Y-104040500D01*
X148684998Y-104040500D01*
X148684981Y-104040501D01*
X148582203Y-104051000D01*
X148582200Y-104051001D01*
X148415668Y-104106185D01*
X148415663Y-104106187D01*
X148266342Y-104198289D01*
X148142289Y-104322342D01*
X148050187Y-104471663D01*
X148050185Y-104471668D01*
X148027432Y-104540334D01*
X147995001Y-104638203D01*
X147995001Y-104638204D01*
X147995000Y-104638204D01*
X147984500Y-104740983D01*
X147984500Y-106291001D01*
X144352352Y-106291001D01*
X144430929Y-106122492D01*
X144430933Y-106122483D01*
X144492067Y-105894326D01*
X144492069Y-105894316D01*
X144501721Y-105784000D01*
X143561469Y-105784000D01*
X143594019Y-105733351D01*
X143632500Y-105602295D01*
X143632500Y-105465705D01*
X143594019Y-105334649D01*
X143561469Y-105284000D01*
X144501721Y-105284000D01*
X144492069Y-105173683D01*
X144492067Y-105173673D01*
X144430933Y-104945516D01*
X144430929Y-104945507D01*
X144331100Y-104731422D01*
X144331099Y-104731420D01*
X144195613Y-104537926D01*
X144195608Y-104537920D01*
X144028582Y-104370894D01*
X143835078Y-104235399D01*
X143620992Y-104135570D01*
X143620986Y-104135567D01*
X143407500Y-104078364D01*
X143407500Y-105125981D01*
X143292699Y-105073554D01*
X143191475Y-105059000D01*
X143123525Y-105059000D01*
X143022301Y-105073554D01*
X142907500Y-105125981D01*
X142907500Y-104078364D01*
X142907499Y-104078364D01*
X142694013Y-104135567D01*
X142694007Y-104135570D01*
X142479922Y-104235399D01*
X142479920Y-104235400D01*
X142286426Y-104370886D01*
X142286420Y-104370891D01*
X142119391Y-104537920D01*
X142119390Y-104537922D01*
X142009380Y-104695032D01*
X141954803Y-104738657D01*
X141885304Y-104745849D01*
X141822950Y-104714327D01*
X141806230Y-104695031D01*
X141695994Y-104537597D01*
X141528902Y-104370506D01*
X141528895Y-104370501D01*
X141335334Y-104234967D01*
X141335330Y-104234965D01*
X141297662Y-104217400D01*
X141121163Y-104135097D01*
X141121159Y-104135096D01*
X141121155Y-104135094D01*
X140892913Y-104073938D01*
X140892903Y-104073936D01*
X140657501Y-104053341D01*
X140657499Y-104053341D01*
X140422096Y-104073936D01*
X140422086Y-104073938D01*
X140193844Y-104135094D01*
X140193835Y-104135098D01*
X139979671Y-104234964D01*
X139979669Y-104234965D01*
X139786097Y-104370505D01*
X139619005Y-104537597D01*
X139509075Y-104694595D01*
X139454498Y-104738220D01*
X139385000Y-104745414D01*
X139322645Y-104713891D01*
X139305925Y-104694595D01*
X139195994Y-104537597D01*
X139028902Y-104370506D01*
X139028895Y-104370501D01*
X138835334Y-104234967D01*
X138835330Y-104234965D01*
X138797662Y-104217400D01*
X138621163Y-104135097D01*
X138621159Y-104135096D01*
X138621155Y-104135094D01*
X138392913Y-104073938D01*
X138392903Y-104073936D01*
X138157501Y-104053341D01*
X138157499Y-104053341D01*
X137922096Y-104073936D01*
X137922086Y-104073938D01*
X137693844Y-104135094D01*
X137693835Y-104135098D01*
X137479671Y-104234964D01*
X137479669Y-104234965D01*
X137286097Y-104370505D01*
X137138898Y-104517705D01*
X137077575Y-104551190D01*
X137007883Y-104546206D01*
X136951950Y-104504334D01*
X136945678Y-104495120D01*
X136850212Y-104340344D01*
X136726157Y-104216289D01*
X136726156Y-104216288D01*
X136624473Y-104153570D01*
X136576836Y-104124187D01*
X136576831Y-104124185D01*
X136533830Y-104109936D01*
X136410297Y-104069001D01*
X136410295Y-104069000D01*
X136307510Y-104058500D01*
X135007498Y-104058500D01*
X135007481Y-104058501D01*
X134904703Y-104069000D01*
X134904700Y-104069001D01*
X134738168Y-104124185D01*
X134738163Y-104124187D01*
X134588842Y-104216289D01*
X134464789Y-104340342D01*
X134372687Y-104489663D01*
X134372685Y-104489668D01*
X134347986Y-104564206D01*
X134317501Y-104656203D01*
X134317501Y-104656204D01*
X134317500Y-104656204D01*
X134307000Y-104758983D01*
X134307000Y-106309001D01*
X130674852Y-106309001D01*
X130753429Y-106140492D01*
X130753433Y-106140483D01*
X130814567Y-105912326D01*
X130814569Y-105912316D01*
X130824221Y-105802000D01*
X129883969Y-105802000D01*
X129916519Y-105751351D01*
X129955000Y-105620295D01*
X129955000Y-105483705D01*
X129916519Y-105352649D01*
X129883969Y-105302000D01*
X130824221Y-105302000D01*
X130814569Y-105191683D01*
X130814567Y-105191673D01*
X130753433Y-104963516D01*
X130753429Y-104963507D01*
X130653600Y-104749422D01*
X130653599Y-104749420D01*
X130518113Y-104555926D01*
X130518108Y-104555920D01*
X130351082Y-104388894D01*
X130157578Y-104253399D01*
X129943492Y-104153570D01*
X129943486Y-104153567D01*
X129730000Y-104096364D01*
X129730000Y-105143981D01*
X129615199Y-105091554D01*
X129513975Y-105077000D01*
X129446025Y-105077000D01*
X129344801Y-105091554D01*
X129230000Y-105143981D01*
X129230000Y-104096364D01*
X129229999Y-104096364D01*
X129016513Y-104153567D01*
X129016507Y-104153570D01*
X128802422Y-104253399D01*
X128802420Y-104253400D01*
X128608926Y-104388886D01*
X128608920Y-104388891D01*
X128441891Y-104555920D01*
X128441890Y-104555922D01*
X128331880Y-104713032D01*
X128277303Y-104756657D01*
X128207804Y-104763849D01*
X128145450Y-104732327D01*
X128128730Y-104713031D01*
X128018494Y-104555597D01*
X127851402Y-104388506D01*
X127851395Y-104388501D01*
X127657834Y-104252967D01*
X127657830Y-104252965D01*
X127620162Y-104235400D01*
X127443663Y-104153097D01*
X127443659Y-104153096D01*
X127443655Y-104153094D01*
X127215413Y-104091938D01*
X127215403Y-104091936D01*
X126980001Y-104071341D01*
X126979999Y-104071341D01*
X126744596Y-104091936D01*
X126744586Y-104091938D01*
X126516344Y-104153094D01*
X126516335Y-104153098D01*
X126302171Y-104252964D01*
X126302169Y-104252965D01*
X126108597Y-104388505D01*
X125941505Y-104555597D01*
X125831575Y-104712595D01*
X125776998Y-104756220D01*
X125707500Y-104763414D01*
X125645145Y-104731891D01*
X125628425Y-104712595D01*
X125518494Y-104555597D01*
X125351402Y-104388506D01*
X125351395Y-104388501D01*
X125157834Y-104252967D01*
X125157830Y-104252965D01*
X125120162Y-104235400D01*
X124943663Y-104153097D01*
X124943659Y-104153096D01*
X124943655Y-104153094D01*
X124715413Y-104091938D01*
X124715403Y-104091936D01*
X124480001Y-104071341D01*
X124479999Y-104071341D01*
X124244596Y-104091936D01*
X124244586Y-104091938D01*
X124016344Y-104153094D01*
X124016335Y-104153098D01*
X123802171Y-104252964D01*
X123802169Y-104252965D01*
X123608597Y-104388505D01*
X123461398Y-104535705D01*
X123400075Y-104569190D01*
X123330383Y-104564206D01*
X123274450Y-104522334D01*
X123268178Y-104513120D01*
X123172712Y-104358344D01*
X123048657Y-104234289D01*
X123048656Y-104234288D01*
X122946973Y-104171570D01*
X122899336Y-104142187D01*
X122899331Y-104142185D01*
X122877932Y-104135094D01*
X122732797Y-104087001D01*
X122732795Y-104087000D01*
X122630010Y-104076500D01*
X121329998Y-104076500D01*
X121329981Y-104076501D01*
X121227203Y-104087000D01*
X121227200Y-104087001D01*
X121060668Y-104142185D01*
X121060663Y-104142187D01*
X120911342Y-104234289D01*
X120787289Y-104358342D01*
X120695187Y-104507663D01*
X120695185Y-104507668D01*
X120670486Y-104582206D01*
X120640001Y-104674203D01*
X120640001Y-104674204D01*
X120640000Y-104674204D01*
X120629500Y-104776983D01*
X120629500Y-106327001D01*
X118567846Y-106327001D01*
X118524305Y-97512083D01*
X126821260Y-97512083D01*
X126841046Y-97700339D01*
X126841047Y-97700342D01*
X126899538Y-97880360D01*
X126899541Y-97880367D01*
X126994187Y-98044299D01*
X127036156Y-98090910D01*
X127120849Y-98184971D01*
X127273985Y-98296231D01*
X127273990Y-98296234D01*
X127446912Y-98373225D01*
X127446917Y-98373227D01*
X127632074Y-98412583D01*
X127632075Y-98412583D01*
X127821364Y-98412583D01*
X127821366Y-98412583D01*
X128006523Y-98373227D01*
X128179450Y-98296234D01*
X128332591Y-98184971D01*
X128459253Y-98044299D01*
X128553899Y-97880367D01*
X128612394Y-97700339D01*
X128632180Y-97512083D01*
X128612394Y-97323827D01*
X128553899Y-97143799D01*
X128459253Y-96979867D01*
X128332591Y-96839195D01*
X128332590Y-96839194D01*
X128242858Y-96774000D01*
X134730540Y-96774000D01*
X134750326Y-96962256D01*
X134750327Y-96962259D01*
X134808818Y-97142277D01*
X134808821Y-97142284D01*
X134903467Y-97306216D01*
X135030129Y-97446888D01*
X135183265Y-97558148D01*
X135183270Y-97558151D01*
X135356192Y-97635142D01*
X135356197Y-97635144D01*
X135541354Y-97674500D01*
X135541355Y-97674500D01*
X135730644Y-97674500D01*
X135730646Y-97674500D01*
X135915803Y-97635144D01*
X136088730Y-97558151D01*
X136119218Y-97536000D01*
X138540540Y-97536000D01*
X138560326Y-97724256D01*
X138560327Y-97724259D01*
X138618818Y-97904277D01*
X138618821Y-97904284D01*
X138713467Y-98068216D01*
X138733901Y-98090910D01*
X138840129Y-98208888D01*
X138993265Y-98320148D01*
X138993270Y-98320151D01*
X139166192Y-98397142D01*
X139166197Y-98397144D01*
X139351354Y-98436500D01*
X139351355Y-98436500D01*
X139540644Y-98436500D01*
X139540646Y-98436500D01*
X139725803Y-98397144D01*
X139898730Y-98320151D01*
X140051871Y-98208888D01*
X140178533Y-98068216D01*
X140273179Y-97904284D01*
X140331674Y-97724256D01*
X140351460Y-97536000D01*
X165972540Y-97536000D01*
X165992326Y-97724256D01*
X165992327Y-97724259D01*
X166050818Y-97904277D01*
X166050821Y-97904284D01*
X166145467Y-98068216D01*
X166165901Y-98090910D01*
X166272129Y-98208888D01*
X166425265Y-98320148D01*
X166425270Y-98320151D01*
X166598192Y-98397142D01*
X166598197Y-98397144D01*
X166783354Y-98436500D01*
X166783355Y-98436500D01*
X166972644Y-98436500D01*
X166972646Y-98436500D01*
X167157803Y-98397144D01*
X167330730Y-98320151D01*
X167483871Y-98208888D01*
X167610533Y-98068216D01*
X167705179Y-97904284D01*
X167763674Y-97724256D01*
X167783460Y-97536000D01*
X167763674Y-97347744D01*
X167705179Y-97167716D01*
X167610533Y-97003784D01*
X167607126Y-97000000D01*
X180997341Y-97000000D01*
X181017936Y-97235403D01*
X181017938Y-97235413D01*
X181079094Y-97463655D01*
X181079096Y-97463659D01*
X181079097Y-97463663D01*
X181101676Y-97512083D01*
X181178964Y-97677828D01*
X181178965Y-97677830D01*
X181314505Y-97871402D01*
X181461704Y-98018601D01*
X181495189Y-98079924D01*
X181490205Y-98149616D01*
X181448333Y-98205549D01*
X181439120Y-98211820D01*
X181284347Y-98307285D01*
X181284343Y-98307288D01*
X181160289Y-98431342D01*
X181068187Y-98580663D01*
X181068186Y-98580666D01*
X181013001Y-98747203D01*
X181013001Y-98747204D01*
X181013000Y-98747204D01*
X181002500Y-98849983D01*
X181002500Y-100150001D01*
X181002501Y-100150018D01*
X181013000Y-100252796D01*
X181013001Y-100252799D01*
X181068185Y-100419331D01*
X181068186Y-100419334D01*
X181160288Y-100568656D01*
X181284344Y-100692712D01*
X181433666Y-100784814D01*
X181600203Y-100839999D01*
X181702991Y-100850500D01*
X183253008Y-100850499D01*
X183355797Y-100839999D01*
X183522334Y-100784814D01*
X183671656Y-100692712D01*
X183795712Y-100568656D01*
X183887814Y-100419334D01*
X183942999Y-100252797D01*
X183953500Y-100150009D01*
X183953499Y-98849992D01*
X183942999Y-98747203D01*
X183887814Y-98580666D01*
X183795712Y-98431344D01*
X183671656Y-98307288D01*
X183590658Y-98257328D01*
X183516879Y-98211821D01*
X183470155Y-98159873D01*
X183458932Y-98090910D01*
X183486776Y-98026828D01*
X183494295Y-98018601D01*
X183641495Y-97871401D01*
X183777035Y-97677830D01*
X183876903Y-97463663D01*
X183938063Y-97235408D01*
X183958659Y-97000000D01*
X183938063Y-96764592D01*
X183876903Y-96536337D01*
X183777035Y-96322171D01*
X183777034Y-96322169D01*
X183641494Y-96128597D01*
X183474403Y-95961506D01*
X183348716Y-95873500D01*
X183317401Y-95851573D01*
X183273778Y-95796999D01*
X183266584Y-95727500D01*
X183298106Y-95665145D01*
X183317398Y-95648428D01*
X183474401Y-95538495D01*
X183641495Y-95371401D01*
X183777035Y-95177830D01*
X183876903Y-94963663D01*
X183938063Y-94735408D01*
X183958659Y-94500000D01*
X183938063Y-94264592D01*
X183876903Y-94036337D01*
X183777035Y-93822171D01*
X183777034Y-93822169D01*
X183641494Y-93628597D01*
X183474403Y-93461506D01*
X183316967Y-93351269D01*
X183273342Y-93296692D01*
X183266148Y-93227194D01*
X183297671Y-93164839D01*
X183316967Y-93148119D01*
X183474073Y-93038113D01*
X183474079Y-93038108D01*
X183641105Y-92871082D01*
X183776600Y-92677578D01*
X183876429Y-92463492D01*
X183876432Y-92463486D01*
X183933636Y-92250000D01*
X182881969Y-92250000D01*
X182914519Y-92199351D01*
X182953000Y-92068295D01*
X182953000Y-91931705D01*
X182914519Y-91800649D01*
X182881969Y-91750000D01*
X183933636Y-91750000D01*
X183933635Y-91749999D01*
X183876432Y-91536513D01*
X183876429Y-91536507D01*
X183776600Y-91322422D01*
X183776599Y-91322420D01*
X183641113Y-91128926D01*
X183641108Y-91128920D01*
X183474079Y-90961891D01*
X183474073Y-90961886D01*
X183280579Y-90826400D01*
X183280577Y-90826399D01*
X183066492Y-90726570D01*
X183066483Y-90726566D01*
X182838326Y-90665432D01*
X182838316Y-90665430D01*
X182728000Y-90655778D01*
X182728000Y-91591981D01*
X182613199Y-91539554D01*
X182511975Y-91525000D01*
X182444025Y-91525000D01*
X182342801Y-91539554D01*
X182228000Y-91591981D01*
X182228000Y-90655778D01*
X182117683Y-90665430D01*
X182117673Y-90665432D01*
X181889516Y-90726566D01*
X181889507Y-90726570D01*
X181675422Y-90826399D01*
X181675420Y-90826400D01*
X181481926Y-90961886D01*
X181481920Y-90961891D01*
X181314894Y-91128917D01*
X181179399Y-91322421D01*
X181079570Y-91536507D01*
X181079567Y-91536513D01*
X181022364Y-91749999D01*
X181022364Y-91750000D01*
X182074031Y-91750000D01*
X182041481Y-91800649D01*
X182003000Y-91931705D01*
X182003000Y-92068295D01*
X182041481Y-92199351D01*
X182074031Y-92250000D01*
X181022364Y-92250000D01*
X181079567Y-92463486D01*
X181079570Y-92463492D01*
X181179399Y-92677577D01*
X181179400Y-92677579D01*
X181314886Y-92871073D01*
X181314891Y-92871079D01*
X181481920Y-93038108D01*
X181481926Y-93038113D01*
X181639031Y-93148119D01*
X181682656Y-93202696D01*
X181689850Y-93272194D01*
X181658327Y-93334549D01*
X181639032Y-93351269D01*
X181481594Y-93461508D01*
X181314506Y-93628597D01*
X181314501Y-93628604D01*
X181178967Y-93822165D01*
X181178965Y-93822169D01*
X181079098Y-94036335D01*
X181079094Y-94036344D01*
X181017938Y-94264586D01*
X181017936Y-94264596D01*
X180997341Y-94499999D01*
X180997341Y-94500000D01*
X181017936Y-94735403D01*
X181017938Y-94735413D01*
X181079094Y-94963655D01*
X181079096Y-94963659D01*
X181079097Y-94963663D01*
X181083847Y-94973849D01*
X181178964Y-95177828D01*
X181178965Y-95177830D01*
X181314505Y-95371402D01*
X181481597Y-95538494D01*
X181638595Y-95648425D01*
X181682220Y-95703002D01*
X181689414Y-95772500D01*
X181657891Y-95834855D01*
X181638595Y-95851575D01*
X181481597Y-95961505D01*
X181314506Y-96128597D01*
X181314501Y-96128604D01*
X181178967Y-96322165D01*
X181178965Y-96322169D01*
X181079098Y-96536335D01*
X181079094Y-96536344D01*
X181017938Y-96764586D01*
X181017936Y-96764596D01*
X180997341Y-96999999D01*
X180997341Y-97000000D01*
X167607126Y-97000000D01*
X167483871Y-96863112D01*
X167483870Y-96863111D01*
X167330734Y-96751851D01*
X167330729Y-96751848D01*
X167157807Y-96674857D01*
X167157802Y-96674855D01*
X167012001Y-96643865D01*
X166972646Y-96635500D01*
X166783354Y-96635500D01*
X166750897Y-96642398D01*
X166598197Y-96674855D01*
X166598192Y-96674857D01*
X166425270Y-96751848D01*
X166425265Y-96751851D01*
X166272129Y-96863111D01*
X166145466Y-97003785D01*
X166050821Y-97167715D01*
X166050818Y-97167722D01*
X166005820Y-97306214D01*
X165992326Y-97347744D01*
X165972540Y-97536000D01*
X140351460Y-97536000D01*
X140331674Y-97347744D01*
X140273179Y-97167716D01*
X140178533Y-97003784D01*
X140051871Y-96863112D01*
X140051870Y-96863111D01*
X139898734Y-96751851D01*
X139898729Y-96751848D01*
X139725807Y-96674857D01*
X139725802Y-96674855D01*
X139580001Y-96643865D01*
X139540646Y-96635500D01*
X139351354Y-96635500D01*
X139318897Y-96642398D01*
X139166197Y-96674855D01*
X139166192Y-96674857D01*
X138993270Y-96751848D01*
X138993265Y-96751851D01*
X138840129Y-96863111D01*
X138713466Y-97003785D01*
X138618821Y-97167715D01*
X138618818Y-97167722D01*
X138573820Y-97306214D01*
X138560326Y-97347744D01*
X138540540Y-97536000D01*
X136119218Y-97536000D01*
X136241871Y-97446888D01*
X136368533Y-97306216D01*
X136463179Y-97142284D01*
X136521674Y-96962256D01*
X136541460Y-96774000D01*
X136521674Y-96585744D01*
X136463179Y-96405716D01*
X136368533Y-96241784D01*
X136241871Y-96101112D01*
X136241870Y-96101111D01*
X136088734Y-95989851D01*
X136088729Y-95989848D01*
X135915807Y-95912857D01*
X135915802Y-95912855D01*
X135770001Y-95881865D01*
X135730646Y-95873500D01*
X135541354Y-95873500D01*
X135508897Y-95880398D01*
X135356197Y-95912855D01*
X135356192Y-95912857D01*
X135183270Y-95989848D01*
X135183265Y-95989851D01*
X135030129Y-96101111D01*
X134903466Y-96241785D01*
X134808821Y-96405715D01*
X134808818Y-96405722D01*
X134766380Y-96536335D01*
X134750326Y-96585744D01*
X134730540Y-96774000D01*
X128242858Y-96774000D01*
X128179454Y-96727934D01*
X128179449Y-96727931D01*
X128006527Y-96650940D01*
X128006522Y-96650938D01*
X127856929Y-96619142D01*
X127821366Y-96611583D01*
X127632074Y-96611583D01*
X127599617Y-96618481D01*
X127446917Y-96650938D01*
X127446912Y-96650940D01*
X127273990Y-96727931D01*
X127273985Y-96727934D01*
X127120849Y-96839194D01*
X126994186Y-96979868D01*
X126899541Y-97143798D01*
X126899538Y-97143805D01*
X126846768Y-97306216D01*
X126841046Y-97323827D01*
X126821260Y-97512083D01*
X118524305Y-97512083D01*
X118515641Y-95758000D01*
X161400540Y-95758000D01*
X161420326Y-95946256D01*
X161420327Y-95946259D01*
X161478818Y-96126277D01*
X161478821Y-96126284D01*
X161573467Y-96290216D01*
X161700129Y-96430888D01*
X161853265Y-96542148D01*
X161853270Y-96542151D01*
X162026192Y-96619142D01*
X162026197Y-96619144D01*
X162211354Y-96658500D01*
X162211355Y-96658500D01*
X162400644Y-96658500D01*
X162400646Y-96658500D01*
X162585803Y-96619144D01*
X162758730Y-96542151D01*
X162911871Y-96430888D01*
X163038533Y-96290216D01*
X163133179Y-96126284D01*
X163191674Y-95946256D01*
X163211460Y-95758000D01*
X163191674Y-95569744D01*
X163133179Y-95389716D01*
X163038533Y-95225784D01*
X162911871Y-95085112D01*
X162911870Y-95085111D01*
X162758734Y-94973851D01*
X162758729Y-94973848D01*
X162585807Y-94896857D01*
X162585802Y-94896855D01*
X162440001Y-94865865D01*
X162400646Y-94857500D01*
X162211354Y-94857500D01*
X162178897Y-94864398D01*
X162026197Y-94896855D01*
X162026192Y-94896857D01*
X161853270Y-94973848D01*
X161853265Y-94973851D01*
X161700129Y-95085111D01*
X161573466Y-95225785D01*
X161478821Y-95389715D01*
X161478818Y-95389722D01*
X161430479Y-95538495D01*
X161420326Y-95569744D01*
X161400540Y-95758000D01*
X118515641Y-95758000D01*
X118510622Y-94742000D01*
X123554540Y-94742000D01*
X123574326Y-94930256D01*
X123574327Y-94930259D01*
X123632818Y-95110277D01*
X123632821Y-95110284D01*
X123727467Y-95274216D01*
X123854129Y-95414888D01*
X124007265Y-95526148D01*
X124007270Y-95526151D01*
X124180192Y-95603142D01*
X124180197Y-95603144D01*
X124365354Y-95642500D01*
X124365355Y-95642500D01*
X124554644Y-95642500D01*
X124554646Y-95642500D01*
X124739803Y-95603144D01*
X124912730Y-95526151D01*
X125065871Y-95414888D01*
X125192533Y-95274216D01*
X125287179Y-95110284D01*
X125345674Y-94930256D01*
X125365460Y-94742000D01*
X125345674Y-94553744D01*
X125287179Y-94373716D01*
X125192533Y-94209784D01*
X125065871Y-94069112D01*
X125065870Y-94069111D01*
X124912734Y-93957851D01*
X124912729Y-93957848D01*
X124739807Y-93880857D01*
X124739802Y-93880855D01*
X124594001Y-93849865D01*
X124554646Y-93841500D01*
X124365354Y-93841500D01*
X124332897Y-93848398D01*
X124180197Y-93880855D01*
X124180192Y-93880857D01*
X124007270Y-93957848D01*
X124007265Y-93957851D01*
X123854129Y-94069111D01*
X123727466Y-94209785D01*
X123632821Y-94373715D01*
X123632818Y-94373722D01*
X123575380Y-94550500D01*
X123574326Y-94553744D01*
X123554540Y-94742000D01*
X118510622Y-94742000D01*
X118505475Y-93700000D01*
X151594540Y-93700000D01*
X151614326Y-93888256D01*
X151614327Y-93888259D01*
X151672818Y-94068277D01*
X151672821Y-94068284D01*
X151767467Y-94232216D01*
X151849109Y-94322888D01*
X151894129Y-94372888D01*
X152047265Y-94484148D01*
X152047270Y-94484151D01*
X152220192Y-94561142D01*
X152220197Y-94561144D01*
X152405354Y-94600500D01*
X152405355Y-94600500D01*
X152594644Y-94600500D01*
X152594646Y-94600500D01*
X152779803Y-94561144D01*
X152952730Y-94484151D01*
X153105871Y-94372888D01*
X153232533Y-94232216D01*
X153327179Y-94068284D01*
X153385674Y-93888256D01*
X153405460Y-93700000D01*
X153400205Y-93650000D01*
X154494540Y-93650000D01*
X154514326Y-93838256D01*
X154514327Y-93838259D01*
X154572818Y-94018277D01*
X154572821Y-94018284D01*
X154667467Y-94182216D01*
X154794129Y-94322888D01*
X154947265Y-94434148D01*
X154947270Y-94434151D01*
X155120192Y-94511142D01*
X155120197Y-94511144D01*
X155305354Y-94550500D01*
X155305355Y-94550500D01*
X155494644Y-94550500D01*
X155494646Y-94550500D01*
X155679803Y-94511144D01*
X155852730Y-94434151D01*
X156005871Y-94322888D01*
X156132533Y-94182216D01*
X156227179Y-94018284D01*
X156285674Y-93838256D01*
X156305460Y-93650000D01*
X156285674Y-93461744D01*
X156227179Y-93281716D01*
X156132533Y-93117784D01*
X156005871Y-92977112D01*
X156005870Y-92977111D01*
X155852734Y-92865851D01*
X155852729Y-92865848D01*
X155679807Y-92788857D01*
X155679802Y-92788855D01*
X155534001Y-92757865D01*
X155494646Y-92749500D01*
X155305354Y-92749500D01*
X155272897Y-92756398D01*
X155120197Y-92788855D01*
X155120192Y-92788857D01*
X154947270Y-92865848D01*
X154947265Y-92865851D01*
X154794129Y-92977111D01*
X154667466Y-93117785D01*
X154572821Y-93281715D01*
X154572818Y-93281722D01*
X154514327Y-93461740D01*
X154514326Y-93461744D01*
X154494540Y-93650000D01*
X153400205Y-93650000D01*
X153385674Y-93511744D01*
X153327179Y-93331716D01*
X153232533Y-93167784D01*
X153105871Y-93027112D01*
X153037052Y-92977112D01*
X152952734Y-92915851D01*
X152952729Y-92915848D01*
X152779807Y-92838857D01*
X152779802Y-92838855D01*
X152634001Y-92807865D01*
X152594646Y-92799500D01*
X152405354Y-92799500D01*
X152372897Y-92806398D01*
X152220197Y-92838855D01*
X152220192Y-92838857D01*
X152047270Y-92915848D01*
X152047265Y-92915851D01*
X151894129Y-93027111D01*
X151767466Y-93167785D01*
X151672821Y-93331715D01*
X151672818Y-93331722D01*
X151630573Y-93461740D01*
X151614326Y-93511744D01*
X151594540Y-93700000D01*
X118505475Y-93700000D01*
X118474791Y-87488000D01*
X125519650Y-87488000D01*
X125539025Y-87771274D01*
X125539026Y-87771276D01*
X125596791Y-88049260D01*
X125596796Y-88049277D01*
X125691875Y-88316805D01*
X125691876Y-88316807D01*
X125691877Y-88316810D01*
X125691879Y-88316814D01*
X125760632Y-88449500D01*
X125822508Y-88568915D01*
X125986250Y-88800886D01*
X126180054Y-89008398D01*
X126400296Y-89187578D01*
X126400299Y-89187580D01*
X126400303Y-89187583D01*
X126642904Y-89335112D01*
X126903333Y-89448233D01*
X127176740Y-89524838D01*
X127424040Y-89558828D01*
X127458031Y-89563500D01*
X127458032Y-89563500D01*
X127741969Y-89563500D01*
X127772294Y-89559331D01*
X128023260Y-89524838D01*
X128296667Y-89448233D01*
X128522821Y-89350000D01*
X146794540Y-89350000D01*
X146814326Y-89538256D01*
X146814327Y-89538259D01*
X146872818Y-89718277D01*
X146872821Y-89718284D01*
X146967467Y-89882216D01*
X147033918Y-89956017D01*
X147094129Y-90022888D01*
X147247265Y-90134148D01*
X147247270Y-90134151D01*
X147420192Y-90211142D01*
X147420197Y-90211144D01*
X147605354Y-90250500D01*
X147605355Y-90250500D01*
X147794644Y-90250500D01*
X147794646Y-90250500D01*
X147979803Y-90211144D01*
X148152730Y-90134151D01*
X148305871Y-90022888D01*
X148432533Y-89882216D01*
X148527179Y-89718284D01*
X148585674Y-89538256D01*
X148589695Y-89500000D01*
X149594540Y-89500000D01*
X149614326Y-89688256D01*
X149614327Y-89688259D01*
X149672818Y-89868277D01*
X149672821Y-89868284D01*
X149767467Y-90032216D01*
X149859247Y-90134148D01*
X149894129Y-90172888D01*
X150047265Y-90284148D01*
X150047270Y-90284151D01*
X150220192Y-90361142D01*
X150220197Y-90361144D01*
X150405354Y-90400500D01*
X150405355Y-90400500D01*
X150594644Y-90400500D01*
X150594646Y-90400500D01*
X150779803Y-90361144D01*
X150952730Y-90284151D01*
X151105871Y-90172888D01*
X151232533Y-90032216D01*
X151327179Y-89868284D01*
X151385674Y-89688256D01*
X151405460Y-89500000D01*
X151385674Y-89311744D01*
X151327179Y-89131716D01*
X151232533Y-88967784D01*
X151105871Y-88827112D01*
X151105870Y-88827111D01*
X150952734Y-88715851D01*
X150952729Y-88715848D01*
X150779807Y-88638857D01*
X150779802Y-88638855D01*
X150634001Y-88607865D01*
X150594646Y-88599500D01*
X150405354Y-88599500D01*
X150372897Y-88606398D01*
X150220197Y-88638855D01*
X150220192Y-88638857D01*
X150047270Y-88715848D01*
X150047265Y-88715851D01*
X149894129Y-88827111D01*
X149767466Y-88967785D01*
X149672821Y-89131715D01*
X149672818Y-89131722D01*
X149614327Y-89311740D01*
X149614326Y-89311744D01*
X149594540Y-89500000D01*
X148589695Y-89500000D01*
X148605460Y-89350000D01*
X148585674Y-89161744D01*
X148527179Y-88981716D01*
X148432533Y-88817784D01*
X148305871Y-88677112D01*
X148305870Y-88677111D01*
X148152734Y-88565851D01*
X148152729Y-88565848D01*
X147979807Y-88488857D01*
X147979802Y-88488855D01*
X147834001Y-88457865D01*
X147794646Y-88449500D01*
X147605354Y-88449500D01*
X147572897Y-88456398D01*
X147420197Y-88488855D01*
X147420192Y-88488857D01*
X147247270Y-88565848D01*
X147247265Y-88565851D01*
X147094129Y-88677111D01*
X146967466Y-88817785D01*
X146872821Y-88981715D01*
X146872818Y-88981722D01*
X146823576Y-89133275D01*
X146814326Y-89161744D01*
X146794540Y-89350000D01*
X128522821Y-89350000D01*
X128557096Y-89335112D01*
X128799697Y-89187583D01*
X129019949Y-89008395D01*
X129213751Y-88800884D01*
X129377491Y-88568916D01*
X129508121Y-88316814D01*
X129603205Y-88049272D01*
X129603206Y-88049265D01*
X129603208Y-88049260D01*
X129630024Y-87920212D01*
X129660974Y-87771274D01*
X129680350Y-87488000D01*
X172519650Y-87488000D01*
X172539025Y-87771274D01*
X172539026Y-87771276D01*
X172596791Y-88049260D01*
X172596796Y-88049277D01*
X172691875Y-88316805D01*
X172691876Y-88316807D01*
X172691877Y-88316810D01*
X172691879Y-88316814D01*
X172760632Y-88449500D01*
X172822508Y-88568915D01*
X172986250Y-88800886D01*
X173180054Y-89008398D01*
X173400296Y-89187578D01*
X173400299Y-89187580D01*
X173400303Y-89187583D01*
X173642904Y-89335112D01*
X173903333Y-89448233D01*
X174176740Y-89524838D01*
X174424040Y-89558828D01*
X174458031Y-89563500D01*
X174458032Y-89563500D01*
X174741969Y-89563500D01*
X174772294Y-89559331D01*
X175023260Y-89524838D01*
X175296667Y-89448233D01*
X175557096Y-89335112D01*
X175799697Y-89187583D01*
X176019949Y-89008395D01*
X176213751Y-88800884D01*
X176377491Y-88568916D01*
X176508121Y-88316814D01*
X176603205Y-88049272D01*
X176603206Y-88049265D01*
X176603208Y-88049260D01*
X176630024Y-87920212D01*
X176660974Y-87771274D01*
X176680350Y-87488000D01*
X176660974Y-87204726D01*
X176641029Y-87108746D01*
X176603208Y-86926739D01*
X176603203Y-86926722D01*
X176508124Y-86659194D01*
X176508123Y-86659192D01*
X176508121Y-86659186D01*
X176377491Y-86407084D01*
X176213751Y-86175116D01*
X176213749Y-86175113D01*
X176019945Y-85967601D01*
X175799703Y-85788421D01*
X175799692Y-85788414D01*
X175557100Y-85640890D01*
X175557097Y-85640888D01*
X175557096Y-85640888D01*
X175436219Y-85588383D01*
X175296670Y-85527768D01*
X175296668Y-85527767D01*
X175296667Y-85527767D01*
X175218879Y-85505972D01*
X175023265Y-85451163D01*
X175023261Y-85451162D01*
X175023260Y-85451162D01*
X174882614Y-85431831D01*
X174741969Y-85412500D01*
X174741968Y-85412500D01*
X174458032Y-85412500D01*
X174458031Y-85412500D01*
X174176740Y-85451162D01*
X174176734Y-85451163D01*
X173903329Y-85527768D01*
X173642899Y-85640890D01*
X173400307Y-85788414D01*
X173400296Y-85788421D01*
X173180054Y-85967601D01*
X172986250Y-86175113D01*
X172822508Y-86407084D01*
X172691876Y-86659192D01*
X172691875Y-86659194D01*
X172596796Y-86926722D01*
X172596791Y-86926739D01*
X172539026Y-87204723D01*
X172539025Y-87204725D01*
X172519650Y-87488000D01*
X129680350Y-87488000D01*
X129660974Y-87204726D01*
X129641029Y-87108746D01*
X129603208Y-86926739D01*
X129603203Y-86926722D01*
X129508124Y-86659194D01*
X129508123Y-86659192D01*
X129508121Y-86659186D01*
X129377491Y-86407084D01*
X129213751Y-86175116D01*
X129213749Y-86175113D01*
X129019945Y-85967601D01*
X128799703Y-85788421D01*
X128799692Y-85788414D01*
X128557100Y-85640890D01*
X128557097Y-85640888D01*
X128557096Y-85640888D01*
X128436219Y-85588383D01*
X128296670Y-85527768D01*
X128296668Y-85527767D01*
X128296667Y-85527767D01*
X128218879Y-85505972D01*
X128023265Y-85451163D01*
X128023261Y-85451162D01*
X128023260Y-85451162D01*
X127882614Y-85431831D01*
X127741969Y-85412500D01*
X127741968Y-85412500D01*
X127458032Y-85412500D01*
X127458031Y-85412500D01*
X127176740Y-85451162D01*
X127176734Y-85451163D01*
X126903329Y-85527768D01*
X126642899Y-85640890D01*
X126400307Y-85788414D01*
X126400296Y-85788421D01*
X126180054Y-85967601D01*
X125986250Y-86175113D01*
X125822508Y-86407084D01*
X125691876Y-86659192D01*
X125691875Y-86659194D01*
X125596796Y-86926722D01*
X125596791Y-86926739D01*
X125539026Y-87204723D01*
X125539025Y-87204725D01*
X125519650Y-87488000D01*
X118474791Y-87488000D01*
X118446636Y-81788000D01*
X196960540Y-81788000D01*
X196980326Y-81976256D01*
X196980327Y-81976259D01*
X197038818Y-82156277D01*
X197038821Y-82156284D01*
X197133467Y-82320216D01*
X197260129Y-82460888D01*
X197413265Y-82572148D01*
X197413270Y-82572151D01*
X197586192Y-82649142D01*
X197586197Y-82649144D01*
X197771354Y-82688500D01*
X197771355Y-82688500D01*
X197960644Y-82688500D01*
X197960646Y-82688500D01*
X198145803Y-82649144D01*
X198318730Y-82572151D01*
X198471871Y-82460888D01*
X198598533Y-82320216D01*
X198693179Y-82156284D01*
X198751674Y-81976256D01*
X198771460Y-81788000D01*
X198751674Y-81599744D01*
X198693179Y-81419716D01*
X198598533Y-81255784D01*
X198471871Y-81115112D01*
X198471870Y-81115111D01*
X198318734Y-81003851D01*
X198318729Y-81003848D01*
X198145807Y-80926857D01*
X198145802Y-80926855D01*
X198000001Y-80895865D01*
X197960646Y-80887500D01*
X197771354Y-80887500D01*
X197738897Y-80894398D01*
X197586197Y-80926855D01*
X197586192Y-80926857D01*
X197413270Y-81003848D01*
X197413265Y-81003851D01*
X197260129Y-81115111D01*
X197133466Y-81255785D01*
X197038821Y-81419715D01*
X197038818Y-81419722D01*
X196980327Y-81599740D01*
X196980326Y-81599744D01*
X196960540Y-81788000D01*
X118446636Y-81788000D01*
X118435344Y-79502000D01*
X197214540Y-79502000D01*
X197234326Y-79690256D01*
X197234327Y-79690259D01*
X197292818Y-79870277D01*
X197292821Y-79870284D01*
X197387467Y-80034216D01*
X197514129Y-80174888D01*
X197667265Y-80286148D01*
X197667270Y-80286151D01*
X197840192Y-80363142D01*
X197840197Y-80363144D01*
X198025354Y-80402500D01*
X198025355Y-80402500D01*
X198214644Y-80402500D01*
X198214646Y-80402500D01*
X198399803Y-80363144D01*
X198572730Y-80286151D01*
X198725871Y-80174888D01*
X198852533Y-80034216D01*
X198947179Y-79870284D01*
X199005674Y-79690256D01*
X199025460Y-79502000D01*
X199005674Y-79313744D01*
X198947179Y-79133716D01*
X198902308Y-79055997D01*
X198885836Y-78988100D01*
X198902309Y-78932001D01*
X198947179Y-78854284D01*
X199005674Y-78674256D01*
X199025460Y-78486000D01*
X199005674Y-78297744D01*
X198947179Y-78117716D01*
X198852533Y-77953784D01*
X198725871Y-77813112D01*
X198725870Y-77813111D01*
X198572734Y-77701851D01*
X198572729Y-77701848D01*
X198399807Y-77624857D01*
X198399802Y-77624855D01*
X198254001Y-77593865D01*
X198214646Y-77585500D01*
X198025354Y-77585500D01*
X197992897Y-77592398D01*
X197840197Y-77624855D01*
X197840192Y-77624857D01*
X197667270Y-77701848D01*
X197667265Y-77701851D01*
X197514129Y-77813111D01*
X197387466Y-77953785D01*
X197292821Y-78117715D01*
X197292818Y-78117722D01*
X197234327Y-78297740D01*
X197234326Y-78297744D01*
X197214540Y-78486000D01*
X197234326Y-78674256D01*
X197234327Y-78674259D01*
X197292820Y-78854283D01*
X197337690Y-78932001D01*
X197354162Y-78999901D01*
X197337690Y-79055999D01*
X197292820Y-79133716D01*
X197234327Y-79313740D01*
X197234326Y-79313744D01*
X197214540Y-79502000D01*
X118435344Y-79502000D01*
X118418481Y-76088000D01*
X125519650Y-76088000D01*
X125539025Y-76371274D01*
X125539026Y-76371276D01*
X125596791Y-76649260D01*
X125596796Y-76649277D01*
X125691875Y-76916805D01*
X125691876Y-76916807D01*
X125691877Y-76916810D01*
X125691879Y-76916814D01*
X125765750Y-77059377D01*
X125822508Y-77168915D01*
X125986250Y-77400886D01*
X126180054Y-77608398D01*
X126400296Y-77787578D01*
X126400299Y-77787580D01*
X126400303Y-77787583D01*
X126642904Y-77935112D01*
X126903333Y-78048233D01*
X127176740Y-78124838D01*
X127424040Y-78158828D01*
X127458031Y-78163500D01*
X127458032Y-78163500D01*
X127741969Y-78163500D01*
X127772294Y-78159331D01*
X128023260Y-78124838D01*
X128296667Y-78048233D01*
X128557096Y-77935112D01*
X128799697Y-77787583D01*
X129019949Y-77608395D01*
X129213751Y-77400884D01*
X129377491Y-77168916D01*
X129508121Y-76916814D01*
X129603205Y-76649272D01*
X129603206Y-76649265D01*
X129603208Y-76649260D01*
X129630024Y-76520212D01*
X129660974Y-76371274D01*
X129680350Y-76088000D01*
X172519650Y-76088000D01*
X172539025Y-76371274D01*
X172539026Y-76371276D01*
X172596791Y-76649260D01*
X172596796Y-76649277D01*
X172691875Y-76916805D01*
X172691876Y-76916807D01*
X172691877Y-76916810D01*
X172691879Y-76916814D01*
X172765750Y-77059377D01*
X172822508Y-77168915D01*
X172986250Y-77400886D01*
X173180054Y-77608398D01*
X173400296Y-77787578D01*
X173400299Y-77787580D01*
X173400303Y-77787583D01*
X173642904Y-77935112D01*
X173903333Y-78048233D01*
X174176740Y-78124838D01*
X174424040Y-78158828D01*
X174458031Y-78163500D01*
X174458032Y-78163500D01*
X174741969Y-78163500D01*
X174772294Y-78159331D01*
X175023260Y-78124838D01*
X175296667Y-78048233D01*
X175557096Y-77935112D01*
X175799697Y-77787583D01*
X176019949Y-77608395D01*
X176213751Y-77400884D01*
X176377491Y-77168916D01*
X176508121Y-76916814D01*
X176603205Y-76649272D01*
X176603206Y-76649265D01*
X176603208Y-76649260D01*
X176630024Y-76520212D01*
X176660974Y-76371274D01*
X176680350Y-76088000D01*
X176660974Y-75804726D01*
X176622951Y-75621750D01*
X176603208Y-75526739D01*
X176603203Y-75526722D01*
X176508124Y-75259194D01*
X176508123Y-75259192D01*
X176508121Y-75259186D01*
X176377491Y-75007084D01*
X176274476Y-74861144D01*
X176213749Y-74775113D01*
X176019945Y-74567601D01*
X175799703Y-74388421D01*
X175799692Y-74388414D01*
X175557100Y-74240890D01*
X175557097Y-74240888D01*
X175557096Y-74240888D01*
X175435926Y-74188256D01*
X175296670Y-74127768D01*
X175296668Y-74127767D01*
X175296667Y-74127767D01*
X175205617Y-74102256D01*
X175023265Y-74051163D01*
X175023261Y-74051162D01*
X175023260Y-74051162D01*
X174882614Y-74031831D01*
X174741969Y-74012500D01*
X174741968Y-74012500D01*
X174458032Y-74012500D01*
X174458031Y-74012500D01*
X174176740Y-74051162D01*
X174176734Y-74051163D01*
X173903329Y-74127768D01*
X173642899Y-74240890D01*
X173400307Y-74388414D01*
X173400296Y-74388421D01*
X173180054Y-74567601D01*
X172986250Y-74775113D01*
X172822508Y-75007084D01*
X172691876Y-75259192D01*
X172691875Y-75259194D01*
X172596796Y-75526722D01*
X172596791Y-75526739D01*
X172539026Y-75804723D01*
X172539025Y-75804725D01*
X172519650Y-76088000D01*
X129680350Y-76088000D01*
X129660974Y-75804726D01*
X129622951Y-75621750D01*
X129603208Y-75526739D01*
X129603203Y-75526722D01*
X129508124Y-75259194D01*
X129508123Y-75259192D01*
X129508121Y-75259186D01*
X129377491Y-75007084D01*
X129274476Y-74861144D01*
X129213749Y-74775113D01*
X129019945Y-74567601D01*
X128799703Y-74388421D01*
X128799692Y-74388414D01*
X128557100Y-74240890D01*
X128557097Y-74240888D01*
X128557096Y-74240888D01*
X128435926Y-74188256D01*
X128296670Y-74127768D01*
X128296668Y-74127767D01*
X128296667Y-74127767D01*
X128205617Y-74102256D01*
X128023265Y-74051163D01*
X128023261Y-74051162D01*
X128023260Y-74051162D01*
X127882614Y-74031831D01*
X127741969Y-74012500D01*
X127741968Y-74012500D01*
X127458032Y-74012500D01*
X127458031Y-74012500D01*
X127176740Y-74051162D01*
X127176734Y-74051163D01*
X126903329Y-74127768D01*
X126642899Y-74240890D01*
X126400307Y-74388414D01*
X126400296Y-74388421D01*
X126180054Y-74567601D01*
X125986250Y-74775113D01*
X125822508Y-75007084D01*
X125691876Y-75259192D01*
X125691875Y-75259194D01*
X125596796Y-75526722D01*
X125596791Y-75526739D01*
X125539026Y-75804723D01*
X125539025Y-75804725D01*
X125519650Y-76088000D01*
X118418481Y-76088000D01*
X118407743Y-73914000D01*
X135492540Y-73914000D01*
X135512326Y-74102256D01*
X135512327Y-74102259D01*
X135570818Y-74282277D01*
X135570821Y-74282284D01*
X135665467Y-74446216D01*
X135792129Y-74586888D01*
X135945265Y-74698148D01*
X135945270Y-74698151D01*
X136118192Y-74775142D01*
X136118197Y-74775144D01*
X136303354Y-74814500D01*
X136303355Y-74814500D01*
X136492644Y-74814500D01*
X136492646Y-74814500D01*
X136677803Y-74775144D01*
X136850730Y-74698151D01*
X136960117Y-74618676D01*
X137025920Y-74595198D01*
X137093974Y-74611023D01*
X137105871Y-74618668D01*
X137182618Y-74674428D01*
X137215270Y-74698151D01*
X137388192Y-74775142D01*
X137388197Y-74775144D01*
X137573354Y-74814500D01*
X137573355Y-74814500D01*
X137762644Y-74814500D01*
X137762646Y-74814500D01*
X137947803Y-74775144D01*
X138120730Y-74698151D01*
X138273871Y-74586888D01*
X138400533Y-74446216D01*
X138495179Y-74282284D01*
X138505669Y-74250000D01*
X164344540Y-74250000D01*
X164364326Y-74438256D01*
X164364327Y-74438259D01*
X164422818Y-74618277D01*
X164422821Y-74618284D01*
X164517467Y-74782216D01*
X164616716Y-74892443D01*
X164644129Y-74922888D01*
X164797265Y-75034148D01*
X164797270Y-75034151D01*
X164970192Y-75111142D01*
X164970197Y-75111144D01*
X165155354Y-75150500D01*
X165155355Y-75150500D01*
X165344644Y-75150500D01*
X165344646Y-75150500D01*
X165529803Y-75111144D01*
X165702730Y-75034151D01*
X165855871Y-74922888D01*
X165982533Y-74782216D01*
X166077179Y-74618284D01*
X166135674Y-74438256D01*
X166155460Y-74250000D01*
X166135674Y-74061744D01*
X166115612Y-74000000D01*
X166594540Y-74000000D01*
X166614326Y-74188256D01*
X166614327Y-74188259D01*
X166672818Y-74368277D01*
X166672821Y-74368284D01*
X166767467Y-74532216D01*
X166845318Y-74618678D01*
X166894129Y-74672888D01*
X167047265Y-74784148D01*
X167047270Y-74784151D01*
X167220192Y-74861142D01*
X167220197Y-74861144D01*
X167405354Y-74900500D01*
X167405355Y-74900500D01*
X167594644Y-74900500D01*
X167594646Y-74900500D01*
X167779803Y-74861144D01*
X167952730Y-74784151D01*
X168105871Y-74672888D01*
X168232533Y-74532216D01*
X168327179Y-74368284D01*
X168385674Y-74188256D01*
X168405460Y-74000000D01*
X168385674Y-73811744D01*
X168327179Y-73631716D01*
X168232533Y-73467784D01*
X168105871Y-73327112D01*
X168105870Y-73327111D01*
X167952734Y-73215851D01*
X167952729Y-73215848D01*
X167779807Y-73138857D01*
X167779802Y-73138855D01*
X167634001Y-73107865D01*
X167594646Y-73099500D01*
X167405354Y-73099500D01*
X167372897Y-73106398D01*
X167220197Y-73138855D01*
X167220192Y-73138857D01*
X167047270Y-73215848D01*
X167047265Y-73215851D01*
X166894129Y-73327111D01*
X166767466Y-73467785D01*
X166672821Y-73631715D01*
X166672818Y-73631722D01*
X166642269Y-73725744D01*
X166614326Y-73811744D01*
X166594540Y-74000000D01*
X166115612Y-74000000D01*
X166077179Y-73881716D01*
X165982533Y-73717784D01*
X165855871Y-73577112D01*
X165855870Y-73577111D01*
X165702734Y-73465851D01*
X165702729Y-73465848D01*
X165529807Y-73388857D01*
X165529802Y-73388855D01*
X165384001Y-73357865D01*
X165344646Y-73349500D01*
X165155354Y-73349500D01*
X165122897Y-73356398D01*
X164970197Y-73388855D01*
X164970192Y-73388857D01*
X164797270Y-73465848D01*
X164797265Y-73465851D01*
X164644129Y-73577111D01*
X164517466Y-73717785D01*
X164422821Y-73881715D01*
X164422818Y-73881722D01*
X164380326Y-74012500D01*
X164364326Y-74061744D01*
X164344540Y-74250000D01*
X138505669Y-74250000D01*
X138553674Y-74102256D01*
X138573460Y-73914000D01*
X138553674Y-73725744D01*
X138495179Y-73545716D01*
X138400533Y-73381784D01*
X138273871Y-73241112D01*
X138262432Y-73232801D01*
X138120734Y-73129851D01*
X138120729Y-73129848D01*
X137947807Y-73052857D01*
X137947802Y-73052855D01*
X137802001Y-73021865D01*
X137762646Y-73013500D01*
X137573354Y-73013500D01*
X137540897Y-73020398D01*
X137388197Y-73052855D01*
X137388192Y-73052857D01*
X137215270Y-73129848D01*
X137215265Y-73129851D01*
X137105885Y-73209321D01*
X137040079Y-73232801D01*
X136972025Y-73216975D01*
X136960115Y-73209321D01*
X136850734Y-73129851D01*
X136850729Y-73129848D01*
X136677807Y-73052857D01*
X136677802Y-73052855D01*
X136532001Y-73021865D01*
X136492646Y-73013500D01*
X136303354Y-73013500D01*
X136270897Y-73020398D01*
X136118197Y-73052855D01*
X136118192Y-73052857D01*
X135945270Y-73129848D01*
X135945265Y-73129851D01*
X135792129Y-73241111D01*
X135665466Y-73381785D01*
X135570821Y-73545715D01*
X135570818Y-73545722D01*
X135514912Y-73717784D01*
X135512326Y-73725744D01*
X135492540Y-73914000D01*
X118407743Y-73914000D01*
X118397737Y-71888350D01*
X179304552Y-71888350D01*
X179324308Y-72114166D01*
X179324310Y-72114176D01*
X179382976Y-72333122D01*
X179382981Y-72333136D01*
X179478777Y-72538571D01*
X179478781Y-72538579D01*
X179608795Y-72724258D01*
X179608800Y-72724264D01*
X179769086Y-72884550D01*
X179769092Y-72884555D01*
X179954771Y-73014569D01*
X179954773Y-73014570D01*
X179954776Y-73014572D01*
X180036875Y-73052855D01*
X180160214Y-73110369D01*
X180160216Y-73110369D01*
X180160221Y-73110372D01*
X180379180Y-73169042D01*
X180559836Y-73184847D01*
X180605000Y-73188799D01*
X180605001Y-73188799D01*
X180605002Y-73188799D01*
X180642637Y-73185506D01*
X180830822Y-73169042D01*
X181049781Y-73110372D01*
X181255226Y-73014572D01*
X181440914Y-72884552D01*
X181601203Y-72724263D01*
X181731223Y-72538575D01*
X181827023Y-72333130D01*
X181885693Y-72114171D01*
X181905450Y-71888350D01*
X181885693Y-71662529D01*
X181827023Y-71443570D01*
X181731223Y-71238126D01*
X181601203Y-71052437D01*
X181440914Y-70892148D01*
X181440910Y-70892145D01*
X181440909Y-70892144D01*
X181404501Y-70866651D01*
X181360876Y-70812074D01*
X181353682Y-70742576D01*
X181385205Y-70680221D01*
X181445435Y-70644807D01*
X181462369Y-70641786D01*
X181507381Y-70636946D01*
X181642087Y-70586704D01*
X181642094Y-70586700D01*
X181757188Y-70500540D01*
X181757191Y-70500537D01*
X181843351Y-70385443D01*
X181843355Y-70385436D01*
X181893597Y-70250729D01*
X181893599Y-70250722D01*
X181900000Y-70191194D01*
X181900001Y-70191177D01*
X181900001Y-69598350D01*
X181094547Y-69598350D01*
X181143619Y-69460276D01*
X181153843Y-69310808D01*
X181123361Y-69164125D01*
X181089280Y-69098350D01*
X181900001Y-69098350D01*
X181900001Y-68505522D01*
X181900000Y-68505505D01*
X181893599Y-68445977D01*
X181893597Y-68445970D01*
X181843355Y-68311263D01*
X181843351Y-68311256D01*
X181757191Y-68196162D01*
X181757188Y-68196159D01*
X181642094Y-68109999D01*
X181642087Y-68109995D01*
X181507380Y-68059753D01*
X181507373Y-68059751D01*
X181447845Y-68053350D01*
X180855001Y-68053350D01*
X180855001Y-68862518D01*
X180824171Y-68843770D01*
X180679910Y-68803350D01*
X180567721Y-68803350D01*
X180456579Y-68818626D01*
X180355001Y-68862747D01*
X180355001Y-68053350D01*
X179762156Y-68053350D01*
X179702628Y-68059751D01*
X179702621Y-68059753D01*
X179567914Y-68109995D01*
X179567907Y-68109999D01*
X179452813Y-68196159D01*
X179452810Y-68196162D01*
X179366650Y-68311256D01*
X179366646Y-68311263D01*
X179316404Y-68445970D01*
X179316402Y-68445977D01*
X179310001Y-68505505D01*
X179310001Y-69098350D01*
X180115455Y-69098350D01*
X180066383Y-69236424D01*
X180056159Y-69385892D01*
X180086641Y-69532575D01*
X180120722Y-69598350D01*
X179310001Y-69598350D01*
X179310001Y-70191194D01*
X179316402Y-70250722D01*
X179316404Y-70250729D01*
X179366646Y-70385436D01*
X179366650Y-70385443D01*
X179452810Y-70500537D01*
X179452813Y-70500540D01*
X179567907Y-70586700D01*
X179567914Y-70586704D01*
X179702621Y-70636946D01*
X179702628Y-70636948D01*
X179747632Y-70641787D01*
X179812183Y-70668525D01*
X179852032Y-70725917D01*
X179854525Y-70795742D01*
X179818873Y-70855831D01*
X179805502Y-70866650D01*
X179769084Y-70892150D01*
X179608800Y-71052434D01*
X179478779Y-71238125D01*
X179478778Y-71238127D01*
X179382980Y-71443568D01*
X179382976Y-71443577D01*
X179324310Y-71662523D01*
X179324308Y-71662533D01*
X179304552Y-71888349D01*
X179304552Y-71888350D01*
X118397737Y-71888350D01*
X118392687Y-70866000D01*
X175556540Y-70866000D01*
X175576326Y-71054256D01*
X175576327Y-71054259D01*
X175634818Y-71234277D01*
X175634821Y-71234284D01*
X175729467Y-71398216D01*
X175856129Y-71538888D01*
X176009265Y-71650148D01*
X176009270Y-71650151D01*
X176182192Y-71727142D01*
X176182197Y-71727144D01*
X176367354Y-71766500D01*
X176367355Y-71766500D01*
X176556644Y-71766500D01*
X176556646Y-71766500D01*
X176741803Y-71727144D01*
X176914730Y-71650151D01*
X177067871Y-71538888D01*
X177194533Y-71398216D01*
X177289179Y-71234284D01*
X177347674Y-71054256D01*
X177367460Y-70866000D01*
X177347674Y-70677744D01*
X177289179Y-70497716D01*
X177194533Y-70333784D01*
X177067871Y-70193112D01*
X177065208Y-70191177D01*
X176914734Y-70081851D01*
X176914729Y-70081848D01*
X176741807Y-70004857D01*
X176741802Y-70004855D01*
X176596001Y-69973865D01*
X176556646Y-69965500D01*
X176367354Y-69965500D01*
X176334897Y-69972398D01*
X176182197Y-70004855D01*
X176182192Y-70004857D01*
X176009270Y-70081848D01*
X176009265Y-70081851D01*
X175856129Y-70193111D01*
X175729466Y-70333785D01*
X175634821Y-70497715D01*
X175634818Y-70497722D01*
X175588009Y-70641787D01*
X175576326Y-70677744D01*
X175556540Y-70866000D01*
X118392687Y-70866000D01*
X118387952Y-69907332D01*
X172576540Y-69907332D01*
X172596326Y-70095588D01*
X172596327Y-70095591D01*
X172654818Y-70275609D01*
X172654821Y-70275616D01*
X172749467Y-70439548D01*
X172804382Y-70500537D01*
X172876129Y-70580220D01*
X173029265Y-70691480D01*
X173029270Y-70691483D01*
X173202192Y-70768474D01*
X173202197Y-70768476D01*
X173387354Y-70807832D01*
X173387355Y-70807832D01*
X173576644Y-70807832D01*
X173576646Y-70807832D01*
X173761803Y-70768476D01*
X173934730Y-70691483D01*
X174087871Y-70580220D01*
X174214533Y-70439548D01*
X174309179Y-70275616D01*
X174367674Y-70095588D01*
X174387460Y-69907332D01*
X174367674Y-69719076D01*
X174309179Y-69539048D01*
X174214533Y-69375116D01*
X174087871Y-69234444D01*
X174087870Y-69234443D01*
X173934734Y-69123183D01*
X173934729Y-69123180D01*
X173761807Y-69046189D01*
X173761802Y-69046187D01*
X173616001Y-69015197D01*
X173576646Y-69006832D01*
X173387354Y-69006832D01*
X173354897Y-69013730D01*
X173202197Y-69046187D01*
X173202192Y-69046189D01*
X173029270Y-69123180D01*
X173029265Y-69123183D01*
X172876129Y-69234443D01*
X172749466Y-69375117D01*
X172654821Y-69539047D01*
X172654818Y-69539054D01*
X172596327Y-69719072D01*
X172596326Y-69719076D01*
X172576540Y-69907332D01*
X118387952Y-69907332D01*
X118379083Y-68111870D01*
X135190166Y-68111870D01*
X135190167Y-68111876D01*
X135196574Y-68171483D01*
X135246868Y-68306328D01*
X135246872Y-68306335D01*
X135333118Y-68421544D01*
X135333121Y-68421547D01*
X135448330Y-68507793D01*
X135448337Y-68507797D01*
X135583183Y-68558091D01*
X135583182Y-68558091D01*
X135590110Y-68558835D01*
X135642793Y-68564500D01*
X137246538Y-68564499D01*
X137306149Y-68558091D01*
X137440997Y-68507796D01*
X137556212Y-68421546D01*
X137642462Y-68306331D01*
X137692757Y-68171483D01*
X137699166Y-68111873D01*
X137699165Y-68054545D01*
X137718848Y-67987509D01*
X137771652Y-67941753D01*
X137840810Y-67931809D01*
X137904366Y-67960833D01*
X137924739Y-67983422D01*
X138019992Y-68119457D01*
X138019993Y-68119458D01*
X138175207Y-68274672D01*
X138175213Y-68274677D01*
X138355015Y-68400576D01*
X138355017Y-68400577D01*
X138355020Y-68400579D01*
X138553963Y-68493347D01*
X138765992Y-68550161D01*
X138922187Y-68563826D01*
X138984664Y-68569292D01*
X138984666Y-68569292D01*
X138984668Y-68569292D01*
X139039463Y-68564498D01*
X139203340Y-68550161D01*
X139415369Y-68493347D01*
X139614312Y-68400579D01*
X139794123Y-68274674D01*
X139949340Y-68119457D01*
X140075245Y-67939646D01*
X140142284Y-67795878D01*
X140188456Y-67743439D01*
X140255649Y-67724287D01*
X140322530Y-67744502D01*
X140367047Y-67795878D01*
X140406039Y-67879497D01*
X140434085Y-67939642D01*
X140434089Y-67939650D01*
X140559988Y-68119452D01*
X140559993Y-68119458D01*
X140715207Y-68274672D01*
X140715213Y-68274677D01*
X140895015Y-68400576D01*
X140895017Y-68400577D01*
X140895020Y-68400579D01*
X141093963Y-68493347D01*
X141305992Y-68550161D01*
X141462187Y-68563826D01*
X141524664Y-68569292D01*
X141524666Y-68569292D01*
X141524668Y-68569292D01*
X141579463Y-68564498D01*
X141743340Y-68550161D01*
X141955369Y-68493347D01*
X142154312Y-68400579D01*
X142334123Y-68274674D01*
X142489340Y-68119457D01*
X142615245Y-67939646D01*
X142682284Y-67795878D01*
X142728456Y-67743439D01*
X142795649Y-67724287D01*
X142862530Y-67744502D01*
X142907047Y-67795878D01*
X142946039Y-67879497D01*
X142974085Y-67939642D01*
X142974089Y-67939650D01*
X143099988Y-68119452D01*
X143099993Y-68119458D01*
X143255207Y-68274672D01*
X143255213Y-68274677D01*
X143435015Y-68400576D01*
X143435017Y-68400577D01*
X143435020Y-68400579D01*
X143633963Y-68493347D01*
X143845992Y-68550161D01*
X144002187Y-68563826D01*
X144064664Y-68569292D01*
X144064666Y-68569292D01*
X144064668Y-68569292D01*
X144119463Y-68564498D01*
X144283340Y-68550161D01*
X144495369Y-68493347D01*
X144694312Y-68400579D01*
X144874123Y-68274674D01*
X145029340Y-68119457D01*
X145155245Y-67939646D01*
X145222284Y-67795878D01*
X145268456Y-67743439D01*
X145335649Y-67724287D01*
X145402530Y-67744502D01*
X145447047Y-67795878D01*
X145486039Y-67879497D01*
X145514085Y-67939642D01*
X145514089Y-67939650D01*
X145639988Y-68119452D01*
X145639993Y-68119458D01*
X145795207Y-68274672D01*
X145795213Y-68274677D01*
X145975015Y-68400576D01*
X145975017Y-68400577D01*
X145975020Y-68400579D01*
X146173963Y-68493347D01*
X146385992Y-68550161D01*
X146542187Y-68563826D01*
X146604664Y-68569292D01*
X146604666Y-68569292D01*
X146604668Y-68569292D01*
X146659463Y-68564498D01*
X146823340Y-68550161D01*
X147035369Y-68493347D01*
X147234312Y-68400579D01*
X147414123Y-68274674D01*
X147569340Y-68119457D01*
X147695245Y-67939646D01*
X147762559Y-67795288D01*
X147808731Y-67742849D01*
X147875924Y-67723697D01*
X147942805Y-67743912D01*
X147987323Y-67795288D01*
X148054521Y-67939393D01*
X148054522Y-67939395D01*
X148098668Y-68002442D01*
X148098669Y-68002443D01*
X148661588Y-67439523D01*
X148685173Y-67519844D01*
X148762905Y-67640798D01*
X148871566Y-67734952D01*
X149002351Y-67794680D01*
X149012132Y-67796086D01*
X148452221Y-68355996D01*
X148515270Y-68400143D01*
X148515272Y-68400144D01*
X148714132Y-68492875D01*
X148714141Y-68492878D01*
X148926073Y-68549664D01*
X148926083Y-68549666D01*
X149144665Y-68568790D01*
X149144667Y-68568790D01*
X149363248Y-68549666D01*
X149363258Y-68549664D01*
X149575190Y-68492878D01*
X149575199Y-68492874D01*
X149774058Y-68400145D01*
X149837109Y-68355996D01*
X149277200Y-67796086D01*
X149286981Y-67794680D01*
X149417766Y-67734952D01*
X149526427Y-67640798D01*
X149604159Y-67519844D01*
X149627742Y-67439523D01*
X150190662Y-68002443D01*
X150234812Y-67939390D01*
X150302008Y-67795289D01*
X150348180Y-67742849D01*
X150415373Y-67723697D01*
X150482255Y-67743913D01*
X150526772Y-67795288D01*
X150594087Y-67939646D01*
X150594089Y-67939650D01*
X150719988Y-68119452D01*
X150719993Y-68119458D01*
X150875207Y-68274672D01*
X150875213Y-68274677D01*
X151055015Y-68400576D01*
X151055017Y-68400577D01*
X151055020Y-68400579D01*
X151253963Y-68493347D01*
X151465992Y-68550161D01*
X151622187Y-68563826D01*
X151684664Y-68569292D01*
X151684666Y-68569292D01*
X151684668Y-68569292D01*
X151739463Y-68564498D01*
X151903340Y-68550161D01*
X152115369Y-68493347D01*
X152314312Y-68400579D01*
X152494123Y-68274674D01*
X152649340Y-68119457D01*
X152775245Y-67939646D01*
X152842284Y-67795878D01*
X152888456Y-67743439D01*
X152955649Y-67724287D01*
X153022530Y-67744502D01*
X153067047Y-67795878D01*
X153106039Y-67879497D01*
X153134085Y-67939642D01*
X153134089Y-67939650D01*
X153259988Y-68119452D01*
X153259993Y-68119458D01*
X153415207Y-68274672D01*
X153415213Y-68274677D01*
X153595015Y-68400576D01*
X153595017Y-68400577D01*
X153595020Y-68400579D01*
X153793963Y-68493347D01*
X154005992Y-68550161D01*
X154162187Y-68563826D01*
X154224664Y-68569292D01*
X154224666Y-68569292D01*
X154224668Y-68569292D01*
X154279463Y-68564498D01*
X154443340Y-68550161D01*
X154655369Y-68493347D01*
X154854312Y-68400579D01*
X155034123Y-68274674D01*
X155189340Y-68119457D01*
X155194652Y-68111870D01*
X156198832Y-68111870D01*
X156198833Y-68111876D01*
X156205240Y-68171483D01*
X156255534Y-68306328D01*
X156255538Y-68306335D01*
X156341784Y-68421544D01*
X156341787Y-68421547D01*
X156456996Y-68507793D01*
X156457003Y-68507797D01*
X156591849Y-68558091D01*
X156591848Y-68558091D01*
X156598776Y-68558835D01*
X156651459Y-68564500D01*
X158255204Y-68564499D01*
X158314815Y-68558091D01*
X158449663Y-68507796D01*
X158564878Y-68421546D01*
X158651128Y-68306331D01*
X158701423Y-68171483D01*
X158707832Y-68111873D01*
X158707831Y-68054545D01*
X158727514Y-67987509D01*
X158780318Y-67941753D01*
X158849476Y-67931809D01*
X158913032Y-67960833D01*
X158933405Y-67983422D01*
X159028658Y-68119457D01*
X159028659Y-68119458D01*
X159183873Y-68274672D01*
X159183879Y-68274677D01*
X159363681Y-68400576D01*
X159363683Y-68400577D01*
X159363686Y-68400579D01*
X159562629Y-68493347D01*
X159774658Y-68550161D01*
X159930853Y-68563826D01*
X159993330Y-68569292D01*
X159993332Y-68569292D01*
X159993334Y-68569292D01*
X160048129Y-68564498D01*
X160212006Y-68550161D01*
X160424035Y-68493347D01*
X160622978Y-68400579D01*
X160802789Y-68274674D01*
X160958006Y-68119457D01*
X161083911Y-67939646D01*
X161150950Y-67795878D01*
X161197122Y-67743439D01*
X161264315Y-67724287D01*
X161331196Y-67744502D01*
X161375713Y-67795878D01*
X161414705Y-67879497D01*
X161442751Y-67939642D01*
X161442755Y-67939650D01*
X161568654Y-68119452D01*
X161568659Y-68119458D01*
X161723873Y-68274672D01*
X161723879Y-68274677D01*
X161903681Y-68400576D01*
X161903683Y-68400577D01*
X161903686Y-68400579D01*
X162102629Y-68493347D01*
X162314658Y-68550161D01*
X162470853Y-68563826D01*
X162533330Y-68569292D01*
X162533332Y-68569292D01*
X162533334Y-68569292D01*
X162588129Y-68564498D01*
X162752006Y-68550161D01*
X162964035Y-68493347D01*
X163162978Y-68400579D01*
X163342789Y-68274674D01*
X163498006Y-68119457D01*
X163623911Y-67939646D01*
X163690950Y-67795878D01*
X163737122Y-67743439D01*
X163804315Y-67724287D01*
X163871196Y-67744502D01*
X163915713Y-67795878D01*
X163954705Y-67879497D01*
X163982751Y-67939642D01*
X163982755Y-67939650D01*
X164108654Y-68119452D01*
X164108659Y-68119458D01*
X164263873Y-68274672D01*
X164263879Y-68274677D01*
X164443681Y-68400576D01*
X164443683Y-68400577D01*
X164443686Y-68400579D01*
X164642629Y-68493347D01*
X164854658Y-68550161D01*
X165010853Y-68563826D01*
X165073330Y-68569292D01*
X165073332Y-68569292D01*
X165073334Y-68569292D01*
X165128129Y-68564498D01*
X165292006Y-68550161D01*
X165504035Y-68493347D01*
X165702978Y-68400579D01*
X165882789Y-68274674D01*
X166038006Y-68119457D01*
X166163911Y-67939646D01*
X166230950Y-67795878D01*
X166277122Y-67743439D01*
X166344315Y-67724287D01*
X166411196Y-67744502D01*
X166455713Y-67795878D01*
X166494705Y-67879497D01*
X166522751Y-67939642D01*
X166522755Y-67939650D01*
X166648654Y-68119452D01*
X166648659Y-68119458D01*
X166803873Y-68274672D01*
X166803879Y-68274677D01*
X166983681Y-68400576D01*
X166983683Y-68400577D01*
X166983686Y-68400579D01*
X167182629Y-68493347D01*
X167394658Y-68550161D01*
X167550853Y-68563826D01*
X167613330Y-68569292D01*
X167613332Y-68569292D01*
X167613334Y-68569292D01*
X167668129Y-68564498D01*
X167832006Y-68550161D01*
X168044035Y-68493347D01*
X168242978Y-68400579D01*
X168422789Y-68274674D01*
X168578006Y-68119457D01*
X168703911Y-67939646D01*
X168771225Y-67795288D01*
X168817397Y-67742849D01*
X168884590Y-67723697D01*
X168951471Y-67743912D01*
X168995989Y-67795288D01*
X169063187Y-67939393D01*
X169063188Y-67939395D01*
X169107334Y-68002442D01*
X169107335Y-68002443D01*
X169670254Y-67439523D01*
X169693839Y-67519844D01*
X169771571Y-67640798D01*
X169880232Y-67734952D01*
X170011017Y-67794680D01*
X170020798Y-67796086D01*
X169460887Y-68355996D01*
X169523936Y-68400143D01*
X169523938Y-68400144D01*
X169722798Y-68492875D01*
X169722807Y-68492878D01*
X169934739Y-68549664D01*
X169934749Y-68549666D01*
X170153331Y-68568790D01*
X170153333Y-68568790D01*
X170371914Y-68549666D01*
X170371924Y-68549664D01*
X170583856Y-68492878D01*
X170583865Y-68492874D01*
X170782724Y-68400145D01*
X170845775Y-68355996D01*
X170285866Y-67796086D01*
X170295647Y-67794680D01*
X170426432Y-67734952D01*
X170535093Y-67640798D01*
X170612825Y-67519844D01*
X170636408Y-67439523D01*
X171199328Y-68002443D01*
X171243478Y-67939390D01*
X171310674Y-67795289D01*
X171356846Y-67742849D01*
X171424039Y-67723697D01*
X171490921Y-67743913D01*
X171535438Y-67795288D01*
X171602753Y-67939646D01*
X171602755Y-67939650D01*
X171728654Y-68119452D01*
X171728659Y-68119458D01*
X171883873Y-68274672D01*
X171883879Y-68274677D01*
X172063681Y-68400576D01*
X172063683Y-68400577D01*
X172063686Y-68400579D01*
X172262629Y-68493347D01*
X172474658Y-68550161D01*
X172630853Y-68563826D01*
X172693330Y-68569292D01*
X172693332Y-68569292D01*
X172693334Y-68569292D01*
X172748129Y-68564498D01*
X172912006Y-68550161D01*
X173124035Y-68493347D01*
X173322978Y-68400579D01*
X173502789Y-68274674D01*
X173658006Y-68119457D01*
X173783911Y-67939646D01*
X173850950Y-67795878D01*
X173897122Y-67743439D01*
X173964315Y-67724287D01*
X174031196Y-67744502D01*
X174075713Y-67795878D01*
X174114705Y-67879497D01*
X174142751Y-67939642D01*
X174142755Y-67939650D01*
X174268654Y-68119452D01*
X174268659Y-68119458D01*
X174423873Y-68274672D01*
X174423879Y-68274677D01*
X174603681Y-68400576D01*
X174603683Y-68400577D01*
X174603686Y-68400579D01*
X174802629Y-68493347D01*
X175014658Y-68550161D01*
X175170853Y-68563826D01*
X175233330Y-68569292D01*
X175233332Y-68569292D01*
X175233334Y-68569292D01*
X175288129Y-68564498D01*
X175452006Y-68550161D01*
X175664035Y-68493347D01*
X175862978Y-68400579D01*
X176042789Y-68274674D01*
X176198006Y-68119457D01*
X176323911Y-67939646D01*
X176416679Y-67740703D01*
X176473493Y-67528674D01*
X176492624Y-67310000D01*
X176473493Y-67091326D01*
X176416679Y-66879297D01*
X176323911Y-66680354D01*
X176323909Y-66680351D01*
X176323908Y-66680349D01*
X176198009Y-66500547D01*
X176198004Y-66500541D01*
X176042790Y-66345327D01*
X176042784Y-66345322D01*
X175862982Y-66219423D01*
X175862974Y-66219419D01*
X175664040Y-66126655D01*
X175664038Y-66126654D01*
X175664035Y-66126653D01*
X175513217Y-66086240D01*
X175452007Y-66069839D01*
X175452000Y-66069838D01*
X175233334Y-66050708D01*
X175233330Y-66050708D01*
X175014663Y-66069838D01*
X175014656Y-66069839D01*
X174892234Y-66102642D01*
X174802629Y-66126653D01*
X174802627Y-66126653D01*
X174802623Y-66126655D01*
X174603689Y-66219419D01*
X174603681Y-66219423D01*
X174423879Y-66345322D01*
X174423873Y-66345327D01*
X174268659Y-66500541D01*
X174268654Y-66500547D01*
X174142755Y-66680349D01*
X174142751Y-66680357D01*
X174075714Y-66824120D01*
X174029542Y-66876560D01*
X173962349Y-66895712D01*
X173895467Y-66875496D01*
X173850950Y-66824120D01*
X173823364Y-66764963D01*
X173783911Y-66680354D01*
X173783909Y-66680351D01*
X173783908Y-66680349D01*
X173658009Y-66500547D01*
X173658004Y-66500541D01*
X173502790Y-66345327D01*
X173502784Y-66345322D01*
X173322982Y-66219423D01*
X173322974Y-66219419D01*
X173124040Y-66126655D01*
X173124038Y-66126654D01*
X173124035Y-66126653D01*
X172973217Y-66086240D01*
X172912007Y-66069839D01*
X172912000Y-66069838D01*
X172693334Y-66050708D01*
X172693330Y-66050708D01*
X172474663Y-66069838D01*
X172474656Y-66069839D01*
X172352234Y-66102642D01*
X172262629Y-66126653D01*
X172262627Y-66126653D01*
X172262623Y-66126655D01*
X172063689Y-66219419D01*
X172063681Y-66219423D01*
X171883879Y-66345322D01*
X171883873Y-66345327D01*
X171728659Y-66500541D01*
X171728654Y-66500547D01*
X171602755Y-66680349D01*
X171602753Y-66680353D01*
X171535438Y-66824711D01*
X171489265Y-66877150D01*
X171422072Y-66896302D01*
X171355191Y-66876086D01*
X171310674Y-66824711D01*
X171243476Y-66680606D01*
X171243475Y-66680604D01*
X171199328Y-66617556D01*
X171199328Y-66617555D01*
X170636408Y-67180475D01*
X170612825Y-67100156D01*
X170535093Y-66979202D01*
X170426432Y-66885048D01*
X170295647Y-66825320D01*
X170285865Y-66823913D01*
X170845775Y-66264003D01*
X170845774Y-66264002D01*
X170782727Y-66219856D01*
X170782725Y-66219855D01*
X170583865Y-66127124D01*
X170583856Y-66127121D01*
X170371924Y-66070335D01*
X170371914Y-66070333D01*
X170153333Y-66051210D01*
X170153331Y-66051210D01*
X169934749Y-66070333D01*
X169934739Y-66070335D01*
X169722807Y-66127121D01*
X169722798Y-66127124D01*
X169523934Y-66219857D01*
X169460887Y-66264001D01*
X170020799Y-66823913D01*
X170011017Y-66825320D01*
X169880232Y-66885048D01*
X169771571Y-66979202D01*
X169693839Y-67100156D01*
X169670254Y-67180476D01*
X169107333Y-66617555D01*
X169063190Y-66680600D01*
X168995989Y-66824712D01*
X168949816Y-66877151D01*
X168882622Y-66896302D01*
X168815741Y-66876086D01*
X168771225Y-66824710D01*
X168752014Y-66783513D01*
X168703911Y-66680354D01*
X168703909Y-66680351D01*
X168703908Y-66680349D01*
X168578009Y-66500547D01*
X168578004Y-66500541D01*
X168422790Y-66345327D01*
X168422784Y-66345322D01*
X168242982Y-66219423D01*
X168242974Y-66219419D01*
X168044040Y-66126655D01*
X168044038Y-66126654D01*
X168044035Y-66126653D01*
X167893217Y-66086240D01*
X167832007Y-66069839D01*
X167832000Y-66069838D01*
X167613334Y-66050708D01*
X167613330Y-66050708D01*
X167394663Y-66069838D01*
X167394656Y-66069839D01*
X167272234Y-66102642D01*
X167182629Y-66126653D01*
X167182627Y-66126653D01*
X167182623Y-66126655D01*
X166983689Y-66219419D01*
X166983681Y-66219423D01*
X166803879Y-66345322D01*
X166803873Y-66345327D01*
X166648659Y-66500541D01*
X166648654Y-66500547D01*
X166522755Y-66680349D01*
X166522751Y-66680357D01*
X166455714Y-66824120D01*
X166409542Y-66876560D01*
X166342349Y-66895712D01*
X166275467Y-66875496D01*
X166230950Y-66824120D01*
X166203364Y-66764963D01*
X166163911Y-66680354D01*
X166163909Y-66680351D01*
X166163908Y-66680349D01*
X166038009Y-66500547D01*
X166038004Y-66500541D01*
X165882790Y-66345327D01*
X165882784Y-66345322D01*
X165702982Y-66219423D01*
X165702974Y-66219419D01*
X165504040Y-66126655D01*
X165504038Y-66126654D01*
X165504035Y-66126653D01*
X165353217Y-66086240D01*
X165292007Y-66069839D01*
X165292000Y-66069838D01*
X165073334Y-66050708D01*
X165073330Y-66050708D01*
X164854663Y-66069838D01*
X164854656Y-66069839D01*
X164732234Y-66102642D01*
X164642629Y-66126653D01*
X164642627Y-66126653D01*
X164642623Y-66126655D01*
X164443689Y-66219419D01*
X164443681Y-66219423D01*
X164263879Y-66345322D01*
X164263873Y-66345327D01*
X164108659Y-66500541D01*
X164108654Y-66500547D01*
X163982755Y-66680349D01*
X163982751Y-66680357D01*
X163915714Y-66824120D01*
X163869542Y-66876560D01*
X163802349Y-66895712D01*
X163735467Y-66875496D01*
X163690950Y-66824120D01*
X163663364Y-66764963D01*
X163623911Y-66680354D01*
X163623909Y-66680351D01*
X163623908Y-66680349D01*
X163498009Y-66500547D01*
X163498004Y-66500541D01*
X163342790Y-66345327D01*
X163342784Y-66345322D01*
X163162982Y-66219423D01*
X163162974Y-66219419D01*
X162964040Y-66126655D01*
X162964038Y-66126654D01*
X162964035Y-66126653D01*
X162813217Y-66086240D01*
X162752007Y-66069839D01*
X162752000Y-66069838D01*
X162533334Y-66050708D01*
X162533330Y-66050708D01*
X162314663Y-66069838D01*
X162314656Y-66069839D01*
X162192234Y-66102642D01*
X162102629Y-66126653D01*
X162102627Y-66126653D01*
X162102623Y-66126655D01*
X161903689Y-66219419D01*
X161903681Y-66219423D01*
X161723879Y-66345322D01*
X161723873Y-66345327D01*
X161568659Y-66500541D01*
X161568654Y-66500547D01*
X161442755Y-66680349D01*
X161442751Y-66680357D01*
X161375714Y-66824120D01*
X161329542Y-66876560D01*
X161262349Y-66895712D01*
X161195467Y-66875496D01*
X161150950Y-66824120D01*
X161123364Y-66764963D01*
X161083911Y-66680354D01*
X161083909Y-66680351D01*
X161083908Y-66680349D01*
X160958009Y-66500547D01*
X160958004Y-66500541D01*
X160802790Y-66345327D01*
X160802784Y-66345322D01*
X160622982Y-66219423D01*
X160622974Y-66219419D01*
X160424040Y-66126655D01*
X160424038Y-66126654D01*
X160424035Y-66126653D01*
X160273217Y-66086240D01*
X160212007Y-66069839D01*
X160212000Y-66069838D01*
X159993334Y-66050708D01*
X159993330Y-66050708D01*
X159774663Y-66069838D01*
X159774656Y-66069839D01*
X159652234Y-66102642D01*
X159562629Y-66126653D01*
X159562627Y-66126653D01*
X159562623Y-66126655D01*
X159363689Y-66219419D01*
X159363681Y-66219423D01*
X159183879Y-66345322D01*
X159183873Y-66345327D01*
X159028659Y-66500541D01*
X159028658Y-66500543D01*
X158933406Y-66636577D01*
X158878829Y-66680201D01*
X158809330Y-66687394D01*
X158746976Y-66655872D01*
X158711562Y-66595642D01*
X158707831Y-66565453D01*
X158707831Y-66508129D01*
X158707830Y-66508123D01*
X158707829Y-66508116D01*
X158701423Y-66448517D01*
X158662935Y-66345326D01*
X158651129Y-66313671D01*
X158651125Y-66313664D01*
X158564879Y-66198455D01*
X158564876Y-66198452D01*
X158449667Y-66112206D01*
X158449660Y-66112202D01*
X158314814Y-66061908D01*
X158314815Y-66061908D01*
X158255215Y-66055501D01*
X158255213Y-66055500D01*
X158255205Y-66055500D01*
X158255196Y-66055500D01*
X156651461Y-66055500D01*
X156651455Y-66055501D01*
X156591848Y-66061908D01*
X156457003Y-66112202D01*
X156456996Y-66112206D01*
X156341787Y-66198452D01*
X156341784Y-66198455D01*
X156255538Y-66313664D01*
X156255534Y-66313671D01*
X156205240Y-66448517D01*
X156199647Y-66500543D01*
X156198833Y-66508123D01*
X156198832Y-66508135D01*
X156198832Y-68111870D01*
X155194652Y-68111870D01*
X155315245Y-67939646D01*
X155408013Y-67740703D01*
X155464827Y-67528674D01*
X155483958Y-67310000D01*
X155464827Y-67091326D01*
X155408013Y-66879297D01*
X155315245Y-66680354D01*
X155315243Y-66680351D01*
X155315242Y-66680349D01*
X155189343Y-66500547D01*
X155189338Y-66500541D01*
X155034124Y-66345327D01*
X155034118Y-66345322D01*
X154854316Y-66219423D01*
X154854308Y-66219419D01*
X154655374Y-66126655D01*
X154655372Y-66126654D01*
X154655369Y-66126653D01*
X154504551Y-66086240D01*
X154443341Y-66069839D01*
X154443334Y-66069838D01*
X154224668Y-66050708D01*
X154224664Y-66050708D01*
X154005997Y-66069838D01*
X154005990Y-66069839D01*
X153883568Y-66102642D01*
X153793963Y-66126653D01*
X153793961Y-66126653D01*
X153793957Y-66126655D01*
X153595023Y-66219419D01*
X153595015Y-66219423D01*
X153415213Y-66345322D01*
X153415207Y-66345327D01*
X153259993Y-66500541D01*
X153259988Y-66500547D01*
X153134089Y-66680349D01*
X153134085Y-66680357D01*
X153067048Y-66824120D01*
X153020876Y-66876560D01*
X152953683Y-66895712D01*
X152886801Y-66875496D01*
X152842284Y-66824120D01*
X152814698Y-66764963D01*
X152775245Y-66680354D01*
X152775243Y-66680351D01*
X152775242Y-66680349D01*
X152649343Y-66500547D01*
X152649338Y-66500541D01*
X152494124Y-66345327D01*
X152494118Y-66345322D01*
X152314316Y-66219423D01*
X152314308Y-66219419D01*
X152115374Y-66126655D01*
X152115372Y-66126654D01*
X152115369Y-66126653D01*
X151964551Y-66086240D01*
X151903341Y-66069839D01*
X151903334Y-66069838D01*
X151684668Y-66050708D01*
X151684664Y-66050708D01*
X151465997Y-66069838D01*
X151465990Y-66069839D01*
X151343568Y-66102642D01*
X151253963Y-66126653D01*
X151253961Y-66126653D01*
X151253957Y-66126655D01*
X151055023Y-66219419D01*
X151055015Y-66219423D01*
X150875213Y-66345322D01*
X150875207Y-66345327D01*
X150719993Y-66500541D01*
X150719988Y-66500547D01*
X150594089Y-66680349D01*
X150594087Y-66680353D01*
X150526772Y-66824711D01*
X150480599Y-66877150D01*
X150413406Y-66896302D01*
X150346525Y-66876086D01*
X150302008Y-66824711D01*
X150234810Y-66680606D01*
X150234809Y-66680604D01*
X150190662Y-66617556D01*
X150190662Y-66617555D01*
X149627742Y-67180475D01*
X149604159Y-67100156D01*
X149526427Y-66979202D01*
X149417766Y-66885048D01*
X149286981Y-66825320D01*
X149277199Y-66823913D01*
X149837109Y-66264003D01*
X149837108Y-66264002D01*
X149774061Y-66219856D01*
X149774059Y-66219855D01*
X149575199Y-66127124D01*
X149575190Y-66127121D01*
X149363258Y-66070335D01*
X149363248Y-66070333D01*
X149144667Y-66051210D01*
X149144665Y-66051210D01*
X148926083Y-66070333D01*
X148926073Y-66070335D01*
X148714141Y-66127121D01*
X148714132Y-66127124D01*
X148515268Y-66219857D01*
X148452221Y-66264001D01*
X149012133Y-66823913D01*
X149002351Y-66825320D01*
X148871566Y-66885048D01*
X148762905Y-66979202D01*
X148685173Y-67100156D01*
X148661588Y-67180476D01*
X148098667Y-66617555D01*
X148054524Y-66680600D01*
X147987323Y-66824712D01*
X147941150Y-66877151D01*
X147873956Y-66896302D01*
X147807075Y-66876086D01*
X147762559Y-66824710D01*
X147743348Y-66783513D01*
X147695245Y-66680354D01*
X147695243Y-66680351D01*
X147695242Y-66680349D01*
X147569343Y-66500547D01*
X147569338Y-66500541D01*
X147414124Y-66345327D01*
X147414118Y-66345322D01*
X147234316Y-66219423D01*
X147234308Y-66219419D01*
X147035374Y-66126655D01*
X147035372Y-66126654D01*
X147035369Y-66126653D01*
X146884551Y-66086240D01*
X146823341Y-66069839D01*
X146823334Y-66069838D01*
X146604668Y-66050708D01*
X146604664Y-66050708D01*
X146385997Y-66069838D01*
X146385990Y-66069839D01*
X146263568Y-66102642D01*
X146173963Y-66126653D01*
X146173961Y-66126653D01*
X146173957Y-66126655D01*
X145975023Y-66219419D01*
X145975015Y-66219423D01*
X145795213Y-66345322D01*
X145795207Y-66345327D01*
X145639993Y-66500541D01*
X145639988Y-66500547D01*
X145514089Y-66680349D01*
X145514085Y-66680357D01*
X145447048Y-66824120D01*
X145400876Y-66876560D01*
X145333683Y-66895712D01*
X145266801Y-66875496D01*
X145222284Y-66824120D01*
X145194698Y-66764963D01*
X145155245Y-66680354D01*
X145155243Y-66680351D01*
X145155242Y-66680349D01*
X145029343Y-66500547D01*
X145029338Y-66500541D01*
X144874124Y-66345327D01*
X144874118Y-66345322D01*
X144694316Y-66219423D01*
X144694308Y-66219419D01*
X144495374Y-66126655D01*
X144495372Y-66126654D01*
X144495369Y-66126653D01*
X144344551Y-66086240D01*
X144283341Y-66069839D01*
X144283334Y-66069838D01*
X144064668Y-66050708D01*
X144064664Y-66050708D01*
X143845997Y-66069838D01*
X143845990Y-66069839D01*
X143723568Y-66102642D01*
X143633963Y-66126653D01*
X143633961Y-66126653D01*
X143633957Y-66126655D01*
X143435023Y-66219419D01*
X143435015Y-66219423D01*
X143255213Y-66345322D01*
X143255207Y-66345327D01*
X143099993Y-66500541D01*
X143099988Y-66500547D01*
X142974089Y-66680349D01*
X142974085Y-66680357D01*
X142907048Y-66824120D01*
X142860876Y-66876560D01*
X142793683Y-66895712D01*
X142726801Y-66875496D01*
X142682284Y-66824120D01*
X142654698Y-66764963D01*
X142615245Y-66680354D01*
X142615243Y-66680351D01*
X142615242Y-66680349D01*
X142489343Y-66500547D01*
X142489338Y-66500541D01*
X142334124Y-66345327D01*
X142334118Y-66345322D01*
X142154316Y-66219423D01*
X142154308Y-66219419D01*
X141955374Y-66126655D01*
X141955372Y-66126654D01*
X141955369Y-66126653D01*
X141804551Y-66086240D01*
X141743341Y-66069839D01*
X141743334Y-66069838D01*
X141524668Y-66050708D01*
X141524664Y-66050708D01*
X141305997Y-66069838D01*
X141305990Y-66069839D01*
X141183568Y-66102642D01*
X141093963Y-66126653D01*
X141093961Y-66126653D01*
X141093957Y-66126655D01*
X140895023Y-66219419D01*
X140895015Y-66219423D01*
X140715213Y-66345322D01*
X140715207Y-66345327D01*
X140559993Y-66500541D01*
X140559988Y-66500547D01*
X140434089Y-66680349D01*
X140434085Y-66680357D01*
X140367048Y-66824120D01*
X140320876Y-66876560D01*
X140253683Y-66895712D01*
X140186801Y-66875496D01*
X140142284Y-66824120D01*
X140114698Y-66764963D01*
X140075245Y-66680354D01*
X140075243Y-66680351D01*
X140075242Y-66680349D01*
X139949343Y-66500547D01*
X139949338Y-66500541D01*
X139794124Y-66345327D01*
X139794118Y-66345322D01*
X139614316Y-66219423D01*
X139614308Y-66219419D01*
X139415374Y-66126655D01*
X139415372Y-66126654D01*
X139415369Y-66126653D01*
X139264551Y-66086240D01*
X139203341Y-66069839D01*
X139203334Y-66069838D01*
X138984668Y-66050708D01*
X138984664Y-66050708D01*
X138765997Y-66069838D01*
X138765990Y-66069839D01*
X138643568Y-66102642D01*
X138553963Y-66126653D01*
X138553961Y-66126653D01*
X138553957Y-66126655D01*
X138355023Y-66219419D01*
X138355015Y-66219423D01*
X138175213Y-66345322D01*
X138175207Y-66345327D01*
X138019993Y-66500541D01*
X138019992Y-66500543D01*
X137924740Y-66636577D01*
X137870163Y-66680201D01*
X137800664Y-66687394D01*
X137738310Y-66655872D01*
X137702896Y-66595642D01*
X137699165Y-66565453D01*
X137699165Y-66508129D01*
X137699164Y-66508123D01*
X137699163Y-66508116D01*
X137692757Y-66448517D01*
X137654269Y-66345326D01*
X137642463Y-66313671D01*
X137642459Y-66313664D01*
X137556213Y-66198455D01*
X137556210Y-66198452D01*
X137441001Y-66112206D01*
X137440994Y-66112202D01*
X137306148Y-66061908D01*
X137306149Y-66061908D01*
X137246549Y-66055501D01*
X137246547Y-66055500D01*
X137246539Y-66055500D01*
X137246530Y-66055500D01*
X135642795Y-66055500D01*
X135642789Y-66055501D01*
X135583182Y-66061908D01*
X135448337Y-66112202D01*
X135448330Y-66112206D01*
X135333121Y-66198452D01*
X135333118Y-66198455D01*
X135246872Y-66313664D01*
X135246868Y-66313671D01*
X135196574Y-66448517D01*
X135190981Y-66500543D01*
X135190167Y-66508123D01*
X135190166Y-66508135D01*
X135190166Y-68111870D01*
X118379083Y-68111870D01*
X118353705Y-62973966D01*
X122935500Y-62973966D01*
X122950936Y-63150403D01*
X122950938Y-63150413D01*
X123012094Y-63378655D01*
X123012096Y-63378659D01*
X123012097Y-63378663D01*
X123036000Y-63429922D01*
X123111964Y-63592828D01*
X123111965Y-63592830D01*
X123247505Y-63786402D01*
X123414597Y-63953493D01*
X123414599Y-63953495D01*
X123457675Y-63983657D01*
X123608165Y-64089032D01*
X123608167Y-64089033D01*
X123608170Y-64089035D01*
X123822337Y-64188903D01*
X124050592Y-64250063D01*
X124227034Y-64265500D01*
X124285999Y-64270659D01*
X124286000Y-64270659D01*
X124286001Y-64270659D01*
X124344966Y-64265500D01*
X124521408Y-64250063D01*
X124749663Y-64188903D01*
X124963829Y-64089035D01*
X125157401Y-63953495D01*
X125324495Y-63786401D01*
X125434426Y-63629401D01*
X125489001Y-63585778D01*
X125558500Y-63578584D01*
X125620855Y-63610106D01*
X125637571Y-63629398D01*
X125664457Y-63667795D01*
X125747506Y-63786403D01*
X125914597Y-63953493D01*
X125914599Y-63953495D01*
X125957675Y-63983657D01*
X126108165Y-64089032D01*
X126108167Y-64089033D01*
X126108170Y-64089035D01*
X126322337Y-64188903D01*
X126550592Y-64250063D01*
X126727034Y-64265500D01*
X126785999Y-64270659D01*
X126786000Y-64270659D01*
X126786001Y-64270659D01*
X126844966Y-64265500D01*
X127021408Y-64250063D01*
X127249663Y-64188903D01*
X127463829Y-64089035D01*
X127657401Y-63953495D01*
X127824495Y-63786401D01*
X127934426Y-63629401D01*
X127989001Y-63585778D01*
X128058500Y-63578584D01*
X128120855Y-63610106D01*
X128137571Y-63629398D01*
X128164457Y-63667795D01*
X128247506Y-63786403D01*
X128414597Y-63953493D01*
X128414599Y-63953495D01*
X128457675Y-63983657D01*
X128608165Y-64089032D01*
X128608167Y-64089033D01*
X128608170Y-64089035D01*
X128822337Y-64188903D01*
X129050592Y-64250063D01*
X129227034Y-64265500D01*
X129285999Y-64270659D01*
X129286000Y-64270659D01*
X129286001Y-64270659D01*
X129344966Y-64265500D01*
X129521408Y-64250063D01*
X129749663Y-64188903D01*
X129963829Y-64089035D01*
X130157401Y-63953495D01*
X130304602Y-63806293D01*
X130365924Y-63772810D01*
X130435615Y-63777794D01*
X130491549Y-63819665D01*
X130497821Y-63828879D01*
X130501186Y-63834334D01*
X130593288Y-63983656D01*
X130717344Y-64107712D01*
X130866666Y-64199814D01*
X131033203Y-64254999D01*
X131135991Y-64265500D01*
X132436008Y-64265499D01*
X132538797Y-64254999D01*
X132705334Y-64199814D01*
X132854656Y-64107712D01*
X132978712Y-63983656D01*
X133070814Y-63834334D01*
X133125999Y-63667797D01*
X133136500Y-63565009D01*
X133136500Y-62973966D01*
X178541500Y-62973966D01*
X178556936Y-63150403D01*
X178556938Y-63150413D01*
X178618094Y-63378655D01*
X178618096Y-63378659D01*
X178618097Y-63378663D01*
X178642000Y-63429922D01*
X178717964Y-63592828D01*
X178717965Y-63592830D01*
X178853505Y-63786402D01*
X179020597Y-63953493D01*
X179020599Y-63953495D01*
X179063675Y-63983657D01*
X179214165Y-64089032D01*
X179214167Y-64089033D01*
X179214170Y-64089035D01*
X179428337Y-64188903D01*
X179656592Y-64250063D01*
X179833034Y-64265500D01*
X179891999Y-64270659D01*
X179892000Y-64270659D01*
X179892001Y-64270659D01*
X179950966Y-64265500D01*
X180127408Y-64250063D01*
X180355663Y-64188903D01*
X180569829Y-64089035D01*
X180763401Y-63953495D01*
X180930495Y-63786401D01*
X181040426Y-63629401D01*
X181095001Y-63585778D01*
X181164500Y-63578584D01*
X181226855Y-63610106D01*
X181243571Y-63629398D01*
X181270457Y-63667795D01*
X181353506Y-63786403D01*
X181520597Y-63953493D01*
X181520599Y-63953495D01*
X181563675Y-63983657D01*
X181714165Y-64089032D01*
X181714167Y-64089033D01*
X181714170Y-64089035D01*
X181928337Y-64188903D01*
X182156592Y-64250063D01*
X182333034Y-64265500D01*
X182391999Y-64270659D01*
X182392000Y-64270659D01*
X182392001Y-64270659D01*
X182450966Y-64265500D01*
X182627408Y-64250063D01*
X182855663Y-64188903D01*
X183069829Y-64089035D01*
X183263401Y-63953495D01*
X183430495Y-63786401D01*
X183540426Y-63629401D01*
X183595001Y-63585778D01*
X183664500Y-63578584D01*
X183726855Y-63610106D01*
X183743571Y-63629398D01*
X183770457Y-63667795D01*
X183853506Y-63786403D01*
X184020597Y-63953493D01*
X184020599Y-63953495D01*
X184063675Y-63983657D01*
X184214165Y-64089032D01*
X184214167Y-64089033D01*
X184214170Y-64089035D01*
X184428337Y-64188903D01*
X184656592Y-64250063D01*
X184833034Y-64265500D01*
X184891999Y-64270659D01*
X184892000Y-64270659D01*
X184892001Y-64270659D01*
X184950966Y-64265500D01*
X185127408Y-64250063D01*
X185355663Y-64188903D01*
X185569829Y-64089035D01*
X185763401Y-63953495D01*
X185910602Y-63806293D01*
X185971924Y-63772810D01*
X186041615Y-63777794D01*
X186097549Y-63819665D01*
X186103821Y-63828879D01*
X186107186Y-63834334D01*
X186199288Y-63983656D01*
X186323344Y-64107712D01*
X186472666Y-64199814D01*
X186639203Y-64254999D01*
X186741991Y-64265500D01*
X188042008Y-64265499D01*
X188144797Y-64254999D01*
X188311334Y-64199814D01*
X188460656Y-64107712D01*
X188584712Y-63983656D01*
X188676814Y-63834334D01*
X188731999Y-63667797D01*
X188742500Y-63565009D01*
X188742499Y-62014992D01*
X188731999Y-61912203D01*
X188676814Y-61745666D01*
X188584712Y-61596344D01*
X188460656Y-61472288D01*
X188367888Y-61415069D01*
X188311336Y-61380187D01*
X188311331Y-61380185D01*
X188309862Y-61379698D01*
X188144797Y-61325001D01*
X188144795Y-61325000D01*
X188042010Y-61314500D01*
X186741998Y-61314500D01*
X186741981Y-61314501D01*
X186639203Y-61325000D01*
X186639200Y-61325001D01*
X186472668Y-61380185D01*
X186472663Y-61380187D01*
X186323342Y-61472289D01*
X186199289Y-61596342D01*
X186103821Y-61751121D01*
X186051873Y-61797845D01*
X185982910Y-61809068D01*
X185918828Y-61781224D01*
X185910601Y-61773705D01*
X185763402Y-61626506D01*
X185763395Y-61626501D01*
X185569834Y-61490967D01*
X185569830Y-61490965D01*
X185529777Y-61472288D01*
X185355663Y-61391097D01*
X185355659Y-61391096D01*
X185355655Y-61391094D01*
X185127413Y-61329938D01*
X185127403Y-61329936D01*
X184892001Y-61309341D01*
X184891999Y-61309341D01*
X184656596Y-61329936D01*
X184656586Y-61329938D01*
X184428344Y-61391094D01*
X184428335Y-61391098D01*
X184214171Y-61490964D01*
X184214169Y-61490965D01*
X184020597Y-61626505D01*
X183853505Y-61793597D01*
X183743575Y-61950595D01*
X183688998Y-61994220D01*
X183619500Y-62001414D01*
X183557145Y-61969891D01*
X183540425Y-61950595D01*
X183430494Y-61793597D01*
X183263402Y-61626506D01*
X183263395Y-61626501D01*
X183069834Y-61490967D01*
X183069830Y-61490965D01*
X183029777Y-61472288D01*
X182855663Y-61391097D01*
X182855659Y-61391096D01*
X182855655Y-61391094D01*
X182627413Y-61329938D01*
X182627403Y-61329936D01*
X182392001Y-61309341D01*
X182391999Y-61309341D01*
X182156596Y-61329936D01*
X182156586Y-61329938D01*
X181928344Y-61391094D01*
X181928335Y-61391098D01*
X181714171Y-61490964D01*
X181714169Y-61490965D01*
X181520597Y-61626505D01*
X181353505Y-61793597D01*
X181243575Y-61950595D01*
X181188998Y-61994220D01*
X181119500Y-62001414D01*
X181057145Y-61969891D01*
X181040425Y-61950595D01*
X180930494Y-61793597D01*
X180763402Y-61626506D01*
X180763395Y-61626501D01*
X180569834Y-61490967D01*
X180569830Y-61490965D01*
X180529777Y-61472288D01*
X180355663Y-61391097D01*
X180355659Y-61391096D01*
X180355655Y-61391094D01*
X180127413Y-61329938D01*
X180127403Y-61329936D01*
X179892001Y-61309341D01*
X179891999Y-61309341D01*
X179656596Y-61329936D01*
X179656586Y-61329938D01*
X179428344Y-61391094D01*
X179428335Y-61391098D01*
X179214171Y-61490964D01*
X179214169Y-61490965D01*
X179020597Y-61626505D01*
X178853505Y-61793597D01*
X178717965Y-61987169D01*
X178717964Y-61987171D01*
X178618098Y-62201335D01*
X178618094Y-62201344D01*
X178556938Y-62429586D01*
X178556936Y-62429596D01*
X178541500Y-62606034D01*
X178541500Y-62973966D01*
X133136500Y-62973966D01*
X133136499Y-62014992D01*
X133125999Y-61912203D01*
X133070814Y-61745666D01*
X132978712Y-61596344D01*
X132854656Y-61472288D01*
X132761888Y-61415069D01*
X132705336Y-61380187D01*
X132705331Y-61380185D01*
X132703862Y-61379698D01*
X132538797Y-61325001D01*
X132538795Y-61325000D01*
X132436010Y-61314500D01*
X131135998Y-61314500D01*
X131135981Y-61314501D01*
X131033203Y-61325000D01*
X131033200Y-61325001D01*
X130866668Y-61380185D01*
X130866663Y-61380187D01*
X130717342Y-61472289D01*
X130593289Y-61596342D01*
X130497821Y-61751121D01*
X130445873Y-61797845D01*
X130376910Y-61809068D01*
X130312828Y-61781224D01*
X130304601Y-61773705D01*
X130157402Y-61626506D01*
X130157395Y-61626501D01*
X129963834Y-61490967D01*
X129963830Y-61490965D01*
X129923777Y-61472288D01*
X129749663Y-61391097D01*
X129749659Y-61391096D01*
X129749655Y-61391094D01*
X129521413Y-61329938D01*
X129521403Y-61329936D01*
X129286001Y-61309341D01*
X129285999Y-61309341D01*
X129050596Y-61329936D01*
X129050586Y-61329938D01*
X128822344Y-61391094D01*
X128822335Y-61391098D01*
X128608171Y-61490964D01*
X128608169Y-61490965D01*
X128414597Y-61626505D01*
X128247505Y-61793597D01*
X128137575Y-61950595D01*
X128082998Y-61994220D01*
X128013500Y-62001414D01*
X127951145Y-61969891D01*
X127934425Y-61950595D01*
X127824494Y-61793597D01*
X127657402Y-61626506D01*
X127657395Y-61626501D01*
X127463834Y-61490967D01*
X127463830Y-61490965D01*
X127423777Y-61472288D01*
X127249663Y-61391097D01*
X127249659Y-61391096D01*
X127249655Y-61391094D01*
X127021413Y-61329938D01*
X127021403Y-61329936D01*
X126786001Y-61309341D01*
X126785999Y-61309341D01*
X126550596Y-61329936D01*
X126550586Y-61329938D01*
X126322344Y-61391094D01*
X126322335Y-61391098D01*
X126108171Y-61490964D01*
X126108169Y-61490965D01*
X125914597Y-61626505D01*
X125747505Y-61793597D01*
X125637575Y-61950595D01*
X125582998Y-61994220D01*
X125513500Y-62001414D01*
X125451145Y-61969891D01*
X125434425Y-61950595D01*
X125324494Y-61793597D01*
X125157402Y-61626506D01*
X125157395Y-61626501D01*
X124963834Y-61490967D01*
X124963830Y-61490965D01*
X124923777Y-61472288D01*
X124749663Y-61391097D01*
X124749659Y-61391096D01*
X124749655Y-61391094D01*
X124521413Y-61329938D01*
X124521403Y-61329936D01*
X124286001Y-61309341D01*
X124285999Y-61309341D01*
X124050596Y-61329936D01*
X124050586Y-61329938D01*
X123822344Y-61391094D01*
X123822335Y-61391098D01*
X123608171Y-61490964D01*
X123608169Y-61490965D01*
X123414597Y-61626505D01*
X123247505Y-61793597D01*
X123111965Y-61987169D01*
X123111964Y-61987171D01*
X123012098Y-62201335D01*
X123012094Y-62201344D01*
X122950938Y-62429586D01*
X122950936Y-62429596D01*
X122935500Y-62606034D01*
X122935500Y-62973966D01*
X118353705Y-62973966D01*
X118312392Y-54610002D01*
X135185374Y-54610002D01*
X135204497Y-54828592D01*
X135204505Y-54828674D01*
X135261319Y-55040703D01*
X135261320Y-55040706D01*
X135261321Y-55040708D01*
X135354085Y-55239642D01*
X135354089Y-55239650D01*
X135479988Y-55419452D01*
X135479993Y-55419458D01*
X135635207Y-55574672D01*
X135635213Y-55574677D01*
X135815015Y-55700576D01*
X135815017Y-55700577D01*
X135815020Y-55700579D01*
X136013963Y-55793347D01*
X136225992Y-55850161D01*
X136382187Y-55863826D01*
X136444664Y-55869292D01*
X136444666Y-55869292D01*
X136444668Y-55869292D01*
X136499334Y-55864509D01*
X136663340Y-55850161D01*
X136875369Y-55793347D01*
X137074312Y-55700579D01*
X137254123Y-55574674D01*
X137409340Y-55419457D01*
X137535245Y-55239646D01*
X137602559Y-55095288D01*
X137648731Y-55042849D01*
X137715924Y-55023697D01*
X137782805Y-55043912D01*
X137827323Y-55095288D01*
X137894521Y-55239393D01*
X137894522Y-55239395D01*
X137938668Y-55302442D01*
X137938669Y-55302443D01*
X138501588Y-54739523D01*
X138525173Y-54819844D01*
X138602905Y-54940798D01*
X138711566Y-55034952D01*
X138842351Y-55094680D01*
X138852132Y-55096086D01*
X138292221Y-55655996D01*
X138355270Y-55700143D01*
X138355272Y-55700144D01*
X138554132Y-55792875D01*
X138554141Y-55792878D01*
X138766073Y-55849664D01*
X138766083Y-55849666D01*
X138984665Y-55868790D01*
X138984667Y-55868790D01*
X139203248Y-55849666D01*
X139203258Y-55849664D01*
X139415190Y-55792878D01*
X139415199Y-55792874D01*
X139614058Y-55700145D01*
X139677109Y-55655996D01*
X139117200Y-55096086D01*
X139126981Y-55094680D01*
X139257766Y-55034952D01*
X139366427Y-54940798D01*
X139444159Y-54819844D01*
X139467742Y-54739523D01*
X140030662Y-55302443D01*
X140074812Y-55239390D01*
X140142008Y-55095289D01*
X140188180Y-55042849D01*
X140255373Y-55023697D01*
X140322255Y-55043913D01*
X140366772Y-55095288D01*
X140434087Y-55239646D01*
X140434089Y-55239650D01*
X140559988Y-55419452D01*
X140559993Y-55419458D01*
X140715207Y-55574672D01*
X140715213Y-55574677D01*
X140895015Y-55700576D01*
X140895017Y-55700577D01*
X140895020Y-55700579D01*
X141093963Y-55793347D01*
X141305992Y-55850161D01*
X141462187Y-55863826D01*
X141524664Y-55869292D01*
X141524666Y-55869292D01*
X141524668Y-55869292D01*
X141579334Y-55864509D01*
X141743340Y-55850161D01*
X141955369Y-55793347D01*
X142154312Y-55700579D01*
X142334123Y-55574674D01*
X142489340Y-55419457D01*
X142615245Y-55239646D01*
X142682284Y-55095878D01*
X142728456Y-55043439D01*
X142795649Y-55024287D01*
X142862530Y-55044502D01*
X142907047Y-55095878D01*
X142946039Y-55179497D01*
X142974085Y-55239642D01*
X142974089Y-55239650D01*
X143099988Y-55419452D01*
X143099993Y-55419458D01*
X143255207Y-55574672D01*
X143255213Y-55574677D01*
X143435015Y-55700576D01*
X143435017Y-55700577D01*
X143435020Y-55700579D01*
X143633963Y-55793347D01*
X143845992Y-55850161D01*
X144002187Y-55863826D01*
X144064664Y-55869292D01*
X144064666Y-55869292D01*
X144064668Y-55869292D01*
X144119334Y-55864509D01*
X144283340Y-55850161D01*
X144495369Y-55793347D01*
X144694312Y-55700579D01*
X144874123Y-55574674D01*
X145029340Y-55419457D01*
X145155245Y-55239646D01*
X145222284Y-55095878D01*
X145268456Y-55043439D01*
X145335649Y-55024287D01*
X145402530Y-55044502D01*
X145447047Y-55095878D01*
X145486039Y-55179497D01*
X145514085Y-55239642D01*
X145514089Y-55239650D01*
X145639988Y-55419452D01*
X145639993Y-55419458D01*
X145795207Y-55574672D01*
X145795213Y-55574677D01*
X145975015Y-55700576D01*
X145975017Y-55700577D01*
X145975020Y-55700579D01*
X146173963Y-55793347D01*
X146385992Y-55850161D01*
X146542187Y-55863826D01*
X146604664Y-55869292D01*
X146604666Y-55869292D01*
X146604668Y-55869292D01*
X146659334Y-55864509D01*
X146823340Y-55850161D01*
X147035369Y-55793347D01*
X147234312Y-55700579D01*
X147414123Y-55574674D01*
X147569340Y-55419457D01*
X147695245Y-55239646D01*
X147762284Y-55095878D01*
X147808456Y-55043439D01*
X147875649Y-55024287D01*
X147942530Y-55044502D01*
X147987047Y-55095878D01*
X148026039Y-55179497D01*
X148054085Y-55239642D01*
X148054089Y-55239650D01*
X148179988Y-55419452D01*
X148179993Y-55419458D01*
X148335207Y-55574672D01*
X148335213Y-55574677D01*
X148515015Y-55700576D01*
X148515017Y-55700577D01*
X148515020Y-55700579D01*
X148713963Y-55793347D01*
X148925992Y-55850161D01*
X149082187Y-55863826D01*
X149144664Y-55869292D01*
X149144666Y-55869292D01*
X149144668Y-55869292D01*
X149199334Y-55864509D01*
X149363340Y-55850161D01*
X149575369Y-55793347D01*
X149774312Y-55700579D01*
X149954123Y-55574674D01*
X150109340Y-55419457D01*
X150235245Y-55239646D01*
X150302284Y-55095878D01*
X150348456Y-55043439D01*
X150415649Y-55024287D01*
X150482530Y-55044502D01*
X150527047Y-55095878D01*
X150566039Y-55179497D01*
X150594085Y-55239642D01*
X150594089Y-55239650D01*
X150719988Y-55419452D01*
X150719993Y-55419458D01*
X150875207Y-55574672D01*
X150875213Y-55574677D01*
X151055015Y-55700576D01*
X151055017Y-55700577D01*
X151055020Y-55700579D01*
X151253963Y-55793347D01*
X151465992Y-55850161D01*
X151622187Y-55863826D01*
X151684664Y-55869292D01*
X151684666Y-55869292D01*
X151684668Y-55869292D01*
X151739334Y-55864509D01*
X151903340Y-55850161D01*
X152115369Y-55793347D01*
X152314312Y-55700579D01*
X152494123Y-55574674D01*
X152649340Y-55419457D01*
X152775245Y-55239646D01*
X152842559Y-55095288D01*
X152888731Y-55042849D01*
X152955924Y-55023697D01*
X153022805Y-55043912D01*
X153067323Y-55095288D01*
X153134521Y-55239393D01*
X153134522Y-55239395D01*
X153178668Y-55302442D01*
X153178669Y-55302443D01*
X153741588Y-54739523D01*
X153765173Y-54819844D01*
X153842905Y-54940798D01*
X153951566Y-55034952D01*
X154082351Y-55094680D01*
X154092132Y-55096086D01*
X153532221Y-55655996D01*
X153595270Y-55700143D01*
X153595272Y-55700144D01*
X153794132Y-55792875D01*
X153794141Y-55792878D01*
X154006073Y-55849664D01*
X154006083Y-55849666D01*
X154224665Y-55868790D01*
X154224667Y-55868790D01*
X154443248Y-55849666D01*
X154443258Y-55849664D01*
X154655190Y-55792878D01*
X154655199Y-55792874D01*
X154854058Y-55700145D01*
X154917109Y-55655996D01*
X154357200Y-55096086D01*
X154366981Y-55094680D01*
X154497766Y-55034952D01*
X154606427Y-54940798D01*
X154684159Y-54819844D01*
X154707742Y-54739523D01*
X155270662Y-55302443D01*
X155314811Y-55239392D01*
X155407540Y-55040533D01*
X155407544Y-55040524D01*
X155464330Y-54828592D01*
X155464332Y-54828582D01*
X155483456Y-54610002D01*
X156194040Y-54610002D01*
X156213163Y-54828592D01*
X156213171Y-54828674D01*
X156269985Y-55040703D01*
X156269986Y-55040706D01*
X156269987Y-55040708D01*
X156362751Y-55239642D01*
X156362755Y-55239650D01*
X156488654Y-55419452D01*
X156488659Y-55419458D01*
X156643873Y-55574672D01*
X156643879Y-55574677D01*
X156823681Y-55700576D01*
X156823683Y-55700577D01*
X156823686Y-55700579D01*
X157022629Y-55793347D01*
X157234658Y-55850161D01*
X157390853Y-55863826D01*
X157453330Y-55869292D01*
X157453332Y-55869292D01*
X157453334Y-55869292D01*
X157508000Y-55864509D01*
X157672006Y-55850161D01*
X157884035Y-55793347D01*
X158082978Y-55700579D01*
X158262789Y-55574674D01*
X158418006Y-55419457D01*
X158543911Y-55239646D01*
X158611225Y-55095288D01*
X158657397Y-55042849D01*
X158724590Y-55023697D01*
X158791471Y-55043912D01*
X158835989Y-55095288D01*
X158903187Y-55239393D01*
X158903188Y-55239395D01*
X158947334Y-55302442D01*
X158947335Y-55302443D01*
X159510254Y-54739523D01*
X159533839Y-54819844D01*
X159611571Y-54940798D01*
X159720232Y-55034952D01*
X159851017Y-55094680D01*
X159860798Y-55096086D01*
X159300887Y-55655996D01*
X159363936Y-55700143D01*
X159363938Y-55700144D01*
X159562798Y-55792875D01*
X159562807Y-55792878D01*
X159774739Y-55849664D01*
X159774749Y-55849666D01*
X159993331Y-55868790D01*
X159993333Y-55868790D01*
X160211914Y-55849666D01*
X160211924Y-55849664D01*
X160423856Y-55792878D01*
X160423865Y-55792874D01*
X160622724Y-55700145D01*
X160685775Y-55655996D01*
X160125866Y-55096086D01*
X160135647Y-55094680D01*
X160266432Y-55034952D01*
X160375093Y-54940798D01*
X160452825Y-54819844D01*
X160476408Y-54739523D01*
X161039328Y-55302443D01*
X161083478Y-55239390D01*
X161150674Y-55095289D01*
X161196846Y-55042849D01*
X161264039Y-55023697D01*
X161330921Y-55043913D01*
X161375438Y-55095288D01*
X161442753Y-55239646D01*
X161442755Y-55239650D01*
X161568654Y-55419452D01*
X161568659Y-55419458D01*
X161723873Y-55574672D01*
X161723879Y-55574677D01*
X161903681Y-55700576D01*
X161903683Y-55700577D01*
X161903686Y-55700579D01*
X162102629Y-55793347D01*
X162314658Y-55850161D01*
X162470853Y-55863826D01*
X162533330Y-55869292D01*
X162533332Y-55869292D01*
X162533334Y-55869292D01*
X162588000Y-55864509D01*
X162752006Y-55850161D01*
X162964035Y-55793347D01*
X163162978Y-55700579D01*
X163342789Y-55574674D01*
X163498006Y-55419457D01*
X163623911Y-55239646D01*
X163690950Y-55095878D01*
X163737122Y-55043439D01*
X163804315Y-55024287D01*
X163871196Y-55044502D01*
X163915713Y-55095878D01*
X163954705Y-55179497D01*
X163982751Y-55239642D01*
X163982755Y-55239650D01*
X164108654Y-55419452D01*
X164108659Y-55419458D01*
X164263873Y-55574672D01*
X164263879Y-55574677D01*
X164443681Y-55700576D01*
X164443683Y-55700577D01*
X164443686Y-55700579D01*
X164642629Y-55793347D01*
X164854658Y-55850161D01*
X165010853Y-55863826D01*
X165073330Y-55869292D01*
X165073332Y-55869292D01*
X165073334Y-55869292D01*
X165128000Y-55864509D01*
X165292006Y-55850161D01*
X165504035Y-55793347D01*
X165702978Y-55700579D01*
X165882789Y-55574674D01*
X166038006Y-55419457D01*
X166163911Y-55239646D01*
X166230950Y-55095878D01*
X166277122Y-55043439D01*
X166344315Y-55024287D01*
X166411196Y-55044502D01*
X166455713Y-55095878D01*
X166494705Y-55179497D01*
X166522751Y-55239642D01*
X166522755Y-55239650D01*
X166648654Y-55419452D01*
X166648659Y-55419458D01*
X166803873Y-55574672D01*
X166803879Y-55574677D01*
X166983681Y-55700576D01*
X166983683Y-55700577D01*
X166983686Y-55700579D01*
X167182629Y-55793347D01*
X167394658Y-55850161D01*
X167550853Y-55863826D01*
X167613330Y-55869292D01*
X167613332Y-55869292D01*
X167613334Y-55869292D01*
X167668000Y-55864509D01*
X167832006Y-55850161D01*
X168044035Y-55793347D01*
X168242978Y-55700579D01*
X168422789Y-55574674D01*
X168578006Y-55419457D01*
X168703911Y-55239646D01*
X168770950Y-55095878D01*
X168817122Y-55043439D01*
X168884315Y-55024287D01*
X168951196Y-55044502D01*
X168995713Y-55095878D01*
X169034705Y-55179497D01*
X169062751Y-55239642D01*
X169062755Y-55239650D01*
X169188654Y-55419452D01*
X169188659Y-55419458D01*
X169343873Y-55574672D01*
X169343879Y-55574677D01*
X169523681Y-55700576D01*
X169523683Y-55700577D01*
X169523686Y-55700579D01*
X169722629Y-55793347D01*
X169934658Y-55850161D01*
X170090853Y-55863826D01*
X170153330Y-55869292D01*
X170153332Y-55869292D01*
X170153334Y-55869292D01*
X170208000Y-55864509D01*
X170372006Y-55850161D01*
X170584035Y-55793347D01*
X170782978Y-55700579D01*
X170962789Y-55574674D01*
X171118006Y-55419457D01*
X171243911Y-55239646D01*
X171310950Y-55095878D01*
X171357122Y-55043439D01*
X171424315Y-55024287D01*
X171491196Y-55044502D01*
X171535713Y-55095878D01*
X171574705Y-55179497D01*
X171602751Y-55239642D01*
X171602755Y-55239650D01*
X171728654Y-55419452D01*
X171728659Y-55419458D01*
X171883873Y-55574672D01*
X171883879Y-55574677D01*
X172063681Y-55700576D01*
X172063683Y-55700577D01*
X172063686Y-55700579D01*
X172262629Y-55793347D01*
X172474658Y-55850161D01*
X172630853Y-55863826D01*
X172693330Y-55869292D01*
X172693332Y-55869292D01*
X172693334Y-55869292D01*
X172748000Y-55864509D01*
X172912006Y-55850161D01*
X173124035Y-55793347D01*
X173322978Y-55700579D01*
X173502789Y-55574674D01*
X173658006Y-55419457D01*
X173783911Y-55239646D01*
X173851225Y-55095288D01*
X173897397Y-55042849D01*
X173964590Y-55023697D01*
X174031471Y-55043912D01*
X174075989Y-55095288D01*
X174143187Y-55239393D01*
X174143188Y-55239395D01*
X174187334Y-55302442D01*
X174187335Y-55302443D01*
X174750254Y-54739523D01*
X174773839Y-54819844D01*
X174851571Y-54940798D01*
X174960232Y-55034952D01*
X175091017Y-55094680D01*
X175100798Y-55096086D01*
X174540887Y-55655996D01*
X174603936Y-55700143D01*
X174603938Y-55700144D01*
X174802798Y-55792875D01*
X174802807Y-55792878D01*
X175014739Y-55849664D01*
X175014749Y-55849666D01*
X175233331Y-55868790D01*
X175233333Y-55868790D01*
X175451914Y-55849666D01*
X175451924Y-55849664D01*
X175663856Y-55792878D01*
X175663865Y-55792874D01*
X175862724Y-55700145D01*
X175925775Y-55655996D01*
X175365866Y-55096086D01*
X175375647Y-55094680D01*
X175506432Y-55034952D01*
X175615093Y-54940798D01*
X175692825Y-54819844D01*
X175716408Y-54739523D01*
X176279328Y-55302443D01*
X176323477Y-55239392D01*
X176416206Y-55040533D01*
X176416210Y-55040524D01*
X176472996Y-54828592D01*
X176472998Y-54828582D01*
X176492122Y-54610000D01*
X176492122Y-54609999D01*
X176472998Y-54391417D01*
X176472996Y-54391407D01*
X176416210Y-54179475D01*
X176416207Y-54179466D01*
X176323476Y-53980606D01*
X176323475Y-53980604D01*
X176279328Y-53917556D01*
X176279328Y-53917555D01*
X175716408Y-54480475D01*
X175692825Y-54400156D01*
X175615093Y-54279202D01*
X175506432Y-54185048D01*
X175375647Y-54125320D01*
X175365865Y-54123913D01*
X175925775Y-53564003D01*
X175925774Y-53564002D01*
X175862727Y-53519856D01*
X175862725Y-53519855D01*
X175663865Y-53427124D01*
X175663856Y-53427121D01*
X175451924Y-53370335D01*
X175451914Y-53370333D01*
X175233333Y-53351210D01*
X175233331Y-53351210D01*
X175014749Y-53370333D01*
X175014739Y-53370335D01*
X174802807Y-53427121D01*
X174802798Y-53427124D01*
X174603934Y-53519857D01*
X174540887Y-53564001D01*
X175100799Y-54123913D01*
X175091017Y-54125320D01*
X174960232Y-54185048D01*
X174851571Y-54279202D01*
X174773839Y-54400156D01*
X174750254Y-54480476D01*
X174187333Y-53917555D01*
X174143190Y-53980600D01*
X174075989Y-54124712D01*
X174029816Y-54177151D01*
X173962622Y-54196302D01*
X173895741Y-54176086D01*
X173851225Y-54124710D01*
X173832014Y-54083513D01*
X173783911Y-53980354D01*
X173783909Y-53980351D01*
X173783908Y-53980349D01*
X173658009Y-53800547D01*
X173658004Y-53800541D01*
X173502790Y-53645327D01*
X173502784Y-53645322D01*
X173322982Y-53519423D01*
X173322974Y-53519419D01*
X173124040Y-53426655D01*
X173124038Y-53426654D01*
X173124035Y-53426653D01*
X172973217Y-53386240D01*
X172912007Y-53369839D01*
X172912000Y-53369838D01*
X172693334Y-53350708D01*
X172693330Y-53350708D01*
X172474663Y-53369838D01*
X172474656Y-53369839D01*
X172352234Y-53402642D01*
X172262629Y-53426653D01*
X172262627Y-53426653D01*
X172262623Y-53426655D01*
X172063689Y-53519419D01*
X172063681Y-53519423D01*
X171883879Y-53645322D01*
X171883873Y-53645327D01*
X171728659Y-53800541D01*
X171728654Y-53800547D01*
X171602755Y-53980349D01*
X171602751Y-53980357D01*
X171535714Y-54124120D01*
X171489542Y-54176560D01*
X171422349Y-54195712D01*
X171355467Y-54175496D01*
X171310950Y-54124120D01*
X171283364Y-54064963D01*
X171243911Y-53980354D01*
X171243909Y-53980351D01*
X171243908Y-53980349D01*
X171118009Y-53800547D01*
X171118004Y-53800541D01*
X170962790Y-53645327D01*
X170962784Y-53645322D01*
X170782982Y-53519423D01*
X170782974Y-53519419D01*
X170584040Y-53426655D01*
X170584038Y-53426654D01*
X170584035Y-53426653D01*
X170433217Y-53386240D01*
X170372007Y-53369839D01*
X170372000Y-53369838D01*
X170153334Y-53350708D01*
X170153330Y-53350708D01*
X169934663Y-53369838D01*
X169934656Y-53369839D01*
X169812234Y-53402642D01*
X169722629Y-53426653D01*
X169722627Y-53426653D01*
X169722623Y-53426655D01*
X169523689Y-53519419D01*
X169523681Y-53519423D01*
X169343879Y-53645322D01*
X169343873Y-53645327D01*
X169188659Y-53800541D01*
X169188654Y-53800547D01*
X169062755Y-53980349D01*
X169062751Y-53980357D01*
X168995714Y-54124120D01*
X168949542Y-54176560D01*
X168882349Y-54195712D01*
X168815467Y-54175496D01*
X168770950Y-54124120D01*
X168743364Y-54064963D01*
X168703911Y-53980354D01*
X168703909Y-53980351D01*
X168703908Y-53980349D01*
X168578009Y-53800547D01*
X168578004Y-53800541D01*
X168422790Y-53645327D01*
X168422784Y-53645322D01*
X168242982Y-53519423D01*
X168242974Y-53519419D01*
X168044040Y-53426655D01*
X168044038Y-53426654D01*
X168044035Y-53426653D01*
X167893217Y-53386240D01*
X167832007Y-53369839D01*
X167832000Y-53369838D01*
X167613334Y-53350708D01*
X167613330Y-53350708D01*
X167394663Y-53369838D01*
X167394656Y-53369839D01*
X167272234Y-53402642D01*
X167182629Y-53426653D01*
X167182627Y-53426653D01*
X167182623Y-53426655D01*
X166983689Y-53519419D01*
X166983681Y-53519423D01*
X166803879Y-53645322D01*
X166803873Y-53645327D01*
X166648659Y-53800541D01*
X166648654Y-53800547D01*
X166522755Y-53980349D01*
X166522751Y-53980357D01*
X166455714Y-54124120D01*
X166409542Y-54176560D01*
X166342349Y-54195712D01*
X166275467Y-54175496D01*
X166230950Y-54124120D01*
X166203364Y-54064963D01*
X166163911Y-53980354D01*
X166163909Y-53980351D01*
X166163908Y-53980349D01*
X166038009Y-53800547D01*
X166038004Y-53800541D01*
X165882790Y-53645327D01*
X165882784Y-53645322D01*
X165702982Y-53519423D01*
X165702974Y-53519419D01*
X165504040Y-53426655D01*
X165504038Y-53426654D01*
X165504035Y-53426653D01*
X165353217Y-53386240D01*
X165292007Y-53369839D01*
X165292000Y-53369838D01*
X165073334Y-53350708D01*
X165073330Y-53350708D01*
X164854663Y-53369838D01*
X164854656Y-53369839D01*
X164732234Y-53402642D01*
X164642629Y-53426653D01*
X164642627Y-53426653D01*
X164642623Y-53426655D01*
X164443689Y-53519419D01*
X164443681Y-53519423D01*
X164263879Y-53645322D01*
X164263873Y-53645327D01*
X164108659Y-53800541D01*
X164108654Y-53800547D01*
X163982755Y-53980349D01*
X163982751Y-53980357D01*
X163915714Y-54124120D01*
X163869542Y-54176560D01*
X163802349Y-54195712D01*
X163735467Y-54175496D01*
X163690950Y-54124120D01*
X163663364Y-54064963D01*
X163623911Y-53980354D01*
X163623909Y-53980351D01*
X163623908Y-53980349D01*
X163498009Y-53800547D01*
X163498004Y-53800541D01*
X163342790Y-53645327D01*
X163342784Y-53645322D01*
X163162982Y-53519423D01*
X163162974Y-53519419D01*
X162964040Y-53426655D01*
X162964038Y-53426654D01*
X162964035Y-53426653D01*
X162813217Y-53386240D01*
X162752007Y-53369839D01*
X162752000Y-53369838D01*
X162533334Y-53350708D01*
X162533330Y-53350708D01*
X162314663Y-53369838D01*
X162314656Y-53369839D01*
X162192234Y-53402642D01*
X162102629Y-53426653D01*
X162102627Y-53426653D01*
X162102623Y-53426655D01*
X161903689Y-53519419D01*
X161903681Y-53519423D01*
X161723879Y-53645322D01*
X161723873Y-53645327D01*
X161568659Y-53800541D01*
X161568654Y-53800547D01*
X161442755Y-53980349D01*
X161442753Y-53980353D01*
X161375438Y-54124711D01*
X161329265Y-54177150D01*
X161262072Y-54196302D01*
X161195191Y-54176086D01*
X161150674Y-54124711D01*
X161083476Y-53980606D01*
X161083475Y-53980604D01*
X161039328Y-53917556D01*
X161039328Y-53917555D01*
X160476408Y-54480475D01*
X160452825Y-54400156D01*
X160375093Y-54279202D01*
X160266432Y-54185048D01*
X160135647Y-54125320D01*
X160125865Y-54123913D01*
X160685775Y-53564003D01*
X160685774Y-53564002D01*
X160622727Y-53519856D01*
X160622725Y-53519855D01*
X160423865Y-53427124D01*
X160423856Y-53427121D01*
X160211924Y-53370335D01*
X160211914Y-53370333D01*
X159993333Y-53351210D01*
X159993331Y-53351210D01*
X159774749Y-53370333D01*
X159774739Y-53370335D01*
X159562807Y-53427121D01*
X159562798Y-53427124D01*
X159363934Y-53519857D01*
X159300887Y-53564001D01*
X159860799Y-54123913D01*
X159851017Y-54125320D01*
X159720232Y-54185048D01*
X159611571Y-54279202D01*
X159533839Y-54400156D01*
X159510254Y-54480476D01*
X158947333Y-53917555D01*
X158903190Y-53980600D01*
X158835989Y-54124712D01*
X158789816Y-54177151D01*
X158722622Y-54196302D01*
X158655741Y-54176086D01*
X158611225Y-54124710D01*
X158592014Y-54083513D01*
X158543911Y-53980354D01*
X158543909Y-53980351D01*
X158543908Y-53980349D01*
X158418009Y-53800547D01*
X158418004Y-53800541D01*
X158262790Y-53645327D01*
X158262784Y-53645322D01*
X158082982Y-53519423D01*
X158082974Y-53519419D01*
X157884040Y-53426655D01*
X157884038Y-53426654D01*
X157884035Y-53426653D01*
X157733217Y-53386240D01*
X157672007Y-53369839D01*
X157672000Y-53369838D01*
X157453334Y-53350708D01*
X157453330Y-53350708D01*
X157234663Y-53369838D01*
X157234656Y-53369839D01*
X157112234Y-53402642D01*
X157022629Y-53426653D01*
X157022627Y-53426653D01*
X157022623Y-53426655D01*
X156823689Y-53519419D01*
X156823681Y-53519423D01*
X156643879Y-53645322D01*
X156643873Y-53645327D01*
X156488659Y-53800541D01*
X156488654Y-53800547D01*
X156362755Y-53980349D01*
X156362751Y-53980357D01*
X156269987Y-54179291D01*
X156269985Y-54179295D01*
X156269985Y-54179297D01*
X156249313Y-54256446D01*
X156213171Y-54391324D01*
X156213170Y-54391331D01*
X156194040Y-54609997D01*
X156194040Y-54610002D01*
X155483456Y-54610002D01*
X155483456Y-54610000D01*
X155483456Y-54609999D01*
X155464332Y-54391417D01*
X155464330Y-54391407D01*
X155407544Y-54179475D01*
X155407541Y-54179466D01*
X155314810Y-53980606D01*
X155314809Y-53980604D01*
X155270662Y-53917556D01*
X155270662Y-53917555D01*
X154707742Y-54480475D01*
X154684159Y-54400156D01*
X154606427Y-54279202D01*
X154497766Y-54185048D01*
X154366981Y-54125320D01*
X154357199Y-54123913D01*
X154917109Y-53564003D01*
X154917108Y-53564002D01*
X154854061Y-53519856D01*
X154854059Y-53519855D01*
X154655199Y-53427124D01*
X154655190Y-53427121D01*
X154443258Y-53370335D01*
X154443248Y-53370333D01*
X154224667Y-53351210D01*
X154224665Y-53351210D01*
X154006083Y-53370333D01*
X154006073Y-53370335D01*
X153794141Y-53427121D01*
X153794132Y-53427124D01*
X153595268Y-53519857D01*
X153532221Y-53564001D01*
X154092133Y-54123913D01*
X154082351Y-54125320D01*
X153951566Y-54185048D01*
X153842905Y-54279202D01*
X153765173Y-54400156D01*
X153741588Y-54480476D01*
X153178667Y-53917555D01*
X153134524Y-53980600D01*
X153067323Y-54124712D01*
X153021150Y-54177151D01*
X152953956Y-54196302D01*
X152887075Y-54176086D01*
X152842559Y-54124710D01*
X152823348Y-54083513D01*
X152775245Y-53980354D01*
X152775243Y-53980351D01*
X152775242Y-53980349D01*
X152649343Y-53800547D01*
X152649338Y-53800541D01*
X152494124Y-53645327D01*
X152494118Y-53645322D01*
X152314316Y-53519423D01*
X152314308Y-53519419D01*
X152115374Y-53426655D01*
X152115372Y-53426654D01*
X152115369Y-53426653D01*
X151964551Y-53386240D01*
X151903341Y-53369839D01*
X151903334Y-53369838D01*
X151684668Y-53350708D01*
X151684664Y-53350708D01*
X151465997Y-53369838D01*
X151465990Y-53369839D01*
X151343568Y-53402642D01*
X151253963Y-53426653D01*
X151253961Y-53426653D01*
X151253957Y-53426655D01*
X151055023Y-53519419D01*
X151055015Y-53519423D01*
X150875213Y-53645322D01*
X150875207Y-53645327D01*
X150719993Y-53800541D01*
X150719988Y-53800547D01*
X150594089Y-53980349D01*
X150594085Y-53980357D01*
X150527048Y-54124120D01*
X150480876Y-54176560D01*
X150413683Y-54195712D01*
X150346801Y-54175496D01*
X150302284Y-54124120D01*
X150274698Y-54064963D01*
X150235245Y-53980354D01*
X150235243Y-53980351D01*
X150235242Y-53980349D01*
X150109343Y-53800547D01*
X150109338Y-53800541D01*
X149954124Y-53645327D01*
X149954118Y-53645322D01*
X149774316Y-53519423D01*
X149774308Y-53519419D01*
X149575374Y-53426655D01*
X149575372Y-53426654D01*
X149575369Y-53426653D01*
X149424551Y-53386240D01*
X149363341Y-53369839D01*
X149363334Y-53369838D01*
X149144668Y-53350708D01*
X149144664Y-53350708D01*
X148925997Y-53369838D01*
X148925990Y-53369839D01*
X148803568Y-53402642D01*
X148713963Y-53426653D01*
X148713961Y-53426653D01*
X148713957Y-53426655D01*
X148515023Y-53519419D01*
X148515015Y-53519423D01*
X148335213Y-53645322D01*
X148335207Y-53645327D01*
X148179993Y-53800541D01*
X148179988Y-53800547D01*
X148054089Y-53980349D01*
X148054085Y-53980357D01*
X147987048Y-54124120D01*
X147940876Y-54176560D01*
X147873683Y-54195712D01*
X147806801Y-54175496D01*
X147762284Y-54124120D01*
X147734698Y-54064963D01*
X147695245Y-53980354D01*
X147695243Y-53980351D01*
X147695242Y-53980349D01*
X147569343Y-53800547D01*
X147569338Y-53800541D01*
X147414124Y-53645327D01*
X147414118Y-53645322D01*
X147234316Y-53519423D01*
X147234308Y-53519419D01*
X147035374Y-53426655D01*
X147035372Y-53426654D01*
X147035369Y-53426653D01*
X146884551Y-53386240D01*
X146823341Y-53369839D01*
X146823334Y-53369838D01*
X146604668Y-53350708D01*
X146604664Y-53350708D01*
X146385997Y-53369838D01*
X146385990Y-53369839D01*
X146263568Y-53402642D01*
X146173963Y-53426653D01*
X146173961Y-53426653D01*
X146173957Y-53426655D01*
X145975023Y-53519419D01*
X145975015Y-53519423D01*
X145795213Y-53645322D01*
X145795207Y-53645327D01*
X145639993Y-53800541D01*
X145639988Y-53800547D01*
X145514089Y-53980349D01*
X145514085Y-53980357D01*
X145447048Y-54124120D01*
X145400876Y-54176560D01*
X145333683Y-54195712D01*
X145266801Y-54175496D01*
X145222284Y-54124120D01*
X145194698Y-54064963D01*
X145155245Y-53980354D01*
X145155243Y-53980351D01*
X145155242Y-53980349D01*
X145029343Y-53800547D01*
X145029338Y-53800541D01*
X144874124Y-53645327D01*
X144874118Y-53645322D01*
X144694316Y-53519423D01*
X144694308Y-53519419D01*
X144495374Y-53426655D01*
X144495372Y-53426654D01*
X144495369Y-53426653D01*
X144344551Y-53386240D01*
X144283341Y-53369839D01*
X144283334Y-53369838D01*
X144064668Y-53350708D01*
X144064664Y-53350708D01*
X143845997Y-53369838D01*
X143845990Y-53369839D01*
X143723568Y-53402642D01*
X143633963Y-53426653D01*
X143633961Y-53426653D01*
X143633957Y-53426655D01*
X143435023Y-53519419D01*
X143435015Y-53519423D01*
X143255213Y-53645322D01*
X143255207Y-53645327D01*
X143099993Y-53800541D01*
X143099988Y-53800547D01*
X142974089Y-53980349D01*
X142974085Y-53980357D01*
X142907048Y-54124120D01*
X142860876Y-54176560D01*
X142793683Y-54195712D01*
X142726801Y-54175496D01*
X142682284Y-54124120D01*
X142654698Y-54064963D01*
X142615245Y-53980354D01*
X142615243Y-53980351D01*
X142615242Y-53980349D01*
X142489343Y-53800547D01*
X142489338Y-53800541D01*
X142334124Y-53645327D01*
X142334118Y-53645322D01*
X142154316Y-53519423D01*
X142154308Y-53519419D01*
X141955374Y-53426655D01*
X141955372Y-53426654D01*
X141955369Y-53426653D01*
X141804551Y-53386240D01*
X141743341Y-53369839D01*
X141743334Y-53369838D01*
X141524668Y-53350708D01*
X141524664Y-53350708D01*
X141305997Y-53369838D01*
X141305990Y-53369839D01*
X141183568Y-53402642D01*
X141093963Y-53426653D01*
X141093961Y-53426653D01*
X141093957Y-53426655D01*
X140895023Y-53519419D01*
X140895015Y-53519423D01*
X140715213Y-53645322D01*
X140715207Y-53645327D01*
X140559993Y-53800541D01*
X140559988Y-53800547D01*
X140434089Y-53980349D01*
X140434087Y-53980353D01*
X140366772Y-54124711D01*
X140320599Y-54177150D01*
X140253406Y-54196302D01*
X140186525Y-54176086D01*
X140142008Y-54124711D01*
X140074810Y-53980606D01*
X140074809Y-53980604D01*
X140030662Y-53917556D01*
X140030662Y-53917555D01*
X139467742Y-54480475D01*
X139444159Y-54400156D01*
X139366427Y-54279202D01*
X139257766Y-54185048D01*
X139126981Y-54125320D01*
X139117199Y-54123913D01*
X139677109Y-53564003D01*
X139677108Y-53564002D01*
X139614061Y-53519856D01*
X139614059Y-53519855D01*
X139415199Y-53427124D01*
X139415190Y-53427121D01*
X139203258Y-53370335D01*
X139203248Y-53370333D01*
X138984667Y-53351210D01*
X138984665Y-53351210D01*
X138766083Y-53370333D01*
X138766073Y-53370335D01*
X138554141Y-53427121D01*
X138554132Y-53427124D01*
X138355268Y-53519857D01*
X138292221Y-53564001D01*
X138852133Y-54123913D01*
X138842351Y-54125320D01*
X138711566Y-54185048D01*
X138602905Y-54279202D01*
X138525173Y-54400156D01*
X138501588Y-54480476D01*
X137938667Y-53917555D01*
X137894524Y-53980600D01*
X137827323Y-54124712D01*
X137781150Y-54177151D01*
X137713956Y-54196302D01*
X137647075Y-54176086D01*
X137602559Y-54124710D01*
X137583348Y-54083513D01*
X137535245Y-53980354D01*
X137535243Y-53980351D01*
X137535242Y-53980349D01*
X137409343Y-53800547D01*
X137409338Y-53800541D01*
X137254124Y-53645327D01*
X137254118Y-53645322D01*
X137074316Y-53519423D01*
X137074308Y-53519419D01*
X136875374Y-53426655D01*
X136875372Y-53426654D01*
X136875369Y-53426653D01*
X136724551Y-53386240D01*
X136663341Y-53369839D01*
X136663334Y-53369838D01*
X136444668Y-53350708D01*
X136444664Y-53350708D01*
X136225997Y-53369838D01*
X136225990Y-53369839D01*
X136103568Y-53402642D01*
X136013963Y-53426653D01*
X136013961Y-53426653D01*
X136013957Y-53426655D01*
X135815023Y-53519419D01*
X135815015Y-53519423D01*
X135635213Y-53645322D01*
X135635207Y-53645327D01*
X135479993Y-53800541D01*
X135479988Y-53800547D01*
X135354089Y-53980349D01*
X135354085Y-53980357D01*
X135261321Y-54179291D01*
X135261319Y-54179295D01*
X135261319Y-54179297D01*
X135240647Y-54256446D01*
X135204505Y-54391324D01*
X135204504Y-54391331D01*
X135185374Y-54609997D01*
X135185374Y-54610002D01*
X118312392Y-54610002D01*
X118308563Y-53834832D01*
X118308798Y-53829144D01*
X118312433Y-53787590D01*
X118325040Y-53659925D01*
X118328661Y-53640041D01*
X118346044Y-53575163D01*
X118374884Y-53480091D01*
X118381158Y-53463694D01*
X118398211Y-53427124D01*
X118412048Y-53397447D01*
X118413542Y-53394459D01*
X118459064Y-53309291D01*
X118462948Y-53302970D01*
X118508657Y-53237687D01*
X118511492Y-53233951D01*
X118571529Y-53160792D01*
X118575582Y-53156318D01*
X118632375Y-53099523D01*
X118636859Y-53095460D01*
X118710014Y-53035419D01*
X118713740Y-53032592D01*
X118779050Y-52986858D01*
X118785342Y-52982993D01*
X118870542Y-52937449D01*
X118873478Y-52935981D01*
X118939769Y-52905067D01*
X118956145Y-52898801D01*
X119051177Y-52869968D01*
X119116057Y-52852580D01*
X119135975Y-52848955D01*
X119267236Y-52836021D01*
X119304770Y-52832735D01*
X119310176Y-52832500D01*
X119359636Y-52832500D01*
X119359866Y-52832472D01*
X193169732Y-52795054D01*
X193175133Y-52795287D01*
G37*
%TD.AperFunction*%
%TD*%
M02*
