%TF.GenerationSoftware,KiCad,Pcbnew,7.0.8*%
%TF.CreationDate,2024-06-04T12:59:23+12:00*%
%TF.ProjectId,FYP_P2_1,4659505f-5032-45f3-912e-6b696361645f,rev?*%
%TF.SameCoordinates,Original*%
%TF.FileFunction,Legend,Bot*%
%TF.FilePolarity,Positive*%
%FSLAX46Y46*%
G04 Gerber Fmt 4.6, Leading zero omitted, Abs format (unit mm)*
G04 Created by KiCad (PCBNEW 7.0.8) date 2024-06-04 12:59:23*
%MOMM*%
%LPD*%
G01*
G04 APERTURE LIST*
%ADD10C,0.150000*%
%ADD11C,0.120000*%
G04 APERTURE END LIST*
D10*
X136098684Y-64096847D02*
X136098684Y-65525419D01*
X138574875Y-64096847D02*
X138574875Y-65525419D01*
X141051066Y-64096847D02*
X141051066Y-65525419D01*
X146574877Y-64096847D02*
X146574877Y-65525419D01*
X151336783Y-64096847D02*
X151336783Y-65525419D01*
X154574879Y-64096847D02*
X154574879Y-65525419D01*
X135098684Y-63343990D02*
X135432017Y-63343990D01*
X135574874Y-62820180D02*
X135098684Y-62820180D01*
X135098684Y-62820180D02*
X135098684Y-63820180D01*
X135098684Y-63820180D02*
X135574874Y-63820180D01*
X136003446Y-62820180D02*
X136003446Y-63820180D01*
X136003446Y-63820180D02*
X136574874Y-62820180D01*
X136574874Y-62820180D02*
X136574874Y-63820180D01*
X137812970Y-62820180D02*
X137812970Y-63820180D01*
X137812970Y-63820180D02*
X138146303Y-63105895D01*
X138146303Y-63105895D02*
X138479636Y-63820180D01*
X138479636Y-63820180D02*
X138479636Y-62820180D01*
X138908208Y-62867800D02*
X139051065Y-62820180D01*
X139051065Y-62820180D02*
X139289160Y-62820180D01*
X139289160Y-62820180D02*
X139384398Y-62867800D01*
X139384398Y-62867800D02*
X139432017Y-62915419D01*
X139432017Y-62915419D02*
X139479636Y-63010657D01*
X139479636Y-63010657D02*
X139479636Y-63105895D01*
X139479636Y-63105895D02*
X139432017Y-63201133D01*
X139432017Y-63201133D02*
X139384398Y-63248752D01*
X139384398Y-63248752D02*
X139289160Y-63296371D01*
X139289160Y-63296371D02*
X139098684Y-63343990D01*
X139098684Y-63343990D02*
X139003446Y-63391609D01*
X139003446Y-63391609D02*
X138955827Y-63439228D01*
X138955827Y-63439228D02*
X138908208Y-63534466D01*
X138908208Y-63534466D02*
X138908208Y-63629704D01*
X138908208Y-63629704D02*
X138955827Y-63724942D01*
X138955827Y-63724942D02*
X139003446Y-63772561D01*
X139003446Y-63772561D02*
X139098684Y-63820180D01*
X139098684Y-63820180D02*
X139336779Y-63820180D01*
X139336779Y-63820180D02*
X139479636Y-63772561D01*
X139860589Y-63105895D02*
X140336779Y-63105895D01*
X139765351Y-62820180D02*
X140098684Y-63820180D01*
X140098684Y-63820180D02*
X140432017Y-62820180D01*
X141527256Y-62820180D02*
X141527256Y-63820180D01*
X141527256Y-63820180D02*
X141860589Y-63105895D01*
X141860589Y-63105895D02*
X142193922Y-63820180D01*
X142193922Y-63820180D02*
X142193922Y-62820180D01*
X142622494Y-62867800D02*
X142765351Y-62820180D01*
X142765351Y-62820180D02*
X143003446Y-62820180D01*
X143003446Y-62820180D02*
X143098684Y-62867800D01*
X143098684Y-62867800D02*
X143146303Y-62915419D01*
X143146303Y-62915419D02*
X143193922Y-63010657D01*
X143193922Y-63010657D02*
X143193922Y-63105895D01*
X143193922Y-63105895D02*
X143146303Y-63201133D01*
X143146303Y-63201133D02*
X143098684Y-63248752D01*
X143098684Y-63248752D02*
X143003446Y-63296371D01*
X143003446Y-63296371D02*
X142812970Y-63343990D01*
X142812970Y-63343990D02*
X142717732Y-63391609D01*
X142717732Y-63391609D02*
X142670113Y-63439228D01*
X142670113Y-63439228D02*
X142622494Y-63534466D01*
X142622494Y-63534466D02*
X142622494Y-63629704D01*
X142622494Y-63629704D02*
X142670113Y-63724942D01*
X142670113Y-63724942D02*
X142717732Y-63772561D01*
X142717732Y-63772561D02*
X142812970Y-63820180D01*
X142812970Y-63820180D02*
X143051065Y-63820180D01*
X143051065Y-63820180D02*
X143193922Y-63772561D01*
X143955827Y-63343990D02*
X144098684Y-63296371D01*
X144098684Y-63296371D02*
X144146303Y-63248752D01*
X144146303Y-63248752D02*
X144193922Y-63153514D01*
X144193922Y-63153514D02*
X144193922Y-63010657D01*
X144193922Y-63010657D02*
X144146303Y-62915419D01*
X144146303Y-62915419D02*
X144098684Y-62867800D01*
X144098684Y-62867800D02*
X144003446Y-62820180D01*
X144003446Y-62820180D02*
X143622494Y-62820180D01*
X143622494Y-62820180D02*
X143622494Y-63820180D01*
X143622494Y-63820180D02*
X143955827Y-63820180D01*
X143955827Y-63820180D02*
X144051065Y-63772561D01*
X144051065Y-63772561D02*
X144098684Y-63724942D01*
X144098684Y-63724942D02*
X144146303Y-63629704D01*
X144146303Y-63629704D02*
X144146303Y-63534466D01*
X144146303Y-63534466D02*
X144098684Y-63439228D01*
X144098684Y-63439228D02*
X144051065Y-63391609D01*
X144051065Y-63391609D02*
X143955827Y-63343990D01*
X143955827Y-63343990D02*
X143622494Y-63343990D01*
X145384399Y-63820180D02*
X145384399Y-63010657D01*
X145384399Y-63010657D02*
X145432018Y-62915419D01*
X145432018Y-62915419D02*
X145479637Y-62867800D01*
X145479637Y-62867800D02*
X145574875Y-62820180D01*
X145574875Y-62820180D02*
X145765351Y-62820180D01*
X145765351Y-62820180D02*
X145860589Y-62867800D01*
X145860589Y-62867800D02*
X145908208Y-62915419D01*
X145908208Y-62915419D02*
X145955827Y-63010657D01*
X145955827Y-63010657D02*
X145955827Y-63820180D01*
X146384399Y-63105895D02*
X146860589Y-63105895D01*
X146289161Y-62820180D02*
X146622494Y-63820180D01*
X146622494Y-63820180D02*
X146955827Y-62820180D01*
X147860589Y-62820180D02*
X147527256Y-63296371D01*
X147289161Y-62820180D02*
X147289161Y-63820180D01*
X147289161Y-63820180D02*
X147670113Y-63820180D01*
X147670113Y-63820180D02*
X147765351Y-63772561D01*
X147765351Y-63772561D02*
X147812970Y-63724942D01*
X147812970Y-63724942D02*
X147860589Y-63629704D01*
X147860589Y-63629704D02*
X147860589Y-63486847D01*
X147860589Y-63486847D02*
X147812970Y-63391609D01*
X147812970Y-63391609D02*
X147765351Y-63343990D01*
X147765351Y-63343990D02*
X147670113Y-63296371D01*
X147670113Y-63296371D02*
X147289161Y-63296371D01*
X148146304Y-63820180D02*
X148717732Y-63820180D01*
X148432018Y-62820180D02*
X148432018Y-63820180D01*
X149765352Y-62867800D02*
X149908209Y-62820180D01*
X149908209Y-62820180D02*
X150146304Y-62820180D01*
X150146304Y-62820180D02*
X150241542Y-62867800D01*
X150241542Y-62867800D02*
X150289161Y-62915419D01*
X150289161Y-62915419D02*
X150336780Y-63010657D01*
X150336780Y-63010657D02*
X150336780Y-63105895D01*
X150336780Y-63105895D02*
X150289161Y-63201133D01*
X150289161Y-63201133D02*
X150241542Y-63248752D01*
X150241542Y-63248752D02*
X150146304Y-63296371D01*
X150146304Y-63296371D02*
X149955828Y-63343990D01*
X149955828Y-63343990D02*
X149860590Y-63391609D01*
X149860590Y-63391609D02*
X149812971Y-63439228D01*
X149812971Y-63439228D02*
X149765352Y-63534466D01*
X149765352Y-63534466D02*
X149765352Y-63629704D01*
X149765352Y-63629704D02*
X149812971Y-63724942D01*
X149812971Y-63724942D02*
X149860590Y-63772561D01*
X149860590Y-63772561D02*
X149955828Y-63820180D01*
X149955828Y-63820180D02*
X150193923Y-63820180D01*
X150193923Y-63820180D02*
X150336780Y-63772561D01*
X150622495Y-63820180D02*
X151193923Y-63820180D01*
X150908209Y-62820180D02*
X150908209Y-63820180D01*
X151527257Y-62820180D02*
X151527257Y-63820180D01*
X151527257Y-63820180D02*
X151908209Y-63820180D01*
X151908209Y-63820180D02*
X152003447Y-63772561D01*
X152003447Y-63772561D02*
X152051066Y-63724942D01*
X152051066Y-63724942D02*
X152098685Y-63629704D01*
X152098685Y-63629704D02*
X152098685Y-63486847D01*
X152098685Y-63486847D02*
X152051066Y-63391609D01*
X152051066Y-63391609D02*
X152003447Y-63343990D01*
X152003447Y-63343990D02*
X151908209Y-63296371D01*
X151908209Y-63296371D02*
X151527257Y-63296371D01*
X153289162Y-62820180D02*
X153289162Y-63820180D01*
X153289162Y-63820180D02*
X153527257Y-63820180D01*
X153527257Y-63820180D02*
X153670114Y-63772561D01*
X153670114Y-63772561D02*
X153765352Y-63677323D01*
X153765352Y-63677323D02*
X153812971Y-63582085D01*
X153812971Y-63582085D02*
X153860590Y-63391609D01*
X153860590Y-63391609D02*
X153860590Y-63248752D01*
X153860590Y-63248752D02*
X153812971Y-63058276D01*
X153812971Y-63058276D02*
X153765352Y-62963038D01*
X153765352Y-62963038D02*
X153670114Y-62867800D01*
X153670114Y-62867800D02*
X153527257Y-62820180D01*
X153527257Y-62820180D02*
X153289162Y-62820180D01*
X154289162Y-62820180D02*
X154289162Y-63820180D01*
X155336780Y-62820180D02*
X155003447Y-63296371D01*
X154765352Y-62820180D02*
X154765352Y-63820180D01*
X154765352Y-63820180D02*
X155146304Y-63820180D01*
X155146304Y-63820180D02*
X155241542Y-63772561D01*
X155241542Y-63772561D02*
X155289161Y-63724942D01*
X155289161Y-63724942D02*
X155336780Y-63629704D01*
X155336780Y-63629704D02*
X155336780Y-63486847D01*
X155336780Y-63486847D02*
X155289161Y-63391609D01*
X155289161Y-63391609D02*
X155241542Y-63343990D01*
X155241542Y-63343990D02*
X155146304Y-63296371D01*
X155146304Y-63296371D02*
X154765352Y-63296371D01*
X135622493Y-57990180D02*
X135051065Y-57990180D01*
X135336779Y-57990180D02*
X135336779Y-58990180D01*
X135336779Y-58990180D02*
X135241541Y-58847323D01*
X135241541Y-58847323D02*
X135146303Y-58752085D01*
X135146303Y-58752085D02*
X135051065Y-58704466D01*
X136003446Y-58894942D02*
X136051065Y-58942561D01*
X136051065Y-58942561D02*
X136146303Y-58990180D01*
X136146303Y-58990180D02*
X136384398Y-58990180D01*
X136384398Y-58990180D02*
X136479636Y-58942561D01*
X136479636Y-58942561D02*
X136527255Y-58894942D01*
X136527255Y-58894942D02*
X136574874Y-58799704D01*
X136574874Y-58799704D02*
X136574874Y-58704466D01*
X136574874Y-58704466D02*
X136527255Y-58561609D01*
X136527255Y-58561609D02*
X135955827Y-57990180D01*
X135955827Y-57990180D02*
X136574874Y-57990180D01*
X136860589Y-58990180D02*
X137193922Y-57990180D01*
X137193922Y-57990180D02*
X137527255Y-58990180D01*
X139146303Y-58942561D02*
X139051065Y-58990180D01*
X139051065Y-58990180D02*
X138908208Y-58990180D01*
X138908208Y-58990180D02*
X138765351Y-58942561D01*
X138765351Y-58942561D02*
X138670113Y-58847323D01*
X138670113Y-58847323D02*
X138622494Y-58752085D01*
X138622494Y-58752085D02*
X138574875Y-58561609D01*
X138574875Y-58561609D02*
X138574875Y-58418752D01*
X138574875Y-58418752D02*
X138622494Y-58228276D01*
X138622494Y-58228276D02*
X138670113Y-58133038D01*
X138670113Y-58133038D02*
X138765351Y-58037800D01*
X138765351Y-58037800D02*
X138908208Y-57990180D01*
X138908208Y-57990180D02*
X139003446Y-57990180D01*
X139003446Y-57990180D02*
X139146303Y-58037800D01*
X139146303Y-58037800D02*
X139193922Y-58085419D01*
X139193922Y-58085419D02*
X139193922Y-58418752D01*
X139193922Y-58418752D02*
X139003446Y-58418752D01*
X139622494Y-57990180D02*
X139622494Y-58990180D01*
X139622494Y-58990180D02*
X140193922Y-57990180D01*
X140193922Y-57990180D02*
X140193922Y-58990180D01*
X140670113Y-57990180D02*
X140670113Y-58990180D01*
X140670113Y-58990180D02*
X140908208Y-58990180D01*
X140908208Y-58990180D02*
X141051065Y-58942561D01*
X141051065Y-58942561D02*
X141146303Y-58847323D01*
X141146303Y-58847323D02*
X141193922Y-58752085D01*
X141193922Y-58752085D02*
X141241541Y-58561609D01*
X141241541Y-58561609D02*
X141241541Y-58418752D01*
X141241541Y-58418752D02*
X141193922Y-58228276D01*
X141193922Y-58228276D02*
X141146303Y-58133038D01*
X141146303Y-58133038D02*
X141051065Y-58037800D01*
X141051065Y-58037800D02*
X140908208Y-57990180D01*
X140908208Y-57990180D02*
X140670113Y-57990180D01*
X136098684Y-56046847D02*
X136098684Y-57475419D01*
X139336780Y-56046847D02*
X139336780Y-57475419D01*
X157198684Y-64246847D02*
X157198684Y-65675419D01*
X159674875Y-64246847D02*
X159674875Y-65675419D01*
X162151066Y-64246847D02*
X162151066Y-65675419D01*
X167674877Y-64246847D02*
X167674877Y-65675419D01*
X172436783Y-64246847D02*
X172436783Y-65675419D01*
X175674879Y-64246847D02*
X175674879Y-65675419D01*
X156198684Y-63493990D02*
X156532017Y-63493990D01*
X156674874Y-62970180D02*
X156198684Y-62970180D01*
X156198684Y-62970180D02*
X156198684Y-63970180D01*
X156198684Y-63970180D02*
X156674874Y-63970180D01*
X157103446Y-62970180D02*
X157103446Y-63970180D01*
X157103446Y-63970180D02*
X157674874Y-62970180D01*
X157674874Y-62970180D02*
X157674874Y-63970180D01*
X158912970Y-62970180D02*
X158912970Y-63970180D01*
X158912970Y-63970180D02*
X159246303Y-63255895D01*
X159246303Y-63255895D02*
X159579636Y-63970180D01*
X159579636Y-63970180D02*
X159579636Y-62970180D01*
X160008208Y-63017800D02*
X160151065Y-62970180D01*
X160151065Y-62970180D02*
X160389160Y-62970180D01*
X160389160Y-62970180D02*
X160484398Y-63017800D01*
X160484398Y-63017800D02*
X160532017Y-63065419D01*
X160532017Y-63065419D02*
X160579636Y-63160657D01*
X160579636Y-63160657D02*
X160579636Y-63255895D01*
X160579636Y-63255895D02*
X160532017Y-63351133D01*
X160532017Y-63351133D02*
X160484398Y-63398752D01*
X160484398Y-63398752D02*
X160389160Y-63446371D01*
X160389160Y-63446371D02*
X160198684Y-63493990D01*
X160198684Y-63493990D02*
X160103446Y-63541609D01*
X160103446Y-63541609D02*
X160055827Y-63589228D01*
X160055827Y-63589228D02*
X160008208Y-63684466D01*
X160008208Y-63684466D02*
X160008208Y-63779704D01*
X160008208Y-63779704D02*
X160055827Y-63874942D01*
X160055827Y-63874942D02*
X160103446Y-63922561D01*
X160103446Y-63922561D02*
X160198684Y-63970180D01*
X160198684Y-63970180D02*
X160436779Y-63970180D01*
X160436779Y-63970180D02*
X160579636Y-63922561D01*
X160960589Y-63255895D02*
X161436779Y-63255895D01*
X160865351Y-62970180D02*
X161198684Y-63970180D01*
X161198684Y-63970180D02*
X161532017Y-62970180D01*
X162627256Y-62970180D02*
X162627256Y-63970180D01*
X162627256Y-63970180D02*
X162960589Y-63255895D01*
X162960589Y-63255895D02*
X163293922Y-63970180D01*
X163293922Y-63970180D02*
X163293922Y-62970180D01*
X163722494Y-63017800D02*
X163865351Y-62970180D01*
X163865351Y-62970180D02*
X164103446Y-62970180D01*
X164103446Y-62970180D02*
X164198684Y-63017800D01*
X164198684Y-63017800D02*
X164246303Y-63065419D01*
X164246303Y-63065419D02*
X164293922Y-63160657D01*
X164293922Y-63160657D02*
X164293922Y-63255895D01*
X164293922Y-63255895D02*
X164246303Y-63351133D01*
X164246303Y-63351133D02*
X164198684Y-63398752D01*
X164198684Y-63398752D02*
X164103446Y-63446371D01*
X164103446Y-63446371D02*
X163912970Y-63493990D01*
X163912970Y-63493990D02*
X163817732Y-63541609D01*
X163817732Y-63541609D02*
X163770113Y-63589228D01*
X163770113Y-63589228D02*
X163722494Y-63684466D01*
X163722494Y-63684466D02*
X163722494Y-63779704D01*
X163722494Y-63779704D02*
X163770113Y-63874942D01*
X163770113Y-63874942D02*
X163817732Y-63922561D01*
X163817732Y-63922561D02*
X163912970Y-63970180D01*
X163912970Y-63970180D02*
X164151065Y-63970180D01*
X164151065Y-63970180D02*
X164293922Y-63922561D01*
X165055827Y-63493990D02*
X165198684Y-63446371D01*
X165198684Y-63446371D02*
X165246303Y-63398752D01*
X165246303Y-63398752D02*
X165293922Y-63303514D01*
X165293922Y-63303514D02*
X165293922Y-63160657D01*
X165293922Y-63160657D02*
X165246303Y-63065419D01*
X165246303Y-63065419D02*
X165198684Y-63017800D01*
X165198684Y-63017800D02*
X165103446Y-62970180D01*
X165103446Y-62970180D02*
X164722494Y-62970180D01*
X164722494Y-62970180D02*
X164722494Y-63970180D01*
X164722494Y-63970180D02*
X165055827Y-63970180D01*
X165055827Y-63970180D02*
X165151065Y-63922561D01*
X165151065Y-63922561D02*
X165198684Y-63874942D01*
X165198684Y-63874942D02*
X165246303Y-63779704D01*
X165246303Y-63779704D02*
X165246303Y-63684466D01*
X165246303Y-63684466D02*
X165198684Y-63589228D01*
X165198684Y-63589228D02*
X165151065Y-63541609D01*
X165151065Y-63541609D02*
X165055827Y-63493990D01*
X165055827Y-63493990D02*
X164722494Y-63493990D01*
X166484399Y-63970180D02*
X166484399Y-63160657D01*
X166484399Y-63160657D02*
X166532018Y-63065419D01*
X166532018Y-63065419D02*
X166579637Y-63017800D01*
X166579637Y-63017800D02*
X166674875Y-62970180D01*
X166674875Y-62970180D02*
X166865351Y-62970180D01*
X166865351Y-62970180D02*
X166960589Y-63017800D01*
X166960589Y-63017800D02*
X167008208Y-63065419D01*
X167008208Y-63065419D02*
X167055827Y-63160657D01*
X167055827Y-63160657D02*
X167055827Y-63970180D01*
X167484399Y-63255895D02*
X167960589Y-63255895D01*
X167389161Y-62970180D02*
X167722494Y-63970180D01*
X167722494Y-63970180D02*
X168055827Y-62970180D01*
X168960589Y-62970180D02*
X168627256Y-63446371D01*
X168389161Y-62970180D02*
X168389161Y-63970180D01*
X168389161Y-63970180D02*
X168770113Y-63970180D01*
X168770113Y-63970180D02*
X168865351Y-63922561D01*
X168865351Y-63922561D02*
X168912970Y-63874942D01*
X168912970Y-63874942D02*
X168960589Y-63779704D01*
X168960589Y-63779704D02*
X168960589Y-63636847D01*
X168960589Y-63636847D02*
X168912970Y-63541609D01*
X168912970Y-63541609D02*
X168865351Y-63493990D01*
X168865351Y-63493990D02*
X168770113Y-63446371D01*
X168770113Y-63446371D02*
X168389161Y-63446371D01*
X169246304Y-63970180D02*
X169817732Y-63970180D01*
X169532018Y-62970180D02*
X169532018Y-63970180D01*
X170865352Y-63017800D02*
X171008209Y-62970180D01*
X171008209Y-62970180D02*
X171246304Y-62970180D01*
X171246304Y-62970180D02*
X171341542Y-63017800D01*
X171341542Y-63017800D02*
X171389161Y-63065419D01*
X171389161Y-63065419D02*
X171436780Y-63160657D01*
X171436780Y-63160657D02*
X171436780Y-63255895D01*
X171436780Y-63255895D02*
X171389161Y-63351133D01*
X171389161Y-63351133D02*
X171341542Y-63398752D01*
X171341542Y-63398752D02*
X171246304Y-63446371D01*
X171246304Y-63446371D02*
X171055828Y-63493990D01*
X171055828Y-63493990D02*
X170960590Y-63541609D01*
X170960590Y-63541609D02*
X170912971Y-63589228D01*
X170912971Y-63589228D02*
X170865352Y-63684466D01*
X170865352Y-63684466D02*
X170865352Y-63779704D01*
X170865352Y-63779704D02*
X170912971Y-63874942D01*
X170912971Y-63874942D02*
X170960590Y-63922561D01*
X170960590Y-63922561D02*
X171055828Y-63970180D01*
X171055828Y-63970180D02*
X171293923Y-63970180D01*
X171293923Y-63970180D02*
X171436780Y-63922561D01*
X171722495Y-63970180D02*
X172293923Y-63970180D01*
X172008209Y-62970180D02*
X172008209Y-63970180D01*
X172627257Y-62970180D02*
X172627257Y-63970180D01*
X172627257Y-63970180D02*
X173008209Y-63970180D01*
X173008209Y-63970180D02*
X173103447Y-63922561D01*
X173103447Y-63922561D02*
X173151066Y-63874942D01*
X173151066Y-63874942D02*
X173198685Y-63779704D01*
X173198685Y-63779704D02*
X173198685Y-63636847D01*
X173198685Y-63636847D02*
X173151066Y-63541609D01*
X173151066Y-63541609D02*
X173103447Y-63493990D01*
X173103447Y-63493990D02*
X173008209Y-63446371D01*
X173008209Y-63446371D02*
X172627257Y-63446371D01*
X174389162Y-62970180D02*
X174389162Y-63970180D01*
X174389162Y-63970180D02*
X174627257Y-63970180D01*
X174627257Y-63970180D02*
X174770114Y-63922561D01*
X174770114Y-63922561D02*
X174865352Y-63827323D01*
X174865352Y-63827323D02*
X174912971Y-63732085D01*
X174912971Y-63732085D02*
X174960590Y-63541609D01*
X174960590Y-63541609D02*
X174960590Y-63398752D01*
X174960590Y-63398752D02*
X174912971Y-63208276D01*
X174912971Y-63208276D02*
X174865352Y-63113038D01*
X174865352Y-63113038D02*
X174770114Y-63017800D01*
X174770114Y-63017800D02*
X174627257Y-62970180D01*
X174627257Y-62970180D02*
X174389162Y-62970180D01*
X175389162Y-62970180D02*
X175389162Y-63970180D01*
X176436780Y-62970180D02*
X176103447Y-63446371D01*
X175865352Y-62970180D02*
X175865352Y-63970180D01*
X175865352Y-63970180D02*
X176246304Y-63970180D01*
X176246304Y-63970180D02*
X176341542Y-63922561D01*
X176341542Y-63922561D02*
X176389161Y-63874942D01*
X176389161Y-63874942D02*
X176436780Y-63779704D01*
X176436780Y-63779704D02*
X176436780Y-63636847D01*
X176436780Y-63636847D02*
X176389161Y-63541609D01*
X176389161Y-63541609D02*
X176341542Y-63493990D01*
X176341542Y-63493990D02*
X176246304Y-63446371D01*
X176246304Y-63446371D02*
X175865352Y-63446371D01*
X156722493Y-58140180D02*
X156151065Y-58140180D01*
X156436779Y-58140180D02*
X156436779Y-59140180D01*
X156436779Y-59140180D02*
X156341541Y-58997323D01*
X156341541Y-58997323D02*
X156246303Y-58902085D01*
X156246303Y-58902085D02*
X156151065Y-58854466D01*
X157103446Y-59044942D02*
X157151065Y-59092561D01*
X157151065Y-59092561D02*
X157246303Y-59140180D01*
X157246303Y-59140180D02*
X157484398Y-59140180D01*
X157484398Y-59140180D02*
X157579636Y-59092561D01*
X157579636Y-59092561D02*
X157627255Y-59044942D01*
X157627255Y-59044942D02*
X157674874Y-58949704D01*
X157674874Y-58949704D02*
X157674874Y-58854466D01*
X157674874Y-58854466D02*
X157627255Y-58711609D01*
X157627255Y-58711609D02*
X157055827Y-58140180D01*
X157055827Y-58140180D02*
X157674874Y-58140180D01*
X157960589Y-59140180D02*
X158293922Y-58140180D01*
X158293922Y-58140180D02*
X158627255Y-59140180D01*
X160246303Y-59092561D02*
X160151065Y-59140180D01*
X160151065Y-59140180D02*
X160008208Y-59140180D01*
X160008208Y-59140180D02*
X159865351Y-59092561D01*
X159865351Y-59092561D02*
X159770113Y-58997323D01*
X159770113Y-58997323D02*
X159722494Y-58902085D01*
X159722494Y-58902085D02*
X159674875Y-58711609D01*
X159674875Y-58711609D02*
X159674875Y-58568752D01*
X159674875Y-58568752D02*
X159722494Y-58378276D01*
X159722494Y-58378276D02*
X159770113Y-58283038D01*
X159770113Y-58283038D02*
X159865351Y-58187800D01*
X159865351Y-58187800D02*
X160008208Y-58140180D01*
X160008208Y-58140180D02*
X160103446Y-58140180D01*
X160103446Y-58140180D02*
X160246303Y-58187800D01*
X160246303Y-58187800D02*
X160293922Y-58235419D01*
X160293922Y-58235419D02*
X160293922Y-58568752D01*
X160293922Y-58568752D02*
X160103446Y-58568752D01*
X160722494Y-58140180D02*
X160722494Y-59140180D01*
X160722494Y-59140180D02*
X161293922Y-58140180D01*
X161293922Y-58140180D02*
X161293922Y-59140180D01*
X161770113Y-58140180D02*
X161770113Y-59140180D01*
X161770113Y-59140180D02*
X162008208Y-59140180D01*
X162008208Y-59140180D02*
X162151065Y-59092561D01*
X162151065Y-59092561D02*
X162246303Y-58997323D01*
X162246303Y-58997323D02*
X162293922Y-58902085D01*
X162293922Y-58902085D02*
X162341541Y-58711609D01*
X162341541Y-58711609D02*
X162341541Y-58568752D01*
X162341541Y-58568752D02*
X162293922Y-58378276D01*
X162293922Y-58378276D02*
X162246303Y-58283038D01*
X162246303Y-58283038D02*
X162151065Y-58187800D01*
X162151065Y-58187800D02*
X162008208Y-58140180D01*
X162008208Y-58140180D02*
X161770113Y-58140180D01*
X157198684Y-56196847D02*
X157198684Y-57625419D01*
X160436780Y-56196847D02*
X160436780Y-57625419D01*
X177987438Y-68881826D02*
X177939819Y-68824684D01*
X177939819Y-68824684D02*
X177939819Y-68738969D01*
X177939819Y-68738969D02*
X177987438Y-68653255D01*
X177987438Y-68653255D02*
X178082676Y-68596112D01*
X178082676Y-68596112D02*
X178177914Y-68567541D01*
X178177914Y-68567541D02*
X178368390Y-68538969D01*
X178368390Y-68538969D02*
X178511247Y-68538969D01*
X178511247Y-68538969D02*
X178701723Y-68567541D01*
X178701723Y-68567541D02*
X178796961Y-68596112D01*
X178796961Y-68596112D02*
X178892200Y-68653255D01*
X178892200Y-68653255D02*
X178939819Y-68738969D01*
X178939819Y-68738969D02*
X178939819Y-68796112D01*
X178939819Y-68796112D02*
X178892200Y-68881826D01*
X178892200Y-68881826D02*
X178844580Y-68910398D01*
X178844580Y-68910398D02*
X178511247Y-68910398D01*
X178511247Y-68910398D02*
X178511247Y-68796112D01*
X178939819Y-69167541D02*
X177939819Y-69167541D01*
X177939819Y-69167541D02*
X178939819Y-69510398D01*
X178939819Y-69510398D02*
X177939819Y-69510398D01*
X178939819Y-69796112D02*
X177939819Y-69796112D01*
X177939819Y-69796112D02*
X177939819Y-69938969D01*
X177939819Y-69938969D02*
X177987438Y-70024683D01*
X177987438Y-70024683D02*
X178082676Y-70081826D01*
X178082676Y-70081826D02*
X178177914Y-70110397D01*
X178177914Y-70110397D02*
X178368390Y-70138969D01*
X178368390Y-70138969D02*
X178511247Y-70138969D01*
X178511247Y-70138969D02*
X178701723Y-70110397D01*
X178701723Y-70110397D02*
X178796961Y-70081826D01*
X178796961Y-70081826D02*
X178892200Y-70024683D01*
X178892200Y-70024683D02*
X178939819Y-69938969D01*
X178939819Y-69938969D02*
X178939819Y-69796112D01*
X178939819Y-71167540D02*
X178939819Y-70824683D01*
X178939819Y-70996112D02*
X177939819Y-70996112D01*
X177939819Y-70996112D02*
X178082676Y-70938969D01*
X178082676Y-70938969D02*
X178177914Y-70881826D01*
X178177914Y-70881826D02*
X178225533Y-70824683D01*
X178035057Y-71396112D02*
X177987438Y-71424684D01*
X177987438Y-71424684D02*
X177939819Y-71481827D01*
X177939819Y-71481827D02*
X177939819Y-71624684D01*
X177939819Y-71624684D02*
X177987438Y-71681827D01*
X177987438Y-71681827D02*
X178035057Y-71710398D01*
X178035057Y-71710398D02*
X178130295Y-71738969D01*
X178130295Y-71738969D02*
X178225533Y-71738969D01*
X178225533Y-71738969D02*
X178368390Y-71710398D01*
X178368390Y-71710398D02*
X178939819Y-71367541D01*
X178939819Y-71367541D02*
X178939819Y-71738969D01*
X177939819Y-71910398D02*
X178939819Y-72110398D01*
X178939819Y-72110398D02*
X177939819Y-72310398D01*
X166933332Y-60668819D02*
X166361904Y-60668819D01*
X166647618Y-61668819D02*
X166647618Y-60668819D01*
X166028570Y-61668819D02*
X166028570Y-60668819D01*
X166028570Y-60668819D02*
X165695237Y-61383104D01*
X165695237Y-61383104D02*
X165361904Y-60668819D01*
X165361904Y-60668819D02*
X165361904Y-61668819D01*
X164314285Y-61573580D02*
X164361904Y-61621200D01*
X164361904Y-61621200D02*
X164504761Y-61668819D01*
X164504761Y-61668819D02*
X164599999Y-61668819D01*
X164599999Y-61668819D02*
X164742856Y-61621200D01*
X164742856Y-61621200D02*
X164838094Y-61525961D01*
X164838094Y-61525961D02*
X164885713Y-61430723D01*
X164885713Y-61430723D02*
X164933332Y-61240247D01*
X164933332Y-61240247D02*
X164933332Y-61097390D01*
X164933332Y-61097390D02*
X164885713Y-60906914D01*
X164885713Y-60906914D02*
X164838094Y-60811676D01*
X164838094Y-60811676D02*
X164742856Y-60716438D01*
X164742856Y-60716438D02*
X164599999Y-60668819D01*
X164599999Y-60668819D02*
X164504761Y-60668819D01*
X164504761Y-60668819D02*
X164361904Y-60716438D01*
X164361904Y-60716438D02*
X164314285Y-60764057D01*
X163933332Y-60764057D02*
X163885713Y-60716438D01*
X163885713Y-60716438D02*
X163790475Y-60668819D01*
X163790475Y-60668819D02*
X163552380Y-60668819D01*
X163552380Y-60668819D02*
X163457142Y-60716438D01*
X163457142Y-60716438D02*
X163409523Y-60764057D01*
X163409523Y-60764057D02*
X163361904Y-60859295D01*
X163361904Y-60859295D02*
X163361904Y-60954533D01*
X163361904Y-60954533D02*
X163409523Y-61097390D01*
X163409523Y-61097390D02*
X163980951Y-61668819D01*
X163980951Y-61668819D02*
X163361904Y-61668819D01*
X172378666Y-70050819D02*
X172711999Y-69574628D01*
X172950094Y-70050819D02*
X172950094Y-69050819D01*
X172950094Y-69050819D02*
X172569142Y-69050819D01*
X172569142Y-69050819D02*
X172473904Y-69098438D01*
X172473904Y-69098438D02*
X172426285Y-69146057D01*
X172426285Y-69146057D02*
X172378666Y-69241295D01*
X172378666Y-69241295D02*
X172378666Y-69384152D01*
X172378666Y-69384152D02*
X172426285Y-69479390D01*
X172426285Y-69479390D02*
X172473904Y-69527009D01*
X172473904Y-69527009D02*
X172569142Y-69574628D01*
X172569142Y-69574628D02*
X172950094Y-69574628D01*
X172045332Y-69050819D02*
X171378666Y-69050819D01*
X171378666Y-69050819D02*
X171807237Y-70050819D01*
D11*
%TO.C,R7*%
X175276742Y-69073500D02*
X175751258Y-69073500D01*
X175276742Y-70118500D02*
X175751258Y-70118500D01*
%TD*%
M02*
