%TF.GenerationSoftware,KiCad,Pcbnew,7.0.8*%
%TF.CreationDate,2024-06-04T12:59:23+12:00*%
%TF.ProjectId,FYP_P2_1,4659505f-5032-45f3-912e-6b696361645f,rev?*%
%TF.SameCoordinates,Original*%
%TF.FileFunction,Copper,L1,Top*%
%TF.FilePolarity,Positive*%
%FSLAX46Y46*%
G04 Gerber Fmt 4.6, Leading zero omitted, Abs format (unit mm)*
G04 Created by KiCad (PCBNEW 7.0.8) date 2024-06-04 12:59:23*
%MOMM*%
%LPD*%
G01*
G04 APERTURE LIST*
G04 Aperture macros list*
%AMRoundRect*
0 Rectangle with rounded corners*
0 $1 Rounding radius*
0 $2 $3 $4 $5 $6 $7 $8 $9 X,Y pos of 4 corners*
0 Add a 4 corners polygon primitive as box body*
4,1,4,$2,$3,$4,$5,$6,$7,$8,$9,$2,$3,0*
0 Add four circle primitives for the rounded corners*
1,1,$1+$1,$2,$3*
1,1,$1+$1,$4,$5*
1,1,$1+$1,$6,$7*
1,1,$1+$1,$8,$9*
0 Add four rect primitives between the rounded corners*
20,1,$1+$1,$2,$3,$4,$5,0*
20,1,$1+$1,$4,$5,$6,$7,0*
20,1,$1+$1,$6,$7,$8,$9,0*
20,1,$1+$1,$8,$9,$2,$3,0*%
G04 Aperture macros list end*
%TA.AperFunction,ComponentPad*%
%ADD10RoundRect,0.250000X-0.600000X-0.725000X0.600000X-0.725000X0.600000X0.725000X-0.600000X0.725000X0*%
%TD*%
%TA.AperFunction,ComponentPad*%
%ADD11O,1.700000X1.950000*%
%TD*%
%TA.AperFunction,SMDPad,CuDef*%
%ADD12RoundRect,0.200000X0.200000X0.275000X-0.200000X0.275000X-0.200000X-0.275000X0.200000X-0.275000X0*%
%TD*%
%TA.AperFunction,SMDPad,CuDef*%
%ADD13R,1.500000X1.500000*%
%TD*%
%TA.AperFunction,SMDPad,CuDef*%
%ADD14R,1.600000X3.200000*%
%TD*%
%TA.AperFunction,SMDPad,CuDef*%
%ADD15R,3.200000X1.600000*%
%TD*%
%TA.AperFunction,ComponentPad*%
%ADD16C,3.150000*%
%TD*%
%TA.AperFunction,SMDPad,CuDef*%
%ADD17R,2.750000X1.000000*%
%TD*%
%TA.AperFunction,ComponentPad*%
%ADD18R,1.590000X1.590000*%
%TD*%
%TA.AperFunction,ComponentPad*%
%ADD19C,1.590000*%
%TD*%
%TA.AperFunction,ComponentPad*%
%ADD20R,1.508000X1.508000*%
%TD*%
%TA.AperFunction,ComponentPad*%
%ADD21C,1.508000*%
%TD*%
%TA.AperFunction,ComponentPad*%
%ADD22RoundRect,0.250000X0.725000X-0.600000X0.725000X0.600000X-0.725000X0.600000X-0.725000X-0.600000X0*%
%TD*%
%TA.AperFunction,ComponentPad*%
%ADD23O,1.950000X1.700000*%
%TD*%
%TA.AperFunction,ComponentPad*%
%ADD24RoundRect,0.250000X0.600000X0.725000X-0.600000X0.725000X-0.600000X-0.725000X0.600000X-0.725000X0*%
%TD*%
%TA.AperFunction,ViaPad*%
%ADD25C,0.800000*%
%TD*%
%TA.AperFunction,Conductor*%
%ADD26C,0.300000*%
%TD*%
%TA.AperFunction,Conductor*%
%ADD27C,1.000000*%
%TD*%
%TA.AperFunction,Conductor*%
%ADD28C,0.250000*%
%TD*%
G04 APERTURE END LIST*
D10*
%TO.P,J6,1,Pin_1*%
%TO.N,+3V3*%
X121980000Y-105552000D03*
D11*
%TO.P,J6,2,Pin_2*%
%TO.N,SDA*%
X124480000Y-105552000D03*
%TO.P,J6,3,Pin_3*%
%TO.N,SCL*%
X126980000Y-105552000D03*
%TO.P,J6,4,Pin_4*%
%TO.N,GND*%
X129480000Y-105552000D03*
%TD*%
D12*
%TO.P,R3,1*%
%TO.N,SDA_PI*%
X137414000Y-95758000D03*
%TO.P,R3,2*%
%TO.N,+3V3*%
X135764000Y-95758000D03*
%TD*%
D10*
%TO.P,J2,1,Pin_1*%
%TO.N,+5V*%
X163012500Y-105570000D03*
D11*
%TO.P,J2,2,Pin_2*%
%TO.N,ENCODER_1A*%
X165512500Y-105570000D03*
%TO.P,J2,3,Pin_3*%
%TO.N,ENCODER_1B*%
X168012500Y-105570000D03*
%TO.P,J2,4,Pin_4*%
%TO.N,GND*%
X170512500Y-105570000D03*
%TD*%
D10*
%TO.P,J1,1,Pin_1*%
%TO.N,+3V3*%
X149335000Y-105516000D03*
D11*
%TO.P,J1,2,Pin_2*%
%TO.N,ENCODER_2A*%
X151835000Y-105516000D03*
%TO.P,J1,3,Pin_3*%
%TO.N,ENCODER_2B*%
X154335000Y-105516000D03*
%TO.P,J1,4,Pin_4*%
%TO.N,GND*%
X156835000Y-105516000D03*
%TD*%
D13*
%TO.P,TP7,1,1*%
%TO.N,ENCODER_2B*%
X153670000Y-100838000D03*
%TD*%
D14*
%TO.P,U1,1,GPIO0*%
%TO.N,SDA*%
X126970000Y-91478000D03*
%TO.P,U1,2,GPIO1*%
%TO.N,SCL*%
X129510000Y-91478000D03*
%TO.P,U1,3,GND*%
%TO.N,GND*%
X132050000Y-91478000D03*
%TO.P,U1,4,GPIO2*%
%TO.N,SDA_PI*%
X134590000Y-91478000D03*
%TO.P,U1,5,GPIO3*%
%TO.N,SCL_PI*%
X137130000Y-91478000D03*
%TO.P,U1,6,GPIO4*%
%TO.N,ENCODER_2A*%
X139670000Y-91478000D03*
%TO.P,U1,7,GPIO5*%
%TO.N,ENCODER_2B*%
X142210000Y-91478000D03*
%TO.P,U1,8,GND*%
%TO.N,GND*%
X144750000Y-91478000D03*
%TO.P,U1,9,GPIO6*%
%TO.N,STEPA*%
X147290000Y-91478000D03*
%TO.P,U1,10,GPIO7*%
%TO.N,DIRA*%
X149830000Y-91478000D03*
%TO.P,U1,11,GPIO8*%
%TO.N,TX1*%
X152370000Y-91478000D03*
%TO.P,U1,12,GPIO9*%
%TO.N,RX1*%
X154910000Y-91478000D03*
%TO.P,U1,13,GND*%
%TO.N,GND*%
X157450000Y-91478000D03*
%TO.P,U1,14,GPIO10*%
%TO.N,unconnected-(U1-GPIO10-Pad14)*%
X159990000Y-91478000D03*
%TO.P,U1,15,GPIO11*%
%TO.N,unconnected-(U1-GPIO11-Pad15)*%
X162530000Y-91478000D03*
%TO.P,U1,16,GPIO12*%
%TO.N,ENCODER_1A*%
X165070000Y-91478000D03*
%TO.P,U1,17,GPIO13*%
%TO.N,ENCODER_1B*%
X167610000Y-91478000D03*
%TO.P,U1,18,GND*%
%TO.N,GND*%
X170150000Y-91478000D03*
%TO.P,U1,19,GPIO14*%
%TO.N,unconnected-(U1-GPIO14-Pad19)*%
X172690000Y-91478000D03*
%TO.P,U1,20,GPIO15*%
%TO.N,12V_ENABLE*%
X175230000Y-91478000D03*
%TO.P,U1,21,GPIO16*%
%TO.N,Net-(U1-GPIO16)*%
X175230000Y-72098000D03*
%TO.P,U1,22,GPIO17*%
%TO.N,UART_PDN*%
X172690000Y-72098000D03*
%TO.P,U1,23,GND*%
%TO.N,GND*%
X170150000Y-72098000D03*
%TO.P,U1,24,GPIO18*%
%TO.N,DIRB*%
X167610000Y-72098000D03*
%TO.P,U1,25,GPIO19*%
%TO.N,STEPB*%
X165070000Y-72098000D03*
%TO.P,U1,26,GPIO20*%
%TO.N,MS2B*%
X162530000Y-72098000D03*
%TO.P,U1,27,GPIO21*%
%TO.N,MS2A*%
X159990000Y-72098000D03*
%TO.P,U1,28,GND*%
%TO.N,GND*%
X157450000Y-72098000D03*
%TO.P,U1,29,GPIO22*%
%TO.N,ENB*%
X154910000Y-72098000D03*
%TO.P,U1,30,RUN*%
%TO.N,unconnected-(U1-RUN-Pad30)*%
X152370000Y-72098000D03*
%TO.P,U1,31,GPIO26_ADC0*%
%TO.N,MS1B*%
X149830000Y-72098000D03*
%TO.P,U1,32,GPIO27_ADC1*%
%TO.N,MS1A*%
X147290000Y-72098000D03*
%TO.P,U1,33,AGND*%
%TO.N,GND*%
X144750000Y-72098000D03*
%TO.P,U1,34,GPIO28_ADC2*%
%TO.N,ENA*%
X142210000Y-72098000D03*
%TO.P,U1,35,ADC_VREF*%
%TO.N,unconnected-(U1-ADC_VREF-Pad35)*%
X139670000Y-72098000D03*
%TO.P,U1,36,3V3*%
%TO.N,+3V3*%
X137130000Y-72098000D03*
%TO.P,U1,37,3V3_EN*%
%TO.N,unconnected-(U1-3V3_EN-Pad37)*%
X134590000Y-72098000D03*
%TO.P,U1,38,GND*%
%TO.N,GND*%
X132050000Y-72098000D03*
%TO.P,U1,39,VSYS*%
%TO.N,unconnected-(U1-VSYS-Pad39)*%
X129510000Y-72098000D03*
%TO.P,U1,40,VBUS*%
%TO.N,unconnected-(U1-VBUS-Pad40)*%
X126970000Y-72098000D03*
D15*
%TO.P,U1,D1*%
%TO.N,N/C*%
X175800000Y-84328000D03*
%TO.P,U1,D2*%
X175800000Y-81788000D03*
%TO.P,U1,D3*%
X175800000Y-79248000D03*
D16*
%TO.P,U1,MH1*%
X127600000Y-87488000D03*
%TO.P,U1,MH2*%
X127600000Y-76088000D03*
%TO.P,U1,MH3*%
X174600000Y-87488000D03*
%TO.P,U1,MH4*%
X174600000Y-76088000D03*
D13*
%TO.P,U1,TP1*%
X130100000Y-81788000D03*
%TO.P,U1,TP2*%
X126800000Y-80788000D03*
%TO.P,U1,TP3*%
X126800000Y-82788000D03*
%TO.P,U1,TP4*%
X133600000Y-84288000D03*
%TO.P,U1,TP5*%
X136100000Y-84288000D03*
%TO.P,U1,TP6*%
X138600000Y-84288000D03*
%TD*%
%TO.P,TP5,1,1*%
%TO.N,ENCODER_1A*%
X164626808Y-100376000D03*
%TD*%
D17*
%TO.P,J7,1,Pin_1*%
%TO.N,5V_EN*%
X193750000Y-87250000D03*
%TO.P,J7,2,Pin_2*%
%TO.N,OUT_RX*%
X200000000Y-87250000D03*
%TO.P,J7,3,Pin_3*%
%TO.N,BATT_SENSE_HV*%
X193750000Y-85250000D03*
%TO.P,J7,4,Pin_4*%
%TO.N,OUT_TX*%
X200000000Y-85250000D03*
%TO.P,J7,5,Pin_5*%
%TO.N,BATT_SENSE_LV*%
X193750000Y-83250000D03*
%TO.P,J7,6,Pin_6*%
%TO.N,GND*%
X200000000Y-83250000D03*
%TO.P,J7,7,Pin_7*%
X193750000Y-81250000D03*
%TO.P,J7,8,Pin_8*%
%TO.N,+5V*%
X200000000Y-81250000D03*
%TO.P,J7,9,Pin_9*%
%TO.N,unconnected-(J7-Pin_9-Pad9)*%
X193750000Y-79250000D03*
%TO.P,J7,10,Pin_10*%
%TO.N,+3V3*%
X200000000Y-79250000D03*
%TO.P,J7,11,Pin_11*%
%TO.N,12V_ENABLE*%
X193750000Y-77250000D03*
%TO.P,J7,12,Pin_12*%
%TO.N,GND*%
X200000000Y-77250000D03*
%TD*%
D18*
%TO.P,J9,1,Pin_1*%
%TO.N,GND*%
X180605001Y-69348350D03*
D19*
%TO.P,J9,2,Pin_2*%
%TO.N,+12V*%
X180605001Y-71888350D03*
%TD*%
D12*
%TO.P,R2,1*%
%TO.N,ENCODER_1B*%
X168719000Y-96499000D03*
%TO.P,R2,2*%
%TO.N,+3V3*%
X167069000Y-96499000D03*
%TD*%
D10*
%TO.P,J8,1,Pin_1*%
%TO.N,+5V*%
X176690000Y-107188000D03*
D11*
%TO.P,J8,2,Pin_2*%
%TO.N,BATT_SENSE_LV*%
X179190000Y-107188000D03*
%TO.P,J8,3,Pin_3*%
%TO.N,BATT_SENSE_HV*%
X181690000Y-107188000D03*
%TO.P,J8,4,Pin_4*%
%TO.N,+3V3*%
X184190000Y-107188000D03*
%TO.P,J8,5,Pin_5*%
%TO.N,5V_EN*%
X186690000Y-107188000D03*
%TO.P,J8,6,Pin_6*%
%TO.N,GND*%
X189190000Y-107188000D03*
%TD*%
D13*
%TO.P,TP4,1,1*%
%TO.N,SCL*%
X128524000Y-100850000D03*
%TD*%
D20*
%TO.P,TMC1,1,EN*%
%TO.N,ENA*%
X136444666Y-67310000D03*
D21*
%TO.P,TMC1,2,MS1*%
%TO.N,MS1A*%
X138984666Y-67310000D03*
%TO.P,TMC1,3,MS2*%
%TO.N,MS1B*%
X141524666Y-67310000D03*
%TO.P,TMC1,4,PDN*%
%TO.N,unconnected-(TMC1-PDN-Pad4)*%
X144064666Y-67310000D03*
%TO.P,TMC1,5,USART*%
%TO.N,UART_PDN*%
X146604666Y-67310000D03*
%TO.P,TMC1,6,CLK*%
%TO.N,GND*%
X149144666Y-67310000D03*
%TO.P,TMC1,7,STP*%
%TO.N,STEPA*%
X151684666Y-67310000D03*
%TO.P,TMC1,8,DIR*%
%TO.N,DIRA*%
X154224666Y-67310000D03*
%TO.P,TMC1,9,VM*%
%TO.N,+12V*%
X136444666Y-54610000D03*
%TO.P,TMC1,10,GND*%
%TO.N,GND*%
X138984666Y-54610000D03*
%TO.P,TMC1,11,A2*%
%TO.N,/Motor1A2*%
X141524666Y-54610000D03*
%TO.P,TMC1,12,A1*%
%TO.N,/Motor1A1*%
X144064666Y-54610000D03*
%TO.P,TMC1,13,B2*%
%TO.N,/Motor1B2*%
X146604666Y-54610000D03*
%TO.P,TMC1,14,B1*%
%TO.N,/Motor1B1*%
X149144666Y-54610000D03*
%TO.P,TMC1,15,VCC_IO*%
%TO.N,+3V3*%
X151684666Y-54610000D03*
%TO.P,TMC1,16,GND*%
%TO.N,GND*%
X154224666Y-54610000D03*
%TD*%
D12*
%TO.P,R6,1*%
%TO.N,SCL*%
X129603000Y-96499000D03*
%TO.P,R6,2*%
%TO.N,+3V3*%
X127953000Y-96499000D03*
%TD*%
%TO.P,R1,1*%
%TO.N,ENCODER_1A*%
X164909000Y-95758000D03*
%TO.P,R1,2*%
%TO.N,+3V3*%
X163259000Y-95758000D03*
%TD*%
D22*
%TO.P,J10,1,Pin_1*%
%TO.N,+3V3*%
X182478000Y-99500000D03*
D23*
%TO.P,J10,2,Pin_2*%
%TO.N,TX1*%
X182478000Y-97000000D03*
%TO.P,J10,3,Pin_3*%
%TO.N,RX1*%
X182478000Y-94500000D03*
%TO.P,J10,4,Pin_4*%
%TO.N,GND*%
X182478000Y-92000000D03*
%TD*%
D12*
%TO.P,R4,1*%
%TO.N,SDA*%
X126238000Y-95758000D03*
%TO.P,R4,2*%
%TO.N,+3V3*%
X124588000Y-95758000D03*
%TD*%
D13*
%TO.P,TP6,1,1*%
%TO.N,ENCODER_1B*%
X168656000Y-100838000D03*
%TD*%
%TO.P,TP3,1,1*%
%TO.N,SDA*%
X125730000Y-99326000D03*
%TD*%
%TO.P,TP2,1,1*%
%TO.N,SCL_PI*%
X141732000Y-100850000D03*
%TD*%
%TO.P,TP8,1,1*%
%TO.N,ENCODER_2A*%
X149352000Y-100376000D03*
%TD*%
%TO.P,GND,1,1*%
%TO.N,GND*%
X185674000Y-83058000D03*
%TD*%
D24*
%TO.P,J4,1,Pin_1*%
%TO.N,/Motor1B1*%
X131786000Y-62790000D03*
D11*
%TO.P,J4,2,Pin_2*%
%TO.N,/Motor1B2*%
X129286000Y-62790000D03*
%TO.P,J4,3,Pin_3*%
%TO.N,/Motor1A1*%
X126786000Y-62790000D03*
%TO.P,J4,4,Pin_4*%
%TO.N,/Motor1A2*%
X124286000Y-62790000D03*
%TD*%
D24*
%TO.P,J3,1,Pin_1*%
%TO.N,/Motor2B1*%
X187392000Y-62790000D03*
D11*
%TO.P,J3,2,Pin_2*%
%TO.N,/Motor2B2*%
X184892000Y-62790000D03*
%TO.P,J3,3,Pin_3*%
%TO.N,/Motor2A1*%
X182392000Y-62790000D03*
%TO.P,J3,4,Pin_4*%
%TO.N,/Motor2A2*%
X179892000Y-62790000D03*
%TD*%
D13*
%TO.P,TP1,1,1*%
%TO.N,SDA_PI*%
X138176000Y-100376000D03*
%TD*%
D10*
%TO.P,J5,1,Pin_1*%
%TO.N,+3V3*%
X135657500Y-105534000D03*
D11*
%TO.P,J5,2,Pin_2*%
%TO.N,SDA_PI*%
X138157500Y-105534000D03*
%TO.P,J5,3,Pin_3*%
%TO.N,SCL_PI*%
X140657500Y-105534000D03*
%TO.P,J5,4,Pin_4*%
%TO.N,GND*%
X143157500Y-105534000D03*
%TD*%
D12*
%TO.P,R5,1*%
%TO.N,SCL_PI*%
X141096000Y-96499000D03*
%TO.P,R5,2*%
%TO.N,+3V3*%
X139446000Y-96499000D03*
%TD*%
D21*
%TO.P,TMC2,16,GND*%
%TO.N,GND*%
X175233332Y-54610000D03*
%TO.P,TMC2,15,VCC_IO*%
%TO.N,+3V3*%
X172693332Y-54610000D03*
%TO.P,TMC2,14,B1*%
%TO.N,/Motor2B1*%
X170153332Y-54610000D03*
%TO.P,TMC2,13,B2*%
%TO.N,/Motor2B2*%
X167613332Y-54610000D03*
%TO.P,TMC2,12,A1*%
%TO.N,/Motor2A1*%
X165073332Y-54610000D03*
%TO.P,TMC2,11,A2*%
%TO.N,/Motor2A2*%
X162533332Y-54610000D03*
%TO.P,TMC2,10,GND*%
%TO.N,GND*%
X159993332Y-54610000D03*
%TO.P,TMC2,9,VM*%
%TO.N,+12V*%
X157453332Y-54610000D03*
%TO.P,TMC2,8,DIR*%
%TO.N,DIRB*%
X175233332Y-67310000D03*
%TO.P,TMC2,7,STP*%
%TO.N,STEPB*%
X172693332Y-67310000D03*
%TO.P,TMC2,6,CLK*%
%TO.N,GND*%
X170153332Y-67310000D03*
%TO.P,TMC2,5,USART*%
%TO.N,UART_PDN*%
X167613332Y-67310000D03*
%TO.P,TMC2,4,PDN*%
%TO.N,unconnected-(TMC2-PDN-Pad4)*%
X165073332Y-67310000D03*
%TO.P,TMC2,3,MS2*%
%TO.N,MS2B*%
X162533332Y-67310000D03*
%TO.P,TMC2,2,MS1*%
%TO.N,MS2A*%
X159993332Y-67310000D03*
D20*
%TO.P,TMC2,1,EN*%
%TO.N,ENB*%
X157453332Y-67310000D03*
%TD*%
D25*
%TO.N,+3V3*%
X198120000Y-79502000D03*
X162306000Y-95758000D03*
X166878000Y-97536000D03*
X135636000Y-96774000D03*
X137668000Y-73914000D03*
X127726720Y-97512083D03*
X136398000Y-73914000D03*
X198120000Y-78486000D03*
X124460000Y-94742000D03*
X139446000Y-97536000D03*
%TO.N,STEPA*%
X147700000Y-89350000D03*
%TO.N,UART_PDN*%
X173482000Y-69907332D03*
%TO.N,Net-(U1-GPIO16)*%
X176462000Y-70866000D03*
%TO.N,GND*%
X199644000Y-76200000D03*
X156750000Y-74000000D03*
X169750000Y-89250000D03*
X171000000Y-74000000D03*
X198374000Y-83566000D03*
X131250000Y-93500000D03*
X158000000Y-73750000D03*
X145415001Y-74041001D03*
X146000000Y-88500000D03*
X187198000Y-82296000D03*
X198628000Y-76708000D03*
X191516000Y-81534000D03*
X171000000Y-89250000D03*
X158250000Y-89250000D03*
X191516000Y-80638500D03*
X169500000Y-74250000D03*
X183896000Y-83312000D03*
X132050000Y-74200000D03*
X157000000Y-89000000D03*
X132750000Y-93500000D03*
X145288000Y-93472000D03*
%TO.N,DIRA*%
X150500000Y-89500000D03*
%TO.N,STEPB*%
X165250000Y-74250000D03*
%TO.N,DIRB*%
X167500000Y-74000000D03*
%TO.N,+5V*%
X197866000Y-81788000D03*
%TO.N,TX1*%
X152500000Y-93700000D03*
%TO.N,RX1*%
X155400000Y-93650000D03*
%TD*%
D26*
%TO.N,SDA*%
X126238000Y-96266000D02*
X125730000Y-96774000D01*
X126238000Y-91922000D02*
X126238000Y-96266000D01*
X125730000Y-101600000D02*
X124480000Y-102850000D01*
X126970000Y-91190000D02*
X126238000Y-91922000D01*
X124480000Y-102850000D02*
X124480000Y-105552000D01*
X125730000Y-96774000D02*
X125730000Y-101600000D01*
%TO.N,SCL*%
X128524000Y-97578000D02*
X129603000Y-96499000D01*
X128524000Y-100850000D02*
X128524000Y-97578000D01*
X127000000Y-102171000D02*
X128564000Y-100607000D01*
X127000000Y-105532000D02*
X127000000Y-102171000D01*
X129603000Y-96499000D02*
X129603000Y-91283000D01*
X126980000Y-105552000D02*
X127000000Y-105532000D01*
%TO.N,ENCODER_1A*%
X164626808Y-96040192D02*
X164909000Y-95758000D01*
X165354000Y-105411500D02*
X165354000Y-101103192D01*
X165512500Y-105570000D02*
X165354000Y-105411500D01*
X165354000Y-101103192D02*
X164626808Y-100376000D01*
X164909000Y-95758000D02*
X164909000Y-91351000D01*
X164626808Y-100376000D02*
X164626808Y-96040192D01*
%TO.N,+3V3*%
X167069000Y-96499000D02*
X167069000Y-97345000D01*
X163259000Y-95758000D02*
X162306000Y-95758000D01*
X124588000Y-95758000D02*
X124588000Y-94870000D01*
X137130000Y-73182000D02*
X137130000Y-71810000D01*
X137130000Y-73376000D02*
X137668000Y-73914000D01*
X127953000Y-97285803D02*
X127726720Y-97512083D01*
X135764000Y-96646000D02*
X135636000Y-96774000D01*
D27*
X198372000Y-79250000D02*
X198120000Y-79502000D01*
D26*
X137130000Y-73182000D02*
X136398000Y-73914000D01*
D27*
X200000000Y-79250000D02*
X198884000Y-79250000D01*
D26*
X137130000Y-71810000D02*
X137130000Y-73376000D01*
D27*
X198884000Y-79250000D02*
X198120000Y-78486000D01*
D26*
X124588000Y-94870000D02*
X124460000Y-94742000D01*
X139446000Y-96499000D02*
X139446000Y-97536000D01*
D27*
X200000000Y-79250000D02*
X198372000Y-79250000D01*
D26*
X135764000Y-95758000D02*
X135764000Y-96646000D01*
X127953000Y-96499000D02*
X127953000Y-97285803D01*
X167069000Y-97345000D02*
X166878000Y-97536000D01*
%TO.N,ENCODER_1B*%
X168656000Y-100838000D02*
X168656000Y-96562000D01*
X168719000Y-96499000D02*
X168719000Y-92299000D01*
X168656000Y-96562000D02*
X168719000Y-96499000D01*
X168012500Y-101481500D02*
X168656000Y-100838000D01*
X168719000Y-92299000D02*
X167610000Y-91190000D01*
X168012500Y-105570000D02*
X168012500Y-101481500D01*
%TO.N,STEPA*%
X147290000Y-91478000D02*
X147290000Y-89760000D01*
X147290000Y-89760000D02*
X147700000Y-89350000D01*
%TO.N,UART_PDN*%
X166089332Y-65786000D02*
X148128666Y-65786000D01*
D28*
X169645332Y-69342000D02*
X167867332Y-67564000D01*
D26*
X148128666Y-65786000D02*
X146604666Y-67310000D01*
D28*
X172690000Y-71810000D02*
X172690000Y-71200000D01*
X170832000Y-69342000D02*
X169645332Y-69342000D01*
X173482000Y-69907332D02*
X172690000Y-70699332D01*
D26*
X172690000Y-71150000D02*
X172690000Y-71810000D01*
X167613332Y-67310000D02*
X166089332Y-65786000D01*
D28*
X172690000Y-70699332D02*
X172690000Y-72098000D01*
D26*
X167613332Y-67660000D02*
X167613332Y-67310000D01*
D28*
X172690000Y-71200000D02*
X170832000Y-69342000D01*
%TO.N,Net-(U1-GPIO16)*%
X176462000Y-70866000D02*
X175230000Y-72098000D01*
D26*
%TO.N,MS1A*%
X145950000Y-70098000D02*
X147290000Y-71438000D01*
X147290000Y-71438000D02*
X147290000Y-72098000D01*
X139334666Y-67310000D02*
X139510000Y-67310000D01*
X139510000Y-67310000D02*
X142298000Y-70098000D01*
X142298000Y-70098000D02*
X145950000Y-70098000D01*
D27*
%TO.N,GND*%
X144750000Y-73182000D02*
X144750000Y-71810000D01*
X192127500Y-81250000D02*
X192054000Y-81250000D01*
X144750000Y-89750000D02*
X146000000Y-88500000D01*
X170150000Y-91190000D02*
X170150000Y-90100000D01*
X157450000Y-71810000D02*
X157450000Y-73300000D01*
X185674000Y-83058000D02*
X186436000Y-83058000D01*
X192127500Y-81250000D02*
X191516000Y-80638500D01*
X191800000Y-81250000D02*
X191516000Y-81534000D01*
X132050000Y-91190000D02*
X132050000Y-92700000D01*
X145288000Y-93472000D02*
X144750000Y-92934000D01*
X157450000Y-71810000D02*
X157450000Y-73200000D01*
X144750000Y-73376000D02*
X144750000Y-71810000D01*
X170150000Y-71810000D02*
X170150000Y-73150000D01*
X132050000Y-91190000D02*
X132050000Y-92800000D01*
X200000000Y-77250000D02*
X200000000Y-76556000D01*
X157450000Y-90050000D02*
X157450000Y-91190000D01*
X185674000Y-83058000D02*
X184150000Y-83058000D01*
X170150000Y-90100000D02*
X171000000Y-89250000D01*
X198690000Y-83250000D02*
X198374000Y-83566000D01*
X184150000Y-83058000D02*
X183896000Y-83312000D01*
X157450000Y-73300000D02*
X156750000Y-74000000D01*
X170150000Y-89650000D02*
X169750000Y-89250000D01*
X132050000Y-71810000D02*
X132050000Y-74200000D01*
X158250000Y-89250000D02*
X157450000Y-90050000D01*
X144750000Y-91190000D02*
X144750000Y-89750000D01*
X145415001Y-74041001D02*
X144750000Y-73376000D01*
X193750000Y-81250000D02*
X191800000Y-81250000D01*
X170150000Y-73600000D02*
X169500000Y-74250000D01*
X200000000Y-76556000D02*
X199644000Y-76200000D01*
X144750000Y-92934000D02*
X144750000Y-91190000D01*
X186436000Y-83058000D02*
X187198000Y-82296000D01*
X200000000Y-83250000D02*
X198690000Y-83250000D01*
X132050000Y-92700000D02*
X131250000Y-93500000D01*
X157450000Y-89450000D02*
X157450000Y-91190000D01*
X157000000Y-89000000D02*
X157450000Y-89450000D01*
X193750000Y-81250000D02*
X192127500Y-81250000D01*
X157450000Y-73200000D02*
X158000000Y-73750000D01*
X170150000Y-73150000D02*
X171000000Y-74000000D01*
X132050000Y-92800000D02*
X132750000Y-93500000D01*
X170150000Y-71810000D02*
X170150000Y-73600000D01*
X200000000Y-77250000D02*
X199170000Y-77250000D01*
X170150000Y-91190000D02*
X170150000Y-89650000D01*
X199170000Y-77250000D02*
X198628000Y-76708000D01*
D26*
%TO.N,DIRA*%
X149830000Y-91478000D02*
X149830000Y-90170000D01*
X149830000Y-90170000D02*
X150500000Y-89500000D01*
%TO.N,STEPB*%
X165250000Y-74250000D02*
X165250000Y-71990000D01*
%TO.N,MS2B*%
X162533332Y-72094668D02*
X162530000Y-72098000D01*
D28*
X162530000Y-68042000D02*
X162052000Y-67564000D01*
D26*
X162533332Y-67310000D02*
X162533332Y-72094668D01*
%TO.N,MS1B*%
X149830000Y-72098000D02*
X149830000Y-71298000D01*
X149830000Y-71298000D02*
X147382000Y-68850000D01*
X143064666Y-68850000D02*
X141524666Y-67310000D01*
X147382000Y-68850000D02*
X143064666Y-68850000D01*
%TO.N,DIRB*%
X167500000Y-74000000D02*
X167500000Y-71920000D01*
%TO.N,ENCODER_2A*%
X149352000Y-101220000D02*
X151835000Y-103703000D01*
X139670000Y-91624000D02*
X140208000Y-92162000D01*
X148210000Y-101220000D02*
X149352000Y-101220000D01*
X140208000Y-92162000D02*
X140208000Y-93218000D01*
X151835000Y-103703000D02*
X151835000Y-105516000D01*
X140208000Y-93218000D02*
X148210000Y-101220000D01*
%TO.N,ENCODER_2B*%
X149098000Y-96266000D02*
X153670000Y-100838000D01*
X153670000Y-100838000D02*
X153670000Y-103038000D01*
X153670000Y-103038000D02*
X154335000Y-103703000D01*
X154335000Y-103703000D02*
X154335000Y-105516000D01*
X146486000Y-96266000D02*
X149098000Y-96266000D01*
X142210000Y-91990000D02*
X146486000Y-96266000D01*
X142210000Y-91190000D02*
X142210000Y-91990000D01*
%TO.N,SDA_PI*%
X138157500Y-105534000D02*
X138157500Y-100394500D01*
X134590000Y-92934000D02*
X134590000Y-91190000D01*
X138176000Y-96520000D02*
X134590000Y-92934000D01*
X138176000Y-96520000D02*
X138176000Y-100376000D01*
X138157500Y-100394500D02*
X138176000Y-100376000D01*
%TO.N,SCL_PI*%
X140657500Y-105534000D02*
X140657500Y-101924500D01*
X137130000Y-92058000D02*
X137130000Y-91190000D01*
X141732000Y-97135000D02*
X141096000Y-96499000D01*
X141096000Y-96499000D02*
X141096000Y-96024000D01*
X140657500Y-101924500D02*
X141732000Y-100850000D01*
X141096000Y-96024000D02*
X137130000Y-92058000D01*
X141732000Y-100850000D02*
X141732000Y-97135000D01*
%TO.N,ENA*%
X142210000Y-72098000D02*
X142210000Y-71298000D01*
X136794666Y-67660000D02*
X136444666Y-67660000D01*
X142210000Y-71298000D02*
X139762000Y-68850000D01*
X139762000Y-68850000D02*
X137984666Y-68850000D01*
X137984666Y-68850000D02*
X136794666Y-67660000D01*
%TO.N,BATT_SENSE_LV*%
X185844000Y-90481000D02*
X193075000Y-83250000D01*
X179190000Y-107188000D02*
X185844000Y-100534000D01*
X193075000Y-83250000D02*
X193750000Y-83250000D01*
X185844000Y-100534000D02*
X185844000Y-90481000D01*
%TO.N,BATT_SENSE_HV*%
X181690000Y-107188000D02*
X187706000Y-101172000D01*
X187706000Y-101172000D02*
X187706000Y-90424000D01*
X192880000Y-85250000D02*
X193750000Y-85250000D01*
X187706000Y-90424000D02*
X192880000Y-85250000D01*
%TO.N,5V_EN*%
X189230000Y-102362000D02*
X189230000Y-91770000D01*
X186690000Y-107188000D02*
X186690000Y-104902000D01*
X186690000Y-104902000D02*
X189230000Y-102362000D01*
X189230000Y-91770000D02*
X193750000Y-87250000D01*
D27*
%TO.N,+5V*%
X199970000Y-81280000D02*
X200000000Y-81250000D01*
X198374000Y-81280000D02*
X199970000Y-81280000D01*
X197866000Y-81788000D02*
X198374000Y-81280000D01*
D26*
%TO.N,12V_ENABLE*%
X188434000Y-77250000D02*
X193750000Y-77250000D01*
X175230000Y-91478000D02*
X175230000Y-90454000D01*
X175230000Y-90454000D02*
X188434000Y-77250000D01*
D28*
%TO.N,ENB*%
X154910000Y-69626000D02*
X156972000Y-67564000D01*
X154910000Y-71810000D02*
X154910000Y-69626000D01*
D27*
%TO.N,/Motor2A2*%
X162533332Y-55187332D02*
X170486000Y-63140000D01*
X162533332Y-54610000D02*
X162533332Y-55187332D01*
X170486000Y-63140000D02*
X179892000Y-63140000D01*
%TO.N,/Motor2A1*%
X165073332Y-55187332D02*
X170592000Y-60706000D01*
X180394871Y-60706000D02*
X182392000Y-62703129D01*
X170592000Y-60706000D02*
X180394871Y-60706000D01*
X165073332Y-54610000D02*
X165073332Y-55187332D01*
%TO.N,/Motor2B2*%
X167613332Y-55187332D02*
X171608000Y-59182000D01*
X181356000Y-59182000D02*
X184892000Y-62718000D01*
X167613332Y-54610000D02*
X167613332Y-55187332D01*
X171608000Y-59182000D02*
X181356000Y-59182000D01*
%TO.N,/Motor2B1*%
X182626000Y-57404000D02*
X187392000Y-62170000D01*
X187392000Y-62170000D02*
X187392000Y-63140000D01*
X170153332Y-55187332D02*
X172370000Y-57404000D01*
X172370000Y-57404000D02*
X182626000Y-57404000D01*
X170153332Y-54610000D02*
X170153332Y-55187332D01*
%TO.N,/Motor1B1*%
X133204000Y-61722000D02*
X131786000Y-63140000D01*
X142382666Y-61722000D02*
X133204000Y-61722000D01*
X149144666Y-54960000D02*
X142382666Y-61722000D01*
%TO.N,/Motor1B2*%
X129286000Y-63140000D02*
X129286000Y-61965766D01*
X141620666Y-60028666D02*
X141620666Y-59944000D01*
X131223100Y-60028666D02*
X141620666Y-60028666D01*
X141620666Y-59944000D02*
X146604666Y-54960000D01*
X129286000Y-61965766D02*
X131223100Y-60028666D01*
%TO.N,/Motor1A1*%
X130894667Y-58166000D02*
X126786000Y-62274667D01*
X144064666Y-54960000D02*
X140858666Y-58166000D01*
X144064666Y-54610000D02*
X144064666Y-54960000D01*
X126786000Y-62190000D02*
X126786000Y-63140000D01*
X140858666Y-58166000D02*
X130894667Y-58166000D01*
X126786000Y-62274667D02*
X126786000Y-62790000D01*
%TO.N,/Motor1A2*%
X139492666Y-56642000D02*
X141524666Y-54610000D01*
X124286000Y-62790000D02*
X124286000Y-62150000D01*
X129794000Y-56642000D02*
X139492666Y-56642000D01*
X124286000Y-62150000D02*
X129794000Y-56642000D01*
D26*
%TO.N,TX1*%
X152500000Y-93700000D02*
X152500000Y-91608000D01*
X152500000Y-91608000D02*
X152370000Y-91478000D01*
%TO.N,RX1*%
X154910000Y-91478000D02*
X154910000Y-93160000D01*
X154910000Y-93160000D02*
X155400000Y-93650000D01*
D28*
%TO.N,MS2A*%
X159993332Y-68038668D02*
X159993332Y-67310000D01*
D26*
X159990000Y-72098000D02*
X159990000Y-67663332D01*
X159990000Y-67663332D02*
X159993332Y-67660000D01*
%TD*%
M02*
