%TF.GenerationSoftware,KiCad,Pcbnew,7.0.8*%
%TF.CreationDate,2024-06-04T12:59:23+12:00*%
%TF.ProjectId,FYP_P2_1,4659505f-5032-45f3-912e-6b696361645f,rev?*%
%TF.SameCoordinates,Original*%
%TF.FileFunction,Soldermask,Top*%
%TF.FilePolarity,Negative*%
%FSLAX46Y46*%
G04 Gerber Fmt 4.6, Leading zero omitted, Abs format (unit mm)*
G04 Created by KiCad (PCBNEW 7.0.8) date 2024-06-04 12:59:23*
%MOMM*%
%LPD*%
G01*
G04 APERTURE LIST*
G04 Aperture macros list*
%AMRoundRect*
0 Rectangle with rounded corners*
0 $1 Rounding radius*
0 $2 $3 $4 $5 $6 $7 $8 $9 X,Y pos of 4 corners*
0 Add a 4 corners polygon primitive as box body*
4,1,4,$2,$3,$4,$5,$6,$7,$8,$9,$2,$3,0*
0 Add four circle primitives for the rounded corners*
1,1,$1+$1,$2,$3*
1,1,$1+$1,$4,$5*
1,1,$1+$1,$6,$7*
1,1,$1+$1,$8,$9*
0 Add four rect primitives between the rounded corners*
20,1,$1+$1,$2,$3,$4,$5,0*
20,1,$1+$1,$4,$5,$6,$7,0*
20,1,$1+$1,$6,$7,$8,$9,0*
20,1,$1+$1,$8,$9,$2,$3,0*%
G04 Aperture macros list end*
%ADD10RoundRect,0.250000X-0.600000X-0.725000X0.600000X-0.725000X0.600000X0.725000X-0.600000X0.725000X0*%
%ADD11O,1.700000X1.950000*%
%ADD12RoundRect,0.200000X0.200000X0.275000X-0.200000X0.275000X-0.200000X-0.275000X0.200000X-0.275000X0*%
%ADD13R,1.500000X1.500000*%
%ADD14R,1.600000X3.200000*%
%ADD15R,3.200000X1.600000*%
%ADD16C,3.150000*%
%ADD17R,2.750000X1.000000*%
%ADD18R,1.590000X1.590000*%
%ADD19C,1.590000*%
%ADD20RoundRect,0.102000X0.754000X-0.754000X0.754000X0.754000X-0.754000X0.754000X-0.754000X-0.754000X0*%
%ADD21C,1.712000*%
%ADD22RoundRect,0.250000X0.725000X-0.600000X0.725000X0.600000X-0.725000X0.600000X-0.725000X-0.600000X0*%
%ADD23O,1.950000X1.700000*%
%ADD24RoundRect,0.250000X0.600000X0.725000X-0.600000X0.725000X-0.600000X-0.725000X0.600000X-0.725000X0*%
G04 APERTURE END LIST*
D10*
%TO.C,J6*%
X121980000Y-105552000D03*
D11*
X124480000Y-105552000D03*
X126980000Y-105552000D03*
X129480000Y-105552000D03*
%TD*%
D12*
%TO.C,R3*%
X137414000Y-95758000D03*
X135764000Y-95758000D03*
%TD*%
D10*
%TO.C,J2*%
X163012500Y-105570000D03*
D11*
X165512500Y-105570000D03*
X168012500Y-105570000D03*
X170512500Y-105570000D03*
%TD*%
D10*
%TO.C,J1*%
X149335000Y-105516000D03*
D11*
X151835000Y-105516000D03*
X154335000Y-105516000D03*
X156835000Y-105516000D03*
%TD*%
D13*
%TO.C,TP7*%
X153670000Y-100838000D03*
%TD*%
D14*
%TO.C,U1*%
X126970000Y-91478000D03*
X129510000Y-91478000D03*
X132050000Y-91478000D03*
X134590000Y-91478000D03*
X137130000Y-91478000D03*
X139670000Y-91478000D03*
X142210000Y-91478000D03*
X144750000Y-91478000D03*
X147290000Y-91478000D03*
X149830000Y-91478000D03*
X152370000Y-91478000D03*
X154910000Y-91478000D03*
X157450000Y-91478000D03*
X159990000Y-91478000D03*
X162530000Y-91478000D03*
X165070000Y-91478000D03*
X167610000Y-91478000D03*
X170150000Y-91478000D03*
X172690000Y-91478000D03*
X175230000Y-91478000D03*
X175230000Y-72098000D03*
X172690000Y-72098000D03*
X170150000Y-72098000D03*
X167610000Y-72098000D03*
X165070000Y-72098000D03*
X162530000Y-72098000D03*
X159990000Y-72098000D03*
X157450000Y-72098000D03*
X154910000Y-72098000D03*
X152370000Y-72098000D03*
X149830000Y-72098000D03*
X147290000Y-72098000D03*
X144750000Y-72098000D03*
X142210000Y-72098000D03*
X139670000Y-72098000D03*
X137130000Y-72098000D03*
X134590000Y-72098000D03*
X132050000Y-72098000D03*
X129510000Y-72098000D03*
X126970000Y-72098000D03*
D15*
X175800000Y-84328000D03*
X175800000Y-81788000D03*
X175800000Y-79248000D03*
D16*
X127600000Y-87488000D03*
X127600000Y-76088000D03*
X174600000Y-87488000D03*
X174600000Y-76088000D03*
D13*
X130100000Y-81788000D03*
X126800000Y-80788000D03*
X126800000Y-82788000D03*
X133600000Y-84288000D03*
X136100000Y-84288000D03*
X138600000Y-84288000D03*
%TD*%
%TO.C,TP5*%
X164626808Y-100376000D03*
%TD*%
D17*
%TO.C,J7*%
X193750000Y-87250000D03*
X200000000Y-87250000D03*
X193750000Y-85250000D03*
X200000000Y-85250000D03*
X193750000Y-83250000D03*
X200000000Y-83250000D03*
X193750000Y-81250000D03*
X200000000Y-81250000D03*
X193750000Y-79250000D03*
X200000000Y-79250000D03*
X193750000Y-77250000D03*
X200000000Y-77250000D03*
%TD*%
D18*
%TO.C,J9*%
X180605001Y-69348350D03*
D19*
X180605001Y-71888350D03*
%TD*%
D12*
%TO.C,R2*%
X168719000Y-96499000D03*
X167069000Y-96499000D03*
%TD*%
D10*
%TO.C,J8*%
X176690000Y-107188000D03*
D11*
X179190000Y-107188000D03*
X181690000Y-107188000D03*
X184190000Y-107188000D03*
X186690000Y-107188000D03*
X189190000Y-107188000D03*
%TD*%
D13*
%TO.C,TP4*%
X128524000Y-100850000D03*
%TD*%
D20*
%TO.C,TMC1*%
X136444666Y-67310000D03*
D21*
X138984666Y-67310000D03*
X141524666Y-67310000D03*
X144064666Y-67310000D03*
X146604666Y-67310000D03*
X149144666Y-67310000D03*
X151684666Y-67310000D03*
X154224666Y-67310000D03*
X136444666Y-54610000D03*
X138984666Y-54610000D03*
X141524666Y-54610000D03*
X144064666Y-54610000D03*
X146604666Y-54610000D03*
X149144666Y-54610000D03*
X151684666Y-54610000D03*
X154224666Y-54610000D03*
%TD*%
D12*
%TO.C,R6*%
X129603000Y-96499000D03*
X127953000Y-96499000D03*
%TD*%
%TO.C,R1*%
X164909000Y-95758000D03*
X163259000Y-95758000D03*
%TD*%
D22*
%TO.C,J10*%
X182478000Y-99500000D03*
D23*
X182478000Y-97000000D03*
X182478000Y-94500000D03*
X182478000Y-92000000D03*
%TD*%
D12*
%TO.C,R4*%
X126238000Y-95758000D03*
X124588000Y-95758000D03*
%TD*%
D13*
%TO.C,TP6*%
X168656000Y-100838000D03*
%TD*%
%TO.C,TP3*%
X125730000Y-99326000D03*
%TD*%
%TO.C,TP2*%
X141732000Y-100850000D03*
%TD*%
%TO.C,TP8*%
X149352000Y-100376000D03*
%TD*%
%TO.C,GND*%
X185674000Y-83058000D03*
%TD*%
D24*
%TO.C,J4*%
X131786000Y-62790000D03*
D11*
X129286000Y-62790000D03*
X126786000Y-62790000D03*
X124286000Y-62790000D03*
%TD*%
D24*
%TO.C,J3*%
X187392000Y-62790000D03*
D11*
X184892000Y-62790000D03*
X182392000Y-62790000D03*
X179892000Y-62790000D03*
%TD*%
D13*
%TO.C,TP1*%
X138176000Y-100376000D03*
%TD*%
D10*
%TO.C,J5*%
X135657500Y-105534000D03*
D11*
X138157500Y-105534000D03*
X140657500Y-105534000D03*
X143157500Y-105534000D03*
%TD*%
D12*
%TO.C,R5*%
X141096000Y-96499000D03*
X139446000Y-96499000D03*
%TD*%
D21*
%TO.C,TMC2*%
X175233332Y-54610000D03*
X172693332Y-54610000D03*
X170153332Y-54610000D03*
X167613332Y-54610000D03*
X165073332Y-54610000D03*
X162533332Y-54610000D03*
X159993332Y-54610000D03*
X157453332Y-54610000D03*
X175233332Y-67310000D03*
X172693332Y-67310000D03*
X170153332Y-67310000D03*
X167613332Y-67310000D03*
X165073332Y-67310000D03*
X162533332Y-67310000D03*
X159993332Y-67310000D03*
D20*
X157453332Y-67310000D03*
%TD*%
M02*
