%TF.GenerationSoftware,KiCad,Pcbnew,7.0.8*%
%TF.CreationDate,2024-06-04T12:59:23+12:00*%
%TF.ProjectId,FYP_P2_1,4659505f-5032-45f3-912e-6b696361645f,rev?*%
%TF.SameCoordinates,Original*%
%TF.FileFunction,Paste,Top*%
%TF.FilePolarity,Positive*%
%FSLAX46Y46*%
G04 Gerber Fmt 4.6, Leading zero omitted, Abs format (unit mm)*
G04 Created by KiCad (PCBNEW 7.0.8) date 2024-06-04 12:59:23*
%MOMM*%
%LPD*%
G01*
G04 APERTURE LIST*
G04 Aperture macros list*
%AMRoundRect*
0 Rectangle with rounded corners*
0 $1 Rounding radius*
0 $2 $3 $4 $5 $6 $7 $8 $9 X,Y pos of 4 corners*
0 Add a 4 corners polygon primitive as box body*
4,1,4,$2,$3,$4,$5,$6,$7,$8,$9,$2,$3,0*
0 Add four circle primitives for the rounded corners*
1,1,$1+$1,$2,$3*
1,1,$1+$1,$4,$5*
1,1,$1+$1,$6,$7*
1,1,$1+$1,$8,$9*
0 Add four rect primitives between the rounded corners*
20,1,$1+$1,$2,$3,$4,$5,0*
20,1,$1+$1,$4,$5,$6,$7,0*
20,1,$1+$1,$6,$7,$8,$9,0*
20,1,$1+$1,$8,$9,$2,$3,0*%
G04 Aperture macros list end*
%ADD10RoundRect,0.200000X0.200000X0.275000X-0.200000X0.275000X-0.200000X-0.275000X0.200000X-0.275000X0*%
%ADD11R,1.600000X3.200000*%
%ADD12R,3.200000X1.600000*%
%ADD13R,1.500000X1.500000*%
%ADD14R,2.750000X1.000000*%
G04 APERTURE END LIST*
D10*
%TO.C,R3*%
X137414000Y-95758000D03*
X135764000Y-95758000D03*
%TD*%
D11*
%TO.C,U1*%
X126970000Y-91478000D03*
X129510000Y-91478000D03*
X132050000Y-91478000D03*
X134590000Y-91478000D03*
X137130000Y-91478000D03*
X139670000Y-91478000D03*
X142210000Y-91478000D03*
X144750000Y-91478000D03*
X147290000Y-91478000D03*
X149830000Y-91478000D03*
X152370000Y-91478000D03*
X154910000Y-91478000D03*
X157450000Y-91478000D03*
X159990000Y-91478000D03*
X162530000Y-91478000D03*
X165070000Y-91478000D03*
X167610000Y-91478000D03*
X170150000Y-91478000D03*
X172690000Y-91478000D03*
X175230000Y-91478000D03*
X175230000Y-72098000D03*
X172690000Y-72098000D03*
X170150000Y-72098000D03*
X167610000Y-72098000D03*
X165070000Y-72098000D03*
X162530000Y-72098000D03*
X159990000Y-72098000D03*
X157450000Y-72098000D03*
X154910000Y-72098000D03*
X152370000Y-72098000D03*
X149830000Y-72098000D03*
X147290000Y-72098000D03*
X144750000Y-72098000D03*
X142210000Y-72098000D03*
X139670000Y-72098000D03*
X137130000Y-72098000D03*
X134590000Y-72098000D03*
X132050000Y-72098000D03*
X129510000Y-72098000D03*
X126970000Y-72098000D03*
D12*
X175800000Y-84328000D03*
X175800000Y-81788000D03*
X175800000Y-79248000D03*
D13*
X130100000Y-81788000D03*
X126800000Y-80788000D03*
X126800000Y-82788000D03*
X133600000Y-84288000D03*
X136100000Y-84288000D03*
X138600000Y-84288000D03*
%TD*%
D14*
%TO.C,J7*%
X193750000Y-87250000D03*
X200000000Y-87250000D03*
X193750000Y-85250000D03*
X200000000Y-85250000D03*
X193750000Y-83250000D03*
X200000000Y-83250000D03*
X193750000Y-81250000D03*
X200000000Y-81250000D03*
X193750000Y-79250000D03*
X200000000Y-79250000D03*
X193750000Y-77250000D03*
X200000000Y-77250000D03*
%TD*%
D10*
%TO.C,R2*%
X168719000Y-96499000D03*
X167069000Y-96499000D03*
%TD*%
%TO.C,R6*%
X129603000Y-96499000D03*
X127953000Y-96499000D03*
%TD*%
%TO.C,R1*%
X164909000Y-95758000D03*
X163259000Y-95758000D03*
%TD*%
%TO.C,R4*%
X126238000Y-95758000D03*
X124588000Y-95758000D03*
%TD*%
%TO.C,R5*%
X141096000Y-96499000D03*
X139446000Y-96499000D03*
%TD*%
M02*
