%TF.GenerationSoftware,KiCad,Pcbnew,8.0.2*%
%TF.CreationDate,2024-08-07T22:56:44+12:00*%
%TF.ProjectId,FYP_P2_2,4659505f-5032-45f3-922e-6b696361645f,rev?*%
%TF.SameCoordinates,Original*%
%TF.FileFunction,Copper,L4,Bot*%
%TF.FilePolarity,Positive*%
%FSLAX46Y46*%
G04 Gerber Fmt 4.6, Leading zero omitted, Abs format (unit mm)*
G04 Created by KiCad (PCBNEW 8.0.2) date 2024-08-07 22:56:44*
%MOMM*%
%LPD*%
G01*
G04 APERTURE LIST*
G04 Aperture macros list*
%AMRoundRect*
0 Rectangle with rounded corners*
0 $1 Rounding radius*
0 $2 $3 $4 $5 $6 $7 $8 $9 X,Y pos of 4 corners*
0 Add a 4 corners polygon primitive as box body*
4,1,4,$2,$3,$4,$5,$6,$7,$8,$9,$2,$3,0*
0 Add four circle primitives for the rounded corners*
1,1,$1+$1,$2,$3*
1,1,$1+$1,$4,$5*
1,1,$1+$1,$6,$7*
1,1,$1+$1,$8,$9*
0 Add four rect primitives between the rounded corners*
20,1,$1+$1,$2,$3,$4,$5,0*
20,1,$1+$1,$4,$5,$6,$7,0*
20,1,$1+$1,$6,$7,$8,$9,0*
20,1,$1+$1,$8,$9,$2,$3,0*%
G04 Aperture macros list end*
%TA.AperFunction,ComponentPad*%
%ADD10O,1.700000X1.350000*%
%TD*%
%TA.AperFunction,ComponentPad*%
%ADD11O,1.500000X1.100000*%
%TD*%
%TA.AperFunction,SMDPad,CuDef*%
%ADD12RoundRect,0.200000X-0.275000X0.200000X-0.275000X-0.200000X0.275000X-0.200000X0.275000X0.200000X0*%
%TD*%
%TA.AperFunction,SMDPad,CuDef*%
%ADD13R,1.600000X0.800000*%
%TD*%
%TA.AperFunction,SMDPad,CuDef*%
%ADD14R,3.000000X2.100000*%
%TD*%
%TA.AperFunction,SMDPad,CuDef*%
%ADD15RoundRect,0.200000X-0.200000X-0.275000X0.200000X-0.275000X0.200000X0.275000X-0.200000X0.275000X0*%
%TD*%
%TA.AperFunction,ComponentPad*%
%ADD16R,1.700000X1.700000*%
%TD*%
%TA.AperFunction,ComponentPad*%
%ADD17O,1.700000X1.700000*%
%TD*%
%TA.AperFunction,SMDPad,CuDef*%
%ADD18RoundRect,0.200000X0.275000X-0.200000X0.275000X0.200000X-0.275000X0.200000X-0.275000X-0.200000X0*%
%TD*%
%TA.AperFunction,ViaPad*%
%ADD19C,0.600000*%
%TD*%
%TA.AperFunction,Conductor*%
%ADD20C,0.200000*%
%TD*%
G04 APERTURE END LIST*
D10*
%TO.P,J12,6,Shield*%
%TO.N,GND*%
X139180000Y-84475000D03*
D11*
X136180000Y-84165000D03*
X136180000Y-79325000D03*
D10*
X139180000Y-79015000D03*
%TD*%
D12*
%TO.P,R2,1*%
%TO.N,SCL_PI*%
X109067944Y-87313276D03*
%TO.P,R2,2*%
%TO.N,+3V3*%
X109067944Y-88963276D03*
%TD*%
D13*
%TO.P,J6,1,1*%
%TO.N,+5V*%
X136550000Y-93500000D03*
%TO.P,J6,2,2*%
%TO.N,ENCODER_1A*%
X136550000Y-94750000D03*
%TO.P,J6,3,3*%
%TO.N,ENCODER_1B*%
X136550000Y-96000000D03*
%TO.P,J6,4,4*%
%TO.N,GND*%
X136550000Y-97250000D03*
D14*
%TO.P,J6,S1,SHIELD*%
X139450000Y-90950000D03*
%TO.P,J6,S2,SHIELD__1*%
X139450000Y-99800000D03*
%TD*%
D15*
%TO.P,R7,1*%
%TO.N,ENCODER_1B*%
X132160000Y-96475000D03*
%TO.P,R7,2*%
%TO.N,+3V3*%
X133810000Y-96475000D03*
%TD*%
D13*
%TO.P,J3,1,1*%
%TO.N,+3V3*%
X102860000Y-85150000D03*
%TO.P,J3,2,2*%
%TO.N,SCL_PI*%
X102860000Y-83900000D03*
%TO.P,J3,3,3*%
%TO.N,SDA_PI*%
X102860000Y-82650000D03*
%TO.P,J3,4,4*%
%TO.N,GND*%
X102860000Y-81400000D03*
D14*
%TO.P,J3,S1,SHIELD*%
X99960000Y-87700000D03*
%TO.P,J3,S2,SHIELD__1*%
X99960000Y-78850000D03*
%TD*%
D15*
%TO.P,R6,1*%
%TO.N,ENCODER_1A*%
X132155000Y-94225000D03*
%TO.P,R6,2*%
%TO.N,+3V3*%
X133805000Y-94225000D03*
%TD*%
D16*
%TO.P,J8,1,Pin_1*%
%TO.N,GND*%
X120740000Y-113650000D03*
D17*
%TO.P,J8,2,Pin_2*%
%TO.N,+12V*%
X118200000Y-113650000D03*
%TD*%
D13*
%TO.P,J4,1,1*%
%TO.N,+3V3*%
X102880000Y-97290000D03*
%TO.P,J4,2,2*%
%TO.N,RX1*%
X102880000Y-96040000D03*
%TO.P,J4,3,3*%
%TO.N,TX1*%
X102880000Y-94790000D03*
%TO.P,J4,4,4*%
%TO.N,GND*%
X102880000Y-93540000D03*
D14*
%TO.P,J4,S1,SHIELD*%
X99980000Y-99840000D03*
%TO.P,J4,S2,SHIELD__1*%
X99980000Y-90990000D03*
%TD*%
D18*
%TO.P,R4,1*%
%TO.N,SDA_PI*%
X109082056Y-85726724D03*
%TO.P,R4,2*%
%TO.N,+3V3*%
X109082056Y-84076724D03*
%TD*%
D19*
%TO.N,+3V3*%
X109057944Y-89683276D03*
X105325000Y-92775000D03*
X124375000Y-89750000D03*
X117300000Y-108500000D03*
X126725000Y-83475000D03*
X134510000Y-96500000D03*
X103970000Y-85170000D03*
X124700000Y-76025000D03*
X124250000Y-95750000D03*
X128650000Y-110300000D03*
X125950000Y-84250000D03*
X117300000Y-107825000D03*
X105300000Y-86350000D03*
X124675000Y-77850000D03*
X123850000Y-78300000D03*
X134510000Y-94225000D03*
X124700000Y-75425000D03*
X101775000Y-97325000D03*
X109092056Y-83366724D03*
X124675000Y-76625000D03*
X116600000Y-86700000D03*
X124675000Y-77225000D03*
X137850000Y-93550000D03*
X110275000Y-104325000D03*
X107925000Y-78850000D03*
X124575025Y-92371855D03*
X115275000Y-91275000D03*
X124665000Y-90625000D03*
X111825000Y-104325000D03*
X119900000Y-99825000D03*
X127100000Y-110300000D03*
X116850000Y-95525000D03*
X118218460Y-86697326D03*
X107050000Y-92775000D03*
%TO.N,GND*%
X137900000Y-80450000D03*
X120575000Y-95400000D03*
X115700000Y-82225000D03*
X111000000Y-78850000D03*
X116575000Y-100425000D03*
X113280000Y-108300000D03*
X135950000Y-90300000D03*
X109700000Y-108975000D03*
X102530000Y-99750000D03*
X137900000Y-83120000D03*
X118150000Y-82300000D03*
X120550000Y-94275000D03*
X127750000Y-103600000D03*
X131750000Y-109050000D03*
X120675000Y-75950000D03*
X132725000Y-106000000D03*
X100320000Y-80200000D03*
X135165000Y-80450000D03*
X135425000Y-91100000D03*
X127710000Y-90590000D03*
X120975000Y-110325000D03*
X119375000Y-93300000D03*
X119950000Y-94925000D03*
X118775000Y-94950000D03*
X137875000Y-97250000D03*
X131800000Y-106175000D03*
X125520000Y-104025000D03*
X129700000Y-107575000D03*
X139800000Y-87100000D03*
X118175000Y-95450000D03*
X132650000Y-107050000D03*
X103175000Y-80700000D03*
X126725000Y-86550000D03*
X122675000Y-71600000D03*
X131525000Y-107475000D03*
X139080000Y-87100000D03*
X108225000Y-107500000D03*
X119400000Y-95475000D03*
X120700000Y-77225000D03*
X137800000Y-90475000D03*
X120700000Y-77825000D03*
X99530000Y-98500000D03*
X108900000Y-106850000D03*
X139175000Y-113375000D03*
X108225000Y-108900000D03*
X135350000Y-90475000D03*
X130450000Y-80200000D03*
X136130000Y-115350000D03*
X99600000Y-80200000D03*
X100250000Y-98500000D03*
X139100000Y-104525000D03*
X109775000Y-105925000D03*
X100300000Y-86350000D03*
X106625000Y-109100000D03*
X135600000Y-99750000D03*
X99550000Y-104400000D03*
X122675000Y-71000000D03*
X125825000Y-78325000D03*
X118800000Y-93775000D03*
X132825000Y-109175000D03*
X120650000Y-75300000D03*
X116590000Y-83640000D03*
X125560000Y-110290000D03*
X128680000Y-113370000D03*
X119400000Y-94300000D03*
X106625000Y-105900000D03*
X112780000Y-101560000D03*
X120543094Y-102730692D03*
X107525000Y-108200000D03*
X102530000Y-115250000D03*
X108975000Y-108200000D03*
X112780000Y-102280000D03*
X133980000Y-98480000D03*
X121525000Y-108525000D03*
X108225000Y-106100000D03*
X100370000Y-113275000D03*
X105440000Y-116380000D03*
X105410000Y-101690000D03*
X126650000Y-75800000D03*
X139820000Y-104525000D03*
X136320000Y-99750000D03*
X126660000Y-75190000D03*
X121525000Y-107805000D03*
X99580000Y-86350000D03*
X112150000Y-112390000D03*
X111540000Y-112390000D03*
X125525000Y-108275000D03*
X139005000Y-98450000D03*
X126650000Y-77250000D03*
X137900000Y-82400000D03*
X113241629Y-99997997D03*
X137900000Y-81170000D03*
X124340000Y-86690000D03*
X127300000Y-96030000D03*
X132550000Y-86550000D03*
X127630000Y-92330000D03*
X122650000Y-69725000D03*
X120600000Y-93250000D03*
X139895000Y-113375000D03*
X103200000Y-92825000D03*
X99650000Y-113275000D03*
X119975000Y-93750000D03*
X100270000Y-104400000D03*
X116280000Y-103770000D03*
X122625000Y-69075000D03*
X122590000Y-86680000D03*
X122150000Y-102730692D03*
X129410000Y-115650000D03*
X103250000Y-99750000D03*
X100345000Y-92350000D03*
X130100000Y-84975000D03*
X118300000Y-94325000D03*
X102455000Y-80700000D03*
X106039230Y-99105478D03*
X102480000Y-92825000D03*
X120700000Y-76625000D03*
X122675000Y-70400000D03*
X129650000Y-106175000D03*
X112000000Y-91294841D03*
X109625000Y-107500000D03*
X114470000Y-109940000D03*
X99625000Y-92350000D03*
X136850000Y-115350000D03*
X139725000Y-98450000D03*
X106825000Y-107500000D03*
X107525000Y-106800000D03*
X132200000Y-108300000D03*
X134770000Y-112620000D03*
X103250000Y-115250000D03*
X133280000Y-116460000D03*
X110210000Y-101230000D03*
X127030000Y-103600000D03*
X136575000Y-90300000D03*
X118180000Y-83640000D03*
X119750000Y-78325000D03*
X137800000Y-91100000D03*
X126650000Y-76500000D03*
X114980000Y-83640000D03*
X134000000Y-113370000D03*
X129675000Y-108850000D03*
X113380000Y-88350000D03*
X116280000Y-104490000D03*
X120350000Y-78350000D03*
X126650000Y-78125000D03*
X137200000Y-90275000D03*
X118200000Y-93300000D03*
%TO.N,+1V1*%
X121150000Y-91975000D03*
X119589292Y-92030000D03*
X121900000Y-99675000D03*
%TO.N,+5V*%
X136175000Y-92250000D03*
X122650000Y-76275000D03*
X122650000Y-75575000D03*
X131725000Y-84150000D03*
X131175000Y-83450000D03*
X122650000Y-76975000D03*
X130650000Y-86475000D03*
X122650000Y-77650000D03*
X137650000Y-92625000D03*
X130550000Y-83450000D03*
X135425000Y-91950000D03*
X136875003Y-92250000D03*
X131275000Y-86475000D03*
X135400000Y-92600000D03*
X131853952Y-84800000D03*
%TO.N,+12V*%
X105800000Y-105300000D03*
X105125000Y-104950000D03*
X117900000Y-110650000D03*
X128040000Y-100010000D03*
X133605000Y-109720000D03*
X126840000Y-100010000D03*
X111160000Y-114280000D03*
X105800000Y-109600000D03*
X105150000Y-110000000D03*
X133605000Y-105420000D03*
X134255000Y-110120000D03*
X117900000Y-110050000D03*
X127440000Y-100010000D03*
X112360000Y-114280000D03*
X111760000Y-114280000D03*
X134280000Y-105070000D03*
%TO.N,Motor1B2*%
X132860000Y-104190000D03*
X136880000Y-105710000D03*
X136270000Y-105710000D03*
X132860000Y-103530000D03*
X132250000Y-103530000D03*
%TO.N,INDEX1*%
X127250000Y-108190000D03*
X121938571Y-96902253D03*
%TO.N,Motor1A1*%
X136250000Y-109480000D03*
X132820000Y-111660000D03*
X132210000Y-111660000D03*
X136860000Y-109480000D03*
X132820000Y-110950000D03*
%TO.N,DIR1*%
X124080625Y-94950000D03*
X131150741Y-111008053D03*
%TO.N,/FYP_P2_2_TMC2209/SPREAD *%
X128975000Y-104700000D03*
X126400000Y-109350000D03*
%TO.N,STEP1*%
X129858044Y-110939989D03*
X124550000Y-97083640D03*
%TO.N,MS2B*%
X111622824Y-108057680D03*
X115211918Y-97766223D03*
%TO.N,Motor2A1*%
X102525000Y-105650000D03*
X106625000Y-103450000D03*
X107250000Y-103450000D03*
X103350000Y-105625000D03*
X106625000Y-104075000D03*
%TO.N,MS2A*%
X116300000Y-98900000D03*
X111811686Y-108835070D03*
%TO.N,INDEX2*%
X116906994Y-94521481D03*
X111650000Y-106857680D03*
%TO.N,EN2*%
X107588515Y-110900672D03*
X117240000Y-98920000D03*
%TO.N,Motor2B2*%
X107200000Y-111600000D03*
X106600000Y-111525000D03*
X106600000Y-110900000D03*
X103225000Y-109375000D03*
X102525000Y-109375000D03*
%TO.N,BATT_SENSE_HV*%
X118849998Y-71160000D03*
X132600000Y-92900000D03*
%TO.N,12V_ENABLE*%
X122048446Y-92331693D03*
X115000000Y-73850000D03*
%TO.N,BATT_SENSE_LV*%
X132703472Y-92106717D03*
X120770000Y-71500000D03*
%TO.N,5V_EN*%
X116800000Y-71890000D03*
X131700000Y-92925000D03*
%TO.N,TX1*%
X114850000Y-95730000D03*
%TO.N,RX1*%
X114697555Y-96620000D03*
%TO.N,SCL_PI*%
X114325000Y-92650000D03*
%TO.N,SDA_PI*%
X115067774Y-92120555D03*
%TO.N,ENCODER_1A*%
X117598811Y-96575915D03*
%TO.N,ENCODER_1B*%
X118625000Y-96700000D03*
%TO.N,/~{USB_BOOT}*%
X115925000Y-80675000D03*
X107041050Y-87815000D03*
X110350000Y-86200000D03*
%TO.N,5VOUT_1*%
X128450000Y-105550000D03*
X129809047Y-111738489D03*
%TO.N,5VOUT_2*%
X111250000Y-109610000D03*
X107478530Y-101981471D03*
%TD*%
D20*
%TO.N,INDEX1*%
X121938571Y-96902253D02*
X122250000Y-97213682D01*
X127250000Y-107550000D02*
X127250000Y-108190000D01*
X122970000Y-103270000D02*
X127250000Y-107550000D01*
X122970000Y-99430000D02*
X122970000Y-103270000D01*
X122250000Y-97213682D02*
X122250000Y-98710000D01*
X122250000Y-98710000D02*
X122970000Y-99430000D01*
%TO.N,DIR1*%
X131000000Y-100650000D02*
X125300000Y-94950000D01*
X131150741Y-111008053D02*
X130925000Y-110782312D01*
X131000000Y-107151471D02*
X131000000Y-100650000D01*
X130925000Y-107226471D02*
X131000000Y-107151471D01*
X130925000Y-110782312D02*
X130925000Y-107226471D01*
X125300000Y-94950000D02*
X124080625Y-94950000D01*
%TO.N,/FYP_P2_2_TMC2209/SPREAD *%
X128451471Y-104700000D02*
X128975000Y-104700000D01*
X126525000Y-109225000D02*
X127063529Y-109225000D01*
X127063529Y-109225000D02*
X127850000Y-108438529D01*
X127850000Y-108438529D02*
X127850000Y-105301471D01*
X126100000Y-109475000D02*
X126225000Y-109350000D01*
X126400000Y-109350000D02*
X126525000Y-109225000D01*
X127850000Y-105301471D02*
X128451471Y-104700000D01*
X126225000Y-109350000D02*
X126400000Y-109350000D01*
%TO.N,STEP1*%
X130300000Y-110498033D02*
X130300000Y-101150000D01*
X126233640Y-97083640D02*
X124550000Y-97083640D01*
X130300000Y-101150000D02*
X126233640Y-97083640D01*
X129858044Y-110939989D02*
X130300000Y-110498033D01*
%TO.N,MS2B*%
X115211918Y-97766223D02*
X114583777Y-97766223D01*
X114583777Y-97766223D02*
X111050000Y-101300000D01*
X111050000Y-101300000D02*
X111050000Y-107484856D01*
X111050000Y-107484856D02*
X111622824Y-108057680D01*
%TO.N,MS2A*%
X116300000Y-98900000D02*
X116225000Y-98900000D01*
X114950000Y-100175000D02*
X114950000Y-105700000D01*
X116225000Y-98900000D02*
X114950000Y-100175000D01*
X111814930Y-108835070D02*
X111811686Y-108835070D01*
X114950000Y-105700000D02*
X111814930Y-108835070D01*
%TO.N,INDEX2*%
X116975000Y-96125000D02*
X116718291Y-96381709D01*
X117450000Y-95773529D02*
X117098529Y-96125000D01*
X116718291Y-96381709D02*
X116718291Y-97280003D01*
X114550000Y-103957680D02*
X111650000Y-106857680D01*
X116718291Y-97280003D02*
X114550000Y-99448294D01*
X117098529Y-96125000D02*
X116975000Y-96125000D01*
X117450000Y-95064487D02*
X117450000Y-95773529D01*
X116906994Y-94521481D02*
X117450000Y-95064487D01*
X114550000Y-99448294D02*
X114550000Y-103957680D01*
%TO.N,EN2*%
X115680000Y-106845000D02*
X115680000Y-100420000D01*
X117180000Y-98920000D02*
X117240000Y-98920000D01*
X111624328Y-110900672D02*
X115680000Y-106845000D01*
X115680000Y-100420000D02*
X117180000Y-98920000D01*
X107588515Y-110900672D02*
X111624328Y-110900672D01*
%TO.N,BATT_SENSE_HV*%
X118849998Y-71160000D02*
X118790000Y-71219998D01*
X118790000Y-71219998D02*
X118790000Y-74080000D01*
X118790000Y-74080000D02*
X118860000Y-74150000D01*
X118860000Y-79533529D02*
X126476471Y-87150000D01*
X118860000Y-74150000D02*
X118860000Y-79533529D01*
X126476471Y-87150000D02*
X126850000Y-87150000D01*
X126850000Y-87150000D02*
X132600000Y-92900000D01*
%TO.N,12V_ENABLE*%
X115000000Y-78300000D02*
X115215000Y-78515000D01*
X122048446Y-92331693D02*
X121990000Y-92273247D01*
X115215000Y-78515000D02*
X114975000Y-78275000D01*
X121990000Y-92273247D02*
X121990000Y-85290000D01*
X115000000Y-73850000D02*
X115000000Y-78300000D01*
X122048446Y-92331693D02*
X121900000Y-92183247D01*
X121990000Y-85290000D02*
X115215000Y-78515000D01*
%TO.N,BATT_SENSE_LV*%
X132703472Y-92106717D02*
X132703472Y-91354943D01*
X120770000Y-74551371D02*
X120770000Y-71500000D01*
X121400000Y-75181371D02*
X120770000Y-74551371D01*
X127298529Y-85950000D02*
X126526471Y-85950000D01*
X132703472Y-91354943D02*
X127298529Y-85950000D01*
X121400000Y-80823529D02*
X121400000Y-75181371D01*
X126526471Y-85950000D02*
X121400000Y-80823529D01*
%TO.N,5V_EN*%
X116650000Y-72831371D02*
X116800000Y-72681371D01*
X124940000Y-86441471D02*
X124588529Y-86090000D01*
X116800000Y-72681371D02*
X116800000Y-71890000D01*
X130995000Y-92925000D02*
X124940000Y-86870000D01*
X131700000Y-92925000D02*
X130995000Y-92925000D01*
X124160000Y-86090000D02*
X116650000Y-78580000D01*
X116650000Y-78580000D02*
X116650000Y-72831371D01*
X124588529Y-86090000D02*
X124160000Y-86090000D01*
X124940000Y-86870000D02*
X124940000Y-86441471D01*
%TO.N,TX1*%
X102970000Y-94690000D02*
X102850000Y-94570000D01*
X105800000Y-95730000D02*
X104760000Y-94690000D01*
X114850000Y-95730000D02*
X105800000Y-95730000D01*
X104760000Y-94690000D02*
X102970000Y-94690000D01*
%TO.N,RX1*%
X104050000Y-96040000D02*
X103070000Y-96040000D01*
X103070000Y-96040000D02*
X102850000Y-95820000D01*
X104600000Y-96590000D02*
X104050000Y-96040000D01*
X114697555Y-96620000D02*
X114667555Y-96590000D01*
X114667555Y-96590000D02*
X104600000Y-96590000D01*
%TO.N,SCL_PI*%
X112947249Y-91649868D02*
X112947249Y-91192581D01*
X114325000Y-92650000D02*
X113900000Y-92225000D01*
X105660000Y-83900000D02*
X105510000Y-83900000D01*
X113522381Y-92225000D02*
X112947249Y-91649868D01*
X112947249Y-91192581D02*
X109067944Y-87313276D01*
X109067944Y-87313276D02*
X105654668Y-83900000D01*
X105654668Y-83900000D02*
X105510000Y-83900000D01*
X105510000Y-83900000D02*
X102860000Y-83900000D01*
X113900000Y-92225000D02*
X113522381Y-92225000D01*
%TO.N,SDA_PI*%
X115067774Y-92120555D02*
X115067774Y-91992774D01*
X105725000Y-82650000D02*
X102860000Y-82650000D01*
X115067774Y-91992774D02*
X105725000Y-82650000D01*
%TO.N,ENCODER_1A*%
X123650000Y-93400000D02*
X131330000Y-93400000D01*
X136475000Y-94675000D02*
X136550000Y-94750000D01*
X132930000Y-95000000D02*
X134583529Y-95000000D01*
X131330000Y-93400000D02*
X132155000Y-94225000D01*
X120975000Y-96075000D02*
X123650000Y-93400000D01*
X132155000Y-94225000D02*
X132930000Y-95000000D01*
X134583529Y-95000000D02*
X134908529Y-94675000D01*
X134908529Y-94675000D02*
X136475000Y-94675000D01*
X118099726Y-96075000D02*
X120975000Y-96075000D01*
X117598811Y-96575915D02*
X118099726Y-96075000D01*
%TO.N,ENCODER_1B*%
X132935000Y-95700000D02*
X134558529Y-95700000D01*
X134933529Y-96075000D02*
X136475000Y-96075000D01*
X132160000Y-96475000D02*
X132935000Y-95700000D01*
X127525000Y-94350000D02*
X129400000Y-96225000D01*
X129400000Y-96225000D02*
X131910000Y-96225000D01*
X131910000Y-96225000D02*
X132160000Y-96475000D01*
X136475000Y-96075000D02*
X136550000Y-96000000D01*
X118800000Y-96525000D02*
X121467295Y-96525000D01*
X118625000Y-96700000D02*
X118800000Y-96525000D01*
X123642295Y-94350000D02*
X127525000Y-94350000D01*
X134558529Y-95700000D02*
X134933529Y-96075000D01*
X121467295Y-96525000D02*
X123642295Y-94350000D01*
%TO.N,/~{USB_BOOT}*%
X115375000Y-81175000D02*
X110350000Y-86200000D01*
X115425000Y-81175000D02*
X115375000Y-81175000D01*
X115925000Y-80675000D02*
X115425000Y-81175000D01*
%TO.N,5VOUT_1*%
X128850000Y-106048529D02*
X128450000Y-105648529D01*
X128450000Y-105648529D02*
X128450000Y-105550000D01*
X129809047Y-111738489D02*
X129808015Y-111738489D01*
X129250000Y-111180474D02*
X129250000Y-109473529D01*
X128850000Y-109073529D02*
X128850000Y-106048529D01*
X129250000Y-109473529D02*
X128850000Y-109073529D01*
X129808015Y-111738489D02*
X129250000Y-111180474D01*
%TO.N,5VOUT_2*%
X110425000Y-108785000D02*
X111250000Y-109610000D01*
X110425000Y-107437500D02*
X110425000Y-108785000D01*
X107875000Y-102377941D02*
X107875000Y-104887500D01*
X107875000Y-104887500D02*
X110425000Y-107437500D01*
X107478530Y-101981471D02*
X107875000Y-102377941D01*
%TD*%
%TA.AperFunction,Conductor*%
%TO.N,GND*%
G36*
X99928340Y-79087358D02*
G01*
X100413244Y-79091490D01*
X100427238Y-79092720D01*
X100530610Y-79110122D01*
X100557191Y-79119080D01*
X100643674Y-79164465D01*
X100666148Y-79181251D01*
X100734212Y-79251303D01*
X100750343Y-79274250D01*
X100793220Y-79362005D01*
X100801409Y-79388833D01*
X100815827Y-79492650D01*
X100816655Y-79506697D01*
X100803084Y-80176193D01*
X100801738Y-80189914D01*
X100783820Y-80291060D01*
X100774903Y-80317060D01*
X100730239Y-80401729D01*
X100713811Y-80423772D01*
X100645446Y-80490764D01*
X100623078Y-80506739D01*
X100537521Y-80549680D01*
X100511343Y-80558069D01*
X100430269Y-80570741D01*
X100409857Y-80573932D01*
X100396115Y-80575000D01*
X99479310Y-80575000D01*
X99465446Y-80573914D01*
X99363099Y-80557774D01*
X99336717Y-80549240D01*
X99250602Y-80505579D01*
X99228128Y-80489343D01*
X99159627Y-80421299D01*
X99143244Y-80398937D01*
X99099008Y-80313115D01*
X99090299Y-80286795D01*
X99073473Y-80184553D01*
X99072295Y-80170699D01*
X99067854Y-79506697D01*
X99067764Y-79493189D01*
X99068787Y-79479130D01*
X99084683Y-79375297D01*
X99093269Y-79348537D01*
X99137527Y-79261216D01*
X99154028Y-79238477D01*
X99223312Y-79169320D01*
X99246085Y-79152858D01*
X99333481Y-79108762D01*
X99360258Y-79100224D01*
X99464125Y-79084518D01*
X99478185Y-79083521D01*
X99928340Y-79087358D01*
G37*
%TD.AperFunction*%
%TD*%
%TA.AperFunction,Conductor*%
%TO.N,+12V*%
G36*
X118853071Y-112738970D02*
G01*
X118960795Y-112753480D01*
X118988588Y-112762018D01*
X119079221Y-112807171D01*
X119102787Y-112824223D01*
X119174014Y-112896184D01*
X119190824Y-112919924D01*
X119235045Y-113011012D01*
X119243302Y-113038905D01*
X119256705Y-113146751D01*
X119257310Y-113161322D01*
X119243526Y-113501336D01*
X119215787Y-114185564D01*
X119214204Y-114199045D01*
X119194770Y-114298363D01*
X119185588Y-114323835D01*
X119140482Y-114406656D01*
X119124064Y-114428189D01*
X119056139Y-114493615D01*
X119034004Y-114509215D01*
X118949553Y-114551182D01*
X118923752Y-114559404D01*
X118823778Y-114575102D01*
X118810241Y-114576179D01*
X111144944Y-114599379D01*
X111131352Y-114598376D01*
X111030933Y-114583172D01*
X111004997Y-114575048D01*
X110920054Y-114533297D01*
X110897778Y-114517724D01*
X110824396Y-114447498D01*
X110815300Y-114437348D01*
X110808278Y-114428189D01*
X110599326Y-114155643D01*
X110591625Y-114143740D01*
X110541598Y-114050960D01*
X110532302Y-114024248D01*
X110515171Y-113927555D01*
X110514726Y-113899285D01*
X110528800Y-113802094D01*
X110537246Y-113775113D01*
X110581108Y-113687243D01*
X110597593Y-113664276D01*
X110666803Y-113594612D01*
X110689671Y-113577971D01*
X110783671Y-113530280D01*
X110796783Y-113524893D01*
X112613451Y-112943110D01*
X112619383Y-112941436D01*
X112664619Y-112930366D01*
X112676859Y-112928263D01*
X112723198Y-112923605D01*
X112729375Y-112923202D01*
X118838519Y-112738216D01*
X118853071Y-112738970D01*
G37*
%TD.AperFunction*%
%TD*%
%TA.AperFunction,Conductor*%
%TO.N,GND*%
G36*
X100384553Y-98126086D02*
G01*
X100400691Y-98128630D01*
X100486902Y-98142226D01*
X100513282Y-98150759D01*
X100599397Y-98194420D01*
X100621870Y-98210655D01*
X100690371Y-98278699D01*
X100706755Y-98301062D01*
X100750991Y-98386884D01*
X100759701Y-98413208D01*
X100776525Y-98515443D01*
X100777704Y-98529300D01*
X100782235Y-99206806D01*
X100781212Y-99220869D01*
X100765316Y-99324702D01*
X100756726Y-99351470D01*
X100712476Y-99438775D01*
X100695967Y-99461527D01*
X100626692Y-99530675D01*
X100603908Y-99547144D01*
X100516522Y-99591235D01*
X100489737Y-99599776D01*
X100385874Y-99615481D01*
X100371813Y-99616477D01*
X99921659Y-99612641D01*
X99516790Y-99609191D01*
X99436765Y-99608509D01*
X99422749Y-99607277D01*
X99402085Y-99603798D01*
X99319390Y-99589877D01*
X99292808Y-99580919D01*
X99206325Y-99535534D01*
X99183850Y-99518747D01*
X99115786Y-99448695D01*
X99099656Y-99425749D01*
X99056779Y-99337994D01*
X99048590Y-99311166D01*
X99034171Y-99207336D01*
X99033344Y-99193314D01*
X99046916Y-98523794D01*
X99048259Y-98510099D01*
X99066180Y-98408935D01*
X99075096Y-98382939D01*
X99119761Y-98298267D01*
X99136181Y-98276236D01*
X99204558Y-98209230D01*
X99226921Y-98193260D01*
X99312478Y-98150319D01*
X99338655Y-98141930D01*
X99440141Y-98126067D01*
X99453885Y-98125000D01*
X100370690Y-98125000D01*
X100384553Y-98126086D01*
G37*
%TD.AperFunction*%
%TD*%
%TA.AperFunction,Conductor*%
%TO.N,GND*%
G36*
X100434553Y-85976086D02*
G01*
X100450691Y-85978630D01*
X100536902Y-85992226D01*
X100563282Y-86000759D01*
X100649397Y-86044420D01*
X100671870Y-86060655D01*
X100740371Y-86128699D01*
X100756755Y-86151062D01*
X100800991Y-86236884D01*
X100809701Y-86263208D01*
X100826525Y-86365443D01*
X100827704Y-86379300D01*
X100832235Y-87056806D01*
X100831212Y-87070869D01*
X100815316Y-87174702D01*
X100806726Y-87201470D01*
X100762476Y-87288775D01*
X100745967Y-87311527D01*
X100676692Y-87380675D01*
X100653908Y-87397144D01*
X100566522Y-87441235D01*
X100539737Y-87449776D01*
X100435874Y-87465481D01*
X100421813Y-87466477D01*
X99971659Y-87462641D01*
X99566790Y-87459191D01*
X99486765Y-87458509D01*
X99472749Y-87457277D01*
X99452085Y-87453798D01*
X99369390Y-87439877D01*
X99342808Y-87430919D01*
X99256325Y-87385534D01*
X99233850Y-87368747D01*
X99165786Y-87298695D01*
X99149656Y-87275749D01*
X99106779Y-87187994D01*
X99098590Y-87161166D01*
X99084171Y-87057336D01*
X99083344Y-87043314D01*
X99096916Y-86373794D01*
X99098259Y-86360099D01*
X99116180Y-86258935D01*
X99125096Y-86232939D01*
X99169761Y-86148267D01*
X99186181Y-86126236D01*
X99254558Y-86059230D01*
X99276921Y-86043260D01*
X99362478Y-86000319D01*
X99388655Y-85991930D01*
X99490141Y-85976067D01*
X99503885Y-85975000D01*
X100420690Y-85975000D01*
X100434553Y-85976086D01*
G37*
%TD.AperFunction*%
%TD*%
%TA.AperFunction,Conductor*%
%TO.N,GND*%
G36*
X103256920Y-80351096D02*
G01*
X103359689Y-80367372D01*
X103386161Y-80375973D01*
X103472554Y-80419993D01*
X103495078Y-80436357D01*
X103563642Y-80504921D01*
X103580006Y-80527446D01*
X103624024Y-80613834D01*
X103632628Y-80640315D01*
X103648904Y-80743079D01*
X103650000Y-80757001D01*
X103650000Y-81394255D01*
X103648909Y-81408150D01*
X103632696Y-81510723D01*
X103624124Y-81537160D01*
X103580275Y-81623416D01*
X103563969Y-81645918D01*
X103495652Y-81714449D01*
X103473199Y-81730826D01*
X103387076Y-81774945D01*
X103360668Y-81783599D01*
X103258152Y-81800132D01*
X103244260Y-81801267D01*
X102465293Y-81803701D01*
X102451191Y-81802621D01*
X102347096Y-81786251D01*
X102320288Y-81777512D01*
X102232927Y-81732673D01*
X102210198Y-81715985D01*
X102208683Y-81714449D01*
X102141256Y-81646066D01*
X102124888Y-81623102D01*
X102082291Y-81537160D01*
X102081282Y-81535124D01*
X102072922Y-81508199D01*
X102058015Y-81403869D01*
X102057134Y-81389771D01*
X102068126Y-80750043D01*
X102069431Y-80736318D01*
X102087106Y-80634900D01*
X102095974Y-80608834D01*
X102140543Y-80523906D01*
X102156960Y-80501792D01*
X102223529Y-80436357D01*
X102225363Y-80434554D01*
X102247752Y-80418521D01*
X102333440Y-80375416D01*
X102359655Y-80366998D01*
X102439714Y-80354459D01*
X102461343Y-80351072D01*
X102475114Y-80350000D01*
X103242998Y-80350000D01*
X103256920Y-80351096D01*
G37*
%TD.AperFunction*%
%TD*%
%TA.AperFunction,Conductor*%
%TO.N,GND*%
G36*
X103281920Y-92476096D02*
G01*
X103384689Y-92492372D01*
X103411161Y-92500973D01*
X103497554Y-92544993D01*
X103520078Y-92561357D01*
X103588642Y-92629921D01*
X103605006Y-92652446D01*
X103649024Y-92738834D01*
X103657628Y-92765315D01*
X103673904Y-92868079D01*
X103675000Y-92882001D01*
X103675000Y-93519255D01*
X103673909Y-93533150D01*
X103657696Y-93635723D01*
X103649124Y-93662160D01*
X103605275Y-93748416D01*
X103588969Y-93770918D01*
X103520652Y-93839449D01*
X103498199Y-93855826D01*
X103412076Y-93899945D01*
X103385668Y-93908599D01*
X103283152Y-93925132D01*
X103269260Y-93926267D01*
X102490293Y-93928701D01*
X102476191Y-93927621D01*
X102372096Y-93911251D01*
X102345288Y-93902512D01*
X102257927Y-93857673D01*
X102235198Y-93840985D01*
X102233683Y-93839449D01*
X102166256Y-93771066D01*
X102149888Y-93748102D01*
X102107291Y-93662160D01*
X102106282Y-93660124D01*
X102097922Y-93633199D01*
X102083015Y-93528869D01*
X102082134Y-93514771D01*
X102093126Y-92875043D01*
X102094431Y-92861318D01*
X102112106Y-92759900D01*
X102120974Y-92733834D01*
X102165543Y-92648906D01*
X102181960Y-92626792D01*
X102248529Y-92561357D01*
X102250363Y-92559554D01*
X102272752Y-92543521D01*
X102358440Y-92500416D01*
X102384655Y-92491998D01*
X102464714Y-92479459D01*
X102486343Y-92476072D01*
X102500114Y-92475000D01*
X103267998Y-92475000D01*
X103281920Y-92476096D01*
G37*
%TD.AperFunction*%
%TD*%
%TA.AperFunction,Conductor*%
%TO.N,GND*%
G36*
X99953340Y-91237358D02*
G01*
X100438244Y-91241490D01*
X100452238Y-91242720D01*
X100555610Y-91260122D01*
X100582191Y-91269080D01*
X100668674Y-91314465D01*
X100691148Y-91331251D01*
X100759212Y-91401303D01*
X100775343Y-91424250D01*
X100818220Y-91512005D01*
X100826409Y-91538833D01*
X100840827Y-91642650D01*
X100841655Y-91656697D01*
X100828084Y-92326193D01*
X100826738Y-92339914D01*
X100808820Y-92441060D01*
X100799903Y-92467060D01*
X100755239Y-92551729D01*
X100738811Y-92573772D01*
X100670446Y-92640764D01*
X100648078Y-92656739D01*
X100562521Y-92699680D01*
X100536343Y-92708069D01*
X100455269Y-92720741D01*
X100434857Y-92723932D01*
X100421115Y-92725000D01*
X99504310Y-92725000D01*
X99490446Y-92723914D01*
X99388099Y-92707774D01*
X99361717Y-92699240D01*
X99275602Y-92655579D01*
X99253128Y-92639343D01*
X99184627Y-92571299D01*
X99168244Y-92548937D01*
X99124008Y-92463115D01*
X99115299Y-92436795D01*
X99098473Y-92334553D01*
X99097295Y-92320699D01*
X99092854Y-91656697D01*
X99092764Y-91643189D01*
X99093787Y-91629130D01*
X99109683Y-91525297D01*
X99118269Y-91498537D01*
X99162527Y-91411216D01*
X99179028Y-91388477D01*
X99248312Y-91319320D01*
X99271085Y-91302858D01*
X99358481Y-91258762D01*
X99385258Y-91250224D01*
X99489125Y-91234518D01*
X99503185Y-91233521D01*
X99953340Y-91237358D01*
G37*
%TD.AperFunction*%
%TD*%
%TA.AperFunction,Conductor*%
%TO.N,GND*%
G36*
X139859553Y-98076086D02*
G01*
X139875691Y-98078630D01*
X139961902Y-98092226D01*
X139988282Y-98100759D01*
X140074397Y-98144420D01*
X140096870Y-98160655D01*
X140165371Y-98228699D01*
X140181755Y-98251062D01*
X140225991Y-98336884D01*
X140234701Y-98363208D01*
X140251525Y-98465443D01*
X140252704Y-98479300D01*
X140257235Y-99156806D01*
X140256212Y-99170869D01*
X140240316Y-99274702D01*
X140231726Y-99301470D01*
X140187476Y-99388775D01*
X140170967Y-99411527D01*
X140101692Y-99480675D01*
X140078908Y-99497144D01*
X139991522Y-99541235D01*
X139964737Y-99549776D01*
X139860874Y-99565481D01*
X139846813Y-99566477D01*
X139396659Y-99562641D01*
X138991790Y-99559191D01*
X138911765Y-99558509D01*
X138897749Y-99557277D01*
X138877085Y-99553798D01*
X138794390Y-99539877D01*
X138767808Y-99530919D01*
X138681325Y-99485534D01*
X138658850Y-99468747D01*
X138590786Y-99398695D01*
X138574656Y-99375749D01*
X138531779Y-99287994D01*
X138523590Y-99261166D01*
X138509171Y-99157336D01*
X138508344Y-99143314D01*
X138521916Y-98473794D01*
X138523259Y-98460099D01*
X138541180Y-98358935D01*
X138550096Y-98332939D01*
X138594761Y-98248267D01*
X138611181Y-98226236D01*
X138679558Y-98159230D01*
X138701921Y-98143260D01*
X138787478Y-98100319D01*
X138813655Y-98091930D01*
X138915141Y-98076067D01*
X138928885Y-98075000D01*
X139845690Y-98075000D01*
X139859553Y-98076086D01*
G37*
%TD.AperFunction*%
%TD*%
%TA.AperFunction,Conductor*%
%TO.N,+5V*%
G36*
X137426877Y-91435461D02*
G01*
X137437165Y-91445552D01*
X137465107Y-91477798D01*
X137468872Y-91482143D01*
X137589947Y-91559953D01*
X137589949Y-91559953D01*
X137589950Y-91559954D01*
X137685573Y-91588031D01*
X137734598Y-91624126D01*
X137749500Y-91673426D01*
X137749500Y-92019752D01*
X137761132Y-92078231D01*
X137805445Y-92144548D01*
X137805448Y-92144552D01*
X137805451Y-92144554D01*
X137871768Y-92188867D01*
X137884392Y-92191378D01*
X137936438Y-92222960D01*
X137956015Y-92277104D01*
X137968000Y-92958936D01*
X137948187Y-93016501D01*
X137896007Y-93047863D01*
X137879014Y-93049500D01*
X137778037Y-93049500D01*
X137639950Y-93090045D01*
X137518871Y-93167857D01*
X137424623Y-93276625D01*
X137424621Y-93276628D01*
X137364834Y-93407543D01*
X137344353Y-93549999D01*
X137344353Y-93550000D01*
X137364834Y-93692456D01*
X137424621Y-93823371D01*
X137428064Y-93828727D01*
X137425687Y-93830254D01*
X137443550Y-93877019D01*
X137423634Y-93934548D01*
X137371398Y-93965817D01*
X137353794Y-93967421D01*
X137314365Y-93967081D01*
X136739490Y-93962125D01*
X135481463Y-93951280D01*
X135467811Y-93950106D01*
X135433234Y-93944424D01*
X135366978Y-93933537D01*
X135340997Y-93925011D01*
X135256152Y-93881771D01*
X135233986Y-93865759D01*
X135166271Y-93798798D01*
X135150014Y-93776813D01*
X135105829Y-93692458D01*
X135097012Y-93666573D01*
X135079316Y-93565919D01*
X135077991Y-93552290D01*
X135066055Y-92949556D01*
X135063306Y-92810770D01*
X135075000Y-92825000D01*
X137600000Y-92850000D01*
X137550000Y-91725000D01*
X135200000Y-91675000D01*
X135036696Y-91466955D01*
X135036437Y-91453869D01*
X135089677Y-91477798D01*
X135093368Y-91481707D01*
X135093868Y-91482140D01*
X135093870Y-91482141D01*
X135093872Y-91482143D01*
X135214947Y-91559953D01*
X135353039Y-91600500D01*
X135353042Y-91600500D01*
X135496958Y-91600500D01*
X135496961Y-91600500D01*
X135635053Y-91559953D01*
X135756128Y-91482143D01*
X135783301Y-91450782D01*
X135836498Y-91421182D01*
X135850239Y-91420066D01*
X137369599Y-91414836D01*
X137426877Y-91435461D01*
G37*
%TD.AperFunction*%
%TD*%
%TA.AperFunction,Conductor*%
%TO.N,GND*%
G36*
X137804361Y-96846948D02*
G01*
X137905970Y-96863174D01*
X137932959Y-96872080D01*
X138017832Y-96916171D01*
X138040640Y-96933136D01*
X138107279Y-97001736D01*
X138123576Y-97025028D01*
X138165185Y-97111139D01*
X138173307Y-97138381D01*
X138186578Y-97240411D01*
X138187278Y-97254658D01*
X138187250Y-97255558D01*
X138185774Y-97269164D01*
X138167006Y-97369438D01*
X138157928Y-97395183D01*
X138112937Y-97478933D01*
X138096482Y-97500716D01*
X138028225Y-97566886D01*
X138005942Y-97582657D01*
X137920835Y-97625027D01*
X137894820Y-97633301D01*
X137794015Y-97648947D01*
X137780365Y-97650000D01*
X136157002Y-97650000D01*
X136143080Y-97648904D01*
X136040315Y-97632628D01*
X136013834Y-97624024D01*
X135927446Y-97580006D01*
X135904921Y-97563642D01*
X135836357Y-97495078D01*
X135819993Y-97472554D01*
X135775973Y-97386161D01*
X135767372Y-97359689D01*
X135752138Y-97263505D01*
X135752136Y-97235680D01*
X135767328Y-97139630D01*
X135775906Y-97113192D01*
X135819819Y-97026877D01*
X135836141Y-97004374D01*
X135904548Y-96935827D01*
X135927020Y-96919458D01*
X136013238Y-96875372D01*
X136039671Y-96866737D01*
X136142277Y-96850292D01*
X136156170Y-96849170D01*
X137230561Y-96846978D01*
X137790159Y-96845836D01*
X137804361Y-96846948D01*
G37*
%TD.AperFunction*%
%TD*%
%TA.AperFunction,Conductor*%
%TO.N,+3V3*%
G36*
X109154065Y-83055681D02*
G01*
X109167939Y-83056920D01*
X109270371Y-83074235D01*
X109296721Y-83083093D01*
X109382533Y-83127888D01*
X109404862Y-83144440D01*
X109472672Y-83213531D01*
X109488804Y-83236166D01*
X109531986Y-83322798D01*
X109540350Y-83349310D01*
X109555746Y-83452043D01*
X109556726Y-83465952D01*
X109553290Y-83892008D01*
X109552079Y-83905943D01*
X109534922Y-84008733D01*
X109526077Y-84035181D01*
X109481233Y-84121310D01*
X109464636Y-84143724D01*
X109395335Y-84211747D01*
X109372618Y-84227923D01*
X109285673Y-84271157D01*
X109259065Y-84279509D01*
X109155974Y-84294753D01*
X109142018Y-84295705D01*
X109009251Y-84294307D01*
X108995302Y-84293057D01*
X108892351Y-84275580D01*
X108865882Y-84266637D01*
X108779734Y-84221409D01*
X108757339Y-84204698D01*
X108724357Y-84170826D01*
X108689461Y-84134988D01*
X108673353Y-84112156D01*
X108630438Y-84024833D01*
X108622204Y-83998136D01*
X108607477Y-83894759D01*
X108606600Y-83880776D01*
X108613292Y-83465952D01*
X108613472Y-83454736D01*
X108614782Y-83440892D01*
X108632598Y-83338732D01*
X108641566Y-83312480D01*
X108686679Y-83227024D01*
X108703291Y-83204817D01*
X108772528Y-83137408D01*
X108795184Y-83121389D01*
X108881806Y-83078584D01*
X108908293Y-83070320D01*
X109010888Y-83055245D01*
X109024765Y-83054306D01*
X109154065Y-83055681D01*
G37*
%TD.AperFunction*%
%TD*%
%TA.AperFunction,Conductor*%
%TO.N,+5V*%
G36*
X122654617Y-74466786D02*
G01*
X122680777Y-74475151D01*
X122766235Y-74517962D01*
X122788578Y-74533887D01*
X122856927Y-74600700D01*
X122873358Y-74622680D01*
X122918097Y-74707139D01*
X122927051Y-74733081D01*
X122945163Y-74834027D01*
X122946539Y-74847723D01*
X123010342Y-77655077D01*
X123025000Y-78300000D01*
X123234278Y-78409357D01*
X123234280Y-78409359D01*
X123357039Y-78473506D01*
X123358845Y-78474450D01*
X123398584Y-78516357D01*
X123424623Y-78573373D01*
X123424623Y-78573374D01*
X123474546Y-78630988D01*
X123518872Y-78682143D01*
X123639947Y-78759953D01*
X123778039Y-78800500D01*
X123778042Y-78800500D01*
X123921959Y-78800500D01*
X123921961Y-78800500D01*
X123926452Y-78799181D01*
X123987209Y-78803038D01*
X123992743Y-78805691D01*
X132254771Y-83122984D01*
X132267033Y-83130724D01*
X132353349Y-83195612D01*
X132373323Y-83216498D01*
X132430133Y-83299542D01*
X132442361Y-83325729D01*
X132471555Y-83429692D01*
X132474325Y-83443926D01*
X132615862Y-84717766D01*
X132616290Y-84732129D01*
X132610836Y-84839014D01*
X132604791Y-84867017D01*
X132568332Y-84959839D01*
X132553704Y-84984469D01*
X132489646Y-85060901D01*
X132467950Y-85079610D01*
X132376701Y-85135549D01*
X132363884Y-85142046D01*
X132031810Y-85277895D01*
X132017622Y-85282356D01*
X131933429Y-85301272D01*
X131903826Y-85302863D01*
X131825601Y-85293934D01*
X131797120Y-85285714D01*
X131726173Y-85251593D01*
X131701970Y-85234475D01*
X131646160Y-85178940D01*
X131628926Y-85154827D01*
X131594450Y-85084040D01*
X131586091Y-85055604D01*
X131575881Y-84969901D01*
X131575363Y-84955051D01*
X131579131Y-84877809D01*
X131600000Y-84450000D01*
X130689633Y-84467850D01*
X130511601Y-84471340D01*
X130455243Y-84472446D01*
X130441940Y-84471709D01*
X130343478Y-84458813D01*
X130317942Y-84451468D01*
X130227678Y-84410081D01*
X130216017Y-84403638D01*
X125415672Y-81260399D01*
X121740744Y-78854076D01*
X121704291Y-78805318D01*
X121700500Y-78779619D01*
X121700500Y-75289500D01*
X121721322Y-75232292D01*
X121774045Y-75201852D01*
X121789500Y-75200500D01*
X121918989Y-75200500D01*
X121918993Y-75200500D01*
X122054328Y-75173580D01*
X122181811Y-75120775D01*
X122296542Y-75044114D01*
X122394114Y-74946542D01*
X122470775Y-74831811D01*
X122523580Y-74704328D01*
X122550500Y-74568993D01*
X122550500Y-74554505D01*
X122571322Y-74497297D01*
X122624045Y-74466857D01*
X122653196Y-74466565D01*
X122654617Y-74466786D01*
G37*
%TD.AperFunction*%
%TD*%
%TA.AperFunction,Conductor*%
%TO.N,Motor1A1*%
G36*
X136955543Y-109064470D02*
G01*
X137067678Y-109082230D01*
X137082259Y-109086968D01*
X137179936Y-109136737D01*
X137192338Y-109145748D01*
X137269854Y-109223264D01*
X137278865Y-109235666D01*
X137328634Y-109333343D01*
X137333372Y-109347923D01*
X137351133Y-109460058D01*
X137351736Y-109467724D01*
X137351736Y-109656190D01*
X137351133Y-109663856D01*
X137333370Y-109775996D01*
X137328632Y-109790576D01*
X137278861Y-109888255D01*
X137269849Y-109900658D01*
X137189568Y-109980934D01*
X137183721Y-109985928D01*
X134534997Y-111910215D01*
X134528441Y-111914232D01*
X134427291Y-111965767D01*
X134412712Y-111970504D01*
X134300582Y-111988264D01*
X134292917Y-111988867D01*
X132218121Y-111988867D01*
X132210456Y-111988264D01*
X132197006Y-111986133D01*
X132117633Y-111973562D01*
X132103053Y-111968824D01*
X132022798Y-111927932D01*
X132010396Y-111918921D01*
X131946708Y-111855233D01*
X131937697Y-111842831D01*
X131896805Y-111762576D01*
X131892067Y-111747995D01*
X131877366Y-111655174D01*
X131876763Y-111647509D01*
X131876763Y-111495316D01*
X131878433Y-111482634D01*
X131896811Y-111414046D01*
X131909490Y-111392085D01*
X131954981Y-111346594D01*
X131976942Y-111333915D01*
X132049539Y-111314462D01*
X132052268Y-111313867D01*
X132226763Y-111313867D01*
X132526763Y-110838867D01*
X132526763Y-110707816D01*
X132528433Y-110695134D01*
X132541787Y-110645296D01*
X132554466Y-110623335D01*
X132586231Y-110591570D01*
X132608192Y-110578891D01*
X132658031Y-110565537D01*
X132670713Y-110563867D01*
X133830396Y-110563867D01*
X133860225Y-110573993D01*
X133867755Y-110579771D01*
X133952159Y-110644536D01*
X133952161Y-110644536D01*
X133952163Y-110644538D01*
X134074313Y-110695134D01*
X134098238Y-110705044D01*
X134255000Y-110725682D01*
X134411762Y-110705044D01*
X134557841Y-110644536D01*
X134683282Y-110548282D01*
X134706961Y-110517422D01*
X134722341Y-110504424D01*
X134722322Y-110504393D01*
X134722412Y-110504336D01*
X135751763Y-109863867D01*
X135751763Y-109467724D01*
X135752366Y-109460059D01*
X135770126Y-109347924D01*
X135774864Y-109333343D01*
X135824635Y-109235663D01*
X135833641Y-109223267D01*
X135911163Y-109145745D01*
X135923559Y-109136739D01*
X136021241Y-109086967D01*
X136035818Y-109082230D01*
X136147956Y-109064470D01*
X136155621Y-109063867D01*
X136947878Y-109063867D01*
X136955543Y-109064470D01*
G37*
%TD.AperFunction*%
%TD*%
%TA.AperFunction,Conductor*%
%TO.N,Motor2B2*%
G36*
X103253807Y-108975603D02*
G01*
X103365942Y-108993363D01*
X103380523Y-108998101D01*
X103478200Y-109047870D01*
X103490602Y-109056881D01*
X103568118Y-109134397D01*
X103577129Y-109146799D01*
X103626898Y-109244476D01*
X103631636Y-109259056D01*
X103649397Y-109371191D01*
X103650000Y-109378857D01*
X103650000Y-109775000D01*
X103838682Y-109892399D01*
X103838683Y-109892400D01*
X104677986Y-110414621D01*
X104677991Y-110414623D01*
X104775027Y-110475000D01*
X104782602Y-110475000D01*
X104847155Y-110524533D01*
X104847160Y-110524537D01*
X104924160Y-110556431D01*
X104993238Y-110585044D01*
X105150000Y-110605682D01*
X105306762Y-110585044D01*
X105452841Y-110524536D01*
X105504201Y-110485125D01*
X105534030Y-110475000D01*
X106237514Y-110475000D01*
X106731050Y-110475000D01*
X106743732Y-110476670D01*
X106793568Y-110490023D01*
X106815533Y-110502705D01*
X106847294Y-110534466D01*
X106859976Y-110556431D01*
X106873330Y-110606266D01*
X106875000Y-110618949D01*
X106875000Y-110750000D01*
X106936801Y-110847852D01*
X106936805Y-110847860D01*
X106936807Y-110847863D01*
X106980422Y-110916919D01*
X106987574Y-110936689D01*
X107003470Y-111057433D01*
X107063976Y-111203508D01*
X107063979Y-111203513D01*
X107117972Y-111273879D01*
X107160233Y-111328954D01*
X107285674Y-111425208D01*
X107285676Y-111425208D01*
X107285678Y-111425210D01*
X107431753Y-111485716D01*
X107482395Y-111492383D01*
X107514874Y-111511134D01*
X107525000Y-111540964D01*
X107525000Y-111558642D01*
X107524397Y-111566308D01*
X107509695Y-111659129D01*
X107504957Y-111673709D01*
X107464065Y-111753964D01*
X107455054Y-111766366D01*
X107391366Y-111830054D01*
X107378964Y-111839065D01*
X107298709Y-111879957D01*
X107284129Y-111884695D01*
X107202499Y-111897624D01*
X107191306Y-111899397D01*
X107183642Y-111900000D01*
X105108846Y-111900000D01*
X105101181Y-111899397D01*
X104989050Y-111881637D01*
X104974471Y-111876900D01*
X104873321Y-111825365D01*
X104866765Y-111821348D01*
X102218041Y-109897061D01*
X102212194Y-109892067D01*
X102131913Y-109811791D01*
X102122902Y-109799390D01*
X102073130Y-109701709D01*
X102068392Y-109687129D01*
X102050630Y-109574989D01*
X102050027Y-109567323D01*
X102050027Y-109378857D01*
X102050630Y-109371192D01*
X102068390Y-109259057D01*
X102073128Y-109244476D01*
X102122899Y-109146796D01*
X102131905Y-109134400D01*
X102209427Y-109056878D01*
X102221823Y-109047872D01*
X102319505Y-108998100D01*
X102334082Y-108993363D01*
X102446220Y-108975603D01*
X102453885Y-108975000D01*
X103246142Y-108975000D01*
X103253807Y-108975603D01*
G37*
%TD.AperFunction*%
%TD*%
%TA.AperFunction,Conductor*%
%TO.N,Motor1B2*%
G36*
X134298819Y-103190603D02*
G01*
X134410950Y-103208362D01*
X134425527Y-103213098D01*
X134526681Y-103264636D01*
X134533232Y-103268649D01*
X136423220Y-104641718D01*
X137181958Y-105192938D01*
X137187805Y-105197932D01*
X137268086Y-105278208D01*
X137277098Y-105290611D01*
X137326869Y-105388290D01*
X137331607Y-105402870D01*
X137349370Y-105515010D01*
X137349973Y-105522676D01*
X137349973Y-105711142D01*
X137349370Y-105718808D01*
X137331609Y-105830943D01*
X137326871Y-105845523D01*
X137277102Y-105943200D01*
X137268091Y-105955602D01*
X137190575Y-106033118D01*
X137178173Y-106042129D01*
X137080496Y-106091898D01*
X137065916Y-106096636D01*
X136967382Y-106112242D01*
X136953779Y-106114397D01*
X136946115Y-106115000D01*
X136153858Y-106115000D01*
X136146193Y-106114397D01*
X136034057Y-106096636D01*
X136019476Y-106091898D01*
X135921799Y-106042129D01*
X135909397Y-106033118D01*
X135831881Y-105955602D01*
X135822870Y-105943200D01*
X135773101Y-105845523D01*
X135768363Y-105830942D01*
X135750603Y-105718807D01*
X135750000Y-105711142D01*
X135750000Y-105537227D01*
X135750000Y-105537225D01*
X135750000Y-105315000D01*
X135561317Y-105197600D01*
X135561316Y-105197599D01*
X134752728Y-104694490D01*
X134739740Y-104682715D01*
X134708282Y-104641718D01*
X134708281Y-104641717D01*
X134582841Y-104545464D01*
X134582836Y-104545461D01*
X134436761Y-104484955D01*
X134280000Y-104464318D01*
X134123238Y-104484955D01*
X133977163Y-104545461D01*
X133977158Y-104545464D01*
X133899734Y-104604874D01*
X133869905Y-104615000D01*
X132668950Y-104615000D01*
X132656268Y-104613330D01*
X132606430Y-104599975D01*
X132584466Y-104587294D01*
X132552705Y-104555533D01*
X132540023Y-104533568D01*
X132526670Y-104483732D01*
X132525000Y-104471050D01*
X132525000Y-104455741D01*
X132525000Y-104455740D01*
X132525000Y-104340000D01*
X132225000Y-103865000D01*
X132050509Y-103865000D01*
X132047771Y-103864402D01*
X131975182Y-103844952D01*
X131953216Y-103832270D01*
X131907729Y-103786783D01*
X131895047Y-103764818D01*
X131876670Y-103696232D01*
X131875000Y-103683550D01*
X131875000Y-103531357D01*
X131875603Y-103523692D01*
X131890304Y-103430871D01*
X131895042Y-103416290D01*
X131935936Y-103336032D01*
X131944942Y-103323636D01*
X132008636Y-103259942D01*
X132021032Y-103250936D01*
X132101292Y-103210041D01*
X132115869Y-103205304D01*
X132208693Y-103190603D01*
X132216358Y-103190000D01*
X134291154Y-103190000D01*
X134298819Y-103190603D01*
G37*
%TD.AperFunction*%
%TD*%
%TA.AperFunction,Conductor*%
%TO.N,Motor2A1*%
G36*
X107178787Y-103125603D02*
G01*
X107290922Y-103143363D01*
X107305502Y-103148101D01*
X107403174Y-103197867D01*
X107415576Y-103206877D01*
X107460147Y-103251446D01*
X107474500Y-103286094D01*
X107474500Y-104463916D01*
X107460148Y-104498564D01*
X107460148Y-104498565D01*
X107415594Y-104543118D01*
X107403192Y-104552128D01*
X107305517Y-104601898D01*
X107290936Y-104606636D01*
X107178800Y-104624397D01*
X107171135Y-104625000D01*
X105656697Y-104625000D01*
X105622049Y-104610648D01*
X105617823Y-104605829D01*
X105553282Y-104521718D01*
X105553281Y-104521717D01*
X105427841Y-104425464D01*
X105427836Y-104425461D01*
X105281761Y-104364955D01*
X105125000Y-104344318D01*
X104968238Y-104364955D01*
X104822163Y-104425461D01*
X104822158Y-104425464D01*
X104696719Y-104521716D01*
X104617465Y-104625000D01*
X104600000Y-104625000D01*
X104502145Y-104686802D01*
X104502143Y-104686803D01*
X104502138Y-104686806D01*
X103843768Y-105102620D01*
X103650000Y-105225000D01*
X103650000Y-105445462D01*
X103650000Y-105621142D01*
X103649397Y-105628808D01*
X103631636Y-105740943D01*
X103626898Y-105755523D01*
X103577129Y-105853200D01*
X103568118Y-105865602D01*
X103490602Y-105943118D01*
X103478200Y-105952129D01*
X103380523Y-106001898D01*
X103365943Y-106006636D01*
X103267409Y-106022242D01*
X103253806Y-106024397D01*
X103246142Y-106025000D01*
X102453858Y-106025000D01*
X102446193Y-106024397D01*
X102334057Y-106006636D01*
X102319476Y-106001898D01*
X102221799Y-105952129D01*
X102209397Y-105943118D01*
X102131881Y-105865602D01*
X102122870Y-105853200D01*
X102073101Y-105755523D01*
X102068363Y-105740942D01*
X102050603Y-105628807D01*
X102050000Y-105621142D01*
X102050000Y-105425478D01*
X102050568Y-105418041D01*
X102067288Y-105309154D01*
X102071748Y-105294976D01*
X102118701Y-105199513D01*
X102127208Y-105187327D01*
X102203265Y-105107600D01*
X102208791Y-105102628D01*
X104663890Y-103210625D01*
X104670627Y-103206263D01*
X104775128Y-103150196D01*
X104790280Y-103145036D01*
X104907268Y-103125658D01*
X104915275Y-103125000D01*
X107171122Y-103125000D01*
X107178787Y-103125603D01*
G37*
%TD.AperFunction*%
%TD*%
%TA.AperFunction,Conductor*%
%TO.N,+3V3*%
G36*
X101854611Y-96831606D02*
G01*
X102088774Y-96835383D01*
X102280262Y-96838472D01*
X102294108Y-96839782D01*
X102383885Y-96855439D01*
X102396265Y-96857598D01*
X102422521Y-96866567D01*
X102507972Y-96911677D01*
X102530185Y-96928293D01*
X102563889Y-96962912D01*
X102597590Y-96997528D01*
X102613610Y-97020184D01*
X102656414Y-97106805D01*
X102664679Y-97133295D01*
X102679753Y-97235885D01*
X102680693Y-97249769D01*
X102679318Y-97379058D01*
X102678078Y-97392946D01*
X102660764Y-97495370D01*
X102651906Y-97521721D01*
X102607111Y-97607533D01*
X102590555Y-97629867D01*
X102521471Y-97697670D01*
X102498833Y-97713804D01*
X102412201Y-97756986D01*
X102385689Y-97765350D01*
X102282956Y-97780746D01*
X102269052Y-97781725D01*
X101842986Y-97778289D01*
X101829056Y-97777079D01*
X101726266Y-97759922D01*
X101699818Y-97751077D01*
X101613689Y-97706233D01*
X101591275Y-97689636D01*
X101523252Y-97620335D01*
X101507076Y-97597618D01*
X101463842Y-97510673D01*
X101455490Y-97484065D01*
X101440245Y-97380963D01*
X101439294Y-97367028D01*
X101440692Y-97234250D01*
X101441940Y-97220304D01*
X101459420Y-97117346D01*
X101468362Y-97090882D01*
X101513590Y-97004734D01*
X101530299Y-96982340D01*
X101600014Y-96914459D01*
X101622838Y-96898356D01*
X101710168Y-96855437D01*
X101736862Y-96847205D01*
X101840239Y-96832477D01*
X101854222Y-96831600D01*
X101854611Y-96831606D01*
G37*
%TD.AperFunction*%
%TD*%
%TA.AperFunction,Conductor*%
%TO.N,+3V3*%
G36*
X109096991Y-88755231D02*
G01*
X109140748Y-88755692D01*
X109154696Y-88756941D01*
X109257651Y-88774420D01*
X109284117Y-88783362D01*
X109370265Y-88828590D01*
X109392660Y-88845301D01*
X109452031Y-88906275D01*
X109460536Y-88915009D01*
X109476646Y-88937843D01*
X109519560Y-89025163D01*
X109527795Y-89051866D01*
X109542521Y-89155236D01*
X109543399Y-89169223D01*
X109536527Y-89595258D01*
X109535216Y-89609114D01*
X109517401Y-89711265D01*
X109508431Y-89737522D01*
X109463326Y-89822966D01*
X109446703Y-89845188D01*
X109377471Y-89912590D01*
X109354815Y-89928610D01*
X109268194Y-89971414D01*
X109241704Y-89979679D01*
X109139114Y-89994753D01*
X109125230Y-89995693D01*
X108995941Y-89994318D01*
X108982053Y-89993078D01*
X108879629Y-89975764D01*
X108853278Y-89966906D01*
X108767466Y-89922111D01*
X108745136Y-89905558D01*
X108677326Y-89836467D01*
X108661195Y-89813833D01*
X108618013Y-89727201D01*
X108609649Y-89700689D01*
X108595925Y-89609114D01*
X108594252Y-89597951D01*
X108593273Y-89584047D01*
X108596676Y-89162195D01*
X108596709Y-89157982D01*
X108597920Y-89144056D01*
X108613308Y-89051866D01*
X108615078Y-89041262D01*
X108623922Y-89014818D01*
X108668768Y-88928685D01*
X108685361Y-88906277D01*
X108721048Y-88871247D01*
X108754664Y-88838252D01*
X108777381Y-88822076D01*
X108864327Y-88778841D01*
X108890932Y-88770490D01*
X108994037Y-88755245D01*
X109007970Y-88754294D01*
X109096991Y-88755231D01*
G37*
%TD.AperFunction*%
%TD*%
%TA.AperFunction,Conductor*%
%TO.N,+3V3*%
G36*
X103456335Y-84684550D02*
G01*
X103690498Y-84688327D01*
X103881986Y-84691416D01*
X103895832Y-84692726D01*
X103985609Y-84708383D01*
X103997989Y-84710542D01*
X104024245Y-84719511D01*
X104109696Y-84764621D01*
X104131909Y-84781237D01*
X104165613Y-84815856D01*
X104199314Y-84850472D01*
X104215334Y-84873128D01*
X104258138Y-84959749D01*
X104266403Y-84986239D01*
X104281477Y-85088829D01*
X104282417Y-85102713D01*
X104281042Y-85232002D01*
X104279802Y-85245890D01*
X104262488Y-85348314D01*
X104253630Y-85374665D01*
X104208835Y-85460477D01*
X104192279Y-85482811D01*
X104123195Y-85550614D01*
X104100557Y-85566748D01*
X104013925Y-85609930D01*
X103987413Y-85618294D01*
X103884680Y-85633690D01*
X103870776Y-85634669D01*
X103444710Y-85631233D01*
X103430780Y-85630023D01*
X103327990Y-85612866D01*
X103301542Y-85604021D01*
X103215413Y-85559177D01*
X103192999Y-85542580D01*
X103124976Y-85473279D01*
X103108800Y-85450562D01*
X103065566Y-85363617D01*
X103057214Y-85337009D01*
X103041969Y-85233907D01*
X103041018Y-85219972D01*
X103042416Y-85087194D01*
X103043664Y-85073248D01*
X103061144Y-84970290D01*
X103070086Y-84943826D01*
X103115314Y-84857678D01*
X103132023Y-84835284D01*
X103201738Y-84767403D01*
X103224562Y-84751300D01*
X103311892Y-84708381D01*
X103338586Y-84700149D01*
X103441963Y-84685421D01*
X103455946Y-84684544D01*
X103456335Y-84684550D01*
G37*
%TD.AperFunction*%
%TD*%
%TA.AperFunction,Conductor*%
%TO.N,+3V3*%
G36*
X134444759Y-93732477D02*
G01*
X134548136Y-93747204D01*
X134574833Y-93755438D01*
X134662158Y-93798354D01*
X134684988Y-93814461D01*
X134699196Y-93828296D01*
X134754698Y-93882339D01*
X134771409Y-93904734D01*
X134816637Y-93990882D01*
X134825580Y-94017351D01*
X134843057Y-94120292D01*
X134844307Y-94134251D01*
X134845705Y-94267017D01*
X134844753Y-94280973D01*
X134837487Y-94330110D01*
X134808520Y-94383657D01*
X134793944Y-94394167D01*
X134724021Y-94434537D01*
X134724018Y-94434539D01*
X134506752Y-94651805D01*
X134458454Y-94676659D01*
X134455923Y-94677082D01*
X134442017Y-94678289D01*
X134015946Y-94681725D01*
X134002043Y-94680746D01*
X133899310Y-94665350D01*
X133872798Y-94656986D01*
X133786166Y-94613804D01*
X133763531Y-94597672D01*
X133694440Y-94529862D01*
X133677888Y-94507533D01*
X133633093Y-94421721D01*
X133624235Y-94395370D01*
X133622255Y-94383657D01*
X133606920Y-94292939D01*
X133605681Y-94279065D01*
X133604306Y-94149765D01*
X133605246Y-94135885D01*
X133606519Y-94127225D01*
X133620320Y-94033293D01*
X133628585Y-94006805D01*
X133636454Y-93990882D01*
X133671389Y-93920183D01*
X133687409Y-93897528D01*
X133754817Y-93828291D01*
X133777024Y-93811679D01*
X133862480Y-93766566D01*
X133888732Y-93757598D01*
X133990892Y-93739782D01*
X134004736Y-93738472D01*
X134201034Y-93735305D01*
X134430387Y-93731606D01*
X134430776Y-93731600D01*
X134444759Y-93732477D01*
G37*
%TD.AperFunction*%
%TD*%
%TA.AperFunction,Conductor*%
%TO.N,+5V*%
G36*
X131174912Y-85601120D02*
G01*
X131278784Y-85617758D01*
X131305530Y-85626552D01*
X131392632Y-85671512D01*
X131415292Y-85688220D01*
X131483990Y-85758134D01*
X131500298Y-85781083D01*
X131543725Y-85868964D01*
X131552048Y-85895860D01*
X131566861Y-86000004D01*
X131567734Y-86014098D01*
X131552493Y-86882838D01*
X131552493Y-86882850D01*
X131550000Y-87025000D01*
X133222395Y-89155586D01*
X135023082Y-91449612D01*
X135200000Y-91675000D01*
X137550000Y-91725000D01*
X137600000Y-92850000D01*
X135075000Y-92825000D01*
X134068780Y-91600500D01*
X130443284Y-87188520D01*
X130434816Y-87176247D01*
X130379651Y-87079928D01*
X130369394Y-87052039D01*
X130349010Y-86942918D01*
X130347510Y-86928083D01*
X130332014Y-86013844D01*
X130332894Y-85999781D01*
X130347760Y-85895664D01*
X130356089Y-85868794D01*
X130399538Y-85780961D01*
X130415845Y-85758029D01*
X130484547Y-85688151D01*
X130507195Y-85671461D01*
X130594285Y-85626528D01*
X130621001Y-85617747D01*
X130724853Y-85601118D01*
X130738915Y-85600000D01*
X131160836Y-85600000D01*
X131174912Y-85601120D01*
G37*
%TD.AperFunction*%
%TD*%
%TA.AperFunction,Conductor*%
%TO.N,+3V3*%
G36*
X134459840Y-96026955D02*
G01*
X134466672Y-96033114D01*
X134693069Y-96259511D01*
X134693068Y-96259511D01*
X134741851Y-96308293D01*
X134749018Y-96315460D01*
X134799936Y-96344857D01*
X134839068Y-96391492D01*
X134844431Y-96420996D01*
X134845705Y-96542018D01*
X134844753Y-96555974D01*
X134829509Y-96659065D01*
X134821157Y-96685673D01*
X134777923Y-96772618D01*
X134761747Y-96795335D01*
X134693724Y-96864636D01*
X134671310Y-96881233D01*
X134585181Y-96926077D01*
X134558733Y-96934922D01*
X134455943Y-96952079D01*
X134442012Y-96953289D01*
X134015946Y-96956725D01*
X134002043Y-96955746D01*
X133899310Y-96940350D01*
X133872798Y-96931986D01*
X133786166Y-96888804D01*
X133763531Y-96872672D01*
X133694440Y-96804862D01*
X133677888Y-96782533D01*
X133633093Y-96696721D01*
X133624235Y-96670370D01*
X133622324Y-96659065D01*
X133606920Y-96567939D01*
X133605681Y-96554065D01*
X133604306Y-96424765D01*
X133605246Y-96410885D01*
X133606519Y-96402225D01*
X133620320Y-96308293D01*
X133628585Y-96281805D01*
X133671389Y-96195184D01*
X133687409Y-96172528D01*
X133754817Y-96103291D01*
X133777024Y-96086679D01*
X133862480Y-96041566D01*
X133888732Y-96032598D01*
X133990892Y-96014782D01*
X134004736Y-96013472D01*
X134312311Y-96008510D01*
X134402304Y-96007059D01*
X134459840Y-96026955D01*
G37*
%TD.AperFunction*%
%TD*%
M02*
