%TF.GenerationSoftware,KiCad,Pcbnew,8.0.2*%
%TF.CreationDate,2024-08-07T22:56:44+12:00*%
%TF.ProjectId,FYP_P2_2,4659505f-5032-45f3-922e-6b696361645f,rev?*%
%TF.SameCoordinates,Original*%
%TF.FileFunction,Copper,L2,Inr*%
%TF.FilePolarity,Positive*%
%FSLAX46Y46*%
G04 Gerber Fmt 4.6, Leading zero omitted, Abs format (unit mm)*
G04 Created by KiCad (PCBNEW 8.0.2) date 2024-08-07 22:56:44*
%MOMM*%
%LPD*%
G01*
G04 APERTURE LIST*
%TA.AperFunction,ComponentPad*%
%ADD10O,1.700000X1.350000*%
%TD*%
%TA.AperFunction,ComponentPad*%
%ADD11O,1.500000X1.100000*%
%TD*%
%TA.AperFunction,ComponentPad*%
%ADD12R,1.700000X1.700000*%
%TD*%
%TA.AperFunction,ComponentPad*%
%ADD13O,1.700000X1.700000*%
%TD*%
%TA.AperFunction,ViaPad*%
%ADD14C,0.600000*%
%TD*%
G04 APERTURE END LIST*
D10*
%TO.N,GND*%
%TO.C,J12*%
X139180000Y-84475000D03*
D11*
X136180000Y-84165000D03*
X136180000Y-79325000D03*
D10*
X139180000Y-79015000D03*
%TD*%
D12*
%TO.N,GND*%
%TO.C,J8*%
X120740000Y-113650000D03*
D13*
%TO.N,+12V*%
X118200000Y-113650000D03*
%TD*%
D14*
%TO.N,+3V3*%
X109057944Y-89683276D03*
X105325000Y-92775000D03*
X124375000Y-89750000D03*
X117300000Y-108500000D03*
X126725000Y-83475000D03*
X134510000Y-96500000D03*
X103970000Y-85170000D03*
X124700000Y-76025000D03*
X124250000Y-95750000D03*
X128650000Y-110300000D03*
X125950000Y-84250000D03*
X117300000Y-107825000D03*
X105300000Y-86350000D03*
X124675000Y-77850000D03*
X123850000Y-78300000D03*
X134510000Y-94225000D03*
X124700000Y-75425000D03*
X101775000Y-97325000D03*
X109092056Y-83366724D03*
X124675000Y-76625000D03*
X116600000Y-86700000D03*
X124675000Y-77225000D03*
X137850000Y-93550000D03*
X110275000Y-104325000D03*
X107925000Y-78850000D03*
X124575025Y-92371855D03*
X115275000Y-91275000D03*
X124665000Y-90625000D03*
X111825000Y-104325000D03*
X119900000Y-99825000D03*
X127100000Y-110300000D03*
X116850000Y-95525000D03*
X118218460Y-86697326D03*
X107050000Y-92775000D03*
%TO.N,GND*%
X137900000Y-80450000D03*
X120575000Y-95400000D03*
X115700000Y-82225000D03*
X111000000Y-78850000D03*
X116575000Y-100425000D03*
X113280000Y-108300000D03*
X135950000Y-90300000D03*
X109700000Y-108975000D03*
X102530000Y-99750000D03*
X137900000Y-83120000D03*
X118150000Y-82300000D03*
X120550000Y-94275000D03*
X127750000Y-103600000D03*
X131750000Y-109050000D03*
X120675000Y-75950000D03*
X132725000Y-106000000D03*
X100320000Y-80200000D03*
X135165000Y-80450000D03*
X135425000Y-91100000D03*
X127710000Y-90590000D03*
X120975000Y-110325000D03*
X119375000Y-93300000D03*
X119950000Y-94925000D03*
X118775000Y-94950000D03*
X137875000Y-97250000D03*
X131800000Y-106175000D03*
X125520000Y-104025000D03*
X129700000Y-107575000D03*
X139800000Y-87100000D03*
X118175000Y-95450000D03*
X132650000Y-107050000D03*
X103175000Y-80700000D03*
X126725000Y-86550000D03*
X122675000Y-71600000D03*
X131525000Y-107475000D03*
X139080000Y-87100000D03*
X108225000Y-107500000D03*
X119400000Y-95475000D03*
X120700000Y-77225000D03*
X137800000Y-90475000D03*
X120700000Y-77825000D03*
X99530000Y-98500000D03*
X108900000Y-106850000D03*
X139175000Y-113375000D03*
X108225000Y-108900000D03*
X135350000Y-90475000D03*
X130450000Y-80200000D03*
X136130000Y-115350000D03*
X99600000Y-80200000D03*
X100250000Y-98500000D03*
X139100000Y-104525000D03*
X109775000Y-105925000D03*
X100300000Y-86350000D03*
X106625000Y-109100000D03*
X135600000Y-99750000D03*
X99550000Y-104400000D03*
X122675000Y-71000000D03*
X125825000Y-78325000D03*
X118800000Y-93775000D03*
X132825000Y-109175000D03*
X120650000Y-75300000D03*
X116590000Y-83640000D03*
X125560000Y-110290000D03*
X128680000Y-113370000D03*
X119400000Y-94300000D03*
X106625000Y-105900000D03*
X112780000Y-101560000D03*
X120543094Y-102730692D03*
X107525000Y-108200000D03*
X102530000Y-115250000D03*
X108975000Y-108200000D03*
X112780000Y-102280000D03*
X133980000Y-98480000D03*
X121525000Y-108525000D03*
X108225000Y-106100000D03*
X100370000Y-113275000D03*
X105440000Y-116380000D03*
X105410000Y-101690000D03*
X126650000Y-75800000D03*
X139820000Y-104525000D03*
X136320000Y-99750000D03*
X126660000Y-75190000D03*
X121525000Y-107805000D03*
X99580000Y-86350000D03*
X112150000Y-112390000D03*
X111540000Y-112390000D03*
X125525000Y-108275000D03*
X139005000Y-98450000D03*
X126650000Y-77250000D03*
X137900000Y-82400000D03*
X113241629Y-99997997D03*
X137900000Y-81170000D03*
X124340000Y-86690000D03*
X127300000Y-96030000D03*
X132550000Y-86550000D03*
X127630000Y-92330000D03*
X122650000Y-69725000D03*
X120600000Y-93250000D03*
X139895000Y-113375000D03*
X103200000Y-92825000D03*
X99650000Y-113275000D03*
X119975000Y-93750000D03*
X100270000Y-104400000D03*
X116280000Y-103770000D03*
X122625000Y-69075000D03*
X122590000Y-86680000D03*
X122150000Y-102730692D03*
X129410000Y-115650000D03*
X103250000Y-99750000D03*
X100345000Y-92350000D03*
X130100000Y-84975000D03*
X118300000Y-94325000D03*
X102455000Y-80700000D03*
X106039230Y-99105478D03*
X102480000Y-92825000D03*
X120700000Y-76625000D03*
X122675000Y-70400000D03*
X129650000Y-106175000D03*
X112000000Y-91294841D03*
X109625000Y-107500000D03*
X114470000Y-109940000D03*
X99625000Y-92350000D03*
X136850000Y-115350000D03*
X139725000Y-98450000D03*
X106825000Y-107500000D03*
X107525000Y-106800000D03*
X132200000Y-108300000D03*
X134770000Y-112620000D03*
X103250000Y-115250000D03*
X133280000Y-116460000D03*
X110210000Y-101230000D03*
X127030000Y-103600000D03*
X136575000Y-90300000D03*
X118180000Y-83640000D03*
X119750000Y-78325000D03*
X137800000Y-91100000D03*
X126650000Y-76500000D03*
X114980000Y-83640000D03*
X134000000Y-113370000D03*
X129675000Y-108850000D03*
X113380000Y-88350000D03*
X116280000Y-104490000D03*
X120350000Y-78350000D03*
X126650000Y-78125000D03*
X137200000Y-90275000D03*
X118200000Y-93300000D03*
%TO.N,+1V1*%
X121150000Y-91975000D03*
X119589292Y-92030000D03*
X121900000Y-99675000D03*
%TO.N,+5V*%
X136175000Y-92250000D03*
X122650000Y-76275000D03*
X122650000Y-75575000D03*
X131725000Y-84150000D03*
X131175000Y-83450000D03*
X122650000Y-76975000D03*
X130650000Y-86475000D03*
X122650000Y-77650000D03*
X137650000Y-92625000D03*
X130550000Y-83450000D03*
X135425000Y-91950000D03*
X136875003Y-92250000D03*
X131275000Y-86475000D03*
X135400000Y-92600000D03*
X131853952Y-84800000D03*
%TO.N,+12V*%
X105800000Y-105300000D03*
X105125000Y-104950000D03*
X117900000Y-110650000D03*
X128040000Y-100010000D03*
X133605000Y-109720000D03*
X126840000Y-100010000D03*
X111160000Y-114280000D03*
X105800000Y-109600000D03*
X105150000Y-110000000D03*
X133605000Y-105420000D03*
X134255000Y-110120000D03*
X117900000Y-110050000D03*
X127440000Y-100010000D03*
X112360000Y-114280000D03*
X111760000Y-114280000D03*
X134280000Y-105070000D03*
%TO.N,Motor1B2*%
X132860000Y-104190000D03*
X136880000Y-105710000D03*
X136270000Y-105710000D03*
X132860000Y-103530000D03*
X132250000Y-103530000D03*
%TO.N,INDEX1*%
X127250000Y-108190000D03*
X121938571Y-96902253D03*
%TO.N,Motor1A1*%
X136250000Y-109480000D03*
X132820000Y-111660000D03*
X132210000Y-111660000D03*
X136860000Y-109480000D03*
X132820000Y-110950000D03*
%TO.N,DIR1*%
X124080625Y-94950000D03*
X131150741Y-111008053D03*
%TO.N,/FYP_P2_2_TMC2209/SPREAD *%
X128975000Y-104700000D03*
X126400000Y-109350000D03*
%TO.N,STEP1*%
X129858044Y-110939989D03*
X124550000Y-97083640D03*
%TO.N,MS2B*%
X111622824Y-108057680D03*
X115211918Y-97766223D03*
%TO.N,Motor2A1*%
X102525000Y-105650000D03*
X106625000Y-103450000D03*
X107250000Y-103450000D03*
X103350000Y-105625000D03*
X106625000Y-104075000D03*
%TO.N,MS2A*%
X116300000Y-98900000D03*
X111811686Y-108835070D03*
%TO.N,INDEX2*%
X116906994Y-94521481D03*
X111650000Y-106857680D03*
%TO.N,EN2*%
X107588515Y-110900672D03*
X117240000Y-98920000D03*
%TO.N,Motor2B2*%
X107200000Y-111600000D03*
X106600000Y-111525000D03*
X106600000Y-110900000D03*
X103225000Y-109375000D03*
X102525000Y-109375000D03*
%TO.N,BATT_SENSE_HV*%
X118849998Y-71160000D03*
X132600000Y-92900000D03*
%TO.N,12V_ENABLE*%
X122048446Y-92331693D03*
X115000000Y-73850000D03*
%TO.N,BATT_SENSE_LV*%
X132703472Y-92106717D03*
X120770000Y-71500000D03*
%TO.N,5V_EN*%
X116800000Y-71890000D03*
X131700000Y-92925000D03*
%TO.N,TX1*%
X114850000Y-95730000D03*
%TO.N,RX1*%
X114697555Y-96620000D03*
%TO.N,SCL_PI*%
X114325000Y-92650000D03*
%TO.N,SDA_PI*%
X115067774Y-92120555D03*
%TO.N,ENCODER_1A*%
X117598811Y-96575915D03*
%TO.N,ENCODER_1B*%
X118625000Y-96700000D03*
%TO.N,/~{USB_BOOT}*%
X115925000Y-80675000D03*
X107041050Y-87815000D03*
X110350000Y-86200000D03*
%TO.N,5VOUT_1*%
X128450000Y-105550000D03*
X129809047Y-111738489D03*
%TO.N,5VOUT_2*%
X111250000Y-109610000D03*
X107478530Y-101981471D03*
%TD*%
%TA.AperFunction,Conductor*%
%TO.N,GND*%
G36*
X126872037Y-68604016D02*
G01*
X126939071Y-68623720D01*
X126984810Y-68676537D01*
X126996001Y-68727961D01*
X126999477Y-76545055D01*
X126999448Y-76545153D01*
X126999460Y-76684020D01*
X126999461Y-76684030D01*
X127029871Y-76856416D01*
X127029873Y-76856423D01*
X127029874Y-76856426D01*
X127039930Y-76884047D01*
X127073042Y-76975003D01*
X127089761Y-77020926D01*
X127177302Y-77172530D01*
X127177305Y-77172534D01*
X127177304Y-77172534D01*
X127289828Y-77306621D01*
X127289841Y-77306634D01*
X127423941Y-77419147D01*
X127423944Y-77419149D01*
X127423948Y-77419152D01*
X127575559Y-77506679D01*
X127740065Y-77566550D01*
X127912469Y-77596948D01*
X128000000Y-77596947D01*
X128065892Y-77596947D01*
X138871536Y-77596947D01*
X138938575Y-77616632D01*
X138984330Y-77669436D01*
X138994274Y-77738594D01*
X138965249Y-77802150D01*
X138906471Y-77839924D01*
X138890934Y-77843420D01*
X138729852Y-77868933D01*
X138553959Y-77926083D01*
X138553956Y-77926084D01*
X138389162Y-78010052D01*
X138239545Y-78118754D01*
X138239540Y-78118758D01*
X138108758Y-78249540D01*
X138108754Y-78249545D01*
X138000052Y-78399162D01*
X137916084Y-78563956D01*
X137916082Y-78563962D01*
X137858932Y-78739855D01*
X137854950Y-78764999D01*
X137854950Y-78765000D01*
X138685025Y-78765000D01*
X138649930Y-78800095D01*
X138603852Y-78879905D01*
X138580000Y-78968922D01*
X138580000Y-79061078D01*
X138603852Y-79150095D01*
X138649930Y-79229905D01*
X138685025Y-79265000D01*
X137854950Y-79265000D01*
X137858932Y-79290144D01*
X137916082Y-79466037D01*
X137916084Y-79466043D01*
X138000052Y-79630837D01*
X138108754Y-79780454D01*
X138108758Y-79780459D01*
X138239540Y-79911241D01*
X138239545Y-79911245D01*
X138389162Y-80019947D01*
X138553956Y-80103915D01*
X138553959Y-80103916D01*
X138729852Y-80161066D01*
X138912527Y-80190000D01*
X138930000Y-80190000D01*
X138930000Y-79365000D01*
X139430000Y-79365000D01*
X139430000Y-80190000D01*
X139447473Y-80190000D01*
X139630147Y-80161066D01*
X139806040Y-80103916D01*
X139806043Y-80103915D01*
X139970837Y-80019947D01*
X140120454Y-79911245D01*
X140120459Y-79911241D01*
X140251241Y-79780459D01*
X140251245Y-79780454D01*
X140359947Y-79630837D01*
X140443915Y-79466043D01*
X140443917Y-79466037D01*
X140501067Y-79290144D01*
X140505049Y-79265000D01*
X139674975Y-79265000D01*
X139710070Y-79229905D01*
X139756148Y-79150095D01*
X139780000Y-79061078D01*
X139780000Y-78968922D01*
X139756148Y-78879905D01*
X139710070Y-78800095D01*
X139674975Y-78765000D01*
X140505050Y-78765000D01*
X140505049Y-78764999D01*
X140501067Y-78739855D01*
X140443917Y-78563962D01*
X140443915Y-78563956D01*
X140359947Y-78399162D01*
X140251245Y-78249545D01*
X140251241Y-78249540D01*
X140120459Y-78118758D01*
X140120454Y-78118754D01*
X139970837Y-78010052D01*
X139806043Y-77926084D01*
X139806040Y-77926083D01*
X139630147Y-77868933D01*
X139469066Y-77843420D01*
X139405931Y-77813491D01*
X139369000Y-77754179D01*
X139369998Y-77684317D01*
X139408608Y-77626084D01*
X139472572Y-77597970D01*
X139488464Y-77596947D01*
X141171947Y-77596947D01*
X141238986Y-77616632D01*
X141284741Y-77669436D01*
X141295947Y-77720947D01*
X141295947Y-117471934D01*
X141276262Y-117538973D01*
X141223458Y-117584728D01*
X141171934Y-117595934D01*
X98236158Y-117591506D01*
X98169121Y-117571815D01*
X98123371Y-117519006D01*
X98112171Y-117467506D01*
X98112171Y-115693713D01*
X123539500Y-115693713D01*
X123539500Y-115906286D01*
X123572753Y-116116239D01*
X123638444Y-116318414D01*
X123734951Y-116507820D01*
X123859890Y-116679786D01*
X124010213Y-116830109D01*
X124182179Y-116955048D01*
X124182181Y-116955049D01*
X124182184Y-116955051D01*
X124371588Y-117051557D01*
X124573757Y-117117246D01*
X124783713Y-117150500D01*
X124783714Y-117150500D01*
X124996286Y-117150500D01*
X124996287Y-117150500D01*
X125206243Y-117117246D01*
X125408412Y-117051557D01*
X125597816Y-116955051D01*
X125619789Y-116939086D01*
X125769786Y-116830109D01*
X125769788Y-116830106D01*
X125769792Y-116830104D01*
X125920104Y-116679792D01*
X125920106Y-116679788D01*
X125920109Y-116679786D01*
X126045048Y-116507820D01*
X126045047Y-116507820D01*
X126045051Y-116507816D01*
X126141557Y-116318412D01*
X126207246Y-116116243D01*
X126240500Y-115906287D01*
X126240500Y-115693713D01*
X126207246Y-115483757D01*
X126141557Y-115281588D01*
X126045051Y-115092184D01*
X126045049Y-115092181D01*
X126045048Y-115092179D01*
X125920109Y-114920213D01*
X125769786Y-114769890D01*
X125597820Y-114644951D01*
X125408414Y-114548444D01*
X125408413Y-114548443D01*
X125408412Y-114548443D01*
X125206243Y-114482754D01*
X125206241Y-114482753D01*
X125206240Y-114482753D01*
X125044957Y-114457208D01*
X124996287Y-114449500D01*
X124783713Y-114449500D01*
X124735042Y-114457208D01*
X124573760Y-114482753D01*
X124371585Y-114548444D01*
X124182179Y-114644951D01*
X124010213Y-114769890D01*
X123859890Y-114920213D01*
X123734951Y-115092179D01*
X123638444Y-115281585D01*
X123572753Y-115483760D01*
X123539500Y-115693713D01*
X98112171Y-115693713D01*
X98112171Y-114279996D01*
X110354435Y-114279996D01*
X110354435Y-114280003D01*
X110374630Y-114459249D01*
X110374631Y-114459254D01*
X110434211Y-114629523D01*
X110471265Y-114688493D01*
X110530184Y-114782262D01*
X110657738Y-114909816D01*
X110748080Y-114966582D01*
X110777489Y-114985061D01*
X110810478Y-115005789D01*
X110980745Y-115065368D01*
X110980750Y-115065369D01*
X111159996Y-115085565D01*
X111160000Y-115085565D01*
X111160004Y-115085565D01*
X111339249Y-115065369D01*
X111339250Y-115065368D01*
X111339255Y-115065368D01*
X111419048Y-115037446D01*
X111488823Y-115033884D01*
X111500933Y-115037440D01*
X111580745Y-115065368D01*
X111580749Y-115065368D01*
X111580751Y-115065369D01*
X111580748Y-115065369D01*
X111759996Y-115085565D01*
X111760000Y-115085565D01*
X111760004Y-115085565D01*
X111939249Y-115065369D01*
X111939250Y-115065368D01*
X111939255Y-115065368D01*
X112019048Y-115037446D01*
X112088823Y-115033884D01*
X112100933Y-115037440D01*
X112180745Y-115065368D01*
X112180749Y-115065368D01*
X112180751Y-115065369D01*
X112180748Y-115065369D01*
X112359996Y-115085565D01*
X112360000Y-115085565D01*
X112360004Y-115085565D01*
X112539249Y-115065369D01*
X112539252Y-115065368D01*
X112539255Y-115065368D01*
X112709522Y-115005789D01*
X112862262Y-114909816D01*
X112989816Y-114782262D01*
X113085789Y-114629522D01*
X113145368Y-114459255D01*
X113146467Y-114449500D01*
X113165565Y-114280003D01*
X113165565Y-114279996D01*
X113145369Y-114100750D01*
X113145368Y-114100745D01*
X113085788Y-113930476D01*
X112989815Y-113777737D01*
X112862262Y-113650184D01*
X112861968Y-113649999D01*
X116844341Y-113649999D01*
X116844341Y-113650000D01*
X116864936Y-113885403D01*
X116864938Y-113885413D01*
X116926094Y-114113655D01*
X116926096Y-114113659D01*
X116926097Y-114113663D01*
X117003663Y-114280003D01*
X117025965Y-114327830D01*
X117025967Y-114327834D01*
X117111159Y-114449500D01*
X117161505Y-114521401D01*
X117328599Y-114688495D01*
X117405135Y-114742086D01*
X117522165Y-114824032D01*
X117522167Y-114824033D01*
X117522170Y-114824035D01*
X117736337Y-114923903D01*
X117964592Y-114985063D01*
X118135319Y-115000000D01*
X118199999Y-115005659D01*
X118200000Y-115005659D01*
X118200001Y-115005659D01*
X118264681Y-115000000D01*
X118435408Y-114985063D01*
X118663663Y-114923903D01*
X118877830Y-114824035D01*
X119071401Y-114688495D01*
X119193717Y-114566178D01*
X119255036Y-114532696D01*
X119324728Y-114537680D01*
X119380662Y-114579551D01*
X119397577Y-114610528D01*
X119446646Y-114742088D01*
X119446649Y-114742093D01*
X119532809Y-114857187D01*
X119532812Y-114857190D01*
X119647906Y-114943350D01*
X119647913Y-114943354D01*
X119782620Y-114993596D01*
X119782627Y-114993598D01*
X119842155Y-114999999D01*
X119842172Y-115000000D01*
X120490000Y-115000000D01*
X120490000Y-114083012D01*
X120547007Y-114115925D01*
X120674174Y-114150000D01*
X120805826Y-114150000D01*
X120932993Y-114115925D01*
X120990000Y-114083012D01*
X120990000Y-115000000D01*
X121637828Y-115000000D01*
X121637844Y-114999999D01*
X121697372Y-114993598D01*
X121697379Y-114993596D01*
X121832086Y-114943354D01*
X121832093Y-114943350D01*
X121947187Y-114857190D01*
X121947190Y-114857187D01*
X122033350Y-114742093D01*
X122033354Y-114742086D01*
X122083596Y-114607379D01*
X122083598Y-114607372D01*
X122089999Y-114547844D01*
X122090000Y-114547827D01*
X122090000Y-113900000D01*
X121173012Y-113900000D01*
X121205925Y-113842993D01*
X121240000Y-113715826D01*
X121240000Y-113584174D01*
X121205925Y-113457007D01*
X121173012Y-113400000D01*
X122090000Y-113400000D01*
X122090000Y-112752172D01*
X122089999Y-112752155D01*
X122083598Y-112692627D01*
X122083596Y-112692620D01*
X122033354Y-112557913D01*
X122033350Y-112557906D01*
X121947190Y-112442812D01*
X121947187Y-112442809D01*
X121832093Y-112356649D01*
X121832086Y-112356645D01*
X121697379Y-112306403D01*
X121697372Y-112306401D01*
X121637844Y-112300000D01*
X120990000Y-112300000D01*
X120990000Y-113216988D01*
X120932993Y-113184075D01*
X120805826Y-113150000D01*
X120674174Y-113150000D01*
X120547007Y-113184075D01*
X120490000Y-113216988D01*
X120490000Y-112300000D01*
X119842155Y-112300000D01*
X119782627Y-112306401D01*
X119782620Y-112306403D01*
X119647913Y-112356645D01*
X119647906Y-112356649D01*
X119532812Y-112442809D01*
X119532809Y-112442812D01*
X119446649Y-112557906D01*
X119446645Y-112557913D01*
X119397578Y-112689470D01*
X119355707Y-112745404D01*
X119290242Y-112769821D01*
X119221969Y-112754969D01*
X119193715Y-112733819D01*
X119149366Y-112689470D01*
X119071401Y-112611505D01*
X119071397Y-112611502D01*
X119071396Y-112611501D01*
X118877834Y-112475967D01*
X118877830Y-112475965D01*
X118812217Y-112445369D01*
X118663663Y-112376097D01*
X118663659Y-112376096D01*
X118663655Y-112376094D01*
X118435413Y-112314938D01*
X118435403Y-112314936D01*
X118200001Y-112294341D01*
X118199999Y-112294341D01*
X117964596Y-112314936D01*
X117964586Y-112314938D01*
X117736344Y-112376094D01*
X117736335Y-112376098D01*
X117522171Y-112475964D01*
X117522169Y-112475965D01*
X117328597Y-112611505D01*
X117161505Y-112778597D01*
X117025965Y-112972169D01*
X117025964Y-112972171D01*
X116926098Y-113186335D01*
X116926094Y-113186344D01*
X116864938Y-113414586D01*
X116864936Y-113414596D01*
X116844341Y-113649999D01*
X112861968Y-113649999D01*
X112709523Y-113554211D01*
X112539254Y-113494631D01*
X112539249Y-113494630D01*
X112360004Y-113474435D01*
X112359996Y-113474435D01*
X112180746Y-113494631D01*
X112180745Y-113494631D01*
X112100953Y-113522551D01*
X112031174Y-113526112D01*
X112019047Y-113522551D01*
X111939253Y-113494631D01*
X111760004Y-113474435D01*
X111759996Y-113474435D01*
X111580746Y-113494631D01*
X111580745Y-113494631D01*
X111500953Y-113522551D01*
X111431174Y-113526112D01*
X111419047Y-113522551D01*
X111339253Y-113494631D01*
X111160004Y-113474435D01*
X111159996Y-113474435D01*
X110980750Y-113494630D01*
X110980745Y-113494631D01*
X110810476Y-113554211D01*
X110657737Y-113650184D01*
X110530184Y-113777737D01*
X110434211Y-113930476D01*
X110374631Y-114100745D01*
X110374630Y-114100750D01*
X110354435Y-114279996D01*
X98112171Y-114279996D01*
X98112171Y-109374996D01*
X101719435Y-109374996D01*
X101719435Y-109375003D01*
X101739630Y-109554249D01*
X101739631Y-109554254D01*
X101799211Y-109724523D01*
X101879475Y-109852262D01*
X101895184Y-109877262D01*
X102022738Y-110004816D01*
X102094648Y-110050000D01*
X102171521Y-110098303D01*
X102175478Y-110100789D01*
X102337040Y-110157322D01*
X102345745Y-110160368D01*
X102345750Y-110160369D01*
X102524996Y-110180565D01*
X102525000Y-110180565D01*
X102525004Y-110180565D01*
X102704249Y-110160369D01*
X102704251Y-110160368D01*
X102704255Y-110160368D01*
X102704258Y-110160366D01*
X102704262Y-110160366D01*
X102834045Y-110114953D01*
X102903824Y-110111391D01*
X102915955Y-110114953D01*
X103045737Y-110160366D01*
X103045743Y-110160367D01*
X103045745Y-110160368D01*
X103045746Y-110160368D01*
X103045750Y-110160369D01*
X103224996Y-110180565D01*
X103225000Y-110180565D01*
X103225004Y-110180565D01*
X103404249Y-110160369D01*
X103404252Y-110160368D01*
X103404255Y-110160368D01*
X103574522Y-110100789D01*
X103727262Y-110004816D01*
X103732082Y-109999996D01*
X104344435Y-109999996D01*
X104344435Y-110000003D01*
X104364630Y-110179249D01*
X104364631Y-110179254D01*
X104424211Y-110349523D01*
X104500381Y-110470746D01*
X104520184Y-110502262D01*
X104647738Y-110629816D01*
X104693438Y-110658531D01*
X104792450Y-110720745D01*
X104800478Y-110725789D01*
X104917141Y-110766611D01*
X104970745Y-110785368D01*
X104970750Y-110785369D01*
X105149996Y-110805565D01*
X105150000Y-110805565D01*
X105150004Y-110805565D01*
X105329249Y-110785369D01*
X105329252Y-110785368D01*
X105329255Y-110785368D01*
X105499522Y-110725789D01*
X105507550Y-110720745D01*
X105606562Y-110658531D01*
X105620006Y-110650083D01*
X105687242Y-110631083D01*
X105754077Y-110651450D01*
X105799292Y-110704718D01*
X105809198Y-110768959D01*
X105794435Y-110899994D01*
X105794435Y-110900003D01*
X105814631Y-111079252D01*
X105846925Y-111171546D01*
X105850486Y-111241325D01*
X105846925Y-111253454D01*
X105814631Y-111345747D01*
X105794435Y-111524996D01*
X105794435Y-111525003D01*
X105814630Y-111704249D01*
X105814631Y-111704254D01*
X105874211Y-111874523D01*
X105921337Y-111949523D01*
X105970184Y-112027262D01*
X106097738Y-112154816D01*
X106188080Y-112211582D01*
X106234502Y-112240751D01*
X106250478Y-112250789D01*
X106390761Y-112299876D01*
X106420745Y-112310368D01*
X106420750Y-112310369D01*
X106599996Y-112330565D01*
X106600000Y-112330565D01*
X106600003Y-112330565D01*
X106693811Y-112319995D01*
X106775721Y-112310766D01*
X106844542Y-112322820D01*
X106845966Y-112323617D01*
X106850470Y-112325786D01*
X106850477Y-112325788D01*
X106850478Y-112325789D01*
X106994250Y-112376097D01*
X107020745Y-112385368D01*
X107020750Y-112385369D01*
X107199996Y-112405565D01*
X107200000Y-112405565D01*
X107200004Y-112405565D01*
X107379249Y-112385369D01*
X107379252Y-112385368D01*
X107379255Y-112385368D01*
X107549522Y-112325789D01*
X107702262Y-112229816D01*
X107829816Y-112102262D01*
X107925789Y-111949522D01*
X107985368Y-111779255D01*
X108000815Y-111642152D01*
X108027881Y-111577739D01*
X108058064Y-111551042D01*
X108090777Y-111530488D01*
X108218331Y-111402934D01*
X108314304Y-111250194D01*
X108373883Y-111079927D01*
X108373959Y-111079252D01*
X108394080Y-110900675D01*
X108394080Y-110900668D01*
X108373884Y-110721422D01*
X108373883Y-110721417D01*
X108363592Y-110692008D01*
X108314304Y-110551150D01*
X108295136Y-110520645D01*
X108249325Y-110447737D01*
X108218331Y-110398410D01*
X108090777Y-110270856D01*
X108082237Y-110265490D01*
X107938038Y-110174883D01*
X107767769Y-110115303D01*
X107767764Y-110115302D01*
X107588519Y-110095107D01*
X107588511Y-110095107D01*
X107409265Y-110115302D01*
X107409252Y-110115305D01*
X107238994Y-110174881D01*
X107160763Y-110224037D01*
X107093526Y-110243037D01*
X107028820Y-110224037D01*
X106949522Y-110174211D01*
X106949518Y-110174209D01*
X106779262Y-110114633D01*
X106779249Y-110114630D01*
X106634334Y-110098303D01*
X106569920Y-110071237D01*
X106530364Y-110013642D01*
X106528227Y-109943805D01*
X106531176Y-109934128D01*
X106585366Y-109779262D01*
X106585369Y-109779249D01*
X106604439Y-109609996D01*
X110444435Y-109609996D01*
X110444435Y-109610003D01*
X110464630Y-109789249D01*
X110464631Y-109789254D01*
X110524211Y-109959523D01*
X110609405Y-110095107D01*
X110620184Y-110112262D01*
X110747738Y-110239816D01*
X110788598Y-110265490D01*
X110857913Y-110309044D01*
X110900478Y-110335789D01*
X111021793Y-110378239D01*
X111070745Y-110395368D01*
X111070750Y-110395369D01*
X111249996Y-110415565D01*
X111250000Y-110415565D01*
X111250004Y-110415565D01*
X111429249Y-110395369D01*
X111429252Y-110395368D01*
X111429255Y-110395368D01*
X111599522Y-110335789D01*
X111752262Y-110239816D01*
X111879816Y-110112262D01*
X111975789Y-109959522D01*
X112035368Y-109789255D01*
X112036496Y-109779249D01*
X112043171Y-109720000D01*
X112048269Y-109674749D01*
X112075335Y-109610336D01*
X112130537Y-109571591D01*
X112132795Y-109570800D01*
X112161208Y-109560859D01*
X112313948Y-109464886D01*
X112441502Y-109337332D01*
X112537475Y-109184592D01*
X112597054Y-109014325D01*
X112598614Y-109000478D01*
X112617251Y-108835073D01*
X112617251Y-108835066D01*
X112597055Y-108655820D01*
X112597054Y-108655815D01*
X112580837Y-108609469D01*
X112537475Y-108485548D01*
X112441502Y-108332808D01*
X112441501Y-108332807D01*
X112437161Y-108327365D01*
X112438930Y-108325953D01*
X112410597Y-108274065D01*
X112408543Y-108233824D01*
X112428389Y-108057683D01*
X112428389Y-108057676D01*
X112408193Y-107878430D01*
X112408192Y-107878425D01*
X112389496Y-107824996D01*
X116494435Y-107824996D01*
X116494435Y-107825003D01*
X116514631Y-108004252D01*
X116555673Y-108121546D01*
X116559234Y-108191325D01*
X116555673Y-108203454D01*
X116514631Y-108320747D01*
X116494435Y-108499996D01*
X116494435Y-108500003D01*
X116514630Y-108679249D01*
X116514631Y-108679254D01*
X116574211Y-108849523D01*
X116656277Y-108980129D01*
X116670184Y-109002262D01*
X116797738Y-109129816D01*
X116862871Y-109170742D01*
X116937669Y-109217741D01*
X116950478Y-109225789D01*
X117061479Y-109264630D01*
X117120745Y-109285368D01*
X117120750Y-109285369D01*
X117188559Y-109293008D01*
X117234982Y-109298239D01*
X117299397Y-109325305D01*
X117338952Y-109382899D01*
X117341091Y-109452736D01*
X117308782Y-109509139D01*
X117270184Y-109547737D01*
X117174211Y-109700476D01*
X117114631Y-109870745D01*
X117114630Y-109870750D01*
X117094435Y-110049996D01*
X117094435Y-110050003D01*
X117114631Y-110229253D01*
X117114631Y-110229254D01*
X117142551Y-110309047D01*
X117146112Y-110378826D01*
X117142551Y-110390953D01*
X117114631Y-110470745D01*
X117114631Y-110470746D01*
X117094435Y-110649996D01*
X117094435Y-110650003D01*
X117114630Y-110829249D01*
X117114631Y-110829254D01*
X117174211Y-110999523D01*
X117228152Y-111085369D01*
X117270184Y-111152262D01*
X117397738Y-111279816D01*
X117456472Y-111316721D01*
X117502997Y-111345955D01*
X117550478Y-111375789D01*
X117628054Y-111402934D01*
X117720745Y-111435368D01*
X117720750Y-111435369D01*
X117899996Y-111455565D01*
X117900000Y-111455565D01*
X117900004Y-111455565D01*
X118079249Y-111435369D01*
X118079252Y-111435368D01*
X118079255Y-111435368D01*
X118249522Y-111375789D01*
X118402262Y-111279816D01*
X118529816Y-111152262D01*
X118625789Y-110999522D01*
X118685368Y-110829255D01*
X118685369Y-110829249D01*
X118705565Y-110650003D01*
X118705565Y-110649996D01*
X118685369Y-110470750D01*
X118685368Y-110470746D01*
X118685368Y-110470745D01*
X118657446Y-110390951D01*
X118653884Y-110321177D01*
X118657440Y-110309066D01*
X118685368Y-110229255D01*
X118685369Y-110229249D01*
X118705565Y-110050003D01*
X118705565Y-110049996D01*
X118685369Y-109870750D01*
X118685368Y-109870745D01*
X118682203Y-109861700D01*
X118625789Y-109700478D01*
X118625188Y-109699522D01*
X118529815Y-109547737D01*
X118402262Y-109420184D01*
X118290559Y-109349996D01*
X125594435Y-109349996D01*
X125594435Y-109350003D01*
X125614630Y-109529249D01*
X125614631Y-109529254D01*
X125674211Y-109699523D01*
X125750384Y-109820750D01*
X125770184Y-109852262D01*
X125897738Y-109979816D01*
X126050478Y-110075789D01*
X126176834Y-110120003D01*
X126216147Y-110133759D01*
X126272923Y-110174481D01*
X126298671Y-110239434D01*
X126298414Y-110264682D01*
X126294435Y-110300002D01*
X126294435Y-110300003D01*
X126314630Y-110479249D01*
X126314631Y-110479254D01*
X126374211Y-110649523D01*
X126459569Y-110785368D01*
X126470184Y-110802262D01*
X126597738Y-110929816D01*
X126750478Y-111025789D01*
X126903275Y-111079255D01*
X126920745Y-111085368D01*
X126920750Y-111085369D01*
X127099996Y-111105565D01*
X127100000Y-111105565D01*
X127100004Y-111105565D01*
X127279249Y-111085369D01*
X127279252Y-111085368D01*
X127279255Y-111085368D01*
X127449522Y-111025789D01*
X127602262Y-110929816D01*
X127729816Y-110802262D01*
X127770007Y-110738297D01*
X127822340Y-110692008D01*
X127891394Y-110681359D01*
X127955242Y-110709734D01*
X127979991Y-110738296D01*
X128020184Y-110802262D01*
X128147738Y-110929816D01*
X128300478Y-111025789D01*
X128453275Y-111079255D01*
X128470745Y-111085368D01*
X128470750Y-111085369D01*
X128649996Y-111105565D01*
X128650000Y-111105565D01*
X128650004Y-111105565D01*
X128829249Y-111085369D01*
X128829252Y-111085368D01*
X128829255Y-111085368D01*
X128829256Y-111085367D01*
X128829259Y-111085367D01*
X128891278Y-111063665D01*
X128918519Y-111054132D01*
X128988298Y-111050570D01*
X129048926Y-111085299D01*
X129076516Y-111130218D01*
X129090977Y-111171546D01*
X129117359Y-111246942D01*
X129120920Y-111316721D01*
X129105313Y-111353865D01*
X129083256Y-111388970D01*
X129023680Y-111559226D01*
X129023677Y-111559239D01*
X129003482Y-111738485D01*
X129003482Y-111738492D01*
X129023677Y-111917738D01*
X129023678Y-111917743D01*
X129083258Y-112088012D01*
X129125234Y-112154816D01*
X129179231Y-112240751D01*
X129306785Y-112368305D01*
X129397127Y-112425071D01*
X129429431Y-112445369D01*
X129459525Y-112464278D01*
X129629792Y-112523857D01*
X129629797Y-112523858D01*
X129809043Y-112544054D01*
X129809047Y-112544054D01*
X129809051Y-112544054D01*
X129988296Y-112523858D01*
X129988299Y-112523857D01*
X129988302Y-112523857D01*
X130158569Y-112464278D01*
X130311309Y-112368305D01*
X130438863Y-112240751D01*
X130534836Y-112088011D01*
X130594415Y-111917744D01*
X130605343Y-111820753D01*
X130632409Y-111756339D01*
X130690003Y-111716784D01*
X130759840Y-111714645D01*
X130794537Y-111729643D01*
X130801219Y-111733842D01*
X130930985Y-111779249D01*
X130971486Y-111793421D01*
X130971491Y-111793422D01*
X131150737Y-111813618D01*
X131150741Y-111813618D01*
X131150744Y-111813618D01*
X131307346Y-111795973D01*
X131376168Y-111808027D01*
X131427548Y-111855376D01*
X131438271Y-111878238D01*
X131484209Y-112009519D01*
X131484211Y-112009522D01*
X131580184Y-112162262D01*
X131707738Y-112289816D01*
X131760264Y-112322820D01*
X131859809Y-112385369D01*
X131860478Y-112385789D01*
X131916995Y-112405565D01*
X132030745Y-112445368D01*
X132030750Y-112445369D01*
X132209996Y-112465565D01*
X132210000Y-112465565D01*
X132210004Y-112465565D01*
X132389251Y-112445369D01*
X132389253Y-112445368D01*
X132389255Y-112445368D01*
X132474045Y-112415697D01*
X132543823Y-112412135D01*
X132555955Y-112415698D01*
X132640748Y-112445369D01*
X132819996Y-112465565D01*
X132820000Y-112465565D01*
X132820004Y-112465565D01*
X132999249Y-112445369D01*
X132999252Y-112445368D01*
X132999255Y-112445368D01*
X133169522Y-112385789D01*
X133322262Y-112289816D01*
X133449816Y-112162262D01*
X133545789Y-112009522D01*
X133605368Y-111839255D01*
X133610532Y-111793422D01*
X133625565Y-111660003D01*
X133625565Y-111659996D01*
X133605369Y-111480750D01*
X133605366Y-111480737D01*
X133558203Y-111345955D01*
X133554640Y-111276176D01*
X133558203Y-111264045D01*
X133605366Y-111129262D01*
X133605369Y-111129249D01*
X133625565Y-110950003D01*
X133625565Y-110949998D01*
X133620536Y-110905368D01*
X133620431Y-110904436D01*
X133632485Y-110835616D01*
X133679833Y-110784236D01*
X133747443Y-110766611D01*
X133809622Y-110785558D01*
X133905478Y-110845789D01*
X134060387Y-110899994D01*
X134075745Y-110905368D01*
X134075750Y-110905369D01*
X134254996Y-110925565D01*
X134255000Y-110925565D01*
X134255004Y-110925565D01*
X134434249Y-110905369D01*
X134434252Y-110905368D01*
X134434255Y-110905368D01*
X134604522Y-110845789D01*
X134757262Y-110749816D01*
X134884816Y-110622262D01*
X134980789Y-110469522D01*
X135040368Y-110299255D01*
X135040369Y-110299249D01*
X135060565Y-110120003D01*
X135060565Y-110119996D01*
X135040369Y-109940750D01*
X135040368Y-109940745D01*
X134998378Y-109820745D01*
X134980789Y-109770478D01*
X134884816Y-109617738D01*
X134757262Y-109490184D01*
X134741048Y-109479996D01*
X135444435Y-109479996D01*
X135444435Y-109480003D01*
X135464630Y-109659249D01*
X135464631Y-109659254D01*
X135524211Y-109829523D01*
X135568023Y-109899249D01*
X135620184Y-109982262D01*
X135747738Y-110109816D01*
X135900478Y-110205789D01*
X135967540Y-110229255D01*
X136070745Y-110265368D01*
X136070750Y-110265369D01*
X136249996Y-110285565D01*
X136250000Y-110285565D01*
X136250004Y-110285565D01*
X136429251Y-110265369D01*
X136429253Y-110265368D01*
X136429255Y-110265368D01*
X136514045Y-110235697D01*
X136583823Y-110232135D01*
X136595953Y-110235697D01*
X136607720Y-110239815D01*
X136680748Y-110265369D01*
X136859996Y-110285565D01*
X136860000Y-110285565D01*
X136860004Y-110285565D01*
X137039249Y-110265369D01*
X137039252Y-110265368D01*
X137039255Y-110265368D01*
X137209522Y-110205789D01*
X137362262Y-110109816D01*
X137489816Y-109982262D01*
X137585789Y-109829522D01*
X137645368Y-109659255D01*
X137650880Y-109610336D01*
X137665565Y-109480003D01*
X137665565Y-109479996D01*
X137645369Y-109300750D01*
X137645368Y-109300745D01*
X137634187Y-109268791D01*
X137585789Y-109130478D01*
X137585372Y-109129815D01*
X137512805Y-109014325D01*
X137489816Y-108977738D01*
X137362262Y-108850184D01*
X137313930Y-108819815D01*
X137209523Y-108754211D01*
X137039254Y-108694631D01*
X137039249Y-108694630D01*
X136860004Y-108674435D01*
X136859996Y-108674435D01*
X136680750Y-108694630D01*
X136680742Y-108694632D01*
X136595954Y-108724301D01*
X136526175Y-108727862D01*
X136514046Y-108724301D01*
X136429257Y-108694632D01*
X136429249Y-108694630D01*
X136250004Y-108674435D01*
X136249996Y-108674435D01*
X136070750Y-108694630D01*
X136070745Y-108694631D01*
X135900476Y-108754211D01*
X135747737Y-108850184D01*
X135620184Y-108977737D01*
X135524211Y-109130476D01*
X135464631Y-109300745D01*
X135464630Y-109300750D01*
X135444435Y-109479996D01*
X134741048Y-109479996D01*
X134697664Y-109452736D01*
X134604521Y-109394210D01*
X134434249Y-109334630D01*
X134358005Y-109326040D01*
X134293591Y-109298973D01*
X134266895Y-109268791D01*
X134234819Y-109217741D01*
X134107262Y-109090184D01*
X133954523Y-108994211D01*
X133784254Y-108934631D01*
X133784249Y-108934630D01*
X133605004Y-108914435D01*
X133604996Y-108914435D01*
X133425750Y-108934630D01*
X133425745Y-108934631D01*
X133255476Y-108994211D01*
X133102737Y-109090184D01*
X132975184Y-109217737D01*
X132879211Y-109370476D01*
X132819631Y-109540745D01*
X132819630Y-109540750D01*
X132799435Y-109719996D01*
X132799435Y-109720003D01*
X132819630Y-109899249D01*
X132819632Y-109899257D01*
X132850828Y-109988410D01*
X132854389Y-110058189D01*
X132819660Y-110118816D01*
X132757667Y-110151043D01*
X132747669Y-110152584D01*
X132640750Y-110164630D01*
X132640745Y-110164631D01*
X132470476Y-110224211D01*
X132317737Y-110320184D01*
X132190184Y-110447737D01*
X132094209Y-110600480D01*
X132088341Y-110617249D01*
X132047617Y-110674023D01*
X131982664Y-110699768D01*
X131914102Y-110686310D01*
X131866307Y-110642262D01*
X131858486Y-110629815D01*
X131780557Y-110505791D01*
X131653003Y-110378237D01*
X131607305Y-110349523D01*
X131500264Y-110282264D01*
X131329995Y-110222684D01*
X131329990Y-110222683D01*
X131150745Y-110202488D01*
X131150737Y-110202488D01*
X130971491Y-110222683D01*
X130971486Y-110222684D01*
X130801217Y-110282264D01*
X130648475Y-110378239D01*
X130648473Y-110378240D01*
X130626101Y-110400612D01*
X130564777Y-110434095D01*
X130495085Y-110429108D01*
X130450742Y-110400609D01*
X130360306Y-110310173D01*
X130207567Y-110214200D01*
X130037298Y-110154620D01*
X130037293Y-110154619D01*
X129858048Y-110134424D01*
X129858040Y-110134424D01*
X129678794Y-110154619D01*
X129678786Y-110154621D01*
X129589523Y-110185856D01*
X129519745Y-110189417D01*
X129459117Y-110154688D01*
X129431527Y-110109768D01*
X129375789Y-109950478D01*
X129329784Y-109877262D01*
X129279816Y-109797738D01*
X129152262Y-109670184D01*
X129068795Y-109617738D01*
X128999523Y-109574211D01*
X128829254Y-109514631D01*
X128829249Y-109514630D01*
X128650004Y-109494435D01*
X128649996Y-109494435D01*
X128470750Y-109514630D01*
X128470745Y-109514631D01*
X128300476Y-109574211D01*
X128147737Y-109670184D01*
X128020184Y-109797737D01*
X127979994Y-109861700D01*
X127927659Y-109907991D01*
X127858605Y-109918639D01*
X127794757Y-109890264D01*
X127770006Y-109861700D01*
X127729815Y-109797737D01*
X127602262Y-109670184D01*
X127449521Y-109574210D01*
X127374736Y-109548042D01*
X127283848Y-109516239D01*
X127227075Y-109475519D01*
X127201327Y-109410567D01*
X127201584Y-109385322D01*
X127205565Y-109350000D01*
X127204138Y-109337332D01*
X127185369Y-109170750D01*
X127185367Y-109170742D01*
X127180202Y-109155980D01*
X127176641Y-109086201D01*
X127211370Y-109025574D01*
X127273364Y-108993347D01*
X127283357Y-108991806D01*
X127330160Y-108986533D01*
X127429249Y-108975369D01*
X127429252Y-108975368D01*
X127429255Y-108975368D01*
X127599522Y-108915789D01*
X127752262Y-108819816D01*
X127879816Y-108692262D01*
X127975789Y-108539522D01*
X128035368Y-108369255D01*
X128040833Y-108320750D01*
X128055565Y-108190003D01*
X128055565Y-108189996D01*
X128035369Y-108010750D01*
X128035368Y-108010745D01*
X127975788Y-107840476D01*
X127936582Y-107778080D01*
X127879816Y-107687738D01*
X127752262Y-107560184D01*
X127744675Y-107555417D01*
X127599523Y-107464211D01*
X127429254Y-107404631D01*
X127429249Y-107404630D01*
X127250004Y-107384435D01*
X127249996Y-107384435D01*
X127070750Y-107404630D01*
X127070745Y-107404631D01*
X126900476Y-107464211D01*
X126747737Y-107560184D01*
X126620184Y-107687737D01*
X126524211Y-107840476D01*
X126464631Y-108010745D01*
X126464630Y-108010750D01*
X126444435Y-108189996D01*
X126444435Y-108190003D01*
X126464630Y-108369249D01*
X126464633Y-108369259D01*
X126469798Y-108384022D01*
X126473357Y-108453801D01*
X126438626Y-108514427D01*
X126376632Y-108546652D01*
X126366639Y-108548193D01*
X126220749Y-108564630D01*
X126220745Y-108564631D01*
X126050476Y-108624211D01*
X125897737Y-108720184D01*
X125770184Y-108847737D01*
X125674211Y-109000476D01*
X125614631Y-109170745D01*
X125614630Y-109170750D01*
X125594435Y-109349996D01*
X118290559Y-109349996D01*
X118249523Y-109324211D01*
X118079254Y-109264631D01*
X118079249Y-109264630D01*
X117965016Y-109251760D01*
X117900602Y-109224694D01*
X117861047Y-109167099D01*
X117858909Y-109097262D01*
X117891217Y-109040860D01*
X117929816Y-109002262D01*
X118025789Y-108849522D01*
X118085368Y-108679255D01*
X118087659Y-108658925D01*
X118105565Y-108500003D01*
X118105565Y-108499996D01*
X118085369Y-108320750D01*
X118085368Y-108320747D01*
X118085368Y-108320745D01*
X118044324Y-108203451D01*
X118040762Y-108133677D01*
X118044318Y-108121567D01*
X118085368Y-108004255D01*
X118103821Y-107840478D01*
X118105565Y-107825003D01*
X118105565Y-107824996D01*
X118085369Y-107645750D01*
X118085368Y-107645745D01*
X118053761Y-107555417D01*
X118025789Y-107475478D01*
X118018709Y-107464211D01*
X117929815Y-107322737D01*
X117802262Y-107195184D01*
X117649523Y-107099211D01*
X117479254Y-107039631D01*
X117479249Y-107039630D01*
X117300004Y-107019435D01*
X117299996Y-107019435D01*
X117120750Y-107039630D01*
X117120745Y-107039631D01*
X116950476Y-107099211D01*
X116797737Y-107195184D01*
X116670184Y-107322737D01*
X116574211Y-107475476D01*
X116514631Y-107645745D01*
X116514630Y-107645750D01*
X116494435Y-107824996D01*
X112389496Y-107824996D01*
X112348612Y-107708156D01*
X112309396Y-107645745D01*
X112252640Y-107555418D01*
X112252639Y-107555417D01*
X112248299Y-107549975D01*
X112250369Y-107548323D01*
X112222686Y-107497626D01*
X112227670Y-107427934D01*
X112256171Y-107383587D01*
X112279816Y-107359942D01*
X112375789Y-107207202D01*
X112435368Y-107036935D01*
X112455565Y-106857680D01*
X112435368Y-106678425D01*
X112375789Y-106508158D01*
X112279816Y-106355418D01*
X112152262Y-106227864D01*
X112127432Y-106212262D01*
X111999523Y-106131891D01*
X111829254Y-106072311D01*
X111829249Y-106072310D01*
X111650004Y-106052115D01*
X111649996Y-106052115D01*
X111470750Y-106072310D01*
X111470745Y-106072311D01*
X111300476Y-106131891D01*
X111147737Y-106227864D01*
X111020184Y-106355417D01*
X110924211Y-106508156D01*
X110864631Y-106678425D01*
X110864630Y-106678430D01*
X110844435Y-106857676D01*
X110844435Y-106857683D01*
X110864630Y-107036929D01*
X110864631Y-107036934D01*
X110924211Y-107207203D01*
X111020184Y-107359942D01*
X111024525Y-107365385D01*
X111022454Y-107367036D01*
X111050138Y-107417734D01*
X111045154Y-107487426D01*
X111016653Y-107531773D01*
X110993008Y-107555417D01*
X110897035Y-107708156D01*
X110837455Y-107878425D01*
X110837454Y-107878430D01*
X110817259Y-108057676D01*
X110817259Y-108057683D01*
X110837454Y-108236929D01*
X110837455Y-108236934D01*
X110897035Y-108407203D01*
X110993008Y-108559942D01*
X110997349Y-108565385D01*
X110995579Y-108566796D01*
X111023912Y-108618684D01*
X111025966Y-108658925D01*
X111013415Y-108770319D01*
X110986349Y-108834733D01*
X110931154Y-108873476D01*
X110900477Y-108884211D01*
X110900475Y-108884212D01*
X110747737Y-108980184D01*
X110620184Y-109107737D01*
X110524211Y-109260476D01*
X110464631Y-109430745D01*
X110464630Y-109430750D01*
X110444435Y-109609996D01*
X106604439Y-109609996D01*
X106605565Y-109600003D01*
X106605565Y-109599996D01*
X106585369Y-109420750D01*
X106585368Y-109420745D01*
X106560612Y-109349996D01*
X106525789Y-109250478D01*
X106505216Y-109217737D01*
X106484390Y-109184592D01*
X106429816Y-109097738D01*
X106302262Y-108970184D01*
X106149523Y-108874211D01*
X105979254Y-108814631D01*
X105979249Y-108814630D01*
X105800004Y-108794435D01*
X105799996Y-108794435D01*
X105620750Y-108814630D01*
X105620745Y-108814631D01*
X105450476Y-108874211D01*
X105297737Y-108970184D01*
X105170183Y-109097738D01*
X105138102Y-109148794D01*
X105085767Y-109195083D01*
X105046995Y-109206039D01*
X104970750Y-109214630D01*
X104800478Y-109274210D01*
X104647737Y-109370184D01*
X104520184Y-109497737D01*
X104424211Y-109650476D01*
X104364631Y-109820745D01*
X104364630Y-109820750D01*
X104344435Y-109999996D01*
X103732082Y-109999996D01*
X103854816Y-109877262D01*
X103950789Y-109724522D01*
X104010368Y-109554255D01*
X104010369Y-109554249D01*
X104030565Y-109375003D01*
X104030565Y-109374996D01*
X104010369Y-109195750D01*
X104010368Y-109195745D01*
X103976074Y-109097738D01*
X103950789Y-109025478D01*
X103943780Y-109014324D01*
X103881016Y-108914435D01*
X103854816Y-108872738D01*
X103727262Y-108745184D01*
X103687475Y-108720184D01*
X103574523Y-108649211D01*
X103404254Y-108589631D01*
X103404249Y-108589630D01*
X103225004Y-108569435D01*
X103224996Y-108569435D01*
X103045750Y-108589630D01*
X103045742Y-108589632D01*
X102915954Y-108635047D01*
X102846175Y-108638608D01*
X102834046Y-108635047D01*
X102704257Y-108589632D01*
X102704249Y-108589630D01*
X102525004Y-108569435D01*
X102524996Y-108569435D01*
X102345750Y-108589630D01*
X102345745Y-108589631D01*
X102175476Y-108649211D01*
X102022737Y-108745184D01*
X101895184Y-108872737D01*
X101799211Y-109025476D01*
X101739631Y-109195745D01*
X101739630Y-109195750D01*
X101719435Y-109374996D01*
X98112171Y-109374996D01*
X98112171Y-105649996D01*
X101719435Y-105649996D01*
X101719435Y-105650003D01*
X101739630Y-105829249D01*
X101739631Y-105829254D01*
X101799211Y-105999523D01*
X101853152Y-106085369D01*
X101895184Y-106152262D01*
X102022738Y-106279816D01*
X102175478Y-106375789D01*
X102274299Y-106410368D01*
X102345745Y-106435368D01*
X102345750Y-106435369D01*
X102524996Y-106455565D01*
X102525000Y-106455565D01*
X102525004Y-106455565D01*
X102704249Y-106435369D01*
X102704252Y-106435368D01*
X102704255Y-106435368D01*
X102874522Y-106375789D01*
X102894568Y-106363192D01*
X102961800Y-106344192D01*
X103001494Y-106351145D01*
X103170737Y-106410366D01*
X103170743Y-106410367D01*
X103170745Y-106410368D01*
X103170746Y-106410368D01*
X103170750Y-106410369D01*
X103349996Y-106430565D01*
X103350000Y-106430565D01*
X103350004Y-106430565D01*
X103529249Y-106410369D01*
X103529252Y-106410368D01*
X103529255Y-106410368D01*
X103699522Y-106350789D01*
X103852262Y-106254816D01*
X103979816Y-106127262D01*
X104075789Y-105974522D01*
X104135368Y-105804255D01*
X104135369Y-105804249D01*
X104155565Y-105625003D01*
X104155565Y-105624996D01*
X104135369Y-105445750D01*
X104135368Y-105445745D01*
X104126358Y-105419996D01*
X104075789Y-105275478D01*
X104059311Y-105249254D01*
X104028662Y-105200476D01*
X103979816Y-105122738D01*
X103852262Y-104995184D01*
X103810005Y-104968632D01*
X103780346Y-104949996D01*
X104319435Y-104949996D01*
X104319435Y-104950003D01*
X104339630Y-105129249D01*
X104339631Y-105129254D01*
X104399211Y-105299523D01*
X104474612Y-105419522D01*
X104495184Y-105452262D01*
X104622738Y-105579816D01*
X104775478Y-105675789D01*
X104873256Y-105710003D01*
X104945745Y-105735368D01*
X104945750Y-105735369D01*
X105082709Y-105750800D01*
X105147123Y-105777866D01*
X105164712Y-105797719D01*
X105165843Y-105796818D01*
X105170182Y-105802259D01*
X105170184Y-105802262D01*
X105297738Y-105929816D01*
X105450478Y-106025789D01*
X105583430Y-106072311D01*
X105620745Y-106085368D01*
X105620750Y-106085369D01*
X105799996Y-106105565D01*
X105800000Y-106105565D01*
X105800004Y-106105565D01*
X105979249Y-106085369D01*
X105979252Y-106085368D01*
X105979255Y-106085368D01*
X106149522Y-106025789D01*
X106302262Y-105929816D01*
X106429816Y-105802262D01*
X106525789Y-105649522D01*
X106560615Y-105549996D01*
X127644435Y-105549996D01*
X127644435Y-105550003D01*
X127664630Y-105729249D01*
X127664631Y-105729254D01*
X127724211Y-105899523D01*
X127771337Y-105974523D01*
X127820184Y-106052262D01*
X127947738Y-106179816D01*
X128100478Y-106275789D01*
X128270745Y-106335368D01*
X128270750Y-106335369D01*
X128449996Y-106355565D01*
X128450000Y-106355565D01*
X128450004Y-106355565D01*
X128629249Y-106335369D01*
X128629252Y-106335368D01*
X128629255Y-106335368D01*
X128799522Y-106275789D01*
X128952262Y-106179816D01*
X129079816Y-106052262D01*
X129175789Y-105899522D01*
X129235368Y-105729255D01*
X129237537Y-105710003D01*
X129255565Y-105550003D01*
X129255565Y-105543036D01*
X129257106Y-105543036D01*
X129267741Y-105482295D01*
X129315087Y-105430912D01*
X129324139Y-105426029D01*
X129324519Y-105425789D01*
X129324522Y-105425789D01*
X129477262Y-105329816D01*
X129604816Y-105202262D01*
X129700789Y-105049522D01*
X129760368Y-104879255D01*
X129760498Y-104878103D01*
X129780565Y-104700003D01*
X129780565Y-104699996D01*
X129760369Y-104520750D01*
X129760368Y-104520745D01*
X129700788Y-104350476D01*
X129656019Y-104279227D01*
X129604816Y-104197738D01*
X129477262Y-104070184D01*
X129416910Y-104032262D01*
X129324523Y-103974211D01*
X129154254Y-103914631D01*
X129154249Y-103914630D01*
X128975004Y-103894435D01*
X128974996Y-103894435D01*
X128795750Y-103914630D01*
X128795745Y-103914631D01*
X128625476Y-103974211D01*
X128472737Y-104070184D01*
X128345184Y-104197737D01*
X128249211Y-104350476D01*
X128189631Y-104520745D01*
X128189630Y-104520750D01*
X128169435Y-104699996D01*
X128169435Y-104706963D01*
X128167898Y-104706963D01*
X128157249Y-104767723D01*
X128109894Y-104819098D01*
X128100866Y-104823967D01*
X127947737Y-104920184D01*
X127820184Y-105047737D01*
X127724211Y-105200476D01*
X127664631Y-105370745D01*
X127664630Y-105370750D01*
X127644435Y-105549996D01*
X106560615Y-105549996D01*
X106585368Y-105479255D01*
X106585369Y-105479249D01*
X106605565Y-105300003D01*
X106605565Y-105299996D01*
X106585369Y-105120750D01*
X106585368Y-105120745D01*
X106557372Y-105040737D01*
X106553811Y-104970958D01*
X106588540Y-104910330D01*
X106650533Y-104878103D01*
X106660531Y-104876562D01*
X106804249Y-104860369D01*
X106804252Y-104860368D01*
X106804255Y-104860368D01*
X106974522Y-104800789D01*
X107127262Y-104704816D01*
X107254816Y-104577262D01*
X107350789Y-104424522D01*
X107385615Y-104324996D01*
X109469435Y-104324996D01*
X109469435Y-104325003D01*
X109489630Y-104504249D01*
X109489631Y-104504254D01*
X109549211Y-104674523D01*
X109604993Y-104763299D01*
X109645184Y-104827262D01*
X109772738Y-104954816D01*
X109805448Y-104975369D01*
X109923461Y-105049522D01*
X109925478Y-105050789D01*
X110095745Y-105110368D01*
X110095750Y-105110369D01*
X110274996Y-105130565D01*
X110275000Y-105130565D01*
X110275004Y-105130565D01*
X110454249Y-105110369D01*
X110454252Y-105110368D01*
X110454255Y-105110368D01*
X110624522Y-105050789D01*
X110777262Y-104954816D01*
X110904816Y-104827262D01*
X110945007Y-104763297D01*
X110997340Y-104717008D01*
X111066394Y-104706359D01*
X111130242Y-104734734D01*
X111154991Y-104763296D01*
X111195184Y-104827262D01*
X111322738Y-104954816D01*
X111355448Y-104975369D01*
X111473461Y-105049522D01*
X111475478Y-105050789D01*
X111645745Y-105110368D01*
X111645750Y-105110369D01*
X111824996Y-105130565D01*
X111825000Y-105130565D01*
X111825004Y-105130565D01*
X112004249Y-105110369D01*
X112004252Y-105110368D01*
X112004255Y-105110368D01*
X112174522Y-105050789D01*
X112327262Y-104954816D01*
X112454816Y-104827262D01*
X112550789Y-104674522D01*
X112610368Y-104504255D01*
X112611287Y-104496101D01*
X112630565Y-104325003D01*
X112630565Y-104324996D01*
X112610369Y-104145750D01*
X112610368Y-104145745D01*
X112583928Y-104070184D01*
X112550789Y-103975478D01*
X112536201Y-103952262D01*
X112454815Y-103822737D01*
X112327262Y-103695184D01*
X112174523Y-103599211D01*
X112004254Y-103539631D01*
X112004249Y-103539630D01*
X111918740Y-103529996D01*
X131444435Y-103529996D01*
X131444435Y-103530003D01*
X131464630Y-103709249D01*
X131464631Y-103709254D01*
X131524211Y-103879523D01*
X131583708Y-103974211D01*
X131620184Y-104032262D01*
X131747738Y-104159816D01*
X131898037Y-104254255D01*
X131900480Y-104255790D01*
X131997324Y-104289678D01*
X132054100Y-104330399D01*
X132073411Y-104365765D01*
X132134210Y-104539521D01*
X132172511Y-104600476D01*
X132230184Y-104692262D01*
X132357738Y-104819816D01*
X132510478Y-104915789D01*
X132620539Y-104954301D01*
X132680745Y-104975368D01*
X132680750Y-104975369D01*
X132749186Y-104983080D01*
X132813600Y-105010146D01*
X132853156Y-105067741D01*
X132855293Y-105137578D01*
X132852345Y-105147254D01*
X132819632Y-105240742D01*
X132819630Y-105240750D01*
X132799435Y-105419996D01*
X132799435Y-105420003D01*
X132819630Y-105599249D01*
X132819631Y-105599254D01*
X132879211Y-105769523D01*
X132954444Y-105889254D01*
X132975184Y-105922262D01*
X133102738Y-106049816D01*
X133255478Y-106145789D01*
X133352719Y-106179815D01*
X133425745Y-106205368D01*
X133425750Y-106205369D01*
X133604996Y-106225565D01*
X133605000Y-106225565D01*
X133605004Y-106225565D01*
X133784249Y-106205369D01*
X133784252Y-106205368D01*
X133784255Y-106205368D01*
X133954522Y-106145789D01*
X134107262Y-106049816D01*
X134234816Y-105922262D01*
X134234819Y-105922256D01*
X134239159Y-105916816D01*
X134241759Y-105918889D01*
X134282694Y-105882145D01*
X134322289Y-105870800D01*
X134355979Y-105867004D01*
X134459249Y-105855369D01*
X134459252Y-105855368D01*
X134459255Y-105855368D01*
X134629522Y-105795789D01*
X134766061Y-105709996D01*
X135464435Y-105709996D01*
X135464435Y-105710003D01*
X135484630Y-105889249D01*
X135484631Y-105889254D01*
X135544211Y-106059523D01*
X135598416Y-106145789D01*
X135640184Y-106212262D01*
X135767738Y-106339816D01*
X135804944Y-106363194D01*
X135919809Y-106435369D01*
X135920478Y-106435789D01*
X135976995Y-106455565D01*
X136090745Y-106495368D01*
X136090750Y-106495369D01*
X136269996Y-106515565D01*
X136270000Y-106515565D01*
X136270004Y-106515565D01*
X136449251Y-106495369D01*
X136449253Y-106495368D01*
X136449255Y-106495368D01*
X136534045Y-106465697D01*
X136603823Y-106462135D01*
X136615955Y-106465698D01*
X136700748Y-106495369D01*
X136879996Y-106515565D01*
X136880000Y-106515565D01*
X136880004Y-106515565D01*
X137059249Y-106495369D01*
X137059252Y-106495368D01*
X137059255Y-106495368D01*
X137229522Y-106435789D01*
X137382262Y-106339816D01*
X137509816Y-106212262D01*
X137605789Y-106059522D01*
X137665368Y-105889255D01*
X137666169Y-105882145D01*
X137685565Y-105710003D01*
X137685565Y-105709996D01*
X137665369Y-105530750D01*
X137665368Y-105530745D01*
X137647351Y-105479255D01*
X137605789Y-105360478D01*
X137509816Y-105207738D01*
X137382262Y-105080184D01*
X137335479Y-105050788D01*
X137229523Y-104984211D01*
X137059254Y-104924631D01*
X137059249Y-104924630D01*
X136880004Y-104904435D01*
X136879996Y-104904435D01*
X136700750Y-104924630D01*
X136700742Y-104924632D01*
X136615954Y-104954301D01*
X136546175Y-104957862D01*
X136534046Y-104954301D01*
X136449257Y-104924632D01*
X136449249Y-104924630D01*
X136270004Y-104904435D01*
X136269996Y-104904435D01*
X136090750Y-104924630D01*
X136090745Y-104924631D01*
X135920476Y-104984211D01*
X135767737Y-105080184D01*
X135640184Y-105207737D01*
X135544211Y-105360476D01*
X135484631Y-105530745D01*
X135484630Y-105530750D01*
X135464435Y-105709996D01*
X134766061Y-105709996D01*
X134782262Y-105699816D01*
X134909816Y-105572262D01*
X135005789Y-105419522D01*
X135065368Y-105249255D01*
X135065369Y-105249249D01*
X135085565Y-105070003D01*
X135085565Y-105069996D01*
X135065369Y-104890750D01*
X135065368Y-104890745D01*
X135040549Y-104819816D01*
X135005789Y-104720478D01*
X134996917Y-104706359D01*
X134944208Y-104622472D01*
X134909816Y-104567738D01*
X134782262Y-104440184D01*
X134745534Y-104417106D01*
X134629523Y-104344211D01*
X134459254Y-104284631D01*
X134459249Y-104284630D01*
X134280004Y-104264435D01*
X134279996Y-104264435D01*
X134100750Y-104284630D01*
X134100745Y-104284631D01*
X133930474Y-104344212D01*
X133844702Y-104398106D01*
X133777466Y-104417106D01*
X133710630Y-104396738D01*
X133665417Y-104343470D01*
X133655511Y-104279229D01*
X133665565Y-104190000D01*
X133662164Y-104159816D01*
X133645369Y-104010753D01*
X133645368Y-104010748D01*
X133645368Y-104010745D01*
X133606949Y-103900952D01*
X133603389Y-103831176D01*
X133606950Y-103819046D01*
X133612406Y-103803454D01*
X133645368Y-103709255D01*
X133654382Y-103629252D01*
X133665565Y-103530003D01*
X133665565Y-103529996D01*
X133645369Y-103350750D01*
X133645368Y-103350745D01*
X133585789Y-103180478D01*
X133489816Y-103027738D01*
X133362262Y-102900184D01*
X133209523Y-102804211D01*
X133039254Y-102744631D01*
X133039249Y-102744630D01*
X132860004Y-102724435D01*
X132859996Y-102724435D01*
X132680750Y-102744630D01*
X132680742Y-102744632D01*
X132595954Y-102774301D01*
X132526175Y-102777862D01*
X132514046Y-102774301D01*
X132429257Y-102744632D01*
X132429249Y-102744630D01*
X132250004Y-102724435D01*
X132249996Y-102724435D01*
X132070750Y-102744630D01*
X132070745Y-102744631D01*
X131900476Y-102804211D01*
X131747737Y-102900184D01*
X131620184Y-103027737D01*
X131524211Y-103180476D01*
X131464631Y-103350745D01*
X131464630Y-103350750D01*
X131444435Y-103529996D01*
X111918740Y-103529996D01*
X111825004Y-103519435D01*
X111824996Y-103519435D01*
X111645750Y-103539630D01*
X111645745Y-103539631D01*
X111475476Y-103599211D01*
X111322737Y-103695184D01*
X111195184Y-103822737D01*
X111154994Y-103886700D01*
X111102659Y-103932991D01*
X111033605Y-103943639D01*
X110969757Y-103915264D01*
X110945006Y-103886700D01*
X110904815Y-103822737D01*
X110777262Y-103695184D01*
X110624523Y-103599211D01*
X110454254Y-103539631D01*
X110454249Y-103539630D01*
X110275004Y-103519435D01*
X110274996Y-103519435D01*
X110095750Y-103539630D01*
X110095745Y-103539631D01*
X109925476Y-103599211D01*
X109772737Y-103695184D01*
X109645184Y-103822737D01*
X109549211Y-103975476D01*
X109489631Y-104145745D01*
X109489630Y-104145750D01*
X109469435Y-104324996D01*
X107385615Y-104324996D01*
X107395542Y-104296625D01*
X107436261Y-104239852D01*
X107471622Y-104220542D01*
X107599522Y-104175789D01*
X107752262Y-104079816D01*
X107879816Y-103952262D01*
X107975789Y-103799522D01*
X108035368Y-103629255D01*
X108045466Y-103539631D01*
X108055565Y-103450003D01*
X108055565Y-103449996D01*
X108035369Y-103270750D01*
X108035368Y-103270745D01*
X108003782Y-103180478D01*
X107975789Y-103100478D01*
X107879816Y-102947738D01*
X107822107Y-102890029D01*
X107788622Y-102828706D01*
X107793606Y-102759014D01*
X107835478Y-102703081D01*
X107843802Y-102697363D01*
X107980792Y-102611287D01*
X108108346Y-102483733D01*
X108204319Y-102330993D01*
X108263898Y-102160726D01*
X108284095Y-101981471D01*
X108263898Y-101802216D01*
X108204319Y-101631949D01*
X108108346Y-101479209D01*
X107980792Y-101351655D01*
X107828053Y-101255682D01*
X107657784Y-101196102D01*
X107657779Y-101196101D01*
X107478534Y-101175906D01*
X107478526Y-101175906D01*
X107299280Y-101196101D01*
X107299275Y-101196102D01*
X107129006Y-101255682D01*
X106976267Y-101351655D01*
X106848714Y-101479208D01*
X106752741Y-101631947D01*
X106693161Y-101802216D01*
X106693160Y-101802221D01*
X106672965Y-101981467D01*
X106672965Y-101981474D01*
X106693160Y-102160720D01*
X106693161Y-102160725D01*
X106752741Y-102330995D01*
X106837435Y-102465782D01*
X106856436Y-102533019D01*
X106836069Y-102599854D01*
X106782801Y-102645069D01*
X106718560Y-102654975D01*
X106625005Y-102644435D01*
X106624996Y-102644435D01*
X106445750Y-102664630D01*
X106445745Y-102664631D01*
X106275476Y-102724211D01*
X106122737Y-102820184D01*
X105995184Y-102947737D01*
X105899211Y-103100476D01*
X105839631Y-103270745D01*
X105839630Y-103270750D01*
X105819435Y-103449996D01*
X105819435Y-103450003D01*
X105839631Y-103629252D01*
X105871925Y-103721546D01*
X105875486Y-103791325D01*
X105871925Y-103803454D01*
X105839631Y-103895747D01*
X105819435Y-104074996D01*
X105819435Y-104075004D01*
X105835292Y-104215749D01*
X105823237Y-104284571D01*
X105775888Y-104335950D01*
X105708277Y-104353574D01*
X105641872Y-104331847D01*
X105632848Y-104324344D01*
X105632705Y-104324525D01*
X105627262Y-104320184D01*
X105474523Y-104224211D01*
X105304254Y-104164631D01*
X105304249Y-104164630D01*
X105125004Y-104144435D01*
X105124996Y-104144435D01*
X104945750Y-104164630D01*
X104945745Y-104164631D01*
X104775476Y-104224211D01*
X104622737Y-104320184D01*
X104495184Y-104447737D01*
X104399211Y-104600476D01*
X104339631Y-104770745D01*
X104339630Y-104770750D01*
X104319435Y-104949996D01*
X103780346Y-104949996D01*
X103699523Y-104899211D01*
X103529254Y-104839631D01*
X103529249Y-104839630D01*
X103350004Y-104819435D01*
X103349996Y-104819435D01*
X103170750Y-104839630D01*
X103170737Y-104839633D01*
X103000480Y-104899209D01*
X102980429Y-104911808D01*
X102913192Y-104930807D01*
X102873504Y-104923854D01*
X102704262Y-104864633D01*
X102704249Y-104864630D01*
X102525004Y-104844435D01*
X102524996Y-104844435D01*
X102345750Y-104864630D01*
X102345745Y-104864631D01*
X102175476Y-104924211D01*
X102022737Y-105020184D01*
X101895184Y-105147737D01*
X101799211Y-105300476D01*
X101739631Y-105470745D01*
X101739630Y-105470750D01*
X101719435Y-105649996D01*
X98112171Y-105649996D01*
X98112171Y-99824996D01*
X119094435Y-99824996D01*
X119094435Y-99825003D01*
X119114630Y-100004249D01*
X119114631Y-100004254D01*
X119174211Y-100174523D01*
X119183468Y-100189255D01*
X119270184Y-100327262D01*
X119397738Y-100454816D01*
X119550478Y-100550789D01*
X119720745Y-100610368D01*
X119720750Y-100610369D01*
X119899996Y-100630565D01*
X119900000Y-100630565D01*
X119900004Y-100630565D01*
X120079249Y-100610369D01*
X120079252Y-100610368D01*
X120079255Y-100610368D01*
X120249522Y-100550789D01*
X120402262Y-100454816D01*
X120529816Y-100327262D01*
X120625789Y-100174522D01*
X120685368Y-100004255D01*
X120702269Y-99854254D01*
X120705565Y-99825003D01*
X120705565Y-99824996D01*
X120688664Y-99674996D01*
X121094435Y-99674996D01*
X121094435Y-99675003D01*
X121114630Y-99854249D01*
X121114631Y-99854254D01*
X121174211Y-100024523D01*
X121268462Y-100174522D01*
X121270184Y-100177262D01*
X121397738Y-100304816D01*
X121550478Y-100400789D01*
X121704878Y-100454816D01*
X121720745Y-100460368D01*
X121720750Y-100460369D01*
X121899996Y-100480565D01*
X121900000Y-100480565D01*
X121900004Y-100480565D01*
X122079249Y-100460369D01*
X122079252Y-100460368D01*
X122079255Y-100460368D01*
X122249522Y-100400789D01*
X122402262Y-100304816D01*
X122529816Y-100177262D01*
X122625789Y-100024522D01*
X122630872Y-100009996D01*
X126034435Y-100009996D01*
X126034435Y-100010003D01*
X126054630Y-100189249D01*
X126054631Y-100189254D01*
X126114211Y-100359523D01*
X126174088Y-100454816D01*
X126210184Y-100512262D01*
X126337738Y-100639816D01*
X126490478Y-100735789D01*
X126660745Y-100795368D01*
X126660750Y-100795369D01*
X126839996Y-100815565D01*
X126840000Y-100815565D01*
X126840004Y-100815565D01*
X127019249Y-100795369D01*
X127019250Y-100795368D01*
X127019255Y-100795368D01*
X127099048Y-100767446D01*
X127168823Y-100763884D01*
X127180933Y-100767440D01*
X127260745Y-100795368D01*
X127260749Y-100795368D01*
X127260751Y-100795369D01*
X127260748Y-100795369D01*
X127439996Y-100815565D01*
X127440000Y-100815565D01*
X127440004Y-100815565D01*
X127619249Y-100795369D01*
X127619250Y-100795368D01*
X127619255Y-100795368D01*
X127699048Y-100767446D01*
X127768823Y-100763884D01*
X127780933Y-100767440D01*
X127860745Y-100795368D01*
X127860749Y-100795368D01*
X127860751Y-100795369D01*
X127860748Y-100795369D01*
X128039996Y-100815565D01*
X128040000Y-100815565D01*
X128040004Y-100815565D01*
X128219249Y-100795369D01*
X128219252Y-100795368D01*
X128219255Y-100795368D01*
X128389522Y-100735789D01*
X128542262Y-100639816D01*
X128669816Y-100512262D01*
X128765789Y-100359522D01*
X128825368Y-100189255D01*
X128825369Y-100189249D01*
X128845565Y-100010003D01*
X128845565Y-100009996D01*
X128825369Y-99830750D01*
X128825368Y-99830745D01*
X128788564Y-99725565D01*
X128765789Y-99660478D01*
X128743992Y-99625789D01*
X128696255Y-99549815D01*
X128669816Y-99507738D01*
X128542262Y-99380184D01*
X128389523Y-99284211D01*
X128219254Y-99224631D01*
X128219249Y-99224630D01*
X128040004Y-99204435D01*
X128039996Y-99204435D01*
X127860746Y-99224631D01*
X127860745Y-99224631D01*
X127780953Y-99252551D01*
X127711174Y-99256112D01*
X127699047Y-99252551D01*
X127619253Y-99224631D01*
X127440004Y-99204435D01*
X127439996Y-99204435D01*
X127260746Y-99224631D01*
X127260745Y-99224631D01*
X127180953Y-99252551D01*
X127111174Y-99256112D01*
X127099047Y-99252551D01*
X127019253Y-99224631D01*
X126840004Y-99204435D01*
X126839996Y-99204435D01*
X126660750Y-99224630D01*
X126660745Y-99224631D01*
X126490476Y-99284211D01*
X126337737Y-99380184D01*
X126210184Y-99507737D01*
X126114211Y-99660476D01*
X126054631Y-99830745D01*
X126054630Y-99830750D01*
X126034435Y-100009996D01*
X122630872Y-100009996D01*
X122685368Y-99854255D01*
X122685369Y-99854249D01*
X122705565Y-99675003D01*
X122705565Y-99674996D01*
X122685369Y-99495750D01*
X122685368Y-99495745D01*
X122625788Y-99325476D01*
X122562423Y-99224632D01*
X122529816Y-99172738D01*
X122402262Y-99045184D01*
X122393426Y-99039632D01*
X122249523Y-98949211D01*
X122079254Y-98889631D01*
X122079249Y-98889630D01*
X121900004Y-98869435D01*
X121899996Y-98869435D01*
X121720750Y-98889630D01*
X121720745Y-98889631D01*
X121550476Y-98949211D01*
X121397737Y-99045184D01*
X121270184Y-99172737D01*
X121174211Y-99325476D01*
X121114631Y-99495745D01*
X121114630Y-99495750D01*
X121094435Y-99674996D01*
X120688664Y-99674996D01*
X120685369Y-99645750D01*
X120685368Y-99645745D01*
X120651801Y-99549816D01*
X120625789Y-99475478D01*
X120529816Y-99322738D01*
X120402262Y-99195184D01*
X120249523Y-99099211D01*
X120079254Y-99039631D01*
X120079249Y-99039630D01*
X119900004Y-99019435D01*
X119899996Y-99019435D01*
X119720750Y-99039630D01*
X119720745Y-99039631D01*
X119550476Y-99099211D01*
X119397737Y-99195184D01*
X119270184Y-99322737D01*
X119174211Y-99475476D01*
X119114631Y-99645745D01*
X119114630Y-99645750D01*
X119094435Y-99824996D01*
X98112171Y-99824996D01*
X98112171Y-97324996D01*
X100969435Y-97324996D01*
X100969435Y-97325003D01*
X100989630Y-97504249D01*
X100989631Y-97504254D01*
X101049211Y-97674523D01*
X101133978Y-97809428D01*
X101145184Y-97827262D01*
X101272738Y-97954816D01*
X101425478Y-98050789D01*
X101436241Y-98054555D01*
X101595745Y-98110368D01*
X101595750Y-98110369D01*
X101774996Y-98130565D01*
X101775000Y-98130565D01*
X101775004Y-98130565D01*
X101954249Y-98110369D01*
X101954252Y-98110368D01*
X101954255Y-98110368D01*
X102124522Y-98050789D01*
X102277262Y-97954816D01*
X102404816Y-97827262D01*
X102500789Y-97674522D01*
X102560368Y-97504255D01*
X102562496Y-97485368D01*
X102580565Y-97325003D01*
X102580565Y-97324996D01*
X102560369Y-97145750D01*
X102560368Y-97145745D01*
X102552151Y-97122262D01*
X102500789Y-96975478D01*
X102404816Y-96822738D01*
X102277262Y-96695184D01*
X102251902Y-96679249D01*
X102157602Y-96619996D01*
X113891990Y-96619996D01*
X113891990Y-96620003D01*
X113912185Y-96799249D01*
X113912186Y-96799254D01*
X113971766Y-96969523D01*
X114043471Y-97083640D01*
X114067739Y-97122262D01*
X114195293Y-97249816D01*
X114251874Y-97285368D01*
X114348032Y-97345789D01*
X114348036Y-97345790D01*
X114376129Y-97355621D01*
X114432905Y-97396342D01*
X114458652Y-97461295D01*
X114452216Y-97513616D01*
X114426550Y-97586965D01*
X114426548Y-97586973D01*
X114406353Y-97766219D01*
X114406353Y-97766226D01*
X114426548Y-97945472D01*
X114426549Y-97945477D01*
X114486129Y-98115746D01*
X114550669Y-98218460D01*
X114582102Y-98268485D01*
X114709656Y-98396039D01*
X114862396Y-98492012D01*
X115029482Y-98550478D01*
X115032663Y-98551591D01*
X115032668Y-98551592D01*
X115211914Y-98571788D01*
X115211918Y-98571788D01*
X115211922Y-98571788D01*
X115385214Y-98552263D01*
X115454036Y-98564318D01*
X115505415Y-98611667D01*
X115523039Y-98679277D01*
X115516139Y-98716437D01*
X115514632Y-98720742D01*
X115514630Y-98720750D01*
X115494435Y-98899996D01*
X115494435Y-98900003D01*
X115514630Y-99079249D01*
X115514631Y-99079254D01*
X115574211Y-99249523D01*
X115621936Y-99325476D01*
X115670184Y-99402262D01*
X115797738Y-99529816D01*
X115829568Y-99549816D01*
X115911887Y-99601541D01*
X115950478Y-99625789D01*
X116091104Y-99674996D01*
X116120745Y-99685368D01*
X116120750Y-99685369D01*
X116299996Y-99705565D01*
X116300000Y-99705565D01*
X116300004Y-99705565D01*
X116479249Y-99685369D01*
X116479252Y-99685368D01*
X116479255Y-99685368D01*
X116649522Y-99625789D01*
X116688114Y-99601539D01*
X116755346Y-99582539D01*
X116820056Y-99601539D01*
X116835287Y-99611110D01*
X116890475Y-99645788D01*
X117060745Y-99705368D01*
X117060750Y-99705369D01*
X117239996Y-99725565D01*
X117240000Y-99725565D01*
X117240004Y-99725565D01*
X117419249Y-99705369D01*
X117419252Y-99705368D01*
X117419255Y-99705368D01*
X117589522Y-99645789D01*
X117742262Y-99549816D01*
X117869816Y-99422262D01*
X117965789Y-99269522D01*
X118025368Y-99099255D01*
X118025373Y-99099211D01*
X118045565Y-98920003D01*
X118045565Y-98919996D01*
X118025369Y-98740750D01*
X118025368Y-98740745D01*
X118003859Y-98679277D01*
X117965789Y-98570478D01*
X117961918Y-98564318D01*
X117869815Y-98417737D01*
X117742262Y-98290184D01*
X117589523Y-98194211D01*
X117419254Y-98134631D01*
X117419249Y-98134630D01*
X117240004Y-98114435D01*
X117239996Y-98114435D01*
X117060750Y-98134630D01*
X117060737Y-98134633D01*
X116890480Y-98194209D01*
X116851884Y-98218460D01*
X116784647Y-98237459D01*
X116719942Y-98218459D01*
X116649522Y-98174211D01*
X116479254Y-98114631D01*
X116479249Y-98114630D01*
X116300004Y-98094435D01*
X116299996Y-98094435D01*
X116126703Y-98113959D01*
X116057881Y-98101904D01*
X116006502Y-98054555D01*
X115988878Y-97986944D01*
X115995783Y-97949772D01*
X115997286Y-97945477D01*
X115997287Y-97945472D01*
X116017483Y-97766226D01*
X116017483Y-97766219D01*
X115997287Y-97586973D01*
X115997286Y-97586968D01*
X115961735Y-97485369D01*
X115937707Y-97416701D01*
X115841734Y-97263961D01*
X115714180Y-97136407D01*
X115561442Y-97040435D01*
X115561439Y-97040433D01*
X115533342Y-97030602D01*
X115476566Y-96989881D01*
X115450819Y-96924928D01*
X115457255Y-96872608D01*
X115482923Y-96799255D01*
X115487890Y-96755170D01*
X115503120Y-96620003D01*
X115503120Y-96619996D01*
X115482924Y-96440750D01*
X115482921Y-96440737D01*
X115453810Y-96357544D01*
X115450247Y-96287766D01*
X115477400Y-96239241D01*
X115475475Y-96237706D01*
X115479815Y-96232263D01*
X115501510Y-96197737D01*
X115575789Y-96079522D01*
X115635368Y-95909255D01*
X115637038Y-95894435D01*
X115655565Y-95730003D01*
X115655565Y-95729996D01*
X115635369Y-95550750D01*
X115635368Y-95550745D01*
X115626358Y-95524996D01*
X116044435Y-95524996D01*
X116044435Y-95525003D01*
X116064630Y-95704249D01*
X116064631Y-95704254D01*
X116124211Y-95874523D01*
X116201632Y-95997737D01*
X116220184Y-96027262D01*
X116347738Y-96154816D01*
X116382191Y-96176464D01*
X116479656Y-96237706D01*
X116500478Y-96250789D01*
X116670745Y-96310368D01*
X116670750Y-96310369D01*
X116698032Y-96313443D01*
X116762447Y-96340509D01*
X116802002Y-96398103D01*
X116807370Y-96450545D01*
X116793246Y-96575909D01*
X116793246Y-96575918D01*
X116813441Y-96755164D01*
X116813442Y-96755169D01*
X116873022Y-96925438D01*
X116945279Y-97040433D01*
X116968995Y-97078177D01*
X117096549Y-97205731D01*
X117249289Y-97301704D01*
X117375277Y-97345789D01*
X117419556Y-97361283D01*
X117419561Y-97361284D01*
X117598807Y-97381480D01*
X117598811Y-97381480D01*
X117598815Y-97381480D01*
X117778060Y-97361284D01*
X117778062Y-97361283D01*
X117778066Y-97361283D01*
X117778069Y-97361281D01*
X117778073Y-97361281D01*
X117841888Y-97338950D01*
X117948333Y-97301704D01*
X117954440Y-97297866D01*
X118021670Y-97278862D01*
X118088507Y-97299224D01*
X118108097Y-97315175D01*
X118122738Y-97329816D01*
X118172819Y-97361284D01*
X118261014Y-97416701D01*
X118275478Y-97425789D01*
X118445745Y-97485368D01*
X118445750Y-97485369D01*
X118624996Y-97505565D01*
X118625000Y-97505565D01*
X118625004Y-97505565D01*
X118804249Y-97485369D01*
X118804252Y-97485368D01*
X118804255Y-97485368D01*
X118974522Y-97425789D01*
X119127262Y-97329816D01*
X119254816Y-97202262D01*
X119350789Y-97049522D01*
X119402322Y-96902249D01*
X121133006Y-96902249D01*
X121133006Y-96902256D01*
X121153201Y-97081502D01*
X121153202Y-97081507D01*
X121212782Y-97251776D01*
X121281591Y-97361284D01*
X121308755Y-97404515D01*
X121436309Y-97532069D01*
X121589049Y-97628042D01*
X121721881Y-97674522D01*
X121759316Y-97687621D01*
X121759321Y-97687622D01*
X121938567Y-97707818D01*
X121938571Y-97707818D01*
X121938575Y-97707818D01*
X122117820Y-97687622D01*
X122117823Y-97687621D01*
X122117826Y-97687621D01*
X122288093Y-97628042D01*
X122440833Y-97532069D01*
X122568387Y-97404515D01*
X122664360Y-97251775D01*
X122723939Y-97081508D01*
X122723940Y-97081502D01*
X122744136Y-96902256D01*
X122744136Y-96902249D01*
X122723940Y-96723003D01*
X122723939Y-96722998D01*
X122708632Y-96679254D01*
X122664360Y-96552731D01*
X122656129Y-96539632D01*
X122616014Y-96475789D01*
X122568387Y-96399991D01*
X122440833Y-96272437D01*
X122408725Y-96252262D01*
X122288094Y-96176464D01*
X122117825Y-96116884D01*
X122117820Y-96116883D01*
X121938575Y-96096688D01*
X121938567Y-96096688D01*
X121759321Y-96116883D01*
X121759316Y-96116884D01*
X121589047Y-96176464D01*
X121436308Y-96272437D01*
X121308755Y-96399990D01*
X121212782Y-96552729D01*
X121153202Y-96722998D01*
X121153201Y-96723003D01*
X121133006Y-96902249D01*
X119402322Y-96902249D01*
X119410368Y-96879255D01*
X119410369Y-96879249D01*
X119430565Y-96700003D01*
X119430565Y-96699996D01*
X119410369Y-96520750D01*
X119410368Y-96520745D01*
X119385117Y-96448582D01*
X119350789Y-96350478D01*
X119332106Y-96320745D01*
X119309019Y-96284001D01*
X119254816Y-96197738D01*
X119127262Y-96070184D01*
X119114613Y-96062236D01*
X118974523Y-95974211D01*
X118804254Y-95914631D01*
X118804249Y-95914630D01*
X118625004Y-95894435D01*
X118624996Y-95894435D01*
X118445750Y-95914630D01*
X118445737Y-95914633D01*
X118275478Y-95974210D01*
X118275474Y-95974211D01*
X118269356Y-95978056D01*
X118202118Y-95997050D01*
X118135284Y-95976678D01*
X118115712Y-95960738D01*
X118101073Y-95946099D01*
X117948332Y-95850125D01*
X117778060Y-95790545D01*
X117750775Y-95787471D01*
X117686361Y-95760403D01*
X117646807Y-95702808D01*
X117641440Y-95650368D01*
X117655565Y-95525003D01*
X117655565Y-95524996D01*
X117635369Y-95345750D01*
X117635368Y-95345745D01*
X117575789Y-95175478D01*
X117575788Y-95175476D01*
X117550081Y-95134564D01*
X117531081Y-95067330D01*
X117550082Y-95002620D01*
X117564828Y-94979153D01*
X117583149Y-94949996D01*
X123275060Y-94949996D01*
X123275060Y-94950003D01*
X123295255Y-95129249D01*
X123295256Y-95129254D01*
X123354836Y-95299523D01*
X123454514Y-95458158D01*
X123451830Y-95459844D01*
X123472926Y-95511700D01*
X123466598Y-95565125D01*
X123464631Y-95570746D01*
X123444435Y-95749996D01*
X123444435Y-95750003D01*
X123464630Y-95929249D01*
X123464631Y-95929254D01*
X123524211Y-96099523D01*
X123585924Y-96197738D01*
X123620184Y-96252262D01*
X123747738Y-96379816D01*
X123816394Y-96422955D01*
X123857178Y-96448582D01*
X123903469Y-96500917D01*
X123914117Y-96569971D01*
X123896200Y-96619548D01*
X123824211Y-96734116D01*
X123764631Y-96904385D01*
X123764630Y-96904390D01*
X123744435Y-97083636D01*
X123744435Y-97083643D01*
X123764630Y-97262889D01*
X123764631Y-97262894D01*
X123824211Y-97433163D01*
X123886358Y-97532068D01*
X123920184Y-97585902D01*
X124047738Y-97713456D01*
X124200478Y-97809429D01*
X124251442Y-97827262D01*
X124370745Y-97869008D01*
X124370750Y-97869009D01*
X124549996Y-97889205D01*
X124550000Y-97889205D01*
X124550004Y-97889205D01*
X124729249Y-97869009D01*
X124729252Y-97869008D01*
X124729255Y-97869008D01*
X124899522Y-97809429D01*
X125052262Y-97713456D01*
X125179816Y-97585902D01*
X125275789Y-97433162D01*
X125335368Y-97262895D01*
X125349620Y-97136407D01*
X125355565Y-97083643D01*
X125355565Y-97083636D01*
X125335369Y-96904390D01*
X125335368Y-96904385D01*
X125326574Y-96879254D01*
X125275789Y-96734118D01*
X125241312Y-96679249D01*
X125179815Y-96581377D01*
X125098434Y-96499996D01*
X133704435Y-96499996D01*
X133704435Y-96500003D01*
X133724630Y-96679249D01*
X133724631Y-96679254D01*
X133784211Y-96849523D01*
X133831912Y-96925438D01*
X133880184Y-97002262D01*
X134007738Y-97129816D01*
X134160478Y-97225789D01*
X134312152Y-97278862D01*
X134330745Y-97285368D01*
X134330750Y-97285369D01*
X134509996Y-97305565D01*
X134510000Y-97305565D01*
X134510004Y-97305565D01*
X134689249Y-97285369D01*
X134689252Y-97285368D01*
X134689255Y-97285368D01*
X134859522Y-97225789D01*
X135012262Y-97129816D01*
X135139816Y-97002262D01*
X135235789Y-96849522D01*
X135295368Y-96679255D01*
X135302044Y-96620003D01*
X135315565Y-96500003D01*
X135315565Y-96499996D01*
X135295369Y-96320750D01*
X135295368Y-96320745D01*
X135270889Y-96250788D01*
X135235789Y-96150478D01*
X135214680Y-96116884D01*
X135180343Y-96062236D01*
X135139816Y-95997738D01*
X135012262Y-95870184D01*
X134980340Y-95850126D01*
X134859523Y-95774211D01*
X134689254Y-95714631D01*
X134689249Y-95714630D01*
X134510004Y-95694435D01*
X134509996Y-95694435D01*
X134330750Y-95714630D01*
X134330745Y-95714631D01*
X134160476Y-95774211D01*
X134007737Y-95870184D01*
X133880184Y-95997737D01*
X133784211Y-96150476D01*
X133724631Y-96320745D01*
X133724630Y-96320750D01*
X133704435Y-96499996D01*
X125098434Y-96499996D01*
X125052262Y-96453824D01*
X124942822Y-96385058D01*
X124896531Y-96332723D01*
X124885883Y-96263669D01*
X124903800Y-96214092D01*
X124964879Y-96116885D01*
X124975789Y-96099522D01*
X125035368Y-95929255D01*
X125035369Y-95929249D01*
X125055565Y-95750003D01*
X125055565Y-95749996D01*
X125035369Y-95570750D01*
X125035368Y-95570745D01*
X124975788Y-95400476D01*
X124876111Y-95241842D01*
X124878843Y-95240124D01*
X124857733Y-95188641D01*
X124864028Y-95134868D01*
X124865993Y-95129255D01*
X124865994Y-95129247D01*
X124886190Y-94950003D01*
X124886190Y-94949996D01*
X124865994Y-94770750D01*
X124865993Y-94770745D01*
X124806413Y-94600476D01*
X124710440Y-94447737D01*
X124582887Y-94320184D01*
X124431397Y-94224996D01*
X133704435Y-94224996D01*
X133704435Y-94225003D01*
X133724630Y-94404249D01*
X133724631Y-94404254D01*
X133784211Y-94574523D01*
X133880184Y-94727262D01*
X134007738Y-94854816D01*
X134033501Y-94871004D01*
X134150677Y-94944631D01*
X134160478Y-94950789D01*
X134313149Y-95004211D01*
X134330745Y-95010368D01*
X134330750Y-95010369D01*
X134509996Y-95030565D01*
X134510000Y-95030565D01*
X134510004Y-95030565D01*
X134689249Y-95010369D01*
X134689252Y-95010368D01*
X134689255Y-95010368D01*
X134859522Y-94950789D01*
X135012262Y-94854816D01*
X135139816Y-94727262D01*
X135235789Y-94574522D01*
X135295368Y-94404255D01*
X135300854Y-94355565D01*
X135315565Y-94225003D01*
X135315565Y-94224996D01*
X135295369Y-94045750D01*
X135295368Y-94045745D01*
X135286086Y-94019218D01*
X135235789Y-93875478D01*
X135139816Y-93722738D01*
X135012262Y-93595184D01*
X134988996Y-93580565D01*
X134859523Y-93499211D01*
X134689254Y-93439631D01*
X134689249Y-93439630D01*
X134510004Y-93419435D01*
X134509996Y-93419435D01*
X134330750Y-93439630D01*
X134330745Y-93439631D01*
X134160476Y-93499211D01*
X134007737Y-93595184D01*
X133880184Y-93722737D01*
X133784211Y-93875476D01*
X133724631Y-94045745D01*
X133724630Y-94045750D01*
X133704435Y-94224996D01*
X124431397Y-94224996D01*
X124430148Y-94224211D01*
X124259879Y-94164631D01*
X124259874Y-94164630D01*
X124080629Y-94144435D01*
X124080621Y-94144435D01*
X123901375Y-94164630D01*
X123901370Y-94164631D01*
X123731101Y-94224211D01*
X123578362Y-94320184D01*
X123450809Y-94447737D01*
X123354836Y-94600476D01*
X123295256Y-94770745D01*
X123295255Y-94770750D01*
X123275060Y-94949996D01*
X117583149Y-94949996D01*
X117632783Y-94871003D01*
X117692362Y-94700736D01*
X117692363Y-94700730D01*
X117712559Y-94521484D01*
X117712559Y-94521477D01*
X117692363Y-94342231D01*
X117692362Y-94342226D01*
X117632782Y-94171957D01*
X117557572Y-94052262D01*
X117536810Y-94019219D01*
X117409256Y-93891665D01*
X117383495Y-93875478D01*
X117256517Y-93795692D01*
X117086248Y-93736112D01*
X117086243Y-93736111D01*
X116906998Y-93715916D01*
X116906990Y-93715916D01*
X116727744Y-93736111D01*
X116727739Y-93736112D01*
X116557470Y-93795692D01*
X116404731Y-93891665D01*
X116277178Y-94019218D01*
X116181205Y-94171957D01*
X116121625Y-94342226D01*
X116121624Y-94342231D01*
X116101429Y-94521477D01*
X116101429Y-94521484D01*
X116121624Y-94700730D01*
X116121625Y-94700735D01*
X116181205Y-94871004D01*
X116206912Y-94911916D01*
X116225912Y-94979153D01*
X116206912Y-95043860D01*
X116124211Y-95175476D01*
X116064631Y-95345745D01*
X116064630Y-95345750D01*
X116044435Y-95524996D01*
X115626358Y-95524996D01*
X115575789Y-95380478D01*
X115479816Y-95227738D01*
X115352262Y-95100184D01*
X115199523Y-95004211D01*
X115029254Y-94944631D01*
X115029249Y-94944630D01*
X114850004Y-94924435D01*
X114849996Y-94924435D01*
X114670750Y-94944630D01*
X114670745Y-94944631D01*
X114500476Y-95004211D01*
X114347737Y-95100184D01*
X114220184Y-95227737D01*
X114124211Y-95380476D01*
X114064631Y-95550745D01*
X114064630Y-95550750D01*
X114044435Y-95729996D01*
X114044435Y-95730003D01*
X114064631Y-95909252D01*
X114093745Y-95992457D01*
X114097306Y-96062236D01*
X114070167Y-96110770D01*
X114072080Y-96112295D01*
X114067739Y-96117738D01*
X113971766Y-96270476D01*
X113912186Y-96440745D01*
X113912185Y-96440750D01*
X113891990Y-96619996D01*
X102157602Y-96619996D01*
X102124523Y-96599211D01*
X101954254Y-96539631D01*
X101954249Y-96539630D01*
X101775004Y-96519435D01*
X101774996Y-96519435D01*
X101595750Y-96539630D01*
X101595745Y-96539631D01*
X101425476Y-96599211D01*
X101272737Y-96695184D01*
X101145184Y-96822737D01*
X101049211Y-96975476D01*
X100989631Y-97145745D01*
X100989630Y-97145750D01*
X100969435Y-97324996D01*
X98112171Y-97324996D01*
X98112171Y-92774996D01*
X104519435Y-92774996D01*
X104519435Y-92775003D01*
X104539630Y-92954249D01*
X104539631Y-92954254D01*
X104599211Y-93124523D01*
X104677754Y-93249522D01*
X104695184Y-93277262D01*
X104822738Y-93404816D01*
X104913080Y-93461582D01*
X104972966Y-93499211D01*
X104975478Y-93500789D01*
X105129878Y-93554816D01*
X105145745Y-93560368D01*
X105145750Y-93560369D01*
X105324996Y-93580565D01*
X105325000Y-93580565D01*
X105325004Y-93580565D01*
X105504249Y-93560369D01*
X105504252Y-93560368D01*
X105504255Y-93560368D01*
X105674522Y-93500789D01*
X105827262Y-93404816D01*
X105954816Y-93277262D01*
X106050789Y-93124522D01*
X106070458Y-93068312D01*
X106111180Y-93011535D01*
X106176133Y-92985788D01*
X106244694Y-92999244D01*
X106295097Y-93047631D01*
X106304542Y-93068312D01*
X106324210Y-93124521D01*
X106390371Y-93229815D01*
X106420184Y-93277262D01*
X106547738Y-93404816D01*
X106638080Y-93461582D01*
X106697966Y-93499211D01*
X106700478Y-93500789D01*
X106854878Y-93554816D01*
X106870745Y-93560368D01*
X106870750Y-93560369D01*
X107049996Y-93580565D01*
X107050000Y-93580565D01*
X107050004Y-93580565D01*
X107229249Y-93560369D01*
X107229252Y-93560368D01*
X107229255Y-93560368D01*
X107399522Y-93500789D01*
X107552262Y-93404816D01*
X107679816Y-93277262D01*
X107775789Y-93124522D01*
X107835368Y-92954255D01*
X107835369Y-92954249D01*
X107855565Y-92775003D01*
X107855565Y-92774996D01*
X107841481Y-92649996D01*
X113519435Y-92649996D01*
X113519435Y-92650003D01*
X113539630Y-92829249D01*
X113539631Y-92829254D01*
X113599211Y-92999523D01*
X113665019Y-93104255D01*
X113695184Y-93152262D01*
X113822738Y-93279816D01*
X113895902Y-93325788D01*
X113967453Y-93370747D01*
X113975478Y-93375789D01*
X114060573Y-93405565D01*
X114145745Y-93435368D01*
X114145750Y-93435369D01*
X114324996Y-93455565D01*
X114325000Y-93455565D01*
X114325004Y-93455565D01*
X114504249Y-93435369D01*
X114504252Y-93435368D01*
X114504255Y-93435368D01*
X114674522Y-93375789D01*
X114827262Y-93279816D01*
X114954816Y-93152262D01*
X115050789Y-92999522D01*
X115051092Y-92998654D01*
X115051442Y-92998166D01*
X115053812Y-92993246D01*
X115054673Y-92993660D01*
X115091803Y-92941876D01*
X115154252Y-92916375D01*
X115247029Y-92905923D01*
X115417296Y-92846344D01*
X115570036Y-92750371D01*
X115697590Y-92622817D01*
X115793563Y-92470077D01*
X115853142Y-92299810D01*
X115853143Y-92299804D01*
X115873339Y-92120558D01*
X115873339Y-92120551D01*
X115863136Y-92029996D01*
X118783727Y-92029996D01*
X118783727Y-92030003D01*
X118803922Y-92209249D01*
X118803923Y-92209254D01*
X118863503Y-92379523D01*
X118959476Y-92532262D01*
X119087030Y-92659816D01*
X119152238Y-92700789D01*
X119231145Y-92750370D01*
X119239770Y-92755789D01*
X119306832Y-92779255D01*
X119410037Y-92815368D01*
X119410042Y-92815369D01*
X119589288Y-92835565D01*
X119589292Y-92835565D01*
X119589296Y-92835565D01*
X119768541Y-92815369D01*
X119768544Y-92815368D01*
X119768547Y-92815368D01*
X119938814Y-92755789D01*
X120091554Y-92659816D01*
X120219108Y-92532262D01*
X120281932Y-92432277D01*
X120334266Y-92385988D01*
X120403319Y-92375340D01*
X120467168Y-92403715D01*
X120491918Y-92432278D01*
X120506974Y-92456239D01*
X120520184Y-92477262D01*
X120647738Y-92604816D01*
X120800478Y-92700789D01*
X120942175Y-92750371D01*
X120970745Y-92760368D01*
X120970750Y-92760369D01*
X121149996Y-92780565D01*
X121150000Y-92780565D01*
X121150004Y-92780565D01*
X121292116Y-92764553D01*
X121360937Y-92776608D01*
X121410991Y-92821798D01*
X121418630Y-92833955D01*
X121546184Y-92961509D01*
X121618248Y-93006790D01*
X121695871Y-93055564D01*
X121698924Y-93057482D01*
X121832591Y-93104254D01*
X121869191Y-93117061D01*
X121869196Y-93117062D01*
X122048442Y-93137258D01*
X122048446Y-93137258D01*
X122048450Y-93137258D01*
X122227695Y-93117062D01*
X122227698Y-93117061D01*
X122227701Y-93117061D01*
X122397968Y-93057482D01*
X122550708Y-92961509D01*
X122678262Y-92833955D01*
X122774235Y-92681215D01*
X122833814Y-92510948D01*
X122837111Y-92481688D01*
X122854011Y-92331696D01*
X122854011Y-92331689D01*
X122833815Y-92152443D01*
X122833814Y-92152438D01*
X122825056Y-92127410D01*
X122774235Y-91982171D01*
X122766232Y-91969435D01*
X122700379Y-91864630D01*
X122678262Y-91829431D01*
X122550708Y-91701877D01*
X122516649Y-91680476D01*
X122397969Y-91605904D01*
X122227700Y-91546324D01*
X122227695Y-91546323D01*
X122048450Y-91526128D01*
X122048442Y-91526128D01*
X121906329Y-91542139D01*
X121837507Y-91530084D01*
X121787452Y-91484891D01*
X121779816Y-91472738D01*
X121652262Y-91345184D01*
X121614329Y-91321349D01*
X121499523Y-91249211D01*
X121329254Y-91189631D01*
X121329249Y-91189630D01*
X121150004Y-91169435D01*
X121149996Y-91169435D01*
X120970750Y-91189630D01*
X120970745Y-91189631D01*
X120800476Y-91249211D01*
X120647737Y-91345184D01*
X120520184Y-91472737D01*
X120520182Y-91472740D01*
X120457359Y-91572721D01*
X120405024Y-91619012D01*
X120335971Y-91629659D01*
X120272122Y-91601284D01*
X120247372Y-91572720D01*
X120230786Y-91546324D01*
X120219108Y-91527738D01*
X120091554Y-91400184D01*
X120060908Y-91380928D01*
X119938815Y-91304211D01*
X119768546Y-91244631D01*
X119768541Y-91244630D01*
X119589296Y-91224435D01*
X119589288Y-91224435D01*
X119410042Y-91244630D01*
X119410037Y-91244631D01*
X119239768Y-91304211D01*
X119087029Y-91400184D01*
X118959476Y-91527737D01*
X118863503Y-91680476D01*
X118803923Y-91850745D01*
X118803922Y-91850750D01*
X118783727Y-92029996D01*
X115863136Y-92029996D01*
X115853143Y-91941304D01*
X115853142Y-91941300D01*
X115849749Y-91931606D01*
X115846186Y-91861830D01*
X115879109Y-91802968D01*
X115904816Y-91777262D01*
X116000789Y-91624522D01*
X116060368Y-91454255D01*
X116060819Y-91450253D01*
X116080565Y-91275003D01*
X116080565Y-91274996D01*
X116060369Y-91095750D01*
X116060368Y-91095745D01*
X116000789Y-90925478D01*
X115904816Y-90772738D01*
X115777262Y-90645184D01*
X115745144Y-90625003D01*
X115624523Y-90549211D01*
X115454254Y-90489631D01*
X115454249Y-90489630D01*
X115275004Y-90469435D01*
X115274996Y-90469435D01*
X115095750Y-90489630D01*
X115095745Y-90489631D01*
X114925476Y-90549211D01*
X114772737Y-90645184D01*
X114645184Y-90772737D01*
X114549211Y-90925476D01*
X114489631Y-91095745D01*
X114489630Y-91095750D01*
X114469435Y-91274996D01*
X114469435Y-91275003D01*
X114489630Y-91454246D01*
X114489631Y-91454252D01*
X114489631Y-91454254D01*
X114489632Y-91454255D01*
X114493025Y-91463951D01*
X114496586Y-91533729D01*
X114463666Y-91592584D01*
X114437959Y-91618291D01*
X114341986Y-91771030D01*
X114341982Y-91771039D01*
X114341671Y-91771928D01*
X114341315Y-91772423D01*
X114338967Y-91777301D01*
X114338111Y-91776889D01*
X114300942Y-91828699D01*
X114238519Y-91854178D01*
X114145750Y-91864630D01*
X113975478Y-91924210D01*
X113822737Y-92020184D01*
X113695184Y-92147737D01*
X113599211Y-92300476D01*
X113539631Y-92470745D01*
X113539630Y-92470750D01*
X113519435Y-92649996D01*
X107841481Y-92649996D01*
X107835369Y-92595750D01*
X107835368Y-92595745D01*
X107824334Y-92564211D01*
X107775789Y-92425478D01*
X107774067Y-92422738D01*
X107696826Y-92299809D01*
X107679816Y-92272738D01*
X107552262Y-92145184D01*
X107543426Y-92139632D01*
X107399523Y-92049211D01*
X107229254Y-91989631D01*
X107229249Y-91989630D01*
X107050004Y-91969435D01*
X107049996Y-91969435D01*
X106870750Y-91989630D01*
X106870745Y-91989631D01*
X106700476Y-92049211D01*
X106547737Y-92145184D01*
X106420184Y-92272737D01*
X106324209Y-92425480D01*
X106304541Y-92481688D01*
X106263819Y-92538464D01*
X106198867Y-92564211D01*
X106130305Y-92550755D01*
X106079902Y-92502367D01*
X106070459Y-92481688D01*
X106050790Y-92425480D01*
X106050789Y-92425478D01*
X105954816Y-92272738D01*
X105827262Y-92145184D01*
X105818426Y-92139632D01*
X105674523Y-92049211D01*
X105504254Y-91989631D01*
X105504249Y-91989630D01*
X105325004Y-91969435D01*
X105324996Y-91969435D01*
X105145750Y-91989630D01*
X105145745Y-91989631D01*
X104975476Y-92049211D01*
X104822737Y-92145184D01*
X104695184Y-92272737D01*
X104599211Y-92425476D01*
X104539631Y-92595745D01*
X104539630Y-92595750D01*
X104519435Y-92774996D01*
X98112171Y-92774996D01*
X98112171Y-89683272D01*
X108252379Y-89683272D01*
X108252379Y-89683279D01*
X108272574Y-89862525D01*
X108272575Y-89862530D01*
X108332155Y-90032799D01*
X108374081Y-90099523D01*
X108428128Y-90185538D01*
X108555682Y-90313092D01*
X108615158Y-90350463D01*
X108661872Y-90379816D01*
X108708422Y-90409065D01*
X108878689Y-90468644D01*
X108878694Y-90468645D01*
X109057940Y-90488841D01*
X109057944Y-90488841D01*
X109057948Y-90488841D01*
X109237193Y-90468645D01*
X109237196Y-90468644D01*
X109237199Y-90468644D01*
X109407466Y-90409065D01*
X109560206Y-90313092D01*
X109687760Y-90185538D01*
X109783733Y-90032798D01*
X109843312Y-89862531D01*
X109855992Y-89749996D01*
X123569435Y-89749996D01*
X123569435Y-89750003D01*
X123589630Y-89929249D01*
X123589631Y-89929254D01*
X123649211Y-90099523D01*
X123703258Y-90185538D01*
X123745184Y-90252262D01*
X123806013Y-90313091D01*
X123843385Y-90350463D01*
X123876869Y-90411786D01*
X123878923Y-90452027D01*
X123859435Y-90624995D01*
X123859435Y-90625003D01*
X123879630Y-90804249D01*
X123879631Y-90804254D01*
X123939211Y-90974523D01*
X124015384Y-91095750D01*
X124035184Y-91127262D01*
X124162738Y-91254816D01*
X124236481Y-91301152D01*
X124315479Y-91350790D01*
X124357928Y-91365643D01*
X124414705Y-91406364D01*
X124440453Y-91471316D01*
X124426997Y-91539878D01*
X124378611Y-91590282D01*
X124357930Y-91599726D01*
X124225505Y-91646064D01*
X124072762Y-91742039D01*
X123945209Y-91869592D01*
X123849236Y-92022331D01*
X123789656Y-92192600D01*
X123789655Y-92192605D01*
X123769460Y-92371851D01*
X123769460Y-92371858D01*
X123789655Y-92551104D01*
X123789656Y-92551109D01*
X123849236Y-92721378D01*
X123919974Y-92833956D01*
X123945209Y-92874117D01*
X124072763Y-93001671D01*
X124141765Y-93045028D01*
X124196235Y-93079254D01*
X124225503Y-93097644D01*
X124381592Y-93152262D01*
X124395770Y-93157223D01*
X124395775Y-93157224D01*
X124575021Y-93177420D01*
X124575025Y-93177420D01*
X124575029Y-93177420D01*
X124754274Y-93157224D01*
X124754277Y-93157223D01*
X124754280Y-93157223D01*
X124924547Y-93097644D01*
X125077287Y-93001671D01*
X125153962Y-92924996D01*
X130894435Y-92924996D01*
X130894435Y-92925003D01*
X130914630Y-93104249D01*
X130914631Y-93104254D01*
X130974211Y-93274523D01*
X131037841Y-93375789D01*
X131070184Y-93427262D01*
X131197738Y-93554816D01*
X131288080Y-93611582D01*
X131310687Y-93625787D01*
X131350478Y-93650789D01*
X131449299Y-93685368D01*
X131520745Y-93710368D01*
X131520750Y-93710369D01*
X131699996Y-93730565D01*
X131700000Y-93730565D01*
X131700004Y-93730565D01*
X131879249Y-93710369D01*
X131879252Y-93710368D01*
X131879255Y-93710368D01*
X132049522Y-93650789D01*
X132103921Y-93616607D01*
X132171156Y-93597607D01*
X132235863Y-93616607D01*
X132250474Y-93625787D01*
X132250475Y-93625787D01*
X132250478Y-93625789D01*
X132420745Y-93685368D01*
X132420750Y-93685369D01*
X132599996Y-93705565D01*
X132600000Y-93705565D01*
X132600004Y-93705565D01*
X132779249Y-93685369D01*
X132779252Y-93685368D01*
X132779255Y-93685368D01*
X132949522Y-93625789D01*
X133102262Y-93529816D01*
X133229816Y-93402262D01*
X133325789Y-93249522D01*
X133385368Y-93079255D01*
X133387780Y-93057848D01*
X133405565Y-92900003D01*
X133405565Y-92899996D01*
X133385369Y-92720748D01*
X133361342Y-92652083D01*
X133358683Y-92599996D01*
X134594435Y-92599996D01*
X134594435Y-92600003D01*
X134614630Y-92779249D01*
X134614631Y-92779254D01*
X134674211Y-92949523D01*
X134740842Y-93055565D01*
X134770184Y-93102262D01*
X134897738Y-93229816D01*
X135050478Y-93325789D01*
X135178955Y-93370745D01*
X135220745Y-93385368D01*
X135220750Y-93385369D01*
X135399996Y-93405565D01*
X135400000Y-93405565D01*
X135400004Y-93405565D01*
X135579249Y-93385369D01*
X135579252Y-93385368D01*
X135579255Y-93385368D01*
X135749522Y-93325789D01*
X135902262Y-93229816D01*
X136029816Y-93102262D01*
X136029818Y-93102257D01*
X136033220Y-93097993D01*
X136090405Y-93057848D01*
X136144056Y-93052078D01*
X136175000Y-93055565D01*
X136175000Y-93055564D01*
X136175001Y-93055565D01*
X136175003Y-93055565D01*
X136354249Y-93035369D01*
X136354252Y-93035368D01*
X136354255Y-93035368D01*
X136354256Y-93035367D01*
X136354259Y-93035367D01*
X136450558Y-93001670D01*
X136484046Y-92989951D01*
X136553824Y-92986389D01*
X136565956Y-92989952D01*
X136695740Y-93035366D01*
X136695746Y-93035367D01*
X136695748Y-93035368D01*
X136695749Y-93035368D01*
X136695753Y-93035369D01*
X136775134Y-93044312D01*
X136875003Y-93055565D01*
X136891086Y-93053752D01*
X136959905Y-93065804D01*
X137009965Y-93110999D01*
X137020182Y-93127260D01*
X137061130Y-93168208D01*
X137094615Y-93229531D01*
X137090491Y-93296843D01*
X137064631Y-93370747D01*
X137044435Y-93549996D01*
X137044435Y-93550003D01*
X137064630Y-93729249D01*
X137064631Y-93729254D01*
X137124211Y-93899523D01*
X137199421Y-94019218D01*
X137220184Y-94052262D01*
X137347738Y-94179816D01*
X137500478Y-94275789D01*
X137627352Y-94320184D01*
X137670745Y-94335368D01*
X137670750Y-94335369D01*
X137849996Y-94355565D01*
X137850000Y-94355565D01*
X137850004Y-94355565D01*
X138029249Y-94335369D01*
X138029252Y-94335368D01*
X138029255Y-94335368D01*
X138199522Y-94275789D01*
X138352262Y-94179816D01*
X138479816Y-94052262D01*
X138575789Y-93899522D01*
X138635368Y-93729255D01*
X138635369Y-93729249D01*
X138655565Y-93550003D01*
X138655565Y-93549996D01*
X138635369Y-93370750D01*
X138635368Y-93370745D01*
X138619637Y-93325788D01*
X138575789Y-93200478D01*
X138555512Y-93168208D01*
X138523375Y-93117062D01*
X138479816Y-93047738D01*
X138438868Y-93006790D01*
X138405383Y-92945467D01*
X138409507Y-92878158D01*
X138435368Y-92804255D01*
X138438185Y-92779254D01*
X138455565Y-92625003D01*
X138455565Y-92624996D01*
X138435369Y-92445750D01*
X138435368Y-92445745D01*
X138428276Y-92425476D01*
X138375789Y-92275478D01*
X138374067Y-92272738D01*
X138327867Y-92199211D01*
X138279816Y-92122738D01*
X138152262Y-91995184D01*
X138143426Y-91989632D01*
X137999523Y-91899211D01*
X137829254Y-91839631D01*
X137829249Y-91839630D01*
X137650004Y-91819435D01*
X137649996Y-91819435D01*
X137633913Y-91821247D01*
X137565091Y-91809192D01*
X137515036Y-91763998D01*
X137504821Y-91747740D01*
X137377265Y-91620184D01*
X137224526Y-91524211D01*
X137054257Y-91464631D01*
X137054252Y-91464630D01*
X136875007Y-91444435D01*
X136874999Y-91444435D01*
X136695753Y-91464630D01*
X136695745Y-91464632D01*
X136565955Y-91510048D01*
X136496177Y-91513609D01*
X136484046Y-91510047D01*
X136354262Y-91464633D01*
X136354249Y-91464630D01*
X136175004Y-91444435D01*
X136174996Y-91444435D01*
X136123355Y-91450253D01*
X136054534Y-91438198D01*
X136021792Y-91414714D01*
X135927262Y-91320184D01*
X135774523Y-91224211D01*
X135604254Y-91164631D01*
X135604249Y-91164630D01*
X135425004Y-91144435D01*
X135424996Y-91144435D01*
X135245750Y-91164630D01*
X135245745Y-91164631D01*
X135075476Y-91224211D01*
X134922737Y-91320184D01*
X134795184Y-91447737D01*
X134699211Y-91600476D01*
X134639631Y-91770745D01*
X134639630Y-91770750D01*
X134619435Y-91949996D01*
X134619435Y-91950003D01*
X134639631Y-92129253D01*
X134639631Y-92129254D01*
X134663799Y-92198325D01*
X134667360Y-92268104D01*
X134663799Y-92280232D01*
X134614632Y-92420742D01*
X134614630Y-92420750D01*
X134594435Y-92599996D01*
X133358683Y-92599996D01*
X133357780Y-92582304D01*
X133373387Y-92545160D01*
X133429261Y-92456239D01*
X133488840Y-92285972D01*
X133489487Y-92280232D01*
X133509037Y-92106720D01*
X133509037Y-92106713D01*
X133488841Y-91927467D01*
X133488840Y-91927462D01*
X133487702Y-91924210D01*
X133429261Y-91757195D01*
X133333288Y-91604455D01*
X133205734Y-91476901D01*
X133186208Y-91464632D01*
X133052995Y-91380928D01*
X132882726Y-91321348D01*
X132882721Y-91321347D01*
X132703476Y-91301152D01*
X132703468Y-91301152D01*
X132524222Y-91321347D01*
X132524217Y-91321348D01*
X132353948Y-91380928D01*
X132201209Y-91476901D01*
X132073656Y-91604454D01*
X131977683Y-91757193D01*
X131918103Y-91927462D01*
X131918102Y-91927467D01*
X131907894Y-92018073D01*
X131880828Y-92082487D01*
X131823233Y-92122043D01*
X131770792Y-92127410D01*
X131700005Y-92119435D01*
X131699996Y-92119435D01*
X131520750Y-92139630D01*
X131520745Y-92139631D01*
X131350476Y-92199211D01*
X131197737Y-92295184D01*
X131070184Y-92422737D01*
X130974211Y-92575476D01*
X130914631Y-92745745D01*
X130914630Y-92745750D01*
X130894435Y-92924996D01*
X125153962Y-92924996D01*
X125204841Y-92874117D01*
X125300814Y-92721377D01*
X125360393Y-92551110D01*
X125364918Y-92510948D01*
X125380590Y-92371858D01*
X125380590Y-92371851D01*
X125360394Y-92192605D01*
X125360393Y-92192600D01*
X125300813Y-92022331D01*
X125249900Y-91941304D01*
X125204841Y-91869593D01*
X125077287Y-91742039D01*
X124924547Y-91646066D01*
X124924544Y-91646064D01*
X124882094Y-91631210D01*
X124825318Y-91590489D01*
X124799571Y-91525536D01*
X124813027Y-91456974D01*
X124861415Y-91406572D01*
X124882093Y-91397127D01*
X125014522Y-91350789D01*
X125167262Y-91254816D01*
X125294816Y-91127262D01*
X125390789Y-90974522D01*
X125450368Y-90804255D01*
X125453919Y-90772738D01*
X125470565Y-90625003D01*
X125470565Y-90624996D01*
X125450369Y-90445750D01*
X125450368Y-90445745D01*
X125417027Y-90350463D01*
X125390789Y-90275478D01*
X125376201Y-90252262D01*
X125294815Y-90122737D01*
X125196615Y-90024537D01*
X125163130Y-89963214D01*
X125161076Y-89922972D01*
X125180565Y-89750002D01*
X125180565Y-89749996D01*
X125160369Y-89570750D01*
X125160368Y-89570745D01*
X125100788Y-89400476D01*
X125004815Y-89247737D01*
X124877262Y-89120184D01*
X124724523Y-89024211D01*
X124554254Y-88964631D01*
X124554249Y-88964630D01*
X124375004Y-88944435D01*
X124374996Y-88944435D01*
X124195750Y-88964630D01*
X124195745Y-88964631D01*
X124025476Y-89024211D01*
X123872737Y-89120184D01*
X123745184Y-89247737D01*
X123649211Y-89400476D01*
X123589631Y-89570745D01*
X123589630Y-89570750D01*
X123569435Y-89749996D01*
X109855992Y-89749996D01*
X109863509Y-89683276D01*
X109850830Y-89570750D01*
X109843313Y-89504026D01*
X109843312Y-89504021D01*
X109783732Y-89333752D01*
X109744526Y-89271356D01*
X109687760Y-89181014D01*
X109560206Y-89053460D01*
X109513657Y-89024211D01*
X109407467Y-88957487D01*
X109237198Y-88897907D01*
X109237193Y-88897906D01*
X109057948Y-88877711D01*
X109057940Y-88877711D01*
X108878694Y-88897906D01*
X108878689Y-88897907D01*
X108708420Y-88957487D01*
X108555681Y-89053460D01*
X108428128Y-89181013D01*
X108332155Y-89333752D01*
X108272575Y-89504021D01*
X108272574Y-89504026D01*
X108252379Y-89683272D01*
X98112171Y-89683272D01*
X98112171Y-87814996D01*
X106235485Y-87814996D01*
X106235485Y-87815003D01*
X106255680Y-87994249D01*
X106255681Y-87994254D01*
X106315261Y-88164523D01*
X106411234Y-88317262D01*
X106538788Y-88444816D01*
X106691528Y-88540789D01*
X106861795Y-88600368D01*
X106861800Y-88600369D01*
X107041046Y-88620565D01*
X107041050Y-88620565D01*
X107041054Y-88620565D01*
X107220299Y-88600369D01*
X107220302Y-88600368D01*
X107220305Y-88600368D01*
X107390572Y-88540789D01*
X107543312Y-88444816D01*
X107670866Y-88317262D01*
X107766839Y-88164522D01*
X107826418Y-87994255D01*
X107846615Y-87815000D01*
X107826418Y-87635745D01*
X107766839Y-87465478D01*
X107670866Y-87312738D01*
X107543312Y-87185184D01*
X107464032Y-87135369D01*
X107390573Y-87089211D01*
X107220304Y-87029631D01*
X107220299Y-87029630D01*
X107041054Y-87009435D01*
X107041046Y-87009435D01*
X106861800Y-87029630D01*
X106861795Y-87029631D01*
X106691526Y-87089211D01*
X106538787Y-87185184D01*
X106411234Y-87312737D01*
X106315261Y-87465476D01*
X106255681Y-87635745D01*
X106255680Y-87635750D01*
X106235485Y-87814996D01*
X98112171Y-87814996D01*
X98112171Y-85169996D01*
X103164435Y-85169996D01*
X103164435Y-85170003D01*
X103184630Y-85349249D01*
X103184631Y-85349254D01*
X103244211Y-85519523D01*
X103323987Y-85646485D01*
X103340184Y-85672262D01*
X103467738Y-85799816D01*
X103620478Y-85895789D01*
X103790745Y-85955368D01*
X103790750Y-85955369D01*
X103969996Y-85975565D01*
X103970000Y-85975565D01*
X103970004Y-85975565D01*
X104149249Y-85955369D01*
X104149252Y-85955368D01*
X104149255Y-85955368D01*
X104319522Y-85895789D01*
X104392890Y-85849688D01*
X104460126Y-85830688D01*
X104526961Y-85851055D01*
X104572175Y-85904323D01*
X104581414Y-85973579D01*
X104575904Y-85995636D01*
X104514632Y-86170742D01*
X104514630Y-86170750D01*
X104494435Y-86349996D01*
X104494435Y-86350003D01*
X104514630Y-86529249D01*
X104514631Y-86529254D01*
X104574211Y-86699523D01*
X104652754Y-86824522D01*
X104670184Y-86852262D01*
X104797738Y-86979816D01*
X104950478Y-87075789D01*
X105120745Y-87135368D01*
X105120750Y-87135369D01*
X105299996Y-87155565D01*
X105300000Y-87155565D01*
X105300004Y-87155565D01*
X105479249Y-87135369D01*
X105479252Y-87135368D01*
X105479255Y-87135368D01*
X105649522Y-87075789D01*
X105802262Y-86979816D01*
X105929816Y-86852262D01*
X106025789Y-86699522D01*
X106085368Y-86529255D01*
X106085369Y-86529249D01*
X106105565Y-86350003D01*
X106105565Y-86349996D01*
X106088664Y-86199996D01*
X109544435Y-86199996D01*
X109544435Y-86200003D01*
X109564630Y-86379249D01*
X109564631Y-86379254D01*
X109624211Y-86549523D01*
X109717084Y-86697329D01*
X109720184Y-86702262D01*
X109847738Y-86829816D01*
X110000478Y-86925789D01*
X110154878Y-86979816D01*
X110170745Y-86985368D01*
X110170750Y-86985369D01*
X110349996Y-87005565D01*
X110350000Y-87005565D01*
X110350004Y-87005565D01*
X110529249Y-86985369D01*
X110529252Y-86985368D01*
X110529255Y-86985368D01*
X110699522Y-86925789D01*
X110852262Y-86829816D01*
X110979816Y-86702262D01*
X110981240Y-86699996D01*
X115794435Y-86699996D01*
X115794435Y-86700003D01*
X115814630Y-86879249D01*
X115814631Y-86879254D01*
X115874211Y-87049523D01*
X115928152Y-87135369D01*
X115970184Y-87202262D01*
X116097738Y-87329816D01*
X116188080Y-87386582D01*
X116246220Y-87423114D01*
X116250478Y-87425789D01*
X116363897Y-87465476D01*
X116420745Y-87485368D01*
X116420750Y-87485369D01*
X116599996Y-87505565D01*
X116600000Y-87505565D01*
X116600004Y-87505565D01*
X116779249Y-87485369D01*
X116779252Y-87485368D01*
X116779255Y-87485368D01*
X116949522Y-87425789D01*
X117102262Y-87329816D01*
X117229816Y-87202262D01*
X117305076Y-87082485D01*
X117357411Y-87036195D01*
X117426464Y-87025547D01*
X117490313Y-87053922D01*
X117515063Y-87082485D01*
X117588644Y-87199588D01*
X117716198Y-87327142D01*
X117868938Y-87423115D01*
X118039205Y-87482694D01*
X118039210Y-87482695D01*
X118218456Y-87502891D01*
X118218460Y-87502891D01*
X118218464Y-87502891D01*
X118397709Y-87482695D01*
X118397712Y-87482694D01*
X118397715Y-87482694D01*
X118567982Y-87423115D01*
X118720722Y-87327142D01*
X118848276Y-87199588D01*
X118944249Y-87046848D01*
X119003828Y-86876581D01*
X119009097Y-86829816D01*
X119024025Y-86697329D01*
X119024025Y-86697322D01*
X119003829Y-86518076D01*
X119003828Y-86518071D01*
X118948912Y-86361131D01*
X118944249Y-86347804D01*
X118848276Y-86195064D01*
X118720722Y-86067510D01*
X118646296Y-86020745D01*
X118567983Y-85971537D01*
X118397714Y-85911957D01*
X118397709Y-85911956D01*
X118218464Y-85891761D01*
X118218456Y-85891761D01*
X118039210Y-85911956D01*
X118039205Y-85911957D01*
X117868936Y-85971537D01*
X117716197Y-86067510D01*
X117588644Y-86195063D01*
X117588642Y-86195066D01*
X117513382Y-86314840D01*
X117461047Y-86361131D01*
X117391994Y-86371778D01*
X117328145Y-86343403D01*
X117303396Y-86314840D01*
X117229816Y-86197738D01*
X117102262Y-86070184D01*
X117098006Y-86067510D01*
X116949523Y-85974211D01*
X116779254Y-85914631D01*
X116779249Y-85914630D01*
X116600004Y-85894435D01*
X116599996Y-85894435D01*
X116420750Y-85914630D01*
X116420745Y-85914631D01*
X116250476Y-85974211D01*
X116097737Y-86070184D01*
X115970184Y-86197737D01*
X115874211Y-86350476D01*
X115814631Y-86520745D01*
X115814630Y-86520750D01*
X115794435Y-86699996D01*
X110981240Y-86699996D01*
X111075789Y-86549522D01*
X111135368Y-86379255D01*
X111135369Y-86379249D01*
X111155565Y-86200003D01*
X111155565Y-86199996D01*
X111135369Y-86020750D01*
X111135368Y-86020745D01*
X111112492Y-85955369D01*
X111075789Y-85850478D01*
X111074067Y-85847738D01*
X111036582Y-85788080D01*
X110979816Y-85697738D01*
X110852262Y-85570184D01*
X110843426Y-85564632D01*
X110699523Y-85474211D01*
X110529254Y-85414631D01*
X110529249Y-85414630D01*
X110350004Y-85394435D01*
X110349996Y-85394435D01*
X110170750Y-85414630D01*
X110170745Y-85414631D01*
X110000476Y-85474211D01*
X109847737Y-85570184D01*
X109720184Y-85697737D01*
X109624211Y-85850476D01*
X109564631Y-86020745D01*
X109564630Y-86020750D01*
X109544435Y-86199996D01*
X106088664Y-86199996D01*
X106085369Y-86170750D01*
X106085368Y-86170745D01*
X106050180Y-86070184D01*
X106025789Y-86000478D01*
X105997444Y-85955368D01*
X105970168Y-85911958D01*
X105929816Y-85847738D01*
X105802262Y-85720184D01*
X105786586Y-85710334D01*
X105649523Y-85624211D01*
X105479254Y-85564631D01*
X105479249Y-85564630D01*
X105300004Y-85544435D01*
X105299996Y-85544435D01*
X105120750Y-85564630D01*
X105120745Y-85564631D01*
X104950476Y-85624211D01*
X104877109Y-85670311D01*
X104809872Y-85689311D01*
X104743037Y-85668943D01*
X104697823Y-85615675D01*
X104688586Y-85546418D01*
X104694096Y-85524362D01*
X104755366Y-85349262D01*
X104755369Y-85349249D01*
X104775565Y-85170003D01*
X104775565Y-85169996D01*
X104755369Y-84990750D01*
X104755368Y-84990745D01*
X104700639Y-84834339D01*
X104695789Y-84820478D01*
X104599816Y-84667738D01*
X104472262Y-84540184D01*
X104362596Y-84471276D01*
X104319523Y-84444211D01*
X104149254Y-84384631D01*
X104149249Y-84384630D01*
X103970004Y-84364435D01*
X103969996Y-84364435D01*
X103790750Y-84384630D01*
X103790745Y-84384631D01*
X103620476Y-84444211D01*
X103467737Y-84540184D01*
X103340184Y-84667737D01*
X103244211Y-84820476D01*
X103184631Y-84990745D01*
X103184630Y-84990750D01*
X103164435Y-85169996D01*
X98112171Y-85169996D01*
X98112171Y-84249996D01*
X125144435Y-84249996D01*
X125144435Y-84250003D01*
X125164630Y-84429249D01*
X125164631Y-84429254D01*
X125224211Y-84599523D01*
X125267073Y-84667737D01*
X125320184Y-84752262D01*
X125447738Y-84879816D01*
X125600478Y-84975789D01*
X125770745Y-85035368D01*
X125770750Y-85035369D01*
X125949996Y-85055565D01*
X125950000Y-85055565D01*
X125950004Y-85055565D01*
X126129249Y-85035369D01*
X126129252Y-85035368D01*
X126129255Y-85035368D01*
X126299522Y-84975789D01*
X126452262Y-84879816D01*
X126579816Y-84752262D01*
X126675789Y-84599522D01*
X126735368Y-84429255D01*
X126741397Y-84375733D01*
X126768463Y-84311322D01*
X126826058Y-84271766D01*
X126850729Y-84266398D01*
X126904255Y-84260368D01*
X127074522Y-84200789D01*
X127227262Y-84104816D01*
X127354816Y-83977262D01*
X127450789Y-83824522D01*
X127510368Y-83654255D01*
X127510369Y-83654249D01*
X127530565Y-83475003D01*
X127530565Y-83474996D01*
X127527748Y-83449996D01*
X129744435Y-83449996D01*
X129744435Y-83450003D01*
X129764630Y-83629249D01*
X129764631Y-83629254D01*
X129824211Y-83799523D01*
X129887646Y-83900478D01*
X129920184Y-83952262D01*
X130047738Y-84079816D01*
X130119648Y-84125000D01*
X130194907Y-84172289D01*
X130200478Y-84175789D01*
X130255180Y-84194930D01*
X130370745Y-84235368D01*
X130370750Y-84235369D01*
X130549996Y-84255565D01*
X130550000Y-84255565D01*
X130550004Y-84255565D01*
X130729248Y-84235369D01*
X130729248Y-84235368D01*
X130729255Y-84235368D01*
X130774712Y-84219461D01*
X130844485Y-84215899D01*
X130905113Y-84250627D01*
X130937341Y-84312619D01*
X130938883Y-84322614D01*
X130939631Y-84329250D01*
X130939632Y-84329255D01*
X130959009Y-84384630D01*
X130999210Y-84499522D01*
X131046532Y-84574834D01*
X131065532Y-84642071D01*
X131064758Y-84654689D01*
X131048387Y-84799995D01*
X131048387Y-84800003D01*
X131068582Y-84979249D01*
X131068583Y-84979254D01*
X131128163Y-85149523D01*
X131224136Y-85302262D01*
X131351689Y-85429815D01*
X131351692Y-85429817D01*
X131373113Y-85443277D01*
X131419405Y-85495611D01*
X131430054Y-85564664D01*
X131401679Y-85628513D01*
X131343289Y-85666885D01*
X131293263Y-85671492D01*
X131275001Y-85669435D01*
X131274996Y-85669435D01*
X131095747Y-85689631D01*
X131003454Y-85721925D01*
X130933675Y-85725486D01*
X130921546Y-85721925D01*
X130829252Y-85689631D01*
X130650004Y-85669435D01*
X130649996Y-85669435D01*
X130470750Y-85689630D01*
X130470745Y-85689631D01*
X130300476Y-85749211D01*
X130147737Y-85845184D01*
X130020184Y-85972737D01*
X129924211Y-86125476D01*
X129864631Y-86295745D01*
X129864630Y-86295750D01*
X129844435Y-86474996D01*
X129844435Y-86475003D01*
X129864630Y-86654249D01*
X129864631Y-86654254D01*
X129924211Y-86824523D01*
X129987841Y-86925789D01*
X130020184Y-86977262D01*
X130147738Y-87104816D01*
X130238080Y-87161582D01*
X130298566Y-87199588D01*
X130300478Y-87200789D01*
X130470745Y-87260368D01*
X130470750Y-87260369D01*
X130649996Y-87280565D01*
X130650000Y-87280565D01*
X130650004Y-87280565D01*
X130829249Y-87260369D01*
X130829250Y-87260368D01*
X130829255Y-87260368D01*
X130921548Y-87228072D01*
X130991323Y-87224510D01*
X131003432Y-87228066D01*
X131095745Y-87260368D01*
X131095749Y-87260368D01*
X131095751Y-87260369D01*
X131095748Y-87260369D01*
X131274996Y-87280565D01*
X131275000Y-87280565D01*
X131275004Y-87280565D01*
X131454249Y-87260369D01*
X131454252Y-87260368D01*
X131454255Y-87260368D01*
X131624522Y-87200789D01*
X131777262Y-87104816D01*
X131904816Y-86977262D01*
X132000789Y-86824522D01*
X132060368Y-86654255D01*
X132060369Y-86654249D01*
X132080565Y-86475003D01*
X132080565Y-86474996D01*
X132060369Y-86295750D01*
X132060368Y-86295745D01*
X132026074Y-86197738D01*
X132000789Y-86125478D01*
X131904816Y-85972738D01*
X131777262Y-85845184D01*
X131755836Y-85831721D01*
X131709546Y-85779387D01*
X131698898Y-85710334D01*
X131727273Y-85646485D01*
X131785663Y-85608113D01*
X131835693Y-85603508D01*
X131853949Y-85605565D01*
X131853952Y-85605565D01*
X131853956Y-85605565D01*
X132033201Y-85585369D01*
X132033204Y-85585368D01*
X132033207Y-85585368D01*
X132203474Y-85525789D01*
X132356214Y-85429816D01*
X132483768Y-85302262D01*
X132579741Y-85149522D01*
X132639320Y-84979255D01*
X132639711Y-84975788D01*
X132659517Y-84800003D01*
X132659517Y-84799996D01*
X132639321Y-84620750D01*
X132639320Y-84620745D01*
X132579740Y-84450475D01*
X132532419Y-84375166D01*
X132513418Y-84307929D01*
X132514191Y-84295323D01*
X132530329Y-84152093D01*
X132530565Y-84150002D01*
X132530565Y-84149996D01*
X132510369Y-83970750D01*
X132510368Y-83970745D01*
X132508514Y-83965446D01*
X132490862Y-83915000D01*
X134959157Y-83915000D01*
X135770382Y-83915000D01*
X135719936Y-83965446D01*
X135677149Y-84039555D01*
X135655000Y-84122213D01*
X135655000Y-84207787D01*
X135677149Y-84290445D01*
X135719936Y-84364554D01*
X135770382Y-84415000D01*
X134959157Y-84415000D01*
X134970350Y-84471274D01*
X134970351Y-84471276D01*
X135049500Y-84662358D01*
X135049505Y-84662368D01*
X135164410Y-84834335D01*
X135164413Y-84834339D01*
X135310660Y-84980586D01*
X135310664Y-84980589D01*
X135482631Y-85095494D01*
X135482641Y-85095499D01*
X135673725Y-85174649D01*
X135673733Y-85174651D01*
X135876579Y-85214999D01*
X135876583Y-85215000D01*
X135930000Y-85215000D01*
X135930000Y-84488067D01*
X135937213Y-84490000D01*
X136422787Y-84490000D01*
X136430000Y-84488067D01*
X136430000Y-85215000D01*
X136483417Y-85215000D01*
X136483420Y-85214999D01*
X136686266Y-85174651D01*
X136686274Y-85174649D01*
X136877358Y-85095499D01*
X136877368Y-85095494D01*
X137049335Y-84980589D01*
X137049339Y-84980586D01*
X137195586Y-84834339D01*
X137195589Y-84834335D01*
X137310494Y-84662368D01*
X137310499Y-84662358D01*
X137389648Y-84471276D01*
X137389649Y-84471274D01*
X137400843Y-84415000D01*
X136589618Y-84415000D01*
X136640064Y-84364554D01*
X136682851Y-84290445D01*
X136700388Y-84224999D01*
X137854950Y-84224999D01*
X137854950Y-84225000D01*
X138685025Y-84225000D01*
X138649930Y-84260095D01*
X138603852Y-84339905D01*
X138580000Y-84428922D01*
X138580000Y-84521078D01*
X138603852Y-84610095D01*
X138649930Y-84689905D01*
X138685025Y-84725000D01*
X137854950Y-84725000D01*
X137858932Y-84750144D01*
X137916082Y-84926037D01*
X137916084Y-84926043D01*
X138000052Y-85090837D01*
X138108754Y-85240454D01*
X138108758Y-85240459D01*
X138239540Y-85371241D01*
X138239545Y-85371245D01*
X138389162Y-85479947D01*
X138553956Y-85563915D01*
X138553959Y-85563916D01*
X138729852Y-85621066D01*
X138912527Y-85650000D01*
X138930000Y-85650000D01*
X138930000Y-84825000D01*
X139430000Y-84825000D01*
X139430000Y-85650000D01*
X139447473Y-85650000D01*
X139630147Y-85621066D01*
X139806040Y-85563916D01*
X139806043Y-85563915D01*
X139970837Y-85479947D01*
X140120454Y-85371245D01*
X140120459Y-85371241D01*
X140251241Y-85240459D01*
X140251245Y-85240454D01*
X140359947Y-85090837D01*
X140443915Y-84926043D01*
X140443917Y-84926037D01*
X140501067Y-84750144D01*
X140505049Y-84725000D01*
X139674975Y-84725000D01*
X139710070Y-84689905D01*
X139756148Y-84610095D01*
X139780000Y-84521078D01*
X139780000Y-84428922D01*
X139756148Y-84339905D01*
X139710070Y-84260095D01*
X139674975Y-84225000D01*
X140505050Y-84225000D01*
X140505049Y-84224999D01*
X140501067Y-84199855D01*
X140443917Y-84023962D01*
X140443915Y-84023956D01*
X140359947Y-83859162D01*
X140251245Y-83709545D01*
X140251241Y-83709540D01*
X140120459Y-83578758D01*
X140120454Y-83578754D01*
X139970837Y-83470052D01*
X139806043Y-83386084D01*
X139806040Y-83386083D01*
X139630147Y-83328933D01*
X139447473Y-83300000D01*
X139430000Y-83300000D01*
X139430000Y-84125000D01*
X138930000Y-84125000D01*
X138930000Y-83300000D01*
X138912527Y-83300000D01*
X138729852Y-83328933D01*
X138553959Y-83386083D01*
X138553956Y-83386084D01*
X138389162Y-83470052D01*
X138239545Y-83578754D01*
X138239540Y-83578758D01*
X138108758Y-83709540D01*
X138108754Y-83709545D01*
X138000052Y-83859162D01*
X137916084Y-84023956D01*
X137916082Y-84023962D01*
X137858932Y-84199855D01*
X137854950Y-84224999D01*
X136700388Y-84224999D01*
X136705000Y-84207787D01*
X136705000Y-84122213D01*
X136682851Y-84039555D01*
X136640064Y-83965446D01*
X136589618Y-83915000D01*
X137400843Y-83915000D01*
X137389649Y-83858725D01*
X137389648Y-83858723D01*
X137310499Y-83667641D01*
X137310494Y-83667631D01*
X137195589Y-83495664D01*
X137195586Y-83495660D01*
X137049339Y-83349413D01*
X137049335Y-83349410D01*
X136877368Y-83234505D01*
X136877358Y-83234500D01*
X136686274Y-83155350D01*
X136686266Y-83155348D01*
X136483420Y-83115000D01*
X136430000Y-83115000D01*
X136430000Y-83841932D01*
X136422787Y-83840000D01*
X135937213Y-83840000D01*
X135930000Y-83841932D01*
X135930000Y-83115000D01*
X135876579Y-83115000D01*
X135673733Y-83155348D01*
X135673725Y-83155350D01*
X135482641Y-83234500D01*
X135482631Y-83234505D01*
X135310664Y-83349410D01*
X135310660Y-83349413D01*
X135164413Y-83495660D01*
X135164410Y-83495664D01*
X135049505Y-83667631D01*
X135049500Y-83667641D01*
X134970351Y-83858723D01*
X134970350Y-83858725D01*
X134959157Y-83915000D01*
X132490862Y-83915000D01*
X132450789Y-83800478D01*
X132450188Y-83799522D01*
X132367322Y-83667641D01*
X132354816Y-83647738D01*
X132227262Y-83520184D01*
X132074522Y-83424211D01*
X132047223Y-83414658D01*
X131990448Y-83373935D01*
X131964959Y-83311501D01*
X131960368Y-83270745D01*
X131900789Y-83100478D01*
X131804816Y-82947738D01*
X131677262Y-82820184D01*
X131524523Y-82724211D01*
X131354254Y-82664631D01*
X131354249Y-82664630D01*
X131175004Y-82644435D01*
X131174996Y-82644435D01*
X130995747Y-82664631D01*
X130903454Y-82696925D01*
X130833675Y-82700486D01*
X130821546Y-82696925D01*
X130729252Y-82664631D01*
X130550004Y-82644435D01*
X130549996Y-82644435D01*
X130370750Y-82664630D01*
X130370745Y-82664631D01*
X130200476Y-82724211D01*
X130047737Y-82820184D01*
X129920184Y-82947737D01*
X129824211Y-83100476D01*
X129764631Y-83270745D01*
X129764630Y-83270750D01*
X129744435Y-83449996D01*
X127527748Y-83449996D01*
X127510369Y-83295750D01*
X127510368Y-83295745D01*
X127472482Y-83187474D01*
X127450789Y-83125478D01*
X127435080Y-83100478D01*
X127411582Y-83063080D01*
X127354816Y-82972738D01*
X127227262Y-82845184D01*
X127187475Y-82820184D01*
X127074523Y-82749211D01*
X126904254Y-82689631D01*
X126904249Y-82689630D01*
X126725004Y-82669435D01*
X126724996Y-82669435D01*
X126545750Y-82689630D01*
X126545745Y-82689631D01*
X126375476Y-82749211D01*
X126222737Y-82845184D01*
X126095184Y-82972737D01*
X125999210Y-83125478D01*
X125939631Y-83295747D01*
X125939630Y-83295752D01*
X125933601Y-83349265D01*
X125906534Y-83413679D01*
X125848939Y-83453234D01*
X125824265Y-83458601D01*
X125770752Y-83464630D01*
X125770747Y-83464631D01*
X125600478Y-83524210D01*
X125447737Y-83620184D01*
X125320184Y-83747737D01*
X125224211Y-83900476D01*
X125164631Y-84070745D01*
X125164630Y-84070750D01*
X125144435Y-84249996D01*
X98112171Y-84249996D01*
X98112171Y-83366720D01*
X108286491Y-83366720D01*
X108286491Y-83366727D01*
X108306686Y-83545973D01*
X108306687Y-83545978D01*
X108366267Y-83716247D01*
X108434301Y-83824522D01*
X108462240Y-83868986D01*
X108589794Y-83996540D01*
X108742534Y-84092513D01*
X108827412Y-84122213D01*
X108912801Y-84152092D01*
X108912806Y-84152093D01*
X109092052Y-84172289D01*
X109092056Y-84172289D01*
X109092060Y-84172289D01*
X109271305Y-84152093D01*
X109271308Y-84152092D01*
X109271311Y-84152092D01*
X109441578Y-84092513D01*
X109594318Y-83996540D01*
X109721872Y-83868986D01*
X109817845Y-83716246D01*
X109877424Y-83545979D01*
X109879877Y-83524210D01*
X109897621Y-83366727D01*
X109897621Y-83366720D01*
X109877425Y-83187474D01*
X109877424Y-83187469D01*
X109852066Y-83115000D01*
X109817845Y-83017202D01*
X109721872Y-82864462D01*
X109594318Y-82736908D01*
X109536353Y-82700486D01*
X109441579Y-82640935D01*
X109271310Y-82581355D01*
X109271305Y-82581354D01*
X109092060Y-82561159D01*
X109092052Y-82561159D01*
X108912806Y-82581354D01*
X108912801Y-82581355D01*
X108742532Y-82640935D01*
X108589793Y-82736908D01*
X108462240Y-82864461D01*
X108366267Y-83017200D01*
X108306687Y-83187469D01*
X108306686Y-83187474D01*
X108286491Y-83366720D01*
X98112171Y-83366720D01*
X98112171Y-80674996D01*
X115119435Y-80674996D01*
X115119435Y-80675003D01*
X115139630Y-80854249D01*
X115139631Y-80854254D01*
X115199211Y-81024523D01*
X115295184Y-81177262D01*
X115422738Y-81304816D01*
X115575478Y-81400789D01*
X115745745Y-81460368D01*
X115745750Y-81460369D01*
X115924996Y-81480565D01*
X115925000Y-81480565D01*
X115925004Y-81480565D01*
X116104249Y-81460369D01*
X116104252Y-81460368D01*
X116104255Y-81460368D01*
X116274522Y-81400789D01*
X116427262Y-81304816D01*
X116554816Y-81177262D01*
X116650789Y-81024522D01*
X116710368Y-80854255D01*
X116730565Y-80675000D01*
X116710368Y-80495745D01*
X116650789Y-80325478D01*
X116554816Y-80172738D01*
X116427262Y-80045184D01*
X116346343Y-79994339D01*
X116274523Y-79949211D01*
X116104254Y-79889631D01*
X116104249Y-79889630D01*
X115925004Y-79869435D01*
X115924996Y-79869435D01*
X115745750Y-79889630D01*
X115745745Y-79889631D01*
X115575476Y-79949211D01*
X115422737Y-80045184D01*
X115295184Y-80172737D01*
X115199211Y-80325476D01*
X115139631Y-80495745D01*
X115139630Y-80495750D01*
X115119435Y-80674996D01*
X98112171Y-80674996D01*
X98112171Y-78849996D01*
X107119435Y-78849996D01*
X107119435Y-78850003D01*
X107139630Y-79029249D01*
X107139631Y-79029254D01*
X107199211Y-79199523D01*
X107259248Y-79295070D01*
X107295184Y-79352262D01*
X107422738Y-79479816D01*
X107575478Y-79575789D01*
X107724263Y-79627851D01*
X107745745Y-79635368D01*
X107745750Y-79635369D01*
X107924996Y-79655565D01*
X107925000Y-79655565D01*
X107925004Y-79655565D01*
X108104249Y-79635369D01*
X108104252Y-79635368D01*
X108104255Y-79635368D01*
X108274522Y-79575789D01*
X108427262Y-79479816D01*
X108554816Y-79352262D01*
X108650789Y-79199522D01*
X108710368Y-79029255D01*
X108711169Y-79022149D01*
X108730565Y-78850003D01*
X108730565Y-78849996D01*
X108710369Y-78670750D01*
X108710368Y-78670745D01*
X108650788Y-78500476D01*
X108584202Y-78394505D01*
X108554816Y-78347738D01*
X108427262Y-78220184D01*
X108394379Y-78199522D01*
X108274523Y-78124211D01*
X108104254Y-78064631D01*
X108104249Y-78064630D01*
X107925004Y-78044435D01*
X107924996Y-78044435D01*
X107745750Y-78064630D01*
X107745745Y-78064631D01*
X107575476Y-78124211D01*
X107422737Y-78220184D01*
X107295184Y-78347737D01*
X107199211Y-78500476D01*
X107139631Y-78670745D01*
X107139630Y-78670750D01*
X107119435Y-78849996D01*
X98112171Y-78849996D01*
X98112171Y-77726179D01*
X98131856Y-77659140D01*
X98184660Y-77613385D01*
X98236155Y-77602179D01*
X113701495Y-77600500D01*
X113787532Y-77600500D01*
X113959938Y-77570101D01*
X114124445Y-77510225D01*
X114276055Y-77422692D01*
X114410163Y-77310163D01*
X114522692Y-77176055D01*
X114610225Y-77024445D01*
X114670101Y-76859938D01*
X114700500Y-76687532D01*
X114700500Y-76600000D01*
X114700500Y-76534108D01*
X114700500Y-74760576D01*
X114720185Y-74693537D01*
X114772989Y-74647782D01*
X114838383Y-74637356D01*
X114999996Y-74655565D01*
X115000000Y-74655565D01*
X115000001Y-74655565D01*
X115008725Y-74654581D01*
X115056523Y-74649196D01*
X115125343Y-74661250D01*
X115176723Y-74708598D01*
X115184967Y-74724963D01*
X115229223Y-74831808D01*
X115229228Y-74831817D01*
X115305885Y-74946541D01*
X115305888Y-74946545D01*
X115403454Y-75044111D01*
X115403458Y-75044114D01*
X115518182Y-75120771D01*
X115518195Y-75120778D01*
X115625443Y-75165201D01*
X115645672Y-75173580D01*
X115645676Y-75173580D01*
X115645677Y-75173581D01*
X115781004Y-75200500D01*
X115781007Y-75200500D01*
X115918995Y-75200500D01*
X116010041Y-75182389D01*
X116054328Y-75173580D01*
X116181811Y-75120775D01*
X116296542Y-75044114D01*
X116394114Y-74946542D01*
X116470775Y-74831811D01*
X116523580Y-74704328D01*
X116540206Y-74620744D01*
X116550500Y-74568995D01*
X117149499Y-74568995D01*
X117176418Y-74704322D01*
X117176421Y-74704332D01*
X117229221Y-74831804D01*
X117229228Y-74831817D01*
X117305885Y-74946541D01*
X117305888Y-74946545D01*
X117403454Y-75044111D01*
X117403458Y-75044114D01*
X117518182Y-75120771D01*
X117518195Y-75120778D01*
X117625443Y-75165201D01*
X117645672Y-75173580D01*
X117645676Y-75173580D01*
X117645677Y-75173581D01*
X117781004Y-75200500D01*
X117781007Y-75200500D01*
X117918995Y-75200500D01*
X118010041Y-75182389D01*
X118054328Y-75173580D01*
X118181811Y-75120775D01*
X118296542Y-75044114D01*
X118394114Y-74946542D01*
X118470775Y-74831811D01*
X118523580Y-74704328D01*
X118540206Y-74620744D01*
X118550500Y-74568995D01*
X119149499Y-74568995D01*
X119176418Y-74704322D01*
X119176421Y-74704332D01*
X119229221Y-74831804D01*
X119229228Y-74831817D01*
X119305885Y-74946541D01*
X119305888Y-74946545D01*
X119403454Y-75044111D01*
X119403458Y-75044114D01*
X119518182Y-75120771D01*
X119518195Y-75120778D01*
X119625443Y-75165201D01*
X119645672Y-75173580D01*
X119645676Y-75173580D01*
X119645677Y-75173581D01*
X119781004Y-75200500D01*
X119781007Y-75200500D01*
X119918995Y-75200500D01*
X120010041Y-75182389D01*
X120054328Y-75173580D01*
X120181811Y-75120775D01*
X120296542Y-75044114D01*
X120394114Y-74946542D01*
X120470775Y-74831811D01*
X120523580Y-74704328D01*
X120540206Y-74620744D01*
X120550500Y-74568995D01*
X121149499Y-74568995D01*
X121176418Y-74704322D01*
X121176421Y-74704332D01*
X121229221Y-74831804D01*
X121229228Y-74831817D01*
X121305885Y-74946541D01*
X121305888Y-74946545D01*
X121403454Y-75044111D01*
X121403458Y-75044114D01*
X121518182Y-75120771D01*
X121518195Y-75120778D01*
X121625443Y-75165201D01*
X121645672Y-75173580D01*
X121697857Y-75183960D01*
X121783070Y-75200911D01*
X121844981Y-75233296D01*
X121879556Y-75294012D01*
X121875920Y-75363483D01*
X121864633Y-75395737D01*
X121864630Y-75395750D01*
X121844435Y-75574996D01*
X121844435Y-75575003D01*
X121864630Y-75754249D01*
X121864632Y-75754257D01*
X121910047Y-75884046D01*
X121913608Y-75953825D01*
X121910047Y-75965954D01*
X121864632Y-76095742D01*
X121864630Y-76095750D01*
X121844435Y-76274996D01*
X121844435Y-76275003D01*
X121864630Y-76454249D01*
X121864632Y-76454257D01*
X121910047Y-76584046D01*
X121913608Y-76653825D01*
X121910047Y-76665954D01*
X121864632Y-76795742D01*
X121864630Y-76795750D01*
X121844435Y-76974996D01*
X121844435Y-76975003D01*
X121864631Y-77154252D01*
X121905673Y-77271546D01*
X121909234Y-77341325D01*
X121905673Y-77353454D01*
X121864631Y-77470747D01*
X121844435Y-77649996D01*
X121844435Y-77650003D01*
X121864630Y-77829249D01*
X121864631Y-77829254D01*
X121924211Y-77999523D01*
X121999132Y-78118758D01*
X122020184Y-78152262D01*
X122147738Y-78279816D01*
X122204287Y-78315348D01*
X122255833Y-78347737D01*
X122300478Y-78375789D01*
X122391769Y-78407733D01*
X122470745Y-78435368D01*
X122470750Y-78435369D01*
X122649996Y-78455565D01*
X122650000Y-78455565D01*
X122650004Y-78455565D01*
X122829249Y-78435369D01*
X122829251Y-78435368D01*
X122829255Y-78435368D01*
X122829258Y-78435366D01*
X122829262Y-78435366D01*
X122908233Y-78407733D01*
X122978012Y-78404171D01*
X123038639Y-78438899D01*
X123066228Y-78483817D01*
X123075184Y-78509410D01*
X123124210Y-78649521D01*
X123162650Y-78710698D01*
X123220184Y-78802262D01*
X123347738Y-78929816D01*
X123409975Y-78968922D01*
X123489235Y-79018725D01*
X123500478Y-79025789D01*
X123612354Y-79064936D01*
X123670745Y-79085368D01*
X123670750Y-79085369D01*
X123849996Y-79105565D01*
X123850000Y-79105565D01*
X123850004Y-79105565D01*
X124029249Y-79085369D01*
X124029252Y-79085368D01*
X124029255Y-79085368D01*
X124058885Y-79075000D01*
X134959157Y-79075000D01*
X135770382Y-79075000D01*
X135719936Y-79125446D01*
X135677149Y-79199555D01*
X135655000Y-79282213D01*
X135655000Y-79367787D01*
X135677149Y-79450445D01*
X135719936Y-79524554D01*
X135770382Y-79575000D01*
X134959157Y-79575000D01*
X134970350Y-79631274D01*
X134970351Y-79631276D01*
X135049500Y-79822358D01*
X135049505Y-79822368D01*
X135164410Y-79994335D01*
X135164413Y-79994339D01*
X135310660Y-80140586D01*
X135310664Y-80140589D01*
X135482631Y-80255494D01*
X135482641Y-80255499D01*
X135673725Y-80334649D01*
X135673733Y-80334651D01*
X135876579Y-80374999D01*
X135876583Y-80375000D01*
X135930000Y-80375000D01*
X135930000Y-79648067D01*
X135937213Y-79650000D01*
X136422787Y-79650000D01*
X136430000Y-79648067D01*
X136430000Y-80375000D01*
X136483417Y-80375000D01*
X136483420Y-80374999D01*
X136686266Y-80334651D01*
X136686274Y-80334649D01*
X136877358Y-80255499D01*
X136877368Y-80255494D01*
X137049335Y-80140589D01*
X137049339Y-80140586D01*
X137195586Y-79994339D01*
X137195589Y-79994335D01*
X137310494Y-79822368D01*
X137310499Y-79822358D01*
X137389648Y-79631276D01*
X137389649Y-79631274D01*
X137400843Y-79575000D01*
X136589618Y-79575000D01*
X136640064Y-79524554D01*
X136682851Y-79450445D01*
X136705000Y-79367787D01*
X136705000Y-79282213D01*
X136682851Y-79199555D01*
X136640064Y-79125446D01*
X136589618Y-79075000D01*
X137400843Y-79075000D01*
X137389649Y-79018725D01*
X137389648Y-79018723D01*
X137310499Y-78827641D01*
X137310494Y-78827631D01*
X137195589Y-78655664D01*
X137195586Y-78655660D01*
X137049339Y-78509413D01*
X137049335Y-78509410D01*
X136877368Y-78394505D01*
X136877358Y-78394500D01*
X136686274Y-78315350D01*
X136686266Y-78315348D01*
X136483420Y-78275000D01*
X136430000Y-78275000D01*
X136430000Y-79001932D01*
X136422787Y-79000000D01*
X135937213Y-79000000D01*
X135930000Y-79001932D01*
X135930000Y-78275000D01*
X135876579Y-78275000D01*
X135673733Y-78315348D01*
X135673725Y-78315350D01*
X135482641Y-78394500D01*
X135482631Y-78394505D01*
X135310664Y-78509410D01*
X135310660Y-78509413D01*
X135164413Y-78655660D01*
X135164410Y-78655664D01*
X135049505Y-78827631D01*
X135049500Y-78827641D01*
X134970351Y-79018723D01*
X134970350Y-79018725D01*
X134959157Y-79075000D01*
X124058885Y-79075000D01*
X124199522Y-79025789D01*
X124352262Y-78929816D01*
X124479816Y-78802262D01*
X124537352Y-78710692D01*
X124589681Y-78664407D01*
X124656226Y-78653449D01*
X124675000Y-78655565D01*
X124795351Y-78642004D01*
X124854249Y-78635369D01*
X124854252Y-78635368D01*
X124854255Y-78635368D01*
X125024522Y-78575789D01*
X125177262Y-78479816D01*
X125304816Y-78352262D01*
X125400789Y-78199522D01*
X125460368Y-78029255D01*
X125463718Y-77999522D01*
X125480565Y-77850003D01*
X125480565Y-77849996D01*
X125460369Y-77670750D01*
X125460368Y-77670748D01*
X125460368Y-77670745D01*
X125428072Y-77578451D01*
X125424510Y-77508677D01*
X125428066Y-77496567D01*
X125460368Y-77404255D01*
X125466092Y-77353454D01*
X125480565Y-77225003D01*
X125480565Y-77224996D01*
X125460369Y-77045750D01*
X125460368Y-77045746D01*
X125460368Y-77045745D01*
X125432446Y-76965951D01*
X125428884Y-76896177D01*
X125432440Y-76884066D01*
X125460368Y-76804255D01*
X125460369Y-76804249D01*
X125480565Y-76625003D01*
X125480565Y-76624996D01*
X125460369Y-76445753D01*
X125460368Y-76445749D01*
X125460368Y-76445745D01*
X125444946Y-76401673D01*
X125441384Y-76331900D01*
X125444940Y-76319789D01*
X125485368Y-76204255D01*
X125485369Y-76204249D01*
X125505565Y-76025003D01*
X125505565Y-76024996D01*
X125485369Y-75845750D01*
X125485368Y-75845746D01*
X125485368Y-75845745D01*
X125457446Y-75765951D01*
X125453884Y-75696177D01*
X125457440Y-75684066D01*
X125485368Y-75604255D01*
X125488664Y-75575003D01*
X125505565Y-75425003D01*
X125505565Y-75424997D01*
X125492372Y-75307910D01*
X125504426Y-75239088D01*
X125551775Y-75187709D01*
X125619385Y-75170084D01*
X125639784Y-75172409D01*
X125781004Y-75200500D01*
X125781007Y-75200500D01*
X125918995Y-75200500D01*
X126010041Y-75182389D01*
X126054328Y-75173580D01*
X126181811Y-75120775D01*
X126296542Y-75044114D01*
X126394114Y-74946542D01*
X126470775Y-74831811D01*
X126523580Y-74704328D01*
X126540206Y-74620744D01*
X126550500Y-74568995D01*
X126550500Y-74431004D01*
X126523581Y-74295677D01*
X126523580Y-74295676D01*
X126523580Y-74295672D01*
X126523578Y-74295667D01*
X126470778Y-74168195D01*
X126470771Y-74168182D01*
X126394114Y-74053458D01*
X126394111Y-74053454D01*
X126296545Y-73955888D01*
X126296541Y-73955885D01*
X126181817Y-73879228D01*
X126181804Y-73879221D01*
X126054332Y-73826421D01*
X126054322Y-73826418D01*
X125918995Y-73799500D01*
X125918993Y-73799500D01*
X125781007Y-73799500D01*
X125781005Y-73799500D01*
X125645677Y-73826418D01*
X125645667Y-73826421D01*
X125518195Y-73879221D01*
X125518182Y-73879228D01*
X125403458Y-73955885D01*
X125403454Y-73955888D01*
X125305888Y-74053454D01*
X125305885Y-74053458D01*
X125229228Y-74168182D01*
X125229221Y-74168195D01*
X125176421Y-74295667D01*
X125176418Y-74295677D01*
X125149500Y-74431004D01*
X125149500Y-74559432D01*
X125129815Y-74626471D01*
X125077011Y-74672226D01*
X125007853Y-74682170D01*
X124984546Y-74676474D01*
X124879257Y-74639632D01*
X124879249Y-74639630D01*
X124700004Y-74619435D01*
X124700001Y-74619435D01*
X124700000Y-74619435D01*
X124696252Y-74619857D01*
X124688380Y-74620744D01*
X124619559Y-74608687D01*
X124568181Y-74561337D01*
X124550500Y-74497523D01*
X124550500Y-74431004D01*
X124523581Y-74295677D01*
X124523580Y-74295676D01*
X124523580Y-74295672D01*
X124523578Y-74295667D01*
X124470778Y-74168195D01*
X124470771Y-74168182D01*
X124394114Y-74053458D01*
X124394111Y-74053454D01*
X124296545Y-73955888D01*
X124296541Y-73955885D01*
X124181817Y-73879228D01*
X124181804Y-73879221D01*
X124054332Y-73826421D01*
X124054322Y-73826418D01*
X123918995Y-73799500D01*
X123918993Y-73799500D01*
X123781007Y-73799500D01*
X123781005Y-73799500D01*
X123645677Y-73826418D01*
X123645667Y-73826421D01*
X123518195Y-73879221D01*
X123518182Y-73879228D01*
X123403458Y-73955885D01*
X123403454Y-73955888D01*
X123305888Y-74053454D01*
X123305885Y-74053458D01*
X123229228Y-74168182D01*
X123229221Y-74168195D01*
X123176421Y-74295667D01*
X123176418Y-74295677D01*
X123149500Y-74431004D01*
X123149500Y-74431007D01*
X123149500Y-74568993D01*
X123149500Y-74568995D01*
X123149499Y-74568995D01*
X123177608Y-74710302D01*
X123176238Y-74710574D01*
X123176791Y-74773393D01*
X123139535Y-74832502D01*
X123076238Y-74862085D01*
X123006994Y-74852750D01*
X123003707Y-74851226D01*
X122999525Y-74849212D01*
X122829254Y-74789631D01*
X122829250Y-74789630D01*
X122647735Y-74769179D01*
X122583321Y-74742112D01*
X122543766Y-74684518D01*
X122540002Y-74621768D01*
X122550500Y-74568993D01*
X122550500Y-74431007D01*
X122550500Y-74431004D01*
X122523581Y-74295677D01*
X122523580Y-74295676D01*
X122523580Y-74295672D01*
X122523578Y-74295667D01*
X122470778Y-74168195D01*
X122470771Y-74168182D01*
X122394114Y-74053458D01*
X122394111Y-74053454D01*
X122296545Y-73955888D01*
X122296541Y-73955885D01*
X122181817Y-73879228D01*
X122181804Y-73879221D01*
X122054332Y-73826421D01*
X122054322Y-73826418D01*
X121918995Y-73799500D01*
X121918993Y-73799500D01*
X121781007Y-73799500D01*
X121781005Y-73799500D01*
X121645677Y-73826418D01*
X121645667Y-73826421D01*
X121518195Y-73879221D01*
X121518182Y-73879228D01*
X121403458Y-73955885D01*
X121403454Y-73955888D01*
X121305888Y-74053454D01*
X121305885Y-74053458D01*
X121229228Y-74168182D01*
X121229221Y-74168195D01*
X121176421Y-74295667D01*
X121176418Y-74295677D01*
X121149500Y-74431004D01*
X121149500Y-74431007D01*
X121149500Y-74568993D01*
X121149500Y-74568995D01*
X121149499Y-74568995D01*
X120550500Y-74568995D01*
X120550500Y-74431004D01*
X120523581Y-74295677D01*
X120523580Y-74295676D01*
X120523580Y-74295672D01*
X120523578Y-74295667D01*
X120470778Y-74168195D01*
X120470771Y-74168182D01*
X120394114Y-74053458D01*
X120394111Y-74053454D01*
X120296545Y-73955888D01*
X120296541Y-73955885D01*
X120181817Y-73879228D01*
X120181804Y-73879221D01*
X120054332Y-73826421D01*
X120054322Y-73826418D01*
X119918995Y-73799500D01*
X119918993Y-73799500D01*
X119781007Y-73799500D01*
X119781005Y-73799500D01*
X119645677Y-73826418D01*
X119645667Y-73826421D01*
X119518195Y-73879221D01*
X119518182Y-73879228D01*
X119403458Y-73955885D01*
X119403454Y-73955888D01*
X119305888Y-74053454D01*
X119305885Y-74053458D01*
X119229228Y-74168182D01*
X119229221Y-74168195D01*
X119176421Y-74295667D01*
X119176418Y-74295677D01*
X119149500Y-74431004D01*
X119149500Y-74431007D01*
X119149500Y-74568993D01*
X119149500Y-74568995D01*
X119149499Y-74568995D01*
X118550500Y-74568995D01*
X118550500Y-74431004D01*
X118523581Y-74295677D01*
X118523580Y-74295676D01*
X118523580Y-74295672D01*
X118523578Y-74295667D01*
X118470778Y-74168195D01*
X118470771Y-74168182D01*
X118394114Y-74053458D01*
X118394111Y-74053454D01*
X118296545Y-73955888D01*
X118296541Y-73955885D01*
X118181817Y-73879228D01*
X118181804Y-73879221D01*
X118054332Y-73826421D01*
X118054322Y-73826418D01*
X117918995Y-73799500D01*
X117918993Y-73799500D01*
X117781007Y-73799500D01*
X117781005Y-73799500D01*
X117645677Y-73826418D01*
X117645667Y-73826421D01*
X117518195Y-73879221D01*
X117518182Y-73879228D01*
X117403458Y-73955885D01*
X117403454Y-73955888D01*
X117305888Y-74053454D01*
X117305885Y-74053458D01*
X117229228Y-74168182D01*
X117229221Y-74168195D01*
X117176421Y-74295667D01*
X117176418Y-74295677D01*
X117149500Y-74431004D01*
X117149500Y-74431007D01*
X117149500Y-74568993D01*
X117149500Y-74568995D01*
X117149499Y-74568995D01*
X116550500Y-74568995D01*
X116550500Y-74431004D01*
X116523581Y-74295677D01*
X116523580Y-74295676D01*
X116523580Y-74295672D01*
X116523578Y-74295667D01*
X116470778Y-74168195D01*
X116470771Y-74168182D01*
X116394114Y-74053458D01*
X116394111Y-74053454D01*
X116296545Y-73955888D01*
X116296541Y-73955885D01*
X116181817Y-73879228D01*
X116181804Y-73879221D01*
X116054332Y-73826421D01*
X116054322Y-73826418D01*
X115918995Y-73799500D01*
X115918993Y-73799500D01*
X115910689Y-73799500D01*
X115843650Y-73779815D01*
X115797895Y-73727011D01*
X115787469Y-73689385D01*
X115785369Y-73670749D01*
X115785368Y-73670745D01*
X115725787Y-73500473D01*
X115655649Y-73388850D01*
X115636648Y-73321614D01*
X115657015Y-73254779D01*
X115710283Y-73209564D01*
X115774838Y-73200952D01*
X115774942Y-73199903D01*
X115779410Y-73200343D01*
X115779539Y-73200326D01*
X115779918Y-73200393D01*
X115781005Y-73200500D01*
X115781007Y-73200500D01*
X115918995Y-73200500D01*
X116010041Y-73182389D01*
X116054328Y-73173580D01*
X116181811Y-73120775D01*
X116296542Y-73044114D01*
X116394114Y-72946542D01*
X116470775Y-72831811D01*
X116503661Y-72752414D01*
X116547501Y-72698013D01*
X116613795Y-72675947D01*
X116632105Y-72676647D01*
X116659311Y-72679713D01*
X116799997Y-72695565D01*
X116800000Y-72695565D01*
X116800004Y-72695565D01*
X116979249Y-72675369D01*
X116979250Y-72675368D01*
X116979255Y-72675368D01*
X117030330Y-72657495D01*
X117100107Y-72653933D01*
X117160735Y-72688661D01*
X117185846Y-72727085D01*
X117229221Y-72831804D01*
X117229228Y-72831817D01*
X117305885Y-72946541D01*
X117305888Y-72946545D01*
X117403454Y-73044111D01*
X117403458Y-73044114D01*
X117518182Y-73120771D01*
X117518195Y-73120778D01*
X117645667Y-73173578D01*
X117645672Y-73173580D01*
X117645676Y-73173580D01*
X117645677Y-73173581D01*
X117781004Y-73200500D01*
X117781007Y-73200500D01*
X117918995Y-73200500D01*
X118010041Y-73182389D01*
X118054328Y-73173580D01*
X118181811Y-73120775D01*
X118296542Y-73044114D01*
X118394114Y-72946542D01*
X118470775Y-72831811D01*
X118523580Y-72704328D01*
X118541192Y-72615789D01*
X118550500Y-72568995D01*
X118550500Y-72431004D01*
X118523581Y-72295677D01*
X118523580Y-72295676D01*
X118523580Y-72295672D01*
X118511831Y-72267308D01*
X118470778Y-72168195D01*
X118470774Y-72168188D01*
X118457724Y-72148657D01*
X118421543Y-72094508D01*
X118400666Y-72027833D01*
X118419150Y-71960453D01*
X118471129Y-71913762D01*
X118540098Y-71902586D01*
X118565601Y-71908578D01*
X118670735Y-71945366D01*
X118670741Y-71945367D01*
X118670743Y-71945368D01*
X118670744Y-71945368D01*
X118670748Y-71945369D01*
X118849994Y-71965565D01*
X118849998Y-71965565D01*
X118850002Y-71965565D01*
X119029247Y-71945369D01*
X119029249Y-71945368D01*
X119029253Y-71945368D01*
X119029256Y-71945366D01*
X119029260Y-71945366D01*
X119134399Y-71908576D01*
X119204177Y-71905013D01*
X119264805Y-71939742D01*
X119297033Y-72001735D01*
X119290628Y-72071311D01*
X119278456Y-72094507D01*
X119229231Y-72168177D01*
X119229221Y-72168195D01*
X119176421Y-72295667D01*
X119176418Y-72295677D01*
X119149500Y-72431004D01*
X119149500Y-72431005D01*
X119149500Y-72431007D01*
X119149500Y-72568993D01*
X119149500Y-72568995D01*
X119149499Y-72568995D01*
X119176418Y-72704322D01*
X119176421Y-72704332D01*
X119229221Y-72831804D01*
X119229228Y-72831817D01*
X119305885Y-72946541D01*
X119305888Y-72946545D01*
X119403454Y-73044111D01*
X119403458Y-73044114D01*
X119518182Y-73120771D01*
X119518195Y-73120778D01*
X119645667Y-73173578D01*
X119645672Y-73173580D01*
X119645676Y-73173580D01*
X119645677Y-73173581D01*
X119781004Y-73200500D01*
X119781007Y-73200500D01*
X119918995Y-73200500D01*
X120010041Y-73182389D01*
X120054328Y-73173580D01*
X120181811Y-73120775D01*
X120296542Y-73044114D01*
X120394114Y-72946542D01*
X120470775Y-72831811D01*
X120523580Y-72704328D01*
X120541192Y-72615789D01*
X120550500Y-72568995D01*
X120550500Y-72424915D01*
X120551852Y-72424915D01*
X120563579Y-72363048D01*
X120611639Y-72312333D01*
X120679489Y-72295652D01*
X120687842Y-72296308D01*
X120737375Y-72301889D01*
X120769998Y-72305565D01*
X120770000Y-72305565D01*
X120770004Y-72305565D01*
X120949249Y-72285369D01*
X120949251Y-72285368D01*
X120949255Y-72285368D01*
X120949258Y-72285366D01*
X120949262Y-72285366D01*
X120990687Y-72270871D01*
X121060465Y-72267308D01*
X121121093Y-72302037D01*
X121153321Y-72364030D01*
X121153260Y-72412101D01*
X121149500Y-72431005D01*
X121149500Y-72431007D01*
X121149500Y-72568993D01*
X121149500Y-72568995D01*
X121149499Y-72568995D01*
X121176418Y-72704322D01*
X121176421Y-72704332D01*
X121229221Y-72831804D01*
X121229228Y-72831817D01*
X121305885Y-72946541D01*
X121305888Y-72946545D01*
X121403454Y-73044111D01*
X121403458Y-73044114D01*
X121518182Y-73120771D01*
X121518195Y-73120778D01*
X121645667Y-73173578D01*
X121645672Y-73173580D01*
X121645676Y-73173580D01*
X121645677Y-73173581D01*
X121781004Y-73200500D01*
X121781007Y-73200500D01*
X121918995Y-73200500D01*
X122010041Y-73182389D01*
X122054328Y-73173580D01*
X122181811Y-73120775D01*
X122296542Y-73044114D01*
X122394114Y-72946542D01*
X122470775Y-72831811D01*
X122523580Y-72704328D01*
X122541192Y-72615789D01*
X122550500Y-72568995D01*
X123149499Y-72568995D01*
X123176418Y-72704322D01*
X123176421Y-72704332D01*
X123229221Y-72831804D01*
X123229228Y-72831817D01*
X123305885Y-72946541D01*
X123305888Y-72946545D01*
X123403454Y-73044111D01*
X123403458Y-73044114D01*
X123518182Y-73120771D01*
X123518195Y-73120778D01*
X123645667Y-73173578D01*
X123645672Y-73173580D01*
X123645676Y-73173580D01*
X123645677Y-73173581D01*
X123781004Y-73200500D01*
X123781007Y-73200500D01*
X123918995Y-73200500D01*
X124010041Y-73182389D01*
X124054328Y-73173580D01*
X124181811Y-73120775D01*
X124296542Y-73044114D01*
X124394114Y-72946542D01*
X124470775Y-72831811D01*
X124523580Y-72704328D01*
X124541192Y-72615789D01*
X124550500Y-72568995D01*
X125149499Y-72568995D01*
X125176418Y-72704322D01*
X125176421Y-72704332D01*
X125229221Y-72831804D01*
X125229228Y-72831817D01*
X125305885Y-72946541D01*
X125305888Y-72946545D01*
X125403454Y-73044111D01*
X125403458Y-73044114D01*
X125518182Y-73120771D01*
X125518195Y-73120778D01*
X125645667Y-73173578D01*
X125645672Y-73173580D01*
X125645676Y-73173580D01*
X125645677Y-73173581D01*
X125781004Y-73200500D01*
X125781007Y-73200500D01*
X125918995Y-73200500D01*
X126010041Y-73182389D01*
X126054328Y-73173580D01*
X126181811Y-73120775D01*
X126296542Y-73044114D01*
X126394114Y-72946542D01*
X126470775Y-72831811D01*
X126523580Y-72704328D01*
X126541192Y-72615789D01*
X126550500Y-72568995D01*
X126550500Y-72431004D01*
X126523581Y-72295677D01*
X126523580Y-72295676D01*
X126523580Y-72295672D01*
X126511831Y-72267308D01*
X126470778Y-72168195D01*
X126470771Y-72168182D01*
X126394114Y-72053458D01*
X126394111Y-72053454D01*
X126296545Y-71955888D01*
X126296541Y-71955885D01*
X126181817Y-71879228D01*
X126181804Y-71879221D01*
X126054332Y-71826421D01*
X126054322Y-71826418D01*
X125918995Y-71799500D01*
X125918993Y-71799500D01*
X125781007Y-71799500D01*
X125781005Y-71799500D01*
X125645677Y-71826418D01*
X125645667Y-71826421D01*
X125518195Y-71879221D01*
X125518182Y-71879228D01*
X125403458Y-71955885D01*
X125403454Y-71955888D01*
X125305888Y-72053454D01*
X125305885Y-72053458D01*
X125229228Y-72168182D01*
X125229221Y-72168195D01*
X125176421Y-72295667D01*
X125176418Y-72295677D01*
X125149500Y-72431004D01*
X125149500Y-72431005D01*
X125149500Y-72431007D01*
X125149500Y-72568993D01*
X125149500Y-72568995D01*
X125149499Y-72568995D01*
X124550500Y-72568995D01*
X124550500Y-72431004D01*
X124523581Y-72295677D01*
X124523580Y-72295676D01*
X124523580Y-72295672D01*
X124511831Y-72267308D01*
X124470778Y-72168195D01*
X124470771Y-72168182D01*
X124394114Y-72053458D01*
X124394111Y-72053454D01*
X124296545Y-71955888D01*
X124296541Y-71955885D01*
X124181817Y-71879228D01*
X124181804Y-71879221D01*
X124054332Y-71826421D01*
X124054322Y-71826418D01*
X123918995Y-71799500D01*
X123918993Y-71799500D01*
X123781007Y-71799500D01*
X123781005Y-71799500D01*
X123645677Y-71826418D01*
X123645667Y-71826421D01*
X123518195Y-71879221D01*
X123518182Y-71879228D01*
X123403458Y-71955885D01*
X123403454Y-71955888D01*
X123305888Y-72053454D01*
X123305885Y-72053458D01*
X123229228Y-72168182D01*
X123229221Y-72168195D01*
X123176421Y-72295667D01*
X123176418Y-72295677D01*
X123149500Y-72431004D01*
X123149500Y-72431005D01*
X123149500Y-72431007D01*
X123149500Y-72568993D01*
X123149500Y-72568995D01*
X123149499Y-72568995D01*
X122550500Y-72568995D01*
X122550500Y-72431004D01*
X122523581Y-72295677D01*
X122523580Y-72295676D01*
X122523580Y-72295672D01*
X122511831Y-72267308D01*
X122470778Y-72168195D01*
X122470771Y-72168182D01*
X122394114Y-72053458D01*
X122394111Y-72053454D01*
X122296545Y-71955888D01*
X122296541Y-71955885D01*
X122181817Y-71879228D01*
X122181804Y-71879221D01*
X122054332Y-71826421D01*
X122054322Y-71826418D01*
X121918995Y-71799500D01*
X121918993Y-71799500D01*
X121781007Y-71799500D01*
X121702743Y-71815067D01*
X121633152Y-71808838D01*
X121577975Y-71765975D01*
X121554731Y-71700085D01*
X121555333Y-71679565D01*
X121575565Y-71500002D01*
X121575565Y-71499996D01*
X121555369Y-71320750D01*
X121555368Y-71320745D01*
X121495788Y-71150476D01*
X121399815Y-70997737D01*
X121272262Y-70870184D01*
X121119523Y-70774211D01*
X120949254Y-70714631D01*
X120949249Y-70714630D01*
X120770004Y-70694435D01*
X120769996Y-70694435D01*
X120590750Y-70714630D01*
X120590745Y-70714631D01*
X120420476Y-70774211D01*
X120267737Y-70870184D01*
X120140184Y-70997737D01*
X120044211Y-71150476D01*
X119984631Y-71320745D01*
X119984630Y-71320750D01*
X119964435Y-71499996D01*
X119964435Y-71500003D01*
X119982644Y-71661617D01*
X119970589Y-71730439D01*
X119923240Y-71781818D01*
X119859424Y-71799500D01*
X119781005Y-71799500D01*
X119645677Y-71826418D01*
X119645664Y-71826422D01*
X119641445Y-71828170D01*
X119571975Y-71835636D01*
X119509498Y-71804358D01*
X119473848Y-71744267D01*
X119476346Y-71674442D01*
X119489005Y-71647634D01*
X119575786Y-71509524D01*
X119635366Y-71339254D01*
X119635367Y-71339249D01*
X119655563Y-71160003D01*
X119655563Y-71159996D01*
X119635367Y-70980750D01*
X119635366Y-70980745D01*
X119575786Y-70810476D01*
X119479813Y-70657737D01*
X119352260Y-70530184D01*
X119199521Y-70434211D01*
X119029252Y-70374631D01*
X119029247Y-70374630D01*
X118850002Y-70354435D01*
X118849994Y-70354435D01*
X118670748Y-70374630D01*
X118670743Y-70374631D01*
X118500474Y-70434211D01*
X118347735Y-70530184D01*
X118220182Y-70657737D01*
X118124209Y-70810476D01*
X118064629Y-70980745D01*
X118064628Y-70980750D01*
X118044433Y-71159996D01*
X118044433Y-71160003D01*
X118064628Y-71339249D01*
X118064629Y-71339254D01*
X118124209Y-71509523D01*
X118210990Y-71647633D01*
X118229990Y-71714870D01*
X118209622Y-71781705D01*
X118156355Y-71826919D01*
X118087098Y-71836157D01*
X118058544Y-71828166D01*
X118054332Y-71826421D01*
X118054322Y-71826418D01*
X117918995Y-71799500D01*
X117918993Y-71799500D01*
X117781007Y-71799500D01*
X117781006Y-71799500D01*
X117731493Y-71809348D01*
X117661902Y-71803119D01*
X117606725Y-71760255D01*
X117586412Y-71715318D01*
X117585369Y-71710748D01*
X117568177Y-71661617D01*
X117525789Y-71540478D01*
X117500352Y-71499996D01*
X117429815Y-71387737D01*
X117302262Y-71260184D01*
X117149523Y-71164211D01*
X116979254Y-71104631D01*
X116979249Y-71104630D01*
X116800004Y-71084435D01*
X116799996Y-71084435D01*
X116620750Y-71104630D01*
X116620745Y-71104631D01*
X116450476Y-71164211D01*
X116297737Y-71260184D01*
X116170184Y-71387737D01*
X116074210Y-71540478D01*
X116037239Y-71646137D01*
X116014632Y-71710745D01*
X116014631Y-71710747D01*
X116012635Y-71716454D01*
X115971913Y-71773230D01*
X115906961Y-71798978D01*
X115895593Y-71799500D01*
X115781005Y-71799500D01*
X115645677Y-71826418D01*
X115645667Y-71826421D01*
X115518195Y-71879221D01*
X115518182Y-71879228D01*
X115403458Y-71955885D01*
X115403454Y-71955888D01*
X115305888Y-72053454D01*
X115305885Y-72053458D01*
X115229228Y-72168182D01*
X115229221Y-72168195D01*
X115176421Y-72295667D01*
X115176418Y-72295677D01*
X115149500Y-72431004D01*
X115149500Y-72431005D01*
X115149500Y-72431007D01*
X115149500Y-72568993D01*
X115149500Y-72568995D01*
X115149499Y-72568995D01*
X115176418Y-72704322D01*
X115176421Y-72704332D01*
X115229221Y-72831804D01*
X115229228Y-72831817D01*
X115253184Y-72867669D01*
X115274062Y-72934346D01*
X115255578Y-73001727D01*
X115203599Y-73048417D01*
X115136199Y-73059780D01*
X115000004Y-73044435D01*
X114999996Y-73044435D01*
X114838383Y-73062644D01*
X114769561Y-73050589D01*
X114718182Y-73003240D01*
X114700500Y-72939424D01*
X114700500Y-68724535D01*
X114720185Y-68657496D01*
X114772989Y-68611741D01*
X114824532Y-68600535D01*
X126872037Y-68604016D01*
G37*
%TD.AperFunction*%
%TD*%
M02*
