%TF.GenerationSoftware,KiCad,Pcbnew,8.0.2*%
%TF.CreationDate,2024-08-07T22:56:45+12:00*%
%TF.ProjectId,FYP_P2_2,4659505f-5032-45f3-922e-6b696361645f,rev?*%
%TF.SameCoordinates,Original*%
%TF.FileFunction,AssemblyDrawing,Bot*%
%FSLAX46Y46*%
G04 Gerber Fmt 4.6, Leading zero omitted, Abs format (unit mm)*
G04 Created by KiCad (PCBNEW 8.0.2) date 2024-08-07 22:56:45*
%MOMM*%
%LPD*%
G01*
G04 APERTURE LIST*
%ADD10C,0.150000*%
%ADD11C,0.060000*%
%ADD12C,0.100000*%
%ADD13C,0.127000*%
%ADD14C,0.240000*%
G04 APERTURE END LIST*
D10*
X110286096Y-87447799D02*
X110952763Y-87447799D01*
X109905144Y-87209704D02*
X110619429Y-86971609D01*
X110619429Y-86971609D02*
X110619429Y-87590656D01*
X110952763Y-87971609D02*
X109952763Y-87971609D01*
X110571810Y-88066847D02*
X110952763Y-88352561D01*
X110286096Y-88352561D02*
X110667048Y-87971609D01*
X109952763Y-88685895D02*
X109952763Y-89352561D01*
X109952763Y-89352561D02*
X110952763Y-88923990D01*
D11*
X109249871Y-88071609D02*
X109059395Y-87938276D01*
X109249871Y-87843038D02*
X108849871Y-87843038D01*
X108849871Y-87843038D02*
X108849871Y-87995419D01*
X108849871Y-87995419D02*
X108868919Y-88033514D01*
X108868919Y-88033514D02*
X108887966Y-88052561D01*
X108887966Y-88052561D02*
X108926062Y-88071609D01*
X108926062Y-88071609D02*
X108983204Y-88071609D01*
X108983204Y-88071609D02*
X109021300Y-88052561D01*
X109021300Y-88052561D02*
X109040347Y-88033514D01*
X109040347Y-88033514D02*
X109059395Y-87995419D01*
X109059395Y-87995419D02*
X109059395Y-87843038D01*
X108887966Y-88223990D02*
X108868919Y-88243038D01*
X108868919Y-88243038D02*
X108849871Y-88281133D01*
X108849871Y-88281133D02*
X108849871Y-88376371D01*
X108849871Y-88376371D02*
X108868919Y-88414466D01*
X108868919Y-88414466D02*
X108887966Y-88433514D01*
X108887966Y-88433514D02*
X108926062Y-88452561D01*
X108926062Y-88452561D02*
X108964157Y-88452561D01*
X108964157Y-88452561D02*
X109021300Y-88433514D01*
X109021300Y-88433514D02*
X109249871Y-88204942D01*
X109249871Y-88204942D02*
X109249871Y-88452561D01*
D10*
X142367691Y-96102651D02*
X142367691Y-96198018D01*
X142367691Y-96198018D02*
X142415375Y-96293385D01*
X142415375Y-96293385D02*
X142463058Y-96341069D01*
X142463058Y-96341069D02*
X142558425Y-96388752D01*
X142558425Y-96388752D02*
X142749159Y-96436436D01*
X142749159Y-96436436D02*
X142987577Y-96436436D01*
X142987577Y-96436436D02*
X143178311Y-96388752D01*
X143178311Y-96388752D02*
X143273678Y-96341069D01*
X143273678Y-96341069D02*
X143321362Y-96293385D01*
X143321362Y-96293385D02*
X143369045Y-96198018D01*
X143369045Y-96198018D02*
X143369045Y-96102651D01*
X143369045Y-96102651D02*
X143321362Y-96007284D01*
X143321362Y-96007284D02*
X143273678Y-95959601D01*
X143273678Y-95959601D02*
X143178311Y-95911917D01*
X143178311Y-95911917D02*
X142987577Y-95864234D01*
X142987577Y-95864234D02*
X142749159Y-95864234D01*
X142749159Y-95864234D02*
X142558425Y-95911917D01*
X142558425Y-95911917D02*
X142463058Y-95959601D01*
X142463058Y-95959601D02*
X142415375Y-96007284D01*
X142415375Y-96007284D02*
X142367691Y-96102651D01*
X142367691Y-97342422D02*
X142367691Y-96865587D01*
X142367691Y-96865587D02*
X142844526Y-96817904D01*
X142844526Y-96817904D02*
X142796843Y-96865587D01*
X142796843Y-96865587D02*
X142749159Y-96960954D01*
X142749159Y-96960954D02*
X142749159Y-97199372D01*
X142749159Y-97199372D02*
X142796843Y-97294739D01*
X142796843Y-97294739D02*
X142844526Y-97342422D01*
X142844526Y-97342422D02*
X142939893Y-97390106D01*
X142939893Y-97390106D02*
X143178311Y-97390106D01*
X143178311Y-97390106D02*
X143273678Y-97342422D01*
X143273678Y-97342422D02*
X143321362Y-97294739D01*
X143321362Y-97294739D02*
X143369045Y-97199372D01*
X143369045Y-97199372D02*
X143369045Y-96960954D01*
X143369045Y-96960954D02*
X143321362Y-96865587D01*
X143321362Y-96865587D02*
X143273678Y-96817904D01*
X142367691Y-97723890D02*
X142367691Y-98343776D01*
X142367691Y-98343776D02*
X142749159Y-98009991D01*
X142749159Y-98009991D02*
X142749159Y-98153042D01*
X142749159Y-98153042D02*
X142796843Y-98248409D01*
X142796843Y-98248409D02*
X142844526Y-98296092D01*
X142844526Y-98296092D02*
X142939893Y-98343776D01*
X142939893Y-98343776D02*
X143178311Y-98343776D01*
X143178311Y-98343776D02*
X143273678Y-98296092D01*
X143273678Y-98296092D02*
X143321362Y-98248409D01*
X143321362Y-98248409D02*
X143369045Y-98153042D01*
X143369045Y-98153042D02*
X143369045Y-97866941D01*
X143369045Y-97866941D02*
X143321362Y-97771574D01*
X143321362Y-97771574D02*
X143273678Y-97723890D01*
X142463058Y-98725244D02*
X142415375Y-98772927D01*
X142415375Y-98772927D02*
X142367691Y-98868294D01*
X142367691Y-98868294D02*
X142367691Y-99106712D01*
X142367691Y-99106712D02*
X142415375Y-99202079D01*
X142415375Y-99202079D02*
X142463058Y-99249762D01*
X142463058Y-99249762D02*
X142558425Y-99297446D01*
X142558425Y-99297446D02*
X142653792Y-99297446D01*
X142653792Y-99297446D02*
X142796843Y-99249762D01*
X142796843Y-99249762D02*
X143369045Y-98677560D01*
X143369045Y-98677560D02*
X143369045Y-99297446D01*
X142367691Y-100155749D02*
X142367691Y-99965015D01*
X142367691Y-99965015D02*
X142415375Y-99869648D01*
X142415375Y-99869648D02*
X142463058Y-99821964D01*
X142463058Y-99821964D02*
X142606109Y-99726597D01*
X142606109Y-99726597D02*
X142796843Y-99678914D01*
X142796843Y-99678914D02*
X143178311Y-99678914D01*
X143178311Y-99678914D02*
X143273678Y-99726597D01*
X143273678Y-99726597D02*
X143321362Y-99774281D01*
X143321362Y-99774281D02*
X143369045Y-99869648D01*
X143369045Y-99869648D02*
X143369045Y-100060382D01*
X143369045Y-100060382D02*
X143321362Y-100155749D01*
X143321362Y-100155749D02*
X143273678Y-100203432D01*
X143273678Y-100203432D02*
X143178311Y-100251116D01*
X143178311Y-100251116D02*
X142939893Y-100251116D01*
X142939893Y-100251116D02*
X142844526Y-100203432D01*
X142844526Y-100203432D02*
X142796843Y-100155749D01*
X142796843Y-100155749D02*
X142749159Y-100060382D01*
X142749159Y-100060382D02*
X142749159Y-99869648D01*
X142749159Y-99869648D02*
X142796843Y-99774281D01*
X142796843Y-99774281D02*
X142844526Y-99726597D01*
X142844526Y-99726597D02*
X142939893Y-99678914D01*
X143369045Y-101204786D02*
X143369045Y-100632584D01*
X143369045Y-100918685D02*
X142367691Y-100918685D01*
X142367691Y-100918685D02*
X142510742Y-100823318D01*
X142510742Y-100823318D02*
X142606109Y-100727951D01*
X142606109Y-100727951D02*
X142653792Y-100632584D01*
X142367691Y-101824671D02*
X142367691Y-101920038D01*
X142367691Y-101920038D02*
X142415375Y-102015405D01*
X142415375Y-102015405D02*
X142463058Y-102063089D01*
X142463058Y-102063089D02*
X142558425Y-102110772D01*
X142558425Y-102110772D02*
X142749159Y-102158456D01*
X142749159Y-102158456D02*
X142987577Y-102158456D01*
X142987577Y-102158456D02*
X143178311Y-102110772D01*
X143178311Y-102110772D02*
X143273678Y-102063089D01*
X143273678Y-102063089D02*
X143321362Y-102015405D01*
X143321362Y-102015405D02*
X143369045Y-101920038D01*
X143369045Y-101920038D02*
X143369045Y-101824671D01*
X143369045Y-101824671D02*
X143321362Y-101729304D01*
X143321362Y-101729304D02*
X143273678Y-101681621D01*
X143273678Y-101681621D02*
X143178311Y-101633937D01*
X143178311Y-101633937D02*
X142987577Y-101586254D01*
X142987577Y-101586254D02*
X142749159Y-101586254D01*
X142749159Y-101586254D02*
X142558425Y-101633937D01*
X142558425Y-101633937D02*
X142463058Y-101681621D01*
X142463058Y-101681621D02*
X142415375Y-101729304D01*
X142415375Y-101729304D02*
X142367691Y-101824671D01*
X142701476Y-103016759D02*
X143369045Y-103016759D01*
X142320008Y-102778341D02*
X143035260Y-102539924D01*
X143035260Y-102539924D02*
X143035260Y-103159809D01*
X142367691Y-103445910D02*
X142367691Y-104113479D01*
X142367691Y-104113479D02*
X143369045Y-103684328D01*
X143369045Y-105019466D02*
X143369045Y-104447264D01*
X143369045Y-104733365D02*
X142367691Y-104733365D01*
X142367691Y-104733365D02*
X142510742Y-104637998D01*
X142510742Y-104637998D02*
X142606109Y-104542631D01*
X142606109Y-104542631D02*
X142653792Y-104447264D01*
X133770714Y-94833152D02*
X133770714Y-95499819D01*
X134008809Y-94452200D02*
X134246904Y-95166485D01*
X134246904Y-95166485D02*
X133627857Y-95166485D01*
X133246904Y-95499819D02*
X133246904Y-94499819D01*
X132675476Y-95499819D02*
X133104047Y-94928390D01*
X132675476Y-94499819D02*
X133246904Y-95071247D01*
X132342142Y-94499819D02*
X131675476Y-94499819D01*
X131675476Y-94499819D02*
X132104047Y-95499819D01*
D11*
X133051666Y-96656927D02*
X133184999Y-96466451D01*
X133280237Y-96656927D02*
X133280237Y-96256927D01*
X133280237Y-96256927D02*
X133127856Y-96256927D01*
X133127856Y-96256927D02*
X133089761Y-96275975D01*
X133089761Y-96275975D02*
X133070714Y-96295022D01*
X133070714Y-96295022D02*
X133051666Y-96333118D01*
X133051666Y-96333118D02*
X133051666Y-96390260D01*
X133051666Y-96390260D02*
X133070714Y-96428356D01*
X133070714Y-96428356D02*
X133089761Y-96447403D01*
X133089761Y-96447403D02*
X133127856Y-96466451D01*
X133127856Y-96466451D02*
X133280237Y-96466451D01*
X132918333Y-96256927D02*
X132651666Y-96256927D01*
X132651666Y-96256927D02*
X132823095Y-96656927D01*
D10*
X95950491Y-73868951D02*
X95950491Y-73964318D01*
X95950491Y-73964318D02*
X95998175Y-74059685D01*
X95998175Y-74059685D02*
X96045858Y-74107369D01*
X96045858Y-74107369D02*
X96141225Y-74155052D01*
X96141225Y-74155052D02*
X96331959Y-74202736D01*
X96331959Y-74202736D02*
X96570377Y-74202736D01*
X96570377Y-74202736D02*
X96761111Y-74155052D01*
X96761111Y-74155052D02*
X96856478Y-74107369D01*
X96856478Y-74107369D02*
X96904162Y-74059685D01*
X96904162Y-74059685D02*
X96951845Y-73964318D01*
X96951845Y-73964318D02*
X96951845Y-73868951D01*
X96951845Y-73868951D02*
X96904162Y-73773584D01*
X96904162Y-73773584D02*
X96856478Y-73725901D01*
X96856478Y-73725901D02*
X96761111Y-73678217D01*
X96761111Y-73678217D02*
X96570377Y-73630534D01*
X96570377Y-73630534D02*
X96331959Y-73630534D01*
X96331959Y-73630534D02*
X96141225Y-73678217D01*
X96141225Y-73678217D02*
X96045858Y-73725901D01*
X96045858Y-73725901D02*
X95998175Y-73773584D01*
X95998175Y-73773584D02*
X95950491Y-73868951D01*
X95950491Y-75108722D02*
X95950491Y-74631887D01*
X95950491Y-74631887D02*
X96427326Y-74584204D01*
X96427326Y-74584204D02*
X96379643Y-74631887D01*
X96379643Y-74631887D02*
X96331959Y-74727254D01*
X96331959Y-74727254D02*
X96331959Y-74965672D01*
X96331959Y-74965672D02*
X96379643Y-75061039D01*
X96379643Y-75061039D02*
X96427326Y-75108722D01*
X96427326Y-75108722D02*
X96522693Y-75156406D01*
X96522693Y-75156406D02*
X96761111Y-75156406D01*
X96761111Y-75156406D02*
X96856478Y-75108722D01*
X96856478Y-75108722D02*
X96904162Y-75061039D01*
X96904162Y-75061039D02*
X96951845Y-74965672D01*
X96951845Y-74965672D02*
X96951845Y-74727254D01*
X96951845Y-74727254D02*
X96904162Y-74631887D01*
X96904162Y-74631887D02*
X96856478Y-74584204D01*
X95950491Y-75490190D02*
X95950491Y-76110076D01*
X95950491Y-76110076D02*
X96331959Y-75776291D01*
X96331959Y-75776291D02*
X96331959Y-75919342D01*
X96331959Y-75919342D02*
X96379643Y-76014709D01*
X96379643Y-76014709D02*
X96427326Y-76062392D01*
X96427326Y-76062392D02*
X96522693Y-76110076D01*
X96522693Y-76110076D02*
X96761111Y-76110076D01*
X96761111Y-76110076D02*
X96856478Y-76062392D01*
X96856478Y-76062392D02*
X96904162Y-76014709D01*
X96904162Y-76014709D02*
X96951845Y-75919342D01*
X96951845Y-75919342D02*
X96951845Y-75633241D01*
X96951845Y-75633241D02*
X96904162Y-75537874D01*
X96904162Y-75537874D02*
X96856478Y-75490190D01*
X96045858Y-76491544D02*
X95998175Y-76539227D01*
X95998175Y-76539227D02*
X95950491Y-76634594D01*
X95950491Y-76634594D02*
X95950491Y-76873012D01*
X95950491Y-76873012D02*
X95998175Y-76968379D01*
X95998175Y-76968379D02*
X96045858Y-77016062D01*
X96045858Y-77016062D02*
X96141225Y-77063746D01*
X96141225Y-77063746D02*
X96236592Y-77063746D01*
X96236592Y-77063746D02*
X96379643Y-77016062D01*
X96379643Y-77016062D02*
X96951845Y-76443860D01*
X96951845Y-76443860D02*
X96951845Y-77063746D01*
X95950491Y-77922049D02*
X95950491Y-77731315D01*
X95950491Y-77731315D02*
X95998175Y-77635948D01*
X95998175Y-77635948D02*
X96045858Y-77588264D01*
X96045858Y-77588264D02*
X96188909Y-77492897D01*
X96188909Y-77492897D02*
X96379643Y-77445214D01*
X96379643Y-77445214D02*
X96761111Y-77445214D01*
X96761111Y-77445214D02*
X96856478Y-77492897D01*
X96856478Y-77492897D02*
X96904162Y-77540581D01*
X96904162Y-77540581D02*
X96951845Y-77635948D01*
X96951845Y-77635948D02*
X96951845Y-77826682D01*
X96951845Y-77826682D02*
X96904162Y-77922049D01*
X96904162Y-77922049D02*
X96856478Y-77969732D01*
X96856478Y-77969732D02*
X96761111Y-78017416D01*
X96761111Y-78017416D02*
X96522693Y-78017416D01*
X96522693Y-78017416D02*
X96427326Y-77969732D01*
X96427326Y-77969732D02*
X96379643Y-77922049D01*
X96379643Y-77922049D02*
X96331959Y-77826682D01*
X96331959Y-77826682D02*
X96331959Y-77635948D01*
X96331959Y-77635948D02*
X96379643Y-77540581D01*
X96379643Y-77540581D02*
X96427326Y-77492897D01*
X96427326Y-77492897D02*
X96522693Y-77445214D01*
X96951845Y-78971086D02*
X96951845Y-78398884D01*
X96951845Y-78684985D02*
X95950491Y-78684985D01*
X95950491Y-78684985D02*
X96093542Y-78589618D01*
X96093542Y-78589618D02*
X96188909Y-78494251D01*
X96188909Y-78494251D02*
X96236592Y-78398884D01*
X95950491Y-79590971D02*
X95950491Y-79686338D01*
X95950491Y-79686338D02*
X95998175Y-79781705D01*
X95998175Y-79781705D02*
X96045858Y-79829389D01*
X96045858Y-79829389D02*
X96141225Y-79877072D01*
X96141225Y-79877072D02*
X96331959Y-79924756D01*
X96331959Y-79924756D02*
X96570377Y-79924756D01*
X96570377Y-79924756D02*
X96761111Y-79877072D01*
X96761111Y-79877072D02*
X96856478Y-79829389D01*
X96856478Y-79829389D02*
X96904162Y-79781705D01*
X96904162Y-79781705D02*
X96951845Y-79686338D01*
X96951845Y-79686338D02*
X96951845Y-79590971D01*
X96951845Y-79590971D02*
X96904162Y-79495604D01*
X96904162Y-79495604D02*
X96856478Y-79447921D01*
X96856478Y-79447921D02*
X96761111Y-79400237D01*
X96761111Y-79400237D02*
X96570377Y-79352554D01*
X96570377Y-79352554D02*
X96331959Y-79352554D01*
X96331959Y-79352554D02*
X96141225Y-79400237D01*
X96141225Y-79400237D02*
X96045858Y-79447921D01*
X96045858Y-79447921D02*
X95998175Y-79495604D01*
X95998175Y-79495604D02*
X95950491Y-79590971D01*
X96284276Y-80783059D02*
X96951845Y-80783059D01*
X95902808Y-80544641D02*
X96618060Y-80306224D01*
X96618060Y-80306224D02*
X96618060Y-80926109D01*
X95950491Y-81212210D02*
X95950491Y-81879779D01*
X95950491Y-81879779D02*
X96951845Y-81450628D01*
X96951845Y-82785766D02*
X96951845Y-82213564D01*
X96951845Y-82499665D02*
X95950491Y-82499665D01*
X95950491Y-82499665D02*
X96093542Y-82404298D01*
X96093542Y-82404298D02*
X96188909Y-82308931D01*
X96188909Y-82308931D02*
X96236592Y-82213564D01*
X133765714Y-92583152D02*
X133765714Y-93249819D01*
X134003809Y-92202200D02*
X134241904Y-92916485D01*
X134241904Y-92916485D02*
X133622857Y-92916485D01*
X133241904Y-93249819D02*
X133241904Y-92249819D01*
X132670476Y-93249819D02*
X133099047Y-92678390D01*
X132670476Y-92249819D02*
X133241904Y-92821247D01*
X132337142Y-92249819D02*
X131670476Y-92249819D01*
X131670476Y-92249819D02*
X132099047Y-93249819D01*
D11*
X133046666Y-94406927D02*
X133179999Y-94216451D01*
X133275237Y-94406927D02*
X133275237Y-94006927D01*
X133275237Y-94006927D02*
X133122856Y-94006927D01*
X133122856Y-94006927D02*
X133084761Y-94025975D01*
X133084761Y-94025975D02*
X133065714Y-94045022D01*
X133065714Y-94045022D02*
X133046666Y-94083118D01*
X133046666Y-94083118D02*
X133046666Y-94140260D01*
X133046666Y-94140260D02*
X133065714Y-94178356D01*
X133065714Y-94178356D02*
X133084761Y-94197403D01*
X133084761Y-94197403D02*
X133122856Y-94216451D01*
X133122856Y-94216451D02*
X133275237Y-94216451D01*
X132703809Y-94006927D02*
X132779999Y-94006927D01*
X132779999Y-94006927D02*
X132818095Y-94025975D01*
X132818095Y-94025975D02*
X132837142Y-94045022D01*
X132837142Y-94045022D02*
X132875237Y-94102165D01*
X132875237Y-94102165D02*
X132894285Y-94178356D01*
X132894285Y-94178356D02*
X132894285Y-94330737D01*
X132894285Y-94330737D02*
X132875237Y-94368832D01*
X132875237Y-94368832D02*
X132856190Y-94387880D01*
X132856190Y-94387880D02*
X132818095Y-94406927D01*
X132818095Y-94406927D02*
X132741904Y-94406927D01*
X132741904Y-94406927D02*
X132703809Y-94387880D01*
X132703809Y-94387880D02*
X132684761Y-94368832D01*
X132684761Y-94368832D02*
X132665714Y-94330737D01*
X132665714Y-94330737D02*
X132665714Y-94235499D01*
X132665714Y-94235499D02*
X132684761Y-94197403D01*
X132684761Y-94197403D02*
X132703809Y-94178356D01*
X132703809Y-94178356D02*
X132741904Y-94159308D01*
X132741904Y-94159308D02*
X132818095Y-94159308D01*
X132818095Y-94159308D02*
X132856190Y-94178356D01*
X132856190Y-94178356D02*
X132875237Y-94197403D01*
X132875237Y-94197403D02*
X132894285Y-94235499D01*
D10*
X116289580Y-105526904D02*
X116337200Y-105479285D01*
X116337200Y-105479285D02*
X116384819Y-105336428D01*
X116384819Y-105336428D02*
X116384819Y-105241190D01*
X116384819Y-105241190D02*
X116337200Y-105098333D01*
X116337200Y-105098333D02*
X116241961Y-105003095D01*
X116241961Y-105003095D02*
X116146723Y-104955476D01*
X116146723Y-104955476D02*
X115956247Y-104907857D01*
X115956247Y-104907857D02*
X115813390Y-104907857D01*
X115813390Y-104907857D02*
X115622914Y-104955476D01*
X115622914Y-104955476D02*
X115527676Y-105003095D01*
X115527676Y-105003095D02*
X115432438Y-105098333D01*
X115432438Y-105098333D02*
X115384819Y-105241190D01*
X115384819Y-105241190D02*
X115384819Y-105336428D01*
X115384819Y-105336428D02*
X115432438Y-105479285D01*
X115432438Y-105479285D02*
X115480057Y-105526904D01*
X116384819Y-106098333D02*
X116337200Y-106003095D01*
X116337200Y-106003095D02*
X116289580Y-105955476D01*
X116289580Y-105955476D02*
X116194342Y-105907857D01*
X116194342Y-105907857D02*
X115908628Y-105907857D01*
X115908628Y-105907857D02*
X115813390Y-105955476D01*
X115813390Y-105955476D02*
X115765771Y-106003095D01*
X115765771Y-106003095D02*
X115718152Y-106098333D01*
X115718152Y-106098333D02*
X115718152Y-106241190D01*
X115718152Y-106241190D02*
X115765771Y-106336428D01*
X115765771Y-106336428D02*
X115813390Y-106384047D01*
X115813390Y-106384047D02*
X115908628Y-106431666D01*
X115908628Y-106431666D02*
X116194342Y-106431666D01*
X116194342Y-106431666D02*
X116289580Y-106384047D01*
X116289580Y-106384047D02*
X116337200Y-106336428D01*
X116337200Y-106336428D02*
X116384819Y-106241190D01*
X116384819Y-106241190D02*
X116384819Y-106098333D01*
X115718152Y-106860238D02*
X116384819Y-106860238D01*
X115813390Y-106860238D02*
X115765771Y-106907857D01*
X115765771Y-106907857D02*
X115718152Y-107003095D01*
X115718152Y-107003095D02*
X115718152Y-107145952D01*
X115718152Y-107145952D02*
X115765771Y-107241190D01*
X115765771Y-107241190D02*
X115861009Y-107288809D01*
X115861009Y-107288809D02*
X116384819Y-107288809D01*
X115718152Y-107765000D02*
X116384819Y-107765000D01*
X115813390Y-107765000D02*
X115765771Y-107812619D01*
X115765771Y-107812619D02*
X115718152Y-107907857D01*
X115718152Y-107907857D02*
X115718152Y-108050714D01*
X115718152Y-108050714D02*
X115765771Y-108145952D01*
X115765771Y-108145952D02*
X115861009Y-108193571D01*
X115861009Y-108193571D02*
X116384819Y-108193571D01*
X116480057Y-108431667D02*
X116480057Y-109193571D01*
X115384819Y-109622143D02*
X115384819Y-109717381D01*
X115384819Y-109717381D02*
X115432438Y-109812619D01*
X115432438Y-109812619D02*
X115480057Y-109860238D01*
X115480057Y-109860238D02*
X115575295Y-109907857D01*
X115575295Y-109907857D02*
X115765771Y-109955476D01*
X115765771Y-109955476D02*
X116003866Y-109955476D01*
X116003866Y-109955476D02*
X116194342Y-109907857D01*
X116194342Y-109907857D02*
X116289580Y-109860238D01*
X116289580Y-109860238D02*
X116337200Y-109812619D01*
X116337200Y-109812619D02*
X116384819Y-109717381D01*
X116384819Y-109717381D02*
X116384819Y-109622143D01*
X116384819Y-109622143D02*
X116337200Y-109526905D01*
X116337200Y-109526905D02*
X116289580Y-109479286D01*
X116289580Y-109479286D02*
X116194342Y-109431667D01*
X116194342Y-109431667D02*
X116003866Y-109384048D01*
X116003866Y-109384048D02*
X115765771Y-109384048D01*
X115765771Y-109384048D02*
X115575295Y-109431667D01*
X115575295Y-109431667D02*
X115480057Y-109479286D01*
X115480057Y-109479286D02*
X115432438Y-109526905D01*
X115432438Y-109526905D02*
X115384819Y-109622143D01*
X116384819Y-110907857D02*
X116384819Y-110336429D01*
X116384819Y-110622143D02*
X115384819Y-110622143D01*
X115384819Y-110622143D02*
X115527676Y-110526905D01*
X115527676Y-110526905D02*
X115622914Y-110431667D01*
X115622914Y-110431667D02*
X115670533Y-110336429D01*
X116384819Y-111241191D02*
X115718152Y-111765000D01*
X115718152Y-111241191D02*
X116384819Y-111765000D01*
X115384819Y-112336429D02*
X115384819Y-112431667D01*
X115384819Y-112431667D02*
X115432438Y-112526905D01*
X115432438Y-112526905D02*
X115480057Y-112574524D01*
X115480057Y-112574524D02*
X115575295Y-112622143D01*
X115575295Y-112622143D02*
X115765771Y-112669762D01*
X115765771Y-112669762D02*
X116003866Y-112669762D01*
X116003866Y-112669762D02*
X116194342Y-112622143D01*
X116194342Y-112622143D02*
X116289580Y-112574524D01*
X116289580Y-112574524D02*
X116337200Y-112526905D01*
X116337200Y-112526905D02*
X116384819Y-112431667D01*
X116384819Y-112431667D02*
X116384819Y-112336429D01*
X116384819Y-112336429D02*
X116337200Y-112241191D01*
X116337200Y-112241191D02*
X116289580Y-112193572D01*
X116289580Y-112193572D02*
X116194342Y-112145953D01*
X116194342Y-112145953D02*
X116003866Y-112098334D01*
X116003866Y-112098334D02*
X115765771Y-112098334D01*
X115765771Y-112098334D02*
X115575295Y-112145953D01*
X115575295Y-112145953D02*
X115480057Y-112193572D01*
X115480057Y-112193572D02*
X115432438Y-112241191D01*
X115432438Y-112241191D02*
X115384819Y-112336429D01*
X115480057Y-113050715D02*
X115432438Y-113098334D01*
X115432438Y-113098334D02*
X115384819Y-113193572D01*
X115384819Y-113193572D02*
X115384819Y-113431667D01*
X115384819Y-113431667D02*
X115432438Y-113526905D01*
X115432438Y-113526905D02*
X115480057Y-113574524D01*
X115480057Y-113574524D02*
X115575295Y-113622143D01*
X115575295Y-113622143D02*
X115670533Y-113622143D01*
X115670533Y-113622143D02*
X115813390Y-113574524D01*
X115813390Y-113574524D02*
X116384819Y-113003096D01*
X116384819Y-113003096D02*
X116384819Y-113622143D01*
X119136666Y-111425180D02*
X119136666Y-110710895D01*
X119136666Y-110710895D02*
X119089047Y-110568038D01*
X119089047Y-110568038D02*
X118993809Y-110472800D01*
X118993809Y-110472800D02*
X118850952Y-110425180D01*
X118850952Y-110425180D02*
X118755714Y-110425180D01*
X119755714Y-110996609D02*
X119660476Y-111044228D01*
X119660476Y-111044228D02*
X119612857Y-111091847D01*
X119612857Y-111091847D02*
X119565238Y-111187085D01*
X119565238Y-111187085D02*
X119565238Y-111234704D01*
X119565238Y-111234704D02*
X119612857Y-111329942D01*
X119612857Y-111329942D02*
X119660476Y-111377561D01*
X119660476Y-111377561D02*
X119755714Y-111425180D01*
X119755714Y-111425180D02*
X119946190Y-111425180D01*
X119946190Y-111425180D02*
X120041428Y-111377561D01*
X120041428Y-111377561D02*
X120089047Y-111329942D01*
X120089047Y-111329942D02*
X120136666Y-111234704D01*
X120136666Y-111234704D02*
X120136666Y-111187085D01*
X120136666Y-111187085D02*
X120089047Y-111091847D01*
X120089047Y-111091847D02*
X120041428Y-111044228D01*
X120041428Y-111044228D02*
X119946190Y-110996609D01*
X119946190Y-110996609D02*
X119755714Y-110996609D01*
X119755714Y-110996609D02*
X119660476Y-110948990D01*
X119660476Y-110948990D02*
X119612857Y-110901371D01*
X119612857Y-110901371D02*
X119565238Y-110806133D01*
X119565238Y-110806133D02*
X119565238Y-110615657D01*
X119565238Y-110615657D02*
X119612857Y-110520419D01*
X119612857Y-110520419D02*
X119660476Y-110472800D01*
X119660476Y-110472800D02*
X119755714Y-110425180D01*
X119755714Y-110425180D02*
X119946190Y-110425180D01*
X119946190Y-110425180D02*
X120041428Y-110472800D01*
X120041428Y-110472800D02*
X120089047Y-110520419D01*
X120089047Y-110520419D02*
X120136666Y-110615657D01*
X120136666Y-110615657D02*
X120136666Y-110806133D01*
X120136666Y-110806133D02*
X120089047Y-110901371D01*
X120089047Y-110901371D02*
X120041428Y-110948990D01*
X120041428Y-110948990D02*
X119946190Y-110996609D01*
X95970491Y-86008951D02*
X95970491Y-86104318D01*
X95970491Y-86104318D02*
X96018175Y-86199685D01*
X96018175Y-86199685D02*
X96065858Y-86247369D01*
X96065858Y-86247369D02*
X96161225Y-86295052D01*
X96161225Y-86295052D02*
X96351959Y-86342736D01*
X96351959Y-86342736D02*
X96590377Y-86342736D01*
X96590377Y-86342736D02*
X96781111Y-86295052D01*
X96781111Y-86295052D02*
X96876478Y-86247369D01*
X96876478Y-86247369D02*
X96924162Y-86199685D01*
X96924162Y-86199685D02*
X96971845Y-86104318D01*
X96971845Y-86104318D02*
X96971845Y-86008951D01*
X96971845Y-86008951D02*
X96924162Y-85913584D01*
X96924162Y-85913584D02*
X96876478Y-85865901D01*
X96876478Y-85865901D02*
X96781111Y-85818217D01*
X96781111Y-85818217D02*
X96590377Y-85770534D01*
X96590377Y-85770534D02*
X96351959Y-85770534D01*
X96351959Y-85770534D02*
X96161225Y-85818217D01*
X96161225Y-85818217D02*
X96065858Y-85865901D01*
X96065858Y-85865901D02*
X96018175Y-85913584D01*
X96018175Y-85913584D02*
X95970491Y-86008951D01*
X95970491Y-87248722D02*
X95970491Y-86771887D01*
X95970491Y-86771887D02*
X96447326Y-86724204D01*
X96447326Y-86724204D02*
X96399643Y-86771887D01*
X96399643Y-86771887D02*
X96351959Y-86867254D01*
X96351959Y-86867254D02*
X96351959Y-87105672D01*
X96351959Y-87105672D02*
X96399643Y-87201039D01*
X96399643Y-87201039D02*
X96447326Y-87248722D01*
X96447326Y-87248722D02*
X96542693Y-87296406D01*
X96542693Y-87296406D02*
X96781111Y-87296406D01*
X96781111Y-87296406D02*
X96876478Y-87248722D01*
X96876478Y-87248722D02*
X96924162Y-87201039D01*
X96924162Y-87201039D02*
X96971845Y-87105672D01*
X96971845Y-87105672D02*
X96971845Y-86867254D01*
X96971845Y-86867254D02*
X96924162Y-86771887D01*
X96924162Y-86771887D02*
X96876478Y-86724204D01*
X95970491Y-87630190D02*
X95970491Y-88250076D01*
X95970491Y-88250076D02*
X96351959Y-87916291D01*
X96351959Y-87916291D02*
X96351959Y-88059342D01*
X96351959Y-88059342D02*
X96399643Y-88154709D01*
X96399643Y-88154709D02*
X96447326Y-88202392D01*
X96447326Y-88202392D02*
X96542693Y-88250076D01*
X96542693Y-88250076D02*
X96781111Y-88250076D01*
X96781111Y-88250076D02*
X96876478Y-88202392D01*
X96876478Y-88202392D02*
X96924162Y-88154709D01*
X96924162Y-88154709D02*
X96971845Y-88059342D01*
X96971845Y-88059342D02*
X96971845Y-87773241D01*
X96971845Y-87773241D02*
X96924162Y-87677874D01*
X96924162Y-87677874D02*
X96876478Y-87630190D01*
X96065858Y-88631544D02*
X96018175Y-88679227D01*
X96018175Y-88679227D02*
X95970491Y-88774594D01*
X95970491Y-88774594D02*
X95970491Y-89013012D01*
X95970491Y-89013012D02*
X96018175Y-89108379D01*
X96018175Y-89108379D02*
X96065858Y-89156062D01*
X96065858Y-89156062D02*
X96161225Y-89203746D01*
X96161225Y-89203746D02*
X96256592Y-89203746D01*
X96256592Y-89203746D02*
X96399643Y-89156062D01*
X96399643Y-89156062D02*
X96971845Y-88583860D01*
X96971845Y-88583860D02*
X96971845Y-89203746D01*
X95970491Y-90062049D02*
X95970491Y-89871315D01*
X95970491Y-89871315D02*
X96018175Y-89775948D01*
X96018175Y-89775948D02*
X96065858Y-89728264D01*
X96065858Y-89728264D02*
X96208909Y-89632897D01*
X96208909Y-89632897D02*
X96399643Y-89585214D01*
X96399643Y-89585214D02*
X96781111Y-89585214D01*
X96781111Y-89585214D02*
X96876478Y-89632897D01*
X96876478Y-89632897D02*
X96924162Y-89680581D01*
X96924162Y-89680581D02*
X96971845Y-89775948D01*
X96971845Y-89775948D02*
X96971845Y-89966682D01*
X96971845Y-89966682D02*
X96924162Y-90062049D01*
X96924162Y-90062049D02*
X96876478Y-90109732D01*
X96876478Y-90109732D02*
X96781111Y-90157416D01*
X96781111Y-90157416D02*
X96542693Y-90157416D01*
X96542693Y-90157416D02*
X96447326Y-90109732D01*
X96447326Y-90109732D02*
X96399643Y-90062049D01*
X96399643Y-90062049D02*
X96351959Y-89966682D01*
X96351959Y-89966682D02*
X96351959Y-89775948D01*
X96351959Y-89775948D02*
X96399643Y-89680581D01*
X96399643Y-89680581D02*
X96447326Y-89632897D01*
X96447326Y-89632897D02*
X96542693Y-89585214D01*
X96971845Y-91111086D02*
X96971845Y-90538884D01*
X96971845Y-90824985D02*
X95970491Y-90824985D01*
X95970491Y-90824985D02*
X96113542Y-90729618D01*
X96113542Y-90729618D02*
X96208909Y-90634251D01*
X96208909Y-90634251D02*
X96256592Y-90538884D01*
X95970491Y-91730971D02*
X95970491Y-91826338D01*
X95970491Y-91826338D02*
X96018175Y-91921705D01*
X96018175Y-91921705D02*
X96065858Y-91969389D01*
X96065858Y-91969389D02*
X96161225Y-92017072D01*
X96161225Y-92017072D02*
X96351959Y-92064756D01*
X96351959Y-92064756D02*
X96590377Y-92064756D01*
X96590377Y-92064756D02*
X96781111Y-92017072D01*
X96781111Y-92017072D02*
X96876478Y-91969389D01*
X96876478Y-91969389D02*
X96924162Y-91921705D01*
X96924162Y-91921705D02*
X96971845Y-91826338D01*
X96971845Y-91826338D02*
X96971845Y-91730971D01*
X96971845Y-91730971D02*
X96924162Y-91635604D01*
X96924162Y-91635604D02*
X96876478Y-91587921D01*
X96876478Y-91587921D02*
X96781111Y-91540237D01*
X96781111Y-91540237D02*
X96590377Y-91492554D01*
X96590377Y-91492554D02*
X96351959Y-91492554D01*
X96351959Y-91492554D02*
X96161225Y-91540237D01*
X96161225Y-91540237D02*
X96065858Y-91587921D01*
X96065858Y-91587921D02*
X96018175Y-91635604D01*
X96018175Y-91635604D02*
X95970491Y-91730971D01*
X96304276Y-92923059D02*
X96971845Y-92923059D01*
X95922808Y-92684641D02*
X96638060Y-92446224D01*
X96638060Y-92446224D02*
X96638060Y-93066109D01*
X95970491Y-93352210D02*
X95970491Y-94019779D01*
X95970491Y-94019779D02*
X96971845Y-93590628D01*
X96971845Y-94925766D02*
X96971845Y-94353564D01*
X96971845Y-94639665D02*
X95970491Y-94639665D01*
X95970491Y-94639665D02*
X96113542Y-94544298D01*
X96113542Y-94544298D02*
X96208909Y-94448931D01*
X96208909Y-94448931D02*
X96256592Y-94353564D01*
X107440208Y-84211247D02*
X108106875Y-84211247D01*
X107059256Y-83973152D02*
X107773541Y-83735057D01*
X107773541Y-83735057D02*
X107773541Y-84354104D01*
X108106875Y-84735057D02*
X107106875Y-84735057D01*
X107725922Y-84830295D02*
X108106875Y-85116009D01*
X107440208Y-85116009D02*
X107821160Y-84735057D01*
X107106875Y-85449343D02*
X107106875Y-86116009D01*
X107106875Y-86116009D02*
X108106875Y-85687438D01*
D11*
X109263983Y-84835057D02*
X109073507Y-84701724D01*
X109263983Y-84606486D02*
X108863983Y-84606486D01*
X108863983Y-84606486D02*
X108863983Y-84758867D01*
X108863983Y-84758867D02*
X108883031Y-84796962D01*
X108883031Y-84796962D02*
X108902078Y-84816009D01*
X108902078Y-84816009D02*
X108940174Y-84835057D01*
X108940174Y-84835057D02*
X108997316Y-84835057D01*
X108997316Y-84835057D02*
X109035412Y-84816009D01*
X109035412Y-84816009D02*
X109054459Y-84796962D01*
X109054459Y-84796962D02*
X109073507Y-84758867D01*
X109073507Y-84758867D02*
X109073507Y-84606486D01*
X108997316Y-85177914D02*
X109263983Y-85177914D01*
X108844936Y-85082676D02*
X109130650Y-84987438D01*
X109130650Y-84987438D02*
X109130650Y-85235057D01*
D12*
%TO.C,R2*%
X108655444Y-87338276D02*
X109480444Y-87338276D01*
X108655444Y-88938276D02*
X108655444Y-87338276D01*
X109480444Y-87338276D02*
X109480444Y-88938276D01*
X109480444Y-88938276D02*
X108655444Y-88938276D01*
D13*
%TO.C,J6*%
X137350000Y-92000000D02*
X141550000Y-92000000D01*
X137350000Y-98750000D02*
X137350000Y-92000000D01*
X141550000Y-98750000D02*
X137350000Y-98750000D01*
X141550000Y-98750000D02*
X141550000Y-92000000D01*
D14*
X136170000Y-92360000D02*
G75*
G02*
X135930000Y-92360000I-120000J0D01*
G01*
X135930000Y-92360000D02*
G75*
G02*
X136170000Y-92360000I120000J0D01*
G01*
D12*
%TO.C,R7*%
X132185000Y-96062500D02*
X133785000Y-96062500D01*
X132185000Y-96887500D02*
X132185000Y-96062500D01*
X133785000Y-96062500D02*
X133785000Y-96887500D01*
X133785000Y-96887500D02*
X132185000Y-96887500D01*
D13*
%TO.C,J3*%
X97860000Y-79900000D02*
X97860000Y-86650000D01*
X97860000Y-79900000D02*
X102060000Y-79900000D01*
X102060000Y-79900000D02*
X102060000Y-86650000D01*
X102060000Y-86650000D02*
X97860000Y-86650000D01*
D14*
X103480000Y-86290000D02*
G75*
G02*
X103240000Y-86290000I-120000J0D01*
G01*
X103240000Y-86290000D02*
G75*
G02*
X103480000Y-86290000I120000J0D01*
G01*
D12*
%TO.C,R6*%
X132180000Y-93812500D02*
X133780000Y-93812500D01*
X132180000Y-94637500D02*
X132180000Y-93812500D01*
X133780000Y-93812500D02*
X133780000Y-94637500D01*
X133780000Y-94637500D02*
X132180000Y-94637500D01*
%TO.C,J8*%
X116930000Y-109610000D02*
X122010000Y-109610000D01*
X116930000Y-112150000D02*
X116930000Y-109610000D01*
X117880000Y-103610000D02*
X117880000Y-109610000D01*
X117880000Y-103610000D02*
X118520000Y-103610000D01*
X117880000Y-112150000D02*
X117880000Y-113970000D01*
X117880000Y-113970000D02*
X118520000Y-113970000D01*
X118520000Y-103610000D02*
X118520000Y-109610000D01*
X118520000Y-112150000D02*
X118520000Y-113970000D01*
X120420000Y-103610000D02*
X120420000Y-109610000D01*
X120420000Y-103610000D02*
X121060000Y-103610000D01*
X120420000Y-112150000D02*
X120420000Y-113970000D01*
X120420000Y-113970000D02*
X121060000Y-113970000D01*
X121060000Y-103610000D02*
X121060000Y-109610000D01*
X121060000Y-112150000D02*
X121060000Y-113970000D01*
X121375000Y-112150000D02*
X116930000Y-112150000D01*
X122010000Y-109610000D02*
X122010000Y-111515000D01*
X122010000Y-111515000D02*
X121375000Y-112150000D01*
D13*
%TO.C,J4*%
X97880000Y-92040000D02*
X97880000Y-98790000D01*
X97880000Y-92040000D02*
X102080000Y-92040000D01*
X102080000Y-92040000D02*
X102080000Y-98790000D01*
X102080000Y-98790000D02*
X97880000Y-98790000D01*
D14*
X103500000Y-98430000D02*
G75*
G02*
X103260000Y-98430000I-120000J0D01*
G01*
X103260000Y-98430000D02*
G75*
G02*
X103500000Y-98430000I120000J0D01*
G01*
D12*
%TO.C,R4*%
X108669556Y-84101724D02*
X109494556Y-84101724D01*
X108669556Y-85701724D02*
X108669556Y-84101724D01*
X109494556Y-84101724D02*
X109494556Y-85701724D01*
X109494556Y-85701724D02*
X108669556Y-85701724D01*
%TD*%
M02*
