%TF.GenerationSoftware,KiCad,Pcbnew,8.0.2*%
%TF.CreationDate,2024-08-07T22:56:26+12:00*%
%TF.ProjectId,FYP_P2_2,4659505f-5032-45f3-922e-6b696361645f,rev?*%
%TF.SameCoordinates,Original*%
%TF.FileFunction,Drillmap*%
%TF.FilePolarity,Positive*%
%FSLAX45Y45*%
G04 Gerber Fmt 4.5, Leading zero omitted, Abs format (unit mm)*
G04 Created by KiCad (PCBNEW 8.0.2) date 2024-08-07 22:56:26*
%MOMM*%
%LPD*%
G01*
G04 APERTURE LIST*
%ADD10C,0.050000*%
%ADD11C,0.200000*%
%ADD12C,0.100000*%
G04 APERTURE END LIST*
D10*
X14129645Y-7709645D02*
G75*
G02*
X14179635Y-7759645I-5J-49995D01*
G01*
X9761167Y-11759199D02*
X9761167Y-7759199D01*
X9801361Y-7710170D02*
X11370000Y-7710000D01*
X11420000Y-6860000D02*
G75*
G02*
X11470000Y-6810000I50000J0D01*
G01*
X12800000Y-7709645D02*
X14129645Y-7709645D01*
X11470000Y-6810000D02*
X12699645Y-6810355D01*
X14129645Y-11809645D02*
X9811167Y-11809199D01*
X12699645Y-6810355D02*
G75*
G02*
X12749645Y-6860355I-5J-50005D01*
G01*
X9761167Y-7759199D02*
G75*
G02*
X9801361Y-7710169I50003J-1D01*
G01*
X9811167Y-11809199D02*
G75*
G02*
X9761171Y-11759199I3J49999D01*
G01*
X14179645Y-11759645D02*
G75*
G02*
X14129645Y-11809645I-50005J5D01*
G01*
X12749645Y-6860355D02*
X12750000Y-7659645D01*
X14179645Y-7759645D02*
X14179645Y-11759645D01*
X11420000Y-7660000D02*
X11420000Y-6860000D01*
X11420000Y-7660000D02*
G75*
G02*
X11370000Y-7710000I-50000J0D01*
G01*
X12800000Y-7709645D02*
G75*
G02*
X12749995Y-7659645I0J50005D01*
G01*
D11*
D12*
X9938000Y-9835000D02*
X9968000Y-9865000D01*
X9968000Y-9835000D02*
X9938000Y-9865000D01*
X9940000Y-10425000D02*
X9970000Y-10455000D01*
X9970000Y-10425000D02*
X9940000Y-10455000D01*
X9943000Y-8620000D02*
X9973000Y-8650000D01*
X9973000Y-8620000D02*
X9943000Y-8650000D01*
X9945000Y-8005000D02*
X9975000Y-8035000D01*
X9975000Y-8005000D02*
X9945000Y-8035000D01*
X9947500Y-9220000D02*
X9977500Y-9250000D01*
X9977500Y-9220000D02*
X9947500Y-9250000D01*
X9950000Y-11312500D02*
X9980000Y-11342500D01*
X9980000Y-11312500D02*
X9950000Y-11342500D01*
X10010000Y-9835000D02*
X10040000Y-9865000D01*
X10040000Y-9835000D02*
X10010000Y-9865000D01*
X10012000Y-10425000D02*
X10042000Y-10455000D01*
X10042000Y-10425000D02*
X10012000Y-10455000D01*
X10015000Y-8620000D02*
X10045000Y-8650000D01*
X10045000Y-8620000D02*
X10015000Y-8650000D01*
X10017000Y-8005000D02*
X10047000Y-8035000D01*
X10047000Y-8005000D02*
X10017000Y-8035000D01*
X10019500Y-9220000D02*
X10049500Y-9250000D01*
X10049500Y-9220000D02*
X10019500Y-9250000D01*
X10022000Y-11312500D02*
X10052000Y-11342500D01*
X10052000Y-11312500D02*
X10022000Y-11342500D01*
X10162500Y-9717500D02*
X10192500Y-9747500D01*
X10192500Y-9717500D02*
X10162500Y-9747500D01*
X10230500Y-8055000D02*
X10260500Y-8085000D01*
X10260500Y-8055000D02*
X10230500Y-8085000D01*
X10233000Y-9267500D02*
X10263000Y-9297500D01*
X10263000Y-9267500D02*
X10233000Y-9297500D01*
X10237500Y-10550000D02*
X10267500Y-10580000D01*
X10267500Y-10550000D02*
X10237500Y-10580000D01*
X10237500Y-10922500D02*
X10267500Y-10952500D01*
X10267500Y-10922500D02*
X10237500Y-10952500D01*
X10238000Y-9960000D02*
X10268000Y-9990000D01*
X10268000Y-9960000D02*
X10238000Y-9990000D01*
X10238000Y-11510000D02*
X10268000Y-11540000D01*
X10268000Y-11510000D02*
X10238000Y-11540000D01*
X10302500Y-8055000D02*
X10332500Y-8085000D01*
X10332500Y-8055000D02*
X10302500Y-8085000D01*
X10305000Y-9267500D02*
X10335000Y-9297500D01*
X10335000Y-9267500D02*
X10305000Y-9297500D01*
X10307500Y-10922500D02*
X10337500Y-10952500D01*
X10337500Y-10922500D02*
X10307500Y-10952500D01*
X10310000Y-9960000D02*
X10340000Y-9990000D01*
X10340000Y-9960000D02*
X10310000Y-9990000D01*
X10310000Y-11510000D02*
X10340000Y-11540000D01*
X10340000Y-11510000D02*
X10310000Y-11540000D01*
X10320000Y-10547500D02*
X10350000Y-10577500D01*
X10350000Y-10547500D02*
X10320000Y-10577500D01*
X10382000Y-8502000D02*
X10412000Y-8532000D01*
X10412000Y-8502000D02*
X10382000Y-8532000D01*
X10497500Y-10480000D02*
X10527500Y-10510000D01*
X10527500Y-10480000D02*
X10497500Y-10510000D01*
X10500000Y-10985000D02*
X10530000Y-11015000D01*
X10530000Y-10985000D02*
X10500000Y-11015000D01*
X10515000Y-8620000D02*
X10545000Y-8650000D01*
X10545000Y-8620000D02*
X10515000Y-8650000D01*
X10517500Y-9262500D02*
X10547500Y-9292500D01*
X10547500Y-9262500D02*
X10517500Y-9292500D01*
X10526000Y-10154000D02*
X10556000Y-10184000D01*
X10556000Y-10154000D02*
X10526000Y-10184000D01*
X10529000Y-11623000D02*
X10559000Y-11653000D01*
X10559000Y-11623000D02*
X10529000Y-11653000D01*
X10565000Y-10515000D02*
X10595000Y-10545000D01*
X10595000Y-10515000D02*
X10565000Y-10545000D01*
X10565000Y-10945000D02*
X10595000Y-10975000D01*
X10595000Y-10945000D02*
X10565000Y-10975000D01*
X10588923Y-9895548D02*
X10618923Y-9925548D01*
X10618923Y-9895548D02*
X10588923Y-9925548D01*
X10645000Y-11075000D02*
X10675000Y-11105000D01*
X10675000Y-11075000D02*
X10645000Y-11105000D01*
X10645000Y-11137500D02*
X10675000Y-11167500D01*
X10675000Y-11137500D02*
X10645000Y-11167500D01*
X10647500Y-10330000D02*
X10677500Y-10360000D01*
X10677500Y-10330000D02*
X10647500Y-10360000D01*
X10647500Y-10392500D02*
X10677500Y-10422500D01*
X10677500Y-10392500D02*
X10647500Y-10422500D01*
X10647500Y-10575000D02*
X10677500Y-10605000D01*
X10677500Y-10575000D02*
X10647500Y-10605000D01*
X10647500Y-10895000D02*
X10677500Y-10925000D01*
X10677500Y-10895000D02*
X10647500Y-10925000D01*
X10667500Y-10735000D02*
X10697500Y-10765000D01*
X10697500Y-10735000D02*
X10667500Y-10765000D01*
X10689105Y-8766500D02*
X10719105Y-8796500D01*
X10719105Y-8766500D02*
X10689105Y-8796500D01*
X10690000Y-9262500D02*
X10720000Y-9292500D01*
X10720000Y-9262500D02*
X10690000Y-9292500D01*
X10705000Y-11145000D02*
X10735000Y-11175000D01*
X10735000Y-11145000D02*
X10705000Y-11175000D01*
X10710000Y-10330000D02*
X10740000Y-10360000D01*
X10740000Y-10330000D02*
X10710000Y-10360000D01*
X10732853Y-10183147D02*
X10762853Y-10213147D01*
X10762853Y-10183147D02*
X10732853Y-10213147D01*
X10737500Y-10665000D02*
X10767500Y-10695000D01*
X10767500Y-10665000D02*
X10737500Y-10695000D01*
X10737500Y-10805000D02*
X10767500Y-10835000D01*
X10767500Y-10805000D02*
X10737500Y-10835000D01*
X10743852Y-11075067D02*
X10773852Y-11105067D01*
X10773852Y-11075067D02*
X10743852Y-11105067D01*
X10777500Y-7870000D02*
X10807500Y-7900000D01*
X10807500Y-7870000D02*
X10777500Y-7900000D01*
X10807500Y-10595000D02*
X10837500Y-10625000D01*
X10837500Y-10595000D02*
X10807500Y-10625000D01*
X10807500Y-10735000D02*
X10837500Y-10765000D01*
X10837500Y-10735000D02*
X10807500Y-10765000D01*
X10807500Y-10875000D02*
X10837500Y-10905000D01*
X10837500Y-10875000D02*
X10807500Y-10905000D01*
X10875000Y-10670000D02*
X10905000Y-10700000D01*
X10905000Y-10670000D02*
X10875000Y-10700000D01*
X10882500Y-10805000D02*
X10912500Y-10835000D01*
X10912500Y-10805000D02*
X10882500Y-10835000D01*
X10890794Y-8953328D02*
X10920794Y-8983328D01*
X10920794Y-8953328D02*
X10890794Y-8983328D01*
X10894206Y-8321672D02*
X10924206Y-8351672D01*
X10924206Y-8321672D02*
X10894206Y-8351672D01*
X10947500Y-10735000D02*
X10977500Y-10765000D01*
X10977500Y-10735000D02*
X10947500Y-10765000D01*
X10955000Y-10882500D02*
X10985000Y-10912500D01*
X10985000Y-10882500D02*
X10955000Y-10912500D01*
X10962500Y-10577500D02*
X10992500Y-10607500D01*
X10992500Y-10577500D02*
X10962500Y-10607500D01*
X11006000Y-10108000D02*
X11036000Y-10138000D01*
X11036000Y-10108000D02*
X11006000Y-10138000D01*
X11012500Y-10417500D02*
X11042500Y-10447500D01*
X11042500Y-10417500D02*
X11012500Y-10447500D01*
X11020000Y-8605000D02*
X11050000Y-8635000D01*
X11050000Y-8605000D02*
X11020000Y-8635000D01*
X11085000Y-7870000D02*
X11115000Y-7900000D01*
X11115000Y-7870000D02*
X11085000Y-7900000D01*
X11101000Y-11413000D02*
X11131000Y-11443000D01*
X11131000Y-11413000D02*
X11101000Y-11443000D01*
X11110000Y-10946000D02*
X11140000Y-10976000D01*
X11140000Y-10946000D02*
X11110000Y-10976000D01*
X11139000Y-11224000D02*
X11169000Y-11254000D01*
X11169000Y-11224000D02*
X11139000Y-11254000D01*
X11147282Y-10790768D02*
X11177282Y-10820768D01*
X11177282Y-10790768D02*
X11147282Y-10820768D01*
X11150000Y-10670768D02*
X11180000Y-10700768D01*
X11180000Y-10670768D02*
X11150000Y-10700768D01*
X11161000Y-11413000D02*
X11191000Y-11443000D01*
X11191000Y-11413000D02*
X11161000Y-11443000D01*
X11166169Y-10868507D02*
X11196169Y-10898507D01*
X11196169Y-10868507D02*
X11166169Y-10898507D01*
X11167500Y-10417500D02*
X11197500Y-10447500D01*
X11197500Y-10417500D02*
X11167500Y-10447500D01*
X11185000Y-9114484D02*
X11215000Y-9144484D01*
X11215000Y-9114484D02*
X11185000Y-9144484D01*
X11200000Y-11224000D02*
X11230000Y-11254000D01*
X11230000Y-11224000D02*
X11200000Y-11254000D01*
X11221000Y-11413000D02*
X11251000Y-11443000D01*
X11251000Y-11413000D02*
X11221000Y-11443000D01*
X11263000Y-10141000D02*
X11293000Y-10171000D01*
X11293000Y-10141000D02*
X11263000Y-10171000D01*
X11263000Y-10213000D02*
X11293000Y-10243000D01*
X11293000Y-10213000D02*
X11263000Y-10243000D01*
X11309163Y-9984800D02*
X11339163Y-10014800D01*
X11339163Y-9984800D02*
X11309163Y-10014800D01*
X11313000Y-10815000D02*
X11343000Y-10845000D01*
X11343000Y-10815000D02*
X11313000Y-10845000D01*
X11323000Y-8820000D02*
X11353000Y-8850000D01*
X11353000Y-8820000D02*
X11323000Y-8850000D01*
X11417500Y-9250000D02*
X11447500Y-9280000D01*
X11447500Y-9250000D02*
X11417500Y-9280000D01*
X11432000Y-10979000D02*
X11462000Y-11009000D01*
X11462000Y-10979000D02*
X11432000Y-11009000D01*
X11454755Y-9647000D02*
X11484755Y-9677000D01*
X11484755Y-9647000D02*
X11454755Y-9677000D01*
X11470000Y-9558000D02*
X11500000Y-9588000D01*
X11500000Y-9558000D02*
X11470000Y-9588000D01*
X11483000Y-8349000D02*
X11513000Y-8379000D01*
X11513000Y-8349000D02*
X11483000Y-8379000D01*
X11485000Y-7370000D02*
X11515000Y-7400000D01*
X11515000Y-7370000D02*
X11485000Y-7400000D01*
X11491777Y-9197056D02*
X11521777Y-9227056D01*
X11521777Y-9197056D02*
X11491777Y-9227056D01*
X11506192Y-9761622D02*
X11536192Y-9791622D01*
X11536192Y-9761622D02*
X11506192Y-9791622D01*
X11512500Y-9112500D02*
X11542500Y-9142500D01*
X11542500Y-9112500D02*
X11512500Y-9142500D01*
X11555000Y-8207500D02*
X11585000Y-8237500D01*
X11585000Y-8207500D02*
X11555000Y-8237500D01*
X11577500Y-8052500D02*
X11607500Y-8082500D01*
X11607500Y-8052500D02*
X11577500Y-8082500D01*
X11613000Y-10362000D02*
X11643000Y-10392000D01*
X11643000Y-10362000D02*
X11613000Y-10392000D01*
X11613000Y-10434000D02*
X11643000Y-10464000D01*
X11643000Y-10434000D02*
X11613000Y-10464000D01*
X11615000Y-9875000D02*
X11645000Y-9905000D01*
X11645000Y-9875000D02*
X11615000Y-9905000D01*
X11642500Y-10027500D02*
X11672500Y-10057500D01*
X11672500Y-10027500D02*
X11642500Y-10057500D01*
X11644000Y-8349000D02*
X11674000Y-8379000D01*
X11674000Y-8349000D02*
X11644000Y-8379000D01*
X11645000Y-8655000D02*
X11675000Y-8685000D01*
X11675000Y-8655000D02*
X11645000Y-8685000D01*
X11665000Y-7174000D02*
X11695000Y-7204000D01*
X11695000Y-7174000D02*
X11665000Y-7204000D01*
X11670000Y-9537500D02*
X11700000Y-9567500D01*
X11700000Y-9537500D02*
X11670000Y-9567500D01*
X11675699Y-9437148D02*
X11705699Y-9467148D01*
X11705699Y-9437148D02*
X11675699Y-9467148D01*
X11709000Y-9877000D02*
X11739000Y-9907000D01*
X11739000Y-9877000D02*
X11709000Y-9907000D01*
X11715000Y-10767500D02*
X11745000Y-10797500D01*
X11745000Y-10767500D02*
X11715000Y-10797500D01*
X11715000Y-10835000D02*
X11745000Y-10865000D01*
X11745000Y-10835000D02*
X11715000Y-10865000D01*
X11744881Y-9642592D02*
X11774881Y-9672592D01*
X11774881Y-9642592D02*
X11744881Y-9672592D01*
X11775000Y-10990000D02*
X11805000Y-11020000D01*
X11805000Y-10990000D02*
X11775000Y-11020000D01*
X11775000Y-11050000D02*
X11805000Y-11080000D01*
X11805000Y-11050000D02*
X11775000Y-11080000D01*
X11800000Y-8215000D02*
X11830000Y-8245000D01*
X11830000Y-8215000D02*
X11800000Y-8245000D01*
X11802500Y-9530000D02*
X11832500Y-9560000D01*
X11832500Y-9530000D02*
X11802500Y-9560000D01*
X11803000Y-8349000D02*
X11833000Y-8379000D01*
X11833000Y-8349000D02*
X11803000Y-8379000D01*
X11805000Y-9315000D02*
X11835000Y-9345000D01*
X11835000Y-9315000D02*
X11805000Y-9345000D01*
X11806846Y-8654733D02*
X11836846Y-8684733D01*
X11836846Y-8654733D02*
X11806846Y-8684733D01*
X11815000Y-9417500D02*
X11845000Y-9447500D01*
X11845000Y-9417500D02*
X11815000Y-9447500D01*
X11847500Y-9655000D02*
X11877500Y-9685000D01*
X11877500Y-9655000D02*
X11847500Y-9685000D01*
X11862500Y-9480000D02*
X11892500Y-9510000D01*
X11892500Y-9480000D02*
X11862500Y-9510000D01*
X11865000Y-9362500D02*
X11895000Y-9392500D01*
X11895000Y-9362500D02*
X11865000Y-9392500D01*
X11870000Y-7101000D02*
X11900000Y-7131000D01*
X11900000Y-7101000D02*
X11870000Y-7131000D01*
X11922500Y-9315000D02*
X11952500Y-9345000D01*
X11952500Y-9315000D02*
X11922500Y-9345000D01*
X11925000Y-9415000D02*
X11955000Y-9445000D01*
X11955000Y-9415000D02*
X11925000Y-9445000D01*
X11925000Y-9532500D02*
X11955000Y-9562500D01*
X11955000Y-9532500D02*
X11925000Y-9562500D01*
X11943929Y-9188000D02*
X11973929Y-9218000D01*
X11973929Y-9188000D02*
X11943929Y-9218000D01*
X11960000Y-7817500D02*
X11990000Y-7847500D01*
X11990000Y-7817500D02*
X11960000Y-7847500D01*
X11975000Y-9967500D02*
X12005000Y-9997500D01*
X12005000Y-9967500D02*
X11975000Y-9997500D01*
X11980000Y-9477500D02*
X12010000Y-9507500D01*
X12010000Y-9477500D02*
X11980000Y-9507500D01*
X11982500Y-9360000D02*
X12012500Y-9390000D01*
X12012500Y-9360000D02*
X11982500Y-9390000D01*
X12020000Y-7820000D02*
X12050000Y-7850000D01*
X12050000Y-7820000D02*
X12020000Y-7850000D01*
X12039309Y-10258069D02*
X12069309Y-10288069D01*
X12069309Y-10258069D02*
X12039309Y-10288069D01*
X12040000Y-9412500D02*
X12070000Y-9442500D01*
X12070000Y-9412500D02*
X12040000Y-9442500D01*
X12042500Y-9525000D02*
X12072500Y-9555000D01*
X12072500Y-9525000D02*
X12042500Y-9555000D01*
X12045000Y-9310000D02*
X12075000Y-9340000D01*
X12075000Y-9310000D02*
X12045000Y-9340000D01*
X12050000Y-7515000D02*
X12080000Y-7545000D01*
X12080000Y-7515000D02*
X12050000Y-7545000D01*
X12052500Y-7580000D02*
X12082500Y-7610000D01*
X12082500Y-7580000D02*
X12052500Y-7610000D01*
X12055000Y-7647500D02*
X12085000Y-7677500D01*
X12085000Y-7647500D02*
X12055000Y-7677500D01*
X12055000Y-7707500D02*
X12085000Y-7737500D01*
X12085000Y-7707500D02*
X12055000Y-7737500D01*
X12055000Y-7767500D02*
X12085000Y-7797500D01*
X12085000Y-7767500D02*
X12055000Y-7797500D01*
X12062000Y-7135000D02*
X12092000Y-7165000D01*
X12092000Y-7135000D02*
X12062000Y-7165000D01*
X12082500Y-11017500D02*
X12112500Y-11047500D01*
X12112500Y-11017500D02*
X12082500Y-11047500D01*
X12100000Y-9182500D02*
X12130000Y-9212500D01*
X12130000Y-9182500D02*
X12100000Y-9212500D01*
X12137500Y-10765500D02*
X12167500Y-10795500D01*
X12167500Y-10765500D02*
X12137500Y-10795500D01*
X12137500Y-10837500D02*
X12167500Y-10867500D01*
X12167500Y-10837500D02*
X12137500Y-10867500D01*
X12175000Y-9952500D02*
X12205000Y-9982500D01*
X12205000Y-9952500D02*
X12175000Y-9982500D01*
X12178857Y-9675225D02*
X12208857Y-9705225D01*
X12208857Y-9675225D02*
X12178857Y-9705225D01*
X12189845Y-9218169D02*
X12219845Y-9248169D01*
X12219845Y-9218169D02*
X12189845Y-9248169D01*
X12200000Y-10258069D02*
X12230000Y-10288069D01*
X12230000Y-10258069D02*
X12200000Y-10288069D01*
X12244000Y-8653000D02*
X12274000Y-8683000D01*
X12274000Y-8653000D02*
X12244000Y-8683000D01*
X12247500Y-6892500D02*
X12277500Y-6922500D01*
X12277500Y-6892500D02*
X12247500Y-6922500D01*
X12250000Y-6957500D02*
X12280000Y-6987500D01*
X12280000Y-6957500D02*
X12250000Y-6987500D01*
X12250000Y-7542500D02*
X12280000Y-7572500D01*
X12280000Y-7542500D02*
X12250000Y-7572500D01*
X12250000Y-7612500D02*
X12280000Y-7642500D01*
X12280000Y-7612500D02*
X12250000Y-7642500D01*
X12250000Y-7682500D02*
X12280000Y-7712500D01*
X12280000Y-7682500D02*
X12250000Y-7712500D01*
X12250000Y-7750000D02*
X12280000Y-7780000D01*
X12280000Y-7750000D02*
X12250000Y-7780000D01*
X12252500Y-7025000D02*
X12282500Y-7055000D01*
X12282500Y-7025000D02*
X12252500Y-7055000D01*
X12252500Y-7085000D02*
X12282500Y-7115000D01*
X12282500Y-7085000D02*
X12252500Y-7115000D01*
X12252500Y-7145000D02*
X12282500Y-7175000D01*
X12282500Y-7145000D02*
X12252500Y-7175000D01*
X12370000Y-7815000D02*
X12400000Y-7845000D01*
X12400000Y-7815000D02*
X12370000Y-7845000D01*
X12393062Y-9480000D02*
X12423062Y-9510000D01*
X12423062Y-9480000D02*
X12393062Y-9510000D01*
X12410000Y-9560000D02*
X12440000Y-9590000D01*
X12440000Y-9560000D02*
X12410000Y-9590000D01*
X12419000Y-8654000D02*
X12449000Y-8684000D01*
X12449000Y-8654000D02*
X12419000Y-8684000D01*
X12422500Y-8960000D02*
X12452500Y-8990000D01*
X12452500Y-8960000D02*
X12422500Y-8990000D01*
X12440000Y-9693364D02*
X12470000Y-9723364D01*
X12470000Y-9693364D02*
X12440000Y-9723364D01*
X12442502Y-9222186D02*
X12472502Y-9252186D01*
X12472502Y-9222186D02*
X12442502Y-9252186D01*
X12451500Y-9047500D02*
X12481500Y-9077500D01*
X12481500Y-9047500D02*
X12451500Y-9077500D01*
X12452500Y-7647500D02*
X12482500Y-7677500D01*
X12482500Y-7647500D02*
X12452500Y-7677500D01*
X12452500Y-7707500D02*
X12482500Y-7737500D01*
X12482500Y-7707500D02*
X12452500Y-7737500D01*
X12452500Y-7770000D02*
X12482500Y-7800000D01*
X12482500Y-7770000D02*
X12452500Y-7800000D01*
X12455000Y-7527500D02*
X12485000Y-7557500D01*
X12485000Y-7527500D02*
X12455000Y-7557500D01*
X12455000Y-7587500D02*
X12485000Y-7617500D01*
X12485000Y-7587500D02*
X12455000Y-7617500D01*
X12537000Y-10387500D02*
X12567000Y-10417500D01*
X12567000Y-10387500D02*
X12537000Y-10417500D01*
X12537500Y-10812500D02*
X12567500Y-10842500D01*
X12567500Y-10812500D02*
X12537500Y-10842500D01*
X12541000Y-11014000D02*
X12571000Y-11044000D01*
X12571000Y-11014000D02*
X12541000Y-11044000D01*
X12567500Y-7817500D02*
X12597500Y-7847500D01*
X12597500Y-7817500D02*
X12567500Y-7847500D01*
X12580000Y-8410000D02*
X12610000Y-8440000D01*
X12610000Y-8410000D02*
X12580000Y-8440000D01*
X12625000Y-10920000D02*
X12655000Y-10950000D01*
X12655000Y-10920000D02*
X12625000Y-10950000D01*
X12650000Y-7565000D02*
X12680000Y-7595000D01*
X12680000Y-7565000D02*
X12650000Y-7595000D01*
X12650000Y-7635000D02*
X12680000Y-7665000D01*
X12680000Y-7635000D02*
X12650000Y-7665000D01*
X12650000Y-7710000D02*
X12680000Y-7740000D01*
X12680000Y-7710000D02*
X12650000Y-7740000D01*
X12650000Y-7797500D02*
X12680000Y-7827500D01*
X12680000Y-7797500D02*
X12650000Y-7827500D01*
X12651000Y-7504000D02*
X12681000Y-7534000D01*
X12681000Y-7504000D02*
X12651000Y-7534000D01*
X12657500Y-8332500D02*
X12687500Y-8362500D01*
X12687500Y-8332500D02*
X12657500Y-8362500D01*
X12657500Y-8640000D02*
X12687500Y-8670000D01*
X12687500Y-8640000D02*
X12657500Y-8670000D01*
X12669000Y-9986000D02*
X12699000Y-10016000D01*
X12699000Y-9986000D02*
X12669000Y-10016000D01*
X12688000Y-10345000D02*
X12718000Y-10375000D01*
X12718000Y-10345000D02*
X12688000Y-10375000D01*
X12695000Y-11015000D02*
X12725000Y-11045000D01*
X12725000Y-11015000D02*
X12695000Y-11045000D01*
X12710000Y-10804000D02*
X12740000Y-10834000D01*
X12740000Y-10804000D02*
X12710000Y-10834000D01*
X12715000Y-9588000D02*
X12745000Y-9618000D01*
X12745000Y-9588000D02*
X12715000Y-9618000D01*
X12729000Y-9986000D02*
X12759000Y-10016000D01*
X12759000Y-9986000D02*
X12729000Y-10016000D01*
X12748000Y-9218000D02*
X12778000Y-9248000D01*
X12778000Y-9218000D02*
X12748000Y-9248000D01*
X12756000Y-9044000D02*
X12786000Y-9074000D01*
X12786000Y-9044000D02*
X12756000Y-9074000D01*
X12760000Y-10345000D02*
X12790000Y-10375000D01*
X12790000Y-10345000D02*
X12760000Y-10375000D01*
X12789000Y-9986000D02*
X12819000Y-10016000D01*
X12819000Y-9986000D02*
X12789000Y-10016000D01*
X12830000Y-10540000D02*
X12860000Y-10570000D01*
X12860000Y-10540000D02*
X12830000Y-10570000D01*
X12850000Y-11015000D02*
X12880000Y-11045000D01*
X12880000Y-11015000D02*
X12850000Y-11045000D01*
X12853000Y-11322000D02*
X12883000Y-11352000D01*
X12883000Y-11322000D02*
X12853000Y-11352000D01*
X12882500Y-10455000D02*
X12912500Y-10485000D01*
X12912500Y-10455000D02*
X12882500Y-10485000D01*
X12926000Y-11550000D02*
X12956000Y-11580000D01*
X12956000Y-11550000D02*
X12926000Y-11580000D01*
X12950000Y-10602500D02*
X12980000Y-10632500D01*
X12980000Y-10602500D02*
X12950000Y-10632500D01*
X12952500Y-10870000D02*
X12982500Y-10900000D01*
X12982500Y-10870000D02*
X12952500Y-10900000D01*
X12955000Y-10742500D02*
X12985000Y-10772500D01*
X12985000Y-10742500D02*
X12955000Y-10772500D01*
X12965905Y-11158849D02*
X12995905Y-11188849D01*
X12995905Y-11158849D02*
X12965905Y-11188849D01*
X12970804Y-11078999D02*
X13000804Y-11108999D01*
X13000804Y-11078999D02*
X12970804Y-11108999D01*
X12995000Y-8482500D02*
X13025000Y-8512500D01*
X13025000Y-8482500D02*
X12995000Y-8512500D01*
X13030000Y-8005000D02*
X13060000Y-8035000D01*
X13060000Y-8005000D02*
X13030000Y-8035000D01*
X13040000Y-8330000D02*
X13070000Y-8360000D01*
X13070000Y-8330000D02*
X13040000Y-8360000D01*
X13050000Y-8632500D02*
X13080000Y-8662500D01*
X13080000Y-8632500D02*
X13050000Y-8662500D01*
X13100074Y-11085805D02*
X13130074Y-11115805D01*
X13130074Y-11085805D02*
X13100074Y-11115805D01*
X13102500Y-8330000D02*
X13132500Y-8360000D01*
X13132500Y-8330000D02*
X13102500Y-8360000D01*
X13112500Y-8632500D02*
X13142500Y-8662500D01*
X13142500Y-8632500D02*
X13112500Y-8662500D01*
X13137500Y-10732500D02*
X13167500Y-10762500D01*
X13167500Y-10732500D02*
X13137500Y-10762500D01*
X13155000Y-9277500D02*
X13185000Y-9307500D01*
X13185000Y-9277500D02*
X13155000Y-9307500D01*
X13157500Y-8400000D02*
X13187500Y-8430000D01*
X13187500Y-8400000D02*
X13157500Y-8430000D01*
X13160000Y-10890000D02*
X13190000Y-10920000D01*
X13190000Y-10890000D02*
X13160000Y-10920000D01*
X13165000Y-10602500D02*
X13195000Y-10632500D01*
X13195000Y-10602500D02*
X13165000Y-10632500D01*
X13170395Y-8465000D02*
X13200395Y-8495000D01*
X13200395Y-8465000D02*
X13170395Y-8495000D01*
X13205000Y-10815000D02*
X13235000Y-10845000D01*
X13235000Y-10815000D02*
X13205000Y-10845000D01*
X13206000Y-11151000D02*
X13236000Y-11181000D01*
X13236000Y-11151000D02*
X13206000Y-11181000D01*
X13210000Y-10338000D02*
X13240000Y-10368000D01*
X13240000Y-10338000D02*
X13210000Y-10368000D01*
X13240000Y-8640000D02*
X13270000Y-8670000D01*
X13270000Y-8640000D02*
X13240000Y-8670000D01*
X13245000Y-9275000D02*
X13275000Y-9305000D01*
X13275000Y-9275000D02*
X13245000Y-9305000D01*
X13250000Y-10690000D02*
X13280000Y-10720000D01*
X13280000Y-10690000D02*
X13250000Y-10720000D01*
X13255347Y-9195672D02*
X13285347Y-9225672D01*
X13285347Y-9195672D02*
X13255347Y-9225672D01*
X13257500Y-10585000D02*
X13287500Y-10615000D01*
X13287500Y-10585000D02*
X13257500Y-10615000D01*
X13267000Y-11080000D02*
X13297000Y-11110000D01*
X13297000Y-11080000D02*
X13267000Y-11110000D01*
X13267000Y-11151000D02*
X13297000Y-11181000D01*
X13297000Y-11151000D02*
X13267000Y-11181000D01*
X13267500Y-10902500D02*
X13297500Y-10932500D01*
X13297500Y-10902500D02*
X13267500Y-10932500D01*
X13271000Y-10338000D02*
X13301000Y-10368000D01*
X13301000Y-10338000D02*
X13271000Y-10368000D01*
X13271000Y-10404000D02*
X13301000Y-10434000D01*
X13301000Y-10404000D02*
X13271000Y-10434000D01*
X13313000Y-11631000D02*
X13343000Y-11661000D01*
X13343000Y-11631000D02*
X13313000Y-11661000D01*
X13345500Y-10527000D02*
X13375500Y-10557000D01*
X13375500Y-10527000D02*
X13345500Y-10557000D01*
X13345500Y-10957000D02*
X13375500Y-10987000D01*
X13375500Y-10957000D02*
X13345500Y-10987000D01*
X13383000Y-9833000D02*
X13413000Y-9863000D01*
X13413000Y-9833000D02*
X13383000Y-9863000D01*
X13385000Y-11322000D02*
X13415000Y-11352000D01*
X13415000Y-11322000D02*
X13385000Y-11352000D01*
X13410500Y-10997000D02*
X13440500Y-11027000D01*
X13440500Y-10997000D02*
X13410500Y-11027000D01*
X13413000Y-10492000D02*
X13443000Y-10522000D01*
X13443000Y-10492000D02*
X13413000Y-10522000D01*
X13436000Y-9407500D02*
X13466000Y-9437500D01*
X13466000Y-9407500D02*
X13436000Y-9437500D01*
X13436000Y-9635000D02*
X13466000Y-9665000D01*
X13466000Y-9635000D02*
X13436000Y-9665000D01*
X13462000Y-11247000D02*
X13492000Y-11277000D01*
X13492000Y-11247000D02*
X13462000Y-11277000D01*
X13501500Y-8030000D02*
X13531500Y-8060000D01*
X13531500Y-8030000D02*
X13501500Y-8060000D01*
X13520000Y-9032500D02*
X13550000Y-9062500D01*
X13550000Y-9032500D02*
X13520000Y-9062500D01*
X13525000Y-9245000D02*
X13555000Y-9275000D01*
X13555000Y-9245000D02*
X13525000Y-9275000D01*
X13527500Y-9095000D02*
X13557500Y-9125000D01*
X13557500Y-9095000D02*
X13527500Y-9125000D01*
X13527500Y-9180000D02*
X13557500Y-9210000D01*
X13557500Y-9180000D02*
X13527500Y-9210000D01*
X13545000Y-9960000D02*
X13575000Y-9990000D01*
X13575000Y-9960000D02*
X13545000Y-9990000D01*
X13580000Y-9015000D02*
X13610000Y-9045000D01*
X13610000Y-9015000D02*
X13580000Y-9045000D01*
X13598000Y-11520000D02*
X13628000Y-11550000D01*
X13628000Y-11520000D02*
X13598000Y-11550000D01*
X13602500Y-9210000D02*
X13632500Y-9240000D01*
X13632500Y-9210000D02*
X13602500Y-9240000D01*
X13610000Y-10933000D02*
X13640000Y-10963000D01*
X13640000Y-10933000D02*
X13610000Y-10963000D01*
X13612000Y-10556000D02*
X13642000Y-10586000D01*
X13642000Y-10556000D02*
X13612000Y-10586000D01*
X13617000Y-9960000D02*
X13647000Y-9990000D01*
X13647000Y-9960000D02*
X13617000Y-9990000D01*
X13642500Y-9015000D02*
X13672500Y-9045000D01*
X13672500Y-9015000D02*
X13642500Y-9045000D01*
X13670000Y-11520000D02*
X13700000Y-11550000D01*
X13700000Y-11520000D02*
X13670000Y-11550000D01*
X13671000Y-10933000D02*
X13701000Y-10963000D01*
X13701000Y-10933000D02*
X13671000Y-10963000D01*
X13672500Y-9210000D02*
X13702500Y-9240000D01*
X13702500Y-9210000D02*
X13672500Y-9240000D01*
X13673000Y-10556000D02*
X13703000Y-10586000D01*
X13703000Y-10556000D02*
X13673000Y-10586000D01*
X13705000Y-9012500D02*
X13735000Y-9042500D01*
X13735000Y-9012500D02*
X13705000Y-9042500D01*
X13750000Y-9247500D02*
X13780000Y-9277500D01*
X13780000Y-9247500D02*
X13750000Y-9277500D01*
X13765000Y-9032500D02*
X13795000Y-9062500D01*
X13795000Y-9032500D02*
X13765000Y-9062500D01*
X13765000Y-9095000D02*
X13795000Y-9125000D01*
X13795000Y-9095000D02*
X13765000Y-9125000D01*
X13770000Y-9340000D02*
X13800000Y-9370000D01*
X13800000Y-9340000D02*
X13770000Y-9370000D01*
X13772500Y-9710000D02*
X13802500Y-9740000D01*
X13802500Y-9710000D02*
X13772500Y-9740000D01*
X13775000Y-8030000D02*
X13805000Y-8060000D01*
X13805000Y-8030000D02*
X13775000Y-8060000D01*
X13775000Y-8102000D02*
X13805000Y-8132000D01*
X13805000Y-8102000D02*
X13775000Y-8132000D01*
X13775000Y-8225000D02*
X13805000Y-8255000D01*
X13805000Y-8225000D02*
X13775000Y-8255000D01*
X13775000Y-8297000D02*
X13805000Y-8327000D01*
X13805000Y-8297000D02*
X13775000Y-8327000D01*
X13885500Y-9830000D02*
X13915500Y-9860000D01*
X13915500Y-9830000D02*
X13885500Y-9860000D01*
X13893000Y-8695000D02*
X13923000Y-8725000D01*
X13923000Y-8695000D02*
X13893000Y-8725000D01*
X13895000Y-10437500D02*
X13925000Y-10467500D01*
X13925000Y-10437500D02*
X13895000Y-10467500D01*
X13902500Y-11322500D02*
X13932500Y-11352500D01*
X13932500Y-11322500D02*
X13902500Y-11352500D01*
X13957500Y-9830000D02*
X13987500Y-9860000D01*
X13987500Y-9830000D02*
X13957500Y-9860000D01*
X13965000Y-8695000D02*
X13995000Y-8725000D01*
X13995000Y-8695000D02*
X13965000Y-8725000D01*
X13967000Y-10437500D02*
X13997000Y-10467500D01*
X13997000Y-10437500D02*
X13967000Y-10467500D01*
X13974500Y-11322500D02*
X14004500Y-11352500D01*
X14004500Y-11322500D02*
X13974500Y-11352500D01*
X13650500Y-7932500D02*
G75*
G02*
X13585500Y-7932500I-32500J0D01*
G01*
X13585500Y-7932500D02*
G75*
G02*
X13650500Y-7932500I32500J0D01*
G01*
X13638000Y-7900000D02*
X13598000Y-7900000D01*
X13598000Y-7965000D02*
G75*
G02*
X13598000Y-7900000I0J32500D01*
G01*
X13598000Y-7965000D02*
X13638000Y-7965000D01*
X13638000Y-7965000D02*
G75*
G03*
X13638000Y-7900000I0J32500D01*
G01*
X13650500Y-8416500D02*
G75*
G02*
X13585500Y-8416500I-32500J0D01*
G01*
X13585500Y-8416500D02*
G75*
G02*
X13650500Y-8416500I32500J0D01*
G01*
X13638000Y-8384000D02*
X13598000Y-8384000D01*
X13598000Y-8449000D02*
G75*
G02*
X13598000Y-8384000I0J32500D01*
G01*
X13598000Y-8449000D02*
X13638000Y-8449000D01*
X13638000Y-8449000D02*
G75*
G03*
X13638000Y-8384000I0J32500D01*
G01*
X13918000Y-7866500D02*
X13918000Y-7936500D01*
X13883000Y-7901500D02*
X13953000Y-7901500D01*
X13943000Y-7866500D02*
X13893000Y-7866500D01*
X13893000Y-7936500D02*
G75*
G02*
X13893000Y-7866500I0J35000D01*
G01*
X13893000Y-7936500D02*
X13943000Y-7936500D01*
X13943000Y-7936500D02*
G75*
G03*
X13943000Y-7866500I0J35000D01*
G01*
X13918000Y-8412500D02*
X13918000Y-8482500D01*
X13883000Y-8447500D02*
X13953000Y-8447500D01*
X13943000Y-8412500D02*
X13893000Y-8412500D01*
X13893000Y-8482500D02*
G75*
G02*
X13893000Y-8412500I0J35000D01*
G01*
X13893000Y-8482500D02*
X13943000Y-8482500D01*
X13943000Y-8482500D02*
G75*
G03*
X13943000Y-8412500I0J35000D01*
G01*
X11855356Y-11400356D02*
X11855356Y-11329644D01*
X11784644Y-11329644D01*
X11784644Y-11400356D01*
X11855356Y-11400356D01*
X12109356Y-11400356D02*
X12109356Y-11329644D01*
X12038644Y-11329644D01*
X12038644Y-11400356D01*
X12109356Y-11400356D01*
D11*
X10019444Y-12123628D02*
X10019444Y-11923628D01*
X10019444Y-11923628D02*
X10067063Y-11923628D01*
X10067063Y-11923628D02*
X10095634Y-11933152D01*
X10095634Y-11933152D02*
X10114682Y-11952200D01*
X10114682Y-11952200D02*
X10124206Y-11971247D01*
X10124206Y-11971247D02*
X10133730Y-12009343D01*
X10133730Y-12009343D02*
X10133730Y-12037914D01*
X10133730Y-12037914D02*
X10124206Y-12076009D01*
X10124206Y-12076009D02*
X10114682Y-12095057D01*
X10114682Y-12095057D02*
X10095634Y-12114105D01*
X10095634Y-12114105D02*
X10067063Y-12123628D01*
X10067063Y-12123628D02*
X10019444Y-12123628D01*
X10219444Y-12123628D02*
X10219444Y-11990295D01*
X10219444Y-12028390D02*
X10228968Y-12009343D01*
X10228968Y-12009343D02*
X10238492Y-11999819D01*
X10238492Y-11999819D02*
X10257539Y-11990295D01*
X10257539Y-11990295D02*
X10276587Y-11990295D01*
X10343253Y-12123628D02*
X10343253Y-11990295D01*
X10343253Y-11923628D02*
X10333730Y-11933152D01*
X10333730Y-11933152D02*
X10343253Y-11942676D01*
X10343253Y-11942676D02*
X10352777Y-11933152D01*
X10352777Y-11933152D02*
X10343253Y-11923628D01*
X10343253Y-11923628D02*
X10343253Y-11942676D01*
X10467063Y-12123628D02*
X10448015Y-12114105D01*
X10448015Y-12114105D02*
X10438492Y-12095057D01*
X10438492Y-12095057D02*
X10438492Y-11923628D01*
X10571825Y-12123628D02*
X10552777Y-12114105D01*
X10552777Y-12114105D02*
X10543253Y-12095057D01*
X10543253Y-12095057D02*
X10543253Y-11923628D01*
X10800396Y-12123628D02*
X10800396Y-11923628D01*
X10800396Y-11923628D02*
X10867063Y-12066486D01*
X10867063Y-12066486D02*
X10933730Y-11923628D01*
X10933730Y-11923628D02*
X10933730Y-12123628D01*
X11114682Y-12123628D02*
X11114682Y-12018867D01*
X11114682Y-12018867D02*
X11105158Y-11999819D01*
X11105158Y-11999819D02*
X11086111Y-11990295D01*
X11086111Y-11990295D02*
X11048015Y-11990295D01*
X11048015Y-11990295D02*
X11028968Y-11999819D01*
X11114682Y-12114105D02*
X11095634Y-12123628D01*
X11095634Y-12123628D02*
X11048015Y-12123628D01*
X11048015Y-12123628D02*
X11028968Y-12114105D01*
X11028968Y-12114105D02*
X11019444Y-12095057D01*
X11019444Y-12095057D02*
X11019444Y-12076009D01*
X11019444Y-12076009D02*
X11028968Y-12056962D01*
X11028968Y-12056962D02*
X11048015Y-12047438D01*
X11048015Y-12047438D02*
X11095634Y-12047438D01*
X11095634Y-12047438D02*
X11114682Y-12037914D01*
X11209920Y-11990295D02*
X11209920Y-12190295D01*
X11209920Y-11999819D02*
X11228968Y-11990295D01*
X11228968Y-11990295D02*
X11267063Y-11990295D01*
X11267063Y-11990295D02*
X11286111Y-11999819D01*
X11286111Y-11999819D02*
X11295634Y-12009343D01*
X11295634Y-12009343D02*
X11305158Y-12028390D01*
X11305158Y-12028390D02*
X11305158Y-12085533D01*
X11305158Y-12085533D02*
X11295634Y-12104581D01*
X11295634Y-12104581D02*
X11286111Y-12114105D01*
X11286111Y-12114105D02*
X11267063Y-12123628D01*
X11267063Y-12123628D02*
X11228968Y-12123628D01*
X11228968Y-12123628D02*
X11209920Y-12114105D01*
X11390872Y-12104581D02*
X11400396Y-12114105D01*
X11400396Y-12114105D02*
X11390872Y-12123628D01*
X11390872Y-12123628D02*
X11381349Y-12114105D01*
X11381349Y-12114105D02*
X11390872Y-12104581D01*
X11390872Y-12104581D02*
X11390872Y-12123628D01*
X11390872Y-11999819D02*
X11400396Y-12009343D01*
X11400396Y-12009343D02*
X11390872Y-12018867D01*
X11390872Y-12018867D02*
X11381349Y-12009343D01*
X11381349Y-12009343D02*
X11390872Y-11999819D01*
X11390872Y-11999819D02*
X11390872Y-12018867D01*
D12*
X9728667Y-12437145D02*
X9758667Y-12467145D01*
X9758667Y-12437145D02*
X9728667Y-12467145D01*
D11*
X10057539Y-12343628D02*
X10076587Y-12343628D01*
X10076587Y-12343628D02*
X10095634Y-12353152D01*
X10095634Y-12353152D02*
X10105158Y-12362676D01*
X10105158Y-12362676D02*
X10114682Y-12381724D01*
X10114682Y-12381724D02*
X10124206Y-12419819D01*
X10124206Y-12419819D02*
X10124206Y-12467438D01*
X10124206Y-12467438D02*
X10114682Y-12505533D01*
X10114682Y-12505533D02*
X10105158Y-12524581D01*
X10105158Y-12524581D02*
X10095634Y-12534105D01*
X10095634Y-12534105D02*
X10076587Y-12543628D01*
X10076587Y-12543628D02*
X10057539Y-12543628D01*
X10057539Y-12543628D02*
X10038492Y-12534105D01*
X10038492Y-12534105D02*
X10028968Y-12524581D01*
X10028968Y-12524581D02*
X10019444Y-12505533D01*
X10019444Y-12505533D02*
X10009920Y-12467438D01*
X10009920Y-12467438D02*
X10009920Y-12419819D01*
X10009920Y-12419819D02*
X10019444Y-12381724D01*
X10019444Y-12381724D02*
X10028968Y-12362676D01*
X10028968Y-12362676D02*
X10038492Y-12353152D01*
X10038492Y-12353152D02*
X10057539Y-12343628D01*
X10209920Y-12524581D02*
X10219444Y-12534105D01*
X10219444Y-12534105D02*
X10209920Y-12543628D01*
X10209920Y-12543628D02*
X10200396Y-12534105D01*
X10200396Y-12534105D02*
X10209920Y-12524581D01*
X10209920Y-12524581D02*
X10209920Y-12543628D01*
X10286111Y-12343628D02*
X10409920Y-12343628D01*
X10409920Y-12343628D02*
X10343253Y-12419819D01*
X10343253Y-12419819D02*
X10371825Y-12419819D01*
X10371825Y-12419819D02*
X10390873Y-12429343D01*
X10390873Y-12429343D02*
X10400396Y-12438867D01*
X10400396Y-12438867D02*
X10409920Y-12457914D01*
X10409920Y-12457914D02*
X10409920Y-12505533D01*
X10409920Y-12505533D02*
X10400396Y-12524581D01*
X10400396Y-12524581D02*
X10390873Y-12534105D01*
X10390873Y-12534105D02*
X10371825Y-12543628D01*
X10371825Y-12543628D02*
X10314682Y-12543628D01*
X10314682Y-12543628D02*
X10295634Y-12534105D01*
X10295634Y-12534105D02*
X10286111Y-12524581D01*
X10533730Y-12343628D02*
X10552777Y-12343628D01*
X10552777Y-12343628D02*
X10571825Y-12353152D01*
X10571825Y-12353152D02*
X10581349Y-12362676D01*
X10581349Y-12362676D02*
X10590873Y-12381724D01*
X10590873Y-12381724D02*
X10600396Y-12419819D01*
X10600396Y-12419819D02*
X10600396Y-12467438D01*
X10600396Y-12467438D02*
X10590873Y-12505533D01*
X10590873Y-12505533D02*
X10581349Y-12524581D01*
X10581349Y-12524581D02*
X10571825Y-12534105D01*
X10571825Y-12534105D02*
X10552777Y-12543628D01*
X10552777Y-12543628D02*
X10533730Y-12543628D01*
X10533730Y-12543628D02*
X10514682Y-12534105D01*
X10514682Y-12534105D02*
X10505158Y-12524581D01*
X10505158Y-12524581D02*
X10495634Y-12505533D01*
X10495634Y-12505533D02*
X10486111Y-12467438D01*
X10486111Y-12467438D02*
X10486111Y-12419819D01*
X10486111Y-12419819D02*
X10495634Y-12381724D01*
X10495634Y-12381724D02*
X10505158Y-12362676D01*
X10505158Y-12362676D02*
X10514682Y-12353152D01*
X10514682Y-12353152D02*
X10533730Y-12343628D01*
X10724206Y-12343628D02*
X10743254Y-12343628D01*
X10743254Y-12343628D02*
X10762301Y-12353152D01*
X10762301Y-12353152D02*
X10771825Y-12362676D01*
X10771825Y-12362676D02*
X10781349Y-12381724D01*
X10781349Y-12381724D02*
X10790873Y-12419819D01*
X10790873Y-12419819D02*
X10790873Y-12467438D01*
X10790873Y-12467438D02*
X10781349Y-12505533D01*
X10781349Y-12505533D02*
X10771825Y-12524581D01*
X10771825Y-12524581D02*
X10762301Y-12534105D01*
X10762301Y-12534105D02*
X10743254Y-12543628D01*
X10743254Y-12543628D02*
X10724206Y-12543628D01*
X10724206Y-12543628D02*
X10705158Y-12534105D01*
X10705158Y-12534105D02*
X10695634Y-12524581D01*
X10695634Y-12524581D02*
X10686111Y-12505533D01*
X10686111Y-12505533D02*
X10676587Y-12467438D01*
X10676587Y-12467438D02*
X10676587Y-12419819D01*
X10676587Y-12419819D02*
X10686111Y-12381724D01*
X10686111Y-12381724D02*
X10695634Y-12362676D01*
X10695634Y-12362676D02*
X10705158Y-12353152D01*
X10705158Y-12353152D02*
X10724206Y-12343628D01*
X10876587Y-12543628D02*
X10876587Y-12410295D01*
X10876587Y-12429343D02*
X10886111Y-12419819D01*
X10886111Y-12419819D02*
X10905158Y-12410295D01*
X10905158Y-12410295D02*
X10933730Y-12410295D01*
X10933730Y-12410295D02*
X10952777Y-12419819D01*
X10952777Y-12419819D02*
X10962301Y-12438867D01*
X10962301Y-12438867D02*
X10962301Y-12543628D01*
X10962301Y-12438867D02*
X10971825Y-12419819D01*
X10971825Y-12419819D02*
X10990873Y-12410295D01*
X10990873Y-12410295D02*
X11019444Y-12410295D01*
X11019444Y-12410295D02*
X11038492Y-12419819D01*
X11038492Y-12419819D02*
X11048015Y-12438867D01*
X11048015Y-12438867D02*
X11048015Y-12543628D01*
X11143254Y-12543628D02*
X11143254Y-12410295D01*
X11143254Y-12429343D02*
X11152777Y-12419819D01*
X11152777Y-12419819D02*
X11171825Y-12410295D01*
X11171825Y-12410295D02*
X11200396Y-12410295D01*
X11200396Y-12410295D02*
X11219444Y-12419819D01*
X11219444Y-12419819D02*
X11228968Y-12438867D01*
X11228968Y-12438867D02*
X11228968Y-12543628D01*
X11228968Y-12438867D02*
X11238492Y-12419819D01*
X11238492Y-12419819D02*
X11257539Y-12410295D01*
X11257539Y-12410295D02*
X11286111Y-12410295D01*
X11286111Y-12410295D02*
X11305158Y-12419819D01*
X11305158Y-12419819D02*
X11314682Y-12438867D01*
X11314682Y-12438867D02*
X11314682Y-12543628D01*
X11705158Y-12334105D02*
X11533730Y-12591247D01*
X11962301Y-12343628D02*
X11981349Y-12343628D01*
X11981349Y-12343628D02*
X12000396Y-12353152D01*
X12000396Y-12353152D02*
X12009920Y-12362676D01*
X12009920Y-12362676D02*
X12019444Y-12381724D01*
X12019444Y-12381724D02*
X12028968Y-12419819D01*
X12028968Y-12419819D02*
X12028968Y-12467438D01*
X12028968Y-12467438D02*
X12019444Y-12505533D01*
X12019444Y-12505533D02*
X12009920Y-12524581D01*
X12009920Y-12524581D02*
X12000396Y-12534105D01*
X12000396Y-12534105D02*
X11981349Y-12543628D01*
X11981349Y-12543628D02*
X11962301Y-12543628D01*
X11962301Y-12543628D02*
X11943254Y-12534105D01*
X11943254Y-12534105D02*
X11933730Y-12524581D01*
X11933730Y-12524581D02*
X11924206Y-12505533D01*
X11924206Y-12505533D02*
X11914682Y-12467438D01*
X11914682Y-12467438D02*
X11914682Y-12419819D01*
X11914682Y-12419819D02*
X11924206Y-12381724D01*
X11924206Y-12381724D02*
X11933730Y-12362676D01*
X11933730Y-12362676D02*
X11943254Y-12353152D01*
X11943254Y-12353152D02*
X11962301Y-12343628D01*
X12114682Y-12524581D02*
X12124206Y-12534105D01*
X12124206Y-12534105D02*
X12114682Y-12543628D01*
X12114682Y-12543628D02*
X12105158Y-12534105D01*
X12105158Y-12534105D02*
X12114682Y-12524581D01*
X12114682Y-12524581D02*
X12114682Y-12543628D01*
X12248015Y-12343628D02*
X12267063Y-12343628D01*
X12267063Y-12343628D02*
X12286111Y-12353152D01*
X12286111Y-12353152D02*
X12295635Y-12362676D01*
X12295635Y-12362676D02*
X12305158Y-12381724D01*
X12305158Y-12381724D02*
X12314682Y-12419819D01*
X12314682Y-12419819D02*
X12314682Y-12467438D01*
X12314682Y-12467438D02*
X12305158Y-12505533D01*
X12305158Y-12505533D02*
X12295635Y-12524581D01*
X12295635Y-12524581D02*
X12286111Y-12534105D01*
X12286111Y-12534105D02*
X12267063Y-12543628D01*
X12267063Y-12543628D02*
X12248015Y-12543628D01*
X12248015Y-12543628D02*
X12228968Y-12534105D01*
X12228968Y-12534105D02*
X12219444Y-12524581D01*
X12219444Y-12524581D02*
X12209920Y-12505533D01*
X12209920Y-12505533D02*
X12200396Y-12467438D01*
X12200396Y-12467438D02*
X12200396Y-12419819D01*
X12200396Y-12419819D02*
X12209920Y-12381724D01*
X12209920Y-12381724D02*
X12219444Y-12362676D01*
X12219444Y-12362676D02*
X12228968Y-12353152D01*
X12228968Y-12353152D02*
X12248015Y-12343628D01*
X12505158Y-12543628D02*
X12390873Y-12543628D01*
X12448015Y-12543628D02*
X12448015Y-12343628D01*
X12448015Y-12343628D02*
X12428968Y-12372200D01*
X12428968Y-12372200D02*
X12409920Y-12391247D01*
X12409920Y-12391247D02*
X12390873Y-12400771D01*
X12695635Y-12543628D02*
X12581349Y-12543628D01*
X12638492Y-12543628D02*
X12638492Y-12343628D01*
X12638492Y-12343628D02*
X12619444Y-12372200D01*
X12619444Y-12372200D02*
X12600396Y-12391247D01*
X12600396Y-12391247D02*
X12581349Y-12400771D01*
X12809920Y-12429343D02*
X12790873Y-12419819D01*
X12790873Y-12419819D02*
X12781349Y-12410295D01*
X12781349Y-12410295D02*
X12771825Y-12391247D01*
X12771825Y-12391247D02*
X12771825Y-12381724D01*
X12771825Y-12381724D02*
X12781349Y-12362676D01*
X12781349Y-12362676D02*
X12790873Y-12353152D01*
X12790873Y-12353152D02*
X12809920Y-12343628D01*
X12809920Y-12343628D02*
X12848016Y-12343628D01*
X12848016Y-12343628D02*
X12867063Y-12353152D01*
X12867063Y-12353152D02*
X12876587Y-12362676D01*
X12876587Y-12362676D02*
X12886111Y-12381724D01*
X12886111Y-12381724D02*
X12886111Y-12391247D01*
X12886111Y-12391247D02*
X12876587Y-12410295D01*
X12876587Y-12410295D02*
X12867063Y-12419819D01*
X12867063Y-12419819D02*
X12848016Y-12429343D01*
X12848016Y-12429343D02*
X12809920Y-12429343D01*
X12809920Y-12429343D02*
X12790873Y-12438867D01*
X12790873Y-12438867D02*
X12781349Y-12448390D01*
X12781349Y-12448390D02*
X12771825Y-12467438D01*
X12771825Y-12467438D02*
X12771825Y-12505533D01*
X12771825Y-12505533D02*
X12781349Y-12524581D01*
X12781349Y-12524581D02*
X12790873Y-12534105D01*
X12790873Y-12534105D02*
X12809920Y-12543628D01*
X12809920Y-12543628D02*
X12848016Y-12543628D01*
X12848016Y-12543628D02*
X12867063Y-12534105D01*
X12867063Y-12534105D02*
X12876587Y-12524581D01*
X12876587Y-12524581D02*
X12886111Y-12505533D01*
X12886111Y-12505533D02*
X12886111Y-12467438D01*
X12886111Y-12467438D02*
X12876587Y-12448390D01*
X12876587Y-12448390D02*
X12867063Y-12438867D01*
X12867063Y-12438867D02*
X12848016Y-12429343D01*
X12962301Y-12343628D02*
X12962301Y-12381724D01*
X13038492Y-12343628D02*
X13038492Y-12381724D01*
X13333730Y-12619819D02*
X13324206Y-12610295D01*
X13324206Y-12610295D02*
X13305158Y-12581724D01*
X13305158Y-12581724D02*
X13295635Y-12562676D01*
X13295635Y-12562676D02*
X13286111Y-12534105D01*
X13286111Y-12534105D02*
X13276587Y-12486486D01*
X13276587Y-12486486D02*
X13276587Y-12448390D01*
X13276587Y-12448390D02*
X13286111Y-12400771D01*
X13286111Y-12400771D02*
X13295635Y-12372200D01*
X13295635Y-12372200D02*
X13305158Y-12353152D01*
X13305158Y-12353152D02*
X13324206Y-12324581D01*
X13324206Y-12324581D02*
X13333730Y-12315057D01*
X13400397Y-12362676D02*
X13409920Y-12353152D01*
X13409920Y-12353152D02*
X13428968Y-12343628D01*
X13428968Y-12343628D02*
X13476587Y-12343628D01*
X13476587Y-12343628D02*
X13495635Y-12353152D01*
X13495635Y-12353152D02*
X13505158Y-12362676D01*
X13505158Y-12362676D02*
X13514682Y-12381724D01*
X13514682Y-12381724D02*
X13514682Y-12400771D01*
X13514682Y-12400771D02*
X13505158Y-12429343D01*
X13505158Y-12429343D02*
X13390873Y-12543628D01*
X13390873Y-12543628D02*
X13514682Y-12543628D01*
X13581349Y-12343628D02*
X13714682Y-12343628D01*
X13714682Y-12343628D02*
X13628968Y-12543628D01*
X13895635Y-12543628D02*
X13781349Y-12543628D01*
X13838492Y-12543628D02*
X13838492Y-12343628D01*
X13838492Y-12343628D02*
X13819444Y-12372200D01*
X13819444Y-12372200D02*
X13800397Y-12391247D01*
X13800397Y-12391247D02*
X13781349Y-12400771D01*
X14133730Y-12543628D02*
X14133730Y-12343628D01*
X14219444Y-12543628D02*
X14219444Y-12438867D01*
X14219444Y-12438867D02*
X14209920Y-12419819D01*
X14209920Y-12419819D02*
X14190873Y-12410295D01*
X14190873Y-12410295D02*
X14162301Y-12410295D01*
X14162301Y-12410295D02*
X14143254Y-12419819D01*
X14143254Y-12419819D02*
X14133730Y-12429343D01*
X14343254Y-12543628D02*
X14324206Y-12534105D01*
X14324206Y-12534105D02*
X14314682Y-12524581D01*
X14314682Y-12524581D02*
X14305159Y-12505533D01*
X14305159Y-12505533D02*
X14305159Y-12448390D01*
X14305159Y-12448390D02*
X14314682Y-12429343D01*
X14314682Y-12429343D02*
X14324206Y-12419819D01*
X14324206Y-12419819D02*
X14343254Y-12410295D01*
X14343254Y-12410295D02*
X14371825Y-12410295D01*
X14371825Y-12410295D02*
X14390873Y-12419819D01*
X14390873Y-12419819D02*
X14400397Y-12429343D01*
X14400397Y-12429343D02*
X14409920Y-12448390D01*
X14409920Y-12448390D02*
X14409920Y-12505533D01*
X14409920Y-12505533D02*
X14400397Y-12524581D01*
X14400397Y-12524581D02*
X14390873Y-12534105D01*
X14390873Y-12534105D02*
X14371825Y-12543628D01*
X14371825Y-12543628D02*
X14343254Y-12543628D01*
X14524206Y-12543628D02*
X14505159Y-12534105D01*
X14505159Y-12534105D02*
X14495635Y-12515057D01*
X14495635Y-12515057D02*
X14495635Y-12343628D01*
X14676587Y-12534105D02*
X14657540Y-12543628D01*
X14657540Y-12543628D02*
X14619444Y-12543628D01*
X14619444Y-12543628D02*
X14600397Y-12534105D01*
X14600397Y-12534105D02*
X14590873Y-12515057D01*
X14590873Y-12515057D02*
X14590873Y-12438867D01*
X14590873Y-12438867D02*
X14600397Y-12419819D01*
X14600397Y-12419819D02*
X14619444Y-12410295D01*
X14619444Y-12410295D02*
X14657540Y-12410295D01*
X14657540Y-12410295D02*
X14676587Y-12419819D01*
X14676587Y-12419819D02*
X14686111Y-12438867D01*
X14686111Y-12438867D02*
X14686111Y-12457914D01*
X14686111Y-12457914D02*
X14590873Y-12476962D01*
X14762301Y-12534105D02*
X14781349Y-12543628D01*
X14781349Y-12543628D02*
X14819444Y-12543628D01*
X14819444Y-12543628D02*
X14838492Y-12534105D01*
X14838492Y-12534105D02*
X14848016Y-12515057D01*
X14848016Y-12515057D02*
X14848016Y-12505533D01*
X14848016Y-12505533D02*
X14838492Y-12486486D01*
X14838492Y-12486486D02*
X14819444Y-12476962D01*
X14819444Y-12476962D02*
X14790873Y-12476962D01*
X14790873Y-12476962D02*
X14771825Y-12467438D01*
X14771825Y-12467438D02*
X14762301Y-12448390D01*
X14762301Y-12448390D02*
X14762301Y-12438867D01*
X14762301Y-12438867D02*
X14771825Y-12419819D01*
X14771825Y-12419819D02*
X14790873Y-12410295D01*
X14790873Y-12410295D02*
X14819444Y-12410295D01*
X14819444Y-12410295D02*
X14838492Y-12419819D01*
X14914682Y-12619819D02*
X14924206Y-12610295D01*
X14924206Y-12610295D02*
X14943254Y-12581724D01*
X14943254Y-12581724D02*
X14952778Y-12562676D01*
X14952778Y-12562676D02*
X14962301Y-12534105D01*
X14962301Y-12534105D02*
X14971825Y-12486486D01*
X14971825Y-12486486D02*
X14971825Y-12448390D01*
X14971825Y-12448390D02*
X14962301Y-12400771D01*
X14962301Y-12400771D02*
X14952778Y-12372200D01*
X14952778Y-12372200D02*
X14943254Y-12353152D01*
X14943254Y-12353152D02*
X14924206Y-12324581D01*
X14924206Y-12324581D02*
X14914682Y-12315057D01*
D12*
X9758667Y-12716145D02*
G75*
G02*
X9693667Y-12716145I-32500J0D01*
G01*
X9693667Y-12716145D02*
G75*
G02*
X9758667Y-12716145I32500J0D01*
G01*
D11*
X10057539Y-12607628D02*
X10076587Y-12607628D01*
X10076587Y-12607628D02*
X10095634Y-12617152D01*
X10095634Y-12617152D02*
X10105158Y-12626676D01*
X10105158Y-12626676D02*
X10114682Y-12645724D01*
X10114682Y-12645724D02*
X10124206Y-12683819D01*
X10124206Y-12683819D02*
X10124206Y-12731438D01*
X10124206Y-12731438D02*
X10114682Y-12769533D01*
X10114682Y-12769533D02*
X10105158Y-12788581D01*
X10105158Y-12788581D02*
X10095634Y-12798105D01*
X10095634Y-12798105D02*
X10076587Y-12807628D01*
X10076587Y-12807628D02*
X10057539Y-12807628D01*
X10057539Y-12807628D02*
X10038492Y-12798105D01*
X10038492Y-12798105D02*
X10028968Y-12788581D01*
X10028968Y-12788581D02*
X10019444Y-12769533D01*
X10019444Y-12769533D02*
X10009920Y-12731438D01*
X10009920Y-12731438D02*
X10009920Y-12683819D01*
X10009920Y-12683819D02*
X10019444Y-12645724D01*
X10019444Y-12645724D02*
X10028968Y-12626676D01*
X10028968Y-12626676D02*
X10038492Y-12617152D01*
X10038492Y-12617152D02*
X10057539Y-12607628D01*
X10209920Y-12788581D02*
X10219444Y-12798105D01*
X10219444Y-12798105D02*
X10209920Y-12807628D01*
X10209920Y-12807628D02*
X10200396Y-12798105D01*
X10200396Y-12798105D02*
X10209920Y-12788581D01*
X10209920Y-12788581D02*
X10209920Y-12807628D01*
X10390873Y-12607628D02*
X10352777Y-12607628D01*
X10352777Y-12607628D02*
X10333730Y-12617152D01*
X10333730Y-12617152D02*
X10324206Y-12626676D01*
X10324206Y-12626676D02*
X10305158Y-12655247D01*
X10305158Y-12655247D02*
X10295634Y-12693343D01*
X10295634Y-12693343D02*
X10295634Y-12769533D01*
X10295634Y-12769533D02*
X10305158Y-12788581D01*
X10305158Y-12788581D02*
X10314682Y-12798105D01*
X10314682Y-12798105D02*
X10333730Y-12807628D01*
X10333730Y-12807628D02*
X10371825Y-12807628D01*
X10371825Y-12807628D02*
X10390873Y-12798105D01*
X10390873Y-12798105D02*
X10400396Y-12788581D01*
X10400396Y-12788581D02*
X10409920Y-12769533D01*
X10409920Y-12769533D02*
X10409920Y-12721914D01*
X10409920Y-12721914D02*
X10400396Y-12702867D01*
X10400396Y-12702867D02*
X10390873Y-12693343D01*
X10390873Y-12693343D02*
X10371825Y-12683819D01*
X10371825Y-12683819D02*
X10333730Y-12683819D01*
X10333730Y-12683819D02*
X10314682Y-12693343D01*
X10314682Y-12693343D02*
X10305158Y-12702867D01*
X10305158Y-12702867D02*
X10295634Y-12721914D01*
X10590873Y-12607628D02*
X10495634Y-12607628D01*
X10495634Y-12607628D02*
X10486111Y-12702867D01*
X10486111Y-12702867D02*
X10495634Y-12693343D01*
X10495634Y-12693343D02*
X10514682Y-12683819D01*
X10514682Y-12683819D02*
X10562301Y-12683819D01*
X10562301Y-12683819D02*
X10581349Y-12693343D01*
X10581349Y-12693343D02*
X10590873Y-12702867D01*
X10590873Y-12702867D02*
X10600396Y-12721914D01*
X10600396Y-12721914D02*
X10600396Y-12769533D01*
X10600396Y-12769533D02*
X10590873Y-12788581D01*
X10590873Y-12788581D02*
X10581349Y-12798105D01*
X10581349Y-12798105D02*
X10562301Y-12807628D01*
X10562301Y-12807628D02*
X10514682Y-12807628D01*
X10514682Y-12807628D02*
X10495634Y-12798105D01*
X10495634Y-12798105D02*
X10486111Y-12788581D01*
X10724206Y-12607628D02*
X10743254Y-12607628D01*
X10743254Y-12607628D02*
X10762301Y-12617152D01*
X10762301Y-12617152D02*
X10771825Y-12626676D01*
X10771825Y-12626676D02*
X10781349Y-12645724D01*
X10781349Y-12645724D02*
X10790873Y-12683819D01*
X10790873Y-12683819D02*
X10790873Y-12731438D01*
X10790873Y-12731438D02*
X10781349Y-12769533D01*
X10781349Y-12769533D02*
X10771825Y-12788581D01*
X10771825Y-12788581D02*
X10762301Y-12798105D01*
X10762301Y-12798105D02*
X10743254Y-12807628D01*
X10743254Y-12807628D02*
X10724206Y-12807628D01*
X10724206Y-12807628D02*
X10705158Y-12798105D01*
X10705158Y-12798105D02*
X10695634Y-12788581D01*
X10695634Y-12788581D02*
X10686111Y-12769533D01*
X10686111Y-12769533D02*
X10676587Y-12731438D01*
X10676587Y-12731438D02*
X10676587Y-12683819D01*
X10676587Y-12683819D02*
X10686111Y-12645724D01*
X10686111Y-12645724D02*
X10695634Y-12626676D01*
X10695634Y-12626676D02*
X10705158Y-12617152D01*
X10705158Y-12617152D02*
X10724206Y-12607628D01*
X10876587Y-12807628D02*
X10876587Y-12674295D01*
X10876587Y-12693343D02*
X10886111Y-12683819D01*
X10886111Y-12683819D02*
X10905158Y-12674295D01*
X10905158Y-12674295D02*
X10933730Y-12674295D01*
X10933730Y-12674295D02*
X10952777Y-12683819D01*
X10952777Y-12683819D02*
X10962301Y-12702867D01*
X10962301Y-12702867D02*
X10962301Y-12807628D01*
X10962301Y-12702867D02*
X10971825Y-12683819D01*
X10971825Y-12683819D02*
X10990873Y-12674295D01*
X10990873Y-12674295D02*
X11019444Y-12674295D01*
X11019444Y-12674295D02*
X11038492Y-12683819D01*
X11038492Y-12683819D02*
X11048015Y-12702867D01*
X11048015Y-12702867D02*
X11048015Y-12807628D01*
X11143254Y-12807628D02*
X11143254Y-12674295D01*
X11143254Y-12693343D02*
X11152777Y-12683819D01*
X11152777Y-12683819D02*
X11171825Y-12674295D01*
X11171825Y-12674295D02*
X11200396Y-12674295D01*
X11200396Y-12674295D02*
X11219444Y-12683819D01*
X11219444Y-12683819D02*
X11228968Y-12702867D01*
X11228968Y-12702867D02*
X11228968Y-12807628D01*
X11228968Y-12702867D02*
X11238492Y-12683819D01*
X11238492Y-12683819D02*
X11257539Y-12674295D01*
X11257539Y-12674295D02*
X11286111Y-12674295D01*
X11286111Y-12674295D02*
X11305158Y-12683819D01*
X11305158Y-12683819D02*
X11314682Y-12702867D01*
X11314682Y-12702867D02*
X11314682Y-12807628D01*
X11705158Y-12598105D02*
X11533730Y-12855247D01*
X11962301Y-12607628D02*
X11981349Y-12607628D01*
X11981349Y-12607628D02*
X12000396Y-12617152D01*
X12000396Y-12617152D02*
X12009920Y-12626676D01*
X12009920Y-12626676D02*
X12019444Y-12645724D01*
X12019444Y-12645724D02*
X12028968Y-12683819D01*
X12028968Y-12683819D02*
X12028968Y-12731438D01*
X12028968Y-12731438D02*
X12019444Y-12769533D01*
X12019444Y-12769533D02*
X12009920Y-12788581D01*
X12009920Y-12788581D02*
X12000396Y-12798105D01*
X12000396Y-12798105D02*
X11981349Y-12807628D01*
X11981349Y-12807628D02*
X11962301Y-12807628D01*
X11962301Y-12807628D02*
X11943254Y-12798105D01*
X11943254Y-12798105D02*
X11933730Y-12788581D01*
X11933730Y-12788581D02*
X11924206Y-12769533D01*
X11924206Y-12769533D02*
X11914682Y-12731438D01*
X11914682Y-12731438D02*
X11914682Y-12683819D01*
X11914682Y-12683819D02*
X11924206Y-12645724D01*
X11924206Y-12645724D02*
X11933730Y-12626676D01*
X11933730Y-12626676D02*
X11943254Y-12617152D01*
X11943254Y-12617152D02*
X11962301Y-12607628D01*
X12114682Y-12788581D02*
X12124206Y-12798105D01*
X12124206Y-12798105D02*
X12114682Y-12807628D01*
X12114682Y-12807628D02*
X12105158Y-12798105D01*
X12105158Y-12798105D02*
X12114682Y-12788581D01*
X12114682Y-12788581D02*
X12114682Y-12807628D01*
X12248015Y-12607628D02*
X12267063Y-12607628D01*
X12267063Y-12607628D02*
X12286111Y-12617152D01*
X12286111Y-12617152D02*
X12295635Y-12626676D01*
X12295635Y-12626676D02*
X12305158Y-12645724D01*
X12305158Y-12645724D02*
X12314682Y-12683819D01*
X12314682Y-12683819D02*
X12314682Y-12731438D01*
X12314682Y-12731438D02*
X12305158Y-12769533D01*
X12305158Y-12769533D02*
X12295635Y-12788581D01*
X12295635Y-12788581D02*
X12286111Y-12798105D01*
X12286111Y-12798105D02*
X12267063Y-12807628D01*
X12267063Y-12807628D02*
X12248015Y-12807628D01*
X12248015Y-12807628D02*
X12228968Y-12798105D01*
X12228968Y-12798105D02*
X12219444Y-12788581D01*
X12219444Y-12788581D02*
X12209920Y-12769533D01*
X12209920Y-12769533D02*
X12200396Y-12731438D01*
X12200396Y-12731438D02*
X12200396Y-12683819D01*
X12200396Y-12683819D02*
X12209920Y-12645724D01*
X12209920Y-12645724D02*
X12219444Y-12626676D01*
X12219444Y-12626676D02*
X12228968Y-12617152D01*
X12228968Y-12617152D02*
X12248015Y-12607628D01*
X12390873Y-12626676D02*
X12400396Y-12617152D01*
X12400396Y-12617152D02*
X12419444Y-12607628D01*
X12419444Y-12607628D02*
X12467063Y-12607628D01*
X12467063Y-12607628D02*
X12486111Y-12617152D01*
X12486111Y-12617152D02*
X12495635Y-12626676D01*
X12495635Y-12626676D02*
X12505158Y-12645724D01*
X12505158Y-12645724D02*
X12505158Y-12664771D01*
X12505158Y-12664771D02*
X12495635Y-12693343D01*
X12495635Y-12693343D02*
X12381349Y-12807628D01*
X12381349Y-12807628D02*
X12505158Y-12807628D01*
X12686111Y-12607628D02*
X12590873Y-12607628D01*
X12590873Y-12607628D02*
X12581349Y-12702867D01*
X12581349Y-12702867D02*
X12590873Y-12693343D01*
X12590873Y-12693343D02*
X12609920Y-12683819D01*
X12609920Y-12683819D02*
X12657539Y-12683819D01*
X12657539Y-12683819D02*
X12676587Y-12693343D01*
X12676587Y-12693343D02*
X12686111Y-12702867D01*
X12686111Y-12702867D02*
X12695635Y-12721914D01*
X12695635Y-12721914D02*
X12695635Y-12769533D01*
X12695635Y-12769533D02*
X12686111Y-12788581D01*
X12686111Y-12788581D02*
X12676587Y-12798105D01*
X12676587Y-12798105D02*
X12657539Y-12807628D01*
X12657539Y-12807628D02*
X12609920Y-12807628D01*
X12609920Y-12807628D02*
X12590873Y-12798105D01*
X12590873Y-12798105D02*
X12581349Y-12788581D01*
X12867063Y-12607628D02*
X12828968Y-12607628D01*
X12828968Y-12607628D02*
X12809920Y-12617152D01*
X12809920Y-12617152D02*
X12800396Y-12626676D01*
X12800396Y-12626676D02*
X12781349Y-12655247D01*
X12781349Y-12655247D02*
X12771825Y-12693343D01*
X12771825Y-12693343D02*
X12771825Y-12769533D01*
X12771825Y-12769533D02*
X12781349Y-12788581D01*
X12781349Y-12788581D02*
X12790873Y-12798105D01*
X12790873Y-12798105D02*
X12809920Y-12807628D01*
X12809920Y-12807628D02*
X12848016Y-12807628D01*
X12848016Y-12807628D02*
X12867063Y-12798105D01*
X12867063Y-12798105D02*
X12876587Y-12788581D01*
X12876587Y-12788581D02*
X12886111Y-12769533D01*
X12886111Y-12769533D02*
X12886111Y-12721914D01*
X12886111Y-12721914D02*
X12876587Y-12702867D01*
X12876587Y-12702867D02*
X12867063Y-12693343D01*
X12867063Y-12693343D02*
X12848016Y-12683819D01*
X12848016Y-12683819D02*
X12809920Y-12683819D01*
X12809920Y-12683819D02*
X12790873Y-12693343D01*
X12790873Y-12693343D02*
X12781349Y-12702867D01*
X12781349Y-12702867D02*
X12771825Y-12721914D01*
X12962301Y-12607628D02*
X12962301Y-12645724D01*
X13038492Y-12607628D02*
X13038492Y-12645724D01*
X13333730Y-12883819D02*
X13324206Y-12874295D01*
X13324206Y-12874295D02*
X13305158Y-12845724D01*
X13305158Y-12845724D02*
X13295635Y-12826676D01*
X13295635Y-12826676D02*
X13286111Y-12798105D01*
X13286111Y-12798105D02*
X13276587Y-12750486D01*
X13276587Y-12750486D02*
X13276587Y-12712390D01*
X13276587Y-12712390D02*
X13286111Y-12664771D01*
X13286111Y-12664771D02*
X13295635Y-12636200D01*
X13295635Y-12636200D02*
X13305158Y-12617152D01*
X13305158Y-12617152D02*
X13324206Y-12588581D01*
X13324206Y-12588581D02*
X13333730Y-12579057D01*
X13448016Y-12607628D02*
X13467063Y-12607628D01*
X13467063Y-12607628D02*
X13486111Y-12617152D01*
X13486111Y-12617152D02*
X13495635Y-12626676D01*
X13495635Y-12626676D02*
X13505158Y-12645724D01*
X13505158Y-12645724D02*
X13514682Y-12683819D01*
X13514682Y-12683819D02*
X13514682Y-12731438D01*
X13514682Y-12731438D02*
X13505158Y-12769533D01*
X13505158Y-12769533D02*
X13495635Y-12788581D01*
X13495635Y-12788581D02*
X13486111Y-12798105D01*
X13486111Y-12798105D02*
X13467063Y-12807628D01*
X13467063Y-12807628D02*
X13448016Y-12807628D01*
X13448016Y-12807628D02*
X13428968Y-12798105D01*
X13428968Y-12798105D02*
X13419444Y-12788581D01*
X13419444Y-12788581D02*
X13409920Y-12769533D01*
X13409920Y-12769533D02*
X13400397Y-12731438D01*
X13400397Y-12731438D02*
X13400397Y-12683819D01*
X13400397Y-12683819D02*
X13409920Y-12645724D01*
X13409920Y-12645724D02*
X13419444Y-12626676D01*
X13419444Y-12626676D02*
X13428968Y-12617152D01*
X13428968Y-12617152D02*
X13448016Y-12607628D01*
X13752778Y-12807628D02*
X13752778Y-12607628D01*
X13838492Y-12807628D02*
X13838492Y-12702867D01*
X13838492Y-12702867D02*
X13828968Y-12683819D01*
X13828968Y-12683819D02*
X13809920Y-12674295D01*
X13809920Y-12674295D02*
X13781349Y-12674295D01*
X13781349Y-12674295D02*
X13762301Y-12683819D01*
X13762301Y-12683819D02*
X13752778Y-12693343D01*
X13962301Y-12807628D02*
X13943254Y-12798105D01*
X13943254Y-12798105D02*
X13933730Y-12788581D01*
X13933730Y-12788581D02*
X13924206Y-12769533D01*
X13924206Y-12769533D02*
X13924206Y-12712390D01*
X13924206Y-12712390D02*
X13933730Y-12693343D01*
X13933730Y-12693343D02*
X13943254Y-12683819D01*
X13943254Y-12683819D02*
X13962301Y-12674295D01*
X13962301Y-12674295D02*
X13990873Y-12674295D01*
X13990873Y-12674295D02*
X14009920Y-12683819D01*
X14009920Y-12683819D02*
X14019444Y-12693343D01*
X14019444Y-12693343D02*
X14028968Y-12712390D01*
X14028968Y-12712390D02*
X14028968Y-12769533D01*
X14028968Y-12769533D02*
X14019444Y-12788581D01*
X14019444Y-12788581D02*
X14009920Y-12798105D01*
X14009920Y-12798105D02*
X13990873Y-12807628D01*
X13990873Y-12807628D02*
X13962301Y-12807628D01*
X14143254Y-12807628D02*
X14124206Y-12798105D01*
X14124206Y-12798105D02*
X14114682Y-12779057D01*
X14114682Y-12779057D02*
X14114682Y-12607628D01*
X14295635Y-12798105D02*
X14276587Y-12807628D01*
X14276587Y-12807628D02*
X14238492Y-12807628D01*
X14238492Y-12807628D02*
X14219444Y-12798105D01*
X14219444Y-12798105D02*
X14209920Y-12779057D01*
X14209920Y-12779057D02*
X14209920Y-12702867D01*
X14209920Y-12702867D02*
X14219444Y-12683819D01*
X14219444Y-12683819D02*
X14238492Y-12674295D01*
X14238492Y-12674295D02*
X14276587Y-12674295D01*
X14276587Y-12674295D02*
X14295635Y-12683819D01*
X14295635Y-12683819D02*
X14305159Y-12702867D01*
X14305159Y-12702867D02*
X14305159Y-12721914D01*
X14305159Y-12721914D02*
X14209920Y-12740962D01*
X14381349Y-12798105D02*
X14400397Y-12807628D01*
X14400397Y-12807628D02*
X14438492Y-12807628D01*
X14438492Y-12807628D02*
X14457540Y-12798105D01*
X14457540Y-12798105D02*
X14467063Y-12779057D01*
X14467063Y-12779057D02*
X14467063Y-12769533D01*
X14467063Y-12769533D02*
X14457540Y-12750486D01*
X14457540Y-12750486D02*
X14438492Y-12740962D01*
X14438492Y-12740962D02*
X14409920Y-12740962D01*
X14409920Y-12740962D02*
X14390873Y-12731438D01*
X14390873Y-12731438D02*
X14381349Y-12712390D01*
X14381349Y-12712390D02*
X14381349Y-12702867D01*
X14381349Y-12702867D02*
X14390873Y-12683819D01*
X14390873Y-12683819D02*
X14409920Y-12674295D01*
X14409920Y-12674295D02*
X14438492Y-12674295D01*
X14438492Y-12674295D02*
X14457540Y-12683819D01*
X14705159Y-12731438D02*
X14857540Y-12731438D01*
X14781349Y-12807628D02*
X14781349Y-12655247D01*
X15095635Y-12626676D02*
X15105159Y-12617152D01*
X15105159Y-12617152D02*
X15124206Y-12607628D01*
X15124206Y-12607628D02*
X15171825Y-12607628D01*
X15171825Y-12607628D02*
X15190873Y-12617152D01*
X15190873Y-12617152D02*
X15200397Y-12626676D01*
X15200397Y-12626676D02*
X15209921Y-12645724D01*
X15209921Y-12645724D02*
X15209921Y-12664771D01*
X15209921Y-12664771D02*
X15200397Y-12693343D01*
X15200397Y-12693343D02*
X15086111Y-12807628D01*
X15086111Y-12807628D02*
X15209921Y-12807628D01*
X15438492Y-12798105D02*
X15457540Y-12807628D01*
X15457540Y-12807628D02*
X15495635Y-12807628D01*
X15495635Y-12807628D02*
X15514683Y-12798105D01*
X15514683Y-12798105D02*
X15524206Y-12779057D01*
X15524206Y-12779057D02*
X15524206Y-12769533D01*
X15524206Y-12769533D02*
X15514683Y-12750486D01*
X15514683Y-12750486D02*
X15495635Y-12740962D01*
X15495635Y-12740962D02*
X15467063Y-12740962D01*
X15467063Y-12740962D02*
X15448016Y-12731438D01*
X15448016Y-12731438D02*
X15438492Y-12712390D01*
X15438492Y-12712390D02*
X15438492Y-12702867D01*
X15438492Y-12702867D02*
X15448016Y-12683819D01*
X15448016Y-12683819D02*
X15467063Y-12674295D01*
X15467063Y-12674295D02*
X15495635Y-12674295D01*
X15495635Y-12674295D02*
X15514683Y-12683819D01*
X15638492Y-12807628D02*
X15619444Y-12798105D01*
X15619444Y-12798105D02*
X15609921Y-12779057D01*
X15609921Y-12779057D02*
X15609921Y-12607628D01*
X15743254Y-12807628D02*
X15724206Y-12798105D01*
X15724206Y-12798105D02*
X15714683Y-12788581D01*
X15714683Y-12788581D02*
X15705159Y-12769533D01*
X15705159Y-12769533D02*
X15705159Y-12712390D01*
X15705159Y-12712390D02*
X15714683Y-12693343D01*
X15714683Y-12693343D02*
X15724206Y-12683819D01*
X15724206Y-12683819D02*
X15743254Y-12674295D01*
X15743254Y-12674295D02*
X15771825Y-12674295D01*
X15771825Y-12674295D02*
X15790873Y-12683819D01*
X15790873Y-12683819D02*
X15800397Y-12693343D01*
X15800397Y-12693343D02*
X15809921Y-12712390D01*
X15809921Y-12712390D02*
X15809921Y-12769533D01*
X15809921Y-12769533D02*
X15800397Y-12788581D01*
X15800397Y-12788581D02*
X15790873Y-12798105D01*
X15790873Y-12798105D02*
X15771825Y-12807628D01*
X15771825Y-12807628D02*
X15743254Y-12807628D01*
X15867064Y-12674295D02*
X15943254Y-12674295D01*
X15895635Y-12607628D02*
X15895635Y-12779057D01*
X15895635Y-12779057D02*
X15905159Y-12798105D01*
X15905159Y-12798105D02*
X15924206Y-12807628D01*
X15924206Y-12807628D02*
X15943254Y-12807628D01*
X16000397Y-12798105D02*
X16019444Y-12807628D01*
X16019444Y-12807628D02*
X16057540Y-12807628D01*
X16057540Y-12807628D02*
X16076587Y-12798105D01*
X16076587Y-12798105D02*
X16086111Y-12779057D01*
X16086111Y-12779057D02*
X16086111Y-12769533D01*
X16086111Y-12769533D02*
X16076587Y-12750486D01*
X16076587Y-12750486D02*
X16057540Y-12740962D01*
X16057540Y-12740962D02*
X16028968Y-12740962D01*
X16028968Y-12740962D02*
X16009921Y-12731438D01*
X16009921Y-12731438D02*
X16000397Y-12712390D01*
X16000397Y-12712390D02*
X16000397Y-12702867D01*
X16000397Y-12702867D02*
X16009921Y-12683819D01*
X16009921Y-12683819D02*
X16028968Y-12674295D01*
X16028968Y-12674295D02*
X16057540Y-12674295D01*
X16057540Y-12674295D02*
X16076587Y-12683819D01*
X16152778Y-12883819D02*
X16162302Y-12874295D01*
X16162302Y-12874295D02*
X16181349Y-12845724D01*
X16181349Y-12845724D02*
X16190873Y-12826676D01*
X16190873Y-12826676D02*
X16200397Y-12798105D01*
X16200397Y-12798105D02*
X16209921Y-12750486D01*
X16209921Y-12750486D02*
X16209921Y-12712390D01*
X16209921Y-12712390D02*
X16200397Y-12664771D01*
X16200397Y-12664771D02*
X16190873Y-12636200D01*
X16190873Y-12636200D02*
X16181349Y-12617152D01*
X16181349Y-12617152D02*
X16162302Y-12588581D01*
X16162302Y-12588581D02*
X16152778Y-12579057D01*
D12*
X9723667Y-12945145D02*
X9723667Y-13015145D01*
X9688667Y-12980145D02*
X9758667Y-12980145D01*
D11*
X10057539Y-12871628D02*
X10076587Y-12871628D01*
X10076587Y-12871628D02*
X10095634Y-12881152D01*
X10095634Y-12881152D02*
X10105158Y-12890676D01*
X10105158Y-12890676D02*
X10114682Y-12909724D01*
X10114682Y-12909724D02*
X10124206Y-12947819D01*
X10124206Y-12947819D02*
X10124206Y-12995438D01*
X10124206Y-12995438D02*
X10114682Y-13033533D01*
X10114682Y-13033533D02*
X10105158Y-13052581D01*
X10105158Y-13052581D02*
X10095634Y-13062105D01*
X10095634Y-13062105D02*
X10076587Y-13071628D01*
X10076587Y-13071628D02*
X10057539Y-13071628D01*
X10057539Y-13071628D02*
X10038492Y-13062105D01*
X10038492Y-13062105D02*
X10028968Y-13052581D01*
X10028968Y-13052581D02*
X10019444Y-13033533D01*
X10019444Y-13033533D02*
X10009920Y-12995438D01*
X10009920Y-12995438D02*
X10009920Y-12947819D01*
X10009920Y-12947819D02*
X10019444Y-12909724D01*
X10019444Y-12909724D02*
X10028968Y-12890676D01*
X10028968Y-12890676D02*
X10038492Y-12881152D01*
X10038492Y-12881152D02*
X10057539Y-12871628D01*
X10209920Y-13052581D02*
X10219444Y-13062105D01*
X10219444Y-13062105D02*
X10209920Y-13071628D01*
X10209920Y-13071628D02*
X10200396Y-13062105D01*
X10200396Y-13062105D02*
X10209920Y-13052581D01*
X10209920Y-13052581D02*
X10209920Y-13071628D01*
X10286111Y-12871628D02*
X10419444Y-12871628D01*
X10419444Y-12871628D02*
X10333730Y-13071628D01*
X10533730Y-12871628D02*
X10552777Y-12871628D01*
X10552777Y-12871628D02*
X10571825Y-12881152D01*
X10571825Y-12881152D02*
X10581349Y-12890676D01*
X10581349Y-12890676D02*
X10590873Y-12909724D01*
X10590873Y-12909724D02*
X10600396Y-12947819D01*
X10600396Y-12947819D02*
X10600396Y-12995438D01*
X10600396Y-12995438D02*
X10590873Y-13033533D01*
X10590873Y-13033533D02*
X10581349Y-13052581D01*
X10581349Y-13052581D02*
X10571825Y-13062105D01*
X10571825Y-13062105D02*
X10552777Y-13071628D01*
X10552777Y-13071628D02*
X10533730Y-13071628D01*
X10533730Y-13071628D02*
X10514682Y-13062105D01*
X10514682Y-13062105D02*
X10505158Y-13052581D01*
X10505158Y-13052581D02*
X10495634Y-13033533D01*
X10495634Y-13033533D02*
X10486111Y-12995438D01*
X10486111Y-12995438D02*
X10486111Y-12947819D01*
X10486111Y-12947819D02*
X10495634Y-12909724D01*
X10495634Y-12909724D02*
X10505158Y-12890676D01*
X10505158Y-12890676D02*
X10514682Y-12881152D01*
X10514682Y-12881152D02*
X10533730Y-12871628D01*
X10724206Y-12871628D02*
X10743254Y-12871628D01*
X10743254Y-12871628D02*
X10762301Y-12881152D01*
X10762301Y-12881152D02*
X10771825Y-12890676D01*
X10771825Y-12890676D02*
X10781349Y-12909724D01*
X10781349Y-12909724D02*
X10790873Y-12947819D01*
X10790873Y-12947819D02*
X10790873Y-12995438D01*
X10790873Y-12995438D02*
X10781349Y-13033533D01*
X10781349Y-13033533D02*
X10771825Y-13052581D01*
X10771825Y-13052581D02*
X10762301Y-13062105D01*
X10762301Y-13062105D02*
X10743254Y-13071628D01*
X10743254Y-13071628D02*
X10724206Y-13071628D01*
X10724206Y-13071628D02*
X10705158Y-13062105D01*
X10705158Y-13062105D02*
X10695634Y-13052581D01*
X10695634Y-13052581D02*
X10686111Y-13033533D01*
X10686111Y-13033533D02*
X10676587Y-12995438D01*
X10676587Y-12995438D02*
X10676587Y-12947819D01*
X10676587Y-12947819D02*
X10686111Y-12909724D01*
X10686111Y-12909724D02*
X10695634Y-12890676D01*
X10695634Y-12890676D02*
X10705158Y-12881152D01*
X10705158Y-12881152D02*
X10724206Y-12871628D01*
X10876587Y-13071628D02*
X10876587Y-12938295D01*
X10876587Y-12957343D02*
X10886111Y-12947819D01*
X10886111Y-12947819D02*
X10905158Y-12938295D01*
X10905158Y-12938295D02*
X10933730Y-12938295D01*
X10933730Y-12938295D02*
X10952777Y-12947819D01*
X10952777Y-12947819D02*
X10962301Y-12966867D01*
X10962301Y-12966867D02*
X10962301Y-13071628D01*
X10962301Y-12966867D02*
X10971825Y-12947819D01*
X10971825Y-12947819D02*
X10990873Y-12938295D01*
X10990873Y-12938295D02*
X11019444Y-12938295D01*
X11019444Y-12938295D02*
X11038492Y-12947819D01*
X11038492Y-12947819D02*
X11048015Y-12966867D01*
X11048015Y-12966867D02*
X11048015Y-13071628D01*
X11143254Y-13071628D02*
X11143254Y-12938295D01*
X11143254Y-12957343D02*
X11152777Y-12947819D01*
X11152777Y-12947819D02*
X11171825Y-12938295D01*
X11171825Y-12938295D02*
X11200396Y-12938295D01*
X11200396Y-12938295D02*
X11219444Y-12947819D01*
X11219444Y-12947819D02*
X11228968Y-12966867D01*
X11228968Y-12966867D02*
X11228968Y-13071628D01*
X11228968Y-12966867D02*
X11238492Y-12947819D01*
X11238492Y-12947819D02*
X11257539Y-12938295D01*
X11257539Y-12938295D02*
X11286111Y-12938295D01*
X11286111Y-12938295D02*
X11305158Y-12947819D01*
X11305158Y-12947819D02*
X11314682Y-12966867D01*
X11314682Y-12966867D02*
X11314682Y-13071628D01*
X11705158Y-12862105D02*
X11533730Y-13119247D01*
X11962301Y-12871628D02*
X11981349Y-12871628D01*
X11981349Y-12871628D02*
X12000396Y-12881152D01*
X12000396Y-12881152D02*
X12009920Y-12890676D01*
X12009920Y-12890676D02*
X12019444Y-12909724D01*
X12019444Y-12909724D02*
X12028968Y-12947819D01*
X12028968Y-12947819D02*
X12028968Y-12995438D01*
X12028968Y-12995438D02*
X12019444Y-13033533D01*
X12019444Y-13033533D02*
X12009920Y-13052581D01*
X12009920Y-13052581D02*
X12000396Y-13062105D01*
X12000396Y-13062105D02*
X11981349Y-13071628D01*
X11981349Y-13071628D02*
X11962301Y-13071628D01*
X11962301Y-13071628D02*
X11943254Y-13062105D01*
X11943254Y-13062105D02*
X11933730Y-13052581D01*
X11933730Y-13052581D02*
X11924206Y-13033533D01*
X11924206Y-13033533D02*
X11914682Y-12995438D01*
X11914682Y-12995438D02*
X11914682Y-12947819D01*
X11914682Y-12947819D02*
X11924206Y-12909724D01*
X11924206Y-12909724D02*
X11933730Y-12890676D01*
X11933730Y-12890676D02*
X11943254Y-12881152D01*
X11943254Y-12881152D02*
X11962301Y-12871628D01*
X12114682Y-13052581D02*
X12124206Y-13062105D01*
X12124206Y-13062105D02*
X12114682Y-13071628D01*
X12114682Y-13071628D02*
X12105158Y-13062105D01*
X12105158Y-13062105D02*
X12114682Y-13052581D01*
X12114682Y-13052581D02*
X12114682Y-13071628D01*
X12248015Y-12871628D02*
X12267063Y-12871628D01*
X12267063Y-12871628D02*
X12286111Y-12881152D01*
X12286111Y-12881152D02*
X12295635Y-12890676D01*
X12295635Y-12890676D02*
X12305158Y-12909724D01*
X12305158Y-12909724D02*
X12314682Y-12947819D01*
X12314682Y-12947819D02*
X12314682Y-12995438D01*
X12314682Y-12995438D02*
X12305158Y-13033533D01*
X12305158Y-13033533D02*
X12295635Y-13052581D01*
X12295635Y-13052581D02*
X12286111Y-13062105D01*
X12286111Y-13062105D02*
X12267063Y-13071628D01*
X12267063Y-13071628D02*
X12248015Y-13071628D01*
X12248015Y-13071628D02*
X12228968Y-13062105D01*
X12228968Y-13062105D02*
X12219444Y-13052581D01*
X12219444Y-13052581D02*
X12209920Y-13033533D01*
X12209920Y-13033533D02*
X12200396Y-12995438D01*
X12200396Y-12995438D02*
X12200396Y-12947819D01*
X12200396Y-12947819D02*
X12209920Y-12909724D01*
X12209920Y-12909724D02*
X12219444Y-12890676D01*
X12219444Y-12890676D02*
X12228968Y-12881152D01*
X12228968Y-12881152D02*
X12248015Y-12871628D01*
X12390873Y-12890676D02*
X12400396Y-12881152D01*
X12400396Y-12881152D02*
X12419444Y-12871628D01*
X12419444Y-12871628D02*
X12467063Y-12871628D01*
X12467063Y-12871628D02*
X12486111Y-12881152D01*
X12486111Y-12881152D02*
X12495635Y-12890676D01*
X12495635Y-12890676D02*
X12505158Y-12909724D01*
X12505158Y-12909724D02*
X12505158Y-12928771D01*
X12505158Y-12928771D02*
X12495635Y-12957343D01*
X12495635Y-12957343D02*
X12381349Y-13071628D01*
X12381349Y-13071628D02*
X12505158Y-13071628D01*
X12571825Y-12871628D02*
X12705158Y-12871628D01*
X12705158Y-12871628D02*
X12619444Y-13071628D01*
X12867063Y-12871628D02*
X12828968Y-12871628D01*
X12828968Y-12871628D02*
X12809920Y-12881152D01*
X12809920Y-12881152D02*
X12800396Y-12890676D01*
X12800396Y-12890676D02*
X12781349Y-12919247D01*
X12781349Y-12919247D02*
X12771825Y-12957343D01*
X12771825Y-12957343D02*
X12771825Y-13033533D01*
X12771825Y-13033533D02*
X12781349Y-13052581D01*
X12781349Y-13052581D02*
X12790873Y-13062105D01*
X12790873Y-13062105D02*
X12809920Y-13071628D01*
X12809920Y-13071628D02*
X12848016Y-13071628D01*
X12848016Y-13071628D02*
X12867063Y-13062105D01*
X12867063Y-13062105D02*
X12876587Y-13052581D01*
X12876587Y-13052581D02*
X12886111Y-13033533D01*
X12886111Y-13033533D02*
X12886111Y-12985914D01*
X12886111Y-12985914D02*
X12876587Y-12966867D01*
X12876587Y-12966867D02*
X12867063Y-12957343D01*
X12867063Y-12957343D02*
X12848016Y-12947819D01*
X12848016Y-12947819D02*
X12809920Y-12947819D01*
X12809920Y-12947819D02*
X12790873Y-12957343D01*
X12790873Y-12957343D02*
X12781349Y-12966867D01*
X12781349Y-12966867D02*
X12771825Y-12985914D01*
X12962301Y-12871628D02*
X12962301Y-12909724D01*
X13038492Y-12871628D02*
X13038492Y-12909724D01*
X13333730Y-13147819D02*
X13324206Y-13138295D01*
X13324206Y-13138295D02*
X13305158Y-13109724D01*
X13305158Y-13109724D02*
X13295635Y-13090676D01*
X13295635Y-13090676D02*
X13286111Y-13062105D01*
X13286111Y-13062105D02*
X13276587Y-13014486D01*
X13276587Y-13014486D02*
X13276587Y-12976390D01*
X13276587Y-12976390D02*
X13286111Y-12928771D01*
X13286111Y-12928771D02*
X13295635Y-12900200D01*
X13295635Y-12900200D02*
X13305158Y-12881152D01*
X13305158Y-12881152D02*
X13324206Y-12852581D01*
X13324206Y-12852581D02*
X13333730Y-12843057D01*
X13448016Y-12871628D02*
X13467063Y-12871628D01*
X13467063Y-12871628D02*
X13486111Y-12881152D01*
X13486111Y-12881152D02*
X13495635Y-12890676D01*
X13495635Y-12890676D02*
X13505158Y-12909724D01*
X13505158Y-12909724D02*
X13514682Y-12947819D01*
X13514682Y-12947819D02*
X13514682Y-12995438D01*
X13514682Y-12995438D02*
X13505158Y-13033533D01*
X13505158Y-13033533D02*
X13495635Y-13052581D01*
X13495635Y-13052581D02*
X13486111Y-13062105D01*
X13486111Y-13062105D02*
X13467063Y-13071628D01*
X13467063Y-13071628D02*
X13448016Y-13071628D01*
X13448016Y-13071628D02*
X13428968Y-13062105D01*
X13428968Y-13062105D02*
X13419444Y-13052581D01*
X13419444Y-13052581D02*
X13409920Y-13033533D01*
X13409920Y-13033533D02*
X13400397Y-12995438D01*
X13400397Y-12995438D02*
X13400397Y-12947819D01*
X13400397Y-12947819D02*
X13409920Y-12909724D01*
X13409920Y-12909724D02*
X13419444Y-12890676D01*
X13419444Y-12890676D02*
X13428968Y-12881152D01*
X13428968Y-12881152D02*
X13448016Y-12871628D01*
X13752778Y-13071628D02*
X13752778Y-12871628D01*
X13838492Y-13071628D02*
X13838492Y-12966867D01*
X13838492Y-12966867D02*
X13828968Y-12947819D01*
X13828968Y-12947819D02*
X13809920Y-12938295D01*
X13809920Y-12938295D02*
X13781349Y-12938295D01*
X13781349Y-12938295D02*
X13762301Y-12947819D01*
X13762301Y-12947819D02*
X13752778Y-12957343D01*
X13962301Y-13071628D02*
X13943254Y-13062105D01*
X13943254Y-13062105D02*
X13933730Y-13052581D01*
X13933730Y-13052581D02*
X13924206Y-13033533D01*
X13924206Y-13033533D02*
X13924206Y-12976390D01*
X13924206Y-12976390D02*
X13933730Y-12957343D01*
X13933730Y-12957343D02*
X13943254Y-12947819D01*
X13943254Y-12947819D02*
X13962301Y-12938295D01*
X13962301Y-12938295D02*
X13990873Y-12938295D01*
X13990873Y-12938295D02*
X14009920Y-12947819D01*
X14009920Y-12947819D02*
X14019444Y-12957343D01*
X14019444Y-12957343D02*
X14028968Y-12976390D01*
X14028968Y-12976390D02*
X14028968Y-13033533D01*
X14028968Y-13033533D02*
X14019444Y-13052581D01*
X14019444Y-13052581D02*
X14009920Y-13062105D01*
X14009920Y-13062105D02*
X13990873Y-13071628D01*
X13990873Y-13071628D02*
X13962301Y-13071628D01*
X14143254Y-13071628D02*
X14124206Y-13062105D01*
X14124206Y-13062105D02*
X14114682Y-13043057D01*
X14114682Y-13043057D02*
X14114682Y-12871628D01*
X14295635Y-13062105D02*
X14276587Y-13071628D01*
X14276587Y-13071628D02*
X14238492Y-13071628D01*
X14238492Y-13071628D02*
X14219444Y-13062105D01*
X14219444Y-13062105D02*
X14209920Y-13043057D01*
X14209920Y-13043057D02*
X14209920Y-12966867D01*
X14209920Y-12966867D02*
X14219444Y-12947819D01*
X14219444Y-12947819D02*
X14238492Y-12938295D01*
X14238492Y-12938295D02*
X14276587Y-12938295D01*
X14276587Y-12938295D02*
X14295635Y-12947819D01*
X14295635Y-12947819D02*
X14305159Y-12966867D01*
X14305159Y-12966867D02*
X14305159Y-12985914D01*
X14305159Y-12985914D02*
X14209920Y-13004962D01*
X14381349Y-13062105D02*
X14400397Y-13071628D01*
X14400397Y-13071628D02*
X14438492Y-13071628D01*
X14438492Y-13071628D02*
X14457540Y-13062105D01*
X14457540Y-13062105D02*
X14467063Y-13043057D01*
X14467063Y-13043057D02*
X14467063Y-13033533D01*
X14467063Y-13033533D02*
X14457540Y-13014486D01*
X14457540Y-13014486D02*
X14438492Y-13004962D01*
X14438492Y-13004962D02*
X14409920Y-13004962D01*
X14409920Y-13004962D02*
X14390873Y-12995438D01*
X14390873Y-12995438D02*
X14381349Y-12976390D01*
X14381349Y-12976390D02*
X14381349Y-12966867D01*
X14381349Y-12966867D02*
X14390873Y-12947819D01*
X14390873Y-12947819D02*
X14409920Y-12938295D01*
X14409920Y-12938295D02*
X14438492Y-12938295D01*
X14438492Y-12938295D02*
X14457540Y-12947819D01*
X14705159Y-12995438D02*
X14857540Y-12995438D01*
X14781349Y-13071628D02*
X14781349Y-12919247D01*
X15095635Y-12890676D02*
X15105159Y-12881152D01*
X15105159Y-12881152D02*
X15124206Y-12871628D01*
X15124206Y-12871628D02*
X15171825Y-12871628D01*
X15171825Y-12871628D02*
X15190873Y-12881152D01*
X15190873Y-12881152D02*
X15200397Y-12890676D01*
X15200397Y-12890676D02*
X15209921Y-12909724D01*
X15209921Y-12909724D02*
X15209921Y-12928771D01*
X15209921Y-12928771D02*
X15200397Y-12957343D01*
X15200397Y-12957343D02*
X15086111Y-13071628D01*
X15086111Y-13071628D02*
X15209921Y-13071628D01*
X15438492Y-13062105D02*
X15457540Y-13071628D01*
X15457540Y-13071628D02*
X15495635Y-13071628D01*
X15495635Y-13071628D02*
X15514683Y-13062105D01*
X15514683Y-13062105D02*
X15524206Y-13043057D01*
X15524206Y-13043057D02*
X15524206Y-13033533D01*
X15524206Y-13033533D02*
X15514683Y-13014486D01*
X15514683Y-13014486D02*
X15495635Y-13004962D01*
X15495635Y-13004962D02*
X15467063Y-13004962D01*
X15467063Y-13004962D02*
X15448016Y-12995438D01*
X15448016Y-12995438D02*
X15438492Y-12976390D01*
X15438492Y-12976390D02*
X15438492Y-12966867D01*
X15438492Y-12966867D02*
X15448016Y-12947819D01*
X15448016Y-12947819D02*
X15467063Y-12938295D01*
X15467063Y-12938295D02*
X15495635Y-12938295D01*
X15495635Y-12938295D02*
X15514683Y-12947819D01*
X15638492Y-13071628D02*
X15619444Y-13062105D01*
X15619444Y-13062105D02*
X15609921Y-13043057D01*
X15609921Y-13043057D02*
X15609921Y-12871628D01*
X15743254Y-13071628D02*
X15724206Y-13062105D01*
X15724206Y-13062105D02*
X15714683Y-13052581D01*
X15714683Y-13052581D02*
X15705159Y-13033533D01*
X15705159Y-13033533D02*
X15705159Y-12976390D01*
X15705159Y-12976390D02*
X15714683Y-12957343D01*
X15714683Y-12957343D02*
X15724206Y-12947819D01*
X15724206Y-12947819D02*
X15743254Y-12938295D01*
X15743254Y-12938295D02*
X15771825Y-12938295D01*
X15771825Y-12938295D02*
X15790873Y-12947819D01*
X15790873Y-12947819D02*
X15800397Y-12957343D01*
X15800397Y-12957343D02*
X15809921Y-12976390D01*
X15809921Y-12976390D02*
X15809921Y-13033533D01*
X15809921Y-13033533D02*
X15800397Y-13052581D01*
X15800397Y-13052581D02*
X15790873Y-13062105D01*
X15790873Y-13062105D02*
X15771825Y-13071628D01*
X15771825Y-13071628D02*
X15743254Y-13071628D01*
X15867064Y-12938295D02*
X15943254Y-12938295D01*
X15895635Y-12871628D02*
X15895635Y-13043057D01*
X15895635Y-13043057D02*
X15905159Y-13062105D01*
X15905159Y-13062105D02*
X15924206Y-13071628D01*
X15924206Y-13071628D02*
X15943254Y-13071628D01*
X16000397Y-13062105D02*
X16019444Y-13071628D01*
X16019444Y-13071628D02*
X16057540Y-13071628D01*
X16057540Y-13071628D02*
X16076587Y-13062105D01*
X16076587Y-13062105D02*
X16086111Y-13043057D01*
X16086111Y-13043057D02*
X16086111Y-13033533D01*
X16086111Y-13033533D02*
X16076587Y-13014486D01*
X16076587Y-13014486D02*
X16057540Y-13004962D01*
X16057540Y-13004962D02*
X16028968Y-13004962D01*
X16028968Y-13004962D02*
X16009921Y-12995438D01*
X16009921Y-12995438D02*
X16000397Y-12976390D01*
X16000397Y-12976390D02*
X16000397Y-12966867D01*
X16000397Y-12966867D02*
X16009921Y-12947819D01*
X16009921Y-12947819D02*
X16028968Y-12938295D01*
X16028968Y-12938295D02*
X16057540Y-12938295D01*
X16057540Y-12938295D02*
X16076587Y-12947819D01*
X16152778Y-13147819D02*
X16162302Y-13138295D01*
X16162302Y-13138295D02*
X16181349Y-13109724D01*
X16181349Y-13109724D02*
X16190873Y-13090676D01*
X16190873Y-13090676D02*
X16200397Y-13062105D01*
X16200397Y-13062105D02*
X16209921Y-13014486D01*
X16209921Y-13014486D02*
X16209921Y-12976390D01*
X16209921Y-12976390D02*
X16200397Y-12928771D01*
X16200397Y-12928771D02*
X16190873Y-12900200D01*
X16190873Y-12900200D02*
X16181349Y-12881152D01*
X16181349Y-12881152D02*
X16162302Y-12852581D01*
X16162302Y-12852581D02*
X16152778Y-12843057D01*
D12*
X9744023Y-13279500D02*
X9744023Y-13208789D01*
X9673311Y-13208789D01*
X9673311Y-13279500D01*
X9744023Y-13279500D01*
D11*
X10124206Y-13335628D02*
X10009920Y-13335628D01*
X10067063Y-13335628D02*
X10067063Y-13135628D01*
X10067063Y-13135628D02*
X10048015Y-13164200D01*
X10048015Y-13164200D02*
X10028968Y-13183247D01*
X10028968Y-13183247D02*
X10009920Y-13192771D01*
X10209920Y-13316581D02*
X10219444Y-13326105D01*
X10219444Y-13326105D02*
X10209920Y-13335628D01*
X10209920Y-13335628D02*
X10200396Y-13326105D01*
X10200396Y-13326105D02*
X10209920Y-13316581D01*
X10209920Y-13316581D02*
X10209920Y-13335628D01*
X10343253Y-13135628D02*
X10362301Y-13135628D01*
X10362301Y-13135628D02*
X10381349Y-13145152D01*
X10381349Y-13145152D02*
X10390873Y-13154676D01*
X10390873Y-13154676D02*
X10400396Y-13173724D01*
X10400396Y-13173724D02*
X10409920Y-13211819D01*
X10409920Y-13211819D02*
X10409920Y-13259438D01*
X10409920Y-13259438D02*
X10400396Y-13297533D01*
X10400396Y-13297533D02*
X10390873Y-13316581D01*
X10390873Y-13316581D02*
X10381349Y-13326105D01*
X10381349Y-13326105D02*
X10362301Y-13335628D01*
X10362301Y-13335628D02*
X10343253Y-13335628D01*
X10343253Y-13335628D02*
X10324206Y-13326105D01*
X10324206Y-13326105D02*
X10314682Y-13316581D01*
X10314682Y-13316581D02*
X10305158Y-13297533D01*
X10305158Y-13297533D02*
X10295634Y-13259438D01*
X10295634Y-13259438D02*
X10295634Y-13211819D01*
X10295634Y-13211819D02*
X10305158Y-13173724D01*
X10305158Y-13173724D02*
X10314682Y-13154676D01*
X10314682Y-13154676D02*
X10324206Y-13145152D01*
X10324206Y-13145152D02*
X10343253Y-13135628D01*
X10533730Y-13135628D02*
X10552777Y-13135628D01*
X10552777Y-13135628D02*
X10571825Y-13145152D01*
X10571825Y-13145152D02*
X10581349Y-13154676D01*
X10581349Y-13154676D02*
X10590873Y-13173724D01*
X10590873Y-13173724D02*
X10600396Y-13211819D01*
X10600396Y-13211819D02*
X10600396Y-13259438D01*
X10600396Y-13259438D02*
X10590873Y-13297533D01*
X10590873Y-13297533D02*
X10581349Y-13316581D01*
X10581349Y-13316581D02*
X10571825Y-13326105D01*
X10571825Y-13326105D02*
X10552777Y-13335628D01*
X10552777Y-13335628D02*
X10533730Y-13335628D01*
X10533730Y-13335628D02*
X10514682Y-13326105D01*
X10514682Y-13326105D02*
X10505158Y-13316581D01*
X10505158Y-13316581D02*
X10495634Y-13297533D01*
X10495634Y-13297533D02*
X10486111Y-13259438D01*
X10486111Y-13259438D02*
X10486111Y-13211819D01*
X10486111Y-13211819D02*
X10495634Y-13173724D01*
X10495634Y-13173724D02*
X10505158Y-13154676D01*
X10505158Y-13154676D02*
X10514682Y-13145152D01*
X10514682Y-13145152D02*
X10533730Y-13135628D01*
X10724206Y-13135628D02*
X10743254Y-13135628D01*
X10743254Y-13135628D02*
X10762301Y-13145152D01*
X10762301Y-13145152D02*
X10771825Y-13154676D01*
X10771825Y-13154676D02*
X10781349Y-13173724D01*
X10781349Y-13173724D02*
X10790873Y-13211819D01*
X10790873Y-13211819D02*
X10790873Y-13259438D01*
X10790873Y-13259438D02*
X10781349Y-13297533D01*
X10781349Y-13297533D02*
X10771825Y-13316581D01*
X10771825Y-13316581D02*
X10762301Y-13326105D01*
X10762301Y-13326105D02*
X10743254Y-13335628D01*
X10743254Y-13335628D02*
X10724206Y-13335628D01*
X10724206Y-13335628D02*
X10705158Y-13326105D01*
X10705158Y-13326105D02*
X10695634Y-13316581D01*
X10695634Y-13316581D02*
X10686111Y-13297533D01*
X10686111Y-13297533D02*
X10676587Y-13259438D01*
X10676587Y-13259438D02*
X10676587Y-13211819D01*
X10676587Y-13211819D02*
X10686111Y-13173724D01*
X10686111Y-13173724D02*
X10695634Y-13154676D01*
X10695634Y-13154676D02*
X10705158Y-13145152D01*
X10705158Y-13145152D02*
X10724206Y-13135628D01*
X10876587Y-13335628D02*
X10876587Y-13202295D01*
X10876587Y-13221343D02*
X10886111Y-13211819D01*
X10886111Y-13211819D02*
X10905158Y-13202295D01*
X10905158Y-13202295D02*
X10933730Y-13202295D01*
X10933730Y-13202295D02*
X10952777Y-13211819D01*
X10952777Y-13211819D02*
X10962301Y-13230867D01*
X10962301Y-13230867D02*
X10962301Y-13335628D01*
X10962301Y-13230867D02*
X10971825Y-13211819D01*
X10971825Y-13211819D02*
X10990873Y-13202295D01*
X10990873Y-13202295D02*
X11019444Y-13202295D01*
X11019444Y-13202295D02*
X11038492Y-13211819D01*
X11038492Y-13211819D02*
X11048015Y-13230867D01*
X11048015Y-13230867D02*
X11048015Y-13335628D01*
X11143254Y-13335628D02*
X11143254Y-13202295D01*
X11143254Y-13221343D02*
X11152777Y-13211819D01*
X11152777Y-13211819D02*
X11171825Y-13202295D01*
X11171825Y-13202295D02*
X11200396Y-13202295D01*
X11200396Y-13202295D02*
X11219444Y-13211819D01*
X11219444Y-13211819D02*
X11228968Y-13230867D01*
X11228968Y-13230867D02*
X11228968Y-13335628D01*
X11228968Y-13230867D02*
X11238492Y-13211819D01*
X11238492Y-13211819D02*
X11257539Y-13202295D01*
X11257539Y-13202295D02*
X11286111Y-13202295D01*
X11286111Y-13202295D02*
X11305158Y-13211819D01*
X11305158Y-13211819D02*
X11314682Y-13230867D01*
X11314682Y-13230867D02*
X11314682Y-13335628D01*
X11705158Y-13126105D02*
X11533730Y-13383247D01*
X11962301Y-13135628D02*
X11981349Y-13135628D01*
X11981349Y-13135628D02*
X12000396Y-13145152D01*
X12000396Y-13145152D02*
X12009920Y-13154676D01*
X12009920Y-13154676D02*
X12019444Y-13173724D01*
X12019444Y-13173724D02*
X12028968Y-13211819D01*
X12028968Y-13211819D02*
X12028968Y-13259438D01*
X12028968Y-13259438D02*
X12019444Y-13297533D01*
X12019444Y-13297533D02*
X12009920Y-13316581D01*
X12009920Y-13316581D02*
X12000396Y-13326105D01*
X12000396Y-13326105D02*
X11981349Y-13335628D01*
X11981349Y-13335628D02*
X11962301Y-13335628D01*
X11962301Y-13335628D02*
X11943254Y-13326105D01*
X11943254Y-13326105D02*
X11933730Y-13316581D01*
X11933730Y-13316581D02*
X11924206Y-13297533D01*
X11924206Y-13297533D02*
X11914682Y-13259438D01*
X11914682Y-13259438D02*
X11914682Y-13211819D01*
X11914682Y-13211819D02*
X11924206Y-13173724D01*
X11924206Y-13173724D02*
X11933730Y-13154676D01*
X11933730Y-13154676D02*
X11943254Y-13145152D01*
X11943254Y-13145152D02*
X11962301Y-13135628D01*
X12114682Y-13316581D02*
X12124206Y-13326105D01*
X12124206Y-13326105D02*
X12114682Y-13335628D01*
X12114682Y-13335628D02*
X12105158Y-13326105D01*
X12105158Y-13326105D02*
X12114682Y-13316581D01*
X12114682Y-13316581D02*
X12114682Y-13335628D01*
X12248015Y-13135628D02*
X12267063Y-13135628D01*
X12267063Y-13135628D02*
X12286111Y-13145152D01*
X12286111Y-13145152D02*
X12295635Y-13154676D01*
X12295635Y-13154676D02*
X12305158Y-13173724D01*
X12305158Y-13173724D02*
X12314682Y-13211819D01*
X12314682Y-13211819D02*
X12314682Y-13259438D01*
X12314682Y-13259438D02*
X12305158Y-13297533D01*
X12305158Y-13297533D02*
X12295635Y-13316581D01*
X12295635Y-13316581D02*
X12286111Y-13326105D01*
X12286111Y-13326105D02*
X12267063Y-13335628D01*
X12267063Y-13335628D02*
X12248015Y-13335628D01*
X12248015Y-13335628D02*
X12228968Y-13326105D01*
X12228968Y-13326105D02*
X12219444Y-13316581D01*
X12219444Y-13316581D02*
X12209920Y-13297533D01*
X12209920Y-13297533D02*
X12200396Y-13259438D01*
X12200396Y-13259438D02*
X12200396Y-13211819D01*
X12200396Y-13211819D02*
X12209920Y-13173724D01*
X12209920Y-13173724D02*
X12219444Y-13154676D01*
X12219444Y-13154676D02*
X12228968Y-13145152D01*
X12228968Y-13145152D02*
X12248015Y-13135628D01*
X12381349Y-13135628D02*
X12505158Y-13135628D01*
X12505158Y-13135628D02*
X12438492Y-13211819D01*
X12438492Y-13211819D02*
X12467063Y-13211819D01*
X12467063Y-13211819D02*
X12486111Y-13221343D01*
X12486111Y-13221343D02*
X12495635Y-13230867D01*
X12495635Y-13230867D02*
X12505158Y-13249914D01*
X12505158Y-13249914D02*
X12505158Y-13297533D01*
X12505158Y-13297533D02*
X12495635Y-13316581D01*
X12495635Y-13316581D02*
X12486111Y-13326105D01*
X12486111Y-13326105D02*
X12467063Y-13335628D01*
X12467063Y-13335628D02*
X12409920Y-13335628D01*
X12409920Y-13335628D02*
X12390873Y-13326105D01*
X12390873Y-13326105D02*
X12381349Y-13316581D01*
X12600396Y-13335628D02*
X12638492Y-13335628D01*
X12638492Y-13335628D02*
X12657539Y-13326105D01*
X12657539Y-13326105D02*
X12667063Y-13316581D01*
X12667063Y-13316581D02*
X12686111Y-13288009D01*
X12686111Y-13288009D02*
X12695635Y-13249914D01*
X12695635Y-13249914D02*
X12695635Y-13173724D01*
X12695635Y-13173724D02*
X12686111Y-13154676D01*
X12686111Y-13154676D02*
X12676587Y-13145152D01*
X12676587Y-13145152D02*
X12657539Y-13135628D01*
X12657539Y-13135628D02*
X12619444Y-13135628D01*
X12619444Y-13135628D02*
X12600396Y-13145152D01*
X12600396Y-13145152D02*
X12590873Y-13154676D01*
X12590873Y-13154676D02*
X12581349Y-13173724D01*
X12581349Y-13173724D02*
X12581349Y-13221343D01*
X12581349Y-13221343D02*
X12590873Y-13240390D01*
X12590873Y-13240390D02*
X12600396Y-13249914D01*
X12600396Y-13249914D02*
X12619444Y-13259438D01*
X12619444Y-13259438D02*
X12657539Y-13259438D01*
X12657539Y-13259438D02*
X12676587Y-13249914D01*
X12676587Y-13249914D02*
X12686111Y-13240390D01*
X12686111Y-13240390D02*
X12695635Y-13221343D01*
X12867063Y-13202295D02*
X12867063Y-13335628D01*
X12819444Y-13126105D02*
X12771825Y-13268962D01*
X12771825Y-13268962D02*
X12895635Y-13268962D01*
X12962301Y-13135628D02*
X12962301Y-13173724D01*
X13038492Y-13135628D02*
X13038492Y-13173724D01*
X13333730Y-13411819D02*
X13324206Y-13402295D01*
X13324206Y-13402295D02*
X13305158Y-13373724D01*
X13305158Y-13373724D02*
X13295635Y-13354676D01*
X13295635Y-13354676D02*
X13286111Y-13326105D01*
X13286111Y-13326105D02*
X13276587Y-13278486D01*
X13276587Y-13278486D02*
X13276587Y-13240390D01*
X13276587Y-13240390D02*
X13286111Y-13192771D01*
X13286111Y-13192771D02*
X13295635Y-13164200D01*
X13295635Y-13164200D02*
X13305158Y-13145152D01*
X13305158Y-13145152D02*
X13324206Y-13116581D01*
X13324206Y-13116581D02*
X13333730Y-13107057D01*
X13400397Y-13154676D02*
X13409920Y-13145152D01*
X13409920Y-13145152D02*
X13428968Y-13135628D01*
X13428968Y-13135628D02*
X13476587Y-13135628D01*
X13476587Y-13135628D02*
X13495635Y-13145152D01*
X13495635Y-13145152D02*
X13505158Y-13154676D01*
X13505158Y-13154676D02*
X13514682Y-13173724D01*
X13514682Y-13173724D02*
X13514682Y-13192771D01*
X13514682Y-13192771D02*
X13505158Y-13221343D01*
X13505158Y-13221343D02*
X13390873Y-13335628D01*
X13390873Y-13335628D02*
X13514682Y-13335628D01*
X13752778Y-13335628D02*
X13752778Y-13135628D01*
X13838492Y-13335628D02*
X13838492Y-13230867D01*
X13838492Y-13230867D02*
X13828968Y-13211819D01*
X13828968Y-13211819D02*
X13809920Y-13202295D01*
X13809920Y-13202295D02*
X13781349Y-13202295D01*
X13781349Y-13202295D02*
X13762301Y-13211819D01*
X13762301Y-13211819D02*
X13752778Y-13221343D01*
X13962301Y-13335628D02*
X13943254Y-13326105D01*
X13943254Y-13326105D02*
X13933730Y-13316581D01*
X13933730Y-13316581D02*
X13924206Y-13297533D01*
X13924206Y-13297533D02*
X13924206Y-13240390D01*
X13924206Y-13240390D02*
X13933730Y-13221343D01*
X13933730Y-13221343D02*
X13943254Y-13211819D01*
X13943254Y-13211819D02*
X13962301Y-13202295D01*
X13962301Y-13202295D02*
X13990873Y-13202295D01*
X13990873Y-13202295D02*
X14009920Y-13211819D01*
X14009920Y-13211819D02*
X14019444Y-13221343D01*
X14019444Y-13221343D02*
X14028968Y-13240390D01*
X14028968Y-13240390D02*
X14028968Y-13297533D01*
X14028968Y-13297533D02*
X14019444Y-13316581D01*
X14019444Y-13316581D02*
X14009920Y-13326105D01*
X14009920Y-13326105D02*
X13990873Y-13335628D01*
X13990873Y-13335628D02*
X13962301Y-13335628D01*
X14143254Y-13335628D02*
X14124206Y-13326105D01*
X14124206Y-13326105D02*
X14114682Y-13307057D01*
X14114682Y-13307057D02*
X14114682Y-13135628D01*
X14295635Y-13326105D02*
X14276587Y-13335628D01*
X14276587Y-13335628D02*
X14238492Y-13335628D01*
X14238492Y-13335628D02*
X14219444Y-13326105D01*
X14219444Y-13326105D02*
X14209920Y-13307057D01*
X14209920Y-13307057D02*
X14209920Y-13230867D01*
X14209920Y-13230867D02*
X14219444Y-13211819D01*
X14219444Y-13211819D02*
X14238492Y-13202295D01*
X14238492Y-13202295D02*
X14276587Y-13202295D01*
X14276587Y-13202295D02*
X14295635Y-13211819D01*
X14295635Y-13211819D02*
X14305159Y-13230867D01*
X14305159Y-13230867D02*
X14305159Y-13249914D01*
X14305159Y-13249914D02*
X14209920Y-13268962D01*
X14381349Y-13326105D02*
X14400397Y-13335628D01*
X14400397Y-13335628D02*
X14438492Y-13335628D01*
X14438492Y-13335628D02*
X14457540Y-13326105D01*
X14457540Y-13326105D02*
X14467063Y-13307057D01*
X14467063Y-13307057D02*
X14467063Y-13297533D01*
X14467063Y-13297533D02*
X14457540Y-13278486D01*
X14457540Y-13278486D02*
X14438492Y-13268962D01*
X14438492Y-13268962D02*
X14409920Y-13268962D01*
X14409920Y-13268962D02*
X14390873Y-13259438D01*
X14390873Y-13259438D02*
X14381349Y-13240390D01*
X14381349Y-13240390D02*
X14381349Y-13230867D01*
X14381349Y-13230867D02*
X14390873Y-13211819D01*
X14390873Y-13211819D02*
X14409920Y-13202295D01*
X14409920Y-13202295D02*
X14438492Y-13202295D01*
X14438492Y-13202295D02*
X14457540Y-13211819D01*
X14533730Y-13411819D02*
X14543254Y-13402295D01*
X14543254Y-13402295D02*
X14562301Y-13373724D01*
X14562301Y-13373724D02*
X14571825Y-13354676D01*
X14571825Y-13354676D02*
X14581349Y-13326105D01*
X14581349Y-13326105D02*
X14590873Y-13278486D01*
X14590873Y-13278486D02*
X14590873Y-13240390D01*
X14590873Y-13240390D02*
X14581349Y-13192771D01*
X14581349Y-13192771D02*
X14571825Y-13164200D01*
X14571825Y-13164200D02*
X14562301Y-13145152D01*
X14562301Y-13145152D02*
X14543254Y-13116581D01*
X14543254Y-13116581D02*
X14533730Y-13107057D01*
M02*
