%TF.GenerationSoftware,KiCad,Pcbnew,8.0.2*%
%TF.CreationDate,2024-08-07T22:56:45+12:00*%
%TF.ProjectId,FYP_P2_2,4659505f-5032-45f3-922e-6b696361645f,rev?*%
%TF.SameCoordinates,Original*%
%TF.FileFunction,OtherDrawing,Comment*%
%FSLAX46Y46*%
G04 Gerber Fmt 4.6, Leading zero omitted, Abs format (unit mm)*
G04 Created by KiCad (PCBNEW 8.0.2) date 2024-08-07 22:56:45*
%MOMM*%
%LPD*%
G01*
G04 APERTURE LIST*
%ADD10C,0.075000*%
%ADD11C,0.100000*%
G04 APERTURE END LIST*
D10*
X140527409Y-83447380D02*
X140027409Y-83447380D01*
X140027409Y-83447380D02*
X140027409Y-83256904D01*
X140027409Y-83256904D02*
X140051219Y-83209285D01*
X140051219Y-83209285D02*
X140075028Y-83185475D01*
X140075028Y-83185475D02*
X140122647Y-83161666D01*
X140122647Y-83161666D02*
X140194076Y-83161666D01*
X140194076Y-83161666D02*
X140241695Y-83185475D01*
X140241695Y-83185475D02*
X140265504Y-83209285D01*
X140265504Y-83209285D02*
X140289314Y-83256904D01*
X140289314Y-83256904D02*
X140289314Y-83447380D01*
X140479790Y-82661666D02*
X140503600Y-82685475D01*
X140503600Y-82685475D02*
X140527409Y-82756904D01*
X140527409Y-82756904D02*
X140527409Y-82804523D01*
X140527409Y-82804523D02*
X140503600Y-82875951D01*
X140503600Y-82875951D02*
X140455980Y-82923570D01*
X140455980Y-82923570D02*
X140408361Y-82947380D01*
X140408361Y-82947380D02*
X140313123Y-82971189D01*
X140313123Y-82971189D02*
X140241695Y-82971189D01*
X140241695Y-82971189D02*
X140146457Y-82947380D01*
X140146457Y-82947380D02*
X140098838Y-82923570D01*
X140098838Y-82923570D02*
X140051219Y-82875951D01*
X140051219Y-82875951D02*
X140027409Y-82804523D01*
X140027409Y-82804523D02*
X140027409Y-82756904D01*
X140027409Y-82756904D02*
X140051219Y-82685475D01*
X140051219Y-82685475D02*
X140075028Y-82661666D01*
X140265504Y-82280713D02*
X140289314Y-82209285D01*
X140289314Y-82209285D02*
X140313123Y-82185475D01*
X140313123Y-82185475D02*
X140360742Y-82161666D01*
X140360742Y-82161666D02*
X140432171Y-82161666D01*
X140432171Y-82161666D02*
X140479790Y-82185475D01*
X140479790Y-82185475D02*
X140503600Y-82209285D01*
X140503600Y-82209285D02*
X140527409Y-82256904D01*
X140527409Y-82256904D02*
X140527409Y-82447380D01*
X140527409Y-82447380D02*
X140027409Y-82447380D01*
X140027409Y-82447380D02*
X140027409Y-82280713D01*
X140027409Y-82280713D02*
X140051219Y-82233094D01*
X140051219Y-82233094D02*
X140075028Y-82209285D01*
X140075028Y-82209285D02*
X140122647Y-82185475D01*
X140122647Y-82185475D02*
X140170266Y-82185475D01*
X140170266Y-82185475D02*
X140217885Y-82209285D01*
X140217885Y-82209285D02*
X140241695Y-82233094D01*
X140241695Y-82233094D02*
X140265504Y-82280713D01*
X140265504Y-82280713D02*
X140265504Y-82447380D01*
X140503600Y-81375952D02*
X140527409Y-81423571D01*
X140527409Y-81423571D02*
X140527409Y-81518809D01*
X140527409Y-81518809D02*
X140503600Y-81566428D01*
X140503600Y-81566428D02*
X140455980Y-81590237D01*
X140455980Y-81590237D02*
X140265504Y-81590237D01*
X140265504Y-81590237D02*
X140217885Y-81566428D01*
X140217885Y-81566428D02*
X140194076Y-81518809D01*
X140194076Y-81518809D02*
X140194076Y-81423571D01*
X140194076Y-81423571D02*
X140217885Y-81375952D01*
X140217885Y-81375952D02*
X140265504Y-81352142D01*
X140265504Y-81352142D02*
X140313123Y-81352142D01*
X140313123Y-81352142D02*
X140360742Y-81590237D01*
X140527409Y-80923571D02*
X140027409Y-80923571D01*
X140503600Y-80923571D02*
X140527409Y-80971190D01*
X140527409Y-80971190D02*
X140527409Y-81066428D01*
X140527409Y-81066428D02*
X140503600Y-81114047D01*
X140503600Y-81114047D02*
X140479790Y-81137857D01*
X140479790Y-81137857D02*
X140432171Y-81161666D01*
X140432171Y-81161666D02*
X140289314Y-81161666D01*
X140289314Y-81161666D02*
X140241695Y-81137857D01*
X140241695Y-81137857D02*
X140217885Y-81114047D01*
X140217885Y-81114047D02*
X140194076Y-81066428D01*
X140194076Y-81066428D02*
X140194076Y-80971190D01*
X140194076Y-80971190D02*
X140217885Y-80923571D01*
X140194076Y-80471190D02*
X140598838Y-80471190D01*
X140598838Y-80471190D02*
X140646457Y-80495000D01*
X140646457Y-80495000D02*
X140670266Y-80518809D01*
X140670266Y-80518809D02*
X140694076Y-80566428D01*
X140694076Y-80566428D02*
X140694076Y-80637857D01*
X140694076Y-80637857D02*
X140670266Y-80685476D01*
X140503600Y-80471190D02*
X140527409Y-80518809D01*
X140527409Y-80518809D02*
X140527409Y-80614047D01*
X140527409Y-80614047D02*
X140503600Y-80661666D01*
X140503600Y-80661666D02*
X140479790Y-80685476D01*
X140479790Y-80685476D02*
X140432171Y-80709285D01*
X140432171Y-80709285D02*
X140289314Y-80709285D01*
X140289314Y-80709285D02*
X140241695Y-80685476D01*
X140241695Y-80685476D02*
X140217885Y-80661666D01*
X140217885Y-80661666D02*
X140194076Y-80614047D01*
X140194076Y-80614047D02*
X140194076Y-80518809D01*
X140194076Y-80518809D02*
X140217885Y-80471190D01*
X140503600Y-80042619D02*
X140527409Y-80090238D01*
X140527409Y-80090238D02*
X140527409Y-80185476D01*
X140527409Y-80185476D02*
X140503600Y-80233095D01*
X140503600Y-80233095D02*
X140455980Y-80256904D01*
X140455980Y-80256904D02*
X140265504Y-80256904D01*
X140265504Y-80256904D02*
X140217885Y-80233095D01*
X140217885Y-80233095D02*
X140194076Y-80185476D01*
X140194076Y-80185476D02*
X140194076Y-80090238D01*
X140194076Y-80090238D02*
X140217885Y-80042619D01*
X140217885Y-80042619D02*
X140265504Y-80018809D01*
X140265504Y-80018809D02*
X140313123Y-80018809D01*
X140313123Y-80018809D02*
X140360742Y-80256904D01*
D11*
%TO.C,J12*%
X140900000Y-85745000D02*
X140900000Y-77745000D01*
%TD*%
M02*
