%TF.GenerationSoftware,KiCad,Pcbnew,8.0.2*%
%TF.CreationDate,2024-08-07T22:56:45+12:00*%
%TF.ProjectId,FYP_P2_2,4659505f-5032-45f3-922e-6b696361645f,rev?*%
%TF.SameCoordinates,Original*%
%TF.FileFunction,Other,User*%
%FSLAX46Y46*%
G04 Gerber Fmt 4.6, Leading zero omitted, Abs format (unit mm)*
G04 Created by KiCad (PCBNEW 8.0.2) date 2024-08-07 22:56:45*
%MOMM*%
%LPD*%
G01*
G04 APERTURE LIST*
%ADD10C,0.050000*%
G04 APERTURE END LIST*
D10*
%TO.C,R2*%
X108337944Y-86658276D02*
X109797944Y-86658276D01*
X108337944Y-89618276D02*
X108337944Y-86658276D01*
X109797944Y-86658276D02*
X109797944Y-89618276D01*
X109797944Y-89618276D02*
X108337944Y-89618276D01*
%TO.C,J6*%
X135500000Y-89650000D02*
X141800000Y-89650000D01*
X135500000Y-101100000D02*
X135500000Y-89650000D01*
X141800000Y-89650000D02*
X141800000Y-101100000D01*
X141800000Y-101100000D02*
X135500000Y-101100000D01*
%TO.C,R7*%
X131505000Y-95745000D02*
X134465000Y-95745000D01*
X131505000Y-97205000D02*
X131505000Y-95745000D01*
X134465000Y-95745000D02*
X134465000Y-97205000D01*
X134465000Y-97205000D02*
X131505000Y-97205000D01*
%TO.C,J3*%
X97610000Y-77550000D02*
X103910000Y-77550000D01*
X97610000Y-89000000D02*
X97610000Y-77550000D01*
X103910000Y-77550000D02*
X103910000Y-89000000D01*
X103910000Y-89000000D02*
X97610000Y-89000000D01*
%TO.C,R6*%
X131500000Y-93495000D02*
X134460000Y-93495000D01*
X131500000Y-94955000D02*
X131500000Y-93495000D01*
X134460000Y-93495000D02*
X134460000Y-94955000D01*
X134460000Y-94955000D02*
X131500000Y-94955000D01*
%TO.C,J8*%
X116390000Y-103100000D02*
X116390000Y-115450000D01*
X116390000Y-115450000D02*
X122540000Y-115450000D01*
X122540000Y-103100000D02*
X116390000Y-103100000D01*
X122540000Y-115450000D02*
X122540000Y-103100000D01*
%TO.C,J4*%
X97630000Y-89690000D02*
X103930000Y-89690000D01*
X97630000Y-101140000D02*
X97630000Y-89690000D01*
X103930000Y-89690000D02*
X103930000Y-101140000D01*
X103930000Y-101140000D02*
X97630000Y-101140000D01*
%TO.C,R4*%
X108352056Y-83421724D02*
X109812056Y-83421724D01*
X108352056Y-86381724D02*
X108352056Y-83421724D01*
X109812056Y-83421724D02*
X109812056Y-86381724D01*
X109812056Y-86381724D02*
X108352056Y-86381724D01*
%TD*%
M02*
