%TF.GenerationSoftware,KiCad,Pcbnew,8.0.2*%
%TF.CreationDate,2024-08-07T22:56:45+12:00*%
%TF.ProjectId,FYP_P2_2,4659505f-5032-45f3-922e-6b696361645f,rev?*%
%TF.SameCoordinates,Original*%
%TF.FileFunction,Other,User*%
%FSLAX46Y46*%
G04 Gerber Fmt 4.6, Leading zero omitted, Abs format (unit mm)*
G04 Created by KiCad (PCBNEW 8.0.2) date 2024-08-07 22:56:45*
%MOMM*%
%LPD*%
G01*
G04 APERTURE LIST*
%ADD10C,0.152400*%
%ADD11C,0.050000*%
G04 APERTURE END LIST*
D10*
%TO.C,U4*%
X127594750Y-83517001D02*
X128547250Y-83517001D01*
X127594750Y-86433001D02*
X127594750Y-83517001D01*
X127594750Y-86433001D02*
X128547250Y-86433001D01*
X128547250Y-83273201D02*
X130655450Y-83273201D01*
X128547250Y-83517001D02*
X128547250Y-83273201D01*
X128547250Y-86676801D02*
X128547250Y-86433001D01*
X130655450Y-83273201D02*
X130655450Y-83517001D01*
X130655450Y-86433001D02*
X130655450Y-86676801D01*
X130655450Y-86676801D02*
X128547250Y-86676801D01*
X131607950Y-83517001D02*
X130655450Y-83517001D01*
X131607950Y-83517001D02*
X131607950Y-86433001D01*
X131607950Y-86433001D02*
X130655450Y-86433001D01*
D11*
%TO.C,J7*%
X135080000Y-86530000D02*
X135080000Y-101720000D01*
X135080000Y-86530000D02*
X142820000Y-86530000D01*
X142820000Y-86530000D02*
X142820000Y-101720000D01*
X142820000Y-101720000D02*
X135080000Y-101720000D01*
%TO.C,Y1*%
X112850000Y-100925000D02*
X112850000Y-105125000D01*
X112850000Y-105125000D02*
X116250000Y-105125000D01*
X116250000Y-100925000D02*
X112850000Y-100925000D01*
X116250000Y-105125000D02*
X116250000Y-100925000D01*
%TO.C,U3*%
X107995000Y-80060000D02*
X107995000Y-89360000D01*
X107995000Y-89360000D02*
X113715000Y-89360000D01*
X113715000Y-80060000D02*
X107995000Y-80060000D01*
X113715000Y-89360000D02*
X113715000Y-80060000D01*
%TO.C,R3*%
X106310000Y-89745000D02*
X107770000Y-89745000D01*
X106310000Y-92705000D02*
X106310000Y-89745000D01*
X107770000Y-89745000D02*
X107770000Y-92705000D01*
X107770000Y-92705000D02*
X106310000Y-92705000D01*
%TO.C,C21*%
X133260000Y-101872500D02*
X134720000Y-101872500D01*
X133260000Y-104832500D02*
X133260000Y-101872500D01*
X134720000Y-101872500D02*
X134720000Y-104832500D01*
X134720000Y-104832500D02*
X133260000Y-104832500D01*
%TO.C,C23*%
X124815000Y-104115000D02*
X127775000Y-104115000D01*
X124815000Y-105575000D02*
X124815000Y-104115000D01*
X127775000Y-104115000D02*
X127775000Y-105575000D01*
X127775000Y-105575000D02*
X124815000Y-105575000D01*
%TO.C,C31*%
X117945000Y-109620000D02*
X120905000Y-109620000D01*
X117945000Y-111080000D02*
X117945000Y-109620000D01*
X120905000Y-109620000D02*
X120905000Y-111080000D01*
X120905000Y-111080000D02*
X117945000Y-111080000D01*
%TO.C,H1*%
X127340000Y-115800000D02*
G75*
G02*
X122440000Y-115800000I-2450000J0D01*
G01*
X122440000Y-115800000D02*
G75*
G02*
X127340000Y-115800000I2450000J0D01*
G01*
%TO.C,R22*%
X104530000Y-98395000D02*
X105990000Y-98395000D01*
X104530000Y-101355000D02*
X104530000Y-98395000D01*
X105990000Y-98395000D02*
X105990000Y-101355000D01*
X105990000Y-101355000D02*
X104530000Y-101355000D01*
%TO.C,R27*%
X101780000Y-112395000D02*
X104020000Y-112395000D01*
X101780000Y-116955000D02*
X101780000Y-112395000D01*
X104020000Y-112395000D02*
X104020000Y-116955000D01*
X104020000Y-116955000D02*
X101780000Y-116955000D01*
%TO.C,J15*%
X97610000Y-77550000D02*
X103910000Y-77550000D01*
X97610000Y-89000000D02*
X97610000Y-77550000D01*
X103910000Y-77550000D02*
X103910000Y-89000000D01*
X103910000Y-89000000D02*
X97610000Y-89000000D01*
%TO.C,C28*%
X104695000Y-110295000D02*
X106155000Y-110295000D01*
X104695000Y-113255000D02*
X104695000Y-110295000D01*
X106155000Y-110295000D02*
X106155000Y-113255000D01*
X106155000Y-113255000D02*
X104695000Y-113255000D01*
%TO.C,R8*%
X106310000Y-86410000D02*
X107770000Y-86410000D01*
X106310000Y-89370000D02*
X106310000Y-86410000D01*
X107770000Y-86410000D02*
X107770000Y-89370000D01*
X107770000Y-89370000D02*
X106310000Y-89370000D01*
%TO.C,C3*%
X124295000Y-95320000D02*
X127255000Y-95320000D01*
X124295000Y-96780000D02*
X124295000Y-95320000D01*
X127255000Y-95320000D02*
X127255000Y-96780000D01*
X127255000Y-96780000D02*
X124295000Y-96780000D01*
%TO.C,C13*%
X116620000Y-99720000D02*
X118080000Y-99720000D01*
X116620000Y-102680000D02*
X116620000Y-99720000D01*
X118080000Y-99720000D02*
X118080000Y-102680000D01*
X118080000Y-102680000D02*
X116620000Y-102680000D01*
%TO.C,IC1*%
X128080000Y-104465000D02*
X134330000Y-104465000D01*
X128080000Y-110715000D02*
X128080000Y-104465000D01*
X134330000Y-104465000D02*
X134330000Y-110715000D01*
X134330000Y-110715000D02*
X128080000Y-110715000D01*
%TO.C,R15*%
X132540000Y-113455000D02*
X134000000Y-113455000D01*
X132540000Y-116415000D02*
X132540000Y-113455000D01*
X134000000Y-113455000D02*
X134000000Y-116415000D01*
X134000000Y-116415000D02*
X132540000Y-116415000D01*
%TO.C,R16*%
X133260000Y-98530000D02*
X134720000Y-98530000D01*
X133260000Y-101490000D02*
X133260000Y-98530000D01*
X134720000Y-98530000D02*
X134720000Y-101490000D01*
X134720000Y-101490000D02*
X133260000Y-101490000D01*
%TO.C,D4*%
X113340000Y-107570000D02*
X116300000Y-107570000D01*
X113340000Y-109030000D02*
X113340000Y-107570000D01*
X116300000Y-107570000D02*
X116300000Y-109030000D01*
X116300000Y-109030000D02*
X113340000Y-109030000D01*
%TO.C,C5*%
X119805000Y-99720000D02*
X121265000Y-99720000D01*
X119805000Y-102680000D02*
X119805000Y-99720000D01*
X121265000Y-99720000D02*
X121265000Y-102680000D01*
X121265000Y-102680000D02*
X119805000Y-102680000D01*
%TO.C,C15*%
X131795000Y-83545000D02*
X133255000Y-83545000D01*
X131795000Y-86505000D02*
X131795000Y-83545000D01*
X133255000Y-83545000D02*
X133255000Y-86505000D01*
X133255000Y-86505000D02*
X131795000Y-86505000D01*
%TO.C,C14*%
X113290000Y-99260000D02*
X116250000Y-99260000D01*
X113290000Y-100720000D02*
X113290000Y-99260000D01*
X116250000Y-99260000D02*
X116250000Y-100720000D01*
X116250000Y-100720000D02*
X113290000Y-100720000D01*
%TO.C,J9*%
X97600000Y-101770000D02*
X103900000Y-101770000D01*
X97600000Y-113220000D02*
X97600000Y-101770000D01*
X103900000Y-101770000D02*
X103900000Y-113220000D01*
X103900000Y-113220000D02*
X97600000Y-113220000D01*
%TO.C,J14*%
X135500000Y-101865000D02*
X141800000Y-101865000D01*
X135500000Y-113315000D02*
X135500000Y-101865000D01*
X141800000Y-101865000D02*
X141800000Y-113315000D01*
X141800000Y-113315000D02*
X135500000Y-113315000D01*
%TO.C,C27*%
X110845000Y-110800000D02*
X112805000Y-110800000D01*
X110845000Y-114200000D02*
X110845000Y-110800000D01*
X112805000Y-110800000D02*
X112805000Y-114200000D01*
X112805000Y-114200000D02*
X110845000Y-114200000D01*
%TO.C,R28*%
X101780000Y-98070000D02*
X104020000Y-98070000D01*
X101780000Y-102630000D02*
X101780000Y-98070000D01*
X104020000Y-98070000D02*
X104020000Y-102630000D01*
X104020000Y-102630000D02*
X101780000Y-102630000D01*
%TO.C,C17*%
X125995000Y-83545000D02*
X127455000Y-83545000D01*
X125995000Y-86505000D02*
X125995000Y-83545000D01*
X127455000Y-83545000D02*
X127455000Y-86505000D01*
X127455000Y-86505000D02*
X125995000Y-86505000D01*
%TO.C,C4*%
X124620000Y-91620000D02*
X127580000Y-91620000D01*
X124620000Y-93080000D02*
X124620000Y-91620000D01*
X127580000Y-91620000D02*
X127580000Y-93080000D01*
X127580000Y-93080000D02*
X124620000Y-93080000D01*
%TO.C,R20*%
X111070000Y-101317500D02*
X112530000Y-101317500D01*
X111070000Y-104277500D02*
X111070000Y-101317500D01*
X112530000Y-101317500D02*
X112530000Y-104277500D01*
X112530000Y-104277500D02*
X111070000Y-104277500D01*
%TO.C,C8*%
X123620000Y-86745000D02*
X125080000Y-86745000D01*
X123620000Y-89705000D02*
X123620000Y-86745000D01*
X125080000Y-86745000D02*
X125080000Y-89705000D01*
X125080000Y-89705000D02*
X123620000Y-89705000D01*
%TO.C,C25*%
X104695000Y-101745000D02*
X106155000Y-101745000D01*
X104695000Y-104705000D02*
X104695000Y-101745000D01*
X106155000Y-101745000D02*
X106155000Y-104705000D01*
X106155000Y-104705000D02*
X104695000Y-104705000D01*
%TO.C,C1*%
X124695000Y-89870000D02*
X127655000Y-89870000D01*
X124695000Y-91330000D02*
X124695000Y-89870000D01*
X127655000Y-89870000D02*
X127655000Y-91330000D01*
X127655000Y-91330000D02*
X124695000Y-91330000D01*
%TO.C,R9*%
X104580000Y-86405000D02*
X106040000Y-86405000D01*
X104580000Y-89365000D02*
X104580000Y-86405000D01*
X106040000Y-86405000D02*
X106040000Y-89365000D01*
X106040000Y-89365000D02*
X104580000Y-89365000D01*
%TO.C,R11*%
X120670000Y-83695000D02*
X122130000Y-83695000D01*
X120670000Y-86655000D02*
X120670000Y-83695000D01*
X122130000Y-83695000D02*
X122130000Y-86655000D01*
X122130000Y-86655000D02*
X120670000Y-86655000D01*
%TO.C,C7*%
X117470000Y-83695000D02*
X118930000Y-83695000D01*
X117470000Y-86655000D02*
X117470000Y-83695000D01*
X118930000Y-83695000D02*
X118930000Y-86655000D01*
X118930000Y-86655000D02*
X117470000Y-86655000D01*
%TO.C,C24*%
X109520000Y-101317500D02*
X110980000Y-101317500D01*
X109520000Y-104277500D02*
X109520000Y-101317500D01*
X110980000Y-101317500D02*
X110980000Y-104277500D01*
X110980000Y-104277500D02*
X109520000Y-104277500D01*
%TO.C,C2*%
X115870000Y-83695000D02*
X117330000Y-83695000D01*
X115870000Y-86655000D02*
X115870000Y-83695000D01*
X117330000Y-83695000D02*
X117330000Y-86655000D01*
X117330000Y-86655000D02*
X115870000Y-86655000D01*
%TO.C,R25*%
X106095000Y-99945000D02*
X109055000Y-99945000D01*
X106095000Y-101405000D02*
X106095000Y-99945000D01*
X109055000Y-99945000D02*
X109055000Y-101405000D01*
X109055000Y-101405000D02*
X106095000Y-101405000D01*
%TO.C,C30*%
X111460000Y-109220000D02*
X114420000Y-109220000D01*
X111460000Y-110680000D02*
X111460000Y-109220000D01*
X114420000Y-109220000D02*
X114420000Y-110680000D01*
X114420000Y-110680000D02*
X111460000Y-110680000D01*
%TO.C,J5*%
X97630000Y-89690000D02*
X103930000Y-89690000D01*
X97630000Y-101140000D02*
X97630000Y-89690000D01*
X103930000Y-89690000D02*
X103930000Y-101140000D01*
X103930000Y-101140000D02*
X97630000Y-101140000D01*
%TO.C,IC2*%
X105075000Y-104375000D02*
X111325000Y-104375000D01*
X105075000Y-110625000D02*
X105075000Y-104375000D01*
X111325000Y-104375000D02*
X111325000Y-110625000D01*
X111325000Y-110625000D02*
X105075000Y-110625000D01*
%TO.C,J12*%
X135185000Y-85850000D02*
X135185000Y-77580000D01*
X135185000Y-85850000D02*
X141645000Y-85850000D01*
X141645000Y-77580000D02*
X135185000Y-77580000D01*
X141645000Y-77580000D02*
X141645000Y-85850000D01*
%TO.C,C6*%
X112055000Y-90554841D02*
X115015000Y-90554841D01*
X112055000Y-92014841D02*
X112055000Y-90554841D01*
X115015000Y-90554841D02*
X115015000Y-92014841D01*
X115015000Y-92014841D02*
X112055000Y-92014841D01*
%TO.C,D1*%
X124845000Y-110345000D02*
X126305000Y-110345000D01*
X124845000Y-113305000D02*
X124845000Y-110345000D01*
X126305000Y-110345000D02*
X126305000Y-113305000D01*
X126305000Y-113305000D02*
X124845000Y-113305000D01*
%TO.C,D2*%
X122507500Y-107570000D02*
X125467500Y-107570000D01*
X122507500Y-109030000D02*
X122507500Y-107570000D01*
X125467500Y-107570000D02*
X125467500Y-109030000D01*
X125467500Y-109030000D02*
X122507500Y-109030000D01*
%TO.C,R12*%
X119070000Y-83695000D02*
X120530000Y-83695000D01*
X119070000Y-86655000D02*
X119070000Y-83695000D01*
X120530000Y-83695000D02*
X120530000Y-86655000D01*
X120530000Y-86655000D02*
X119070000Y-86655000D01*
%TO.C,U2*%
X115295000Y-90400000D02*
X115295000Y-98660000D01*
X115295000Y-98660000D02*
X123555000Y-98660000D01*
X123555000Y-90400000D02*
X115295000Y-90400000D01*
X123555000Y-98660000D02*
X123555000Y-90400000D01*
%TO.C,C12*%
X107980000Y-78120000D02*
X110940000Y-78120000D01*
X107980000Y-79580000D02*
X107980000Y-78120000D01*
X110940000Y-78120000D02*
X110940000Y-79580000D01*
X110940000Y-79580000D02*
X107980000Y-79580000D01*
%TO.C,TP1*%
X130525000Y-78875000D02*
X130525000Y-81375000D01*
X130525000Y-78875000D02*
X133025000Y-78875000D01*
X133025000Y-81375000D02*
X130525000Y-81375000D01*
X133025000Y-81375000D02*
X133025000Y-78875000D01*
%TO.C,C18*%
X133260000Y-110360000D02*
X134720000Y-110360000D01*
X133260000Y-113320000D02*
X133260000Y-110360000D01*
X134720000Y-110360000D02*
X134720000Y-113320000D01*
X134720000Y-113320000D02*
X133260000Y-113320000D01*
%TO.C,R23*%
X104695000Y-113370000D02*
X106155000Y-113370000D01*
X104695000Y-116330000D02*
X104695000Y-113370000D01*
X106155000Y-113370000D02*
X106155000Y-116330000D01*
X106155000Y-116330000D02*
X104695000Y-116330000D01*
%TO.C,R26*%
X113320000Y-105925000D02*
X116280000Y-105925000D01*
X113320000Y-107385000D02*
X113320000Y-105925000D01*
X116280000Y-105925000D02*
X116280000Y-107385000D01*
X116280000Y-107385000D02*
X113320000Y-107385000D01*
%TO.C,R14*%
X122990000Y-99720000D02*
X124450000Y-99720000D01*
X122990000Y-102680000D02*
X122990000Y-99720000D01*
X124450000Y-99720000D02*
X124450000Y-102680000D01*
X124450000Y-102680000D02*
X122990000Y-102680000D01*
%TO.C,R5*%
X104580000Y-89745000D02*
X106040000Y-89745000D01*
X104580000Y-92705000D02*
X104580000Y-89745000D01*
X106040000Y-89745000D02*
X106040000Y-92705000D01*
X106040000Y-92705000D02*
X104580000Y-92705000D01*
%TO.C,SW1*%
X114200000Y-79675000D02*
X119800000Y-79675000D01*
X114200000Y-83275000D02*
X114200000Y-79675000D01*
X119800000Y-79675000D02*
X119800000Y-83275000D01*
X119800000Y-83275000D02*
X114200000Y-83275000D01*
%TO.C,R29*%
X134830000Y-98070000D02*
X137070000Y-98070000D01*
X134830000Y-102630000D02*
X134830000Y-98070000D01*
X137070000Y-98070000D02*
X137070000Y-102630000D01*
X137070000Y-102630000D02*
X134830000Y-102630000D01*
%TO.C,R19*%
X122507500Y-105925000D02*
X125467500Y-105925000D01*
X122507500Y-107385000D02*
X122507500Y-105925000D01*
X125467500Y-105925000D02*
X125467500Y-107385000D01*
X125467500Y-107385000D02*
X122507500Y-107385000D01*
%TO.C,C16*%
X127945000Y-110345000D02*
X129405000Y-110345000D01*
X127945000Y-113305000D02*
X127945000Y-110345000D01*
X129405000Y-110345000D02*
X129405000Y-113305000D01*
X129405000Y-113305000D02*
X127945000Y-113305000D01*
%TO.C,C26*%
X106220000Y-112370000D02*
X109180000Y-112370000D01*
X106220000Y-113830000D02*
X106220000Y-112370000D01*
X109180000Y-112370000D02*
X109180000Y-113830000D01*
X109180000Y-113830000D02*
X106220000Y-113830000D01*
%TO.C,C11*%
X121870000Y-86745000D02*
X123330000Y-86745000D01*
X121870000Y-89705000D02*
X121870000Y-86745000D01*
X123330000Y-86745000D02*
X123330000Y-89705000D01*
X123330000Y-89705000D02*
X121870000Y-89705000D01*
%TO.C,J13*%
X117125000Y-106907500D02*
X117125000Y-109407500D01*
X117125000Y-106907500D02*
X121725000Y-106907500D01*
X121725000Y-109407500D02*
X117125000Y-109407500D01*
X121725000Y-109407500D02*
X121725000Y-106907500D01*
%TO.C,C20*%
X126420000Y-100125000D02*
X128380000Y-100125000D01*
X126420000Y-103525000D02*
X126420000Y-100125000D01*
X128380000Y-100125000D02*
X128380000Y-103525000D01*
X128380000Y-103525000D02*
X126420000Y-103525000D01*
%TO.C,R10*%
X118212500Y-99720000D02*
X119672500Y-99720000D01*
X118212500Y-102680000D02*
X118212500Y-99720000D01*
X119672500Y-99720000D02*
X119672500Y-102680000D01*
X119672500Y-102680000D02*
X118212500Y-102680000D01*
%TO.C,R1*%
X135380000Y-112482500D02*
X137620000Y-112482500D01*
X135380000Y-117042500D02*
X135380000Y-112482500D01*
X137620000Y-112482500D02*
X137620000Y-117042500D01*
X137620000Y-117042500D02*
X135380000Y-117042500D01*
%TO.C,R13*%
X126395000Y-110345000D02*
X127855000Y-110345000D01*
X126395000Y-113305000D02*
X126395000Y-110345000D01*
X127855000Y-110345000D02*
X127855000Y-113305000D01*
X127855000Y-113305000D02*
X126395000Y-113305000D01*
%TO.C,C10*%
X121397500Y-99720000D02*
X122857500Y-99720000D01*
X121397500Y-102680000D02*
X121397500Y-99720000D01*
X122857500Y-99720000D02*
X122857500Y-102680000D01*
X122857500Y-102680000D02*
X121397500Y-102680000D01*
%TO.C,C9*%
X114270000Y-83695000D02*
X115730000Y-83695000D01*
X114270000Y-86655000D02*
X114270000Y-83695000D01*
X115730000Y-83695000D02*
X115730000Y-86655000D01*
X115730000Y-86655000D02*
X114270000Y-86655000D01*
%TO.C,R17*%
X129460000Y-114910000D02*
X132420000Y-114910000D01*
X129460000Y-116370000D02*
X129460000Y-114910000D01*
X132420000Y-114910000D02*
X132420000Y-116370000D01*
X132420000Y-116370000D02*
X129460000Y-116370000D01*
%TO.C,J2*%
X114350000Y-68500000D02*
X127350000Y-68500000D01*
X114350000Y-78500000D02*
X114350000Y-68500000D01*
X127350000Y-68500000D02*
X127350000Y-78500000D01*
X127350000Y-78500000D02*
X114350000Y-78500000D01*
%TO.C,C19*%
X129970000Y-101170000D02*
X132930000Y-101170000D01*
X129970000Y-102630000D02*
X129970000Y-101170000D01*
X132930000Y-101170000D02*
X132930000Y-102630000D01*
X132930000Y-102630000D02*
X129970000Y-102630000D01*
%TO.C,C22*%
X128445000Y-100345000D02*
X129905000Y-100345000D01*
X128445000Y-103305000D02*
X128445000Y-100345000D01*
X129905000Y-100345000D02*
X129905000Y-103305000D01*
X129905000Y-103305000D02*
X128445000Y-103305000D01*
%TO.C,R24*%
X106095000Y-98395000D02*
X109055000Y-98395000D01*
X106095000Y-99855000D02*
X106095000Y-98395000D01*
X109055000Y-98395000D02*
X109055000Y-99855000D01*
X109055000Y-99855000D02*
X106095000Y-99855000D01*
%TO.C,C29*%
X109270000Y-111020000D02*
X110730000Y-111020000D01*
X109270000Y-113980000D02*
X109270000Y-111020000D01*
X110730000Y-111020000D02*
X110730000Y-113980000D01*
X110730000Y-113980000D02*
X109270000Y-113980000D01*
%TO.C,D3*%
X109520000Y-99720000D02*
X112480000Y-99720000D01*
X109520000Y-101180000D02*
X109520000Y-99720000D01*
X112480000Y-99720000D02*
X112480000Y-101180000D01*
X112480000Y-101180000D02*
X109520000Y-101180000D01*
%TO.C,R18*%
X129460000Y-113370000D02*
X132420000Y-113370000D01*
X129460000Y-114830000D02*
X129460000Y-113370000D01*
X132420000Y-113370000D02*
X132420000Y-114830000D01*
X132420000Y-114830000D02*
X129460000Y-114830000D01*
%TD*%
M02*
