M48
; DRILL file {KiCad 8.0.2} date 2024-08-07T22:56:29+1200
; FORMAT={-:-/ absolute / metric / decimal}
; #@! TF.CreationDate,2024-08-07T22:56:29+12:00
; #@! TF.GenerationSoftware,Kicad,Pcbnew,8.0.2
; #@! TF.FileFunction,Plated,1,4,PTH
FMAT,2
METRIC
; #@! TA.AperFunction,Plated,PTH,ViaDrill
T1C0.300
; #@! TA.AperFunction,Plated,PTH,ComponentDrill
T2C0.650
; #@! TA.AperFunction,Plated,PTH,ComponentDrill
T3C0.700
; #@! TA.AperFunction,Plated,PTH,ComponentDrill
T4C1.000
%
G90
G05
T1
X99.53Y-98.5
X99.55Y-104.4
X99.58Y-86.35
X99.6Y-80.2
X99.625Y-92.35
X99.65Y-113.275
X100.25Y-98.5
X100.27Y-104.4
X100.3Y-86.35
X100.32Y-80.2
X100.345Y-92.35
X100.37Y-113.275
X101.775Y-97.325
X102.455Y-80.7
X102.48Y-92.825
X102.525Y-105.65
X102.525Y-109.375
X102.53Y-99.75
X102.53Y-115.25
X103.175Y-80.7
X103.2Y-92.825
X103.225Y-109.375
X103.25Y-99.75
X103.25Y-115.25
X103.35Y-105.625
X103.97Y-85.17
X105.125Y-104.95
X105.15Y-110.0
X105.3Y-86.35
X105.325Y-92.775
X105.41Y-101.69
X105.44Y-116.38
X105.8Y-105.3
X105.8Y-109.6
X106.039Y-99.105
X106.6Y-110.9
X106.6Y-111.525
X106.625Y-103.45
X106.625Y-104.075
X106.625Y-105.9
X106.625Y-109.1
X106.825Y-107.5
X107.041Y-87.815
X107.05Y-92.775
X107.2Y-111.6
X107.25Y-103.45
X107.479Y-101.981
X107.525Y-106.8
X107.525Y-108.2
X107.589Y-110.901
X107.925Y-78.85
X108.225Y-106.1
X108.225Y-107.5
X108.225Y-108.9
X108.9Y-106.85
X108.975Y-108.2
X109.058Y-89.683
X109.092Y-83.367
X109.625Y-107.5
X109.7Y-108.975
X109.775Y-105.925
X110.21Y-101.23
X110.275Y-104.325
X110.35Y-86.2
X111.0Y-78.85
X111.16Y-114.28
X111.25Y-109.61
X111.54Y-112.39
X111.623Y-108.058
X111.65Y-106.858
X111.76Y-114.28
X111.812Y-108.835
X111.825Y-104.325
X112.0Y-91.295
X112.15Y-112.39
X112.36Y-114.28
X112.78Y-101.56
X112.78Y-102.28
X113.242Y-99.998
X113.28Y-108.3
X113.38Y-88.35
X114.325Y-92.65
X114.47Y-109.94
X114.698Y-96.62
X114.85Y-95.73
X114.98Y-83.64
X115.0Y-73.85
X115.068Y-92.121
X115.212Y-97.766
X115.275Y-91.275
X115.7Y-82.225
X115.925Y-80.675
X116.28Y-103.77
X116.28Y-104.49
X116.3Y-98.9
X116.575Y-100.425
X116.59Y-83.64
X116.6Y-86.7
X116.8Y-71.89
X116.85Y-95.525
X116.907Y-94.521
X117.24Y-98.92
X117.3Y-107.825
X117.3Y-108.5
X117.599Y-96.576
X117.9Y-110.05
X117.9Y-110.65
X118.15Y-82.3
X118.175Y-95.45
X118.18Y-83.64
X118.2Y-93.3
X118.218Y-86.697
X118.3Y-94.325
X118.625Y-96.7
X118.775Y-94.95
X118.8Y-93.775
X118.85Y-71.16
X119.375Y-93.3
X119.4Y-94.3
X119.4Y-95.475
X119.589Y-92.03
X119.75Y-78.325
X119.9Y-99.825
X119.95Y-94.925
X119.975Y-93.75
X120.35Y-78.35
X120.543Y-102.731
X120.55Y-94.275
X120.575Y-95.4
X120.6Y-93.25
X120.65Y-75.3
X120.675Y-75.95
X120.7Y-76.625
X120.7Y-77.225
X120.7Y-77.825
X120.77Y-71.5
X120.975Y-110.325
X121.15Y-91.975
X121.525Y-107.805
X121.525Y-108.525
X121.9Y-99.675
X121.939Y-96.902
X122.048Y-92.332
X122.15Y-102.731
X122.59Y-86.68
X122.625Y-69.075
X122.65Y-69.725
X122.65Y-75.575
X122.65Y-76.275
X122.65Y-76.975
X122.65Y-77.65
X122.675Y-70.4
X122.675Y-71.0
X122.675Y-71.6
X123.85Y-78.3
X124.081Y-94.95
X124.25Y-95.75
X124.34Y-86.69
X124.375Y-89.75
X124.55Y-97.084
X124.575Y-92.372
X124.665Y-90.625
X124.675Y-76.625
X124.675Y-77.225
X124.675Y-77.85
X124.7Y-75.425
X124.7Y-76.025
X125.52Y-104.025
X125.525Y-108.275
X125.56Y-110.29
X125.825Y-78.325
X125.95Y-84.25
X126.4Y-109.35
X126.65Y-75.8
X126.65Y-76.5
X126.65Y-77.25
X126.65Y-78.125
X126.66Y-75.19
X126.725Y-83.475
X126.725Y-86.55
X126.84Y-100.01
X127.03Y-103.6
X127.1Y-110.3
X127.25Y-108.19
X127.3Y-96.03
X127.44Y-100.01
X127.63Y-92.33
X127.71Y-90.59
X127.75Y-103.6
X128.04Y-100.01
X128.45Y-105.55
X128.65Y-110.3
X128.68Y-113.37
X128.975Y-104.7
X129.41Y-115.65
X129.65Y-106.175
X129.675Y-108.85
X129.7Y-107.575
X129.809Y-111.738
X129.858Y-110.94
X130.1Y-84.975
X130.45Y-80.2
X130.55Y-83.45
X130.65Y-86.475
X131.151Y-111.008
X131.175Y-83.45
X131.275Y-86.475
X131.525Y-107.475
X131.7Y-92.925
X131.725Y-84.15
X131.75Y-109.05
X131.8Y-106.175
X131.854Y-84.8
X132.2Y-108.3
X132.21Y-111.66
X132.25Y-103.53
X132.55Y-86.55
X132.6Y-92.9
X132.65Y-107.05
X132.703Y-92.107
X132.725Y-106.0
X132.82Y-110.95
X132.82Y-111.66
X132.825Y-109.175
X132.86Y-103.53
X132.86Y-104.19
X133.28Y-116.46
X133.605Y-105.42
X133.605Y-109.72
X133.98Y-98.48
X134.0Y-113.37
X134.255Y-110.12
X134.28Y-105.07
X134.51Y-94.225
X134.51Y-96.5
X134.77Y-112.62
X135.165Y-80.45
X135.35Y-90.475
X135.4Y-92.6
X135.425Y-91.1
X135.425Y-91.95
X135.6Y-99.75
X135.95Y-90.3
X136.13Y-115.35
X136.175Y-92.25
X136.25Y-109.48
X136.27Y-105.71
X136.32Y-99.75
X136.575Y-90.3
X136.85Y-115.35
X136.86Y-109.48
X136.875Y-92.25
X136.88Y-105.71
X137.2Y-90.275
X137.65Y-92.625
X137.8Y-90.475
X137.8Y-91.1
X137.85Y-93.55
X137.875Y-97.25
X137.9Y-80.45
X137.9Y-81.17
X137.9Y-82.4
X137.9Y-83.12
X139.005Y-98.45
X139.08Y-87.1
X139.1Y-104.525
X139.175Y-113.375
X139.725Y-98.45
X139.8Y-87.1
X139.82Y-104.525
X139.895Y-113.375
T4
X118.2Y-113.65
X120.74Y-113.65
T2
G00X136.38Y-79.325
M15
G01X135.98Y-79.325
M16
G05
G00X136.38Y-84.165
M15
G01X135.98Y-84.165
M16
G05
T3
G00X139.43Y-79.015
M15
G01X138.93Y-79.015
M16
G05
G00X139.43Y-84.475
M15
G01X138.93Y-84.475
M16
G05
M30
